<svg id="Layer_1" data-name="Layer 1" xmlns="http://www.w3.org/2000/svg" viewBox="0 0 1152.62 273.18"><defs><style>.cls-1{fill:#fff;}</style></defs><path class="cls-1" d="M0,213.61l158.21-72.47c36-17.07,44.39-31.49,44.39-48.56,0-16.7-12.14-27.32-52-27.32-42.87,0-56.15,10.62-54.25,42.49H2.66C-2.28,30.73,49.7,0,151.76,0c116.1,0,148.35,37.56,148.35,88,0,35.29-19,58.81-88.4,89.16l-56.15,24.67v2.65H300.49v63H0Z"/><path class="cls-1" d="M325.53,137c0-110,53.87-137,162-137,108.51,0,162,26.94,162,137,0,105.85-48.18,136.21-162,136.21C374.09,273.18,325.53,242.82,325.53,137ZM420,137c0,60.32,18.21,70.19,67.53,70.19,49.71,0,67.92-9.87,67.92-70.19,0-62.6-18.21-70.95-67.92-70.95C438.21,66,420,74.37,420,137Z"/><path class="cls-1" d="M668.12,213.61l158.22-72.47c36-17.07,44.39-31.49,44.39-48.56,0-16.7-12.14-27.32-52-27.32-42.87,0-56.15,10.62-54.26,42.49H670.78C665.85,30.73,717.83,0,819.89,0,936,0,968.24,37.56,968.24,88c0,35.29-19,58.81-88.41,89.16l-56.15,24.67v2.65H968.62v63H668.12Z"/><path class="cls-1" d="M1152.62,267.48h-94.09V120.65H996.68V64.88H1021c28.83,0,43.25-14.8,43.25-44.77V5.69h88.4Z"/></svg>