<svg width="24" height="24" viewBox="0 0 24 24" fill="none" xmlns="http://www.w3.org/2000/svg">
<g clip-path="url(#clip0_490_1823)">
<path d="M23.5033 17.2727L19.9076 13.6782C19.588 13.3579 19.1625 13.1817 18.7099 13.1817C18.7099 13.1817 18.709 13.1817 18.7082 13.1817C18.2555 13.1817 17.83 13.3588 17.5105 13.6782L15.1133 16.0746L7.92114 8.88465L10.3183 6.4883C10.9794 5.82735 10.9794 4.75119 10.3174 4.09024L6.72089 0.49571C6.40133 0.176252 5.97582 0 5.52318 0H5.52233C5.06884 0 4.64333 0.1771 4.32377 0.497405L0.727246 4.09279C0.617901 4.20125 -0.329758 5.22656 0.120338 7.47972C0.650958 10.1311 2.87177 13.4274 6.72089 17.2753C12.2297 22.7823 15.7041 24.0008 17.7003 24.0008C19.082 24.0008 19.7567 23.417 19.9076 23.2662L23.5033 19.6716C23.8237 19.3513 24.0008 18.9251 24 18.4718C24 18.0193 23.8237 17.5931 23.5033 17.2727ZM18.709 22.0672C18.6853 22.0909 15.8194 23.9729 7.91945 16.0763C-0.150906 8.00932 1.9292 5.29012 1.9258 5.29097L5.52233 1.69474L9.11886 5.29097L6.12246 8.28641C5.79103 8.61773 5.79103 9.15327 6.12246 9.48459L14.5132 17.8727C14.8446 18.204 15.3804 18.204 15.7118 17.8727L18.7082 14.8764L22.3047 18.4726L18.709 22.0672Z" fill="#0064DC"/>
</g>
<defs>
<clipPath id="clip0_490_1823">
<rect width="24" height="24" fill="white"/>
</clipPath>
</defs>
</svg>
