<svg width="24" height="24" viewBox="0 0 24 24" fill="none" xmlns="http://www.w3.org/2000/svg">
<g clip-path="url(#clip0_490_1837)">
<path d="M23.6925 8.39249L20.25 5.87249V3.74999C20.25 3.55108 20.171 3.36032 20.0303 3.21966C19.8897 3.07901 19.6989 2.99999 19.5 2.99999H16.335L12.4425 0.142494C12.3141 0.0486332 12.1591 -0.00195313 12 -0.00195312C11.8409 -0.00195312 11.6859 0.0486332 11.5575 0.142494L7.665 2.99999H4.5C4.30109 2.99999 4.11032 3.07901 3.96967 3.21966C3.82902 3.36032 3.75 3.55108 3.75 3.74999V5.87249L0.307501 8.39249C0.211952 8.46231 0.134282 8.55375 0.0808381 8.65934C0.0273942 8.76492 -0.000306392 8.88166 6.17011e-07 8.99999V21.75C6.17011e-07 22.3467 0.237053 22.919 0.65901 23.341C1.08097 23.7629 1.65326 24 2.25 24H21.75C22.3467 24 22.919 23.7629 23.341 23.341C23.7629 22.919 24 22.3467 24 21.75V8.99999C24.0003 8.88166 23.9726 8.76492 23.9192 8.65934C23.8657 8.55375 23.788 8.46231 23.6925 8.39249V8.39249ZM20.25 7.73249L21.9 8.93999L20.25 9.92249V7.73249ZM12 1.67999L13.8 2.99999H10.2L12 1.67999ZM5.25 4.49999H18.75V10.8225L12 14.8725L5.25 10.8225V4.49999ZM3.75 7.73249V9.92999L2.1 8.93999L3.75 7.73249ZM22.5 21.75C22.5 21.9489 22.421 22.1397 22.2803 22.2803C22.1397 22.421 21.9489 22.5 21.75 22.5H2.25C2.05109 22.5 1.86032 22.421 1.71967 22.2803C1.57902 22.1397 1.5 21.9489 1.5 21.75V10.3275L11.6175 16.395C11.7315 16.4608 11.8608 16.4955 11.9925 16.4955C12.1242 16.4955 12.2535 16.4608 12.3675 16.395L22.5 10.3275V21.75Z" fill="#0064DC"/>
<path d="M16.5 6.75H7.5V8.25H16.5V6.75Z" fill="#0064DC"/>
<path d="M15 9.75H9V11.25H15V9.75Z" fill="#0064DC"/>
</g>
<defs>
<clipPath id="clip0_490_1837">
<rect width="24" height="24" fill="white"/>
</clipPath>
</defs>
</svg>
