<svg width="24" height="24" viewBox="0 0 24 24" fill="none" xmlns="http://www.w3.org/2000/svg">
<path fill-rule="evenodd" clip-rule="evenodd" d="M1.83091 11.2002H5.22504C5.30011 9.99413 5.57392 8.28009 6.4307 6.40563C5.73881 6.03457 5.08825 5.59658 4.48777 5.10038C2.98774 6.73269 2.01284 8.85524 1.83091 11.2002ZM5.67159 4.00022C6.14217 4.37304 6.64633 4.70516 7.1788 4.99132C7.75437 4.03939 8.49444 3.06939 9.44493 2.12285C8.04897 2.48291 6.76879 3.1311 5.67159 4.00022ZM11.2 2.66828C10.105 3.64264 9.28006 4.65264 8.65936 5.64078C9.4651 5.91991 10.3167 6.10083 11.2 6.16931V2.66828ZM11.2 7.77348C10.0429 7.69597 8.93136 7.45157 7.88931 7.06423C7.14851 8.67931 6.90169 10.1512 6.82812 11.2002H11.2V7.77348ZM12.8 11.2002V7.77348C13.9571 7.69597 15.0686 7.45157 16.1107 7.06423C16.8515 8.67931 17.0983 10.1512 17.1719 11.2002H12.8ZM11.2 12.8002H6.82812C6.90169 13.8492 7.14851 15.3211 7.88931 16.9362C8.93136 16.5488 10.0429 16.3044 11.2 16.2269V12.8002ZM12.8 16.2269V12.8002H17.1719C17.0983 13.8492 16.8515 15.3211 16.1107 16.9362C15.0686 16.5488 13.9571 16.3044 12.8 16.2269ZM11.2 17.8311C10.3167 17.8996 9.4651 18.0805 8.65936 18.3596C9.28006 19.3478 10.105 20.3577 11.2 21.3321V17.8311ZM9.44494 21.8775C8.49445 20.931 7.75437 19.961 7.1788 19.0091C6.64633 19.2952 6.14217 19.6274 5.67159 20.0002C6.76879 20.8693 8.04897 21.5175 9.44494 21.8775ZM4.48777 18.9C5.08825 18.4038 5.73881 17.9658 6.4307 17.5948C5.57392 15.7203 5.30011 14.0063 5.22504 12.8002H1.83091C2.01284 15.1451 2.98774 17.2677 4.48777 18.9ZM14.5551 21.8775C15.951 21.5175 17.2312 20.8693 18.3284 20.0002C17.8578 19.6274 17.3537 19.2952 16.8212 19.0091C16.2456 19.961 15.5056 20.931 14.5551 21.8775ZM15.3406 18.3596C14.5349 18.0805 13.6833 17.8996 12.8 17.8311V21.3321C13.895 20.3577 14.7199 19.3478 15.3406 18.3596ZM17.5693 17.5948C18.2612 17.9658 18.9117 18.4038 19.5122 18.9C21.0123 17.2677 21.9872 15.1452 22.1691 12.8002H18.775C18.6999 14.0063 18.4261 15.7203 17.5693 17.5948ZM18.775 11.2002H22.1691C21.9872 8.85524 21.0123 6.73269 19.5122 5.10038C18.9117 5.59658 18.2612 6.03457 17.5693 6.40563C18.4261 8.28009 18.6999 9.99413 18.775 11.2002ZM16.8212 4.99132C17.3537 4.70516 17.8578 4.37304 18.3284 4.00022C17.2312 3.1311 15.951 2.48291 14.5551 2.12285C15.5056 3.06939 16.2456 4.03939 16.8212 4.99132ZM12.8 2.66828V6.16931C13.6833 6.10083 14.5349 5.91991 15.3406 5.64078C14.7199 4.65264 13.895 3.64264 12.8 2.66828ZM0.200001 12.0002C0.200001 5.48324 5.48304 0.200195 12 0.200195C18.517 0.200195 23.8 5.48324 23.8 12.0002C23.8 18.5172 18.517 23.8002 12 23.8002C5.48304 23.8002 0.200001 18.5172 0.200001 12.0002Z" fill="#0064DC"/>
</svg>
