<svg width="369" height="295" viewBox="0 0 369 295" fill="none" xmlns="http://www.w3.org/2000/svg">
<g clip-path="url(#clip0_22_12322)">
<path d="M37.3426 272.949C30.3316 272.949 24.852 267.952 26.7892 260.411C28.9294 252.022 42.7669 235.355 31.2541 219.037C10.627 189.832 8.80046 147.906 28.3759 135.46C65.811 111.676 64.2981 100.189 68.1726 60.7147C72.5637 15.8563 134.482 6.39782 179.094 51.7172C203.762 76.7737 245.569 70.5603 276.879 56.6031C313.447 40.3044 367.376 72.9019 349.627 135.46C333.17 193.52 331.307 223.942 352.321 257.977C356.491 264.744 353.391 272.949 341.731 272.949H37.3426Z" fill="url(#paint0_linear_22_12322)"/>
<path d="M26.4939 261.886H354.092C354.793 267.399 350.624 272.949 344.332 272.949H36.2355C30.2208 272.949 25.7559 267.657 26.4939 261.886V261.886Z" fill="url(#paint1_linear_22_12322)"/>
<path d="M146.253 63.9228H139.058H137.489H134.297H129.537H122.711C121.106 63.9228 120.072 62.2081 120.829 60.77C122.028 58.5022 124.408 56.9719 127.157 56.9719C127.219 56.9719 127.28 56.9719 127.342 56.9719C128.061 53.8006 130.903 51.4406 134.297 51.4406C138.246 51.4406 141.456 54.6303 141.456 58.5759C141.456 58.7726 141.45 58.9631 141.438 59.1475C142.12 58.8709 142.877 58.7234 143.652 58.7234C145.146 58.7234 146.511 59.2581 147.6 60.1247C149.168 61.3784 148.264 63.9228 146.253 63.9228Z" fill="url(#paint2_linear_22_12322)"/>
<path d="M344.074 113.059H332.321H329.738H324.517H316.75H305.569C302.931 113.059 301.252 110.238 302.488 107.896C304.444 104.209 308.336 101.683 312.82 101.683C312.931 101.683 313.035 101.683 313.133 101.683C314.314 96.5019 318.982 92.63 324.536 92.63C330.993 92.63 336.233 97.8662 336.233 104.319C336.233 104.627 336.221 104.928 336.196 105.223C337.321 104.799 338.558 104.559 339.849 104.559C342.284 104.559 344.517 105.407 346.288 106.827C348.853 108.91 347.377 113.059 344.074 113.059V113.059Z" fill="url(#paint3_linear_22_12322)"/>
<path d="M289.923 130.556C290.698 129.929 291.694 129.542 292.783 129.542C293.355 129.542 293.908 129.653 294.406 129.837C294.394 129.702 294.388 129.566 294.388 129.431C294.388 126.555 296.713 124.232 299.591 124.232C302.063 124.232 304.148 125.947 304.665 128.27C304.714 128.257 304.763 128.251 304.812 128.251C306.805 128.251 308.539 129.376 309.406 131.035C309.96 132.068 309.203 133.322 308.041 133.322H303.059H299.609H297.285H296.141H290.901C289.425 133.322 288.779 131.478 289.923 130.556V130.556Z" fill="url(#paint4_linear_22_12322)"/>
<path d="M310.735 189.777C310.735 191.658 309 193.188 306.823 193.188H84.8883C82.6189 193.188 80.7739 191.344 80.7739 189.058V65.49H310.735V189.777Z" fill="white"/>
<path d="M147.323 136.935H97.1758V133.414H147.323V136.935Z" fill="#7DCAE8"/>
<path d="M188.577 146.043H97.1758V142.522H188.577V146.043Z" fill="#E4F1F7"/>
<path d="M188.577 153.308H97.1758V149.786H188.577V153.308Z" fill="#E4F1F7"/>
<path d="M147.323 113.483H97.1758V109.961H147.323V113.483Z" fill="#7DCAE8"/>
<path d="M188.577 122.591H97.1758V119.069H188.577V122.591Z" fill="#E4F1F7"/>
<path d="M188.577 129.837H97.1758V126.315H188.577V129.837Z" fill="#E4F1F7"/>
<path d="M147.323 166.712H97.1758V163.19H147.323V166.712Z" fill="#7DCAE8"/>
<path d="M188.577 175.82H97.1758V172.298H188.577V175.82Z" fill="#E4F1F7"/>
<path d="M188.577 183.066H97.1758V179.544H188.577V183.066Z" fill="#E4F1F7"/>
<path d="M310.735 50.8875V55.9394H80.7739V50.8875C80.7739 48.7119 82.5267 46.9603 84.6853 46.9603H306.823C309 46.9603 310.735 48.7119 310.735 50.8875Z" fill="#2648A1"/>
<path d="M90.8663 51.7172C90.8663 52.4547 90.2759 53.0447 89.5379 53.0447C88.7999 53.0447 88.2095 52.4547 88.2095 51.7172C88.2095 50.9797 88.7999 50.3897 89.5379 50.3897C90.2759 50.3897 90.8663 50.9797 90.8663 51.7172Z" fill="white"/>
<path d="M97.5451 51.7172C97.5451 52.4547 96.9547 53.0447 96.2167 53.0447C95.4971 53.0447 94.9067 52.4547 94.9067 51.7172C94.9067 50.9797 95.4971 50.3897 96.2167 50.3897C96.9547 50.3897 97.5451 50.9797 97.5451 51.7172Z" fill="white"/>
<path d="M104.243 51.7172C104.243 52.4547 103.652 53.0447 102.914 53.0447C102.176 53.0447 101.586 52.4547 101.586 51.7172C101.586 50.9797 102.176 50.3897 102.914 50.3897C103.652 50.3897 104.243 50.9797 104.243 51.7172Z" fill="white"/>
<path d="M310.735 55.9394V65.49H80.7739V55.9394H310.735Z" fill="#7DCAE8"/>
<path d="M195.884 62.7059H89.5379C88.7999 62.7059 88.2095 62.1159 88.2095 61.3784V60.0509C88.2095 59.3319 88.7999 58.7234 89.5379 58.7234H195.884C196.622 58.7234 197.231 59.3319 197.231 60.0509V61.3784C197.231 62.1159 196.622 62.7059 195.884 62.7059Z" fill="#E4F1F7"/>
<path d="M301.953 62.7059H213.448C212.71 62.7059 212.12 62.1159 212.12 61.3784V60.0509C212.12 59.3319 212.71 58.7234 213.448 58.7234H301.953C302.691 58.7234 303.3 59.3319 303.3 60.0509V61.3784C303.3 62.1159 302.691 62.7059 301.953 62.7059Z" fill="#E4F1F7"/>
<path d="M310.735 65.49V154.525H210.791C207.415 154.525 204.666 151.796 204.666 148.403V65.49H310.735Z" fill="#2648A1"/>
<path opacity="0.1" d="M252.672 65.49H310.734V112.635H258.779C255.403 112.635 252.672 109.906 252.672 106.513V65.49Z" fill="white"/>
<path d="M307.764 193.188H204.666V154.525H310.735V189.39C310.735 191.215 309.48 192.764 307.764 193.188V193.188Z" fill="white"/>
<path d="M88.2095 81.3647V78.175C88.2095 76.3681 89.667 74.9116 91.4751 74.9116H189.149V84.6281H91.4751C89.667 84.6281 88.2095 83.1716 88.2095 81.3647V81.3647Z" fill="#E4F1F7"/>
<path d="M230.348 88.3525C230.274 88.5184 230.163 88.6844 230.071 88.8503C229.001 90.5097 227.138 91.5791 225.034 91.5791C222.949 91.5791 221.086 90.5097 220.016 88.8687C219.905 88.6967 219.807 88.5246 219.721 88.3525C220.92 86.6931 222.857 85.6237 225.034 85.6237C227.23 85.6237 229.167 86.6931 230.348 88.3525Z" fill="white"/>
<path d="M227.064 81.7888C227.064 82.9134 226.16 83.8169 225.034 83.8169C223.927 83.8169 223.005 82.9134 223.005 81.7888C223.005 80.6825 223.927 79.7791 225.034 79.7791C226.16 79.7791 227.064 80.6825 227.064 81.7888Z" fill="white"/>
<path d="M263.023 88.3525C262.931 88.5184 262.839 88.6844 262.728 88.8503C261.658 90.5097 259.813 91.5791 257.71 91.5791C255.606 91.5791 253.761 90.5097 252.691 88.8687C252.58 88.6967 252.482 88.5246 252.396 88.3525C253.577 86.6931 255.514 85.6237 257.71 85.6237C259.905 85.6237 261.842 86.6931 263.023 88.3525Z" fill="white"/>
<path d="M259.739 81.7888C259.739 82.9134 258.835 83.8169 257.71 83.8169C256.584 83.8169 255.68 82.9134 255.68 81.7888C255.68 80.6825 256.584 79.7791 257.71 79.7791C258.835 79.7791 259.739 80.6825 259.739 81.7888Z" fill="white"/>
<path d="M295.68 88.3525C295.606 88.5184 295.495 88.6844 295.403 88.8503C294.333 90.5097 292.469 91.5791 290.366 91.5791C288.263 91.5791 286.418 90.5097 285.347 88.8687C285.237 88.6967 285.138 88.5246 285.052 88.3525C286.252 86.6931 288.17 85.6237 290.366 85.6237C292.561 85.6237 294.499 86.6931 295.68 88.3525Z" fill="white"/>
<path d="M292.395 81.7888C292.395 82.9134 291.491 83.8169 290.366 83.8169C289.259 83.8169 288.336 82.9134 288.336 81.7888C288.336 80.6825 289.259 79.7791 290.366 79.7791C291.491 79.7791 292.395 80.6825 292.395 81.7888Z" fill="white"/>
<path d="M216.382 85.6237H212.12C212.12 80.0741 215.625 75.3541 220.533 73.5287L222.156 77.4559L222.138 77.4744C218.799 78.6728 216.382 81.8625 216.382 85.6237Z" fill="#00ACFA"/>
<path d="M225.034 72.6991C225.643 72.6991 226.234 72.7544 226.806 72.8281L226.215 77.0503C225.828 76.995 225.44 76.9765 225.034 76.9765C224.038 76.9765 223.079 77.1425 222.175 77.4559H222.156L220.533 73.5287C221.935 72.9941 223.448 72.6991 225.034 72.6991Z" fill="#006FFF"/>
<path d="M233.688 85.6237H237.968C237.968 92.7591 232.175 98.53 225.035 98.53V94.2709C229.813 94.2709 233.688 90.3991 233.688 85.6237V85.6237Z" fill="#E4F1F7"/>
<path d="M218.928 91.7266L215.902 94.7503C213.559 92.4088 212.12 89.1822 212.12 85.6237H216.4C216.4 88.0022 217.359 90.1594 218.928 91.7266Z" fill="#7DCAE8"/>
<path d="M225.035 94.2709V98.53C221.474 98.53 218.245 97.0919 215.902 94.7503L218.928 91.7266C220.496 93.2938 222.655 94.2709 225.035 94.2709Z" fill="#FEB72B"/>
<path d="M225.348 98.53H224.739V94.2709H225.348V98.53Z" fill="#2648A1"/>
<path d="M216.123 94.9716L215.681 94.5291L218.706 91.5053L219.149 91.9478L216.123 94.9716Z" fill="#2648A1"/>
<path d="M216.4 85.9188H212.12V85.3103H216.4V85.9188Z" fill="#2648A1"/>
<path d="M221.861 77.585L220.238 73.6394L220.81 73.3997L222.433 77.3453L221.861 77.585Z" fill="#2648A1"/>
<path d="M257.71 94.2709V98.53C252.156 98.53 247.433 95.0269 245.606 90.1225L249.555 88.5V88.5184C250.754 91.8556 253.946 94.2709 257.71 94.2709V94.2709Z" fill="#E4F1F7"/>
<path d="M244.776 85.6238C244.776 85.0153 244.831 84.4253 244.905 83.8538L249.149 84.4438C249.093 84.8309 249.056 85.2181 249.056 85.6238C249.056 86.6194 249.241 87.5781 249.554 88.4816V88.5L245.606 90.1225C245.071 88.7213 244.776 87.2094 244.776 85.6238Z" fill="#FEB72B"/>
<path d="M257.709 76.9766V72.6991C264.85 72.6991 270.624 78.4884 270.624 85.6238H266.363C266.363 80.8484 262.488 76.9766 257.709 76.9766Z" fill="#006FFF"/>
<path d="M257.709 72.6991V76.9766C253.318 76.9766 249.72 80.2216 249.148 84.4438L244.905 83.8538C245.772 77.5481 251.159 72.6991 257.709 72.6991Z" fill="#00ACFA"/>
<path d="M249.665 88.795L245.717 90.4175L245.496 89.8459L249.425 88.2234L249.665 88.795Z" fill="#2648A1"/>
<path d="M249.185 84.1303L249.093 84.7572L244.868 84.1487L244.96 83.5403L249.185 84.1303Z" fill="#2648A1"/>
<path d="M258.023 72.6991V76.9765H257.396V72.6991H258.023Z" fill="#2648A1"/>
<path d="M296.492 79.5025L299.517 76.4788C303.429 80.4059 304.296 86.2138 302.119 90.9706L298.189 89.3297L298.171 89.3113C299.702 86.1031 299.148 82.1575 296.492 79.5025V79.5025Z" fill="#7DCAE8"/>
<path d="M299.517 94.7503C299.093 95.1744 298.632 95.5431 298.171 95.9119L295.606 92.501C295.901 92.2613 296.215 92.0031 296.492 91.7266C297.193 91.026 297.746 90.2147 298.171 89.3482L298.189 89.3297L302.119 90.9706C301.492 92.335 300.643 93.6256 299.517 94.7503V94.7503Z" fill="#FEB72B"/>
<path d="M290.366 76.9581V72.6991C293.669 72.6991 296.99 73.9528 299.499 76.4788L296.492 79.5025C294.794 77.8063 292.58 76.9766 290.366 76.9581V76.9581Z" fill="#00ACFA"/>
<path d="M284.259 79.5025L281.233 76.4788C283.761 73.9528 287.064 72.6991 290.366 72.6991V76.9766C288.152 76.9766 285.938 77.8063 284.259 79.5025Z" fill="#006FFF"/>
<path d="M281.233 94.7503L284.259 91.7266C287.34 94.8241 292.211 95.0822 295.606 92.5009L298.17 95.9119C293.097 99.7469 285.846 99.3782 281.233 94.7503V94.7503Z" fill="#E4F1F7"/>
<path d="M290.052 72.6991H290.68V76.9765H290.052V72.6991Z" fill="#2648A1"/>
<path d="M296.27 79.2813L299.296 76.2575L299.72 76.7L296.713 79.7238L296.27 79.2813Z" fill="#2648A1"/>
<path d="M298.299 89.0531L302.229 90.6941L302.008 91.2657L298.06 89.6247L298.299 89.0531Z" fill="#2648A1"/>
<path d="M295.348 92.6853L295.846 92.3166L298.41 95.7275L297.912 96.0962L295.348 92.6853Z" fill="#2648A1"/>
<path d="M303.299 154.525H212.119V122.425C214.284 133.979 219.757 137.63 228.54 133.377C241.694 127.016 242.617 142.356 255.218 141.95C267.82 141.563 269.905 129.8 278.834 126.02C287.764 122.222 295.974 137.986 303.041 130.906L303.299 154.525Z" fill="url(#paint5_linear_22_12322)"/>
<path d="M254.739 142.264C249.296 142.264 245.975 139.295 243.023 136.659C239.13 133.211 235.791 130.206 228.669 133.672C225.108 135.387 221.935 135.571 219.204 134.188C213.54 131.33 211.879 122.849 211.806 122.48L212.415 122.37C212.433 122.443 214.093 130.925 219.499 133.635C222.027 134.926 225.034 134.741 228.392 133.1C235.883 129.468 239.555 132.75 243.429 136.198C246.529 138.963 249.702 141.803 255.2 141.637C262.599 141.416 266.362 137.138 269.997 133.008C272.469 130.187 275.052 127.274 278.705 125.725C283.097 123.863 287.211 126.5 291.196 129.044C295.532 131.828 299.296 134.225 302.82 130.685L303.262 131.127C299.369 135.018 295.237 132.363 290.864 129.56C287.026 127.108 283.041 124.564 278.945 126.297C275.421 127.79 273.004 130.519 270.458 133.414C266.731 137.654 262.875 142.024 255.219 142.264C255.059 142.264 254.899 142.264 254.739 142.264V142.264Z" fill="#B6FAFF"/>
<path d="M282.801 125.652C282.801 126.5 282.119 127.182 281.27 127.182C280.421 127.182 279.739 126.5 279.739 125.652C279.739 124.822 280.421 124.14 281.27 124.14C282.119 124.14 282.801 124.822 282.801 125.652Z" fill="#B6FAFF"/>
<path d="M256.713 142.301C256.713 143.13 256.03 143.812 255.182 143.812C254.333 143.812 253.65 143.13 253.65 142.301C253.65 141.452 254.333 140.77 255.182 140.77C256.03 140.77 256.713 141.452 256.713 142.301Z" fill="#B6FAFF"/>
<path d="M236.234 132.197C236.234 133.027 235.551 133.709 234.702 133.709C233.872 133.709 233.189 133.027 233.189 132.197C233.189 131.349 233.872 130.667 234.702 130.667C235.551 130.667 236.234 131.349 236.234 132.197Z" fill="#B6FAFF"/>
<path d="M255.182 131.459C255.182 132.307 254.499 132.99 253.651 132.99C252.82 132.99 252.138 132.307 252.138 131.459C252.138 130.611 252.82 129.929 253.651 129.929C254.499 129.929 255.182 130.611 255.182 131.459Z" fill="white"/>
<path d="M300.089 119.475C300.089 120.305 299.407 120.987 298.576 120.987C297.728 120.987 297.045 120.305 297.045 119.475C297.045 118.627 297.728 117.945 298.576 117.945C299.407 117.945 300.089 118.627 300.089 119.475Z" fill="white"/>
<path d="M303.3 154.525H212.12V134.262C216.781 145.767 223.971 147.531 233.688 139.553C248.282 127.606 260.68 129.726 270.625 136.64C280.588 143.554 289.222 137.562 292.008 128.675C294.813 119.77 299.019 118.037 303.3 118.037V154.525Z" fill="url(#paint6_linear_22_12322)"/>
<path d="M223.927 144.089C223.091 144.089 222.267 143.985 221.455 143.776C215.053 142.153 211.953 134.704 211.824 134.391L212.396 134.151C212.433 134.225 215.514 141.637 221.621 143.186C225.256 144.107 229.241 142.798 233.503 139.314C246.141 128.952 258.687 127.975 270.809 136.382C274.886 139.222 279.019 140.033 282.764 138.742C286.805 137.359 290.144 133.561 291.713 128.583C294.739 118.959 299.48 117.723 303.299 117.723V118.35C299.48 118.35 295.181 119.586 292.303 128.767C290.68 133.93 287.192 137.894 282.967 139.332C279.019 140.678 274.702 139.83 270.458 136.898C258.595 128.657 246.289 129.634 233.89 139.793C230.403 142.651 227.082 144.089 223.927 144.089V144.089Z" fill="white"/>
<path d="M282.801 139.387C282.801 140.236 282.119 140.918 281.27 140.918C280.421 140.918 279.739 140.236 279.739 139.387C279.739 138.558 280.421 137.876 281.27 137.876C282.119 137.876 282.801 138.558 282.801 139.387Z" fill="white"/>
<path d="M225.385 143.812C225.385 144.661 224.702 145.343 223.872 145.343C223.023 145.343 222.341 144.661 222.341 143.812C222.341 142.983 223.023 142.301 223.872 142.301C224.702 142.301 225.385 142.983 225.385 143.812Z" fill="white"/>
<path d="M241.953 111.805H216.419C215.994 111.805 215.662 111.455 215.662 111.049V110.293C215.662 109.887 215.994 109.537 216.419 109.537H241.953C242.378 109.537 242.71 109.887 242.71 110.293V111.049C242.71 111.455 242.378 111.805 241.953 111.805Z" fill="#7DCAE8"/>
<path d="M241.953 116.875H216.419C215.994 116.875 215.662 116.543 215.662 116.119V115.382C215.662 114.958 215.994 114.626 216.419 114.626H241.953C242.378 114.626 242.71 114.958 242.71 115.382V116.119C242.71 116.543 242.378 116.875 241.953 116.875Z" fill="white"/>
<path d="M228.171 168.5C228.171 169.422 228.005 170.307 227.728 171.118C226.64 174.271 223.651 176.521 220.145 176.521C215.717 176.521 212.12 172.944 212.12 168.5C212.12 164.997 214.371 162.01 217.525 160.922C218.337 160.627 219.223 160.48 220.145 160.48C220.496 160.48 220.828 160.498 221.16 160.554C224.776 160.996 227.636 163.872 228.097 167.486C228.153 167.818 228.171 168.168 228.171 168.5Z" fill="#F23361"/>
<path opacity="0.3" d="M228.171 168.5C228.171 169.422 228.005 170.307 227.728 171.118C226.898 171.413 226.031 171.561 225.108 171.561C220.68 171.561 217.083 167.984 217.083 163.541C217.083 162.619 217.23 161.752 217.525 160.922C218.337 160.627 219.223 160.48 220.145 160.48C220.496 160.48 220.828 160.498 221.16 160.554C220.514 161.383 220.145 162.416 220.145 163.541C220.145 166.269 222.359 168.5 225.108 168.5C226.234 168.5 227.267 168.132 228.097 167.486C228.153 167.818 228.171 168.168 228.171 168.5V168.5Z" fill="white"/>
<path d="M223.706 169.588L220.146 173.165L216.585 169.588C215.588 168.611 215.588 167.025 216.585 166.03C217.562 165.052 219.02 165.2 220.146 166.822C221.253 165.2 222.729 165.052 223.706 166.03C224.684 167.025 224.684 168.611 223.706 169.588Z" fill="white"/>
<path d="M226.474 181.112H213.835V179.378H226.474V181.112Z" fill="#F23361"/>
<path d="M224.204 185.629H216.105V183.896H224.204V185.629Z" fill="#7DCAE8"/>
<path d="M249.61 168.5C249.61 169.367 249.463 170.197 249.223 170.971C248.171 174.197 245.145 176.521 241.584 176.521C237.156 176.521 233.559 172.944 233.559 168.5C233.559 165.145 235.625 162.25 238.559 161.07C239.499 160.683 240.514 160.48 241.584 160.48C241.818 160.48 242.052 160.492 242.285 160.517C245.957 160.83 248.946 163.633 249.499 167.228C249.573 167.646 249.61 168.07 249.61 168.5V168.5Z" fill="#18A4E1"/>
<path opacity="0.3" d="M249.61 168.5C249.61 169.367 249.462 170.197 249.222 170.971C248.281 171.358 247.267 171.561 246.197 171.561C241.769 171.561 238.171 167.984 238.171 163.541C238.171 162.674 238.318 161.844 238.558 161.07C239.499 160.683 240.514 160.48 241.584 160.48C241.818 160.48 242.052 160.492 242.285 160.517C241.621 161.347 241.252 162.416 241.252 163.541C241.252 166.269 243.466 168.5 246.197 168.5C247.47 168.5 248.632 168.021 249.499 167.228C249.573 167.646 249.61 168.07 249.61 168.5Z" fill="white"/>
<path d="M246.345 168.224L246.197 170.086C246.031 171.247 245.57 172.096 243.872 172.096H241.197C240.847 172.096 240.57 171.819 240.57 171.469V167.837C240.57 167.56 240.717 167.283 240.957 167.136C241.308 166.933 241.806 166.583 242.064 166.122C242.526 165.329 242.157 165.053 242.359 164.794C242.728 164.297 243.43 164.997 243.448 165.993C243.46 166.657 243.405 167.105 243.282 167.339H245.588C246.049 167.339 246.418 167.763 246.345 168.224V168.224Z" fill="white"/>
<path d="M237.802 167.283H239.334C239.481 167.283 239.592 167.394 239.592 167.542V172.114C239.592 172.262 239.481 172.372 239.334 172.372H237.802C237.655 172.372 237.544 172.262 237.544 172.114V167.542C237.544 167.394 237.655 167.283 237.802 167.283Z" fill="white"/>
<path d="M247.894 181.112H235.256V179.378H247.894V181.112Z" fill="#18A4E1"/>
<path d="M245.625 185.629H237.543V183.896H245.625V185.629Z" fill="#7DCAE8"/>
<path d="M270.68 168.5C270.68 169.496 270.495 170.455 270.163 171.34C269.019 174.363 266.086 176.521 262.654 176.521C258.226 176.521 254.628 172.944 254.628 168.5C254.628 164.721 257.23 161.549 260.754 160.701C261.363 160.554 262.008 160.48 262.654 160.48C263.208 160.48 263.743 160.535 264.241 160.627C267.709 161.328 270.385 164.278 270.643 167.892C270.668 168.089 270.68 168.291 270.68 168.5V168.5Z" fill="#FEB72B"/>
<path fill-rule="evenodd" clip-rule="evenodd" d="M266.529 166.435V170.75C266.529 171.118 266.234 171.413 265.865 171.413H261.916L260.219 172.722C260.016 172.888 259.702 172.741 259.702 172.483L259.684 171.413H259.444C259.075 171.413 258.78 171.118 258.78 170.75V166.435C258.78 166.067 259.075 165.772 259.444 165.772H265.865C266.234 165.772 266.529 166.067 266.529 166.435V166.435ZM261.363 168.593C261.363 168.279 261.104 168.021 260.809 168.021C260.496 168.021 260.237 168.279 260.237 168.593C260.237 168.906 260.496 169.146 260.809 169.146C261.104 169.146 261.363 168.906 261.363 168.593ZM263.208 168.593C263.208 168.279 262.968 168.021 262.654 168.021C262.341 168.021 262.082 168.279 262.082 168.593C262.082 168.906 262.341 169.146 262.654 169.146C262.968 169.146 263.208 168.906 263.208 168.593ZM265.071 168.593C265.071 168.279 264.813 168.021 264.499 168.021C264.186 168.021 263.946 168.279 263.946 168.593C263.946 168.906 264.186 169.146 264.499 169.146C264.813 169.146 265.071 168.906 265.071 168.593Z" fill="white"/>
<path d="M268.964 181.112H256.344V179.378H268.964V181.112Z" fill="#FEB72B"/>
<path d="M266.695 185.629H258.614V183.896H266.695V185.629Z" fill="#7DCAE8"/>
<path opacity="0.3" d="M270.68 168.5C270.68 169.496 270.496 170.455 270.163 171.34C269.555 171.487 268.909 171.561 268.263 171.561C263.835 171.561 260.237 167.984 260.237 163.541C260.237 162.545 260.422 161.586 260.754 160.701C261.363 160.554 262.008 160.48 262.654 160.48C263.208 160.48 263.743 160.535 264.241 160.627C263.651 161.457 263.3 162.453 263.3 163.541C263.3 166.269 265.532 168.5 268.263 168.5C269.13 168.5 269.942 168.279 270.643 167.892C270.668 168.089 270.68 168.291 270.68 168.5V168.5Z" fill="white"/>
<path d="M306.823 193.188L197.341 261.886L84.8882 193.188H306.823Z" fill="url(#paint7_linear_22_12322)"/>
<path d="M319.776 201.891L332.156 260.614C332.303 261.259 331.805 261.886 331.141 261.886C330.661 261.886 330.255 261.554 330.126 261.093L314.665 201.891H319.776Z" fill="#2648A1"/>
<path d="M299.628 201.891L284.167 261.093C284.056 261.554 283.632 261.886 283.17 261.886C282.506 261.886 282.008 261.259 282.137 260.614L294.536 201.891H299.628Z" fill="#2648A1"/>
<path d="M255.957 201.891L240.496 261.093C240.385 261.554 239.961 261.886 239.499 261.886C238.835 261.886 238.337 261.259 238.466 260.614L250.865 201.891H255.957Z" fill="url(#paint8_linear_22_12322)"/>
<path d="M323.963 201.891H247.248C246.806 201.891 246.437 201.522 246.437 201.079V200.508C246.437 200.047 246.806 199.697 247.248 199.697H323.963C324.406 199.697 324.775 200.047 324.775 200.508V201.079C324.775 201.522 324.406 201.891 323.963 201.891Z" fill="url(#paint9_linear_22_12322)"/>
<path d="M283.134 199.697C283.742 199.697 284.241 200.176 284.241 200.784C284.241 201.393 283.742 201.891 283.134 201.891H247.599C247.045 201.891 246.547 201.522 246.455 200.969C246.344 200.287 246.879 199.697 247.544 199.697H283.134Z" fill="#2648A1"/>
<path d="M302.229 193.557L258.927 193.741C257.839 193.741 256.953 192.672 256.953 191.603V163.024C256.953 161.789 257.968 160.793 259.204 160.793H301.86C302.894 160.793 303.724 161.623 303.724 162.656V192.063C303.724 192.893 303.06 193.557 302.229 193.557Z" fill="url(#paint10_linear_22_12322)"/>
<path d="M260.329 193.741H258.927C257.839 193.741 256.953 192.672 256.953 191.603V163.024C256.953 161.789 257.968 160.793 259.204 160.793H260.625C259.388 160.793 258.374 161.789 258.374 163.024V191.603C258.374 192.672 259.259 193.741 260.329 193.741Z" fill="url(#paint11_linear_22_12322)"/>
<path d="M258.374 188.782H303.724V192.045C303.724 192.893 303.06 193.557 302.23 193.557L297.912 193.575L260.256 193.723C259.204 193.686 258.374 192.653 258.374 191.603V188.782Z" fill="url(#paint12_linear_22_12322)"/>
<path d="M281.049 193.649V196.378C281.049 197.318 281.824 198.093 282.783 198.093H288.226C289.112 198.093 289.813 198.812 289.813 199.678H274.555C273.355 199.678 272.415 198.646 272.562 197.447L272.986 193.686L281.049 193.649Z" fill="url(#paint13_linear_22_12322)"/>
<path d="M289.813 199.678H274.555C273.355 199.678 272.415 198.646 272.562 197.447V197.337C272.71 198.277 273.54 199.014 274.555 199.014H289.665C289.757 199.217 289.813 199.457 289.813 199.678Z" fill="url(#paint14_linear_22_12322)"/>
<path d="M274.02 193.668L273.577 197.447C273.429 198.646 274.37 199.678 275.569 199.678H274.555C273.355 199.678 272.415 198.646 272.562 197.447L272.986 193.686L274.02 193.668Z" fill="url(#paint15_linear_22_12322)"/>
<path d="M304.13 199.678H279.259V199.273C279.259 198.627 279.794 198.093 280.44 198.093H304.13V199.678Z" fill="white"/>
<path d="M256.953 191.603V188.634L258.374 188.782V191.603C258.374 192.672 259.259 193.741 260.329 193.741H258.927C257.839 193.741 256.953 192.672 256.953 191.603Z" fill="url(#paint16_linear_22_12322)"/>
<path d="M259.794 187.362V162.213H302.303V187.362H259.794Z" fill="url(#paint17_linear_22_12322)"/>
<path d="M285.495 178.77V187.362H259.794V173.405H280.126C283.078 173.405 285.495 175.82 285.495 178.77Z" fill="white"/>
<path d="M290.329 175.009C290.329 179.784 286.454 183.656 281.676 183.656C276.897 183.656 273.023 179.784 273.023 175.009C273.023 170.233 276.897 166.362 281.676 166.362C286.454 166.362 290.329 170.233 290.329 175.009Z" fill="#2648A1"/>
<path opacity="0.2" d="M285.495 178.77V182.752C284.333 183.324 283.041 183.656 281.676 183.656C276.897 183.656 273.023 179.784 273.023 175.009C273.023 174.456 273.078 173.921 273.171 173.405H280.126C283.078 173.405 285.495 175.82 285.495 178.77V178.77Z" fill="white"/>
<path d="M346.473 168.869V193.409C346.473 195.161 345.07 196.562 343.318 196.562H341.048L339.406 164.776L341.786 164.573C342.131 164.549 342.463 164.555 342.783 164.592C344.867 164.905 346.473 166.675 346.473 168.869V168.869Z" fill="url(#paint18_linear_22_12322)"/>
<path d="M342.783 174.29C342.783 175.838 343.392 176.189 344.554 178.623C345.735 181.056 344.056 184.228 343.982 189.869C343.964 192.727 344.683 194.608 345.403 195.769C344.849 196.267 344.111 196.562 343.318 196.562H342.783V174.29Z" fill="#F97386"/>
<path d="M342.783 164.592V200.969C342.783 201.577 342.284 202.093 341.657 202.093H320.439C319.831 202.093 319.314 201.577 319.314 200.969V167.081C320.015 166.638 320.827 166.343 321.712 166.251L328.133 165.716L339.406 164.776L341.786 164.573C342.131 164.549 342.463 164.555 342.783 164.592V164.592Z" fill="url(#paint19_linear_22_12322)"/>
<path d="M326.011 174.29C325.212 180.964 325.236 186.102 326.085 189.703C327.174 194.423 324.535 198.996 319.314 199.992V181.056L326.011 174.29Z" fill="#F97386"/>
<path d="M328.133 165.716L320.901 195.013C320.679 195.898 320.089 196.618 319.314 197.023C318.89 197.244 318.391 197.373 317.893 197.373H294.037C294.345 195.788 294.16 194.669 293.484 194.018L313.908 190.92L317.045 170.621C317.284 169.146 318.133 167.873 319.314 167.081C320.015 166.638 320.827 166.343 321.712 166.251L328.133 165.716Z" fill="url(#paint20_linear_22_12322)"/>
<g opacity="0.3">
<g opacity="0.3">
<g opacity="0.3">
<path opacity="0.3" d="M287.949 243.596L287.562 243.633L278.355 140.328L278.761 140.309L287.949 243.596Z" fill="white"/>
</g>
<g opacity="0.3">
<path opacity="0.3" d="M294.425 243.025L294.019 243.062L284.831 139.756L285.219 139.719L294.425 243.025Z" fill="white"/>
</g>
<g opacity="0.3">
<path opacity="0.3" d="M300.882 242.453L300.477 242.472L291.289 139.185L291.676 139.148L300.882 242.453Z" fill="white"/>
</g>
<g opacity="0.3">
<path opacity="0.3" d="M307.34 241.863L306.934 241.9L297.746 138.613L298.134 138.576L307.34 241.863Z" fill="white"/>
</g>
<g opacity="0.3">
<path opacity="0.3" d="M313.798 241.292L313.41 241.328L304.204 138.042L304.591 138.005L313.798 241.292Z" fill="white"/>
</g>
<g opacity="0.3">
<path opacity="0.3" d="M320.255 240.72L319.868 240.757L310.661 137.47L311.067 137.433L320.255 240.72Z" fill="white"/>
</g>
<g opacity="0.3">
<path opacity="0.3" d="M326.713 240.148L326.325 240.185L317.119 136.898L317.525 136.862L326.713 240.148Z" fill="white"/>
</g>
<g opacity="0.3">
<path opacity="0.3" d="M333.17 239.577L332.783 239.614L323.576 136.308L323.982 136.272L333.17 239.577Z" fill="white"/>
</g>
<g opacity="0.3">
<path opacity="0.3" d="M339.646 239.005L339.24 239.042L330.052 135.737L330.439 135.7L339.646 239.005Z" fill="white"/>
</g>
<g opacity="0.3">
<path opacity="0.3" d="M346.103 238.415L345.697 238.452L336.509 135.165L336.897 135.128L346.103 238.415Z" fill="white"/>
</g>
<g opacity="0.3">
<path opacity="0.3" d="M352.561 237.844L352.155 237.881L342.967 134.594L343.354 134.557L352.561 237.844Z" fill="white"/>
</g>
<g opacity="0.3">
<path opacity="0.3" d="M359.019 237.272L358.631 237.309L349.425 134.022L349.812 133.985L359.019 237.272Z" fill="white"/>
</g>
<g opacity="0.3">
<path opacity="0.3" d="M365.476 236.701L365.089 236.738L355.882 133.451L356.288 133.414L365.476 236.701Z" fill="white"/>
</g>
<g opacity="0.3">
<path opacity="0.3" d="M371.933 236.129L371.546 236.166L362.339 132.861L362.745 132.842L371.933 236.129Z" fill="white"/>
</g>
<g opacity="0.3">
<path opacity="0.3" d="M378.391 235.558L378.003 235.594L368.797 132.289L369.203 132.252L378.391 235.558Z" fill="white"/>
</g>
</g>
<g opacity="0.3">
<g opacity="0.3">
<path opacity="0.3" d="M278.576 140.512L278.54 140.125L381.915 130.925L381.933 131.33L278.576 140.512Z" fill="white"/>
</g>
<g opacity="0.3">
<path opacity="0.3" d="M279.149 146.965L279.112 146.578L382.487 137.378L382.524 137.783L279.149 146.965Z" fill="white"/>
</g>
<g opacity="0.3">
<path opacity="0.3" d="M279.721 153.437L279.702 153.031L383.059 143.849L383.096 144.237L279.721 153.437Z" fill="white"/>
</g>
<g opacity="0.3">
<path opacity="0.3" d="M280.311 159.89L280.274 159.484L383.631 150.302L383.668 150.69L280.311 159.89Z" fill="white"/>
</g>
<g opacity="0.3">
<path opacity="0.3" d="M280.883 166.343L280.846 165.938L384.203 156.756L384.24 157.143L280.883 166.343Z" fill="white"/>
</g>
<g opacity="0.3">
<path opacity="0.3" d="M281.455 172.796L281.418 172.409L384.775 163.209L384.812 163.596L281.455 172.796Z" fill="white"/>
</g>
<g opacity="0.3">
<path opacity="0.3" d="M282.027 179.249L281.99 178.862L385.346 169.662L385.383 170.067L282.027 179.249Z" fill="white"/>
</g>
<g opacity="0.3">
<path opacity="0.3" d="M282.598 185.702L282.562 185.315L385.937 176.115L385.974 176.521L282.598 185.702Z" fill="white"/>
</g>
<g opacity="0.3">
<path opacity="0.3" d="M283.17 192.156L283.152 191.768L386.509 182.568L386.546 182.974L283.17 192.156Z" fill="white"/>
</g>
<g opacity="0.3">
<path opacity="0.3" d="M387.118 189.427L283.761 198.627L283.724 198.222L387.081 189.04L387.118 189.427Z" fill="white"/>
</g>
<g opacity="0.3">
<path opacity="0.3" d="M387.69 195.88L284.333 205.08L284.296 204.675L387.653 195.493L387.69 195.88Z" fill="white"/>
</g>
<g opacity="0.3">
<path opacity="0.3" d="M388.262 202.333L284.905 211.533L284.868 211.128L388.225 201.946L388.262 202.333Z" fill="white"/>
</g>
<g opacity="0.3">
<path opacity="0.3" d="M388.834 208.786L285.477 217.987L285.44 217.599L388.797 208.399L388.834 208.786Z" fill="white"/>
</g>
<g opacity="0.3">
<path opacity="0.3" d="M389.405 215.258L286.049 224.44L286.012 224.053L389.387 214.852L389.405 215.258Z" fill="white"/>
</g>
<g opacity="0.3">
<path opacity="0.3" d="M389.996 221.711L286.621 230.893L286.584 230.506L389.959 221.305L389.996 221.711Z" fill="white"/>
</g>
<g opacity="0.3">
<path opacity="0.3" d="M390.568 228.164L287.211 237.346L287.174 236.959L390.531 227.758L390.568 228.164Z" fill="white"/>
</g>
<g opacity="0.3">
<path opacity="0.3" d="M391.14 234.617L287.783 243.817L287.746 243.412L391.103 234.23L391.14 234.617Z" fill="white"/>
</g>
</g>
</g>
<path d="M327.838 164.85L327.008 162.563C325.925 163.448 324.99 163.571 324.203 162.932C323.416 162.305 322.389 160.388 321.122 157.18C321.848 157.032 322.666 156.584 323.576 155.834C324.486 155.072 325.089 154.199 325.384 153.216C326.085 154.9 326.78 155.895 327.469 156.202C327.383 155.268 327.672 154.771 328.336 154.709C329.332 154.617 329.831 155.649 328.908 157.309L332.838 156.147L334.794 163.467L327.838 164.85Z" fill="url(#paint21_linear_22_12322)"/>
<path d="M327.801 164.721L327.008 162.563C327.635 161.937 328.059 161.439 328.281 161.07C328.342 162.385 328.182 163.602 327.801 164.721V164.721Z" fill="url(#paint22_linear_22_12322)"/>
<path d="M333.816 159.761C333.742 159.798 333.668 159.816 333.613 159.835L330.476 160.591C330.052 160.683 329.646 160.425 329.535 160.019L328.908 157.309C329.831 155.649 329.332 154.617 328.336 154.709C327.672 154.771 327.383 155.268 327.469 156.202C326.768 155.895 326.073 154.9 325.384 153.216C325.089 154.199 324.486 155.066 323.576 155.815C322.666 156.577 321.848 157.032 321.122 157.18C318.189 157.18 317.119 155.041 317.119 153.308C317.119 151.556 318.982 151.28 319.536 151.058C320.089 150.837 320.089 150.376 319.314 150.266C318.539 150.137 318.263 149.454 318.742 149.141C319.24 148.809 320.698 149.049 322.248 148.975C323.797 148.901 324.997 147.924 326.602 148.053C327.672 148.127 328.551 148.834 329.24 150.173C329.708 149.669 330.28 149.583 330.956 149.915C331.952 150.413 332.58 151.833 333.539 153.99C334.056 155.188 334.498 156.737 334.794 157.88C334.997 158.673 334.554 159.484 333.816 159.761Z" fill="url(#paint23_linear_22_12322)"/>
<path d="M327.082 165.808L326.713 164.333C326.62 163.965 326.823 163.578 327.192 163.448L333.945 160.996C334.388 160.849 334.867 161.107 334.96 161.568L335.753 165.089L327.082 165.808Z" fill="url(#paint24_linear_22_12322)"/>
<path d="M286.658 196.673C284.985 196.82 283.712 196.869 282.838 196.82C281.529 196.747 281.565 196.064 281.805 196.064C281.977 196.064 283.896 196.064 287.562 196.064L286.658 196.673Z" fill="url(#paint25_linear_22_12322)"/>
<path d="M294.111 196.913L293.318 197.521C292.82 197.89 292.211 198.093 291.602 198.093H284.96H282.783C282.574 197.933 282.746 197.779 283.3 197.632C282.617 197.65 281.953 197.65 281.824 197.337C281.713 197.005 282.23 196.968 283.392 196.839C284.554 196.71 286.418 196.396 288.613 195.456C290.065 194.829 291.688 194.35 293.484 194.018C294.665 194.411 294.874 195.376 294.111 196.913V196.913Z" fill="url(#paint26_linear_22_12322)"/>
<path d="M301.38 218.613H311.122L309.886 241.494L309.757 244.149L303.41 244.5L303.207 241.845L301.38 218.613Z" fill="url(#paint27_linear_22_12322)"/>
<path d="M309.886 241.494L309.757 244.149L309.093 256.337H304.332L303.41 244.5L303.207 241.845L309.886 241.494Z" fill="url(#paint28_linear_22_12322)"/>
<path d="M310.735 242.048V243.559C310.735 243.873 310.495 244.113 310.2 244.131L309.757 244.149L303.41 244.5L302.912 244.518C302.58 244.537 302.322 244.278 302.322 243.947V242.435C302.322 242.14 302.543 241.882 302.857 241.863L303.207 241.845L309.886 241.494L310.144 241.476C310.458 241.458 310.735 241.716 310.735 242.048Z" fill="#4A4975"/>
<path d="M309.628 255.931V260.706C309.628 261.352 309.111 261.868 308.466 261.868H293.816C292.986 261.868 292.525 260.946 292.986 260.282C293.816 259.084 295.551 258.549 296.86 257.922C298.115 257.332 301.288 255.341 302.986 254.272C303.521 253.921 304.24 254.106 304.536 254.659C304.831 255.175 305.274 255.691 305.956 255.876C306.897 256.115 307.451 255.544 307.728 255.12C307.875 254.88 308.152 254.733 308.447 254.733C309.093 254.733 309.628 255.267 309.628 255.931V255.931Z" fill="url(#paint29_linear_22_12322)"/>
<path d="M323.428 201.891V218.613H295.975L294.757 241.494L294.61 244.149L288.263 244.5L288.06 241.845L286.012 215.682C285.883 214.096 286.861 212.621 288.392 212.123L319.775 201.891H323.428Z" fill="url(#paint30_linear_22_12322)"/>
<path d="M294.757 241.494L294.609 244.149L293.945 256.337H289.203L288.263 244.5L288.06 241.845L294.757 241.494Z" fill="url(#paint31_linear_22_12322)"/>
<path d="M295.606 242.048V243.559C295.606 243.873 295.366 244.112 295.052 244.131L294.61 244.149L288.263 244.5L287.765 244.518C287.451 244.537 287.174 244.278 287.174 243.947V242.435C287.174 242.14 287.414 241.882 287.709 241.863L288.06 241.845L294.757 241.494L294.997 241.476C295.329 241.458 295.606 241.716 295.606 242.048V242.048Z" fill="#4A4975"/>
<path d="M294.499 255.931V260.706C294.499 261.352 293.964 261.868 293.318 261.868H278.669C277.857 261.868 277.377 260.946 277.857 260.282C278.687 259.084 280.403 258.549 281.713 257.922C282.986 257.332 286.141 255.341 287.839 254.272C288.392 253.921 289.093 254.106 289.407 254.659C289.684 255.175 290.126 255.691 290.809 255.876C291.768 256.115 292.322 255.544 292.58 255.12C292.746 254.88 293.005 254.733 293.3 254.733C293.964 254.733 294.499 255.267 294.499 255.931V255.931Z" fill="url(#paint32_linear_22_12322)"/>
<path d="M279.979 174.327L277.765 175.138L279.979 175.949V176.779L276.805 175.58V174.714L279.979 173.515V174.327Z" fill="white"/>
<path d="M282.34 171.874H283.263L281.086 178.125H280.163L282.34 171.874Z" fill="white"/>
<path d="M286.547 174.714V175.58L283.392 176.779V175.949L285.606 175.138L283.392 174.327V173.515L286.547 174.714Z" fill="white"/>
<path d="M322.986 220.199L311.381 261.186C311.27 261.591 310.901 261.886 310.477 261.886C309.868 261.886 309.406 261.315 309.554 260.725L318.816 220.199H322.986Z" fill="#2648A1"/>
<path d="M342.525 220.199L351.786 260.725C351.915 261.315 351.473 261.886 350.864 261.886C350.439 261.886 350.07 261.591 349.941 261.186L338.336 220.199H342.525Z" fill="#2648A1"/>
<path d="M304.185 220.199L292.58 261.186C292.47 261.591 292.101 261.886 291.676 261.886C291.067 261.886 290.606 261.315 290.754 260.725L300.016 220.199H304.185Z" fill="url(#paint33_linear_22_12322)"/>
<path d="M323.724 220.199L332.986 260.725C333.115 261.315 332.672 261.886 332.063 261.886C331.639 261.886 331.27 261.591 331.159 261.186L319.554 220.199H323.724Z" fill="url(#paint34_linear_22_12322)"/>
<path d="M326.178 180.19H348.705C349.923 180.19 350.919 181.204 350.901 182.421L350.44 210.741C350.44 215.958 346.694 220.199 341.473 220.199H295.754V218.448H316.455C319.702 218.448 322.396 215.903 322.58 212.677L324.407 181.849C324.462 180.927 325.237 180.19 326.178 180.19V180.19Z" fill="url(#paint35_linear_22_12322)"/>
<path d="M316.99 220.199H316.713H295.754V218.448H316.455C316.664 218.448 316.867 218.435 317.064 218.411C320.034 218.116 322.396 215.7 322.58 212.677L324.407 181.849C324.462 180.927 325.237 180.19 326.178 180.19H326.768L324.407 212.603C324.167 216.788 321.196 220.199 316.99 220.199V220.199Z" fill="#2648A1"/>
<path d="M283.005 190.883C283.005 191.547 282.47 192.082 281.805 192.082C281.16 192.082 280.625 191.547 280.625 190.883C280.625 190.238 281.16 189.703 281.805 189.703C282.47 189.703 283.005 190.238 283.005 190.883Z" fill="white"/>
<path d="M281.381 201.891L293.761 260.614C293.909 261.259 293.41 261.886 292.746 261.886C292.267 261.886 291.842 261.554 291.732 261.093L276.271 201.891H281.381Z" fill="url(#paint36_linear_22_12322)"/>
<path d="M37.6008 251.063L36.1802 259.95H29.7227L30.8666 251.395L37.6008 251.063Z" fill="url(#paint37_linear_22_12322)"/>
<path d="M32.4531 258.199C33.4679 259.453 34.3535 258.77 34.8885 257.978C35.0915 257.683 35.4236 257.093 35.7741 256.466C36.4383 255.304 37.9328 254.917 39.0767 255.618C41.4198 257.056 44.9807 259.25 45.9585 259.84C46.3644 260.079 46.6781 260.338 46.8995 260.596C47.3423 261.093 46.9733 261.868 46.3275 261.868H30.8111C29.8701 261.868 29.1321 261.093 29.1875 260.153L29.4827 254.972C29.5011 254.696 29.7225 254.474 29.9993 254.474H30.1838C30.3867 254.474 30.6081 254.548 30.7557 254.714C31.4015 255.396 31.5675 257.093 32.4531 258.199V258.199Z" fill="url(#paint38_linear_22_12322)"/>
<path d="M68.0802 251.045V259.95L62.5268 259.821L62.084 251.303L68.0802 251.045Z" fill="url(#paint39_linear_22_12322)"/>
<path d="M63.7998 258.199C64.7961 259.453 65.6817 258.77 66.2352 257.978C66.4382 257.683 66.7703 257.093 67.1208 256.466C67.7666 255.304 69.2795 254.917 70.4234 255.618C72.7665 257.056 76.3089 259.25 77.3052 259.84C77.7111 260.079 78.0248 260.338 78.2462 260.596C78.6705 261.093 78.32 261.868 77.6558 261.868H62.1393C61.2168 261.868 60.4788 261.093 60.5342 260.153L60.8109 254.972C60.8294 254.696 61.0692 254.474 61.346 254.474H61.512C61.7334 254.474 61.9548 254.548 62.1024 254.714C62.7297 255.396 62.9142 257.093 63.7998 258.199V258.199Z" fill="url(#paint40_linear_22_12322)"/>
<path d="M54.4272 171.967L37.8776 251.985C35.2085 252.907 32.6931 252.766 30.3315 251.561L37.6931 171.967H54.4272Z" fill="url(#paint41_linear_22_12322)"/>
<path d="M57.5267 214.557L51.0508 188.302L54.4271 171.967L61.8071 170.602L68.2462 213.635C68.3446 214.311 68.3938 214.994 68.3938 215.682V252.078C66.3397 252.876 64.0211 252.876 61.4381 252.078L57.5267 214.557Z" fill="url(#paint42_linear_22_12322)"/>
<path d="M97.6372 142.54C98.1661 141.176 98.5167 140.021 98.6889 139.074C98.9287 137.654 99.2977 137.525 99.5376 137.636C99.7774 137.747 99.9804 138.539 99.8143 139.553L97.6372 142.54Z" fill="url(#paint43_linear_22_12322)"/>
<path d="M94.9805 147.297C94.1687 147.979 81.5489 158.102 75.7003 162.803C74.9992 160.941 75.1468 157.714 75.2575 156.332L94.6484 144.034C95.1281 144.23 95.5955 144.126 96.0506 143.72C96.7332 143.112 98.2461 141.268 98.7258 140.641C99.2055 140.014 99.7406 138.853 99.8328 138.392C99.9435 137.931 100.645 137.71 100.682 138.466C100.718 139.222 99.2424 142.651 98.9841 143.13C98.7443 143.61 96.0506 146.412 94.9805 147.297V147.297Z" fill="url(#paint44_linear_22_12322)"/>
<path d="M75.7003 162.803C75.4051 163.037 75.1284 163.258 74.8701 163.467C73.6893 164.407 71.9919 164.223 71.0509 163.061L62.6193 152.736L62.4532 152.515L54.8149 132.824L61.9366 134.907C62.1765 134.981 62.3979 135.055 62.6193 135.147C64.4274 135.866 65.9034 137.267 66.7152 139.056L74.7409 156.663L75.2575 156.332C75.1468 157.733 74.9992 160.941 75.7003 162.803V162.803Z" fill="url(#paint45_linear_22_12322)"/>
<path d="M62.6189 135.147V171.118C62.6189 171.598 62.2315 171.967 61.7518 171.967H37.693C37.1948 171.967 36.8074 171.579 36.8258 171.082L37.3978 156.276L38.2096 135.884C38.228 135.866 38.2465 135.866 38.2649 135.866L47.1025 132.971L54.8146 132.824L61.9363 134.907C62.1761 134.981 62.3975 135.055 62.6189 135.147V135.147Z" fill="url(#paint46_linear_22_12322)"/>
<path d="M52.7482 160.222C52.6744 160.443 52.3608 160.406 52.3239 160.185C51.8811 157.088 50.2575 146.154 49.3719 141.655C48.6831 138.14 47.9266 135.245 47.1025 132.971L54.8146 132.824C54.9622 137.077 54.9622 141.379 54.8146 145.73C54.6301 151.704 53.7445 157.217 52.7482 160.222Z" fill="white"/>
<path d="M47.1026 132.971L45.479 124.785C44.3597 124.293 43.7385 123.691 43.6155 122.978C43.431 121.909 44.7963 120.766 45.8849 121.688C46.6106 122.314 46.9796 122.997 46.9919 123.734C48.8369 123.734 50.0361 123.027 50.5896 121.614C51.4199 119.493 51.9734 116.47 55.811 117.226C56.4998 120.913 56.9487 123.427 57.1578 124.767C57.4715 126.776 56.8995 129.173 53.9475 128.952L54.8147 132.824L52.8221 134.078C52.6007 134.225 52.4531 134.446 52.4162 134.686L52.1948 136.05C52.1948 136.143 52.0841 136.161 52.0472 136.087L51.2538 134.723C51.1247 134.502 50.9217 134.317 50.6634 134.225L47.1026 132.971Z" fill="url(#paint47_linear_22_12322)"/>
<path d="M57.5637 115.917C57.1947 117.742 56.715 119.125 56.3276 120.065C56.1431 119.02 55.9709 118.074 55.811 117.226C51.9918 116.47 51.4199 119.493 50.5896 121.614C50.0361 123.027 48.8369 123.734 46.9919 123.734C46.9796 122.997 46.6106 122.314 45.8849 121.688C44.7963 120.766 43.431 121.909 43.6155 122.978C43.7385 123.691 44.3535 124.293 45.4605 124.785C45.6573 124.883 45.8664 124.994 46.0878 125.117C46.5306 125.357 46.8258 125.818 46.8812 126.315L47.0103 127.551C47.0472 128.03 46.6044 128.583 46.1801 128.38L46.1616 128.362C45.7188 128.251 45.1838 127.956 44.8148 127.274C44.0583 125.854 43.9661 125.652 42.5639 124.785C41.1617 123.918 40.11 121.319 40.9587 120.083C41.8259 118.848 43.3388 118.996 43.2465 118.037C43.1727 117.06 42.3978 117.447 42.6561 115.732C42.896 114.036 44.1137 113.169 48.8553 111.971C51.6228 111.289 53.228 111.104 54.0582 111.068C54.501 111.049 54.9069 110.846 55.1283 110.496C55.3313 110.201 55.6634 109.924 56.1984 110.017C57.287 110.201 58.3202 112.321 57.5637 115.917V115.917Z" fill="url(#paint48_linear_22_12322)"/>
<path d="M53.9477 128.952L54.8148 132.824C50.7681 131.951 48.6095 129.88 48.3389 126.61C49.5812 127.815 51.4508 128.595 53.9477 128.952V128.952Z" fill="url(#paint49_linear_22_12322)"/>
<path d="M47.1028 132.971L45.7191 139.922L37.3981 156.276L34.7782 161.439L35.4424 161.973C34.3354 162.287 32.2875 163.301 31.5864 166.657L29.5569 165.458C27.9702 164.518 27.2137 162.582 27.7857 160.812L34.5568 139.609C35.1103 137.839 36.4756 136.474 38.2099 135.884C38.2284 135.866 38.2468 135.866 38.2653 135.866L47.1028 132.971Z" fill="url(#paint50_linear_22_12322)"/>
<g opacity="0.3">
<g opacity="0.3">
<path opacity="0.3" d="M85.3494 136.345H24.4829V135.792H85.3494V136.345Z" fill="white"/>
</g>
<g opacity="0.3">
<path opacity="0.3" d="M85.3494 141.231H24.4829V140.678H85.3494V141.231Z" fill="white"/>
</g>
<g opacity="0.3">
<path opacity="0.3" d="M85.3494 146.117H24.4829V145.546H85.3494V146.117Z" fill="white"/>
</g>
<g opacity="0.3">
<path opacity="0.3" d="M85.3494 150.985H24.4829V150.432H85.3494V150.985Z" fill="white"/>
</g>
<g opacity="0.3">
<path opacity="0.3" d="M85.3494 155.871H24.4829V155.318H85.3494V155.871Z" fill="white"/>
</g>
<g opacity="0.3">
<path opacity="0.3" d="M85.3494 160.757H24.4829V160.185H85.3494V160.757Z" fill="white"/>
</g>
<g opacity="0.3">
<path opacity="0.3" d="M85.3494 165.624H24.4829V165.071H85.3494V165.624Z" fill="white"/>
</g>
<g opacity="0.3">
<path opacity="0.3" d="M85.3494 170.51H24.4829V169.957H85.3494V170.51Z" fill="white"/>
</g>
<g opacity="0.3">
<path opacity="0.3" d="M85.3494 175.396H24.4829V174.824H85.3494V175.396Z" fill="white"/>
</g>
</g>
<path d="M43.7817 143.72C42.3057 148.182 41.949 151.919 42.7116 154.93C43.8555 159.429 36.5308 162.379 36.8813 167.947L37.3979 156.276L43.7817 143.72Z" fill="url(#paint51_linear_22_12322)"/>
<path d="M189.739 97.2763C189.739 101.314 186.474 104.578 182.433 104.578C178.393 104.578 175.127 101.314 175.127 97.2763C175.127 93.2384 178.393 89.975 182.433 89.975C186.474 89.975 189.739 93.2384 189.739 97.2763Z" fill="#18A4E1"/>
<path opacity="0.2" d="M186.751 100.189C182.729 100.189 179.463 96.9075 179.463 92.8881C179.463 92.0216 179.61 91.2103 179.887 90.4359C180.681 90.1409 181.529 89.975 182.433 89.975C182.618 89.975 182.784 89.9934 182.95 90.0119C182.341 90.8047 181.972 91.8003 181.972 92.8881C181.972 95.5247 184.112 97.6634 186.751 97.6634C187.876 97.6634 188.891 97.2763 189.703 96.6494C189.727 96.8583 189.74 97.0673 189.74 97.2763C189.74 98.1244 189.573 98.9541 189.315 99.71C188.522 100.005 187.655 100.189 186.751 100.189V100.189Z" fill="white"/>
<path fill-rule="evenodd" clip-rule="evenodd" d="M185.607 100.448C185.404 100.669 185.072 100.669 184.85 100.448L183.485 99.0832C182.396 99.8207 180.883 99.71 179.924 98.7513C178.817 97.645 178.817 95.8566 179.924 94.7688C181.013 93.6625 182.802 93.6625 183.909 94.7688C184.869 95.7275 184.979 97.2394 184.241 98.3272L185.607 99.6916C185.828 99.9129 185.828 100.245 185.607 100.448ZM183.153 97.9954C183.835 97.3132 183.835 96.2069 183.153 95.5247C182.47 94.8241 181.363 94.8241 180.68 95.5247C179.979 96.2069 179.979 97.3132 180.68 97.9954C181.363 98.6775 182.47 98.6775 183.153 97.9954Z" fill="white"/>
<path opacity="0.2" d="M140.423 121.374C140.423 122.333 140.367 123.273 140.294 124.213C137.987 127.717 134.814 130.574 131.069 132.51C132.784 129.173 133.762 125.393 133.762 121.374C133.762 107.952 122.858 97.055 109.427 97.055C105.423 97.055 101.641 98.0322 98.3013 99.7653C100.22 96.0225 103.098 92.8328 106.604 90.5466C107.526 90.4544 108.467 90.3991 109.427 90.3991C126.548 90.3991 140.423 104.283 140.423 121.374Z" fill="url(#paint52_linear_22_12322)"/>
<g opacity="0.3">
<path opacity="0.3" d="M144.278 110.883C144.278 124.306 133.375 135.202 119.943 135.202C106.493 135.202 95.6074 124.306 95.6074 110.883C95.6074 97.4422 106.493 86.564 119.943 86.564C133.375 86.564 144.278 97.4422 144.278 110.883Z" fill="#7DCAE8"/>
</g>
<g opacity="0.8">
<path opacity="0.8" d="M144.279 110.883C144.279 118.018 141.197 124.435 136.29 128.897C140.201 124.582 142.6 118.848 142.6 112.561C142.6 99.12 131.696 88.2419 118.264 88.2419C111.973 88.2419 106.235 90.6204 101.917 94.5475C106.364 89.6432 112.803 86.5457 119.943 86.5457C133.375 86.5457 144.279 97.4422 144.279 110.883V110.883Z" fill="#7DCAE8"/>
</g>
<path d="M99.1682 142.688L88.707 132.252L146.511 74.506L156.954 84.9416L99.1682 142.688Z" fill="url(#paint53_linear_22_12322)"/>
<path d="M82.0281 125.559L75.6997 119.254L133.485 61.4891L139.813 67.8131L82.0281 125.559Z" fill="url(#paint54_linear_22_12322)"/>
<path d="M108.264 151.778L105.386 148.901L163.171 91.155L166.049 94.0313L108.264 151.778Z" fill="url(#paint55_linear_22_12322)"/>
<path d="M59.4085 182.255L53.9473 177.24L100.681 126.555L105.626 132.123L59.4085 182.255Z" fill="url(#paint56_linear_22_12322)"/>
<path d="M82.4528 157.253L63.4124 177.903L61.4014 177.479L95.6077 138.115C94.6667 137.028 93.9472 135.737 93.5044 134.354L100.681 126.555L105.626 132.123L82.4528 157.253Z" fill="#222D6D"/>
<path d="M44.7593 194.848L42.6006 192.856C40.8848 191.271 40.7741 188.597 42.3608 186.864L59.7038 168.058C59.9252 167.818 60.3126 167.8 60.5709 168.021L68.0616 174.917C68.3015 175.156 68.3199 175.525 68.0985 175.783L50.7371 194.589C49.1688 196.323 46.4751 196.433 44.7593 194.848V194.848Z" fill="url(#paint57_linear_22_12322)"/>
<path d="M67.9509 175.931L51.7518 193.52C49.6116 195.825 45.9954 195.972 43.6891 193.852C43.6707 193.833 43.6522 193.815 43.6338 193.796C45.774 194.147 48.0249 193.446 49.6116 191.732L66.4564 173.46L67.8955 174.788C68.2276 175.083 68.2645 175.599 67.9509 175.931V175.931Z" fill="url(#paint58_linear_22_12322)"/>
<path fill-rule="evenodd" clip-rule="evenodd" d="M150.939 110.883C150.939 127.975 137.065 141.858 119.943 141.858C102.822 141.858 88.9473 127.975 88.9473 110.883C88.9473 93.7731 102.822 79.9081 119.943 79.9081C137.065 79.9081 150.939 93.7731 150.939 110.883ZM144.279 110.883C144.279 97.4422 133.375 86.5641 119.943 86.5641C106.493 86.5641 95.6077 97.4422 95.6077 110.883C95.6077 124.306 106.493 135.202 119.943 135.202C133.375 135.202 144.279 124.306 144.279 110.883Z" fill="url(#paint59_linear_22_12322)"/>
<path d="M35.442 161.973L50.9953 174.032C51.8994 173.939 53.9104 174.437 54.5562 174.972C55.2204 175.525 56.106 176.668 56.8624 176.816C57.6373 176.963 57.4897 177.719 56.6964 177.645C56.1675 177.608 55.6017 177.412 54.999 177.055C56.5119 178.432 57.6988 179.483 58.5598 180.208C59.8513 181.278 59.7591 182.181 59.1871 182.144C58.8181 182.12 58.3569 181.917 57.8034 181.536C58.5414 182.144 59.5008 183.656 58.7259 183.638C58.197 183.625 57.5328 183.3 56.7333 182.66C57.8218 183.656 57.3975 184.596 56.7333 184.246C56.2905 184.012 55.6324 183.533 54.7591 182.808C55.4787 183.527 55.2757 184.393 54.63 184.025C53.9842 183.656 51.3459 180.466 50.368 179.378C49.7038 178.641 49.1872 177.787 48.8182 176.816L31.5859 166.657C32.287 163.301 34.335 162.268 35.442 161.973V161.973Z" fill="url(#paint60_linear_22_12322)"/>
<path d="M66.0877 156.977L62.6191 152.736V144.292C62.6191 144.341 62.6253 144.409 62.6376 144.495C62.7667 145.288 63.3387 148.201 65.2575 149.491C67.0656 150.708 65.2206 153.769 66.0877 156.977V156.977Z" fill="url(#paint61_linear_22_12322)"/>
<path d="M148.393 220.973C148.885 218.109 149.475 215.952 150.164 214.502C151.216 212.308 154.445 210.28 157.268 211.496C160.09 212.713 159.26 217.489 161.954 217.968C164.666 218.429 165.828 216.032 170.072 216.567C174.297 217.101 176.179 221.268 176.179 223.075C176.179 224.882 174.647 226.763 171.954 225.859C169.242 224.956 167.968 224.587 165.644 225.859C163.338 227.15 160.644 227.168 158.485 225.564C156.327 223.979 155.736 220.641 155.201 219.738C154.648 218.835 152.71 219.13 152.028 220.162C151.56 220.85 151.21 221.785 150.976 222.965C149.316 223.395 148.455 222.731 148.393 220.973V220.973Z" fill="url(#paint62_linear_22_12322)"/>
<path d="M148.393 220.973C148.491 220.383 148.633 219.701 148.817 218.927C149.482 219.683 150.552 220.771 151.474 221.268C151.253 221.834 151.087 222.399 150.976 222.965C149.316 223.395 148.455 222.731 148.393 220.973V220.973Z" fill="url(#paint63_linear_22_12322)"/>
<path d="M138.67 231.354C137.169 230.37 136.099 228.902 135.459 226.947C134.482 223.997 135.939 219.222 140.404 218.576C144.887 217.913 148.909 218.779 148.946 221.932C150.545 221.576 151.714 222.362 152.452 224.292C153.559 227.168 150.312 230.764 150.219 232.847C150.158 234.224 146.308 233.726 138.67 231.354V231.354Z" fill="url(#paint64_linear_22_12322)"/>
<path d="M237.599 224.458L235.016 257.111C235.016 259.748 232.875 261.868 230.255 261.868H201.787V246.897L225.034 249.994L231.27 224.458H237.599Z" fill="url(#paint65_linear_22_12322)"/>
<path d="M125.958 261.868H117.895L118.08 261.223C118.319 260.356 119.076 259.748 119.961 259.711L124.851 259.453L125.958 261.868Z" fill="url(#paint66_linear_22_12322)"/>
<path d="M146.991 250.658L146.861 252.022L146.677 253.995L146.123 260.024C146.068 260.669 145.718 261.223 145.219 261.554C144.887 261.757 144.518 261.868 144.094 261.868H125.33C125.416 260.885 125.256 260.079 124.851 259.453L128.817 258.918L140.625 257.295C140.613 256.828 140.601 256.238 140.588 255.525C140.552 252.077 140.515 244.647 140.884 243.043C141.013 242.508 141.253 242.047 141.529 241.66C141.861 241.218 142.249 240.849 142.599 240.591C142.698 240.517 142.79 240.45 142.876 240.388C143.147 240.216 143.381 240.087 143.577 240.001L144.297 242.287L144.943 244.297L146.991 250.658Z" fill="url(#paint67_linear_22_12322)"/>
<path d="M144.094 261.868H144.039C144.85 260.393 144.924 256.521 143.928 253.755C143.141 251.592 142.993 248.71 143.485 245.108H145.201L146.991 250.658L146.677 253.995L146.123 260.024C146.031 261.075 145.164 261.868 144.094 261.868V261.868Z" fill="url(#paint68_linear_22_12322)"/>
<path d="M180.533 249.257V261.868H170.478C167.415 261.868 164.352 261.259 161.548 260.006C160.219 259.397 158.614 258.807 156.954 258.494C155.201 258.162 153.559 257.922 152.028 257.498C149.943 256.908 148.116 255.986 146.677 253.995C146.64 253.946 146.603 253.897 146.566 253.848C146.456 253.688 146.357 253.528 146.271 253.368C144.869 250.99 143.799 246.638 143.153 243.559C142.895 242.269 142.71 241.199 142.6 240.591C142.698 240.517 142.79 240.45 142.876 240.388C142.876 240.407 143.042 241.587 144.297 242.287C144.721 242.508 145.238 242.693 145.939 242.748C148.725 243.025 152.6 241.255 152.895 235.834C153.245 235.779 153.651 235.742 154.076 235.705C154.235 235.705 154.401 235.693 154.574 235.668C155.607 235.613 156.769 235.613 157.876 235.742C160.515 236.074 162.341 237.77 163.983 239.448C164.352 239.841 164.715 240.222 165.072 240.591C166.972 242.564 177.747 249.257 180.533 249.257V249.257Z" fill="url(#paint69_linear_22_12322)"/>
<path d="M145.939 242.748C143.153 242.472 142.876 240.407 142.876 240.388C143.147 240.216 143.381 240.087 143.578 240.001L143.19 236.959C142.132 237.586 141.118 237.407 140.146 236.424C139.346 235.613 138.479 232.804 137.544 227.998C138.996 228.441 140.041 228.342 140.681 227.703C141.659 226.744 141.677 225.14 144.629 225.177C145.22 226.234 146.24 226.855 147.692 227.039C147.938 227.961 148.085 228.711 148.135 229.289C148.528 229.068 148.737 228.68 148.762 228.127C148.799 227.316 149.334 225.675 150.589 226.081C151.843 226.468 151.031 228.828 150.09 229.584L151.031 236.129C151.523 236.018 152.144 235.92 152.895 235.834C152.6 241.255 148.725 243.025 145.939 242.748V242.748Z" fill="url(#paint70_linear_22_12322)"/>
<path d="M125.109 258.143C124.555 258.42 123.781 257.922 122.932 258.162C122.083 258.402 121.308 259.508 121.124 258.715C120.976 258.107 121.917 257.258 122.36 256.89C122.452 256.816 122.415 256.687 122.305 256.65C122.12 256.613 121.88 256.539 121.677 256.503C121.345 256.41 121.013 256.503 120.773 256.742L119.648 257.867C119.869 260.061 119.574 260.633 119.186 260.319C118.854 260.043 118.633 258.402 118.541 257.793C118.522 257.664 118.559 257.517 118.651 257.406L120.496 254.862C120.718 254.548 121.087 254.382 121.456 254.438L125.035 254.898C126.216 255.882 126.241 256.963 125.109 258.143V258.143Z" fill="url(#paint71_linear_22_12322)"/>
<path d="M163.983 239.448L152.027 257.498L150.109 260.411C149.407 261.462 148.153 262.015 146.898 261.812L145.219 261.554L128.817 258.918L125.035 258.309C125.712 256.859 125.705 255.722 125.017 254.898L140.588 255.525L145.219 255.71L146.271 253.368L146.861 252.022L150.773 243.191L154.075 235.705C154.235 235.705 154.401 235.693 154.573 235.668C155.607 235.613 156.769 235.613 157.876 235.742C160.514 236.074 162.341 237.77 163.983 239.448V239.448Z" fill="url(#paint72_linear_22_12322)"/>
<path d="M252.137 239.835L233.632 260.522C232.857 261.388 231.768 261.868 230.624 261.868H180.533V249.257C181.455 248.986 183.159 248.304 185.643 247.21C189.37 245.551 191.769 244.776 197.119 245.864C200.686 246.577 210.489 248.925 226.529 252.907L247.359 235.447L250.329 238.176L250.735 238.563L252.137 239.835Z" fill="url(#paint73_linear_22_12322)"/>
<g opacity="0.3">
<path opacity="0.3" d="M250.735 238.563L231.03 257.148C229.757 258.346 228.078 259.01 226.326 259.01H180.533V258.457H226.326C227.949 258.457 229.481 257.848 230.643 256.742L250.329 238.176L250.735 238.563Z" fill="white"/>
</g>
<path d="M234.075 212.99L238.374 214.705L237.599 224.477H231.271L234.075 212.99Z" fill="url(#paint74_linear_22_12322)"/>
<path d="M232.728 216.438L229.425 214.649C228.927 214.391 228.779 213.764 229.13 213.303L237.912 201.614C238.336 201.043 239.241 201.301 239.314 202.02C239.351 202.444 239.37 202.997 239.333 203.716C239.204 205.836 239.093 211.146 239.019 214.041C239.001 214.889 238.097 215.424 237.359 215.018C236.731 214.705 236.067 214.391 235.569 214.244C234.296 213.875 234.001 214.926 233.761 215.922C233.65 216.382 233.152 216.622 232.728 216.438V216.438Z" fill="url(#paint75_linear_22_12322)"/>
<path d="M256.953 227.427L257.193 227.445L258.41 232.847L252.137 239.835L247.359 235.447L256.953 227.427Z" fill="url(#paint76_linear_22_12322)"/>
<path d="M253.576 229.399L252.894 225.823C252.746 224.974 253.392 224.2 254.241 224.2H269.203C270.089 224.2 270.476 225.325 269.775 225.859C269.579 226.007 269.357 226.161 269.111 226.32C267.746 227.187 262.451 230.672 259.443 232.644C258.595 233.216 257.451 232.626 257.414 231.593C257.395 230.967 257.322 230.358 257.174 229.916C256.824 228.883 255.532 229.197 254.48 229.805C254.111 230.026 253.65 229.823 253.576 229.399V229.399Z" fill="url(#paint77_linear_22_12322)"/>
<path d="M143.577 240.001L143.19 236.959C145.367 235.656 146.831 234.199 147.581 232.589C148.344 236.449 147.009 238.919 143.577 240.001V240.001Z" fill="url(#paint78_linear_22_12322)"/>
<path d="M145.478 255.839L144.961 255.599L149.61 245.108L150.127 245.329L145.478 255.839Z" fill="#AD79FD"/>
<path d="M155.68 258.254C154.389 258.033 153.171 257.812 152.027 257.498L161.068 243.836C159.832 245.883 157.987 249.644 158.725 252.852C159.481 256.134 157.083 256.761 155.68 258.254V258.254Z" fill="url(#paint79_linear_22_12322)"/>
<path d="M154.573 235.668V235.926C154.371 239.466 152.802 241.863 150.773 243.191C149.444 244.039 147.931 244.463 146.492 244.463C146.246 244.463 146.006 244.451 145.773 244.426C145.478 244.408 145.201 244.352 144.943 244.297C144.223 244.131 143.633 243.873 143.153 243.559C142.341 243.025 141.824 242.324 141.529 241.66C141.861 241.218 142.249 240.849 142.599 240.591C142.698 240.517 142.79 240.45 142.876 240.388C143.147 240.216 143.38 240.087 143.577 240.001L144.297 242.287C144.721 242.508 145.238 242.693 145.939 242.748C148.725 243.025 152.599 241.255 152.895 235.834C153.245 235.779 153.651 235.742 154.075 235.705C154.235 235.705 154.401 235.693 154.573 235.668V235.668Z" fill="white"/>
<g opacity="0.4">
<g opacity="0.4">
<path opacity="0.4" d="M136.087 258.107C136.363 258.273 136.437 258.641 136.271 258.918C136.087 259.194 135.718 259.287 135.441 259.102C135.164 258.918 135.09 258.549 135.256 258.273C135.441 257.996 135.81 257.922 136.087 258.107Z" fill="white"/>
<path opacity="0.4" d="M139.278 253.221C139.555 253.387 139.629 253.755 139.444 254.032C139.26 254.308 138.891 254.401 138.614 254.216C138.356 254.032 138.263 253.663 138.448 253.387C138.632 253.11 139.001 253.036 139.278 253.221Z" fill="white"/>
<path opacity="0.4" d="M142.452 248.335C142.729 248.501 142.802 248.869 142.636 249.146C142.452 249.423 142.083 249.496 141.806 249.33C141.529 249.146 141.456 248.777 141.64 248.501C141.806 248.224 142.175 248.15 142.452 248.335Z" fill="white"/>
<path opacity="0.4" d="M145.644 243.449C145.92 243.615 145.994 243.983 145.81 244.26C145.644 244.537 145.275 244.61 144.998 244.444C144.721 244.26 144.629 243.891 144.813 243.615C144.998 243.338 145.367 243.264 145.644 243.449Z" fill="white"/>
<path opacity="0.4" d="M148.836 238.544C149.094 238.729 149.186 239.097 149.002 239.374C148.817 239.651 148.448 239.724 148.171 239.558C147.895 239.374 147.821 239.005 148.005 238.729C148.19 238.452 148.559 238.378 148.836 238.544Z" fill="white"/>
<path opacity="0.4" d="M152.009 233.658C152.286 233.843 152.359 234.212 152.193 234.488C152.009 234.765 151.64 234.838 151.363 234.654C151.086 234.488 151.013 234.119 151.179 233.843C151.363 233.566 151.732 233.493 152.009 233.658Z" fill="white"/>
<path opacity="0.4" d="M155.201 228.773C155.477 228.957 155.551 229.326 155.367 229.602C155.182 229.879 154.813 229.953 154.536 229.768C154.278 229.602 154.186 229.233 154.37 228.957C154.555 228.68 154.924 228.607 155.201 228.773Z" fill="white"/>
</g>
<g opacity="0.4">
<path opacity="0.4" d="M140.976 261.278C141.252 261.462 141.326 261.831 141.16 262.108C140.976 262.384 140.607 262.458 140.33 262.274C140.053 262.108 139.979 261.739 140.145 261.462C140.33 261.186 140.699 261.112 140.976 261.278Z" fill="white"/>
<path opacity="0.4" d="M144.167 256.392C144.444 256.576 144.518 256.945 144.333 257.222C144.149 257.498 143.78 257.572 143.522 257.387C143.245 257.222 143.153 256.853 143.337 256.576C143.522 256.3 143.891 256.226 144.167 256.392Z" fill="white"/>
<path opacity="0.4" d="M147.341 251.506C147.618 251.69 147.71 252.059 147.526 252.336C147.341 252.612 146.972 252.686 146.695 252.502C146.419 252.336 146.345 251.967 146.529 251.69C146.695 251.414 147.064 251.322 147.341 251.506Z" fill="white"/>
<path opacity="0.4" d="M150.533 246.62C150.81 246.804 150.883 247.173 150.699 247.45C150.533 247.726 150.164 247.8 149.887 247.616C149.61 247.45 149.537 247.063 149.703 246.804C149.887 246.528 150.256 246.436 150.533 246.62Z" fill="white"/>
<path opacity="0.4" d="M153.725 241.734C154.001 241.918 154.075 242.287 153.891 242.564C153.706 242.84 153.337 242.914 153.061 242.73C152.784 242.545 152.71 242.177 152.894 241.9C153.079 241.642 153.448 241.55 153.725 241.734Z" fill="white"/>
<path opacity="0.4" d="M156.898 236.848C157.175 237.033 157.249 237.401 157.083 237.678C156.898 237.954 156.529 238.028 156.252 237.844C155.976 237.659 155.902 237.291 156.086 237.014C156.252 236.738 156.621 236.664 156.898 236.848Z" fill="white"/>
<path opacity="0.4" d="M160.09 231.962C160.367 232.147 160.44 232.515 160.256 232.792C160.09 233.068 159.702 233.142 159.444 232.958C159.167 232.773 159.075 232.405 159.26 232.128C159.444 231.852 159.813 231.778 160.09 231.962Z" fill="white"/>
</g>
<g opacity="0.4">
<path opacity="0.4" d="M145.865 264.468C146.142 264.652 146.216 265.021 146.049 265.297C145.865 265.574 145.496 265.648 145.219 265.463C144.942 265.279 144.869 264.91 145.053 264.634C145.219 264.357 145.588 264.283 145.865 264.468Z" fill="white"/>
<path opacity="0.4" d="M149.057 259.582C149.334 259.766 149.408 260.135 149.223 260.411C149.057 260.688 148.688 260.762 148.411 260.577C148.135 260.393 148.042 260.024 148.227 259.748C148.411 259.471 148.78 259.397 149.057 259.582Z" fill="white"/>
<path opacity="0.4" d="M152.23 254.696C152.507 254.88 152.599 255.249 152.415 255.507C152.23 255.783 151.861 255.876 151.584 255.691C151.308 255.507 151.234 255.138 151.418 254.862C151.584 254.585 151.972 254.511 152.23 254.696Z" fill="white"/>
<path opacity="0.4" d="M155.422 249.81C155.699 249.976 155.773 250.344 155.606 250.621C155.422 250.897 155.053 250.99 154.776 250.805C154.499 250.621 154.426 250.252 154.592 249.976C154.776 249.699 155.145 249.625 155.422 249.81Z" fill="white"/>
<path opacity="0.4" d="M158.614 244.924C158.891 245.09 158.964 245.459 158.78 245.735C158.595 246.012 158.226 246.104 157.95 245.919C157.673 245.735 157.599 245.366 157.784 245.09C157.968 244.813 158.337 244.739 158.614 244.924Z" fill="white"/>
<path opacity="0.4" d="M161.787 240.038C162.064 240.204 162.138 240.572 161.972 240.849C161.787 241.126 161.418 241.199 161.142 241.033C160.865 240.849 160.791 240.48 160.976 240.204C161.142 239.927 161.511 239.853 161.787 240.038Z" fill="white"/>
<path opacity="0.4" d="M164.979 235.133C165.256 235.318 165.33 235.687 165.145 235.963C164.979 236.24 164.61 236.313 164.333 236.148C164.056 235.963 163.964 235.594 164.149 235.318C164.333 235.041 164.702 234.968 164.979 235.133Z" fill="white"/>
</g>
<g opacity="0.4">
<path opacity="0.4" d="M150.754 267.657C151.031 267.823 151.105 268.192 150.939 268.468C150.754 268.745 150.385 268.819 150.108 268.653C149.832 268.468 149.758 268.1 149.942 267.823C150.108 267.546 150.477 267.473 150.754 267.657Z" fill="white"/>
<path opacity="0.4" d="M153.946 262.753C154.223 262.937 154.296 263.306 154.112 263.583C153.946 263.859 153.577 263.933 153.3 263.767C153.023 263.583 152.95 263.214 153.116 262.937C153.3 262.661 153.669 262.587 153.946 262.753Z" fill="white"/>
<path opacity="0.4" d="M157.138 257.867C157.396 258.051 157.488 258.42 157.304 258.697C157.119 258.973 156.75 259.047 156.474 258.881C156.197 258.697 156.123 258.328 156.308 258.051C156.492 257.775 156.861 257.701 157.138 257.867Z" fill="white"/>
<path opacity="0.4" d="M160.311 252.981C160.588 253.165 160.662 253.534 160.496 253.811C160.311 254.087 159.942 254.161 159.665 253.977C159.389 253.811 159.315 253.442 159.481 253.165C159.665 252.889 160.034 252.815 160.311 252.981Z" fill="white"/>
<path opacity="0.4" d="M163.503 248.095C163.78 248.279 163.854 248.648 163.669 248.925C163.485 249.201 163.116 249.275 162.839 249.091C162.581 248.925 162.488 248.556 162.673 248.279C162.857 248.003 163.226 247.929 163.503 248.095Z" fill="white"/>
<path opacity="0.4" d="M166.676 243.209C166.953 243.393 167.045 243.762 166.861 244.039C166.676 244.315 166.308 244.389 166.031 244.205C165.754 244.039 165.68 243.67 165.865 243.393C166.031 243.117 166.4 243.025 166.676 243.209Z" fill="white"/>
<path opacity="0.4" d="M169.868 238.323C170.145 238.508 170.219 238.876 170.034 239.153C169.868 239.429 169.499 239.503 169.223 239.319C168.946 239.134 168.872 238.766 169.038 238.508C169.223 238.231 169.592 238.139 169.868 238.323Z" fill="white"/>
</g>
<g opacity="0.4">
<path opacity="0.4" d="M155.643 270.828C155.92 271.013 156.012 271.382 155.828 271.658C155.643 271.935 155.274 272.009 154.998 271.824C154.721 271.658 154.647 271.289 154.832 271.013C154.998 270.736 155.367 270.644 155.643 270.828Z" fill="white"/>
<path opacity="0.4" d="M158.835 265.943C159.112 266.127 159.186 266.496 159.001 266.772C158.835 267.049 158.466 267.122 158.189 266.938C157.913 266.754 157.839 266.385 158.005 266.127C158.189 265.85 158.558 265.758 158.835 265.943Z" fill="white"/>
<path opacity="0.4" d="M162.027 261.057C162.304 261.241 162.378 261.61 162.193 261.886C162.009 262.163 161.64 262.237 161.363 262.052C161.086 261.868 161.012 261.499 161.197 261.223C161.381 260.946 161.75 260.872 162.027 261.057Z" fill="white"/>
<path opacity="0.4" d="M165.2 256.171C165.477 256.355 165.551 256.724 165.385 257C165.2 257.277 164.831 257.351 164.555 257.166C164.278 256.982 164.204 256.613 164.389 256.337C164.555 256.06 164.924 255.986 165.2 256.171Z" fill="white"/>
<path opacity="0.4" d="M168.392 251.285C168.669 251.469 168.743 251.838 168.558 252.114C168.392 252.373 168.023 252.465 167.746 252.28C167.47 252.096 167.377 251.727 167.562 251.451C167.746 251.174 168.115 251.1 168.392 251.285Z" fill="white"/>
<path opacity="0.4" d="M171.566 246.399C171.842 246.583 171.935 246.952 171.75 247.21C171.566 247.487 171.197 247.579 170.92 247.394C170.643 247.21 170.569 246.841 170.754 246.565C170.92 246.288 171.289 246.214 171.566 246.399Z" fill="white"/>
<path opacity="0.4" d="M174.757 241.513C175.034 241.679 175.108 242.047 174.923 242.324C174.757 242.601 174.388 242.693 174.112 242.508C173.835 242.324 173.761 241.955 173.927 241.679C174.112 241.402 174.481 241.328 174.757 241.513Z" fill="white"/>
</g>
<g opacity="0.4">
<path opacity="0.4" d="M160.533 274.018C160.81 274.184 160.902 274.553 160.717 274.829C160.533 275.106 160.164 275.198 159.887 275.014C159.61 274.829 159.537 274.461 159.721 274.184C159.906 273.908 160.275 273.834 160.533 274.018Z" fill="white"/>
<path opacity="0.4" d="M163.725 269.132C164.001 269.298 164.075 269.667 163.909 269.943C163.725 270.22 163.356 270.312 163.079 270.128C162.802 269.943 162.728 269.575 162.894 269.298C163.079 269.022 163.448 268.948 163.725 269.132Z" fill="white"/>
<path opacity="0.4" d="M166.917 264.246C167.193 264.412 167.267 264.781 167.083 265.058C166.898 265.334 166.529 265.408 166.252 265.242C165.976 265.058 165.902 264.689 166.086 264.412C166.271 264.136 166.64 264.062 166.917 264.246Z" fill="white"/>
<path opacity="0.4" d="M170.09 259.36C170.367 259.526 170.441 259.895 170.275 260.172C170.09 260.448 169.721 260.522 169.444 260.356C169.168 260.172 169.094 259.803 169.278 259.526C169.444 259.25 169.813 259.176 170.09 259.36Z" fill="white"/>
<path opacity="0.4" d="M173.282 254.456C173.558 254.64 173.632 255.009 173.448 255.286C173.282 255.562 172.913 255.636 172.636 255.47C172.359 255.286 172.267 254.917 172.451 254.64C172.636 254.364 173.005 254.29 173.282 254.456Z" fill="white"/>
<path opacity="0.4" d="M176.455 249.57C176.732 249.754 176.824 250.123 176.64 250.4C176.455 250.676 176.086 250.75 175.81 250.584C175.533 250.4 175.459 250.031 175.644 249.754C175.828 249.478 176.197 249.404 176.455 249.57Z" fill="white"/>
<path opacity="0.4" d="M179.647 244.684C179.924 244.868 179.998 245.237 179.832 245.514C179.647 245.79 179.278 245.864 179.001 245.68C178.725 245.514 178.651 245.145 178.817 244.868C179.001 244.592 179.37 244.518 179.647 244.684Z" fill="white"/>
</g>
<g opacity="0.4">
<path opacity="0.4" d="M165.441 277.189C165.699 277.374 165.791 277.743 165.607 278.019C165.422 278.296 165.053 278.369 164.776 278.185C164.5 278.019 164.426 277.65 164.61 277.374C164.795 277.097 165.164 277.023 165.441 277.189Z" fill="white"/>
<path opacity="0.4" d="M168.614 272.303C168.891 272.488 168.964 272.857 168.798 273.133C168.614 273.41 168.245 273.484 167.968 273.299C167.691 273.133 167.618 272.764 167.784 272.488C167.968 272.211 168.337 272.138 168.614 272.303Z" fill="white"/>
<path opacity="0.4" d="M171.806 267.417C172.082 267.602 172.156 267.971 171.972 268.247C171.787 268.524 171.418 268.597 171.16 268.413C170.883 268.247 170.791 267.878 170.975 267.602C171.16 267.325 171.529 267.233 171.806 267.417Z" fill="white"/>
<path opacity="0.4" d="M174.979 262.532C175.256 262.716 175.348 263.085 175.164 263.361C174.979 263.638 174.61 263.712 174.333 263.527C174.057 263.361 173.983 262.993 174.167 262.716C174.333 262.439 174.702 262.347 174.979 262.532Z" fill="white"/>
<path opacity="0.4" d="M178.171 257.646C178.448 257.83 178.522 258.199 178.337 258.475C178.171 258.752 177.802 258.826 177.525 258.641C177.248 258.457 177.175 258.088 177.341 257.812C177.525 257.553 177.894 257.461 178.171 257.646Z" fill="white"/>
<path opacity="0.4" d="M181.363 252.76C181.64 252.944 181.714 253.313 181.529 253.589C181.344 253.866 180.975 253.94 180.699 253.755C180.422 253.571 180.348 253.202 180.533 252.926C180.717 252.649 181.086 252.575 181.363 252.76Z" fill="white"/>
<path opacity="0.4" d="M184.536 247.874C184.813 248.058 184.887 248.427 184.721 248.703C184.536 248.98 184.167 249.054 183.89 248.869C183.614 248.685 183.54 248.316 183.706 248.04C183.89 247.763 184.259 247.689 184.536 247.874Z" fill="white"/>
</g>
</g>
<path d="M105.848 223.573C105.848 229.934 100.682 235.096 94.3163 235.096C87.9326 235.096 82.7666 229.934 82.7666 223.573C82.7666 217.212 87.9326 212.05 94.3163 212.05C100.682 212.05 105.848 217.212 105.848 223.573Z" fill="url(#paint80_linear_22_12322)"/>
<path opacity="0.3" d="M100.718 228.699C94.353 228.699 89.187 223.536 89.187 217.175C89.187 215.663 89.4822 214.207 90.0173 212.879C91.3457 212.345 92.7848 212.05 94.3161 212.05C94.7958 212.05 95.2755 212.086 95.7552 212.16C94.4637 213.432 93.6519 215.202 93.6519 217.175C93.6519 221.066 96.8253 224.218 100.718 224.218C102.674 224.218 104.464 223.426 105.737 222.117C105.792 222.596 105.847 223.075 105.847 223.573C105.847 225.085 105.534 226.542 104.999 227.869C103.689 228.404 102.231 228.699 100.718 228.699Z" fill="white"/>
<path fill-rule="evenodd" clip-rule="evenodd" d="M100.681 225.528C100.669 225.54 100.663 225.552 100.663 225.564L100.552 225.915H100.534C99.7774 227.961 98.0247 229.528 95.866 230.045L95.6631 230.1C95.6508 230.1 95.6446 230.1 95.6446 230.1H95.6077C95.5831 230.1 95.5524 230.106 95.5155 230.118C95.4417 230.131 95.3679 230.143 95.2941 230.155C95.2695 230.155 95.2449 230.161 95.2203 230.174C95.1342 230.186 95.0481 230.192 94.962 230.192C94.9374 230.192 94.9066 230.198 94.8697 230.211C94.7959 230.211 94.7221 230.217 94.6483 230.229C94.5376 230.229 94.4269 230.229 94.3162 230.229C94.2055 230.229 94.0948 230.229 93.9841 230.229C93.898 230.217 93.8181 230.211 93.7443 230.211C93.7197 230.198 93.6889 230.192 93.652 230.192C93.5659 230.192 93.4798 230.186 93.3937 230.174C93.3691 230.161 93.3445 230.155 93.3199 230.155C93.2461 230.143 93.1723 230.131 93.0985 230.118C93.0616 230.106 93.0309 230.1 93.0063 230.1H92.9694L92.748 230.045C90.5893 229.528 88.8366 227.961 88.0801 225.915H88.0617L87.951 225.564C87.951 225.54 87.9448 225.521 87.9325 225.509C87.8956 225.386 87.8649 225.263 87.8403 225.14C87.828 225.103 87.8157 225.06 87.8034 225.011C87.7788 224.876 87.7542 224.735 87.7296 224.587C87.7296 224.575 87.7296 224.563 87.7296 224.55C87.705 224.415 87.6865 224.28 87.6742 224.145C87.6742 224.108 87.6742 224.071 87.6742 224.034C87.6619 223.874 87.6558 223.721 87.6558 223.573C87.6558 223.426 87.6619 223.278 87.6742 223.131C87.6742 223.094 87.6742 223.057 87.6742 223.02C87.6865 222.873 87.705 222.731 87.7296 222.596C87.7296 222.584 87.7296 222.571 87.7296 222.559C87.7542 222.424 87.7788 222.283 87.8034 222.135C87.8157 222.098 87.828 222.055 87.8403 222.006C87.8649 221.883 87.8956 221.76 87.9325 221.637C87.9448 221.625 87.951 221.606 87.951 221.582L88.0617 221.232H88.0801C88.8366 219.203 90.5893 217.636 92.748 217.102L92.9694 217.065C92.9694 217.065 92.9694 217.059 92.9694 217.046H93.0063C93.0309 217.046 93.0616 217.04 93.0985 217.028C93.1723 217.016 93.2461 217.003 93.3199 216.991C93.3322 216.991 93.3507 216.991 93.3753 216.991C93.6828 216.942 93.9964 216.917 94.3162 216.917C94.6237 216.917 94.9312 216.942 95.2387 216.991C95.2633 216.991 95.2818 216.991 95.2941 216.991C95.3679 217.003 95.4478 217.016 95.5339 217.028C95.5585 217.04 95.5831 217.046 95.6077 217.046H95.6446C95.6446 217.059 95.6508 217.065 95.6631 217.065L95.866 217.102C98.0247 217.636 99.7774 219.203 100.534 221.232H100.552L100.663 221.582C100.663 221.606 100.669 221.625 100.681 221.637C100.718 221.76 100.749 221.883 100.774 222.006C100.786 222.055 100.798 222.098 100.811 222.135C100.835 222.283 100.86 222.424 100.884 222.559C100.884 222.571 100.884 222.584 100.884 222.596C100.909 222.731 100.927 222.873 100.94 223.02C100.94 223.057 100.946 223.094 100.958 223.131C100.958 223.278 100.958 223.426 100.958 223.573C100.958 223.721 100.958 223.874 100.958 224.034C100.946 224.071 100.94 224.108 100.94 224.145C100.927 224.28 100.909 224.421 100.884 224.569C100.884 224.569 100.884 224.575 100.884 224.587C100.86 224.735 100.835 224.876 100.811 225.011C100.798 225.06 100.786 225.103 100.774 225.14C100.749 225.263 100.718 225.392 100.681 225.528V225.528ZM99.9435 223.573C99.9435 223.475 99.9373 223.37 99.925 223.26C99.925 223.223 99.925 223.186 99.925 223.149C99.925 223.088 99.9189 223.02 99.9066 222.946C99.9066 222.909 99.9004 222.866 99.8881 222.817C99.8881 222.756 99.882 222.7 99.8697 222.651C99.8574 222.602 99.8451 222.553 99.8328 222.504C99.8328 222.455 99.8266 222.405 99.8143 222.356C99.802 222.319 99.7897 222.283 99.7774 222.246C98.8549 222.233 97.914 222.221 96.9546 222.209C96.9792 222.664 96.9915 223.118 96.9915 223.573C96.9915 224.04 96.9792 224.495 96.9546 224.938C97.914 224.925 98.8549 224.913 99.7774 224.901C99.7897 224.864 99.802 224.833 99.8143 224.808C99.8266 224.747 99.8328 224.692 99.8328 224.643C99.8451 224.593 99.8574 224.55 99.8697 224.513C99.882 224.452 99.8881 224.391 99.8881 224.329C99.9004 224.292 99.9066 224.249 99.9066 224.2C99.9189 224.126 99.925 224.059 99.925 223.997C99.925 223.96 99.925 223.923 99.925 223.887C99.9373 223.788 99.9435 223.684 99.9435 223.573V223.573ZM95.1465 229.141C95.4786 228.33 95.7184 227.224 95.8476 225.97C95.331 225.97 94.8205 225.97 94.3162 225.97C93.7996 225.97 93.283 225.97 92.7664 225.97C92.8956 227.224 93.1354 228.33 93.4675 229.141C93.5905 229.166 93.7135 229.178 93.8365 229.178C93.8734 229.19 93.9042 229.197 93.9288 229.197C94.1871 229.209 94.4392 229.209 94.6852 229.197C94.7221 229.197 94.7529 229.19 94.7775 229.178C94.9005 229.178 95.0235 229.166 95.1465 229.141ZM95.9398 224.938C95.9644 224.495 95.9767 224.04 95.9767 223.573C95.9767 223.106 95.9644 222.651 95.9398 222.209C94.8574 222.209 93.7689 222.209 92.6742 222.209C92.6496 222.651 92.6373 223.106 92.6373 223.573C92.6373 224.04 92.6496 224.495 92.6742 224.938C93.7689 224.95 94.8574 224.95 95.9398 224.938ZM88.8366 224.901C89.7591 224.913 90.7 224.925 91.6594 224.938C91.6348 224.495 91.6225 224.04 91.6225 223.573C91.6225 223.118 91.6348 222.664 91.6594 222.209C90.7 222.221 89.7591 222.233 88.8366 222.246C88.8243 222.283 88.812 222.319 88.7997 222.356C88.7997 222.405 88.7935 222.455 88.7812 222.504C88.7689 222.553 88.7566 222.602 88.7443 222.651C88.7443 222.7 88.7382 222.756 88.7259 222.817C88.7136 222.866 88.7074 222.909 88.7074 222.946C88.6951 223.02 88.689 223.088 88.689 223.149C88.689 223.186 88.689 223.223 88.689 223.26C88.6767 223.37 88.6705 223.475 88.6705 223.573C88.6705 223.684 88.6767 223.788 88.689 223.887C88.689 223.923 88.689 223.96 88.689 223.997C88.689 224.059 88.6951 224.126 88.7074 224.2C88.7074 224.249 88.7136 224.292 88.7259 224.329C88.7382 224.391 88.7443 224.452 88.7443 224.513C88.7566 224.55 88.7689 224.593 88.7812 224.643C88.7935 224.692 88.7997 224.747 88.7997 224.808C88.812 224.833 88.8243 224.864 88.8366 224.901V224.901ZM93.4675 218.005C93.1354 218.816 92.8956 219.923 92.7664 221.195C93.7996 221.182 94.8267 221.182 95.8476 221.195C95.7184 219.923 95.4786 218.816 95.1465 218.005C95.0235 217.993 94.9005 217.98 94.7775 217.968C94.7529 217.968 94.7221 217.962 94.6852 217.95C94.4392 217.937 94.1871 217.937 93.9288 217.95C93.9042 217.962 93.8734 217.968 93.8365 217.968C93.7135 217.98 93.5905 217.993 93.4675 218.005ZM96.3457 218.318C96.5856 219.148 96.7701 220.125 96.8808 221.195C97.7295 221.195 98.5782 221.201 99.4269 221.213C98.818 219.904 97.711 218.853 96.3457 218.318V218.318ZM89.1871 221.213C90.0358 221.201 90.8845 221.195 91.7332 221.195C91.8439 220.125 92.0284 219.148 92.2683 218.318C90.903 218.853 89.796 219.904 89.1871 221.213V221.213ZM92.2683 228.828C92.0284 228.017 91.8439 227.021 91.7332 225.952C90.8845 225.952 90.0358 225.945 89.1871 225.933C89.796 227.261 90.903 228.293 92.2683 228.828V228.828ZM99.4269 225.933C98.5782 225.945 97.7295 225.952 96.8808 225.952C96.7701 227.021 96.5856 228.017 96.3457 228.828C97.711 228.293 98.818 227.261 99.4269 225.933V225.933Z" fill="white"/>
<path d="M130.681 261.868H115.829V260.319H130.681C130.995 260.319 131.253 260.577 131.253 260.909V261.296C131.253 261.61 130.995 261.868 130.681 261.868V261.868Z" fill="url(#paint81_linear_22_12322)"/>
<path d="M116.677 261.868H93.3751C92.674 261.868 92.0283 261.481 91.6777 260.872L82.6926 244.408C82.4343 243.965 82.7664 243.412 83.283 243.412H105.441C106.161 243.412 106.807 243.781 107.139 244.408L116.677 261.868Z" fill="url(#paint82_linear_22_12322)"/>
<path d="M98.9839 252.373C99.4636 253.184 99.316 254.143 98.6702 254.511C98.0429 254.88 97.1389 254.511 96.6592 253.7C96.198 252.889 96.3455 251.93 96.9728 251.561C97.6186 251.193 98.5226 251.561 98.9839 252.373Z" fill="white"/>
</g>
<defs>
<linearGradient id="paint0_linear_22_12322" x1="349.314" y1="-85.5684" x2="362.874" y2="337.185" gradientUnits="userSpaceOnUse">
<stop stop-color="#ABCFF0"/>
<stop offset="1" stop-color="#F8F9FD"/>
</linearGradient>
<linearGradient id="paint1_linear_22_12322" x1="354.904" y1="256.41" x2="354.904" y2="298.06" gradientUnits="userSpaceOnUse">
<stop stop-color="#ABCFF0"/>
<stop offset="1" stop-color="#F8F9FD"/>
</linearGradient>
<linearGradient id="paint2_linear_22_12322" x1="149.094" y1="56.0131" x2="149.094" y2="69.2328" gradientUnits="userSpaceOnUse">
<stop stop-color="white"/>
<stop offset="1" stop-color="white"/>
</linearGradient>
<linearGradient id="paint3_linear_22_12322" x1="348.299" y1="97.645" x2="348.299" y2="114.091" gradientUnits="userSpaceOnUse">
<stop stop-color="white"/>
<stop offset="1" stop-color="white"/>
</linearGradient>
<linearGradient id="paint4_linear_22_12322" x1="310.292" y1="119.696" x2="310.292" y2="141.748" gradientUnits="userSpaceOnUse">
<stop stop-color="white"/>
<stop offset="1" stop-color="white"/>
</linearGradient>
<linearGradient id="paint5_linear_22_12322" x1="304.037" y1="130.722" x2="304.037" y2="160.591" gradientUnits="userSpaceOnUse">
<stop stop-color="#7DCAE8"/>
<stop offset="1" stop-color="#7DCAE8"/>
</linearGradient>
<linearGradient id="paint6_linear_22_12322" x1="304.038" y1="113.575" x2="304.038" y2="153.695" gradientUnits="userSpaceOnUse">
<stop stop-color="white"/>
<stop offset="1" stop-color="white"/>
</linearGradient>
<linearGradient id="paint7_linear_22_12322" x1="84.1502" y1="245.753" x2="84.1502" y2="184.799" gradientUnits="userSpaceOnUse">
<stop stop-color="#7DCAE8"/>
<stop offset="1" stop-color="#7DCAE8"/>
</linearGradient>
<linearGradient id="paint8_linear_22_12322" x1="256.695" y1="184.412" x2="256.695" y2="237.53" gradientUnits="userSpaceOnUse">
<stop stop-color="#2648A1"/>
<stop offset="1" stop-color="#18A4E1"/>
</linearGradient>
<linearGradient id="paint9_linear_22_12322" x1="287.838" y1="250.821" x2="270.233" y2="230.307" gradientUnits="userSpaceOnUse">
<stop stop-color="#2648A1"/>
<stop offset="1" stop-color="#18A4E1"/>
</linearGradient>
<linearGradient id="paint10_linear_22_12322" x1="262.193" y1="206.518" x2="247.597" y2="172.992" gradientUnits="userSpaceOnUse">
<stop stop-color="#575965"/>
<stop offset="1" stop-color="#939498"/>
</linearGradient>
<linearGradient id="paint11_linear_22_12322" x1="255.699" y1="194.479" x2="247.138" y2="194.479" gradientUnits="userSpaceOnUse">
<stop stop-color="#575965"/>
<stop offset="1" stop-color="#939498"/>
</linearGradient>
<linearGradient id="paint12_linear_22_12322" x1="268.817" y1="223.002" x2="262.348" y2="205.465" gradientUnits="userSpaceOnUse">
<stop stop-color="#B2B6BB"/>
<stop offset="1" stop-color="#E0E0E0"/>
</linearGradient>
<linearGradient id="paint13_linear_22_12322" x1="290.551" y1="193.114" x2="290.551" y2="197.853" gradientUnits="userSpaceOnUse">
<stop stop-color="#B2B6BB"/>
<stop offset="1" stop-color="#E0E0E0"/>
</linearGradient>
<linearGradient id="paint14_linear_22_12322" x1="272.673" y1="196.599" x2="289.813" y2="196.599" gradientUnits="userSpaceOnUse">
<stop stop-color="#B2B6BB"/>
<stop offset="1" stop-color="#E0E0E0"/>
</linearGradient>
<linearGradient id="paint15_linear_22_12322" x1="272.562" y1="200.416" x2="268.596" y2="200.416" gradientUnits="userSpaceOnUse">
<stop stop-color="#B2B6BB"/>
<stop offset="1" stop-color="#E0E0E0"/>
</linearGradient>
<linearGradient id="paint16_linear_22_12322" x1="254.112" y1="194.11" x2="249.296" y2="193.612" gradientUnits="userSpaceOnUse">
<stop stop-color="#B2B6BB"/>
<stop offset="1" stop-color="#E0E0E0"/>
</linearGradient>
<linearGradient id="paint17_linear_22_12322" x1="246.824" y1="182.531" x2="270.398" y2="142.895" gradientUnits="userSpaceOnUse">
<stop stop-color="#F5F8FD"/>
<stop offset="1" stop-color="white"/>
</linearGradient>
<linearGradient id="paint18_linear_22_12322" x1="338.668" y1="203.439" x2="338.668" y2="178.051" gradientUnits="userSpaceOnUse">
<stop stop-color="#F97386"/>
<stop offset="1" stop-color="#FDB498"/>
</linearGradient>
<linearGradient id="paint19_linear_22_12322" x1="318.576" y1="203.439" x2="318.576" y2="178.051" gradientUnits="userSpaceOnUse">
<stop stop-color="#F97386"/>
<stop offset="1" stop-color="#FDB498"/>
</linearGradient>
<linearGradient id="paint20_linear_22_12322" x1="292.746" y1="203.439" x2="292.746" y2="178.033" gradientUnits="userSpaceOnUse">
<stop stop-color="#F97386"/>
<stop offset="1" stop-color="#FDB498"/>
</linearGradient>
<linearGradient id="paint21_linear_22_12322" x1="323.059" y1="163.578" x2="321.64" y2="161.069" gradientUnits="userSpaceOnUse">
<stop stop-color="#FFC0AC"/>
<stop offset="1" stop-color="#FFD6C7"/>
</linearGradient>
<linearGradient id="paint22_linear_22_12322" x1="329.019" y1="160.83" x2="330.586" y2="161.993" gradientUnits="userSpaceOnUse">
<stop stop-color="#FF9C85"/>
<stop offset="1" stop-color="#FF9C85"/>
</linearGradient>
<linearGradient id="paint23_linear_22_12322" x1="321.75" y1="161.568" x2="317.306" y2="157.306" gradientUnits="userSpaceOnUse">
<stop stop-color="#1D164D"/>
<stop offset="1" stop-color="#4A4975"/>
</linearGradient>
<linearGradient id="paint24_linear_22_12322" x1="328.133" y1="178.899" x2="326.383" y2="166.748" gradientUnits="userSpaceOnUse">
<stop stop-color="#F5F8FD"/>
<stop offset="1" stop-color="white"/>
</linearGradient>
<linearGradient id="paint25_linear_22_12322" x1="285.495" y1="198.701" x2="284.463" y2="199.623" gradientUnits="userSpaceOnUse">
<stop stop-color="#FF9C85"/>
<stop offset="1" stop-color="#FFC0AC"/>
</linearGradient>
<linearGradient id="paint26_linear_22_12322" x1="293.134" y1="202.573" x2="283.467" y2="199.213" gradientUnits="userSpaceOnUse">
<stop stop-color="#FFC0AC"/>
<stop offset="1" stop-color="#FFD6C7"/>
</linearGradient>
<linearGradient id="paint27_linear_22_12322" x1="311.86" y1="236.996" x2="311.86" y2="256.724" gradientUnits="userSpaceOnUse">
<stop stop-color="#1D164D"/>
<stop offset="1" stop-color="#4A4975"/>
</linearGradient>
<linearGradient id="paint28_linear_22_12322" x1="302.008" y1="253.516" x2="299.907" y2="249.55" gradientUnits="userSpaceOnUse">
<stop stop-color="#FFC0AC"/>
<stop offset="1" stop-color="#FFD6C7"/>
</linearGradient>
<linearGradient id="paint29_linear_22_12322" x1="299.093" y1="253.368" x2="307.525" y2="253.368" gradientUnits="userSpaceOnUse">
<stop stop-color="#1D164D"/>
<stop offset="1" stop-color="#4A4975"/>
</linearGradient>
<linearGradient id="paint30_linear_22_12322" x1="287.82" y1="245.145" x2="279.417" y2="217.522" gradientUnits="userSpaceOnUse">
<stop stop-color="#1D164D"/>
<stop offset="1" stop-color="#4A4975"/>
</linearGradient>
<linearGradient id="paint31_linear_22_12322" x1="291.178" y1="257.351" x2="286.621" y2="256.741" gradientUnits="userSpaceOnUse">
<stop stop-color="#FFC0AC"/>
<stop offset="1" stop-color="#FFD6C7"/>
</linearGradient>
<linearGradient id="paint32_linear_22_12322" x1="275.846" y1="262.421" x2="282.777" y2="251.944" gradientUnits="userSpaceOnUse">
<stop stop-color="#1D164D"/>
<stop offset="1" stop-color="#4A4975"/>
</linearGradient>
<linearGradient id="paint33_linear_22_12322" x1="289.997" y1="266.293" x2="289.997" y2="221.711" gradientUnits="userSpaceOnUse">
<stop stop-color="#2648A1"/>
<stop offset="1" stop-color="#18A4E1"/>
</linearGradient>
<linearGradient id="paint34_linear_22_12322" x1="318.816" y1="266.293" x2="318.816" y2="221.711" gradientUnits="userSpaceOnUse">
<stop stop-color="#2648A1"/>
<stop offset="1" stop-color="#18A4E1"/>
</linearGradient>
<linearGradient id="paint35_linear_22_12322" x1="295.016" y1="224.034" x2="295.016" y2="200.489" gradientUnits="userSpaceOnUse">
<stop stop-color="#2648A1"/>
<stop offset="1" stop-color="#18A4E1"/>
</linearGradient>
<linearGradient id="paint36_linear_22_12322" x1="294.517" y1="184.412" x2="294.517" y2="237.53" gradientUnits="userSpaceOnUse">
<stop stop-color="#2648A1"/>
<stop offset="1" stop-color="#18A4E1"/>
</linearGradient>
<linearGradient id="paint37_linear_22_12322" x1="38.3388" y1="251.063" x2="38.3388" y2="261.518" gradientUnits="userSpaceOnUse">
<stop stop-color="#FFC0AC"/>
<stop offset="1" stop-color="#FFD6C7"/>
</linearGradient>
<linearGradient id="paint38_linear_22_12322" x1="24.7779" y1="259.25" x2="32.1705" y2="250.432" gradientUnits="userSpaceOnUse">
<stop stop-color="#1D164D"/>
<stop offset="1" stop-color="#4A4975"/>
</linearGradient>
<linearGradient id="paint39_linear_22_12322" x1="68.8182" y1="251.045" x2="68.8182" y2="261.499" gradientUnits="userSpaceOnUse">
<stop stop-color="#FFC0AC"/>
<stop offset="1" stop-color="#FFD6C7"/>
</linearGradient>
<linearGradient id="paint40_linear_22_12322" x1="54.1874" y1="261.886" x2="63.7366" y2="249.988" gradientUnits="userSpaceOnUse">
<stop stop-color="#1D164D"/>
<stop offset="1" stop-color="#4A4975"/>
</linearGradient>
<linearGradient id="paint41_linear_22_12322" x1="17.0106" y1="218.54" x2="29.0078" y2="190.195" gradientUnits="userSpaceOnUse">
<stop stop-color="#1D164D"/>
<stop offset="1" stop-color="#4A4975"/>
</linearGradient>
<linearGradient id="paint42_linear_22_12322" x1="30.9587" y1="236.664" x2="52.3349" y2="175.424" gradientUnits="userSpaceOnUse">
<stop stop-color="#1D164D"/>
<stop offset="1" stop-color="#4A4975"/>
</linearGradient>
<linearGradient id="paint43_linear_22_12322" x1="95.8291" y1="140.328" x2="94.9445" y2="138.465" gradientUnits="userSpaceOnUse">
<stop stop-color="#FF9C85"/>
<stop offset="1" stop-color="#FFC0AC"/>
</linearGradient>
<linearGradient id="paint44_linear_22_12322" x1="85.1466" y1="139.756" x2="97.4708" y2="137.725" gradientUnits="userSpaceOnUse">
<stop stop-color="#FFC0AC"/>
<stop offset="1" stop-color="#FFD6C7"/>
</linearGradient>
<linearGradient id="paint45_linear_22_12322" x1="54.0769" y1="167.818" x2="54.0769" y2="141.821" gradientUnits="userSpaceOnUse">
<stop stop-color="#6CCA50"/>
<stop offset="1" stop-color="#C0EA6A"/>
</linearGradient>
<linearGradient id="paint46_linear_22_12322" x1="36.0878" y1="168.187" x2="36.0878" y2="141.913" gradientUnits="userSpaceOnUse">
<stop stop-color="#6CCA50"/>
<stop offset="1" stop-color="#C0EA6A"/>
</linearGradient>
<linearGradient id="paint47_linear_22_12322" x1="43.7631" y1="116.396" x2="57.0102" y2="116.396" gradientUnits="userSpaceOnUse">
<stop stop-color="#FFC0AC"/>
<stop offset="1" stop-color="#FFD6C7"/>
</linearGradient>
<linearGradient id="paint48_linear_22_12322" x1="40.7189" y1="115.345" x2="47.615" y2="109.127" gradientUnits="userSpaceOnUse">
<stop stop-color="#1D164D"/>
<stop offset="1" stop-color="#4A4975"/>
</linearGradient>
<linearGradient id="paint49_linear_22_12322" x1="55.5528" y1="129.855" x2="55.5528" y2="136.548" gradientUnits="userSpaceOnUse">
<stop stop-color="#FF9C85"/>
<stop offset="1" stop-color="#FF9C85"/>
</linearGradient>
<linearGradient id="paint50_linear_22_12322" x1="26.8816" y1="168.187" x2="26.8816" y2="141.913" gradientUnits="userSpaceOnUse">
<stop stop-color="#6CCA50"/>
<stop offset="1" stop-color="#C0EA6A"/>
</linearGradient>
<linearGradient id="paint51_linear_22_12322" x1="44.5566" y1="143.978" x2="58.5876" y2="157.908" gradientUnits="userSpaceOnUse">
<stop stop-color="#6CCA50"/>
<stop offset="1" stop-color="#6CCA50"/>
</linearGradient>
<linearGradient id="paint52_linear_22_12322" x1="87.2682" y1="137.544" x2="95.855" y2="105.902" gradientUnits="userSpaceOnUse">
<stop stop-color="#222D6D"/>
<stop offset="1" stop-color="#2648A1"/>
</linearGradient>
<linearGradient id="paint53_linear_22_12322" x1="160.865" y1="81.0513" x2="78.0217" y2="189.536" gradientUnits="userSpaceOnUse">
<stop stop-color="white"/>
<stop offset="1" stop-color="white"/>
</linearGradient>
<linearGradient id="paint54_linear_22_12322" x1="141.769" y1="66.4672" x2="58.9258" y2="174.952" gradientUnits="userSpaceOnUse">
<stop stop-color="white"/>
<stop offset="1" stop-color="white"/>
</linearGradient>
<linearGradient id="paint55_linear_22_12322" x1="170.994" y1="88.7766" x2="88.1506" y2="197.28" gradientUnits="userSpaceOnUse">
<stop stop-color="white"/>
<stop offset="1" stop-color="white"/>
</linearGradient>
<linearGradient id="paint56_linear_22_12322" x1="50.2573" y1="181.241" x2="77.7965" y2="141.877" gradientUnits="userSpaceOnUse">
<stop stop-color="#222D6D"/>
<stop offset="1" stop-color="#2648A1"/>
</linearGradient>
<linearGradient id="paint57_linear_22_12322" x1="39.7962" y1="198.812" x2="41.4361" y2="174.548" gradientUnits="userSpaceOnUse">
<stop stop-color="#2648A1"/>
<stop offset="1" stop-color="#18A4E1"/>
</linearGradient>
<linearGradient id="paint58_linear_22_12322" x1="42.8958" y1="193.151" x2="43.4301" y2="163.909" gradientUnits="userSpaceOnUse">
<stop stop-color="#2648A1"/>
<stop offset="1" stop-color="#2648A1"/>
</linearGradient>
<linearGradient id="paint59_linear_22_12322" x1="75.1098" y1="126.5" x2="91.3084" y2="85.7821" gradientUnits="userSpaceOnUse">
<stop stop-color="#222D6D"/>
<stop offset="1" stop-color="#2648A1"/>
</linearGradient>
<linearGradient id="paint60_linear_22_12322" x1="28.062" y1="165.218" x2="44.0146" y2="154.625" gradientUnits="userSpaceOnUse">
<stop stop-color="#FFC0AC"/>
<stop offset="1" stop-color="#FFD6C7"/>
</linearGradient>
<linearGradient id="paint61_linear_22_12322" x1="56.1985" y1="146.633" x2="67.3027" y2="141.373" gradientUnits="userSpaceOnUse">
<stop stop-color="#6CCA50"/>
<stop offset="1" stop-color="#6CCA50"/>
</linearGradient>
<linearGradient id="paint62_linear_22_12322" x1="152.434" y1="211.607" x2="164.291" y2="202.583" gradientUnits="userSpaceOnUse">
<stop stop-color="#1D164D"/>
<stop offset="1" stop-color="#4A4975"/>
</linearGradient>
<linearGradient id="paint63_linear_22_12322" x1="145.958" y1="218.927" x2="144.889" y2="215.94" gradientUnits="userSpaceOnUse">
<stop stop-color="#AD79FD"/>
<stop offset="1" stop-color="#FFB4FE"/>
</linearGradient>
<linearGradient id="paint64_linear_22_12322" x1="136.806" y1="231.096" x2="132.126" y2="216.565" gradientUnits="userSpaceOnUse">
<stop stop-color="#1D164D"/>
<stop offset="1" stop-color="#4A4975"/>
</linearGradient>
<linearGradient id="paint65_linear_22_12322" x1="209.665" y1="238.673" x2="234.391" y2="215.96" gradientUnits="userSpaceOnUse">
<stop stop-color="#1D164D"/>
<stop offset="1" stop-color="#4A4975"/>
</linearGradient>
<linearGradient id="paint66_linear_22_12322" x1="117.12" y1="262.292" x2="114.649" y2="260.926" gradientUnits="userSpaceOnUse">
<stop stop-color="#FFC0AC"/>
<stop offset="1" stop-color="#FFD6C7"/>
</linearGradient>
<linearGradient id="paint67_linear_22_12322" x1="148.67" y1="282.813" x2="122.983" y2="260.818" gradientUnits="userSpaceOnUse">
<stop stop-color="#AD79FD"/>
<stop offset="1" stop-color="#FFB4FE"/>
</linearGradient>
<linearGradient id="paint68_linear_22_12322" x1="162.968" y1="252.852" x2="142.274" y2="263.908" gradientUnits="userSpaceOnUse">
<stop stop-color="#AD79FD"/>
<stop offset="1" stop-color="#AD79FD"/>
</linearGradient>
<linearGradient id="paint69_linear_22_12322" x1="153.836" y1="270.681" x2="140.695" y2="244.235" gradientUnits="userSpaceOnUse">
<stop stop-color="#AD79FD"/>
<stop offset="1" stop-color="#FFB4FE"/>
</linearGradient>
<linearGradient id="paint70_linear_22_12322" x1="142.747" y1="243.08" x2="137.881" y2="234.67" gradientUnits="userSpaceOnUse">
<stop stop-color="#FFC0AC"/>
<stop offset="1" stop-color="#FFD6C7"/>
</linearGradient>
<linearGradient id="paint71_linear_22_12322" x1="119.205" y1="260.964" x2="115.074" y2="258.436" gradientUnits="userSpaceOnUse">
<stop stop-color="#FFC0AC"/>
<stop offset="1" stop-color="#FFD6C7"/>
</linearGradient>
<linearGradient id="paint72_linear_22_12322" x1="150.275" y1="283.864" x2="130.251" y2="264.177" gradientUnits="userSpaceOnUse">
<stop stop-color="#AD79FD"/>
<stop offset="1" stop-color="#FFB4FE"/>
</linearGradient>
<linearGradient id="paint73_linear_22_12322" x1="172.747" y1="255.765" x2="197.601" y2="231.724" gradientUnits="userSpaceOnUse">
<stop stop-color="#1D164D"/>
<stop offset="1" stop-color="#4A4975"/>
</linearGradient>
<linearGradient id="paint74_linear_22_12322" x1="227.082" y1="222.485" x2="231.322" y2="215.9" gradientUnits="userSpaceOnUse">
<stop stop-color="#FFC0AC"/>
<stop offset="1" stop-color="#FFD6C7"/>
</linearGradient>
<linearGradient id="paint75_linear_22_12322" x1="226.436" y1="210.206" x2="241.077" y2="198.064" gradientUnits="userSpaceOnUse">
<stop stop-color="#AD79FD"/>
<stop offset="1" stop-color="#FFB4FE"/>
</linearGradient>
<linearGradient id="paint76_linear_22_12322" x1="246.621" y1="227.814" x2="257.359" y2="226.632" gradientUnits="userSpaceOnUse">
<stop stop-color="#FFC0AC"/>
<stop offset="1" stop-color="#FFD6C7"/>
</linearGradient>
<linearGradient id="paint77_linear_22_12322" x1="263.447" y1="218.798" x2="272.723" y2="225.478" gradientUnits="userSpaceOnUse">
<stop stop-color="#AD79FD"/>
<stop offset="1" stop-color="#FFB4FE"/>
</linearGradient>
<linearGradient id="paint78_linear_22_12322" x1="147.415" y1="232.626" x2="151.121" y2="236.334" gradientUnits="userSpaceOnUse">
<stop stop-color="#FF9C85"/>
<stop offset="1" stop-color="#FF9C85"/>
</linearGradient>
<linearGradient id="paint79_linear_22_12322" x1="161.787" y1="243.523" x2="172.573" y2="254.961" gradientUnits="userSpaceOnUse">
<stop stop-color="#AD79FD"/>
<stop offset="1" stop-color="#AD79FD"/>
</linearGradient>
<linearGradient id="paint80_linear_22_12322" x1="119.63" y1="217.212" x2="98.5741" y2="238.282" gradientUnits="userSpaceOnUse">
<stop stop-color="#006FFF"/>
<stop offset="1" stop-color="#7DCAE8"/>
</linearGradient>
<linearGradient id="paint81_linear_22_12322" x1="121.105" y1="259.582" x2="139.482" y2="259.582" gradientUnits="userSpaceOnUse">
<stop stop-color="#1D164D"/>
<stop offset="1" stop-color="#4A4975"/>
</linearGradient>
<linearGradient id="paint82_linear_22_12322" x1="81.8623" y1="275.419" x2="81.8623" y2="246.03" gradientUnits="userSpaceOnUse">
<stop stop-color="#1D164D"/>
<stop offset="1" stop-color="#4A4975"/>
</linearGradient>
<clipPath id="clip0_22_12322">
<rect width="369" height="295" fill="white"/>
</clipPath>
</defs>
</svg>
