<svg width="64" height="64" viewBox="0 0 64 64" fill="none" xmlns="http://www.w3.org/2000/svg">
<circle cx="32" cy="32" r="30.5" stroke="#0064DC" stroke-width="3"/>
<path d="M27 34.5V51.5C27 51.7761 27.2239 52 27.5 52H34.5C34.7761 52 35 51.7761 35 51.5V34.5C35 34.2239 35.2239 34 35.5 34H40.5C40.7761 34 41 33.7761 41 33.5V27.5C41 27.2239 40.7761 27 40.5 27H35.5C35.2239 27 35 26.7765 35 26.5003V22C35 20 37.5 19 38.5 19H41.5C41.7761 19 42 18.7761 42 18.5V12.5C42 12.2239 41.7762 12 41.5001 12H35C30.2 12 27 17 27 20V26.5C27 26.7761 26.7761 27 26.5 27H21.5C21.2239 27 21 27.2239 21 27.5V33.5C21 33.7761 21.2239 34 21.5 34H26.5C26.7761 34 27 34.2239 27 34.5Z" fill="#0064DC"/>
</svg>
