<svg version="1.2" xmlns="http://www.w3.org/2000/svg" viewBox="0 0 7227 6771" width="7227" height="6771">
	<title>Основной показатель (индикатор) подпрограммы «Цифровой регион»_ 2 (1)-svg</title>
	<style>
		.s0 { fill: none;stroke: #333333 } 
		.s1 { fill: none;stroke: #cccccc } 
		.s2 { fill: #1155cc } 
		.s3 { fill: #000000 } 
	</style>
	<path id="Layer" class="s0" d="m812.1 6104.9h9070.3"/>
	<path id="Layer" class="s1" d="m812.1 4936.8h9070.3"/>
	<path id="Layer" class="s1" d="m812.1 3787h9070.3"/>
	<path id="Layer" class="s2" d="m1788 5878h-1412v-2697.3c0-13.6 27.5-24.7 61.4-24.7h1289.2c33.9 0 61.4 11.1 61.4 24.8z"/>
	<path id="Layer" class="s2" d="m4387 6004h-1267v-3796.5c0-20.2 24.7-36.5 55.1-36.5h1156.8c30.4 0 55.1 16.3 55.1 36.5z"/>
	<path id="Layer" class="s2" d="m7037 5936h-1252v-3285.8c0-17.3 24.4-31.2 54.4-31.2h1143.2c30 0 54.4 13.9 54.4 31.2z"/>
	<path id="Layer" fill-rule="evenodd" class="s3" d="m941.8 6395.9v18.5h-103.8q0-6.8 2.3-13.4 4-10.5 12.5-20.8 8.9-10.3 25.4-23.7 25.7-21.1 34.5-33.3 9.1-12.3 9.1-23.1 0-11.4-8.2-19.1-8.3-8-21.4-8-14 0-22.3 8.2-8.2 8.3-8.5 23.1l-19.7-2q2-22.2 15.1-33.6 13.4-11.7 36-11.7 22.5 0 35.6 12.6 13.1 12.5 13.1 31 0 9.4-4 18.6-3.7 8.8-12.8 19.1-8.9 10-29.4 27.3-17.4 14.6-22.5 20-4.9 5.1-8 10.3zm26.5-58.8q0-27.9 5.7-44.7 5.7-17.2 16.9-26.3 11.4-9.1 28.5-9.1 12.5 0 21.9 5.1 9.7 5.2 16 14.9 6.3 9.4 9.7 23.1 3.4 13.6 3.4 37 0 27.7-5.7 44.5-5.4 16.8-16.8 26.3-11.1 9.1-28.5 9.1-22.6 0-35.7-16.3-15.4-19.4-15.4-63.6zm19.7 0q0 38.5 9.1 51.4 9.1 12.8 22.3 12.8 13.4 0 22.2-12.8 9.1-12.9 9.1-51.4 0-38.7-9.1-51.3-8.8-12.8-22.5-12.8-13.1 0-21.1 11.1-10 14.3-10 53zm180.5 77.3h-19.1v-122.6q-7.1 6.5-18.5 13.4-11.2 6.6-20 9.7v-18.5q16-7.7 27.9-18.3 12.3-10.8 17.4-21.1h12.3zm58.2-36.2l18.5-1.7q2.3 13.1 8.8 19.1 6.9 5.7 17.2 5.7 8.8 0 15.4-4 6.8-4.3 11.1-10.8 4.3-6.9 7.1-18.3 2.9-11.7 2.9-23.7 0-1.4 0-4-5.7 9.2-15.7 15.2-10 5.7-21.7 5.7-19.7 0-33.1-14-13.4-14.3-13.4-37.4 0-23.9 14-38.5 14.3-14.5 35.4-14.5 15.1 0 27.6 8.3 12.8 8.2 19.4 23.6 6.6 15.1 6.6 43.9 0 30-6.6 48-6.3 17.6-19.4 27-12.8 9.2-29.9 9.2-18.6 0-30.3-10-11.6-10.3-13.9-28.8zm78.7-69.3q0-16.6-8.9-26.2-8.5-9.7-21.1-9.7-12.8 0-22.5 10.5-9.4 10.3-9.4 27.1 0 14.8 9.1 24.2 9.1 9.4 22.3 9.5 13.4-0.1 21.9-9.5 8.6-9.4 8.6-25.9z"/>
	<path id="Layer" fill-rule="evenodd" class="s3" d="m3612.8 6395.9v18.5h-103.8q0-6.8 2.3-13.4 4-10.5 12.5-20.8 8.9-10.3 25.4-23.7 25.7-21.1 34.5-33.3 9.1-12.3 9.1-23.1 0-11.4-8.2-19.1-8.3-8-21.4-8-14 0-22.3 8.2-8.2 8.3-8.5 23.1l-19.7-2q2-22.2 15.1-33.6 13.4-11.7 35.9-11.7 22.6 0 35.7 12.6 13.1 12.5 13.1 31 0 9.4-4 18.6-3.7 8.8-12.8 19.1-8.9 10-29.4 27.3-17.4 14.6-22.5 20-4.9 5.1-8 10.3zm26.5-58.8q0-27.9 5.7-44.7 5.7-17.2 16.8-26.3 11.4-9.1 28.6-9.1 12.5 0 21.9 5.1 9.7 5.2 16 14.9 6.3 9.4 9.7 23.1 3.4 13.6 3.4 37 0 27.7-5.7 44.5-5.4 16.8-16.8 26.3-11.1 9.1-28.5 9.1-22.6 0-35.7-16.3-15.4-19.4-15.4-63.6zm19.7 0q0 38.5 9.1 51.4 9.1 12.8 22.3 12.8 13.4 0 22.2-12.8 9.1-12.9 9.1-51.4 0-38.7-9.1-51.3-8.8-12.8-22.5-12.8-13.1 0-21.1 11.1-10 14.3-10 53zm209.3 58.8v18.5h-103.8q0-6.8 2.3-13.4 4-10.5 12.5-20.8 8.9-10.3 25.4-23.7 25.7-21.1 34.5-33.3 9.1-12.3 9.1-23.1 0-11.4-8.2-19.1-8.3-8-21.4-8-14 0-22.3 8.2-8.2 8.3-8.5 23.1l-19.7-2q2-22.2 15.1-33.6 13.4-11.7 35.9-11.7 22.6 0 35.7 12.6 13.1 12.5 13.1 31 0 9.4-4 18.6-3.7 8.8-12.8 19.1-8.9 10-29.4 27.3-17.4 14.6-22.5 20-4.9 5.1-8 10.3zm26.5-58.8q0-27.9 5.7-44.7 5.7-17.2 16.8-26.3 11.4-9.1 28.6-9.1 12.5 0 21.9 5.1 9.7 5.2 16 14.9 6.3 9.4 9.7 23.1 3.4 13.6 3.4 37 0 27.7-5.7 44.5-5.4 16.8-16.8 26.3-11.1 9.1-28.5 9.1-22.6 0-35.7-16.3-15.4-19.4-15.4-63.6zm19.7 0q0 38.5 9.1 51.4 9.1 12.8 22.3 12.8 13.4 0 22.2-12.8 9.1-12.9 9.1-51.4 0-38.7-9.1-51.3-8.8-12.8-22.5-12.8-13.1 0-21.1 11.1-10 14.3-10 53z"/>
	<path id="Layer" fill-rule="evenodd" class="s3" d="m6285.8 6315.9v18.5h-103.8q0-6.8 2.3-13.4 4-10.5 12.5-20.8 8.9-10.3 25.4-23.7 25.7-21.1 34.5-33.3 9.1-12.3 9.1-23.1 0-11.4-8.2-19.1-8.3-8-21.4-8-14 0-22.3 8.2-8.2 8.3-8.5 23.1l-19.7-2q2-22.2 15.1-33.6 13.4-11.7 35.9-11.7 22.6 0 35.7 12.6 13.1 12.5 13.1 31 0 9.4-4 18.6-3.7 8.8-12.8 19.1-8.9 10-29.4 27.3-17.4 14.6-22.5 20-4.9 5.1-8 10.3zm26.5-58.8q0-27.9 5.7-44.7 5.7-17.2 16.8-26.3 11.4-9.1 28.6-9.1 12.5 0 21.9 5.1 9.7 5.2 16 14.9 6.3 9.4 9.7 23.1 3.4 13.6 3.4 37 0 27.7-5.7 44.5-5.4 16.8-16.8 26.3-11.1 9.1-28.5 9.1-22.6 0-35.7-16.3-15.4-19.4-15.4-63.6zm19.7 0q0 38.5 9.1 51.4 9.1 12.8 22.3 12.8 13.4 0 22.2-12.8 9.1-12.9 9.1-51.4 0-38.7-9.1-51.3-8.8-12.8-22.5-12.8-13.1 0-21.1 11.1-10 14.3-10 53zm209.3 58.8v18.5h-103.8q0-6.8 2.3-13.4 4-10.5 12.5-20.8 8.9-10.3 25.4-23.7 25.7-21.1 34.5-33.3 9.1-12.3 9.1-23.1 0-11.4-8.2-19.1-8.3-8-21.4-8-14 0-22.3 8.2-8.2 8.3-8.5 23.1l-19.7-2q2-22.2 15.1-33.6 13.4-11.7 35.9-11.7 22.6 0 35.7 12.6 13.1 12.5 13.1 31 0 9.4-4 18.6-3.7 8.8-12.8 19.1-8.9 10-29.4 27.3-17.4 14.6-22.5 20-4.9 5.1-8 10.3zm98.9 18.5h-19.1v-122.6q-7.1 6.5-18.5 13.4-11.1 6.6-20 9.7v-18.5q16-7.7 28-18.3 12.2-10.8 17.4-21.1h12.2z"/>
	<path id="Layer" fill-rule="evenodd" class="s3" d="m380.6 225q-14.4 0-25.8-4.2-11.4-4.1-19.2-11.5-7.9-7.7-12.2-18.2-4.1-10.6-4.1-23.5v-3.8q0-11.4 4.1-21.3 4.3-9.9 12.2-17 7.8-7.1 19.2-11.2 11.4-4.2 25.8-4.2v-13.6h17.6v13.6q14.4 0 25.8 4.2 11.4 4.1 19.3 11.2 7.8 7.1 11.9 17 4.3 9.9 4.3 21.3v3.8q0 12.9-4.3 23.5-4.1 10.5-11.9 18.2-7.9 7.4-19.3 11.5-11.4 4.2-25.8 4.2v13.6h-17.6zm60.2-61.1q0-8.1-2.8-15-2.8-6.9-8.2-12-5.4-5.2-13.5-8-7.8-3-18.1-3v83.4q10.3 0 18.1-3 8.1-3 13.5-8.4 5.4-5.4 8.2-13.1 2.8-7.7 2.8-17.2zm-102.8 3.7q0 9.6 2.8 17.2 2.8 7.7 8.2 13.1 5.4 5.5 13.3 8.5 8 2.9 18.3 2.9v-83.4q-10.3 0-18.3 3-7.9 2.8-13.3 8.1-5.4 5-8.2 11.9-2.8 7-2.8 15zm146.8-33.7h16.5v74.8l51.2-74.8h16.5v99.2h-16.5v-74.8l-51.2 74.8h-16.5zm114.2 0h16.4v41.3h51.3v-41.3h16.4v99.1h-16.4v-43.2h-51.3v43.2h-16.4zm142.4 100.9q-8.3 0-14.6-2.2-6.2-2.4-10.5-6.5-4.3-4.2-6.5-9.8-2.3-5.6-2.3-12.3 0-14.8 8.6-21.3 8.8-6.6 25.1-6.6h32.1v-6.7q0-12.7-5.8-17.6-5.6-4.8-17-4.8-10.6 0-15.5 4.1-4.9 3.9-5.4 8.9h-16.5q0.4-5.9 3.2-11 3-5.2 7.8-9 5.1-3.7 12-5.8 6.9-2.2 15.4-2.2 17.5 0 27.8 8.4 10.5 8.2 10.5 27.1c0 5.3 0 50.1 0 54.1q0.2 5.8 0.9 11.4h-14.4q-0.5-4.3-0.7-8.1-0.2-3.9-0.2-8.8-3.9 7.9-12.7 13.3-8.8 5.4-21.3 5.4zm3.5-14.9q5.8 0 10.9-1.5 5.2-1.7 9.1-4.7 3.9-3.2 6.2-7.7 2.2-4.4 2.2-10.4v-6.8h-29.3q-9.2 0-14.4 3.8-5.3 3.5-5.3 11.4 0 6.9 4.9 11.4 5 4.5 15.7 4.5zm74-86h16.4v41.3h51.2v-41.3h16.5v99.1h-16.5v-43.2h-51.2v43.2h-16.4zm152.4 101q-9.5 0-17.7-3-8.3-3.2-14.3-9.4-5.9-6.3-9.5-15.9-3.4-9.5-3.4-22.2v-3.8q0-11.9 3.8-21.1 3.7-9.2 9.9-15.2 6.2-6.1 14.2-9.1 8.2-3.2 17-3.2 8.8 0 15.7 2.4 7.1 2.5 12.2 6.8 5.2 4.3 8.4 10.1 3.4 5.8 4.9 12.5h-16.9q-1.5-3.6-3.5-6.6-1.9-3.1-4.9-5.4-2.8-2.2-6.7-3.5-3.9-1.3-9.2-1.3-5.4 0-10.4 2-5.1 1.9-9 6-4 3.9-6.4 10.3-2.2 6.3-2.2 15.3v3.8q0 9.5 2.2 16.4 2.4 6.7 6.4 11.1 3.9 4.1 9 6.1 5 1.9 10.4 1.9 9.2 0 15.4-4.5 6.3-4.5 8.9-12.3h16.9q-3.6 14.7-14.6 23.3-11.1 8.5-26.6 8.5zm63.6-101h16.4v74.8l51.3-74.8h16.4v99.1h-16.4v-74.8l-51.3 74.8h-16.4zm114.1 0h15.4v18.7q5-9.9 14-15.2 9.1-5.4 21.1-5.4 18.7 0 29.9 12.4 11.3 12.1 11.3 36.2v3.8q0 12.7-3 22.2-3 9.4-8.5 15.7-5.4 6.2-13 9.4-7.5 3.2-16.7 3.2-12.7 0-21.3-5.6-8.4-5.7-12.7-14.1v55.2h-16.5zm46.8 86.4q6 0 11.2-2.3 5.2-2.4 9-6.9 3.9-4.5 5.9-11.2 2.3-6.7 2.3-15.5v-3.8q0-8-2.3-14.4-2-6.3-5.9-10.6-3.8-4.5-9-6.7-5.2-2.3-11.2-2.3-6.8 0-12.4 2.3-5.6 2-9.5 5.9-3.9 3.8-6.2 9-2.2 5.2-2.2 11.2v15q0 6.7 2.2 12.3 2.3 5.6 6.2 9.6 3.9 3.9 9.5 6.1 5.6 2.3 12.4 2.3zm109.4 14.6q-9.5 0-18.1-3-8.6-3.2-15.2-9.4-6.5-6.3-10.4-15.9-4-9.5-4-22.2v-3.8q0-11.9 4-21.1 3.9-9.2 10.4-15.1 6.6-6.2 15.2-9.2 8.6-3.2 18.1-3.2 9.6 0 18.1 3.2 8.7 3 15.2 9.2 6.5 5.9 10.5 15.1 3.9 9.2 3.9 21.1v3.8q0 12.7-3.9 22.2-4 9.6-10.5 15.9-6.5 6.2-15.2 9.4-8.5 3-18.1 3zm0-15q5.6 0 11.2-1.9 5.6-2 9.9-6.1 4.3-4.3 7-11.1 2.8-6.7 2.8-16.4v-3.8q0-8.9-2.8-15.3-2.7-6.4-7-10.5-4.3-4.1-9.9-5.9-5.6-1.9-11.2-1.9-5.6 0-11.2 1.9-5.6 1.8-9.9 5.9-4.3 4.1-7.1 10.5-2.6 6.4-2.6 15.3v3.8q0 9.7 2.6 16.4 2.8 6.8 7.1 11.1 4.3 4.1 9.9 6.1 5.6 1.9 11.2 1.9zm71-86h43q18.3 0 26.9 7.7 8.6 7.4 8.6 19.4 0 3.2-1.1 6.6-1.1 3.1-3.2 5.9-1.8 2.8-4.6 4.9-2.7 2.1-6 3.2 9.1 2.2 13.8 8.6 4.9 6.1 4.9 14.6 0 12.9-8.6 20.5-8.6 7.7-27 7.7h-46.7zm46.7 84.5q10.5 0 14.8-3.7 4.3-3.8 4.3-10.7 0-7.1-4.3-10.8-4.3-3.9-14.8-3.9h-30.2v29.1zm-3.8-42.6q10.7 0 14.8-3.8 4.3-3.7 4.3-10.2 0-6.2-4.3-9.8-4.1-3.5-14.8-3.5h-26.5v27.3zm90.9 59.1q-8.2 0-14.6-2.3-6.1-2.4-10.4-6.5-4.3-4.1-6.6-9.7-2.2-5.6-2.2-12.4 0-14.7 8.6-21.3 8.8-6.5 25.1-6.5h32.1v-6.8q0-12.7-5.8-17.5-5.6-4.9-17-4.9-10.7 0-15.5 4.1-4.9 3.9-5.4 9h-16.5q0.4-6 3.2-11.1 3-5.2 7.8-8.9 5.1-3.8 12-5.8 6.9-2.3 15.3-2.3 17.6 0 27.9 8.4 10.5 8.3 10.5 27.2c0 5.2 0 50 0 54q0.2 5.8 0.9 11.4h-14.4q-0.6-4.3-0.7-8-0.2-4-0.2-8.8-4 7.8-12.7 13.3-8.8 5.4-21.4 5.4zm3.6-15q5.8 0 10.8-1.5 5.3-1.7 9.2-4.6 3.9-3.2 6.2-7.7 2.2-4.5 2.2-10.5v-6.7h-29.4q-9.1 0-14.3 3.7-5.3 3.6-5.3 11.4 0 6.9 4.9 11.4 5 4.5 15.7 4.5zm73.9-86h16.5v41.3h51.2v-41.3h16.5v99.1h-16.5v-43.2h-51.2v43.2h-16.5zm114.2 0h16.4v74.8l51.3-74.8h16.4v99.1h-16.4v-74.8l-51.3 74.8h-16.4zm155.2 101q-9.5 0-18.1-3-8.6-3-15.1-9.2-6.6-6.3-10.5-15.8-3.9-9.6-3.9-22.5v-3.7q0-12.4 3.7-21.3 3.7-9.2 9.9-15.2 6.4-6.2 14.6-9.2 8.4-2.9 17.6-2.9 21.9 0 33.8 11.9 12 12 12 33.9v10.4h-75.2q0 8.8 2.8 14.8 2.8 6 7.3 9.7 4.5 3.8 9.9 5.5 5.6 1.6 11.2 1.6 11.3 0 17.2-3.7 6.2-3.7 8.8-10.3h16.1q-1.5 7.1-5.4 12.5-3.7 5.5-9.4 9.2-5.4 3.6-12.5 5.4-6.9 1.9-14.8 1.9zm-0.9-87.9q-5.8 0-11.2 1.7-5.4 1.5-9.7 5-4.1 3.4-6.8 8.6-2.6 5.3-2.6 12.6h59.7q-0.2-7.7-2.6-12.9-2.3-5.5-6.2-8.6-4-3.4-9.4-4.9-5.2-1.5-11.2-1.5zm-1532.2 210.9h82.3v99.1h-16.5v-84.5h-49.3v84.5h-16.5zm153.3 101q-9.5 0-18.2-3-8.6-3.2-15.1-9.3-6.5-6.4-10.5-15.9-3.9-9.6-3.9-22.3v-3.7q0-12 3.9-21.1 4-9.2 10.5-15.2 6.5-6.2 15.1-9.2 8.7-3.1 18.2-3.1 9.5 0 18.1 3.1 8.6 3 15.2 9.2 6.5 6 10.4 15.2 4 9.1 4 21.1v3.7q0 12.7-4 22.3-3.9 9.5-10.4 15.9-6.6 6.1-15.2 9.3-8.6 3-18.1 3zm0-14.9q5.6 0 11.2-1.9 5.6-2.1 9.9-6.2 4.3-4.3 6.9-11 2.8-6.8 2.8-16.5v-3.7q0-9-2.8-15.4-2.6-6.3-6.9-10.4-4.3-4.1-9.9-6-5.6-1.9-11.2-1.9-5.6 0-11.2 1.9-5.6 1.9-9.9 6-4.3 4.1-7.1 10.4-2.7 6.4-2.7 15.4v3.7q0 9.7 2.7 16.5 2.8 6.7 7.1 11 4.3 4.1 9.9 6.2 5.6 1.9 11.2 1.9zm57.9-1.5h12.2q2-2.8 3.7-8.6 1.7-5.8 3-13.7 1.3-7.9 1.9-17 0.7-9.4 0.7-19.1v-26.2h69.2v84.6h14v37.9h-15.7v-23.4h-73.3v23.4h-15.7zm74.3 0v-69.9h-36.7v15.3q0 7.9-0.5 15.7-0.6 7.7-1.7 14.8-1.2 6.9-2.8 13.3-1.5 6.1-3.6 10.8zm50.2-84.5h15.4v18.7q5-9.9 14-15.2 9.1-5.4 21.1-5.4 18.7 0 29.9 12.4 11.2 12.1 11.2 36.2v3.8q0 12.7-2.9 22.2-3 9.4-8.5 15.7-5.4 6.2-13.1 9.4-7.4 3.2-16.6 3.2-12.7 0-21.3-5.6-8.4-5.6-12.7-14.1v55.2h-16.5zm46.8 86.4q6 0 11.2-2.2 5.2-2.5 9-7 3.9-4.5 5.9-11.2 2.3-6.7 2.3-15.5v-3.7q0-8.1-2.3-14.4-2-6.4-5.9-10.7-3.8-4.5-9-6.7-5.2-2.3-11.2-2.3-6.8 0-12.4 2.3-5.6 2-9.5 5.9-3.9 3.8-6.2 9-2.2 5.3-2.2 11.2v15q0 6.7 2.2 12.3 2.3 5.7 6.2 9.6 3.9 3.9 9.5 6.2 5.6 2.2 12.4 2.2zm109.4 14.6q-9.5 0-18.1-3-8.6-3.2-15.2-9.4-6.5-6.3-10.5-15.9-3.9-9.5-3.9-22.2v-3.7q0-12 3.9-21.2 4-9.1 10.5-15.1 6.6-6.2 15.2-9.2 8.6-3.2 18.1-3.2 9.5 0 18.1 3.2 8.6 3 15.2 9.2 6.5 6 10.5 15.1 3.9 9.2 3.9 21.2v3.7q0 12.7-3.9 22.2-4 9.6-10.5 15.9-6.6 6.2-15.2 9.4-8.6 3-18.1 3zm0-15q5.6 0 11.2-1.8 5.6-2.1 9.9-6.2 4.3-4.3 7-11.1 2.8-6.7 2.8-16.4v-3.7q0-9-2.8-15.4-2.7-6.3-7-10.5-4.3-4.1-9.9-5.9-5.6-1.9-11.2-1.9-5.6 0-11.2 1.9-5.6 1.8-9.9 5.9-4.3 4.2-7.1 10.5-2.6 6.4-2.6 15.4v3.7q0 9.7 2.6 16.4 2.8 6.8 7.1 11.1 4.3 4.1 9.9 6.2 5.6 1.8 11.2 1.8zm71-86h67.3v14.6h-50.9v84.5h-16.4zm86 0h15.3v18.7q5.1-9.9 14.1-15.1 9.1-5.5 21.1-5.5 18.7 0 29.9 12.4 11.2 12.1 11.2 36.3v3.7q0 12.7-3 22.3-2.9 9.3-8.4 15.7-5.4 6.1-13.1 9.3-7.4 3.2-16.6 3.2-12.7 0-21.3-5.6-8.4-5.6-12.7-14v55.1h-16.5zm46.8 86.4q5.9 0 11.2-2.2 5.2-2.5 8.9-6.9 4-4.5 6-11.3 2.3-6.7 2.3-15.5v-3.7q0-8.1-2.3-14.4-2-6.4-6-10.7-3.7-4.5-8.9-6.7-5.3-2.3-11.2-2.3-6.8 0-12.4 2.3-5.6 2-9.5 6-4 3.7-6.2 8.9-2.2 5.3-2.2 11.3v14.9q0 6.8 2.2 12.4 2.2 5.6 6.2 9.5 3.9 3.9 9.5 6.2 5.6 2.2 12.4 2.2zm96.5 14.6q-8.2 0-14.6-2.2-6.2-2.5-10.5-6.6-4.3-4.1-6.5-9.7-2.3-5.6-2.3-12.4 0-14.7 8.6-21.3 8.8-6.5 25.1-6.5h32.2v-6.7q0-12.8-5.8-17.6-5.6-4.9-17-4.9-10.7 0-15.6 4.1-4.8 4-5.4 9h-16.4q0.3-6 3.1-11 3-5.3 7.9-9 5-3.7 12-5.8 6.9-2.2 15.3-2.2 17.6 0 27.9 8.4 10.4 8.2 10.4 27.1c0 5.2 0 50 0 54q0.2 5.8 1 11.4h-14.4q-0.6-4.3-0.8-8-0.2-3.9-0.2-8.8-3.9 7.9-12.7 13.3-8.8 5.4-21.3 5.4zm3.5-15q5.8 0 10.9-1.5 5.2-1.6 9.2-4.6 3.9-3.2 6.1-7.7 2.3-4.5 2.3-10.5v-6.7h-29.4q-9.2 0-14.4 3.7-5.2 3.6-5.2 11.4 0 7 4.8 11.5 5.1 4.4 15.7 4.4zm74-86h17.6l35.3 61.7 35.4-61.7h16.4v99.1h-16.4v-72l-29.4 50.5h-13.1l-29.4-50.5v72h-16.4zm134.6 0h17.6l35.3 61.7 35.3-61.7h16.5v99.1h-16.5v-72l-29.3 50.5h-13.1l-29.4-50.5v72h-16.4zm134.6 0h16.4v37.4h20q18.7 0 27.5 8.3 9 8.2 9 22.8 0 14.2-9 22.4-8.8 8.3-27.5 8.3h-36.4zm35.5 84.5q11.6 0 16.3-4.1 4.6-4.2 4.6-12.2 0-8-4.6-12.1-4.7-4.2-16.3-4.2h-19.1v32.6zm52.8-84.5h16.4v99.1h-16.4zm85.6 54.9v-14.5l41.1-34.8v18.3l-28.1 23.4 28.1 23.3v19.1zm43 0v-14.6l41.1-34.7v18.3l-28 23.4 28 23.3v19.1zm173 44.1h-101.9v-130.9h17.5v115.6h65.9v-115.6h17.5v115.6h17.8v39.6h-16.8zm37.3-99.1h16.5v74.8l51.2-74.8h16.5v99.1h-16.5v-74.8l-51.2 74.8h-16.5zm160.2 101q-25.8 0-39.3-13.1-13.3-13.1-13.3-37.2v-3.7q0-23 13.3-35.9 13.5-12.9 39.3-12.9v-29.9h16.4v29.9q25.8 0 39.1 12.9 13.5 12.9 13.5 35.9v3.7q0 24.1-13.5 37.2-13.3 13.1-39.1 13.1v35.6h-16.4zm52.1-54.1q0-17-8.8-25.4-8.6-8.4-27.1-8.4v72.9q18.5 0 27.1-8.6 8.8-8.6 8.8-26.7zm-87.9 3.7q0 18.1 8.6 26.7 8.8 8.6 27.3 8.6v-72.9q-18.5 0-27.3 8.4-8.6 8.4-8.6 25.5zm128.2-50.7h15.3v18.7q5.1-9.9 14-15.2 9.2-5.4 21.2-5.4 18.7 0 29.9 12.3 11.2 12.2 11.2 36.3v3.8q0 12.7-3 22.2-3 9.4-8.4 15.7-5.4 6.2-13.1 9.4-7.5 3.2-16.6 3.2-12.7 0-21.4-5.7-8.4-5.6-12.7-14v55.2h-16.4zm46.7 86.4q6 0 11.2-2.3 5.3-2.4 9-6.9 4-4.5 6-11.2 2.3-6.7 2.3-15.5v-3.8q0-8-2.3-14.4-2-6.3-6-10.6-3.7-4.5-9-6.8-5.2-2.2-11.2-2.2-6.7 0-12.3 2.2-5.6 2.1-9.6 6-3.9 3.8-6.1 9-2.3 5.2-2.3 11.2v15q0 6.7 2.3 12.3 2.2 5.6 6.1 9.6 4 3.9 9.6 6.1 5.6 2.3 12.3 2.3zm109.5 14.6q-9.6 0-18.2-3-8.6-3.2-15.1-9.4-6.6-6.3-10.5-15.9-3.9-9.5-3.9-22.2v-3.8q0-11.9 3.9-21.1 3.9-9.2 10.5-15.1 6.5-6.2 15.1-9.2 8.6-3.2 18.2-3.2 9.5 0 18.1 3.2 8.6 3 15.2 9.2 6.5 5.9 10.4 15.1 4 9.2 4 21.1v3.8q0 12.7-4 22.2-3.9 9.6-10.4 15.9-6.6 6.2-15.2 9.4-8.6 3-18.1 3zm0-15q5.6 0 11.2-1.9 5.6-2 9.9-6.1 4.3-4.3 6.9-11.1 2.8-6.7 2.8-16.4v-3.8q0-8.9-2.8-15.3-2.6-6.4-6.9-10.5-4.3-4.1-9.9-6-5.6-1.8-11.2-1.8-5.6 0-11.3 1.8-5.6 1.9-9.9 6-4.3 4.1-7.1 10.5-2.6 6.4-2.6 15.3v3.8q0 9.7 2.6 16.4 2.8 6.8 7.1 11.1 4.3 4.1 9.9 6.1 5.7 1.9 11.3 1.9zm71-86h43q18.3 0 26.9 7.7 8.6 7.4 8.6 19.4 0 3.2-1.1 6.5-1.1 3.2-3.2 6-1.9 2.8-4.7 4.9-2.6 2-6 3.2 9.2 2.2 13.9 8.6 4.8 6.1 4.8 14.6 0 12.9-8.6 20.5-8.6 7.7-26.9 7.7h-46.7zm46.7 84.5q10.5 0 14.8-3.7 4.3-3.8 4.3-10.7 0-7.1-4.3-10.8-4.3-4-14.8-4h-30.3v29.2zm-3.7-42.6q10.6 0 14.7-3.8 4.3-3.7 4.3-10.2 0-6.2-4.3-9.8-4.1-3.5-14.7-3.5h-26.6v27.3zm103.9 59.1q-9.6 0-18.2-3-8.6-3.2-15.1-9.4-6.6-6.3-10.5-15.9-3.9-9.5-3.9-22.2v-3.8q0-11.9 3.9-21.1 3.9-9.1 10.5-15.1 6.5-6.2 15.1-9.2 8.6-3.2 18.2-3.2 9.5 0 18.1 3.2 8.6 3 15.2 9.2 6.5 6 10.4 15.1 4 9.2 4 21.1v3.8q0 12.7-4 22.2-3.9 9.6-10.4 15.9-6.6 6.2-15.2 9.4-8.6 3-18.1 3zm0-15q5.6 0 11.2-1.9 5.6-2 9.9-6.1 4.3-4.3 6.9-11.1 2.8-6.7 2.8-16.4v-3.8q0-8.9-2.8-15.3-2.6-6.3-6.9-10.5-4.3-4.1-9.9-5.9-5.6-1.9-11.2-1.9-5.6 0-11.3 1.9-5.6 1.8-9.9 5.9-4.3 4.2-7.1 10.5-2.6 6.4-2.6 15.3v3.8q0 9.7 2.6 16.4 2.8 6.8 7.1 11.1 4.3 4.1 9.9 6.1 5.7 1.9 11.3 1.9zm71-86h16.4v74.8l51.2-74.8h16.5v99.1h-16.5v-74.8l-51.2 74.8h-16.4zm42-12.1q-14.6 0-21.3-6.2-6.7-6.4-6.7-18.2h16.1q0 12.8 11.9 12.8 12.4 0 12.4-12.8h15.7q0 11.8-6.8 18.2-6.7 6.2-21.3 6.2zm-2305.6 236.1h15.4v18.7q5-9.9 14-15.1 9.1-5.5 21.1-5.5 18.7 0 29.9 12.4 11.2 12.1 11.2 36.3v3.7q0 12.7-2.9 22.2-3 9.4-8.5 15.8-5.4 6.1-13.1 9.3-7.4 3.2-16.6 3.2-12.7 0-21.3-5.6-8.4-5.6-12.7-14v55.1h-16.5zm46.8 86.4q5.9 0 11.2-2.2 5.2-2.5 9-7 3.9-4.4 5.9-11.2 2.3-6.7 2.3-15.5v-3.7q0-8.1-2.3-14.4-2-6.4-5.9-10.7-3.8-4.5-9-6.7-5.3-2.3-11.2-2.3-6.8 0-12.4 2.3-5.6 2-9.5 6-3.9 3.7-6.2 8.9-2.2 5.3-2.2 11.3v14.9q0 6.7 2.2 12.4 2.3 5.6 6.2 9.5 3.9 3.9 9.5 6.2 5.6 2.2 12.4 2.2zm109.4 14.6q-9.5 0-18.1-3-8.6-3-15.2-9.2-6.5-6.3-10.5-15.9-3.9-9.5-3.9-22.4v-3.7q0-12.4 3.8-21.4 3.7-9.1 9.9-15.1 6.3-6.2 14.6-9.2 8.4-3 17.5-3 21.9 0 33.9 12 11.9 12 12 33.9v10.4h-75.2q0 8.8 2.8 14.8 2.8 6 7.3 9.7 4.5 3.8 9.9 5.5 5.6 1.6 11.2 1.6 11.2 0 17.2-3.7 6.2-3.7 8.8-10.3h16.1q-1.5 7.1-5.4 12.5-3.8 5.5-9.4 9.2-5.4 3.6-12.5 5.4-6.9 1.9-14.8 1.9zm-0.9-87.9q-5.8 0-11.2 1.7-5.5 1.5-9.8 5-4.1 3.4-6.7 8.6-2.6 5.3-2.6 12.6h59.6q-0.2-7.7-2.6-12.9-2.2-5.5-6.2-8.6-3.9-3.4-9.3-4.9-5.2-1.5-11.2-1.5zm68.2-13.1h67.4v14.6h-50.9v84.5h-16.5zm86.1 0h16.4v74.8l51.2-74.8h16.5v99.1h-16.5v-74.8l-51.2 74.8h-16.4zm155.2 101q-9.5 0-18.1-3-8.6-3.2-15.2-9.3-6.5-6.4-10.4-15.9-4-9.6-4-22.3v-3.7q0-12 4-21.1 3.9-9.2 10.4-15.2 6.6-6.2 15.2-9.2 8.6-3.1 18.1-3.1 9.6 0 18.2 3.1 8.6 3 15.1 9.2 6.6 6 10.5 15.2 3.9 9.1 3.9 21.1v3.7q0 12.7-3.9 22.3-3.9 9.5-10.5 15.9-6.5 6.1-15.1 9.3-8.6 3-18.2 3zm0-14.9q5.6 0 11.2-1.9 5.7-2.1 10-6.2 4.3-4.3 6.9-11 2.8-6.7 2.8-16.5v-3.7q0-9-2.8-15.3-2.6-6.4-6.9-10.5-4.3-4.1-10-6-5.6-1.9-11.2-1.9-5.6 0-11.2 1.9-5.6 1.9-9.9 6-4.3 4.1-7.1 10.5-2.6 6.3-2.6 15.3v3.7q0 9.8 2.6 16.5 2.8 6.7 7.1 11 4.3 4.1 9.9 6.2 5.6 1.9 11.2 1.9zm71-86.1h16.5v41.4h51.2v-41.4h16.5v99.1h-16.5v-43.2h-51.2v43.2h-16.5zm151.5 40.4v14.6l-41.1 34.8v-18.3l28.1-23.4-28.1-23.4v-19zm43 0v14.5l-41.1 34.8v-18.3l28-23.4-28-23.4v-19zm25.2 58.7v-20.6h20.6v20.6l-18.7 28h-9.4zm100-99.1h17.6l35.3 61.7 35.4-61.7h16.4v99.1h-16.4v-72l-29.4 50.5h-13.1l-29.3-50.5v72h-16.5zm129.9 101q-2.8 0-5.6-0.5v-16.5q1 0.2 2.8 0.2 4.1 0 7.1-2.6 3.2-2.6 5.1-9.2 1.9-6.5 2.8-17.8 0.9-11.2 0.9-28.4v-26.2h71.1v99.2h-16.5v-84.6h-38.1v15.4q0 20.7-1.9 34.4-1.9 13.6-5.6 21.8-3.6 8.1-9.2 11.5-5.6 3.3-12.9 3.3zm114.1-101h16.5v41.4h51.2v-41.4h16.5v99.2h-16.5v-43.2h-51.2v43.2h-16.5zm160.9 0h15.3v18.7q5.1-10 14-15.2 9.2-5.4 21.2-5.4 18.7 0 29.9 12.3 11.2 12.2 11.2 36.3v3.7q0 12.8-3 22.3-3 9.3-8.4 15.7-5.4 6.2-13.1 9.4-7.5 3.1-16.6 3.1-12.7 0-21.3-5.6-8.5-5.6-12.8-14v55.2h-16.4zm46.7 86.4q6 0 11.3-2.3 5.2-2.4 8.9-6.9 4-4.5 6-11.2 2.3-6.8 2.3-15.5v-3.8q0-8-2.3-14.4-2-6.3-6-10.6-3.7-4.5-8.9-6.8-5.3-2.2-11.3-2.2-6.7 0-12.3 2.2-5.6 2.1-9.5 6-4 3.7-6.2 9-2.3 5.2-2.3 11.2v15q0 6.7 2.3 12.3 2.2 5.6 6.2 9.5 3.9 4 9.5 6.2 5.6 2.3 12.3 2.3zm77.8 51.9q-2.8 0-5.6-0.5v-15q2.8 0.6 5.6 0.6 2.8 0 4.8-1 2.1-0.9 4-3.5 1.8-2.6 3.9-7.5 2.2-4.7 5-12.3l-42-99.1h18.3l32.2 80.4 29.1-80.4h17.6l-37.4 99.1q-3.9 10.4-7.5 17.9-3.5 7.5-7.6 12.2-4 4.8-8.8 6.9-4.9 2.2-11.6 2.2zm132.7-37.4q-10 0-18.5-3.7-8.5-3.7-14.8-10.8-6.2-7.3-9.9-17.8-3.6-10.5-3.6-23.8v-3.7q0-16.8 2.4-29.9 2.5-13.3 8.3-22.5 6-9.3 15.5-14.5 9.7-5.3 24.3-6 11.8-0.6 20.6-1 8.8-0.5 14.9-3.7v15.9q-3 1.7-11 2.6-7.9 0.9-21.7 1.3-9 0.2-15.9 2.3-6.7 2-11.6 6.5-4.7 4.5-7.5 11.8-2.6 7.1-3.3 17.6 4.5-9.9 13.8-15.7 9.4-5.8 21.7-5.8 9.5 0 17.4 3.3 7.8 3.2 13.5 9.2 5.8 6 8.9 14.8 3.2 8.6 3.2 19.4v3.8q0 11.5-3.5 20.9-3.6 9.2-9.8 15.9-6.1 6.5-14.7 10.1-8.6 3.5-18.7 3.5zm0-14.9q13.1 0 21.5-9 8.4-9.2 8.4-26.5v-3.8q0-7.3-2.3-13.1-2.2-5.8-6.1-9.9-4-4.3-9.6-6.5-5.4-2.3-11.9-2.3-6.6 0-12.2 2.3-5.4 2.2-9.3 6.5-4 4.1-6.2 9.9-2.3 5.8-2.3 13.1v3.8q0 8.2 2.3 14.9 2.4 6.6 6.5 11.2 4.1 4.5 9.6 7 5.4 2.4 11.6 2.4zm63.5 14.9q-2.8 0-5.6-0.5v-16.5q1 0.2 2.8 0.2 4.1 0 7.1-2.6 3.2-2.6 5.1-9.2 1.9-6.5 2.8-17.7 0.9-11.3 0.9-28.5v-26.1h71.1v99.1h-16.5v-84.6h-38.1v15.4q0 20.7-1.9 34.4-1.9 13.6-5.6 21.9-3.6 8-9.2 11.4-5.6 3.3-12.9 3.3zm155.2 0q-9.5 0-18.1-2.9-8.6-3-15.1-9.2-6.6-6.4-10.5-15.9-3.9-9.5-3.9-22.4v-3.8q0-12.3 3.7-21.3 3.7-9.2 9.9-15.2 6.4-6.1 14.6-9.1 8.4-3 17.6-3 21.8 0 33.8 12 12 11.9 12 33.8v10.5h-75.2q0 8.8 2.8 14.8 2.8 5.9 7.3 9.7 4.5 3.7 9.9 5.4 5.6 1.7 11.2 1.7 11.3 0 17.2-3.8 6.2-3.7 8.8-10.2h16.1q-1.5 7.1-5.4 12.5-3.8 5.4-9.4 9.1-5.4 3.6-12.5 5.5-6.9 1.8-14.8 1.8zm-0.9-87.8q-5.8 0-11.2 1.6-5.4 1.5-9.7 5.1-4.2 3.3-6.8 8.6-2.6 5.2-2.6 12.5h59.7q-0.2-7.7-2.7-12.9-2.2-5.4-6.1-8.6-4-3.4-9.4-4.9-5.2-1.4-11.2-1.4zm68.3-13.1h16.4v74.8l51.3-74.8h16.4v99.1h-16.4v-74.8l-51.3 74.8h-16.4zm42-12.2q-14.5 0-21.3-6.2-6.7-6.3-6.7-18.1h16.1q0 12.7 11.9 12.7 12.4 0 12.4-12.7h15.7q0 11.8-6.7 18.1-6.8 6.2-21.4 6.2z"/>
	<path id="Layer" fill-rule="evenodd" class="s2" d="m867.5 2927.4l48.9-42.2q5.9-5.3 10.1-9.4 4.3-4.1 6.9-7.7 2.8-3.7 3.9-7.3 1.3-3.5 1.3-7.4 0-9.6-5.8-15.6-5.6-5.9-15.7-5.9-12 0-18.7 6.5-6.5 6.4-6.5 19.6h-22.5q0-10.2 3.4-18.7 3.3-8.6 9.5-14.5 6.2-6.2 15-9.4 8.8-3.4 19.8-3.4 10.7 0 18.9 3.2 8.2 3 13.6 8.6 5.6 5.4 8.5 13.1 2.9 7.5 2.9 16.5 0 6.7-2.2 12.7-2.1 6-6 11.4-3.7 5.4-9.1 10.7-5.3 5.2-11.6 10.2l-33.3 27.2h64.1v19.4h-95.4zm163.6 19.6q-11.6 0-20.7-3.5-9.2-3.6-15.7-11.1-6.4-7.4-9.7-18.8-3.4-11.6-3.4-27.5v-3.8q0-19 3.9-32.3 3.9-13.5 10.9-21.9 6.9-8.4 16.2-12.2 9.4-3.9 20.4-3.9 16.7 0 27.5 7.5 10.8 7.3 13.7 23.6h-22.5q-2-6-6.7-8.6-4.7-2.7-12-2.7-6.3 0-11.8 2.1-5.4 1.9-9.5 6.7-4.1 4.9-6.6 13.3-2.4 8.2-2.6 20.9 2.5-4.1 6-6.9 3.8-3 8-4.6 4.5-1.9 9.2-2.7 4.7-0.9 9.2-0.9 19.8 0 30.8 10.8 11.3 10.9 11.3 30.9v1.9q0 9.7-3.6 17.7-3.4 8.1-9.5 13.9-6.2 5.8-14.6 9-8.4 3.1-18.2 3.1zm-1.5-19.8q11.3 0 18-6.5 6.9-6.8 6.9-17.4v-1.9q0-10.5-6.9-17-6.7-6.7-18-6.7-11.2 0-18.1 6.7-6.7 6.5-6.7 17v1.9q0 10.6 6.7 17.4 6.9 6.5 18.1 6.5zm125-11.8h-64.5v-16.6l63.6-84.7h23.3v81.9h15.9v19.4h-15.9v29.6h-22.4zm0-19.5v-56.1l-42.1 56.1zm63.7 49v-23.5h24.3v23.5l-20.6 29h-11.2zm100.9 2.1q-11.6 0-20.8-3.6-9.1-3.5-15.7-11-6.3-7.5-9.7-18.9-3.4-11.6-3.4-27.5v-3.7q0-19.1 4-32.4 3.9-13.4 10.8-21.9 6.9-8.4 16.3-12.1 9.3-3.9 20.4-3.9 16.6 0 27.4 7.4 10.9 7.3 13.7 23.6h-22.4q-2.1-6-6.8-8.6-4.7-2.6-11.9-2.6-6.4 0-11.8 2-5.5 1.9-9.6 6.8-4.1 4.8-6.5 13.2-2.5 8.3-2.6 21 2.4-4.1 6-6.9 3.7-3 8-4.7 4.5-1.9 9.2-2.6 4.6-1 9.1-1 19.8 0 30.9 10.9 11.2 10.8 11.2 30.8v1.9q0 9.7-3.6 17.8-3.3 8-9.5 13.8-6.2 5.8-14.6 9-8.4 3.2-18.1 3.2zm-1.5-19.9q11.2 0.1 17.9-6.5 7-6.7 7-17.4v-1.9q0-10.4-7-17-6.7-6.7-17.9-6.7-11.2 0-18.2 6.7-6.7 6.6-6.7 17v1.9q0 10.7 6.7 17.4 7 6.6 18.2 6.5z"/>
	<path id="Layer" fill-rule="evenodd" class="s2" d="m3558.2 2014.1q-11.4 0-20.2-2.8-8.6-3-14.6-8.3-5.8-5.2-8.9-12.3-3-7.3-3-16.1h22.4q0 9.4 5.8 14.6 6 5 18.5 5 12.2 0 18.2-5 6.1-5.2 6.1-14.6 0-9.5-5.6-15-5.6-5.6-18.7-5.6h-13.1v-18.7h13.1q11.3 0 16.9-4.6 5.6-4.9 5.6-13.9 0-9-5.4-13.4-5.3-4.5-17.1-4.5-11.6 0-17.2 4.6-5.4 4.7-5.4 13.1h-22.4q0-17 11.4-27.3 11.6-10.3 33.6-10.3 11.1 0 19.5 2.9 8.4 2.8 14 7.6 5.6 4.7 8.4 11.1 3 6.3 3 13.6 0 11.2-6 18.9-6 7.5-16.4 10.6 11.4 3.4 17.7 11.5 6.6 7.8 6.6 21.3 0 7.8-3 14.7-3 7-9 12-5.8 5.1-14.6 8.1-8.8 2.8-20.2 2.8zm115 0q-11.8 0-21-2.7-8.9-2.8-15.1-7.6-6.2-5.1-9.4-11.8-3.1-6.9-3.1-15.2 0-11.2 6.9-19.8 7.1-8.8 20.6-12.5-5.1-1.7-9.4-4.5-4.3-2.8-7.5-6.7-3.2-4-5-8.6-1.9-4.9-1.9-10.5 0-7.5 3-13.8 3-6.6 8.6-11.3 5.8-4.8 14-7.4 8.4-2.7 19.3-2.7 10.8 0 19.2 2.7 8.5 2.6 14.1 7.4 5.8 4.7 8.6 11.3 3 6.3 3 13.8 0 11.2-6.8 18.9-6.7 7.7-16.8 11.4 13.7 4.3 20.4 12.2 6.9 7.8 6.9 20.1 0 8.3-3.2 15.2-3.1 6.7-9.3 11.8-6.2 4.8-15.4 7.6-8.9 2.7-20.7 2.7zm0-19.9q13.3 0 19.6-5.2 6.6-5.4 6.6-13.8 0-9.6-7.5-15.2-7.5-5.8-18.7-7.3-11.2 1.5-18.7 7.3-7.5 5.6-7.5 15.2 0 8.4 6.6 13.8 6.7 5.2 19.6 5.2zm0-57.6q9.9-1.5 16.1-6.3 6.3-4.9 6.3-14.4 0-8.4-6.2-12.7-5.9-4.3-16.2-4.3-10.3 0-16.5 4.3-6 4.1-6 12.7 0 9.5 6.4 14.4 6.4 4.8 16.1 6.3zm117.8 77.5q-11.6 0-20.7-3.6-9.2-3.5-15.7-11-6.4-7.5-9.8-18.9-3.3-11.6-3.3-27.5v-3.7q0-19.1 3.9-32.4 3.9-13.5 10.8-21.9 7-8.4 16.3-12.1 9.4-4 20.4-4 16.6 0 27.5 7.5 10.8 7.3 13.6 23.6h-22.4q-2.1-6-6.7-8.6-4.7-2.6-12-2.6-6.4 0-11.8 2-5.4 1.9-9.5 6.8-4.1 4.8-6.6 13.2-2.4 8.3-2.6 21 2.4-4.1 6-6.9 3.7-3 8-4.7 4.5-1.9 9.2-2.6 4.7-1 9.2-1 19.8 0 30.8 10.9 11.2 10.8 11.2 30.8v1.9q0 9.7-3.5 17.8-3.4 8-9.6 13.8-6.1 5.8-14.5 9-8.5 3.2-18.2 3.2zm-1.5-19.9q11.2 0 18-6.5 6.9-6.7 6.9-17.4v-1.9q0-10.4-6.9-17-6.8-6.7-18-6.7-11.2 0-18.1 6.7-6.8 6.6-6.7 17v1.9q-0.1 10.7 6.7 17.4 6.9 6.5 18.1 6.5zm73.6 17.8v-23.6h24.3v23.6l-20.6 29h-11.2zm95.3 2.1q-17.2 0-28.3-7.3-11-7.5-13.8-23.8h22.4q2.1 6 7 8.6 4.8 2.6 12.7 2.6 5.9 0 11.2-1.9 5.2-2 9.2-6.9 4.1-4.8 6.5-13.1 2.4-8.4 2.6-21.1-2.4 4.1-6.2 7.1-3.5 2.8-8 4.7-4.3 1.7-9 2.6-4.6 0.8-9.1 0.8-19.9 0-31.1-10.9-11-11-11-30.8v-1.9q0-9.7 3.4-17.8 3.5-8 9.7-13.8 6.1-5.8 14.6-9 8.4-3.2 18.1-3.2 11.8 0 20.9 3.6 9.2 3.5 15.6 11 6.3 7.3 9.7 18.9 3.4 11.6 3.4 27.5v3.7q0 19.1-4 32.6-3.9 13.2-10.8 21.7-6.8 8.4-15.9 12.3-9.2 3.7-19.8 3.8zm2.4-65.7q11.2 0 18-6.5 6.9-6.8 6.9-17.2v-1.9q0-5.1-1.9-9.4-1.9-4.4-5.2-7.6-3.2-3.4-7.9-5.1-4.5-1.8-9.9-1.8-11.2 0-18.1 6.7-6.8 6.5-6.8 17.2v1.9q0 10.4 6.8 17.2 6.9 6.5 18.1 6.5z"/>
	<path id="Layer" fill-rule="evenodd" class="s2" d="m6189.2 2448.1q-11.4 0-20.2-2.8-8.6-3-14.6-8.3-5.8-5.2-8.9-12.3-3-7.3-3-16.1h22.4q0 9.3 5.8 14.6 6 5 18.5 5 12.2 0 18.2-5 6.1-5.3 6.1-14.6 0-9.5-5.6-15-5.6-5.6-18.7-5.6h-13.1v-18.7h13.1q11.3 0 16.9-4.6 5.6-4.9 5.6-13.9 0-9-5.4-13.4-5.3-4.5-17.1-4.5-11.6 0-17.2 4.6-5.4 4.7-5.4 13.1h-22.4q0-17 11.4-27.3 11.6-10.3 33.6-10.3 11.1 0 19.5 2.9 8.4 2.8 14 7.6 5.6 4.7 8.4 11.1 3 6.3 3 13.6 0 11.2-6 18.9-6 7.5-16.4 10.6 11.4 3.4 17.7 11.5 6.6 7.8 6.6 21.3 0 7.8-3 14.7-3 7-9 12-5.8 5.1-14.6 8.1-8.8 2.8-20.2 2.8zm112.2 0q-11.6 0-20-3-8.3-3-13.7-8.1-5.4-5-8.2-11.4-2.6-6.5-3-13.3h22.4q1 6.8 6.6 11.5 5.8 4.4 15.9 4.4 11.4 0 17.7-6.7 6.6-6.7 6.6-19.6 0-7.3-2.3-12.2-2-5-5.4-8-3.3-3.2-7.8-4.5-4.3-1.5-8.8-1.5-8.1 0-13.5 2.8-5.2 2.8-8.4 7.7h-20.2v-71.1h81.3v19.5h-59.2v30.4q4.3-4.1 10.1-6.5 5.8-2.6 14.6-2.6 9.5 0 17.2 3 7.8 2.9 13.2 8.8 5.6 5.7 8.6 14.4 3 8.4 3 19.6 0 10.6-3.3 19.2-3.4 8.6-9.6 14.6-6.1 6-14.7 9.4-8.6 3.2-19.1 3.2zm64.5-21.5h30.8v-87.8l-30.8 21.9v-23.2l31.6-22.4h21.7v111.5h25.2v19.4h-78.5zm100 19.4v-23.5h24.3v23.5l-20.5 29h-11.2zm99 2.1q-11.8 0-21-2.6-8.9-2.8-15.1-7.7-6.2-5-9.4-11.8-3.1-6.9-3.1-15.1 0-11.2 6.9-19.8 7.1-8.8 20.5-12.6-5-1.7-9.3-4.5-4.3-2.8-7.5-6.7-3.2-3.9-5-8.6-1.9-4.9-1.9-10.5 0-7.4 3-13.8 3-6.5 8.6-11.2 5.8-4.9 14-7.5 8.4-2.6 19.3-2.6 10.8 0 19.2 2.6 8.5 2.6 14.1 7.5 5.8 4.7 8.6 11.2 3 6.4 3 13.8 0 11.3-6.8 18.9-6.7 7.7-16.8 11.4 13.6 4.3 20.4 12.2 6.9 7.8 6.9 20.2 0 8.2-3.2 15.1-3.2 6.8-9.3 11.8-6.2 4.9-15.4 7.7-8.9 2.6-20.7 2.6zm0-19.8q13.3 0 19.6-5.3 6.6-5.4 6.6-13.8 0-9.5-7.5-15.2-7.5-5.7-18.7-7.2-11.2 1.5-18.7 7.2-7.5 5.7-7.5 15.2 0 8.4 6.5 13.8 6.8 5.3 19.7 5.3zm0-57.6q9.9-1.5 16.1-6.4 6.3-4.8 6.3-14.4 0-8.4-6.2-12.7-5.9-4.3-16.2-4.3-10.3 0-16.5 4.3-6 4.1-6 12.7 0 9.6 6.4 14.4 6.4 4.9 16.1 6.4z"/>
</svg>