<svg width="7296" height="4538" viewBox="0 0 7296 4538" fill="none" xmlns="http://www.w3.org/2000/svg">
<g clip-path="url(#clip0_310_2)">
<path d="M0 4226L7296 4226" stroke="#333333" stroke-width="3"/>
<path d="M0 3057.8H7296" stroke="#CCCCCC" stroke-width="3"/>
<path d="M0 1908H7296" stroke="#CCCCCC" stroke-width="3"/>
<path d="M1568 4225H318V1527.7C318 1514.1 342.345 1503 372.356 1503H1513.64C1543.66 1503 1568 1514.1 1568 1527.8V4225Z" fill="#1155CC"/>
<path d="M4273 4225H3023V428.5C3023 408.3 3047.37 392 3077.36 392H4218.64C4248.63 392 4273 408.3 4273 428.5V4225Z" fill="#1155CC"/>
<path d="M6978 4225H5728V939.2C5728 921.9 5752.36 908 5782.31 908H6923.69C6953.64 908 6978 921.9 6978 939.2V4225Z" fill="#1155CC"/>
<path fill-rule="evenodd" clip-rule="evenodd" d="M802.8 4516.9V4535.4H699C699 4530.87 699.767 4526.4 701.3 4522C703.967 4515 708.133 4508.07 713.8 4501.2C719.733 4494.33 728.2 4486.43 739.2 4477.5C756.333 4463.43 767.833 4452.33 773.7 4444.2C779.767 4436 782.8 4428.3 782.8 4421.1C782.8 4413.5 780.067 4407.13 774.6 4402C769.067 4396.67 761.933 4394 753.2 4394C743.867 4394 736.433 4396.73 730.9 4402.2C725.433 4407.73 722.6 4415.43 722.4 4425.3L702.7 4423.3C704.033 4408.5 709.067 4397.3 717.8 4389.7C726.733 4381.9 738.733 4378 753.8 4378C768.8 4378 780.667 4382.2 789.4 4390.6C798.133 4398.93 802.5 4409.27 802.5 4421.6C802.5 4427.87 801.167 4434.07 798.5 4440.2C796.033 4446.07 791.767 4452.43 785.7 4459.3C779.767 4465.97 769.967 4475.07 756.3 4486.6C744.7 4496.33 737.2 4503 733.8 4506.6C730.533 4510 727.867 4513.43 725.8 4516.9H802.8ZM829.3 4458.1C829.3 4439.5 831.2 4424.6 835 4413.4C838.8 4401.93 844.433 4393.17 851.9 4387.1C859.5 4381.03 869 4378 880.4 4378C888.733 4378 896.033 4379.7 902.3 4383.1C908.767 4386.57 914.1 4391.53 918.3 4398C922.5 4404.27 925.733 4411.97 928 4421.1C930.267 4430.17 931.4 4442.5 931.4 4458.1C931.4 4476.57 929.5 4491.4 925.7 4502.6C922.1 4513.8 916.5 4522.57 908.9 4528.9C901.5 4534.97 892 4538 880.4 4538C865.333 4538 853.433 4532.57 844.7 4521.7C834.433 4508.77 829.3 4487.57 829.3 4458.1V4458.1ZM849 4458.1C849 4483.77 852.033 4500.9 858.1 4509.5C864.167 4518.03 871.6 4522.3 880.4 4522.3C889.333 4522.3 896.733 4518.03 902.6 4509.5C908.667 4500.9 911.7 4483.77 911.7 4458.1C911.7 4432.3 908.667 4415.2 902.6 4406.8C896.733 4398.27 889.233 4394 880.1 4394C871.367 4394 864.333 4397.7 859 4405.1C852.333 4414.63 849 4432.3 849 4458.1V4458.1ZM1029.5 4535.4H1010.4V4412.8C1005.67 4417.13 999.5 4421.6 991.9 4426.2C984.433 4430.6 977.767 4433.83 971.9 4435.9V4417.4C982.567 4412.27 991.867 4406.17 999.8 4399.1C1008 4391.9 1013.8 4384.87 1017.2 4378H1029.5V4535.4ZM1087.7 4499.2L1106.2 4497.5C1107.73 4506.23 1110.67 4512.6 1115 4516.6C1119.6 4520.4 1125.33 4522.3 1132.2 4522.3C1138.07 4522.3 1143.2 4520.97 1147.6 4518.3C1152.13 4515.43 1155.83 4511.83 1158.7 4507.5C1161.57 4502.9 1163.93 4496.8 1165.8 4489.2C1167.73 4481.4 1168.7 4473.5 1168.7 4465.5C1168.7 4464.57 1168.7 4463.23 1168.7 4461.5C1164.9 4467.63 1159.67 4472.7 1153 4476.7C1146.33 4480.5 1139.1 4482.4 1131.3 4482.4C1118.17 4482.4 1107.13 4477.73 1098.2 4468.4C1089.27 4458.87 1084.8 4446.4 1084.8 4431C1084.8 4415.07 1089.47 4402.23 1098.8 4392.5C1108.33 4382.83 1120.13 4378 1134.2 4378C1144.27 4378 1153.47 4380.77 1161.8 4386.3C1170.33 4391.77 1176.8 4399.63 1181.2 4409.9C1185.6 4419.97 1187.8 4434.6 1187.8 4453.8C1187.8 4473.8 1185.6 4489.8 1181.2 4501.8C1177 4513.53 1170.53 4522.53 1161.8 4528.8C1153.27 4534.93 1143.3 4538 1131.9 4538C1119.5 4538 1109.4 4534.67 1101.6 4528C1093.87 4521.13 1089.23 4511.53 1087.7 4499.2V4499.2ZM1166.4 4429.9C1166.4 4418.83 1163.43 4410.1 1157.5 4403.7C1151.83 4397.23 1144.8 4394 1136.4 4394C1127.87 4394 1120.37 4397.5 1113.9 4404.5C1107.63 4411.37 1104.5 4420.4 1104.5 4431.6C1104.5 4441.47 1107.53 4449.53 1113.6 4455.8C1119.67 4462.07 1127.1 4465.23 1135.9 4465.3C1144.83 4465.23 1152.13 4462.07 1157.8 4455.8C1163.53 4449.53 1166.4 4440.9 1166.4 4429.9V4429.9Z" fill="black"/>
<path fill-rule="evenodd" clip-rule="evenodd" d="M3507.8 4516.9V4535.4H3404C3404 4530.87 3404.77 4526.4 3406.3 4522C3408.97 4515 3413.13 4508.07 3418.8 4501.2C3424.73 4494.33 3433.2 4486.43 3444.2 4477.5C3461.33 4463.43 3472.83 4452.33 3478.7 4444.2C3484.77 4436 3487.8 4428.3 3487.8 4421.1C3487.8 4413.5 3485.07 4407.13 3479.6 4402C3474.07 4396.67 3466.93 4394 3458.2 4394C3448.87 4394 3441.43 4396.73 3435.9 4402.2C3430.43 4407.73 3427.6 4415.43 3427.4 4425.3L3407.7 4423.3C3409.03 4408.5 3414.07 4397.3 3422.8 4389.7C3431.73 4381.9 3443.7 4378 3458.7 4378C3473.77 4378 3485.67 4382.2 3494.4 4390.6C3503.13 4398.93 3507.5 4409.27 3507.5 4421.6C3507.5 4427.87 3506.17 4434.07 3503.5 4440.2C3501.03 4446.07 3496.77 4452.43 3490.7 4459.3C3484.77 4465.97 3474.97 4475.07 3461.3 4486.6C3449.7 4496.33 3442.2 4503 3438.8 4506.6C3435.53 4510 3432.87 4513.43 3430.8 4516.9H3507.8ZM3534.3 4458.1C3534.3 4439.5 3536.2 4424.6 3540 4413.4C3543.8 4401.93 3549.4 4393.17 3556.8 4387.1C3564.4 4381.03 3573.93 4378 3585.4 4378C3593.73 4378 3601.03 4379.7 3607.3 4383.1C3613.77 4386.57 3619.1 4391.53 3623.3 4398C3627.5 4404.27 3630.73 4411.97 3633 4421.1C3635.27 4430.17 3636.4 4442.5 3636.4 4458.1C3636.4 4476.57 3634.5 4491.4 3630.7 4502.6C3627.1 4513.8 3621.5 4522.57 3613.9 4528.9C3606.5 4534.97 3597 4538 3585.4 4538C3570.33 4538 3558.43 4532.57 3549.7 4521.7C3539.43 4508.77 3534.3 4487.57 3534.3 4458.1ZM3554 4458.1C3554 4483.77 3557.03 4500.9 3563.1 4509.5C3569.17 4518.03 3576.6 4522.3 3585.4 4522.3C3594.33 4522.3 3601.73 4518.03 3607.6 4509.5C3613.67 4500.9 3616.7 4483.77 3616.7 4458.1C3616.7 4432.3 3613.67 4415.2 3607.6 4406.8C3601.73 4398.27 3594.23 4394 3585.1 4394C3576.37 4394 3569.33 4397.7 3564 4405.1C3557.33 4414.63 3554 4432.3 3554 4458.1ZM3763.3 4516.9V4535.4H3659.5C3659.5 4530.87 3660.27 4526.4 3661.8 4522C3664.47 4515 3668.63 4508.07 3674.3 4501.2C3680.23 4494.33 3688.7 4486.43 3699.7 4477.5C3716.83 4463.43 3728.33 4452.33 3734.2 4444.2C3740.27 4436 3743.3 4428.3 3743.3 4421.1C3743.3 4413.5 3740.57 4407.13 3735.1 4402C3729.57 4396.67 3722.43 4394 3713.7 4394C3704.37 4394 3696.93 4396.73 3691.4 4402.2C3685.93 4407.73 3683.1 4415.43 3682.9 4425.3L3663.2 4423.3C3664.53 4408.5 3669.57 4397.3 3678.3 4389.7C3687.23 4381.9 3699.2 4378 3714.2 4378C3729.27 4378 3741.17 4382.2 3749.9 4390.6C3758.63 4398.93 3763 4409.27 3763 4421.6C3763 4427.87 3761.67 4434.07 3759 4440.2C3756.53 4446.07 3752.27 4452.43 3746.2 4459.3C3740.27 4465.97 3730.47 4475.07 3716.8 4486.6C3705.2 4496.33 3697.7 4503 3694.3 4506.6C3691.03 4510 3688.37 4513.43 3686.3 4516.9H3763.3ZM3789.8 4458.1C3789.8 4439.5 3791.7 4424.6 3795.5 4413.4C3799.3 4401.93 3804.9 4393.17 3812.3 4387.1C3819.9 4381.03 3829.43 4378 3840.9 4378C3849.23 4378 3856.53 4379.7 3862.8 4383.1C3869.27 4386.57 3874.6 4391.53 3878.8 4398C3883 4404.27 3886.23 4411.97 3888.5 4421.1C3890.77 4430.17 3891.9 4442.5 3891.9 4458.1C3891.9 4476.57 3890 4491.4 3886.2 4502.6C3882.6 4513.8 3877 4522.57 3869.4 4528.9C3862 4534.97 3852.5 4538 3840.9 4538C3825.83 4538 3813.93 4532.57 3805.2 4521.7C3794.93 4508.77 3789.8 4487.57 3789.8 4458.1ZM3809.5 4458.1C3809.5 4483.77 3812.53 4500.9 3818.6 4509.5C3824.67 4518.03 3832.1 4522.3 3840.9 4522.3C3849.83 4522.3 3857.23 4518.03 3863.1 4509.5C3869.17 4500.9 3872.2 4483.77 3872.2 4458.1C3872.2 4432.3 3869.17 4415.2 3863.1 4406.8C3857.23 4398.27 3849.73 4394 3840.6 4394C3831.87 4394 3824.83 4397.7 3819.5 4405.1C3812.83 4414.63 3809.5 4432.3 3809.5 4458.1Z" fill="black"/>
<path fill-rule="evenodd" clip-rule="evenodd" d="M6227.8 4516.9V4535.4H6124C6124 4530.87 6124.77 4526.4 6126.3 4522C6128.97 4515 6133.13 4508.07 6138.8 4501.2C6144.73 4494.33 6153.2 4486.43 6164.2 4477.5C6181.33 4463.43 6192.83 4452.33 6198.7 4444.2C6204.77 4436 6207.8 4428.3 6207.8 4421.1C6207.8 4413.5 6205.07 4407.13 6199.6 4402C6194.07 4396.67 6186.93 4394 6178.2 4394C6168.87 4394 6161.43 4396.73 6155.9 4402.2C6150.43 4407.73 6147.6 4415.43 6147.4 4425.3L6127.7 4423.3C6129.03 4408.5 6134.07 4397.3 6142.8 4389.7C6151.73 4381.9 6163.7 4378 6178.7 4378C6193.77 4378 6205.67 4382.2 6214.4 4390.6C6223.13 4398.93 6227.5 4409.27 6227.5 4421.6C6227.5 4427.87 6226.17 4434.07 6223.5 4440.2C6221.03 4446.07 6216.77 4452.43 6210.7 4459.3C6204.77 4465.97 6194.97 4475.07 6181.3 4486.6C6169.7 4496.33 6162.2 4503 6158.8 4506.6C6155.53 4510 6152.87 4513.43 6150.8 4516.9H6227.8ZM6254.3 4458.1C6254.3 4439.5 6256.2 4424.6 6260 4413.4C6263.8 4401.93 6269.4 4393.17 6276.8 4387.1C6284.4 4381.03 6293.93 4378 6305.4 4378C6313.73 4378 6321.03 4379.7 6327.3 4383.1C6333.77 4386.57 6339.1 4391.53 6343.3 4398C6347.5 4404.27 6350.73 4411.97 6353 4421.1C6355.27 4430.17 6356.4 4442.5 6356.4 4458.1C6356.4 4476.57 6354.5 4491.4 6350.7 4502.6C6347.1 4513.8 6341.5 4522.57 6333.9 4528.9C6326.5 4534.97 6317 4538 6305.4 4538C6290.33 4538 6278.43 4532.57 6269.7 4521.7C6259.43 4508.77 6254.3 4487.57 6254.3 4458.1ZM6274 4458.1C6274 4483.77 6277.03 4500.9 6283.1 4509.5C6289.17 4518.03 6296.6 4522.3 6305.4 4522.3C6314.33 4522.3 6321.73 4518.03 6327.6 4509.5C6333.67 4500.9 6336.7 4483.77 6336.7 4458.1C6336.7 4432.3 6333.67 4415.2 6327.6 4406.8C6321.73 4398.27 6314.23 4394 6305.1 4394C6296.37 4394 6289.33 4397.7 6284 4405.1C6277.33 4414.63 6274 4432.3 6274 4458.1ZM6483.3 4516.9V4535.4H6379.5C6379.5 4530.87 6380.27 4526.4 6381.8 4522C6384.47 4515 6388.63 4508.07 6394.3 4501.2C6400.23 4494.33 6408.7 4486.43 6419.7 4477.5C6436.83 4463.43 6448.33 4452.33 6454.2 4444.2C6460.27 4436 6463.3 4428.3 6463.3 4421.1C6463.3 4413.5 6460.57 4407.13 6455.1 4402C6449.57 4396.67 6442.43 4394 6433.7 4394C6424.37 4394 6416.93 4396.73 6411.4 4402.2C6405.93 4407.73 6403.1 4415.43 6402.9 4425.3L6383.2 4423.3C6384.53 4408.5 6389.57 4397.3 6398.3 4389.7C6407.23 4381.9 6419.2 4378 6434.2 4378C6449.27 4378 6461.17 4382.2 6469.9 4390.6C6478.63 4398.93 6483 4409.27 6483 4421.6C6483 4427.87 6481.67 4434.07 6479 4440.2C6476.53 4446.07 6472.27 4452.43 6466.2 4459.3C6460.27 4465.97 6450.47 4475.07 6436.8 4486.6C6425.2 4496.33 6417.7 4503 6414.3 4506.6C6411.03 4510 6408.37 4513.43 6406.3 4516.9H6483.3ZM6582.2 4535.4H6563.1V4412.8C6558.37 4417.13 6552.2 4421.6 6544.6 4426.2C6537.2 4430.6 6530.53 4433.83 6524.6 4435.9V4417.4C6535.27 4412.27 6544.6 4406.17 6552.6 4399.1C6560.73 4391.9 6566.53 4384.87 6570 4378H6582.2V4535.4Z" fill="black"/>
<path fill-rule="evenodd" clip-rule="evenodd" d="M694 1226.4L742.9 1184.2C746.833 1180.67 750.2 1177.53 753 1174.8C755.867 1172.07 758.167 1169.5 759.9 1167.1C761.767 1164.63 763.067 1162.2 763.8 1159.8C764.667 1157.47 765.1 1155 765.1 1152.4C765.1 1146 763.167 1140.8 759.3 1136.8C755.567 1132.87 750.333 1130.9 743.6 1130.9C735.6 1130.9 729.367 1133.07 724.9 1137.4C720.567 1141.67 718.4 1148.2 718.4 1157H695.9C695.9 1150.2 697.033 1143.97 699.3 1138.3C701.5 1132.57 704.667 1127.73 708.8 1123.8C712.933 1119.67 717.933 1116.53 723.8 1114.4C729.667 1112.13 736.267 1111 743.6 1111C750.733 1111 757.033 1112.07 762.5 1114.2C767.967 1116.2 772.5 1119.07 776.1 1122.8C779.833 1126.4 782.667 1130.77 784.6 1135.9C786.533 1140.9 787.5 1146.4 787.5 1152.4C787.5 1156.87 786.767 1161.1 785.3 1165.1C783.9 1169.1 781.9 1172.9 779.3 1176.5C776.833 1180.1 773.8 1183.67 770.2 1187.2C766.667 1190.67 762.8 1194.07 758.6 1197.4L725.3 1224.6H789.4V1244H694V1226.4ZM857.6 1246C849.867 1246 842.967 1244.83 836.9 1242.5C830.767 1240.1 825.533 1236.4 821.2 1231.4C816.933 1226.47 813.7 1220.2 811.5 1212.6C809.233 1204.87 808.1 1195.7 808.1 1185.1V1181.3C808.1 1168.63 809.4 1157.87 812 1149C814.6 1140 818.233 1132.7 822.9 1127.1C827.5 1121.5 832.9 1117.43 839.1 1114.9C845.367 1112.3 852.167 1111 859.5 1111C870.633 1111 879.8 1113.5 887 1118.5C894.2 1123.37 898.767 1131.23 900.7 1142.1H878.2C876.867 1138.1 874.633 1135.23 871.5 1133.5C868.367 1131.7 864.367 1130.8 859.5 1130.8C855.3 1130.8 851.367 1131.5 847.7 1132.9C844.1 1134.17 840.933 1136.4 838.2 1139.6C835.467 1142.87 833.267 1147.3 831.6 1152.9C830 1158.37 829.133 1165.33 829 1173.8C830.667 1171.07 832.667 1168.77 835 1166.9C837.533 1164.9 840.2 1163.37 843 1162.3C846 1161.03 849.067 1160.13 852.2 1159.6C855.333 1159 858.4 1158.7 861.4 1158.7C874.6 1158.7 884.867 1162.3 892.2 1169.5C899.733 1176.77 903.5 1187.07 903.5 1200.4V1202.3C903.5 1208.77 902.3 1214.67 899.9 1220C897.633 1225.4 894.467 1230.03 890.4 1233.9C886.267 1237.77 881.4 1240.77 875.8 1242.9C870.2 1244.97 864.133 1246 857.6 1246ZM856.1 1226.2C863.633 1226.2 869.633 1224.03 874.1 1219.7C878.7 1215.17 881 1209.37 881 1202.3V1200.4C881 1193.4 878.7 1187.73 874.1 1183.4C869.633 1178.93 863.633 1176.7 856.1 1176.7C848.633 1176.7 842.6 1178.93 838 1183.4C833.533 1187.73 831.3 1193.4 831.3 1200.4V1202.3C831.3 1209.37 833.533 1215.17 838 1219.7C842.6 1224.03 848.633 1226.2 856.1 1226.2ZM981.1 1214.4H916.6V1197.8L980.2 1113.1H1003.5V1195H1019.4V1214.4H1003.5V1244H981.1V1214.4ZM981.1 1194.9V1138.8L939 1194.9H981.1ZM1044.8 1243.9V1220.4H1069.1V1243.9L1048.5 1272.9H1037.3L1044.8 1243.9ZM1145.7 1246C1137.97 1246 1131.03 1244.8 1124.9 1242.4C1118.83 1240.07 1113.6 1236.4 1109.2 1231.4C1105 1226.4 1101.77 1220.1 1099.5 1212.5C1097.23 1204.77 1096.1 1195.6 1096.1 1185V1181.3C1096.1 1168.57 1097.43 1157.77 1100.1 1148.9C1102.7 1139.97 1106.3 1132.67 1110.9 1127C1115.5 1121.4 1120.93 1117.37 1127.2 1114.9C1133.4 1112.3 1140.2 1111 1147.6 1111C1158.67 1111 1167.8 1113.47 1175 1118.4C1182.27 1123.27 1186.83 1131.13 1188.7 1142H1166.3C1164.9 1138 1162.63 1135.13 1159.5 1133.4C1156.37 1131.67 1152.4 1130.8 1147.6 1130.8C1143.33 1130.8 1139.4 1131.47 1135.8 1132.8C1132.13 1134.07 1128.93 1136.33 1126.2 1139.6C1123.47 1142.8 1121.3 1147.2 1119.7 1152.8C1118.03 1158.33 1117.17 1165.33 1117.1 1173.8C1118.7 1171.07 1120.7 1168.77 1123.1 1166.9C1125.57 1164.9 1128.23 1163.33 1131.1 1162.2C1134.1 1160.93 1137.17 1160.07 1140.3 1159.6C1143.37 1158.93 1146.4 1158.6 1149.4 1158.6C1162.6 1158.6 1172.9 1162.23 1180.3 1169.5C1187.77 1176.7 1191.5 1186.97 1191.5 1200.3V1202.2C1191.5 1208.67 1190.3 1214.6 1187.9 1220C1185.7 1225.33 1182.53 1229.93 1178.4 1233.8C1174.27 1237.67 1169.4 1240.67 1163.8 1242.8C1158.2 1244.93 1152.17 1246 1145.7 1246V1246ZM1144.2 1226.1C1151.67 1226.17 1157.63 1224 1162.1 1219.6C1166.77 1215.13 1169.1 1209.33 1169.1 1202.2V1200.3C1169.1 1193.37 1166.77 1187.7 1162.1 1183.3C1157.63 1178.83 1151.67 1176.6 1144.2 1176.6C1136.73 1176.6 1130.67 1178.83 1126 1183.3C1121.53 1187.7 1119.3 1193.37 1119.3 1200.3V1202.2C1119.3 1209.33 1121.53 1215.13 1126 1219.6C1130.67 1224 1136.73 1226.17 1144.2 1226.1Z" fill="#1155CC"/>
<path fill-rule="evenodd" clip-rule="evenodd" d="M3445.7 135.1C3438.1 135.1 3431.37 134.167 3425.5 132.3C3419.77 130.3 3414.9 127.533 3410.9 124C3407.03 120.533 3404.07 116.433 3402 111.7C3400 106.833 3399 101.467 3399 95.6H3421.4C3421.4 101.867 3423.33 106.733 3427.2 110.2C3431.2 113.533 3437.37 115.2 3445.7 115.2C3453.83 115.2 3459.9 113.533 3463.9 110.2C3467.97 106.733 3470 101.867 3470 95.6C3470 89.2666 3468.13 84.2666 3464.4 80.6C3460.67 76.8666 3454.43 75 3445.7 75H3432.6V56.3H3445.7C3453.23 56.3 3458.87 54.7666 3462.6 51.7C3466.33 48.4333 3468.2 43.8 3468.2 37.8C3468.2 31.8 3466.4 27.3334 3462.8 24.4C3459.27 21.4 3453.57 19.9 3445.7 19.9C3437.97 19.9 3432.23 21.4333 3428.5 24.5C3424.9 27.6333 3423.1 32 3423.1 37.6H3400.7C3400.7 26.2666 3404.5 17.1667 3412.1 10.3C3419.83 3.43338 3431.03 0 3445.7 0C3453.1 0 3459.6 0.966691 3465.2 2.90002C3470.8 4.76669 3475.47 7.3 3479.2 10.5C3482.93 13.6333 3485.73 17.3333 3487.6 21.6C3489.6 25.8 3490.6 30.3333 3490.6 35.2C3490.6 42.6666 3488.6 48.9666 3484.6 54.1C3480.6 59.1 3475.13 62.6333 3468.2 64.7C3475.8 66.9666 3481.7 70.8 3485.9 76.2C3490.3 81.4 3492.5 88.5 3492.5 97.5C3492.5 102.7 3491.5 107.6 3489.5 112.2C3487.5 116.867 3484.5 120.867 3480.5 124.2C3476.63 127.6 3471.77 130.3 3465.9 132.3C3460.03 134.167 3453.3 135.1 3445.7 135.1V135.1ZM3560.7 135.1C3552.83 135.1 3545.83 134.2 3539.7 132.4C3533.77 130.533 3528.73 128 3524.6 124.8C3520.47 121.4 3517.33 117.467 3515.2 113C3513.13 108.4 3512.1 103.333 3512.1 97.8C3512.1 90.3334 3514.4 83.7333 3519 78C3523.73 72.1333 3530.6 67.9667 3539.6 65.5C3536.2 64.3667 3533.07 62.8667 3530.2 61C3527.33 59.1333 3524.83 56.9 3522.7 54.3C3520.57 51.6334 3518.9 48.7666 3517.7 45.7C3516.43 42.4333 3515.8 38.9333 3515.8 35.2C3515.8 30.2 3516.8 25.6 3518.8 21.4C3520.8 17 3523.67 13.2333 3527.4 10.1C3531.27 6.89998 3535.93 4.43328 3541.4 2.69995C3547 0.899951 3553.43 0 3560.7 0C3567.9 0 3574.3 0.899951 3579.9 2.69995C3585.57 4.43328 3590.27 6.89998 3594 10.1C3597.87 13.2333 3600.73 17 3602.6 21.4C3604.6 25.6 3605.6 30.2 3605.6 35.2C3605.6 42.6666 3603.33 48.9666 3598.8 54.1C3594.33 59.2333 3588.73 63.0333 3582 65.5C3591.13 68.3667 3597.93 72.4333 3602.4 77.7C3607 82.9 3609.3 89.6 3609.3 97.8C3609.3 103.333 3608.23 108.4 3606.1 113C3604.03 117.467 3600.93 121.4 3596.8 124.8C3592.67 128 3587.53 130.533 3581.4 132.4C3575.47 134.2 3568.57 135.1 3560.7 135.1V135.1ZM3560.7 115.2C3569.57 115.2 3576.1 113.467 3580.3 110C3584.7 106.4 3586.9 101.8 3586.9 96.2C3586.9 89.8 3584.4 84.7333 3579.4 81C3574.4 77.1333 3568.17 74.7 3560.7 73.7C3553.23 74.7 3547 77.1333 3542 81C3537 84.7333 3534.5 89.8 3534.5 96.2C3534.5 101.8 3536.7 106.4 3541.1 110C3545.57 113.467 3552.1 115.2 3560.7 115.2ZM3560.7 57.6C3567.3 56.6 3572.67 54.5 3576.8 51.3C3581 48.0334 3583.1 43.2334 3583.1 36.9C3583.1 31.3 3581.03 27.0666 3576.9 24.2C3572.97 21.3333 3567.57 19.9 3560.7 19.9C3553.83 19.9 3548.33 21.3333 3544.2 24.2C3540.2 26.9333 3538.2 31.1667 3538.2 36.9C3538.2 43.2334 3540.33 48.0334 3544.6 51.3C3548.87 54.5 3554.23 56.6 3560.7 57.6V57.6ZM3678.5 135.1C3670.77 135.1 3663.87 133.9 3657.8 131.5C3651.67 129.167 3646.43 125.5 3642.1 120.5C3637.83 115.5 3634.57 109.2 3632.3 101.6C3630.1 93.8666 3629 84.7 3629 74.1V70.4C3629 57.6667 3630.3 46.8667 3632.9 38C3635.5 29 3639.1 21.7 3643.7 16.1C3648.37 10.5 3653.8 6.46667 3660 4C3666.27 1.33333 3673.07 0 3680.4 0C3691.47 0 3700.63 2.5 3707.9 7.5C3715.1 12.3667 3719.63 20.2333 3721.5 31.1H3699.1C3697.7 27.1 3695.47 24.2333 3692.4 22.5C3689.27 20.7667 3685.27 19.9 3680.4 19.9C3676.13 19.9 3672.2 20.5667 3668.6 21.9C3665 23.1667 3661.83 25.4333 3659.1 28.7C3656.37 31.9 3654.17 36.3 3652.5 41.9C3650.9 47.4334 3650.03 54.4334 3649.9 62.9C3651.5 60.1667 3653.5 57.8667 3655.9 56C3658.37 54 3661.03 52.4334 3663.9 51.3C3666.9 50.0334 3669.97 49.1666 3673.1 48.7C3676.23 48.0333 3679.3 47.7 3682.3 47.7C3695.5 47.7 3705.77 51.3333 3713.1 58.6C3720.57 65.8 3724.3 76.0667 3724.3 89.4V91.3C3724.3 97.7667 3723.13 103.7 3720.8 109.1C3718.53 114.433 3715.33 119.033 3711.2 122.9C3707.13 126.767 3702.3 129.767 3696.7 131.9C3691.03 134.033 3684.97 135.1 3678.5 135.1V135.1ZM3677 115.2C3684.47 115.2 3690.47 113.033 3695 108.7C3699.6 104.233 3701.9 98.4334 3701.9 91.3V89.4C3701.9 82.4667 3699.6 76.8 3695 72.4C3690.47 67.9334 3684.47 65.7 3677 65.7C3669.53 65.7 3663.5 67.9334 3658.9 72.4C3654.37 76.8 3652.13 82.4667 3652.2 89.4V91.3C3652.13 98.4334 3654.37 104.233 3658.9 108.7C3663.5 113.033 3669.53 115.2 3677 115.2ZM3750.6 133V109.4H3774.9V133L3754.3 162H3743.1L3750.6 133ZM3845.9 135.1C3834.43 135.1 3825 132.667 3817.6 127.8C3810.27 122.8 3805.67 114.867 3803.8 104H3826.2C3827.6 108 3829.93 110.867 3833.2 112.6C3836.4 114.333 3840.63 115.2 3845.9 115.2C3849.83 115.2 3853.57 114.567 3857.1 113.3C3860.57 111.967 3863.63 109.667 3866.3 106.4C3869.03 103.2 3871.2 98.8334 3872.8 93.3C3874.4 87.7 3875.27 80.6666 3875.4 72.2C3873.8 74.9333 3871.73 77.3 3869.2 79.3C3866.87 81.1667 3864.2 82.7333 3861.2 84C3858.33 85.1333 3855.33 86 3852.2 86.6C3849.13 87.1333 3846.1 87.4 3843.1 87.4C3829.83 87.4 3819.47 83.7667 3812 76.5C3804.67 69.1667 3801 58.9 3801 45.7V43.8C3801 37.3334 3802.13 31.4 3804.4 26C3806.73 20.6667 3809.97 16.0666 3814.1 12.2C3818.17 8.33328 3823.03 5.33328 3828.7 3.19995C3834.3 1.06662 3840.33 0 3846.8 0C3854.67 0 3861.63 1.19998 3867.7 3.59998C3873.83 5.93331 3879.03 9.59998 3883.3 14.6C3887.5 19.4666 3890.73 25.7667 3893 33.5C3895.27 41.2333 3896.4 50.4 3896.4 61V64.7C3896.4 77.4333 3895.07 88.3 3892.4 97.3C3889.8 106.1 3886.2 113.333 3881.6 119C3877.07 124.6 3871.77 128.7 3865.7 131.3C3859.57 133.767 3852.97 135.033 3845.9 135.1V135.1ZM3848.3 69.4C3855.77 69.4 3861.77 67.2334 3866.3 62.9C3870.9 58.3667 3873.2 52.6333 3873.2 45.7V43.8C3873.2 40.4 3872.57 37.2667 3871.3 34.4C3870.03 31.4667 3868.3 28.9334 3866.1 26.8C3863.97 24.5334 3861.33 22.8333 3858.2 21.7C3855.2 20.5 3851.9 19.9 3848.3 19.9C3840.83 19.9 3834.8 22.1333 3830.2 26.6C3825.67 30.9333 3823.4 36.6667 3823.4 43.8V45.7C3823.4 52.6333 3825.67 58.3667 3830.2 62.9C3834.8 67.2334 3840.83 69.4 3848.3 69.4V69.4Z" fill="#1155CC"/>
<path fill-rule="evenodd" clip-rule="evenodd" d="M6164.7 651.1C6157.1 651.1 6150.37 650.167 6144.5 648.3C6138.77 646.3 6133.9 643.533 6129.9 640C6126.03 636.533 6123.07 632.433 6121 627.7C6119 622.833 6118 617.467 6118 611.6H6140.4C6140.4 617.8 6142.33 622.667 6146.2 626.2C6150.2 629.533 6156.37 631.2 6164.7 631.2C6172.83 631.2 6178.9 629.533 6182.9 626.2C6186.97 622.667 6189 617.8 6189 611.6C6189 605.267 6187.13 600.267 6183.4 596.6C6179.67 592.867 6173.43 591 6164.7 591H6151.6V572.3H6164.7C6172.23 572.3 6177.87 570.767 6181.6 567.7C6185.33 564.433 6187.2 559.8 6187.2 553.8C6187.2 547.8 6185.4 543.333 6181.8 540.4C6178.27 537.4 6172.57 535.9 6164.7 535.9C6156.97 535.9 6151.23 537.433 6147.5 540.5C6143.9 543.633 6142.1 548 6142.1 553.6H6119.7C6119.7 542.267 6123.5 533.167 6131.1 526.3C6138.83 519.433 6150.03 516 6164.7 516C6172.1 516 6178.6 516.967 6184.2 518.9C6189.8 520.767 6194.47 523.3 6198.2 526.5C6201.93 529.633 6204.73 533.333 6206.6 537.6C6208.6 541.8 6209.6 546.333 6209.6 551.2C6209.6 558.667 6207.6 564.967 6203.6 570.1C6199.6 575.1 6194.13 578.633 6187.2 580.7C6194.8 582.967 6200.7 586.8 6204.9 592.2C6209.3 597.4 6211.5 604.5 6211.5 613.5C6211.5 618.7 6210.5 623.6 6208.5 628.2C6206.5 632.867 6203.5 636.867 6199.5 640.2C6195.63 643.6 6190.77 646.3 6184.9 648.3C6179.03 650.167 6172.3 651.1 6164.7 651.1V651.1ZM6276.9 651.1C6269.17 651.1 6262.5 650.1 6256.9 648.1C6251.37 646.1 6246.8 643.4 6243.2 640C6239.6 636.667 6236.87 632.867 6235 628.6C6233.27 624.267 6232.27 619.833 6232 615.3H6254.4C6255.07 619.833 6257.27 623.667 6261 626.8C6264.87 629.733 6270.17 631.2 6276.9 631.2C6284.5 631.2 6290.4 628.967 6294.6 624.5C6299 620.033 6301.2 613.5 6301.2 604.9C6301.2 600.033 6300.43 595.967 6298.9 592.7C6297.57 589.367 6295.77 586.7 6293.5 584.7C6291.3 582.567 6288.7 581.067 6285.7 580.2C6282.83 579.2 6279.9 578.7 6276.9 578.7C6271.5 578.7 6267 579.633 6263.4 581.5C6259.93 583.367 6257.13 585.933 6255 589.2H6234.8V518.1H6316.1V537.6H6256.9V568C6259.77 565.267 6263.13 563.1 6267 561.5C6270.87 559.767 6275.73 558.9 6281.6 558.9C6287.93 558.9 6293.67 559.9 6298.8 561.9C6304 563.833 6308.4 566.767 6312 570.7C6315.73 574.5 6318.6 579.3 6320.6 585.1C6322.6 590.7 6323.6 597.233 6323.6 604.7C6323.6 611.767 6322.5 618.167 6320.3 623.9C6318.03 629.633 6314.83 634.5 6310.7 638.5C6306.63 642.5 6301.73 645.633 6296 647.9C6290.27 650.033 6283.9 651.1 6276.9 651.1V651.1ZM6341.4 629.6H6372.2V541.8L6341.4 563.7V540.5L6373 518.1H6394.7V629.6H6419.9V649H6341.4V629.6ZM6441.4 649V625.5H6465.7V649L6445.2 678H6434L6441.4 649ZM6540.4 651.1C6532.53 651.1 6525.53 650.233 6519.4 648.5C6513.47 646.633 6508.43 644.067 6504.3 640.8C6500.17 637.467 6497.03 633.533 6494.9 629C6492.83 624.4 6491.8 619.367 6491.8 613.9C6491.8 606.433 6494.1 599.833 6498.7 594.1C6503.43 588.233 6510.27 584.033 6519.2 581.5C6515.87 580.367 6512.77 578.867 6509.9 577C6507.03 575.133 6504.53 572.9 6502.4 570.3C6500.27 567.7 6498.6 564.833 6497.4 561.7C6496.13 558.433 6495.5 554.933 6495.5 551.2C6495.5 546.267 6496.5 541.667 6498.5 537.4C6500.5 533.067 6503.37 529.333 6507.1 526.2C6510.97 522.933 6515.63 520.433 6521.1 518.7C6526.7 516.967 6533.13 516.1 6540.4 516.1C6547.6 516.1 6554 516.967 6559.6 518.7C6565.27 520.433 6569.97 522.933 6573.7 526.2C6577.57 529.333 6580.43 533.067 6582.3 537.4C6584.3 541.667 6585.3 546.267 6585.3 551.2C6585.3 558.733 6583.03 565.033 6578.5 570.1C6574.03 575.233 6568.43 579.033 6561.7 581.5C6570.77 584.367 6577.57 588.433 6582.1 593.7C6586.7 598.9 6589 605.633 6589 613.9C6589 619.367 6587.93 624.4 6585.8 629C6583.67 633.533 6580.57 637.467 6576.5 640.8C6572.37 644.067 6567.23 646.633 6561.1 648.5C6555.17 650.233 6548.27 651.1 6540.4 651.1ZM6540.4 631.3C6549.27 631.3 6555.8 629.533 6560 626C6564.4 622.4 6566.6 617.8 6566.6 612.2C6566.6 605.867 6564.1 600.8 6559.1 597C6554.1 593.2 6547.87 590.8 6540.4 589.8C6532.93 590.8 6526.7 593.2 6521.7 597C6516.7 600.8 6514.2 605.867 6514.2 612.2C6514.2 617.8 6516.37 622.4 6520.7 626C6525.23 629.533 6531.8 631.3 6540.4 631.3V631.3ZM6540.4 573.7C6547 572.7 6552.37 570.567 6556.5 567.3C6560.7 564.1 6562.8 559.3 6562.8 552.9C6562.8 547.3 6560.73 543.067 6556.6 540.2C6552.67 537.333 6547.27 535.9 6540.4 535.9C6533.53 535.9 6528.03 537.333 6523.9 540.2C6519.9 542.933 6517.9 547.167 6517.9 552.9C6517.9 559.3 6520.03 564.1 6524.3 567.3C6528.57 570.567 6533.93 572.7 6540.4 573.7V573.7Z" fill="#1155CC"/>
</g>
<defs>
<clipPath id="clip0_310_2">
<rect width="7296" height="4538" fill="white"/>
</clipPath>
</defs>
</svg>
