<svg width="877" height="585" viewBox="0 0 877 585" fill="none" xmlns="http://www.w3.org/2000/svg">
<path d="M643.489 67.5V326.156H231.993V67.5H643.489Z" fill="#E1E1E1"/>
<path d="M637.306 321H238.177V72.6562H637.306V321Z" fill="#F5F5F5"/>
<path d="M596.06 228.075L549.174 227.869C543.534 227.85 538.98 223.256 538.999 217.631L539.505 100.35C539.524 94.725 544.115 90.1687 549.755 90.2062L596.641 90.4125C602.282 90.45 606.835 95.025 606.816 100.65L606.311 217.931C606.292 223.575 601.701 228.113 596.06 228.075Z" fill="#E1E1E1"/>
<path d="M603.706 101.625L603.218 216.112C603.2 220.05 599.976 223.237 596.022 223.219L549.23 222.994C545.295 222.994 542.091 219.769 542.109 215.831L542.597 101.362C542.615 97.4062 545.839 94.2375 549.793 94.2562L557.738 94.2937H560.942C562.161 94.3125 563.135 95.3437 563.135 96.6187V98.2687C563.116 99.525 564.109 100.575 565.327 100.575L583.055 100.65C584.273 100.669 585.266 99.6375 585.266 98.3625V96.7125C585.285 95.4375 586.278 94.425 587.496 94.425L596.585 94.4625C600.52 94.4812 603.724 97.6875 603.706 101.625V101.625Z" fill="white"/>
<path d="M344.785 285.45L279.553 285.15C271.701 285.113 265.367 278.738 265.405 270.919L266.098 107.719C266.117 99.9 272.507 93.5813 280.359 93.6L345.609 93.9188C353.442 93.9375 359.776 100.313 359.739 108.15L359.064 271.331C359.027 279.169 352.636 285.488 344.785 285.45V285.45Z" fill="#E1E1E1"/>
<path d="M355.41 109.519L354.735 268.8C354.716 274.275 350.238 278.7 344.747 278.681L279.628 278.381C274.137 278.362 269.715 273.9 269.734 268.406L270.408 109.125C270.427 103.65 274.906 99.225 280.396 99.2438L291.471 99.3L295.931 99.3188C297.618 99.3188 298.986 100.763 298.986 102.525L298.967 104.813C298.967 106.594 300.335 108.038 302.022 108.038L326.682 108.15C328.369 108.15 329.756 106.725 329.774 104.963V102.675C329.774 100.913 331.161 99.4688 332.866 99.4875L345.516 99.5438C351.006 99.5625 355.429 104.025 355.41 109.519V109.519Z" fill="white"/>
<path d="M349.863 155.306H275.281V121.05H349.863V155.306Z" fill="#E1E1E1"/>
<path d="M341.018 128.812H282.758C282.327 128.812 281.97 128.475 281.97 128.044C281.97 127.612 282.327 127.275 282.758 127.275H341.018C341.449 127.275 341.805 127.612 341.805 128.044C341.805 128.475 341.449 128.812 341.018 128.812V128.812Z" fill="white"/>
<path d="M341.018 134.85H282.758C282.327 134.85 281.97 134.494 281.97 134.081C281.97 133.65 282.327 133.294 282.758 133.294H341.018C341.449 133.294 341.805 133.65 341.805 134.081C341.805 134.494 341.449 134.85 341.018 134.85V134.85Z" fill="white"/>
<path d="M323.216 140.887H282.758C282.327 140.887 281.97 140.531 281.97 140.1C281.97 139.669 282.327 139.331 282.758 139.331H323.216C323.647 139.331 324.003 139.669 324.003 140.1C324.003 140.531 323.647 140.887 323.216 140.887Z" fill="white"/>
<path d="M349.863 184.087H275.281V163.05H349.863V184.087Z" fill="#F5F5F5"/>
<path d="M341.018 170.794H282.758C282.327 170.794 281.97 170.437 281.97 170.006C281.97 169.575 282.327 169.237 282.758 169.237H341.018C341.449 169.237 341.805 169.575 341.805 170.006C341.805 170.437 341.449 170.794 341.018 170.794V170.794Z" fill="#E1E1E1"/>
<path d="M323.216 178.369H282.758C282.327 178.369 281.97 178.012 281.97 177.581C281.97 177.15 282.327 176.812 282.758 176.812H323.216C323.647 176.812 324.003 177.15 324.003 177.581C324.003 178.012 323.647 178.369 323.216 178.369Z" fill="#E1E1E1"/>
<path d="M311.878 223.613H280.415V199.181H311.878V223.613Z" fill="#F5F5F5"/>
<path d="M305.882 208.05H285.943C285.531 208.05 285.175 207.694 285.175 207.263C285.175 206.831 285.531 206.494 285.943 206.494H305.882C306.313 206.494 306.65 206.831 306.65 207.263C306.65 207.694 306.313 208.05 305.882 208.05Z" fill="white"/>
<path d="M305.882 212.175H285.943C285.531 212.175 285.175 211.838 285.175 211.406C285.175 210.975 285.531 210.619 285.943 210.619H305.882C306.313 210.619 306.65 210.975 306.65 211.406C306.65 211.838 306.313 212.175 305.882 212.175Z" fill="white"/>
<path d="M299.792 216.844H285.943C285.531 216.844 285.175 216.488 285.175 216.056C285.175 215.625 285.531 215.287 285.943 215.287H299.792C300.223 215.287 300.56 215.625 300.56 216.056C300.56 216.488 300.223 216.844 299.792 216.844Z" fill="white"/>
<path d="M285.775 192.169L285.606 192.9C283.807 192.375 281.877 192.506 280.153 193.369C279.141 193.875 278.298 194.606 277.66 195.45L277.061 194.981C277.754 194.044 278.672 193.256 279.778 192.694C281.689 191.737 283.807 191.606 285.775 192.169Z" fill="#E1E1E1"/>
<path d="M277.192 203.531C277.81 204.694 278.691 205.65 279.703 206.344L279.291 206.962C278.185 206.175 277.229 205.144 276.536 203.869C274.925 200.869 275.224 197.437 277.061 194.981L277.66 195.45C276.011 197.681 275.712 200.812 277.192 203.531V203.531Z" fill="#E1E1E1"/>
<path d="M291.134 196.5C292.24 198.544 292.446 200.775 291.884 202.781L291.153 202.538C291.659 200.719 291.471 198.675 290.478 196.838C289.391 194.85 287.592 193.481 285.606 192.9L285.775 192.169C287.967 192.806 289.953 194.306 291.134 196.5V196.5Z" fill="#E1E1E1"/>
<path d="M291.884 202.781C291.321 204.844 289.935 206.644 287.873 207.675C285.1 209.081 281.802 208.687 279.291 206.962L279.703 206.344C281.989 207.919 284.988 208.275 287.517 207C289.373 206.062 290.647 204.412 291.153 202.537L291.884 202.781Z" fill="#E1E1E1"/>
<path d="M289.391 197.381C291.097 200.531 289.991 204.338 286.918 205.894C283.844 207.45 279.965 206.138 278.26 202.988C276.555 199.838 277.679 196.031 280.752 194.475C283.826 192.919 287.686 194.231 289.391 197.381V197.381Z" fill="#E1E1E1"/>
<path d="M436.72 234.187H378.216V141.094H436.72V234.187Z" fill="white"/>
<path d="M409.716 132.019L409.51 132.862C407.449 132.262 405.2 132.394 403.195 133.406C402.033 134.006 401.059 134.831 400.328 135.825L399.616 135.281C400.422 134.194 401.49 133.275 402.783 132.619C404.975 131.512 407.449 131.362 409.716 132.019V132.019Z" fill="#E1E1E1"/>
<path d="M399.784 145.162C400.515 146.512 401.508 147.6 402.689 148.425L402.221 149.119C400.928 148.237 399.822 147.019 399.016 145.556C397.142 142.087 397.517 138.112 399.616 135.281L400.328 135.825C398.417 138.394 398.079 142.013 399.784 145.162Z" fill="#E1E1E1"/>
<path d="M415.919 137.025C417.193 139.387 417.418 141.975 416.781 144.281L415.938 144.019C416.519 141.919 416.313 139.556 415.151 137.419C413.914 135.112 411.815 133.519 409.51 132.862L409.716 132.019C412.246 132.75 414.551 134.494 415.919 137.025V137.025Z" fill="#E1E1E1"/>
<path d="M416.781 144.281C416.125 146.681 414.514 148.763 412.153 149.944C408.929 151.575 405.125 151.144 402.221 149.119L402.689 148.425C405.331 150.244 408.798 150.656 411.722 149.175C413.877 148.087 415.338 146.194 415.938 144.019L416.781 144.281Z" fill="#E1E1E1"/>
<path d="M413.914 138.037C415.882 141.694 414.589 146.1 411.047 147.9C407.486 149.681 402.989 148.181 401.021 144.544C399.054 140.887 400.328 136.481 403.888 134.681C407.449 132.881 411.928 134.4 413.914 138.037Z" fill="#E1E1E1"/>
<path d="M433.647 191.944H381.289V158.119H433.647V191.944Z" fill="#E1E1E1"/>
<path d="M427.425 165.788H386.536C386.236 165.788 385.992 165.431 385.992 165.019C385.992 164.587 386.236 164.25 386.536 164.25H427.425C427.725 164.25 427.969 164.587 427.969 165.019C427.969 165.431 427.725 165.788 427.425 165.788Z" fill="white"/>
<path d="M427.425 171.75H386.536C386.236 171.75 385.992 171.394 385.992 170.981C385.992 170.55 386.236 170.213 386.536 170.213H427.425C427.725 170.213 427.969 170.55 427.969 170.981C427.969 171.394 427.725 171.75 427.425 171.75Z" fill="white"/>
<path d="M414.945 177.694H386.536C386.236 177.694 385.992 177.356 385.992 176.925C385.992 176.512 386.236 176.175 386.536 176.175H414.945C415.245 176.175 415.488 176.512 415.488 176.925C415.488 177.356 415.245 177.694 414.945 177.694Z" fill="white"/>
<path d="M433.647 221.7H381.289V199.312H433.647V221.7Z" fill="#E1E1E1"/>
<path d="M427.425 206.981H386.536C386.236 206.981 385.992 206.644 385.992 206.212C385.992 205.8 386.236 205.444 386.536 205.444H427.425C427.725 205.444 427.969 205.8 427.969 206.212C427.969 206.644 427.725 206.981 427.425 206.981Z" fill="white"/>
<path d="M427.425 212.944H386.536C386.236 212.944 385.992 212.606 385.992 212.175C385.992 211.762 386.236 211.406 386.536 211.406H427.425C427.725 211.406 427.969 211.762 427.969 212.175C427.969 212.606 427.725 212.944 427.425 212.944Z" fill="white"/>
<path d="M569.862 138.544H552.885V115.931H569.862V138.544Z" fill="#F5F5F5"/>
<path d="M569.862 169.425H552.885V146.794H569.862V169.425Z" fill="#F5F5F5"/>
<path d="M594.617 169.425H577.639V146.794H594.617V169.425Z" fill="#F5F5F5"/>
<path d="M569.862 200.287H552.885V177.675H569.862V200.287Z" fill="#F5F5F5"/>
<path d="M594.617 138.544H577.639V115.931H594.617V138.544Z" fill="#F5F5F5"/>
<path d="M513.082 233.7H445.621V181.294H513.082V233.7Z" fill="white"/>
<path d="M500.208 200.306H457.483C456.565 200.306 455.815 199.556 455.815 198.638C455.815 197.719 456.565 196.969 457.483 196.969H500.208C501.127 196.969 501.876 197.719 501.876 198.638C501.876 199.556 501.127 200.306 500.208 200.306Z" fill="#E1E1E1"/>
<path d="M500.208 209.156H457.483C456.565 209.156 455.815 208.406 455.815 207.488C455.815 206.569 456.565 205.838 457.483 205.838H500.208C501.127 205.838 501.876 206.569 501.876 207.488C501.876 208.406 501.127 209.156 500.208 209.156Z" fill="#E1E1E1"/>
<path d="M487.166 219.15H457.483C456.565 219.15 455.815 218.4 455.815 217.481C455.815 216.562 456.565 215.831 457.483 215.831H487.166C488.084 215.831 488.834 216.562 488.834 217.481C488.834 218.4 488.084 219.15 487.166 219.15Z" fill="#E1E1E1"/>
<path d="M449.856 101.381H383.181C381.739 101.381 380.577 100.631 380.577 99.7125C380.577 98.7938 381.739 98.0438 383.181 98.0438H449.856C451.28 98.0438 452.461 98.7938 452.461 99.7125C452.461 100.631 451.28 101.381 449.856 101.381Z" fill="#E1E1E1"/>
<path d="M449.856 110.231H383.181C381.739 110.231 380.577 109.5 380.577 108.581C380.577 107.662 381.739 106.912 383.181 106.912H449.856C451.28 106.912 452.461 107.662 452.461 108.581C452.461 109.5 451.28 110.231 449.856 110.231Z" fill="#E1E1E1"/>
<path d="M429.486 120.244H383.181C381.739 120.244 380.577 119.494 380.577 118.575C380.577 117.656 381.739 116.906 383.181 116.906H429.486C430.929 116.906 432.091 117.656 432.091 118.575C432.091 119.494 430.929 120.244 429.486 120.244Z" fill="#E1E1E1"/>
<path d="M523.164 163.819H479.764V115.519H523.164V163.819Z" fill="#E1E1E1"/>
<path d="M484.711 127.669C486.672 127.644 488.64 127.625 490.614 127.612C494.099 127.575 497.591 127.537 501.089 127.5C504.587 127.462 508.085 127.425 511.583 127.387C511.939 127.369 511.939 127.931 511.583 127.95C509.622 127.962 507.654 127.981 505.68 128.006C502.182 128.044 498.684 128.081 495.186 128.119C491.701 128.156 488.209 128.194 484.711 128.231C484.336 128.231 484.336 127.669 484.711 127.669Z" fill="white"/>
<path d="M488.965 134.719C490.726 134.656 492.488 134.6 494.249 134.55C497.385 134.437 500.515 134.325 503.638 134.212C506.761 134.1 509.884 133.987 513.007 133.875C513.363 133.875 513.363 134.437 513.007 134.437C511.246 134.5 509.484 134.562 507.723 134.625C504.587 134.737 501.452 134.85 498.316 134.962C495.193 135.075 492.076 135.181 488.965 135.281C488.59 135.3 488.59 134.737 488.965 134.719V134.719Z" fill="white"/>
<path d="M491.776 142.35C493.25 142.35 494.718 142.35 496.18 142.35C501.314 142.35 506.449 142.35 511.583 142.35C511.958 142.35 511.939 142.912 511.583 142.912C510.122 142.912 508.66 142.912 507.198 142.912C502.064 142.912 496.923 142.912 491.776 142.912C491.42 142.912 491.42 142.35 491.776 142.35V142.35Z" fill="white"/>
<path d="M490.37 149.625C492.082 149.563 493.793 149.494 495.505 149.419C501.576 149.194 507.642 148.963 513.701 148.725C514.076 148.706 514.076 149.269 513.701 149.288C511.989 149.35 510.278 149.413 508.566 149.475C502.507 149.713 496.442 149.95 490.37 150.188C490.014 150.206 490.014 149.644 490.37 149.625V149.625Z" fill="white"/>
<path d="M476.541 114.187C476.859 113.85 477.421 113.887 477.74 114.187C478.639 115.037 479.533 115.887 480.42 116.737C483.593 119.725 486.76 122.712 489.921 125.7C489.446 125.825 488.971 125.95 488.496 126.075C489.446 123.487 490.476 120.937 491.588 118.425C493.518 114 495.673 109.687 498.072 105.506C500.471 101.344 503.113 97.2938 505.943 93.3938C506.224 93.0188 506.655 92.8688 507.105 93.0938C507.479 93.2813 507.667 93.8813 507.404 94.2375C505.805 96.425 504.275 98.6625 502.813 100.95C500.246 104.981 497.885 109.162 495.748 113.437C494.687 115.587 493.681 117.762 492.731 119.962C492.669 120.125 492.606 120.281 492.544 120.431C492.519 120.481 492.494 120.531 492.469 120.581C492.469 120.581 492.357 120.844 492.432 120.694C492.319 120.956 492.207 121.219 492.094 121.481C491.869 122.031 491.651 122.581 491.438 123.131C490.989 124.256 490.551 125.387 490.127 126.525C489.921 127.106 489.208 127.35 488.721 126.881C487.822 126.044 486.928 125.2 486.041 124.35C482.881 121.362 479.714 118.375 476.541 115.387C476.203 115.05 476.241 114.525 476.541 114.187Z" fill="white"/>
<path d="M558.544 260.419C561.605 260.419 564.659 260.419 567.708 260.419C573.142 260.419 578.57 260.419 583.992 260.419C589.414 260.419 594.842 260.419 600.277 260.419C600.989 260.419 600.989 261.544 600.277 261.544C597.216 261.544 594.155 261.544 591.094 261.544C585.672 261.544 580.251 261.544 574.829 261.544C569.394 261.544 563.966 261.544 558.544 261.544C557.813 261.544 557.813 260.419 558.544 260.419Z" fill="#E1E1E1"/>
<path d="M559.256 269.081C562.717 269.131 566.177 269.156 569.638 269.156C575.822 269.144 581.999 269.044 588.171 268.856C594.342 268.656 600.508 268.369 606.667 267.994C606.966 267.975 607.229 268.275 607.229 268.556C607.229 268.875 606.966 269.1 606.667 269.119C603.206 269.331 599.745 269.519 596.285 269.681C590.114 269.944 583.942 270.119 577.771 270.206C571.599 270.306 565.428 270.306 559.256 270.206C558.525 270.187 558.525 269.062 559.256 269.081V269.081Z" fill="#E1E1E1"/>
<path d="M559.256 277.5C562.492 277.425 565.734 277.356 568.982 277.294C574.791 277.169 580.594 277.044 586.391 276.919C592.2 276.794 598.003 276.669 603.8 276.544C604.53 276.525 604.53 277.65 603.8 277.669C600.564 277.731 597.322 277.8 594.074 277.875C588.265 278 582.462 278.125 576.665 278.25C570.856 278.375 565.053 278.5 559.256 278.625C558.525 278.644 558.525 277.519 559.256 277.5Z" fill="#E1E1E1"/>
<path d="M558.525 286.387C561.736 286.462 564.947 286.525 568.157 286.575C573.867 286.65 579.576 286.687 585.285 286.687C590.982 286.675 596.685 286.625 602.394 286.537C603.125 286.537 603.106 287.662 602.394 287.662C599.183 287.712 595.973 287.75 592.762 287.775C587.053 287.812 581.35 287.812 575.653 287.775C569.944 287.737 564.235 287.65 558.525 287.512C557.813 287.494 557.813 286.369 558.525 286.387V286.387Z" fill="#E1E1E1"/>
<path d="M561.374 295.087C564.522 295.087 567.67 295.087 570.818 295.087C576.44 295.087 582.056 295.087 587.665 295.087C593.287 295.087 598.902 295.087 604.512 295.087C605.243 295.087 605.243 296.212 604.512 296.212C601.364 296.212 598.215 296.212 595.067 296.212C589.445 296.212 583.83 296.212 578.22 296.212C572.599 296.212 566.983 296.212 561.374 296.212C560.643 296.212 560.643 295.087 561.374 295.087Z" fill="#E1E1E1"/>
<path opacity="0.5" d="M616.955 326.156H594.186C593.212 324.488 592.312 322.763 591.507 321C591.357 320.687 591.207 320.369 591.057 320.044C588.864 315.056 585.098 304.837 592.444 302.062C595.76 300.787 598.74 303.394 601.064 305.437C604.174 308.194 606.985 311.287 609.496 314.625C611.052 316.669 612.513 318.806 613.9 321C614.962 322.688 615.98 324.406 616.955 326.156ZM635.994 326.156H619.241C618.604 324.431 617.96 322.713 617.311 321C614.125 312.581 610.977 304.144 608.128 295.65C607.191 292.875 606.311 290.1 605.449 287.306C605.436 287.256 605.424 287.2 605.411 287.137C604.437 283.931 603.556 280.594 603.35 277.237C603.35 277.187 603.35 277.144 603.35 277.106C603.275 275.85 603.294 274.594 603.425 273.337C603.593 271.95 603.875 270.375 604.474 268.987C604.524 268.887 604.574 268.787 604.624 268.687C605.186 267.525 605.992 266.512 607.191 265.95C610.265 264.506 613.563 266.906 615.83 268.781C619.091 271.481 621.846 274.744 624.113 278.306C629.191 286.2 631.777 295.331 633.314 304.519C634.232 309.975 634.907 315.487 635.488 321C635.663 322.713 635.831 324.431 635.994 326.156V326.156ZM643.49 272.362V326.156H638.336C638.424 324.431 638.517 322.713 638.617 321C638.842 316.875 639.073 312.75 639.311 308.625C639.835 299.306 639.948 289.819 641.035 280.537C641.278 278.456 641.803 276.056 642.74 273.862C642.965 273.35 643.215 272.85 643.49 272.362V272.362Z" fill="#E1E1E1"/>
<path d="M611.707 273.337C612.007 270.656 612.775 267.225 615.455 265.95C618.547 264.506 621.826 266.906 624.094 268.781C627.355 271.481 630.109 274.744 632.395 278.306C637.455 286.2 640.06 295.331 641.596 304.519C643.339 314.962 644.239 325.575 645.138 336.112C646.712 354.169 647.612 372.262 647.837 390.375C648.792 397.537 649.261 404.737 649.111 412.012C649.092 413.025 647.518 413.025 647.556 412.012V411.3C647.481 411.281 647.406 411.225 647.406 411.131C647.406 408.112 647.387 405.112 647.349 402.094C645.101 361.837 625.35 325.425 613.731 287.306C612.363 282.806 611.164 278.062 611.707 273.337V273.337Z" fill="#F5F5F5"/>
<path d="M618.716 288.75C620.646 292.163 622.239 295.725 624.281 299.081C626.268 302.344 628.648 305.156 631.102 308.025C628.217 298.219 625.012 288.506 621.47 278.906C621.358 278.625 621.789 278.513 621.901 278.775C628.16 294.581 633.314 310.781 637.361 327.281C637.099 323.231 636.968 319.144 636.649 315.113C636.199 309.544 635.487 304.031 635 298.481C635 298.388 635.15 298.35 635.169 298.444C637.136 308.944 638.411 320.269 638.242 330.975C638.598 332.55 638.973 334.125 639.329 335.7C640.791 342.319 642.121 349.013 643.283 355.744C643.377 351.469 643.414 347.231 643.096 342.938C643.077 342.844 643.227 342.844 643.246 342.938C643.733 348 644.051 353.138 643.714 358.219C645.663 369.938 647.068 381.788 647.556 393.581C647.593 394.125 646.787 394.106 646.731 393.581C645.344 379.781 643.733 366.094 641.428 352.481C637.118 345.469 634.119 337.706 632.021 329.775C631.983 329.625 632.227 329.569 632.264 329.719C634.55 337.106 637.661 344.1 641.165 350.944C640.247 345.562 639.198 340.2 638.017 334.838C636.068 326.063 633.82 317.381 631.309 308.756C625.293 304.05 621.302 295.688 618.528 288.825C618.491 288.731 618.66 288.656 618.716 288.75Z" fill="#E1E1E1"/>
<path d="M631.646 287.119C632.883 292.613 634.082 298.706 634.138 304.35C634.138 304.613 633.726 304.669 633.67 304.406C632.583 298.781 632.171 292.838 631.496 287.138C631.477 287.044 631.627 287.025 631.646 287.119V287.119Z" fill="#E1E1E1"/>
<path d="M647.593 308.625C648.118 299.306 648.212 289.819 649.298 280.537C649.954 275.062 652.578 267.356 659.305 267.394C666.276 267.45 669.331 274.725 670.174 280.537C672.666 297.881 667.326 315.881 662.828 332.475C657.862 350.737 651.716 368.531 644.67 386.044C644.52 389.025 645.138 354.037 646.019 337.387C646.506 327.806 647.031 318.206 647.593 308.625Z" fill="#E1E1E1"/>
<path d="M650.61 348.244C650.535 348.169 650.479 348.075 650.479 347.925C650.442 335.044 650.404 322.087 650.891 309.225C650.891 309.131 651.023 309.131 651.023 309.225C651.435 320.437 651.454 331.725 651.435 342.975C651.76 340.875 652.072 338.775 652.372 336.675C655.145 317.006 657.206 297.225 658.687 277.425C658.706 277.256 658.949 277.256 658.949 277.425C657.956 294.6 656.363 311.719 654.246 328.8C657.844 318.919 660.936 308.944 663.241 298.669C663.297 298.406 663.69 298.519 663.634 298.781C661.367 310.012 658.312 321.169 654.115 331.856C654.058 332.006 653.965 332.081 653.833 332.137C653.684 333.319 653.552 334.5 653.402 335.662C652.241 344.531 650.966 353.4 649.542 362.269C651.678 357.075 653.459 351.825 655.014 346.406C655.033 346.312 655.164 346.35 655.164 346.444C653.927 353.119 651.753 359.7 649.055 365.925C649.017 366.019 648.961 366.075 648.905 366.112C647.293 375.638 645.476 385.106 643.283 394.463C643.152 395.025 642.328 394.8 642.44 394.256C645.232 378.919 648.155 363.638 650.61 348.244V348.244Z" fill="#F5F5F5"/>
<path d="M659.305 342.731C661.479 335.663 663.559 328.275 667.157 321.787C669.35 317.831 674.54 310.275 679.956 311.325C685.278 312.356 685.859 320.625 685.391 324.731C684.622 331.331 681.736 337.8 678.851 343.744C675.665 350.344 671.711 356.531 668.057 362.888C650.086 394.2 646.9 415.463 646.656 418.819C646.638 419.044 646.282 419.044 646.3 418.819C646.937 401.7 649.074 384.75 652.709 368.025C654.564 359.494 656.757 351.056 659.305 342.731Z" fill="#F5F5F5"/>
<path d="M654.414 379.388C656.063 366.525 658.443 353.231 662.247 340.819C662.285 340.706 662.472 340.763 662.454 340.875C660.149 352.519 657.638 364.05 655.539 375.731C656.213 373.631 656.907 371.531 657.619 369.431C663.447 352.388 669.987 335.213 678.063 319.088C678.082 319.031 678.157 319.069 678.138 319.125C672.741 333.319 666.464 347.138 661.16 361.35C666.707 353.419 671.692 345.169 676.789 336.938C676.864 336.825 677.014 336.919 676.958 337.031C672.367 345.994 666.651 354.469 660.767 362.625C660.748 362.663 660.692 362.681 660.655 362.7C659.88 364.813 659.13 366.931 658.406 369.056C656.551 374.531 654.845 380.044 653.271 385.613C654.939 382.219 656.682 378.881 658.312 375.469C658.35 375.413 658.443 375.45 658.425 375.506C656.888 379.556 655.089 383.625 652.803 387.3C649.673 398.719 647.218 410.288 645.776 422.063C645.719 422.494 645.007 422.494 645.063 422.044C646.825 407.55 650.123 393.338 654.414 379.388V379.388Z" fill="#E1E1E1"/>
<path d="M600.708 302.062C604.024 300.787 607.004 303.394 609.328 305.437C612.438 308.194 615.268 311.287 617.779 314.625C628.61 328.969 635.113 347.062 640.529 364.012C644.445 376.256 650.31 410.737 650.61 415.444C650.629 416.006 649.786 416.175 649.711 415.594C649.523 413.644 637.886 376.556 630.109 364.575C625.125 356.906 619.634 349.631 614.012 342.431C608.503 335.4 602.937 328.256 599.34 320.044C597.147 315.056 593.362 304.837 600.708 302.062V302.062Z" fill="#E1E1E1"/>
<path d="M607.135 311.756C617.292 325.069 625.968 339.281 632.827 354.3C630.859 346.162 628.048 338.456 624.825 330.712C624.788 330.619 624.956 330.562 624.994 330.656C628.948 338.306 631.534 346.687 633.202 355.125C640.06 370.294 645.045 386.269 647.818 403.012C647.837 403.162 647.612 403.219 647.593 403.069C645.382 392.569 642.478 382.125 638.88 371.906C635.188 365.1 630.803 358.969 625.406 353.287C625.275 353.156 625.462 352.969 625.593 353.081C630.334 357.412 634.457 362.625 637.568 368.306C634.345 359.569 630.541 351.037 626.268 342.769C619.391 337.819 613.169 331.2 607.866 324.656C607.697 324.45 607.978 324.15 608.166 324.356C613.806 330.469 619.859 336 625.762 341.812C620.253 331.35 613.937 321.356 606.723 312.056C606.498 311.775 606.91 311.456 607.135 311.756V311.756Z" fill="#F5F5F5"/>
<path d="M606.423 320.137C608.128 321.75 609.946 323.437 611.408 325.275C611.427 325.294 611.389 325.35 611.352 325.312C609.553 323.831 607.885 321.975 606.292 320.269C606.217 320.175 606.348 320.044 606.423 320.137V320.137Z" fill="#C6E2A5"/>
<path d="M628.235 373.369H667.644C669.237 373.369 661.535 448.388 661.535 451.65C661.535 453.825 657.006 455.013 647.949 455.213C638.892 455.013 634.363 453.825 634.363 451.65C634.363 448.388 626.661 373.369 628.235 373.369V373.369Z" fill="#FFE6C4"/>
<path d="M623.494 383.756V368.625C623.494 368.325 623.738 368.081 624.057 368.081H671.842C672.142 368.081 672.385 368.325 672.385 368.625V383.756C672.385 384.075 672.142 384.319 671.842 384.319H624.057C623.738 384.319 623.494 384.075 623.494 383.756V383.756Z" fill="#F5F5F5"/>
<path d="M174.5 452.325H702.499V458.325H174.5V452.325Z" fill="#E1E1E1"/>
<path d="M699.108 496.613C699.108 508.144 585.585 517.5 445.546 517.5C305.488 517.5 191.966 508.144 191.966 496.613C191.966 485.081 305.488 475.725 445.546 475.725C585.585 475.725 699.108 485.081 699.108 496.613Z" fill="#F5F5F5"/>
<path d="M229.107 408.3H287.798V453.6H229.107V408.3Z" fill="#ECBC98"/>
<path d="M208.55 408.3H229.107V453.6H208.55V408.3Z" fill="#E1E1E1"/>
<path d="M248.39 416.194H268.516V423.413H248.39V416.194Z" fill="#F5F5F5"/>
<path d="M225.34 402.244H290.628V413.662H225.34V402.244Z" fill="#F5F5F5"/>
<path d="M205.589 402.244H225.34V413.662H205.589V402.244Z" fill="#E1E1E1"/>
<path d="M227.102 363.506H277.267V402.244H227.102V363.506Z" fill="#ECBC98"/>
<path d="M209.543 363.506H227.102V402.244H209.543V363.506Z" fill="#CA9370"/>
<path d="M243.574 370.256H260.795V376.444H243.574V370.256Z" fill="#F5F5F5"/>
<path d="M223.879 358.331H279.685V368.1H223.879V358.331Z" fill="#F5F5F5"/>
<path d="M206.995 358.331H223.879V368.1H206.995V358.331Z" fill="#F5F5F5"/>
<path d="M348.458 414.188H398.623V452.906H348.458V414.188Z" fill="#ECBC98"/>
<path d="M330.899 414.188H348.458V452.906H330.899V414.188Z" fill="#CA9370"/>
<path d="M364.929 420.938H382.151V427.106H364.929V420.938Z" fill="#F5F5F5"/>
<path d="M345.234 408.994H401.04V418.762H345.234V408.994Z" fill="#F5F5F5"/>
<path d="M328.35 408.994H345.234V418.762H328.35V408.994Z" fill="#F5F5F5"/>
<path d="M380.071 499.031C378.459 498.656 377.466 497.025 377.86 495.413L406.418 378.263C406.812 376.65 408.442 375.656 410.035 376.05C411.646 376.444 412.64 378.075 412.246 379.688L383.687 496.838C383.35 498.206 382.132 499.125 380.783 499.125C380.545 499.125 380.308 499.094 380.071 499.031V499.031Z" fill="#243D42"/>
<path d="M522.134 498.038L489.49 379.763C489.059 378.169 489.996 376.519 491.589 376.069C493.181 375.638 494.831 376.575 495.28 378.169L527.905 496.444C528.355 498.038 527.418 499.688 525.825 500.138C525.55 500.213 525.282 500.25 525.02 500.25C523.708 500.25 522.49 499.369 522.134 498.038V498.038Z" fill="#243D42"/>
<path d="M353.967 499.819C352.355 499.444 351.362 497.813 351.737 496.2L382.357 367.275C382.751 365.663 384.362 364.669 385.974 365.063C387.585 365.438 388.578 367.05 388.204 368.663L357.565 497.588C357.246 498.975 356.01 499.894 354.66 499.894C354.423 499.906 354.192 499.881 353.967 499.819V499.819Z" fill="#243D42"/>
<path d="M494.774 496.894L465.41 368.644C465.054 367.031 466.047 365.419 467.659 365.044C469.289 364.688 470.882 365.681 471.257 367.313L500.621 495.544C500.996 497.156 499.984 498.769 498.372 499.144C498.147 499.194 497.922 499.219 497.698 499.219C496.33 499.219 495.093 498.281 494.774 496.894V496.894Z" fill="#243D42"/>
<path d="M332.004 236.644C334.797 222.038 352.843 213.244 375.067 209.475C389.422 207.038 405.519 206.7 420.398 208.219C445.715 210.806 467.49 218.813 471.013 231.15C475.979 248.531 466.703 281.306 460.481 307.856C458.214 317.569 456.34 326.438 455.74 333.431C455.066 341.156 455.928 346.575 459.469 348.263C468.82 352.65 480.12 356.213 498.616 358.931C522.658 362.475 518.386 392.25 498.616 392.25H380.352C358.914 392.25 357.265 371.344 357.265 355.95C357.265 340.556 324.303 276.788 332.004 236.644V236.644Z" fill="#385A64"/>
<path d="M349.9 247.631C352.955 232.856 362.718 219.056 375.067 209.475C389.422 207.038 405.519 206.7 420.398 208.219C425.738 218.475 423.883 233.494 412.846 242.55C405.819 248.325 395.756 248.869 396.262 259.275C396.693 268.65 401.79 280.35 407.599 287.531C419.573 302.381 440.505 305.775 459.469 307.763C459.807 307.8 460.144 307.831 460.481 307.856C455.684 328.313 452.723 345.075 459.469 348.263C468.82 352.65 480.12 356.213 498.616 358.931C522.658 362.475 518.386 392.25 498.616 392.25H420.36C419.473 391.475 418.561 390.737 417.624 390.037C406.98 382.031 394.331 377.081 383.294 369.619C376.998 365.344 370.701 359.644 367.965 352.35C365.323 345.263 366.073 337.369 362.849 330.338C351.4 305.363 344.222 275.006 349.9 247.631V247.631Z" fill="#2E4C54"/>
<path d="M388.41 338.362C399.091 333.206 408.124 332.85 419.461 334.912C431.698 337.125 443.728 335.456 455.74 333.431C455.066 341.156 455.928 346.575 459.469 348.262C468.82 352.65 480.12 356.212 498.616 358.931C522.658 362.475 518.386 392.25 498.616 392.25H425.514C411.534 384 397.742 375.469 383.95 366.937C367.422 356.7 373.231 345.712 388.41 338.362V338.362Z" fill="#243D42"/>
<path d="M605.842 317.025L607.341 328.275L617.329 402.75L628.161 493.294C628.273 494.119 627.617 494.85 626.755 494.85C625.781 494.85 624.956 494.175 624.806 493.238L612.476 410.887L600.37 342.188L595.985 317.306L605.842 317.025Z" fill="#385A64"/>
<path d="M595.985 317.306L605.842 317.025L607.341 328.275C602.307 330.425 599.983 335.063 600.37 342.187L595.985 317.306Z" fill="#243D42"/>
<path d="M254.817 494.213L263.4 419.306L275.393 329.775L277.117 317.025L286.974 317.306L283.095 339.263L269.265 417.75L258.172 494.156C258.022 495.075 257.178 495.769 256.223 495.769C255.361 495.769 254.705 495.038 254.817 494.213V494.213Z" fill="#385A64"/>
<path d="M277.117 317.025L286.974 317.306L283.095 339.263C282.22 334.813 279.653 331.65 275.393 329.775L277.117 317.025Z" fill="#2E4C54"/>
<path d="M253.262 308.7H650.723C652.26 308.7 653.515 309.937 653.515 311.475V323.156C653.515 324.675 652.26 325.931 650.723 325.931H253.262C251.725 325.931 250.489 324.675 250.489 323.156V311.475C250.489 309.937 251.725 308.7 253.262 308.7Z" fill="#385A64"/>
<path d="M611.127 288.825C610.277 293.387 609.172 297.544 607.81 301.294C606.404 305.194 604.624 308.494 602.656 308.494C599.471 308.494 596.61 308.494 594.074 308.494C591.55 308.494 588.689 308.494 585.491 308.494C582.306 308.494 579.488 301.937 577.04 288.825H611.127Z" fill="#5C82E2"/>
<path d="M607.173 306.131C606.586 306.131 605.98 306.1 605.355 306.038L605.692 303.019C611.989 303.75 614.294 299.887 614.837 298.706C615.718 296.812 615.493 295.125 614.818 294.487C612.72 292.519 609.478 294.581 609.346 294.656L607.697 292.125C607.922 291.975 613.076 288.694 616.898 292.294C618.66 293.962 618.941 297.056 617.592 299.981C616.149 303.075 612.701 306.131 607.173 306.131V306.131Z" fill="#5C82E2"/>
<path d="M351.381 279.394V296.156H280.809V279.394H351.381Z" fill="#ED4343"/>
<path d="M292.146 279.394H307.362V296.156H292.146V279.394Z" fill="#A12C34"/>
<path d="M319.618 279.394H328.65V296.156H319.618V279.394Z" fill="#A12C34"/>
<path d="M347.183 296.156V309.112H277.098V296.156H347.183Z" fill="#404AA9"/>
<path d="M292.596 309.112H283.62V296.156H292.596V309.112Z" fill="#404AA9"/>
<path d="M340.081 309.112H331.105V296.156H340.081V309.112Z" fill="#404AA9"/>
<path d="M343.454 269.7V279.562H280.715V269.7H343.454Z" fill="#F9AF5F"/>
<path d="M329.587 269.7H337.608V279.562H329.587V269.7Z" fill="white"/>
<path d="M287.086 269.7H295.107V279.562H287.086V269.7Z" fill="white"/>
<path d="M297.843 228.975H340.194V269.7H297.843V228.975Z" fill="white"/>
<path d="M281.746 228.975H297.843V269.7H281.746V228.975Z" fill="#E1E1E1"/>
<path d="M330.918 250.388L297.843 249.338H340.194L330.918 250.388Z" fill="#E1E1E1"/>
<path d="M297.843 264.769H340.194L307.119 265.819L297.843 264.769Z" fill="#E1E1E1"/>
<path d="M337.214 238.819L313.378 237.956H340.194L337.214 238.819Z" fill="#E1E1E1"/>
<path d="M297.843 258.787H324.677L300.822 259.631L297.843 258.787Z" fill="#E1E1E1"/>
<path d="M304.833 233.944L299.773 233.419H330.037L304.833 233.944Z" fill="#E1E1E1"/>
<path d="M310.867 254.212L305.826 253.706H336.071L310.867 254.212Z" fill="#E1E1E1"/>
<path d="M294.339 243.206L297.843 241.837H317.463L294.339 243.206Z" fill="white"/>
<path d="M322.466 243.206L325.971 241.837H345.591L322.466 243.206Z" fill="white"/>
<path d="M320.424 260.138H340.044L343.548 261.506L320.424 260.138Z" fill="white"/>
<path d="M278.579 256.856L282.083 255.487H297.843L278.579 256.856Z" fill="#E1E1E1"/>
<path d="M292.352 249.338H280.134L281.746 248.213L292.352 249.338Z" fill="#E1E1E1"/>
<path d="M347.183 296.156V298.969C323.909 302.175 300.523 304.669 277.098 306.45V296.156H347.183Z" fill="#20326B"/>
<g opacity="0.6">
<path opacity="0.6" d="M342.049 269.7C327.376 272.063 299.473 276.206 280.715 277.669V269.7H342.049Z" fill="#A12C34"/>
</g>
<path opacity="0.4" d="M343.698 279.394C327.976 282.769 300.373 288.262 280.809 289.856V279.394H343.698Z" fill="#20326B"/>
<path d="M437.451 141.469C438.837 146.025 437.432 150.188 435.202 154.05C432.916 158.006 432.279 162.281 432.035 166.763C431.904 169.463 430.124 174.656 426.807 174.844C425.158 174.938 423.771 173.644 422.872 172.294C420.285 168.375 419.892 162.563 419.648 158.006C419.348 152.344 420.136 146.531 422.665 141.469C425.72 135.375 435.089 133.744 437.451 141.469V141.469Z" fill="#BC641B"/>
<path d="M494.737 420.15L495.842 447.3L496.442 462L497.004 475.725H473.786L473.018 470.887L468.783 444.131L467.865 438.375L494.737 420.15Z" fill="#FCC4A7"/>
<g opacity="0.7">
<path opacity="0.7" d="M469.364 443.531C473.786 439.481 480.72 439.613 486.379 441.563C489.902 442.763 493.294 444.638 495.842 447.3L496.442 462C488.065 463.031 479.97 466.125 473.018 470.887L468.783 444.131C468.97 443.919 469.164 443.719 469.364 443.531V443.531Z" fill="#FB9A77"/>
</g>
<path d="M548.875 423.656L571.662 423.356L573.423 432.637L578.932 461.625L558.9 470.269L555.827 463.594L542.297 434.194L537.519 423.806L548.875 423.656Z" fill="#FCC4A7"/>
<g opacity="0.7">
<path opacity="0.7" d="M548.875 423.656L571.662 423.356L573.423 432.637C571.399 435.619 568.832 438.262 565.89 440.381C559.125 445.275 556.445 455.419 555.827 463.594L542.297 434.194C543.721 430.369 546.139 426.619 548.875 423.656V423.656Z" fill="#FB9A77"/>
</g>
<path d="M448.132 338.831C454.691 333.75 462.187 329.156 467.921 325.931H548.631C549.662 326.625 550.599 327.394 551.405 328.219C555.584 332.531 559.313 342.375 562.536 354.3C567.983 374.475 572.305 399.087 575.503 428.137L570.275 430.012L540.292 440.663C540.23 440.425 540.142 440.1 540.03 439.688C537.706 431.288 521.253 371.306 520.241 362.1C511.284 366.363 500.996 369.663 489.377 372C474.592 374.963 456.921 375.825 442.117 368.906C425.757 361.238 435.033 349.013 448.132 338.831V338.831Z" fill="#323435"/>
<path d="M467.921 325.931C505.387 325.931 524.12 325.931 524.12 325.931C516.249 325.931 509.166 327.131 504.781 333.994C501.146 339.675 499.796 347.194 502.795 353.438C506.112 360.3 517.917 357.488 523.858 356.606C525.6 368.438 525.657 380.775 528.074 392.85C530.679 405.806 534.146 418.594 538.456 431.081L540.554 438.825C540.423 439.144 540.236 439.425 540.03 439.688C537.706 431.288 521.253 371.306 520.241 362.1C511.284 366.363 500.996 369.663 489.377 372C486.922 369.394 484.299 366.975 481.451 364.819C475.323 360.188 468.296 356.888 461.868 352.669C456.377 349.088 451.187 344.569 448.132 338.831C454.691 333.75 462.187 329.156 467.921 325.931V325.931Z" fill="#232526"/>
<path d="M382.114 329.044C382.538 328.106 382.919 327.369 383.257 326.831L386.836 326.7L419.574 325.369C427.457 326.406 436.145 327.788 445.64 329.513C462.88 332.625 483.681 337.219 491.439 342.375C492.732 343.219 493.65 344.1 494.137 344.981C500.021 355.538 503.544 457.294 502.064 458.288C501.183 458.869 490.015 458.475 480.907 456.994C474.836 456.019 469.682 454.556 469.102 452.588C468.577 450.825 466.909 440.55 464.979 428.119C464.979 428.119 464.979 428.113 464.979 428.1C462.705 413.325 460.157 396.25 457.333 376.875C432.56 380.588 411.709 377.181 394.781 366.656C373.381 353.363 379.228 335.269 382.114 329.044V329.044Z" fill="#414344"/>
<path d="M382.114 329.044C382.538 328.106 382.919 327.369 383.257 326.831L386.836 326.7L419.573 325.369C427.457 326.406 436.145 327.788 445.64 329.513C462.88 332.625 483.681 337.219 491.439 342.375C483.493 344.119 472.531 341.569 467.265 349.538C462.28 357.075 470.376 362.925 471.725 370.05C473.786 380.906 474.648 392.175 475.904 403.163C477.928 421.069 479.596 439.013 480.907 456.994C474.836 456.019 469.682 454.556 469.102 452.588C468.577 450.825 466.909 440.55 464.979 428.119C464.979 428.119 464.979 428.113 464.979 428.1C462.705 413.325 460.157 396.25 457.333 376.875C432.56 380.588 411.709 377.181 394.781 366.656C373.381 353.363 379.228 335.269 382.114 329.044V329.044Z" fill="#323435"/>
<path d="M382.02 329.231C382.076 329.119 382.17 329.025 382.282 328.95C383.744 328.175 385.231 327.438 386.742 326.738C386.805 326.713 386.88 326.7 386.967 326.7L419.517 325.369C419.555 325.369 419.586 325.375 419.611 325.388C420.36 325.481 429.468 326.7 441.105 328.706C441.798 328.819 441.742 329.813 441.067 329.869C441.042 329.869 441.024 329.869 441.011 329.869C430.086 329.775 419.236 331.5 408.442 333.244C404.713 333.825 400.947 334.444 397.536 336.056C397.499 336.081 397.461 336.1 397.424 336.113C391.221 339.113 390.246 347.569 395.55 351.938C402.821 357.919 411.947 363.225 419.742 366.056C425.476 368.138 431.379 370.688 437.151 372.506C444.684 374.906 454.354 373.669 462.243 373.313C462.58 373.294 462.861 373.556 462.861 373.894C462.599 386.681 462.955 399.45 463.761 412.2C463.798 412.95 462.693 413.081 462.58 412.331C460.144 396.169 457.877 380.606 457.427 377.456C457.371 377.138 457.09 376.913 456.771 376.95C451.992 377.569 418.318 381.3 394.781 366.656C373.587 353.494 379.115 335.625 382.02 329.231V329.231Z" fill="#232526"/>
<path d="M380.108 327.469C380.321 326.944 380.539 326.425 380.764 325.912L475.716 325.931C474.255 326.7 472.643 327.3 471.425 328.162C467.696 330.769 465.016 333.956 460.182 334.837C456.546 335.512 452.836 334.5 449.275 333.506C443.016 331.781 436.458 329.175 430.011 327.937C429.337 327.8 428.656 327.681 427.969 327.581C422.459 326.775 416.575 328.106 410.972 328.387C406.1 328.65 401.565 329.156 396.88 330.112C392.458 331.012 386.855 329.719 382.713 331.744C382.357 331.912 382.02 332.1 381.645 332.156C380.652 332.287 379.752 331.369 379.565 330.375C379.378 329.4 379.734 328.387 380.108 327.469Z" fill="#A4C7FC"/>
<path d="M447.401 209.194C447.389 209.181 447.37 209.169 447.345 209.156C447.37 209.169 447.389 209.181 447.401 209.194Z" fill="#BC641B"/>
<path d="M578.745 452.456C578.858 452.481 578.939 452.519 578.989 452.569C582.043 455.887 612.513 455.437 619.691 453.75C624.488 452.644 628.254 455.437 630.241 457.406C630.89 458.056 631.39 458.644 631.74 459.169C628.03 464.25 621.302 468.337 614.294 471.469C606.211 475.094 597.834 477.781 589.164 479.531L580.169 470.719L579.738 470.287L579.776 470.531L582.212 481.687L562.761 488.756L558.638 476.7L553.56 461.831C568.414 455.194 576.809 452.069 578.745 452.456V452.456Z" fill="#434343"/>
<path d="M471.125 490.969L471.294 484.95L471.313 484.294L471.762 468.131C476.222 469.481 480.689 470.1 485.161 469.988C491.645 469.819 498.129 467.437 498.503 468.356C498.859 469.2 500.34 470.325 502.551 471.562C511.021 476.287 530.023 482.794 535.757 483.544C541.135 484.256 543.646 488.963 544.583 491.363C544.796 491.913 544.952 492.369 545.052 492.731C540.817 495.506 534.989 496.987 528.88 497.7C525.413 498.094 521.853 498.263 518.461 498.263C511.327 498.288 504.706 497.806 498.597 496.819L496.348 492.019L494.587 488.25L493.05 485.006L492.657 487.819L492.207 490.856L491.401 496.406L474.067 496.238L470.975 496.219L471.125 490.969Z" fill="#404141"/>
<path d="M418.243 210.956C420.81 207.356 422.946 203.513 424.633 199.5C425.42 197.638 426.107 195.75 426.694 193.838C428.587 187.688 429.486 181.2 429.336 174.619C434.527 178.688 439.849 182.588 445.284 186.338C446.689 187.294 448.825 187.631 449.5 189.206C448.469 193.856 448.094 198.638 448.357 203.4C448.419 204.538 448.519 205.669 448.657 206.794C449.219 211.538 450.399 216.188 452.217 220.594C452.573 221.419 453.922 223.331 453.679 224.231C453.435 225.038 452.423 224.963 451.917 225.45C450.324 227.025 449.369 229.65 447.195 230.55C445.04 231.45 442.566 230.231 440.749 228.769C438.088 226.594 437.057 223.931 433.665 223.181C430.592 222.506 427.575 221.794 424.595 220.913C423.19 220.5 421.785 220.05 420.398 219.563C417.793 218.625 415.863 217.594 415.207 214.913C416.281 213.625 417.293 212.306 418.243 210.956V210.956Z" fill="#FCC4A7"/>
<g opacity="0.7">
<path opacity="0.7" d="M424.633 199.5C429.243 207.169 439.475 222.656 440.917 220.894C442.641 218.813 444.534 218.588 445.902 216.319C447.495 213.694 447.757 209.044 448.151 206.063L448.657 206.794C449.219 211.538 450.4 216.188 452.217 220.594C452.573 221.419 453.923 223.331 453.679 224.231C453.435 225.038 452.423 224.963 451.917 225.45C450.325 227.025 449.369 229.65 447.195 230.55C445.04 231.45 442.567 230.231 440.749 228.769C438.088 226.594 437.057 223.931 433.665 223.181C430.592 222.506 427.575 221.794 424.596 220.913C422.347 218.213 420.379 215.306 418.824 212.156C418.624 211.756 418.43 211.356 418.243 210.956C420.81 207.356 422.947 203.513 424.633 199.5V199.5Z" fill="#FB9A77"/>
</g>
<g opacity="0.7">
<path opacity="0.7" d="M426.694 193.838C428.587 187.688 429.487 181.2 429.337 174.619C434.534 178.681 439.849 182.588 445.284 186.338C446.689 187.294 448.825 187.631 449.5 189.206C448.469 193.856 448.095 198.638 448.357 203.4C440.636 201.563 433.253 198.3 426.694 193.838Z" fill="#FB9A77"/>
</g>
<path d="M423.246 168.863C424.333 166.969 425.045 165.863 427.331 166.125C428.999 166.331 430.873 167.363 431.117 169.2C430.854 167.156 428.568 148.444 429.899 148.425C431.304 148.388 447.139 141.469 448.769 141.206C449.968 141.019 456.096 144.375 459.151 146.081C459.838 146.469 460.406 146.794 460.856 147.056L467.021 151.2L472.999 155.213C472.699 158.163 472.181 161.631 471.444 165.619C471.031 167.794 470.544 170.175 469.963 172.65C468.933 176.963 467.452 181.275 465.578 185.306C463.498 189.769 458.251 199.219 452.592 198.994C448.657 198.825 442.791 196.238 439.699 193.913C436.982 191.888 434.452 189.6 432.147 187.106C431.548 186.469 427.687 180.45 427.575 180.375C423.602 177.656 420.585 173.588 423.246 168.863V168.863Z" fill="#FCC4A7"/>
<path d="M503.244 265.744C503.076 267.975 500.19 269.419 498.747 270.956C496.873 272.969 494.987 274.975 493.088 276.975C489.246 281.025 485.386 285.037 481.507 289.069C477.178 293.569 472.83 298.05 468.464 302.531L445.003 299.963L392.158 294.169C391.97 290.481 391.814 285.894 391.689 280.406C391.183 260.156 391.202 223.537 397.199 212.925C397.486 212.425 397.786 211.981 398.098 211.594C398.623 210.956 399.185 210.487 399.785 210.225C400.697 209.825 401.621 209.462 402.558 209.137C405.894 207.956 409.342 207.187 412.752 206.194C414.476 205.706 416.182 205.144 417.868 204.45C418.505 204.187 419.18 203.925 419.854 204.075C420.604 204.244 421.147 204.881 421.616 205.481C422.965 207.169 424.358 208.812 425.795 210.412C431.285 216.525 437.451 222.037 444.122 226.819C445.009 223.506 445.965 220.212 446.989 216.937C447.926 213.919 448.095 210.806 449.444 207.881C449.456 207.831 449.475 207.787 449.5 207.75C449.575 207.581 455.047 208.95 460.163 210.319C460.425 210.394 460.681 210.462 460.931 210.525C464.754 211.575 468.221 212.569 468.839 212.887C476.766 216.975 482.369 224.456 487.016 231.844C492.638 240.731 497.473 250.106 501.483 259.819C501.508 259.856 501.527 259.894 501.539 259.931C501.826 260.619 502.101 261.306 502.364 261.994C502.851 263.194 503.319 264.45 503.244 265.744Z" fill="#A4C7FC"/>
<path d="M497.566 259.35C498.166 266.194 495.018 272.981 490.389 278.044C485.704 283.163 479.614 286.763 473.468 289.969C472.643 290.4 471.762 290.85 470.825 290.813C469.888 290.794 466.628 290.775 466.796 289.856C467.415 286.65 468.783 283.631 469.757 280.5C472.737 270.938 472.493 260.194 471.687 250.294C471.369 246.356 469.476 242.944 468.652 239.025C475.454 246.713 483.156 257.231 494.118 258.844C495.268 259.006 496.417 259.175 497.566 259.35Z" fill="#BFD9FF"/>
<g opacity="0.6">
<path opacity="0.6" d="M501.539 259.931C500.215 259.744 498.891 259.55 497.566 259.35C497.554 259.287 497.548 259.225 497.548 259.162L501.483 259.819C501.508 259.856 501.527 259.894 501.539 259.931V259.931Z" fill="#A12C34"/>
</g>
<path d="M471.893 272.119C471.069 260.85 470.544 249.919 469.72 238.65C470.151 244.519 473.749 250.256 475.641 255.75C477.609 261.506 480.064 266.381 485.386 269.794C481.825 272.25 476.185 272.625 471.893 272.119Z" fill="#6FA8FF"/>
<path d="M406.774 240.506C406.425 239.531 406.081 238.556 405.744 237.581C411.796 249.825 407.618 271.5 422.553 276.656C425.045 277.519 427.744 277.612 430.367 278.006C433.291 278.437 436.139 279.263 438.968 280.088C445.39 281.963 451.817 283.831 458.251 285.694C459.038 285.919 459.863 286.181 460.481 286.744C470.544 296.175 448.301 300.937 443.054 302.194C431.716 304.875 419.854 305.325 408.348 303.375C405.013 302.812 399.578 301.819 397.33 298.95C396.037 297.3 396.505 295.275 396.074 293.156C395.587 290.737 394.669 288.431 393.863 286.106C390.153 275.419 388.26 264.075 388.297 252.75C388.297 249.488 388.485 246.131 389.628 243.075C391.502 238.088 396.337 234.075 401.659 234.075L406.774 240.506Z" fill="#7AAEFC"/>
<path d="M428.437 296.419C422.909 296.719 417.362 296.025 411.928 294.019C406.7 292.069 401.677 289.5 399.579 284.325C397.33 278.812 399.429 272.512 402.314 267.3C405.2 262.087 408.929 257.175 410.166 251.362C410.56 253.144 410.129 253.556 410.241 255.375C410.691 262.35 409.211 270.656 415.226 275.625C426.245 284.719 441.536 280.144 451.955 291.337C450.362 289.575 443.653 293.044 441.892 293.7C437.544 295.294 433.103 296.194 428.437 296.419Z" fill="#5096FF"/>
<path d="M467.227 304.238L460.125 307.425C411.953 309.063 386.274 308.981 383.088 307.181C381.027 306 378.59 302.981 376.304 297.919H376.286C376.211 297.744 376.136 297.569 376.061 297.394C373.55 291.675 372.294 285.563 372.575 279.3C372.706 276.525 373.044 271.238 374.093 266.869C374.449 265.425 374.88 264.056 375.405 262.931C375.855 262.013 376.361 261.225 376.941 260.681C380.877 256.969 387.435 263.644 390.659 266.194C390.684 266.219 390.715 266.244 390.752 266.269C392.57 267.675 398.192 271.088 398.791 273.3C399.035 274.219 401.902 281.625 403.72 286.275C404.282 287.713 404.763 288.95 405.163 289.988C439.268 291.15 457.339 292.138 459.376 292.95C461.424 293.775 464.042 297.538 467.227 304.238V304.238Z" fill="#FCC4A7"/>
<path d="M435.24 165.094C436.832 163.388 438.8 162.113 440.993 161.306C442.604 160.725 444.478 160.5 446.221 160.669C446.895 160.725 448.395 160.669 448.301 161.756C448.207 162.713 446.933 162.731 446.24 162.731C445.078 162.731 443.878 162.713 442.698 162.788C440.018 162.956 437.526 163.669 435.24 165.094V165.094Z" fill="#A55316"/>
<path d="M467.79 162.863C467.846 163.031 467.883 163.2 467.846 163.406C466.515 163.088 465.241 162.75 463.854 162.713C462.88 162.694 461.887 162.75 460.931 162.806C460.35 162.844 459.301 162.863 459.169 162C459.02 161.006 460.256 161.006 460.819 160.913C462.243 160.706 463.798 160.819 465.166 161.288C465.841 161.531 467.415 161.981 467.79 162.863Z" fill="#A55316"/>
<path d="M446.502 168.525C446.652 169.425 446.089 170.269 445.227 170.419C444.365 170.588 443.541 169.988 443.372 169.088C443.222 168.206 443.785 167.344 444.647 167.194C445.509 167.044 446.333 167.644 446.502 168.525Z" fill="#243D42"/>
<path d="M463.779 167.662C463.854 168.525 463.255 169.275 462.43 169.369C461.606 169.444 460.875 168.825 460.781 167.962C460.706 167.119 461.306 166.35 462.13 166.275C462.955 166.181 463.686 166.8 463.779 167.662Z" fill="#243D42"/>
<path d="M454.822 169.556C455.759 171.319 456.509 173.194 456.809 175.237C456.902 176.25 456.94 177.356 456.434 178.369C456.19 178.856 455.759 179.25 455.253 179.437C454.766 179.625 454.26 179.644 453.773 179.55C454.728 179.381 455.572 178.912 455.853 178.069C456.153 177.244 456.096 176.287 455.984 175.35C455.74 173.437 455.159 171.544 454.822 169.556V169.556Z" fill="#FB9A77"/>
<path d="M447.195 167.813C447.158 167.813 447.12 167.806 447.083 167.794C447.045 167.775 444.609 166.35 441.049 168.15C440.955 168.188 440.861 168.15 440.824 168.056C440.786 167.981 440.805 167.869 440.899 167.831C444.628 165.956 447.139 167.419 447.233 167.494C447.326 167.531 447.345 167.644 447.308 167.719C447.27 167.775 447.233 167.794 447.195 167.813V167.813Z" fill="#243D42"/>
<path d="M465.354 166.894C465.329 166.894 465.297 166.881 465.26 166.856C465.241 166.856 463.33 165.713 460.5 167.1C460.406 167.138 460.313 167.1 460.275 167.025C460.238 166.931 460.275 166.838 460.35 166.8C463.367 165.338 465.354 166.538 465.428 166.575C465.503 166.631 465.522 166.725 465.485 166.8C465.447 166.856 465.41 166.875 465.354 166.894V166.894Z" fill="#243D42"/>
<g opacity="0.3">
<path opacity="0.3" d="M470.882 173.456C470.938 174.563 469.045 175.538 466.665 175.613C464.285 175.706 462.318 174.863 462.28 173.756C462.224 172.65 464.117 171.675 466.497 171.6C468.876 171.525 470.844 172.35 470.882 173.456Z" fill="#FB9A77"/>
</g>
<g opacity="0.3">
<path opacity="0.3" d="M446.895 174.956C446.952 176.063 445.059 177.019 442.679 177.113C440.299 177.188 438.331 176.363 438.294 175.256C438.238 174.131 440.13 173.175 442.51 173.081C444.89 173.006 446.858 173.831 446.895 174.956Z" fill="#FB9A77"/>
</g>
<path d="M452.592 185.737C453.566 185.944 455.197 185.794 455.984 186.506C457.539 187.875 455.946 189.187 454.372 189.487C454.347 189.487 454.328 189.494 454.316 189.506C451.468 190.031 448.451 188.437 446.951 185.981C446.483 185.194 446.146 184.312 446.052 183.375C448.02 184.594 450.343 185.269 452.592 185.737V185.737Z" fill="#8E554F"/>
<g opacity="0.7">
<path opacity="0.7" d="M428.774 169.819C429.355 170.306 429.43 171.169 429.43 171.919C429.48 173.931 429.53 175.937 429.58 177.937C428.193 177.919 427.144 176.737 426.32 175.631C425.664 174.731 425.008 173.775 424.745 172.688C424.483 171.6 424.67 170.344 425.476 169.575C426.544 168.525 428.606 168.844 429.318 170.156L428.774 169.819Z" fill="#FB9A77"/>
</g>
<path d="M446.952 185.981C448.451 188.437 451.468 190.031 454.316 189.506C452.292 187.631 449.688 186.375 446.952 185.981Z" fill="#F98282"/>
<path d="M444.928 303.225C445.021 304.237 445.059 305.081 445.078 305.775C445.096 309.637 443.578 308.981 437.788 308.569C424.745 307.65 411.665 308.212 398.623 308.362C390.434 308.456 377.073 312.131 370.664 304.8C367.272 300.919 369.296 295.219 369.502 290.625C369.689 286.237 369.764 281.85 369.895 277.462C369.933 276.125 369.977 274.794 370.027 273.469C370.42 262.762 371.282 251.662 374.168 241.556C375.986 235.162 379.096 225.862 383.987 221.231C388.691 216.787 394.182 212.25 400.703 210.862C400.722 210.862 402.82 210.45 407.561 224.119C409.529 229.744 410.485 236.475 409.679 242.4C409.342 244.95 403.551 280.519 403.139 280.481C410.653 281.1 418.861 279.525 426.394 282.562C434.115 285.675 440.037 287.531 448.694 287.625C445.602 287.625 444.74 301.275 444.928 303.225V303.225Z" fill="#99C2FF"/>
<path d="M445.078 305.775C445.096 309.637 443.578 308.981 437.788 308.569C424.745 307.65 411.665 308.212 398.623 308.362C390.434 308.456 377.073 312.131 370.664 304.8C367.272 300.919 369.296 295.219 369.502 290.625C369.689 286.238 369.764 281.85 369.895 277.463C378.141 302.156 419.723 305.325 445.078 305.775Z" fill="#71A8FB"/>
<g opacity="0.7">
<path opacity="0.7" d="M618.341 465.188C622.502 463.688 626.624 460.65 630.241 457.406C630.89 458.056 631.39 458.644 631.74 459.169C624.981 468.394 610.789 475.181 589.164 479.531L580.169 470.719C591.975 476.194 607.098 469.238 618.341 465.188Z" fill="#232526"/>
</g>
<g opacity="0.7">
<path opacity="0.7" d="M522.49 493.425C529.779 494.363 537.181 492.544 544.583 491.363C544.796 491.913 544.952 492.369 545.052 492.731C535.595 498.919 520.11 500.281 498.597 496.819L494.587 488.25C494.649 488.275 494.718 488.294 494.793 488.306C503.882 491.288 513.064 492.225 522.49 493.425V493.425Z" fill="#232526"/>
</g>
<g opacity="0.7">
<path opacity="0.7" d="M471.313 484.294C472.487 484.644 473.661 484.994 474.836 485.344C477.815 486.225 480.795 487.106 483.887 487.387C486.791 487.65 489.79 487.35 492.657 487.819L491.401 496.406L470.975 496.219L471.313 484.294Z" fill="#232526"/>
</g>
<g opacity="0.7">
<path opacity="0.7" d="M566.059 475.537C570.35 474.881 576.478 474.094 578.895 470.081C579.195 470.244 579.489 470.394 579.776 470.531L582.212 481.687L562.761 488.756L558.638 476.7C561.805 476.306 564.953 475.706 566.059 475.537V475.537Z" fill="#232526"/>
</g>
<g opacity="0.4">
<path opacity="0.4" d="M578.745 452.456C584.348 458.719 592.406 463.087 600.314 466.387C604.887 468.3 609.553 469.987 614.294 471.469C606.211 475.094 597.834 477.781 589.164 479.531L580.169 470.719L579.738 470.287L579.776 470.531L582.212 481.687L562.761 488.756L558.638 476.7L553.56 461.831C568.414 455.194 576.809 452.069 578.745 452.456V452.456Z" fill="#323435"/>
</g>
<g opacity="0.4">
<path opacity="0.4" d="M471.313 484.294L471.762 468.131C476.222 469.481 480.689 470.1 485.161 469.988C491.645 469.819 498.129 467.437 498.504 468.356C498.86 469.2 500.34 470.325 502.551 471.562C509.354 481.988 518.405 490.95 528.88 497.7C525.413 498.094 521.853 498.263 518.461 498.263L496.348 492.019L492.207 490.856L471.294 484.95L471.313 484.294Z" fill="#323435"/>
</g>
<path d="M455.028 235.931C452.348 233.663 449.837 231.225 446.164 230.7C441.836 230.1 437.32 231.637 433.853 234.187C430.648 236.55 427.631 238.406 425.083 241.669C425.308 234.956 423.49 228.187 419.948 222.487C417.625 218.794 411.478 211.256 412.752 206.194C414.476 205.706 416.182 205.144 417.868 204.45C418.505 204.187 419.18 203.925 419.855 204.075C420.604 204.244 421.148 204.881 421.616 205.481C422.965 207.169 424.358 208.812 425.795 210.412C431.285 216.525 437.451 222.037 444.122 226.819C445.009 223.506 445.965 220.212 446.989 216.937C448.057 213.525 450.062 209.006 449.987 205.444C453.061 207.131 453.866 211.106 455.44 214.256C456.209 215.737 457.183 217.106 457.82 218.662C459.132 221.887 458.757 225.506 458.364 228.975C458.039 231.9 457.708 234.831 457.371 237.769C456.565 237.187 455.797 236.569 455.028 235.931Z" fill="#5096FF"/>
<path d="M425.926 228.994C425.514 228 424.989 227.044 424.296 226.087C421.054 221.719 417.193 217.95 414.476 213.169C413.895 212.137 413.483 211.012 413.446 209.85C413.333 207.469 414.776 205.237 416.65 203.775C418.618 202.238 421.578 200.625 424.127 201.356C420.642 200.362 423.64 208.125 424.221 209.194C425.926 212.231 428.681 213.3 431.342 215.212C434.34 217.369 437.207 219.881 440.205 222.112C442.492 223.8 444.834 225.581 446.164 228.094C442.36 226.819 437.694 227.475 434.546 230.062C433.534 230.906 427.837 236.231 428.044 236.981C427.294 234.169 426.957 231.506 425.926 228.994Z" fill="#71A8FB"/>
<path d="M449.519 206.531C450.606 207.019 452.442 207.112 453.323 207.881C453.66 208.181 453.829 208.613 453.998 209.044C455.796 213.75 457.333 218.662 457.071 223.781C456.996 225.487 455.216 234.15 456.021 235.05C454.391 233.231 452.536 231.038 450.25 230.025C448.957 229.444 446.446 229.819 445.415 229.069C442.004 226.556 445.771 219.094 446.989 216.225C448.338 213.112 448.263 209.362 449.519 206.531Z" fill="#71A8FB"/>
<path d="M444.684 226.65C444.066 236.944 444.347 247.275 445.527 257.513C446.801 268.763 449.575 279.563 451.112 290.775C446.633 280.856 441.273 272.719 439.268 262.031C437.282 251.344 440.355 236.625 444.684 226.65V226.65Z" fill="#5096FF"/>
<path d="M484.111 143.7C483.812 145.912 482.818 148.162 481.057 149.681C480.882 149.819 480.707 149.956 480.532 150.094C480.401 150.187 478.883 151.125 478.864 151.087C479.258 152.044 479.239 153.15 478.827 154.106C478.902 153.281 478.621 152.437 478.096 151.781C478.284 152.55 478.527 153.206 478.452 154.031C478.377 154.856 478.002 155.531 477.515 156.225C477.159 156.731 476.953 157.219 476.672 157.744C476.316 158.381 475.716 158.85 475.323 159.431C475.26 159.519 475.204 159.612 475.154 159.712C475.117 159.787 475.079 159.863 475.042 159.938C473.805 162.225 472.062 165.656 472.324 166.8C471.706 164.063 470.188 161.1 468.258 158.7C468.246 158.675 468.227 158.656 468.202 158.644C467.546 157.781 466.778 156.994 465.916 156.281C465.816 156.194 465.716 156.113 465.616 156.038C465.516 155.95 465.416 155.869 465.316 155.794C466.578 157.806 467.846 159.813 469.12 161.813C465.822 161.756 462.486 161.269 459.488 160.013C456.49 158.756 453.847 156.656 452.405 153.919C453.454 156.994 455.515 159.169 458.064 161.269C457.483 161.381 456.939 161.119 456.359 161.044C455.44 160.931 454.503 160.912 453.585 160.8C451.861 160.594 450.062 160.313 448.432 159.75C445.284 158.756 442.342 156.881 440.88 154.125C441.592 157.125 443.972 159.731 447.045 160.894C446.089 160.894 444.89 160.312 444.047 159.956C443.072 159.525 442.154 158.981 441.311 158.344C440.468 157.725 439.718 156.994 439.062 156.206C438.519 155.569 437.919 155.081 437.619 154.312C437.301 156.281 436.551 158.119 435.127 159.656C436.139 158.006 436.514 156.037 436.158 154.181C436.064 156.037 435.614 157.875 434.865 159.6C434.546 160.275 434.359 161.025 433.946 161.644C433.478 162.356 432.972 163.069 432.747 163.894C432.279 166.238 431.941 168.488 431.866 170.869C431.848 171.544 431.848 172.238 431.848 172.913C431.848 173.325 431.604 174.019 431.81 174.413C430.798 172.556 430.423 170.513 429.88 168.506C429.486 167.044 429.411 165.375 428.737 163.988C426.863 160.106 424.877 156.281 424.464 151.969C424.371 150.844 424.389 149.681 424.539 148.537C425.045 144.825 426.938 141.262 430.348 139.35C428.849 139.75 427.344 140.15 425.832 140.55C427.238 139.05 429.524 138.281 431.641 138.6C431.342 136.669 431.885 134.625 433.141 133.05C433.091 134.187 433.041 135.325 432.991 136.462C433.684 133.237 436.364 130.575 439.549 129.131C442.754 127.687 446.427 127.331 449.987 127.537C456.865 127.912 463.592 130.312 468.97 134.269C470.469 135.375 471.875 136.594 473.599 137.362C475.304 138.112 477.478 138.319 479.052 137.344C478.727 137.969 478.396 138.594 478.059 139.219C480.12 137.344 479.614 133.706 477.122 132.356C478.04 132.637 478.921 133.069 479.689 133.594C479.914 133.744 480.126 133.9 480.326 134.062C482.425 135.712 483.699 138.187 484.093 140.737C484.243 141.731 484.243 142.744 484.111 143.7V143.7Z" fill="#914613"/>
<path d="M484.112 143.7C483.812 145.913 482.819 148.163 481.057 149.681C480.882 149.819 480.707 149.956 480.532 150.094C480.401 150.188 478.883 151.125 478.865 151.088C479.258 152.044 479.239 153.15 478.827 154.106C478.902 153.281 478.621 152.438 478.096 151.781C478.865 154.875 477.328 155.681 476.035 158.138C475.885 158.419 475.623 158.869 475.323 159.431C475.235 159.594 475.142 159.763 475.042 159.938C473.805 162.225 472.062 165.656 472.325 166.8C471.706 164.063 470.188 161.1 468.258 158.7C468.246 158.675 468.227 158.656 468.202 158.644C467.49 157.763 466.721 156.975 465.916 156.281C465.816 156.194 465.716 156.113 465.616 156.038C465.516 155.95 465.416 155.869 465.316 155.794C466.578 157.806 467.846 159.813 469.12 161.813C465.822 161.756 462.486 161.269 459.488 160.013C456.49 158.756 453.848 156.656 452.405 153.919C453.454 156.994 455.515 159.169 458.064 161.269C457.483 161.381 456.94 161.119 456.359 161.044C455.44 160.931 454.503 160.913 453.585 160.8C451.861 160.594 450.062 160.313 448.432 159.75C445.284 158.756 442.342 156.881 440.88 154.125C441.592 157.125 443.972 159.731 447.045 160.894C446.089 160.894 444.89 160.313 444.047 159.956C443.072 159.525 442.154 158.981 441.311 158.344C440.468 157.725 439.718 156.994 439.062 156.206C438.519 155.569 437.919 155.081 437.619 154.313C437.301 156.281 436.551 158.119 435.127 159.656C436.139 158.006 436.514 156.038 436.158 154.181C436.064 156.038 435.614 157.875 434.865 159.6C434.546 160.275 434.359 161.025 433.946 161.644C433.478 162.356 432.972 163.069 432.747 163.894C432.279 166.238 431.941 168.488 431.866 170.869C431.848 171.544 431.848 172.238 431.848 172.913C431.848 173.325 431.604 174.019 431.81 174.413C430.798 172.556 430.423 170.513 429.88 168.506C429.486 167.044 429.411 165.375 428.737 163.988C426.863 160.106 424.877 156.281 424.464 151.969C424.371 150.844 424.333 149.663 424.539 148.538C424.67 147.881 424.877 147.225 425.195 146.625C424.764 148.388 424.82 150.338 425.832 151.894C426.919 153.563 428.849 154.275 430.911 153.938C432.86 153.6 435.221 152.438 436.026 150.694C436.251 150.244 436.383 149.756 436.439 149.25C436.57 148.069 436.289 146.888 435.933 145.744C435.333 143.925 434.377 142.275 433.44 140.588C434.359 142.238 435.764 143.775 437.038 145.2C439.1 147.506 441.573 149.869 444.29 151.556C444.678 151.794 445.078 152.019 445.49 152.231C443.129 150.563 441.386 148.181 440.599 145.519C442.548 146.888 444.721 147.994 447.008 148.819C449.313 149.644 451.711 149.925 454.072 150.544C453.248 148.581 452.43 146.619 451.618 144.656C453.323 146.194 454.785 147.9 456.546 149.381C457.408 150.119 458.308 150.819 459.244 151.481C460.144 152.138 461.193 152.644 462.055 153.319C460.219 151.894 458.682 150.113 457.577 148.144C459.882 150.206 463.686 149.85 466.422 151.369C468.745 152.681 469.982 155.156 472.081 156.769C470.694 154.781 469.307 152.794 467.921 150.806C470.001 150.825 471.987 151.294 474.086 150.975C476.129 150.675 478.077 149.869 479.633 148.631C482.744 146.156 484.168 142.013 483.175 138.356C483.381 139.144 483.812 139.875 484.055 140.644C484.068 140.681 484.08 140.713 484.093 140.738C484.355 141.656 484.243 142.8 484.112 143.7V143.7Z" fill="#BC641B"/>
<path d="M402.09 303.45H488.384V308.475H398.304V307.237C398.304 305.137 399.991 303.45 402.09 303.45Z" fill="#20326B"/>
<path d="M540.536 308.494H454.597L468.427 253.8H554.384L540.536 308.494Z" fill="#20326B"/>
<path d="M460.444 305.55L473.543 253.8H554.384L545.895 287.325L540.536 308.494H459.694L460.444 305.55Z" fill="#305DB3"/>
<path d="M513.026 278.906C513.026 281.7 510.759 283.969 507.948 283.969C505.156 283.969 502.888 281.7 502.888 278.906C502.888 276.113 505.156 273.844 507.948 273.844C510.759 273.844 513.026 276.113 513.026 278.906Z" fill="#20326B"/>
<path opacity="0.1" d="M526.031 253.8H554.384L545.895 287.325L529.142 308.494H485.798L526.031 253.8Z" fill="white"/>
<path opacity="0.1" d="M460.444 305.55L497.96 253.8H510.459L467.153 308.494H459.694L460.444 305.55Z" fill="white"/>
<path d="M562.536 354.3C567.982 374.462 572.311 399.075 575.522 428.137L570.294 429.994C561.936 405.806 559.237 379.669 562.536 354.3V354.3Z" fill="#414344"/>
<g opacity="0.4">
<path opacity="0.4" d="M471.144 490.988C471.631 491.675 472.075 492.413 472.475 493.2C473.012 494.25 473.549 495.269 474.086 496.256L470.994 496.219L471.144 490.988Z" fill="#323435"/>
</g>
<path d="M588.321 288.825C591.263 291.525 594.542 293.869 597.897 295.931C601.101 297.9 604.399 299.681 607.81 301.294C606.404 305.194 604.624 308.494 602.656 308.494C599.471 308.494 596.61 308.494 594.074 308.494C591.55 308.494 588.689 308.494 585.491 308.494C582.306 308.494 579.488 301.937 577.04 288.825H588.321Z" fill="#3158BD"/>
<path d="M447.008 148.894C446.352 148.894 445.659 148.706 445.096 148.444C444.553 148.181 444.103 147.919 443.785 147.9C443.635 147.9 443.466 147.919 443.279 147.994C443.222 148.013 443.166 148.031 443.129 148.069L442.979 148.144L442.642 148.35C442.192 148.631 441.761 148.95 441.349 149.288C439.681 150.638 438.313 152.381 437.376 154.331C436.907 155.306 436.57 156.375 436.176 157.425C435.989 157.95 435.764 158.475 435.521 158.981C435.277 159.488 434.958 159.975 434.64 160.425C433.965 161.344 433.178 162.15 432.335 162.881C431.492 163.631 430.611 164.306 429.711 164.963C430.573 164.25 431.417 163.538 432.204 162.75C433.01 161.981 433.74 161.138 434.321 160.219C434.921 159.3 435.333 158.288 435.652 157.238C435.97 156.188 436.251 155.1 436.682 154.031C437.563 151.913 438.912 150 440.618 148.444C441.03 148.05 441.48 147.675 441.948 147.338C442.36 147.038 443.035 146.569 443.841 146.588C443.935 146.606 444.047 146.606 444.141 146.606L444.403 146.663L444.665 146.738C444.74 146.775 444.815 146.794 444.89 146.831C445.171 146.944 445.434 147.056 445.659 147.15C446.127 147.338 446.539 147.413 446.989 147.394L447.008 148.894Z" fill="#BC641B"/>
<path d="M431.979 247.687C431.916 249.35 431.86 251.012 431.81 252.675C431.81 252.9 431.792 253.144 431.679 253.331C431.492 253.687 431.042 253.8 430.648 253.894C425.814 254.962 419.161 255.187 414.832 257.625C415.095 255.187 413.914 251.269 416.369 250.125C417.756 249.469 420.173 249.675 421.691 249.506C422.665 249.412 431.923 248.906 431.979 247.687Z" fill="#ED9B3A"/>
<path d="M433.234 246.394C433.184 248.056 433.128 249.719 433.066 251.381C433.066 251.606 433.047 251.831 432.953 252.019C432.747 252.375 432.316 252.506 431.923 252.581C427.069 253.65 420.417 253.875 416.107 256.331C416.35 253.875 415.17 249.975 417.625 248.831C419.011 248.175 421.429 248.381 422.947 248.213C423.94 248.1 433.197 247.594 433.234 246.394Z" fill="#EDA943"/>
</svg>
