<svg width="64" height="64" viewBox="0 0 64 64" fill="none" xmlns="http://www.w3.org/2000/svg">
<circle cx="32" cy="32" r="30.5" stroke="#0064DC" stroke-width="3"/>
<path fill-rule="evenodd" clip-rule="evenodd" d="M24.1668 13.114C26.1929 13.0207 26.8389 13 32 13C37.1611 13 37.8071 13.0225 39.8315 13.114C41.8558 13.2055 43.2376 13.5285 44.4467 13.9966C45.7128 14.4751 46.8615 15.223 47.8115 16.1903C48.7787 17.1385 49.5249 18.2855 50.0016 19.5533C50.4715 20.7624 50.7927 22.1442 50.886 24.1651C50.9793 26.1946 51 26.8406 51 32C51 37.1611 50.9775 37.8071 50.886 39.8332C50.7945 41.8541 50.4715 43.2359 50.0016 44.445C49.5249 45.713 48.7775 46.8618 47.8115 47.8115C46.8615 48.7787 45.7128 49.5249 44.4467 50.0016C43.2376 50.4715 41.8558 50.7927 39.8349 50.886C37.8071 50.9793 37.1611 51 32 51C26.8389 51 26.1929 50.9775 24.1668 50.886C22.1459 50.7945 20.7641 50.4715 19.555 50.0016C18.287 49.5248 17.1382 48.7774 16.1885 47.8115C15.2219 46.8626 14.4739 45.7143 13.9966 44.4467C13.5285 43.2376 13.2073 41.8558 13.114 39.8349C13.0207 37.8054 13 37.1594 13 32C13 26.8389 13.0225 26.1929 13.114 24.1685C13.2055 22.1442 13.5285 20.7624 13.9966 19.5533C14.4746 18.2856 15.2232 17.1374 16.1903 16.1885C17.1386 15.2221 18.2863 14.4741 19.5533 13.9966C20.7624 13.5285 22.1442 13.2073 24.1651 13.114H24.1668ZM39.6777 16.534C37.6741 16.4425 37.073 16.4235 32 16.4235C26.927 16.4235 26.3259 16.4425 24.3223 16.534C22.4689 16.6186 21.4636 16.9278 20.7935 17.1886C19.9074 17.5341 19.2735 17.9435 18.6085 18.6085C17.9781 19.2217 17.4929 19.9683 17.1886 20.7935C16.9278 21.4636 16.6186 22.4689 16.534 24.3223C16.4425 26.3259 16.4235 26.927 16.4235 32C16.4235 37.073 16.4425 37.6741 16.534 39.6777C16.6186 41.5311 16.9278 42.5364 17.1886 43.2065C17.4926 44.0305 17.978 44.7784 18.6085 45.3915C19.2216 46.022 19.9695 46.5074 20.7935 46.8114C21.4636 47.0722 22.4689 47.3814 24.3223 47.466C26.3259 47.5575 26.9253 47.5765 32 47.5765C37.0747 47.5765 37.6741 47.5575 39.6777 47.466C41.5311 47.3814 42.5364 47.0722 43.2065 46.8114C44.0926 46.4659 44.7265 46.0565 45.3915 45.3915C46.022 44.7784 46.5074 44.0305 46.8114 43.2065C47.0722 42.5364 47.3814 41.5311 47.466 39.6777C47.5575 37.6741 47.5765 37.073 47.5765 32C47.5765 26.927 47.5575 26.3259 47.466 24.3223C47.3814 22.4689 47.0722 21.4636 46.8114 20.7935C46.4659 19.9074 46.0565 19.2735 45.3915 18.6085C44.7782 17.9781 44.0317 17.493 43.2065 17.1886C42.5364 16.9278 41.5311 16.6186 39.6777 16.534ZM29.5732 37.8572C30.9285 38.4214 32.4377 38.4975 33.8429 38.0726C35.2481 37.6477 36.4622 36.7481 37.2779 35.5275C38.0935 34.3069 38.4601 32.841 38.315 31.3801C38.1699 29.9192 37.5221 28.554 36.4823 27.5177C35.8194 26.8553 35.0179 26.348 34.1355 26.0325C33.2531 25.717 32.3117 25.6011 31.379 25.6931C30.4464 25.785 29.5458 26.0827 28.742 26.5645C27.9382 27.0463 27.2513 27.7004 26.7306 28.4796C26.2099 29.2587 25.8685 30.1437 25.7309 31.0707C25.5933 31.9976 25.6629 32.9436 25.9347 33.8404C26.2066 34.7373 26.6739 35.5627 27.3031 36.2572C27.9322 36.9518 28.7075 37.4982 29.5732 37.8572ZM25.0944 25.0944C26.0012 24.1875 27.0778 23.4681 28.2627 22.9774C29.4476 22.4866 30.7175 22.234 32 22.234C33.2825 22.234 34.5524 22.4866 35.7373 22.9774C36.9222 23.4681 37.9988 24.1875 38.9056 25.0944C39.8125 26.0012 40.5319 27.0778 41.0226 28.2627C41.5134 29.4476 41.766 30.7175 41.766 32C41.766 33.2825 41.5134 34.5524 41.0226 35.7373C40.5319 36.9222 39.8125 37.9988 38.9056 38.9056C37.0741 40.7371 34.5901 41.766 32 41.766C29.4099 41.766 26.9259 40.7371 25.0944 38.9056C23.2629 37.0741 22.234 34.5901 22.234 32C22.234 29.4099 23.2629 26.9259 25.0944 25.0944ZM43.932 23.6884C44.1567 23.4764 44.3366 23.2214 44.4611 22.9387C44.5855 22.6559 44.6519 22.3511 44.6564 22.0422C44.661 21.7332 44.6034 21.4266 44.4873 21.1403C44.3711 20.854 44.1987 20.594 43.9803 20.3755C43.7618 20.1571 43.5018 19.9847 43.2155 19.8685C42.9292 19.7524 42.6226 19.6949 42.3137 19.6994C42.0048 19.7039 41.6999 19.7703 41.4171 19.8947C41.1344 20.0192 40.8794 20.1991 40.6675 20.4238C40.2552 20.8609 40.0295 21.4414 40.0382 22.0422C40.047 22.6429 40.2895 23.2166 40.7144 23.6415C41.1392 24.0663 41.7129 24.3088 42.3137 24.3176C42.9144 24.3264 43.495 24.1006 43.932 23.6884Z" fill="#0064DC"/>
</svg>
