<svg width="64" height="64" viewBox="0 0 64 64" fill="none" xmlns="http://www.w3.org/2000/svg">
<circle cx="32" cy="32" r="30.5" stroke="#0064DC" stroke-width="3"/>
<path d="M31.2747 14C26.0556 14 21.8247 18.2309 21.8247 23.4498C21.8247 28.6688 26.0556 32.9 31.2747 32.9C36.4939 32.9 40.7247 28.6688 40.7247 23.4498C40.7247 18.2309 36.4939 14 31.2747 14ZM31.2747 27.3564C29.1173 27.3564 27.3683 25.6073 27.3683 23.4499C27.3683 21.2926 29.1173 19.5436 31.2747 19.5436C33.4321 19.5436 35.1811 21.2926 35.1811 23.4499C35.1811 25.6073 33.4321 27.3564 31.2747 27.3564Z" fill="#0064DC"/>
<path d="M34.9517 40.067C38.6917 39.3051 40.933 37.5339 41.0516 37.4389C42.146 36.5612 42.3218 34.9624 41.4441 33.8679C40.5665 32.7735 38.968 32.5977 37.8733 33.4752C37.8501 33.4939 35.4597 35.3277 31.5265 35.3304C27.5935 35.3277 25.1525 33.4939 25.1294 33.4752C24.0347 32.5977 22.4362 32.7735 21.5586 33.8679C20.6809 34.9624 20.8567 36.5612 21.9511 37.4389C22.0713 37.5352 24.4051 39.3525 28.25 40.0966L22.8914 45.6967C21.9176 46.7067 21.9468 48.3147 22.9568 49.2886C23.4497 49.7638 24.085 50.0001 24.7198 50.0001C25.3853 50.0001 26.0502 49.74 26.5486 49.223L31.5267 43.9201L37.0076 49.2574C38.0007 50.2489 39.6088 50.2473 40.6 49.2546C41.5912 48.2618 41.59 46.6534 40.5971 45.6622L34.9517 40.067Z" fill="#0064DC"/>
<path d="M31.5272 35.3303C31.5185 35.3303 31.5358 35.3305 31.5272 35.3307C31.5186 35.3305 31.5359 35.3303 31.5272 35.3303Z" fill="#0064DC"/>
</svg>
