<svg width="310" height="337" viewBox="0 0 310 337" fill="none" xmlns="http://www.w3.org/2000/svg">
<g clip-path="url(#clip0_248_2)">
<path fill-rule="evenodd" clip-rule="evenodd" d="M45.9999 230.6C46.6999 238 47.9999 245.3 49.8999 252.5C56.8999 246.6 64.3999 239.6 69.4999 229C71.5999 224.7 72.3999 219.7 72.4999 215.3C72.5999 208.2 72.8999 202.5 71.8999 196.7C70.9999 199.8 69.4999 203.3 67.2999 207.2C60.0999 219.6 52.0999 225.7 45.9999 230.6ZM77.0999 128.7L69.9999 98.4001C64.1999 99.8001 58.3999 101.5 52.8999 103.6C53.8999 113.1 54.1999 122.7 53.5999 132.9C62.3999 130.7 70.8999 129.3 77.0999 128.7ZM236.9 215.3C237 219.7 237.8 224.7 239.9 229C245.1 239.7 252.6 246.6 259.5 252.5C261.4 245.2 262.7 237.9 263.4 230.6C257.2 225.6 249.2 219.5 242.1 207.2C239.9 203.3 238.3 199.8 237.5 196.7C236.5 202.5 236.8 208.2 236.9 215.3ZM239.3 98.3001L232.1 128.6C238.4 129.2 246.9 130.6 255.7 132.8C255.2 122.6 255.4 113 256.4 103.5C250.9 101.4 245.1 99.7001 239.3 98.3001ZM100.1 108.3H86.3999V247.4C86.3999 260.8 97.2999 271.6 110.6 271.6H127.2C144 271.6 153.2 278.8 153.2 287.6H156.1C156.1 278.7 165.3 271.6 182.1 271.6H198.7C212.1 271.6 222.9 260.7 222.9 247.4V108.3H223H209C215.3 105.2 219 99.8001 217.1 92.4001C216.8 90.5001 212.8 82.9001 214.7 76.3001C208.3 81.5001 204 90.0001 199.3 101.6C198 104.7 197.1 106.3 195.1 105.6C184 102 169.6 99.5001 154.6 99.5001C139.7 99.5001 125.2 102.1 114.1 105.6C112.1 106.2 111.2 104.6 109.9 101.6C105 89.9001 100.7 81.5001 94.4999 76.3001C96.3999 83.0001 92.3999 90.6001 91.8999 92.4001C90.0999 99.8001 93.7999 105.2 100.1 108.3ZM154.3 259.8C147.8 259.8 142.5 254.5 142.5 248C142.5 247.9 142.5 247.7 142.5 247.6C143.8 249.8 146.2 251.3 149 251.3C153.2 251.3 156.6 247.9 156.6 243.7C156.6 240.5 154.6 237.7 151.7 236.6C152.6 236.4 153.4 236.3 154.3 236.3C160.8 236.3 166 241.5 166.1 248C166 254.6 160.8 259.8 154.3 259.8ZM205.4 259.8L157.4 222.1L162.3 218.2L209.1 255.1L205.4 259.8ZM210 180.9C208.7 183.6 205 184.1 203 181.9L200.1 184.4C207.3 198.6 205.4 198.7 213 213.3C205.2 217.9 188.7 230 188.7 230C181.1 216.4 182.9 215.9 176.1 203.2L104 259.8L100.3 255.1L149.8 216.1L133.4 203.1C126.6 215.9 128.3 216.4 120.8 229.9C120.8 229.9 104.3 217.7 96.4999 213.2C104.1 198.5 102.2 198.5 109.4 184.3L106.3 181.8C104.3 184 100.6 183.6 99.2999 180.8L92.9999 167.5L107.4 170.5C110.3 171.1 111.7 174.5 110 177L154.6 212.1L199.2 177C197.5 174.6 198.8 171.1 201.8 170.5L216.2 167.5L210 180.9ZM165.8 175.8V181.4H157.6V187.9L162.7 189.3L161.9 192.2L157.6 191V196.1H151.6V189.3L146.5 187.9L147.3 185L151.6 186.2V181.4H143.4V175.8H151.6V168.1H157.6V175.8H165.8V175.8ZM216.3 160H92.9999V114.6H216.3V160ZM237.1 92.2001L242.1 70.7001C223.4 68.5001 219.6 73.8001 218.6 76.0001C216.7 79.9001 218.4 85.4001 220 89.4001C222.9 89.2001 227.6 89.6001 237.1 92.2001ZM89.4999 89.2001C90.9999 85.3001 92.6999 79.8001 90.7999 75.9001C89.7999 73.7001 85.9999 68.5001 67.3999 70.5001L72.3999 92.0001C81.7999 89.5001 86.5999 89.1001 89.4999 89.2001ZM136.7 307.8C137 299.7 138.9 294.5 140.1 291.9C130.7 285.7 111.9 280.8 97.1999 284.1C106.2 285.9 118.4 294.5 130.6 303.4C133 305.1 135.2 306.7 136.7 307.8ZM212.6 300.5C217.4 299.3 219.8 296.9 219.7 292.9C219.7 289 218 288.3 217.4 288.1C212.5 286.1 201 292.4 192.7 299.8C199.8 301.2 207.1 301.8 212.6 300.5ZM91.6999 287.7C89.9999 288.5 88.9999 290.3 88.6999 293.3C88.4999 295.1 88.9999 296.5 90.1999 297.6C93.9999 300.9 104.3 301.4 118.7 299.1C110.1 293.2 100.3 287.2 94.2999 287.2C93.2999 287.2 92.4999 287.4 91.6999 287.7ZM169.5 291.7C172.2 293.6 179.9 296.7 188.5 298.9C193 294.6 198.5 290.5 203.7 287.8C206.5 286.3 210 284.8 213.4 284.4C198.7 280.6 179.3 285.4 169.5 291.7ZM155 86.1001C169.5 86.1001 183.1 88.5001 195.5 92.9001C199.3 87.2001 207.9 72.6001 207.9 57.8001C207.9 42.0001 186.6 33.3001 174.8 32.9001C174.8 32.9001 154.7 69.6001 154.7 69.7001L134.6 32.9001C122.8 33.3001 101.5 42.0001 101.5 57.8001C101.5 72.7001 110.3 87.6001 114.1 93.1001C126.5 88.6001 140.3 86.1001 155 86.1001ZM167.4 18.0001L154.7 0.600098L141.9 18.0001L154.7 46.9001L167.4 18.0001ZM96.7999 135.4C96.7999 135.4 97.1999 135.5 97.5999 135.7C97.0999 136.8 97.0999 137.2 97.3999 137.5C97.6999 137.8 98.9999 137.6 100.7 136.2C102.5 136.2 103.2 135.5 104.9 134.3C105.4 134 105.9 133.6 106.6 133.1C107.2 132.7 108.1 132.7 108.6 133.3C109.5 134.2 110.8 135.7 112.1 137.3C112.4 137.7 112.7 138.1 113.1 138.6C113.7 139.4 114.2 140.2 114.9 141C113.3 142.4 111.1 144.2 108.6 146C107.5 146.9 106.4 147.4 104.3 147.5C103.5 147.5 102.5 148.4 102.3 149.3C102.2 149.8 102.4 150.3 102.9 150.5C103.4 150.8 104.3 150.9 105.1 150.9C106.3 150.9 107.7 150.7 108.6 150.6C109.3 150.5 115.5 147.9 120.2 145.4C120.7 145.6 121.2 145.9 121.8 146.1C120.2 147.4 118.1 149.1 115.8 150.9C114.7 151.8 113.6 152.3 111.5 152.4C110.7 152.4 109.7 153.3 109.5 154.2C109.4 154.7 109.6 155.2 110.1 155.4C110.6 155.7 111.5 155.8 112.3 155.8C113.5 155.8 114.9 155.6 115.8 155.5C116.7 155.3 129 150.2 131.8 147.2C132.6 147.1 133.4 147 134.2 146.9C141.5 145.8 146.9 143.9 151.6 142.3C156.4 140.7 160.5 139.2 165.2 139.1C171.8 138.9 175 142.7 177.8 146C178.8 147.2 179.7 148.3 180.7 149.2C181.2 149.6 181.8 150 182.3 150.2L182.7 150.4C183.7 151 184.2 151.5 184.4 152C184.3 152.1 184.2 152.2 184 152.3C182.9 152.8 182.2 154.2 182.5 155.3C182.7 156.1 183.3 156.5 184.1 156.5C184.5 156.5 186.7 156.5 188.1 156.4C188.8 156.4 189.3 156 189.7 155.4C190.4 154.2 190.3 152.3 189.8 150.8C191.2 150.7 192.4 150.8 193.2 151.3C194.2 151.9 194.7 152.4 194.9 152.9C194.8 153 194.7 153.1 194.5 153.2C193.4 153.7 192.7 155.1 193 156.2C193.2 157 193.8 157.4 194.6 157.4C195 157.4 197.2 157.4 198.6 157.3C199.3 157.3 199.8 156.9 200.2 156.3C201 155 200.8 152.8 200.2 151.3C199.3 149.1 197.4 146.2 195.7 145.2C194.6 144.6 194.1 144.6 193.3 144.8L193 144.9C191.8 145.1 191 141.4 190.7 140.1C190.5 139.4 190.2 138.5 189.8 137.5C191 138.2 192.7 139.1 194.8 140.1C198.2 141.7 202.7 143 206.6 143C208.1 143 209.5 142.8 210.7 142.4C212.1 141.9 213.1 141 213.6 139.8C214.5 137.2 213 134.1 212.9 133.8C212.8 133.5 212.5 133.3 212.2 133.3C211.9 133.2 211.6 133.3 211.4 133.5C211.4 133.5 209 135.2 202.9 135C198.8 134.8 194.5 133.5 189.5 131.9C185.8 130.7 181.6 129.4 176.7 128.3C164.5 125.1 148.8 127.3 137.2 128.9C134.2 129.3 131.5 129.7 129.3 129.9C126.4 130.2 123.6 129.4 121.3 127.7C119.7 126.5 118.4 125.5 117.3 124.5C115.4 122.9 113.9 121.7 112.3 120.9C112.1 120.4 111.9 119.9 111.7 119.4C111.3 117.9 110.3 117.5 109.8 117.3C109 117.1 108.2 117.3 107.6 117.9C107.1 118.4 106.6 119.2 106.1 119.9C105.5 120 105 120.1 104.3 120.3C104.2 120.2 104 120 103.9 119.9C102.8 118.8 101.8 118.8 101.3 118.9C100.5 119.1 99.8999 119.6 99.5999 120.4C99.1999 121.5 99.0999 123.2 99.1999 124.4C98.6999 125.5 98.4999 126.6 98.1999 127.8C97.9999 128.8 97.7999 129.8 97.3999 130.8C96.5999 132.7 96.0999 134.1 96.0999 134.2C96.0999 134.7 96.2999 135.2 96.7999 135.4ZM102.6 127.2C103.2 126.6 104.2 126.8 104.7 126.9C104.8 127.5 104.9 128.4 104.3 129C103.7 129.6 102.7 129.4 102.2 129.3C102.2 128.9 102 127.8 102.6 127.2ZM251 88.7001C252 89.2001 253 89.3001 254 89.2001C256 92.6001 258.3 96.7001 260.6 100.7C257.4 126.1 260.4 146.3 263.5 167.8C263.6 168.6 263.7 169.4 263.8 170.1C262.6 168.9 260.3 166.4 259.1 165.2C254.2 160 258.4 155.9 256.6 150.7C255.8 148.4 254.6 146.6 253.6 147.1C252.9 147.4 252.2 147.1 252 146.3C251.1 143 249.3 138.8 243.7 141.1C243.2 141.3 242.6 141.2 242.3 140.7C240.6 137.8 236.4 137.1 234.2 139.3C231.6 141.9 232.9 146.5 235.5 148.5C236 148.8 236.2 149.6 235.9 150.1C232.3 155.8 238.4 158.3 241.1 158.9C241.8 159.1 242.1 159.8 241.9 160.6C241.5 161.8 241.5 163.5 243.4 164.8C246.7 167 251.1 164.8 253.5 166.8C254.9 167.9 256.9 170.4 258.9 173C257.7 173.7 256.7 174.3 255.7 175C251.8 177.6 246.9 180.6 243.3 184.4C238.4 190.2 240 196.8 244.9 204.9C250.2 200.5 257 197 261.6 194.1C271.3 187.9 285 181.9 292.3 173C298.3 165.6 297.8 159.7 298.6 141.4C298.6 141.2 298.6 140.9 298.6 140.7C297.2 144.6 294.5 148.7 290.9 152.2C286.7 156.6 280.4 160.7 274.1 164.4C275.4 161.3 276.7 158.3 277.6 156.3C278.1 156.2 278.6 156.1 279 155.9C281.8 154.8 283.1 151.6 282 148.9C280.9 146.1 277.7 144.8 275 145.9C272.2 147 270.9 150.2 272 152.9C272.3 153.5 272.6 154.1 273.1 154.6C272.1 157.5 270.5 161.6 269 165.5C267.6 155.9 266.2 146.1 265.5 135.9C274.5 138.9 283.3 143 289.6 148.6C295.1 142.6 297.7 135 295.7 130C290.9 122.6 282.1 115.9 271.4 110.3C279.9 103.7 284.2 108.2 288.2 106.3C290.8 105 291 103.1 290.6 101.7C290.4 100.8 290.9 100 291.8 99.9001C295.3 99.4001 302 97.4001 299.4 90.3001C299.2 89.6001 299.5 88.9001 300.1 88.5001C303.6 86.5001 305.6 81.6001 302.8 78.4001C300.1 75.2001 294.8 76.4001 292.4 79.6001C292 80.2001 291.2 80.4001 290.5 80.0001C283.9 76.5001 280.6 82.2001 279.4 85.4001C279.1 86.2001 278.1 86.6001 277.3 86.2001C276.1 85.6001 274.1 85.2001 272.6 87.6001C269.4 93.0001 272.2 100.9 265.5 106.9C266.1 100.3 267.1 93.5001 268.7 86.5001L268.8 86.4001C269.4 84.4001 269.8 81.9001 270.8 80.6001C275.2 75.1001 282.8 76.2001 285.4 72.7001C287.3 70.1001 286.5 68.2001 285.5 67.0001C284.9 66.3001 285 65.2001 285.8 64.6001C288.9 62.4001 295.6 55.9001 288.5 51.4001C287.8 51.0001 287.8 50.0001 288.3 49.3001C290.7 45.6001 290.3 39.4001 285.9 38.1001C282.1 36.9001 277.1 40.1001 276.3 44.4001C276.1 45.2001 275.5 45.7001 274.7 45.7001C266.6 46.2001 266.2 52.0001 266.5 56.5001C266.6 57.5001 265.8 58.3001 264.8 58.3001C263.3 58.3001 261.1 58.9001 260.9 62.1001C260.6 67.5001 263.4 72.5001 263.8 79.1001C263.9 80.1001 263.7 81.4001 263.5 82.7001C262.6 86.5001 261.9 90.1001 261.3 93.7001C260 91.4001 258.7 89.0001 257.6 86.8001C257.7 86.6001 257.9 86.3001 258 86.1001C259.3 83.4001 258.1 80.1001 255.3 78.8001C252.6 77.5001 249.3 78.7001 248 81.5001C247 84.1001 248.2 87.4001 251 88.7001ZM302.7 214.8C307 212.2 312.1 208.1 306.8 201.2C306.2 200.5 306.2 199.7 306.8 199C310.2 195.6 309.5 189.4 305.8 187.1C301.4 184.4 295.5 188 293.8 192.4C293.5 193.2 292.6 193.7 291.7 193.5C281.3 191.1 283.4 205.7 280.1 208.4C274.5 213.4 278.6 221.7 277.7 226C276.9 230 274 233.7 272.3 236.6C274.6 220.3 274 205.3 272.5 190.9C270.5 192 268.6 193.1 266.7 194.2C267.6 202.9 268 211.6 267.8 220.5C265.9 217.3 264.1 214.3 262.8 212C263.1 211.5 263.3 211 263.4 210.4C264 207.5 262.2 204.6 259.2 204C256.3 203.4 253.4 205.2 252.8 208.2C252.2 211.1 254 214 257 214.6C257.5 214.7 258.1 214.7 258.6 214.7C261 218.1 264.3 223.2 267.3 228C266.5 237.8 264.7 247.9 261.3 259C257.8 270.7 251.3 279.7 242.1 286.2C243.8 283.9 244.9 281.2 245.4 277.9C246.5 270.5 251.5 273.2 252.6 267.4C253.1 264.9 251.5 263.9 250.3 263.6C249.5 263.4 249.1 262.6 249.4 261.8C250.6 258.4 251.5 253.7 245.2 251.6C244.6 251.4 244.2 250.8 244.2 250.2C244.5 246.6 241.2 243 238 243.2C234.3 243.3 232.6 248.1 233.7 251.6C233.9 252.2 233.7 253 233.1 253.2C226.5 255.2 230.4 261.8 232.4 264.2C232.9 264.8 232.8 265.7 232.1 266.1C231.1 266.8 230 268.2 231 270.6C232.6 274.8 238.7 272.6 240.3 275.8C240.9 277 241.3 286 230 292.4C227.2 294 224.9 294.8 222.8 295.4V295.5C222.7 295.4 222.7 295.4 222.7 295.4C222.1 298.8 219.8 302.1 213.2 303.7C201.8 306.5 180.5 301.4 170.4 296.2C171.1 299.2 171.7 303.4 171.6 309.5C171.6 310.5 168 314.1 168 314.1C168.8 301.5 166.2 294 165.5 292.8C165.4 292.7 165.3 292.5 165.2 292.4C164.9 292.3 164.7 292.2 164.4 292.2C157.7 292.2 147.3 292.2 144.5 292.2C144.2 292.2 143.8 292.3 143.5 292.5C142.3 294.7 139.7 301.1 140 313.5C140 313.5 136.8 312.2 130.7 307.8C128.9 306.5 124.6 303.3 122.4 301.7C109.8 304 93.7999 305.6 87.5999 299.9C85.9999 298.5 85.1999 296.7 84.9999 294.7C84.9999 294.5 84.9999 294.3 84.9999 294.2C82.8999 293.6 80.8999 293 78.8999 292.2C67.6999 285.6 67.9999 276.7 68.5999 275.6C70.1999 272.4 76.2999 274.6 77.8999 270.4C78.7999 267.9 77.7999 266.6 76.7999 265.9C76.1999 265.5 75.9999 264.6 76.4999 264C78.4999 261.6 82.3999 255 75.7999 253C75.1999 252.8 74.9999 252 75.1999 251.4C76.2999 247.9 74.6999 243.2 70.8999 243C67.6999 242.9 64.3999 246.5 64.6999 250C64.6999 250.7 64.2999 251.2 63.6999 251.4C57.3999 253.5 58.3999 258.2 59.4999 261.6C59.7999 262.4 59.3999 263.2 58.5999 263.4C57.3999 263.7 55.7999 264.7 56.2999 267.2C57.4999 273 62.3999 270.3 63.4999 277.7C63.9999 281 65.0999 283.7 66.7999 286C57.4999 279.6 51.1999 270.5 47.5999 258.8C44.2999 247.8 42.4999 237.6 41.5999 227.8C44.5999 222.9 47.8999 217.9 50.2999 214.5C50.7999 214.5 51.3999 214.5 51.8999 214.4C54.7999 213.8 56.6999 210.9 56.0999 208C55.4999 205.1 52.5999 203.2 49.6999 203.8C46.7999 204.4 44.8999 207.3 45.4999 210.2C45.5999 210.8 45.7999 211.3 46.0999 211.8C44.7999 214.2 42.9999 217.2 41.0999 220.3C40.7999 211.6 41.2999 202.8 42.0999 194.2C40.2999 193.1 38.3999 192.1 36.4999 191C34.8999 205.5 34.2999 220.5 36.5999 236.9C34.8999 233.9 31.9999 230.3 31.1999 226.3C30.2999 221.9 34.3999 213.6 28.7999 208.7C25.4999 205.8 27.5999 191.4 17.1999 193.8C16.2999 194 15.3999 193.4 15.0999 192.7C13.3999 188.3 7.4999 184.7 3.0999 187.4C-0.700103 189.7 -1.3001 195.8 2.0999 199.3C2.6999 199.9 2.6999 200.8 2.1999 201.5C-3.1001 208.4 1.9999 212.5 6.2999 215.1C7.2999 215.7 7.4999 216.8 6.7999 217.6C5.6999 218.8 4.6999 221 7.4999 223.2C12.3999 227.1 19.5999 226.1 24.7999 229.8C28.6999 232.6 30.6999 237.3 33.6999 241.3C31.7999 243.4 30.1999 245.6 28.7999 248.1C26.8999 253 28.6999 259 34.1999 266.4C36.0999 263.9 38.5999 261.6 41.3999 259.3C41.4999 259.8 41.6999 260.3 41.7999 260.7C45.5999 273.5 52.7999 283.6 62.8999 290.7C49.6999 286.5 38.6999 279.9 31.9999 269.3C28.8999 265.2 26.6999 261.4 25.4999 257.8C24.6999 263.6 25.0999 270.6 27.3999 279.5C33.6999 304.7 57.2999 315.3 88.7999 316.7C95.1999 329.1 114.4 324.2 128.3 320.3C133.8 325.8 138.3 335.4 138.3 335.4C144 332.6 148.4 328 151.7 323.6C156 327.2 163.3 331.8 174.6 334.9C174.6 334.9 174.6 326.9 177 319C191.4 323.5 210.4 328.6 217.3 316.7C249.9 315.7 274.5 305.2 281 279.4C283.3 270.4 283.7 263.5 282.9 257.7C281.7 261.3 279.5 265.1 276.4 269.2C269.7 279.8 258.5 286.5 245.2 290.6C255.4 283.4 262.8 273.3 266.6 260.7C266.8 260.2 266.9 259.6 267.1 259.1C269.8 261.4 272.3 263.7 274.3 266.2C279.8 258.7 281.6 252.7 279.7 247.9C278.4 245.4 276.7 243.1 274.8 241.1C277.7 237.1 279.7 232.5 283.6 229.8C288.9 226.1 296.1 227.1 300.9 223.2C303.7 221 302.7 218.9 301.6 217.6C301.5 216.6 301.7 215.4 302.7 214.8ZM9.1999 88.6001C9.7999 89.0001 10.0999 89.7001 9.8999 90.4001C7.3999 97.5001 14.0999 99.5001 17.4999 100C18.3999 100.1 18.8999 101 18.6999 101.8C18.3999 103.2 18.4999 105.1 21.0999 106.4C25.0999 108.4 29.3999 103.9 37.7999 110.3C27.1999 115.8 18.3999 122.6 13.5999 129.9C11.5999 135 14.1999 142.6 19.6999 148.5C25.9999 143 34.6999 138.8 43.7999 135.8C43.0999 146.1 41.6999 155.9 40.2999 165.6C38.7999 161.7 37.1999 157.6 36.1999 154.7C36.5999 154.2 36.9999 153.7 37.2999 153C38.3999 150.2 37.0999 147.1 34.2999 146C31.4999 144.9 28.3999 146.2 27.2999 149C26.1999 151.8 27.4999 154.9 30.2999 156C30.7999 156.2 31.2999 156.3 31.6999 156.4C32.6999 158.4 33.8999 161.3 35.1999 164.4C28.7999 160.7 22.5999 156.6 18.3999 152.2C14.7999 148.7 12.1999 144.6 10.6999 140.7C10.6999 140.9 10.6999 141.2 10.6999 141.4C11.4999 159.7 10.9999 165.6 16.9999 173C24.2999 182 37.9999 187.9 47.6999 194.1C52.3999 197 59.1999 200.5 64.3999 204.9C69.2999 196.7 70.8999 190.1 65.9999 184.4C62.3999 180.6 57.4999 177.6 53.5999 175C52.5999 174.3 51.3999 173.6 50.1999 172.9C52.1999 170.2 54.2999 167.6 55.7999 166.4C58.1999 164.5 62.5999 166.6 65.8999 164.4C67.7999 163.1 67.7999 161.4 67.3999 160.2C67.1999 159.5 67.4999 158.7 68.1999 158.5C70.8999 157.9 76.9999 155.3 73.3999 149.7C73.0999 149.2 73.2999 148.4 73.7999 148.1C76.3999 146.2 77.6999 141.5 75.0999 139C72.8999 136.9 68.6999 137.5 66.9999 140.4C66.6999 140.9 66.0999 141.1 65.5999 140.8C60.0999 138.4 58.2999 142.6 57.2999 146C57.0999 146.8 56.3999 147.1 55.6999 146.8C54.6999 146.3 53.3999 148 52.6999 150.4C50.8999 155.6 55.1999 159.7 50.1999 164.9C48.9999 166.2 46.6999 168.6 45.4999 169.8C45.5999 169 45.6999 168.3 45.7999 167.5C48.8999 146.2 51.8999 125.8 48.6999 100.4C50.8999 96.4001 53.1999 92.3001 55.2999 88.9001C56.2999 89.0001 57.2999 88.9001 58.2999 88.4001C60.9999 87.1001 62.1999 83.9001 60.9999 81.1001C59.6999 78.4001 56.4999 77.2001 53.6999 78.4001C50.8999 79.6001 49.7999 82.9001 50.9999 85.7001C51.0999 85.9001 51.2999 86.2001 51.3999 86.4001C50.2999 88.5001 48.8999 90.9001 47.6999 93.3001C47.0999 89.7001 46.3999 86.0001 45.4999 82.3001C45.2999 81.0001 45.0999 79.8001 45.1999 78.7001C45.5999 72.0001 48.3999 67.0001 48.0999 61.7001C47.8999 58.5001 45.6999 57.9001 44.1999 57.9001C43.1999 57.9001 42.4999 57.1001 42.4999 56.1001C42.7999 51.7001 42.3999 45.8001 34.2999 45.3001C33.4999 45.3001 32.7999 44.7001 32.6999 44.0001C31.8999 39.7001 26.7999 36.5001 23.0999 37.7001C18.6999 39.1001 18.2999 45.2001 20.6999 48.9001C21.0999 49.6001 21.0999 50.6001 20.4999 51.0001C13.3999 55.4001 20.0999 61.9001 23.1999 64.2001C23.9999 64.8001 24.0999 65.9001 23.4999 66.6001C22.4999 67.8001 21.6999 69.7001 23.5999 72.3001C26.1999 75.9001 33.7999 74.7001 38.1999 80.2001C39.1999 81.5001 39.4999 84.0001 40.1999 86.0001C40.1999 86.1001 40.2999 86.1001 40.2999 86.1001C41.8999 93.2001 42.8999 100 43.4999 106.5C36.7999 100.4 39.5999 92.5001 36.3999 87.2001C34.8999 84.7001 32.8999 85.1001 31.6999 85.8001C30.9999 86.2001 29.9999 85.9001 29.6999 85.0001C28.3999 81.8001 25.1999 76.1001 18.5999 79.6001C17.9999 79.9001 17.1999 79.8001 16.6999 79.2001C14.3999 76.5001 9.1999 75.4001 6.3999 78.5001C3.7999 81.7001 5.6999 86.6001 9.1999 88.6001ZM110.4 198.7C111.2 199.2 111.6 200 111.8 200.4C111.2 200.9 110.7 201.5 110.2 202.3C109.7 203.1 109.5 203.8 109.3 204.6C108.9 204.6 107.9 204.6 107.1 204.2C106.3 203.7 106.5 202.4 106.8 201.7L109.3 201.8L108 199.6C108.5 199 109.6 198.2 110.4 198.7ZM107.1 199.5L108.2 201L106.3 200.8L105.8 199.6L107.1 199.5ZM124.8 211C120.8 213.2 121.5 213.6 119.7 209.8C119.4 209.9 119 210 118.6 210.1C118.9 215.4 116.6 217.6 106.2 213.2L113.4 208.3C113.4 208.3 114.6 211.1 115.4 209.7C116.7 207.5 110.6 205.9 110.6 209.1C110.6 209.1 107.9 208.2 109.2 205.7C110.7 202.9 114.5 204.8 114.5 204.8C114.5 204.8 111 202.4 112.8 199.7C114.4 197.3 116.5 199.3 116.5 199.3C113.6 200.8 117.9 205.4 119.3 203.2C120.1 201.8 117.1 202.1 117.1 202.1L118 193.4C126.8 200.5 125.9 203.5 121.1 205.8C121.2 206.2 121.3 206.6 121.3 207C125.5 206.8 124.9 206.5 124.8 211ZM190.8 210.1C190.3 210 190 209.9 189.7 209.8C188 213.6 188.6 213.2 184.6 211C184.6 206.5 183.9 206.8 188.1 207.1C188.1 206.8 188.2 206.4 188.3 205.9C183.5 203.6 182.6 200.6 191.4 193.5L192.3 202.2C192.3 202.2 189.2 201.9 190.1 203.3C191.4 205.5 195.8 200.9 192.9 199.4C192.9 199.4 195 197.4 196.6 199.8C198.3 202.4 194.9 204.9 194.9 204.9C194.9 204.9 198.7 203 200.2 205.8C201.5 208.3 198.8 209.2 198.8 209.2C198.8 205.9 192.7 207.6 194 209.8C194.8 211.2 196 208.4 196 208.4L203.2 213.3C192.7 217.6 190.5 215.4 190.8 210.1ZM203.6 199.6L203.1 200.8L201.2 201L202.3 199.5L203.6 199.6ZM201.3 199.6L200 201.8L202.5 201.7C202.8 202.3 203 203.7 202.2 204.2C201.4 204.7 200.4 204.7 200 204.6C199.8 203.8 199.5 203 199.1 202.3C198.7 201.6 198.1 200.9 197.5 200.4C197.7 200 198.2 199.1 198.9 198.7C199.8 198.2 200.9 199 201.3 199.6Z" fill="#5C9CF6"/>
</g>
<defs>
<clipPath id="clip0_248_2">
<rect width="309.4" height="336.1" fill="white"/>
</clipPath>
</defs>
</svg>
