<svg width="9539" height="5231" viewBox="0 0 9539 5231" fill="none" xmlns="http://www.w3.org/2000/svg">
<path d="M468.125 4918.85H9538.38" stroke="#333333" stroke-width="3" stroke-miterlimit="10"/>
<path d="M468.125 3750.81H9538.38" stroke="#CCCCCC" stroke-width="3" stroke-miterlimit="10"/>
<path d="M468.125 2601.01H9538.38" stroke="#CCCCCC" stroke-width="3" stroke-miterlimit="10"/>
<path d="M468.125 1432.97H9538.38" stroke="#CCCCCC" stroke-width="3" stroke-miterlimit="10"/>
<path d="M468.125 283.18H9538.38" stroke="#CCCCCC" stroke-miterlimit="10"/>
<path d="M2858 4910H1608V827.45C1608 806.77 1632.34 790 1662.35 790H2803.65C2833.66 790 2858 806.77 2858 827.45V4910Z" fill="#1155CC"/>
<path d="M2858 4910H1608V1150.5C1608 1130.34 1632.34 1114 1662.35 1114H2803.65C2833.66 1114 2858 1130.34 2858 1150.5V4910Z" fill="#C9DAF8"/>
<path d="M5652 4910H4402V1113.5C4402 1093.34 4426.33 1077 4456.35 1077H5597.65C5627.67 1077 5652 1093.34 5652 1113.5V4910Z" fill="#C9DAF8"/>
<path d="M8446 4910H7196V1058.51C7196 1038.34 7220.33 1022 7250.34 1022H8391.66C8421.67 1022 8446 1038.34 8446 1058.51V4910Z" fill="#C9DAF8"/>
<path d="M2212 910.98C2212 919.53 2209.7 927.16 2205.1 933.84C2200.51 940.52 2194.45 945.74 2186.93 949.49C2195.7 953.25 2202.7 958.89 2207.93 966.41C2213.15 973.71 2215.76 982.06 2215.76 991.46C2215.76 1006.07 2210.75 1017.87 2200.72 1026.85C2190.9 1035.62 2177.84 1040 2161.54 1040C2145.03 1040 2131.76 1035.62 2121.73 1026.85C2111.91 1017.87 2107 1006.07 2107 991.46C2107 982.06 2109.51 973.71 2114.52 966.41C2119.54 958.89 2126.54 953.25 2135.52 949.49C2128 945.74 2122.04 940.52 2117.66 933.84C2113.27 927.16 2111.07 919.53 2111.07 910.98C2111.07 896.57 2115.67 885.19 2124.87 876.84C2134.06 868.28 2146.28 864 2161.54 864C2176.58 864 2188.7 868.28 2197.9 876.84C2207.3 885.19 2212 896.57 2212 910.98ZM2194.13 990.83C2194.13 981.23 2191.1 973.5 2185.04 967.66C2178.99 961.6 2171.04 958.58 2161.22 958.58C2151.4 958.58 2143.46 961.6 2137.4 967.66C2131.55 973.5 2128.63 981.33 2128.63 991.15C2128.63 1000.75 2131.55 1008.37 2137.4 1014.01C2143.25 1019.44 2151.3 1022.15 2161.54 1022.15C2171.57 1022.15 2179.51 1019.33 2185.36 1013.69C2191.21 1008.06 2194.13 1000.44 2194.13 990.83ZM2161.54 881.85C2152.97 881.85 2145.97 884.56 2140.54 889.99C2135.31 895.21 2132.7 902.42 2132.7 911.6C2132.7 920.16 2135.31 927.16 2140.54 932.58C2145.76 938.01 2152.66 940.73 2161.22 940.73C2170 940.73 2177 938.01 2182.22 932.58C2187.45 927.16 2190.06 920.16 2190.06 911.6C2190.06 902.83 2187.34 895.73 2181.91 890.31C2176.48 884.67 2169.69 881.85 2161.54 881.85ZM2357 889.99L2288.16 1037.49H2255.5L2335.81 884.36L2239.5 881.85V866.51H2359L2357 889.99Z" fill="#C9DAF8"/>
<path d="M2213.53 1320.78C2213.53 1328.57 2211.44 1335.51 2207.25 1341.59C2203.07 1347.68 2197.56 1352.43 2190.71 1355.85C2198.7 1359.27 2205.07 1364.41 2209.82 1371.25C2214.57 1377.9 2216.95 1385.51 2216.95 1394.06C2216.95 1407.37 2212.39 1418.11 2203.26 1426.29C2194.33 1434.27 2182.45 1438.26 2167.62 1438.26C2152.6 1438.26 2140.53 1434.27 2131.4 1426.29C2122.47 1418.11 2118 1407.37 2118 1394.06C2118 1385.51 2120.28 1377.9 2124.84 1371.25C2129.41 1364.41 2135.77 1359.27 2143.95 1355.85C2137.11 1352.43 2131.69 1347.68 2127.7 1341.59C2123.7 1335.51 2121.71 1328.57 2121.71 1320.78C2121.71 1307.66 2125.89 1297.3 2134.25 1289.69C2142.62 1281.9 2153.74 1278 2167.62 1278C2181.3 1278 2192.33 1281.9 2200.7 1289.69C2209.25 1297.3 2213.53 1307.66 2213.53 1320.78ZM2197.27 1393.49C2197.27 1384.75 2194.52 1377.71 2189 1372.39C2183.49 1366.88 2176.27 1364.12 2167.33 1364.12C2158.4 1364.12 2151.17 1366.88 2145.66 1372.39C2140.34 1377.71 2137.68 1384.84 2137.68 1393.78C2137.68 1402.52 2140.34 1409.46 2145.66 1414.6C2150.98 1419.54 2158.3 1422.01 2167.62 1422.01C2176.74 1422.01 2183.97 1419.44 2189.29 1414.31C2194.61 1409.18 2197.27 1402.24 2197.27 1393.49ZM2167.62 1294.25C2159.82 1294.25 2153.45 1296.73 2148.51 1301.67C2143.76 1306.42 2141.38 1312.98 2141.38 1321.35C2141.38 1329.14 2143.76 1335.51 2148.51 1340.45C2153.26 1345.39 2159.54 1347.87 2167.33 1347.87C2175.32 1347.87 2181.68 1345.39 2186.44 1340.45C2191.19 1335.51 2193.57 1329.14 2193.57 1321.35C2193.57 1313.36 2191.1 1306.9 2186.15 1301.95C2181.21 1296.82 2175.03 1294.25 2167.62 1294.25ZM2348.69 1435.98H2246.61V1421.72L2300.5 1361.84C2308.48 1352.71 2314 1345.39 2317.04 1339.88C2320.08 1334.18 2321.6 1328.28 2321.6 1322.2C2321.6 1314.03 2319.13 1307.37 2314.19 1302.24C2309.44 1296.92 2302.88 1294.25 2294.51 1294.25C2284.82 1294.25 2277.21 1297.11 2271.7 1302.81C2266.19 1308.32 2263.43 1316.12 2263.43 1326.19H2243.75C2243.75 1311.74 2248.32 1300.15 2257.44 1291.4C2266.76 1282.47 2279.11 1278 2294.51 1278C2309.15 1278 2320.65 1281.8 2329.02 1289.41C2337.38 1297.01 2341.56 1307.18 2341.56 1319.92C2341.56 1335.13 2331.77 1353.38 2312.19 1374.67L2270.56 1419.73H2348.69V1435.98Z" fill="#1155CC"/>
<path d="M5010.53 1283.78C5010.53 1291.57 5008.44 1298.51 5004.25 1304.59C5000.07 1310.68 4994.56 1315.43 4987.71 1318.85C4995.7 1322.27 5002.07 1327.41 5006.82 1334.25C5011.57 1340.9 5013.95 1348.51 5013.95 1357.06C5013.95 1370.37 5009.39 1381.11 5000.26 1389.29C4991.33 1397.27 4979.45 1401.26 4964.62 1401.26C4949.6 1401.26 4937.53 1397.27 4928.4 1389.29C4919.47 1381.11 4915 1370.37 4915 1357.06C4915 1348.51 4917.28 1340.9 4921.84 1334.25C4926.41 1327.41 4932.77 1322.27 4940.95 1318.85C4934.11 1315.43 4928.69 1310.68 4924.7 1304.59C4920.7 1298.51 4918.71 1291.57 4918.71 1283.78C4918.71 1270.66 4922.89 1260.3 4931.25 1252.69C4939.62 1244.9 4950.74 1241 4964.62 1241C4978.3 1241 4989.33 1244.9 4997.7 1252.69C5006.25 1260.3 5010.53 1270.66 5010.53 1283.78ZM4994.27 1356.49C4994.27 1347.75 4991.52 1340.71 4986 1335.39C4980.49 1329.88 4973.27 1327.12 4964.33 1327.12C4955.4 1327.12 4948.17 1329.88 4942.66 1335.39C4937.34 1340.71 4934.68 1347.84 4934.68 1356.78C4934.68 1365.52 4937.34 1372.46 4942.66 1377.59C4947.98 1382.54 4955.3 1385.01 4964.62 1385.01C4973.74 1385.01 4980.97 1382.44 4986.29 1377.31C4991.61 1372.18 4994.27 1365.24 4994.27 1356.49ZM4964.62 1257.25C4956.82 1257.25 4950.45 1259.73 4945.51 1264.67C4940.76 1269.42 4938.38 1275.98 4938.38 1284.35C4938.38 1292.14 4940.76 1298.51 4945.51 1303.45C4950.26 1308.39 4956.54 1310.87 4964.33 1310.87C4972.32 1310.87 4978.68 1308.39 4983.44 1303.45C4988.19 1298.51 4990.57 1292.14 4990.57 1284.35C4990.57 1276.36 4988.1 1269.9 4983.15 1264.95C4978.21 1259.82 4972.03 1257.25 4964.62 1257.25ZM5072.41 1311.44H5087.23C5096.74 1311.25 5104.15 1308.77 5109.48 1304.02C5114.8 1299.27 5117.46 1292.81 5117.46 1284.63C5117.46 1266.38 5108.34 1257.25 5090.09 1257.25C5081.53 1257.25 5074.69 1259.73 5069.55 1264.67C5064.61 1269.61 5062.14 1276.08 5062.14 1284.06H5042.18C5042.18 1271.7 5046.65 1261.44 5055.58 1253.26C5064.71 1245.09 5076.21 1241 5090.09 1241C5104.72 1241 5116.23 1244.9 5124.59 1252.69C5132.95 1260.49 5137.14 1271.32 5137.14 1285.2C5137.14 1292.04 5134.95 1298.6 5130.58 1304.88C5126.21 1311.15 5120.22 1315.9 5112.61 1319.14C5121.17 1321.8 5127.73 1326.26 5132.29 1332.54C5137.04 1338.81 5139.42 1346.51 5139.42 1355.64C5139.42 1369.52 5134.86 1380.64 5125.73 1389C5116.61 1397.18 5104.72 1401.26 5090.09 1401.26C5075.64 1401.26 5063.76 1397.27 5054.44 1389.29C5045.32 1381.3 5040.75 1370.85 5040.75 1357.92H5060.71C5060.71 1366.09 5063.38 1372.65 5068.7 1377.59C5074.02 1382.54 5081.25 1385.01 5090.37 1385.01C5099.88 1385.01 5107.1 1382.54 5112.04 1377.59C5117.18 1372.46 5119.74 1365.24 5119.74 1355.92C5119.74 1346.99 5116.99 1340.14 5111.47 1335.39C5105.96 1330.45 5097.88 1327.88 5087.23 1327.69H5072.41V1311.44Z" fill="#1155CC"/>
<path d="M7799.53 1228.78C7799.53 1236.57 7797.44 1243.51 7793.25 1249.59C7789.07 1255.68 7783.56 1260.43 7776.71 1263.85C7784.7 1267.27 7791.07 1272.41 7795.82 1279.25C7800.57 1285.9 7802.95 1293.51 7802.95 1302.06C7802.95 1315.37 7798.39 1326.11 7789.26 1334.29C7780.33 1342.27 7768.45 1346.26 7753.62 1346.26C7738.6 1346.26 7726.53 1342.27 7717.4 1334.29C7708.47 1326.11 7704 1315.37 7704 1302.06C7704 1293.51 7706.28 1285.9 7710.84 1279.25C7715.41 1272.41 7721.77 1267.27 7729.95 1263.85C7723.11 1260.43 7717.69 1255.68 7713.7 1249.59C7709.7 1243.51 7707.71 1236.57 7707.71 1228.78C7707.71 1215.66 7711.89 1205.3 7720.25 1197.69C7728.62 1189.9 7739.74 1186 7753.62 1186C7767.3 1186 7778.33 1189.9 7786.7 1197.69C7795.25 1205.3 7799.53 1215.66 7799.53 1228.78ZM7783.27 1301.49C7783.27 1292.75 7780.52 1285.71 7775 1280.39C7769.49 1274.88 7762.27 1272.12 7753.33 1272.12C7744.4 1272.12 7737.17 1274.88 7731.66 1280.39C7726.34 1285.71 7723.68 1292.84 7723.68 1301.78C7723.68 1310.52 7726.34 1317.46 7731.66 1322.59C7736.98 1327.54 7744.3 1330.01 7753.62 1330.01C7762.74 1330.01 7769.97 1327.44 7775.29 1322.31C7780.61 1317.18 7783.27 1310.24 7783.27 1301.49ZM7753.62 1202.25C7745.82 1202.25 7739.45 1204.73 7734.51 1209.67C7729.76 1214.42 7727.38 1220.98 7727.38 1229.35C7727.38 1237.14 7729.76 1243.51 7734.51 1248.45C7739.26 1253.39 7745.54 1255.87 7753.33 1255.87C7761.32 1255.87 7767.68 1253.39 7772.44 1248.45C7777.19 1243.51 7779.57 1237.14 7779.57 1229.35C7779.57 1221.36 7777.1 1214.9 7772.15 1209.95C7767.21 1204.82 7761.03 1202.25 7753.62 1202.25ZM7916.16 1291.8H7937.83V1307.77H7916.16V1343.98H7896.48V1307.77H7825.48V1296.07L7895.05 1188.28H7916.16V1291.8ZM7848 1291.8H7896.48V1215.37L7893.91 1219.65L7848 1291.8Z" fill="#1155CC"/>
<path d="M241.305 4913.66C241.305 4895.03 243.206 4880.11 247.008 4868.89C250.81 4857.48 256.418 4848.74 263.832 4842.65C271.436 4836.57 280.941 4833.53 292.348 4833.53C300.712 4833.53 308.031 4835.24 314.305 4838.66C320.768 4842.08 326.091 4847.03 330.273 4853.49C334.456 4859.76 337.688 4867.46 339.969 4876.59C342.25 4885.71 343.391 4898.07 343.391 4913.66C343.391 4932.1 341.49 4946.93 337.688 4958.15C334.076 4969.36 328.468 4978.11 320.863 4984.38C313.449 4990.47 303.944 4993.51 292.348 4993.51C277.329 4993.51 265.448 4988.09 256.703 4977.25C246.438 4964.33 241.305 4943.13 241.305 4913.66ZM260.98 4913.66C260.98 4939.33 264.022 4956.44 270.105 4964.99C276.189 4973.55 283.603 4977.82 292.348 4977.82C301.283 4977.82 308.697 4973.55 314.59 4964.99C320.673 4956.44 323.715 4939.33 323.715 4913.66C323.715 4887.81 320.673 4870.7 314.59 4862.33C308.697 4853.78 301.188 4849.5 292.063 4849.5C283.318 4849.5 276.284 4853.21 270.961 4860.62C264.307 4870.13 260.98 4887.81 260.98 4913.66Z" fill="black"/>
<path d="M214.785 3813.71V3832.25H110.988C110.988 3827.69 111.749 3823.22 113.27 3818.85C115.931 3811.81 120.113 3804.87 125.816 3798.03C131.71 3791.19 140.169 3783.3 151.195 3774.36C168.305 3760.29 179.806 3749.17 185.699 3741C191.783 3732.82 194.824 3725.12 194.824 3717.9C194.824 3710.29 192.068 3703.92 186.555 3698.79C181.042 3693.47 173.913 3690.81 165.168 3690.81C155.853 3690.81 148.439 3693.56 142.926 3699.08C137.413 3704.59 134.561 3712.29 134.371 3722.18L114.695 3720.18C116.026 3705.35 121.064 3694.13 129.809 3686.53C138.743 3678.74 150.72 3674.84 165.738 3674.84C180.757 3674.84 192.638 3679.02 201.383 3687.39C210.128 3695.75 214.5 3706.11 214.5 3718.47C214.5 3724.74 213.169 3730.92 210.508 3737C208.036 3742.9 203.759 3749.27 197.676 3756.11C191.783 3762.76 181.992 3771.89 168.305 3783.49C156.708 3793.18 149.199 3799.84 145.777 3803.45C142.546 3806.87 139.884 3810.29 137.793 3813.71H214.785ZM241.305 3791.19L261.551 3789.48C263.072 3799.36 266.493 3806.78 271.816 3811.72C277.329 3816.66 283.983 3819.13 291.777 3819.13C300.902 3819.13 308.697 3815.62 315.16 3808.58C321.624 3801.55 324.855 3792.33 324.855 3780.92C324.855 3769.89 321.719 3761.24 315.445 3754.97C309.362 3748.51 301.283 3745.27 291.207 3745.27C285.124 3745.27 279.516 3746.7 274.383 3749.55C269.44 3752.4 265.543 3756.02 262.691 3760.39L244.727 3758.11L259.84 3677.69H337.973V3695.94H275.238L266.969 3738.15C276.284 3731.49 286.074 3728.16 296.34 3728.16C310.027 3728.16 321.529 3732.92 330.844 3742.42C340.349 3751.93 345.102 3764.19 345.102 3779.21C345.102 3793.28 341.014 3805.54 332.84 3816C322.764 3828.54 309.077 3834.82 291.777 3834.82C277.52 3834.82 265.828 3830.82 256.703 3822.84C247.768 3814.86 242.635 3804.3 241.305 3791.19Z" fill="black"/>
<path d="M113.555 2632.5L133.801 2630.79C135.322 2640.67 138.743 2648.09 144.066 2653.03C149.579 2657.97 156.233 2660.44 164.027 2660.44C173.152 2660.44 180.947 2656.93 187.41 2649.89C193.874 2642.86 197.105 2633.64 197.105 2622.23C197.105 2611.21 193.969 2602.56 187.695 2596.28C181.612 2589.82 173.533 2586.59 163.457 2586.59C157.374 2586.59 151.766 2588.01 146.633 2590.86C141.69 2593.71 137.793 2597.33 134.941 2601.7L116.977 2599.42L132.09 2519H210.223V2537.25H147.488L139.219 2579.46C148.534 2572.8 158.324 2569.48 168.59 2569.48C182.277 2569.48 193.779 2574.23 203.094 2583.73C212.599 2593.24 217.352 2605.5 217.352 2620.52C217.352 2634.59 213.264 2646.85 205.09 2657.31C195.014 2669.85 181.327 2676.13 164.027 2676.13C149.77 2676.13 138.078 2672.14 128.953 2664.15C120.018 2656.17 114.885 2645.62 113.555 2632.5ZM241.305 2596.28C241.305 2577.65 243.206 2562.73 247.008 2551.51C250.81 2540.1 256.418 2531.36 263.832 2525.27C271.436 2519.19 280.941 2516.15 292.348 2516.15C300.712 2516.15 308.031 2517.86 314.305 2521.28C320.768 2524.7 326.091 2529.65 330.274 2536.11C334.456 2542.38 337.688 2550.08 339.969 2559.21C342.25 2568.33 343.391 2580.69 343.391 2596.28C343.391 2614.72 341.49 2629.55 337.688 2640.77C334.076 2651.98 328.468 2660.73 320.863 2667C313.449 2673.09 303.944 2676.13 292.348 2676.13C277.329 2676.13 265.448 2670.71 256.703 2659.87C246.438 2646.95 241.305 2625.75 241.305 2596.28ZM260.981 2596.28C260.981 2621.95 264.022 2639.06 270.106 2647.61C276.189 2656.17 283.603 2660.44 292.348 2660.44C301.283 2660.44 308.697 2656.17 314.59 2647.61C320.673 2639.06 323.715 2621.95 323.715 2596.28C323.715 2570.43 320.673 2553.32 314.59 2544.95C308.697 2536.4 301.188 2532.12 292.063 2532.12C283.318 2532.12 276.284 2535.83 270.961 2543.24C264.307 2552.75 260.981 2570.43 260.981 2596.28Z" fill="black"/>
<path d="M114.695 1378.56V1360.03H216.211V1375.14C206.326 1385.79 196.44 1399.95 186.555 1417.63C176.859 1435.12 169.35 1453.18 164.027 1471.81C160.035 1484.93 157.564 1499.28 156.613 1514.87H136.652C136.842 1502.51 139.219 1487.59 143.781 1470.1C148.534 1452.61 155.187 1435.79 163.742 1419.63C172.487 1403.47 181.802 1389.78 191.687 1378.56H114.695ZM241.305 1473.81L261.551 1472.1C263.072 1481.98 266.493 1489.4 271.816 1494.34C277.329 1499.28 283.983 1501.75 291.777 1501.75C300.902 1501.75 308.697 1498.24 315.16 1491.2C321.624 1484.17 324.855 1474.95 324.855 1463.54C324.855 1452.52 321.719 1443.87 315.445 1437.59C309.362 1431.13 301.283 1427.9 291.207 1427.9C285.124 1427.9 279.516 1429.32 274.383 1432.17C269.44 1435.03 265.543 1438.64 262.691 1443.01L244.727 1440.73L259.84 1360.31H337.973V1378.56H275.238L266.969 1420.77C276.284 1414.11 286.074 1410.79 296.34 1410.79C310.027 1410.79 321.529 1415.54 330.844 1425.04C340.349 1434.55 345.102 1446.81 345.102 1461.83C345.102 1475.9 341.014 1488.16 332.84 1498.62C322.764 1511.16 309.077 1517.44 291.777 1517.44C277.52 1517.44 265.828 1513.45 256.703 1505.46C247.768 1497.48 242.635 1486.93 241.305 1473.81Z" fill="black"/>
<path d="M58.2338 356.18H39.1288V233.56C34.3758 237.93 28.1978 242.4 20.5938 246.96C13.1798 251.34 6.52581 254.57 0.632812 256.66V238.12C11.2788 232.99 20.5938 226.91 28.5778 219.87C36.7528 212.65 42.5508 205.61 45.9728 198.77H58.2338V356.18ZM113.555 278.9C113.555 260.27 115.456 245.35 119.258 234.13C123.06 222.72 128.668 213.98 136.082 207.89C143.686 201.81 153.191 198.77 164.598 198.77C172.962 198.77 180.281 200.48 186.555 203.9C193.018 207.32 198.341 212.27 202.523 218.73C206.706 225 209.938 232.7 212.219 241.83C214.5 250.96 215.641 263.31 215.641 278.9C215.641 297.34 213.74 312.17 209.938 323.39C206.326 334.6 200.717 343.35 193.113 349.62C185.699 355.71 176.194 358.75 164.598 358.75C149.579 358.75 137.698 353.33 128.953 342.49C118.688 329.57 113.555 308.37 113.555 278.9ZM133.23 278.9C133.23 304.57 136.272 321.68 142.355 330.23C148.439 338.79 155.853 343.06 164.598 343.06C173.533 343.06 180.947 338.79 186.84 330.23C192.923 321.68 195.965 304.57 195.965 278.9C195.965 253.05 192.923 235.94 186.84 227.57C180.947 219.02 173.438 214.74 164.313 214.74C155.568 214.74 148.534 218.45 143.211 225.86C136.557 235.37 133.23 253.05 133.23 278.9ZM241.305 278.9C241.305 260.27 243.206 245.35 247.008 234.13C250.81 222.72 256.418 213.98 263.832 207.89C271.436 201.81 280.941 198.77 292.348 198.77C300.712 198.77 308.031 200.48 314.305 203.9C320.768 207.32 326.091 212.27 330.274 218.73C334.456 225 337.688 232.7 339.969 241.83C342.25 250.96 343.391 263.31 343.391 278.9C343.391 297.34 341.49 312.17 337.688 323.39C334.076 334.6 328.468 343.35 320.863 349.62C313.449 355.71 303.944 358.75 292.348 358.75C277.329 358.75 265.448 353.33 256.703 342.49C246.438 329.57 241.305 308.37 241.305 278.9ZM260.981 278.9C260.981 304.57 264.022 321.68 270.106 330.23C276.189 338.79 283.603 343.06 292.348 343.06C301.283 343.06 308.697 338.79 314.59 330.23C320.673 321.68 323.715 304.57 323.715 278.9C323.715 253.05 320.673 235.94 314.59 227.57C308.697 219.02 301.188 214.74 292.063 214.74C283.318 214.74 276.284 218.45 270.961 225.86C264.307 235.37 260.981 253.05 260.981 278.9Z" fill="black"/>
<path d="M2092.8 5209.88V5228.41H1989C1989 5223.85 1989.76 5219.38 1991.28 5215.01C1993.94 5207.97 1998.13 5201.04 2003.83 5194.19C2009.72 5187.35 2018.18 5179.46 2029.21 5170.52C2046.32 5156.46 2057.82 5145.33 2063.71 5137.16C2069.79 5128.98 2072.84 5121.28 2072.84 5114.06C2072.84 5106.46 2070.08 5100.09 2064.57 5094.95C2059.05 5089.63 2051.92 5086.97 2043.18 5086.97C2033.86 5086.97 2026.45 5089.73 2020.94 5095.24C2015.42 5100.75 2012.57 5108.45 2012.38 5118.34L1992.71 5116.34C1994.04 5101.51 1999.08 5090.3 2007.82 5082.69C2016.76 5074.9 2028.73 5071 2043.75 5071C2058.77 5071 2070.65 5075.18 2079.39 5083.55C2088.14 5091.91 2092.51 5102.27 2092.51 5114.63C2092.51 5120.9 2091.18 5127.08 2088.52 5133.17C2086.05 5139.06 2081.77 5145.43 2075.69 5152.27C2069.79 5158.93 2060 5168.05 2046.32 5179.65C2034.72 5189.34 2027.21 5196 2023.79 5199.61C2020.56 5203.03 2017.9 5206.45 2015.8 5209.88H2092.8ZM2119.32 5151.13C2119.32 5132.5 2121.22 5117.58 2125.02 5106.36C2128.82 5094.95 2134.43 5086.21 2141.84 5080.13C2149.45 5074.04 2158.95 5071 2170.36 5071C2178.72 5071 2186.04 5072.71 2192.32 5076.13C2198.78 5079.55 2204.1 5084.5 2208.29 5090.96C2212.47 5097.24 2215.7 5104.93 2217.98 5114.06C2220.26 5123.19 2221.4 5135.54 2221.4 5151.13C2221.4 5169.57 2219.5 5184.4 2215.7 5195.62C2212.09 5206.83 2206.48 5215.58 2198.88 5221.85C2191.46 5227.94 2181.96 5230.98 2170.36 5230.98C2155.34 5230.98 2143.46 5225.56 2134.71 5214.72C2124.45 5201.8 2119.32 5180.6 2119.32 5151.13ZM2138.99 5151.13C2138.99 5176.8 2142.03 5193.91 2148.12 5202.46C2154.2 5211.02 2161.61 5215.29 2170.36 5215.29C2179.29 5215.29 2186.71 5211.02 2192.6 5202.46C2198.69 5193.91 2201.73 5176.8 2201.73 5151.13C2201.73 5125.28 2198.69 5108.17 2192.6 5099.8C2186.71 5091.25 2179.2 5086.97 2170.07 5086.97C2161.33 5086.97 2154.3 5090.68 2148.97 5098.09C2142.32 5107.6 2138.99 5125.28 2138.99 5151.13ZM2319.5 5228.41H2300.39V5105.79C2295.64 5110.16 2289.46 5114.63 2281.86 5119.19C2274.44 5123.57 2267.79 5126.8 2261.89 5128.89V5110.35C2272.54 5105.22 2281.86 5099.14 2289.84 5092.1C2298.01 5084.88 2303.81 5077.84 2307.23 5071H2319.5V5228.41ZM2377.67 5192.2L2396.2 5190.48C2397.72 5199.23 2400.67 5205.6 2405.04 5209.59C2409.61 5213.39 2415.31 5215.29 2422.15 5215.29C2428.05 5215.29 2433.18 5213.96 2437.55 5211.3C2442.11 5208.45 2445.82 5204.84 2448.67 5200.47C2451.52 5195.9 2453.9 5189.82 2455.8 5182.22C2457.7 5174.42 2458.65 5166.53 2458.65 5158.55C2458.65 5157.6 2458.65 5156.26 2458.65 5154.55C2454.85 5160.64 2449.62 5165.68 2442.97 5169.67C2436.32 5173.47 2429.09 5175.37 2421.3 5175.37C2408.18 5175.37 2397.15 5170.71 2388.22 5161.4C2379.28 5151.89 2374.82 5139.44 2374.82 5124.04C2374.82 5108.07 2379.47 5095.24 2388.79 5085.54C2398.29 5075.85 2410.08 5071 2424.15 5071C2434.22 5071 2443.44 5073.76 2451.81 5079.27C2460.36 5084.78 2466.83 5092.67 2471.2 5102.94C2475.57 5113.01 2477.76 5127.65 2477.76 5146.85C2477.76 5166.82 2475.57 5182.79 2471.2 5194.76C2467.02 5206.55 2460.55 5215.58 2451.81 5221.85C2443.25 5227.94 2433.27 5230.98 2421.87 5230.98C2409.51 5230.98 2399.44 5227.65 2391.64 5221C2383.85 5214.15 2379.19 5204.55 2377.67 5192.2ZM2456.37 5122.9C2456.37 5111.87 2453.42 5103.13 2447.53 5096.67C2441.83 5090.2 2434.79 5086.97 2426.43 5086.97C2417.88 5086.97 2410.37 5090.49 2403.9 5097.52C2397.63 5104.36 2394.49 5113.39 2394.49 5124.61C2394.49 5134.5 2397.53 5142.58 2403.62 5148.85C2409.7 5155.12 2417.11 5158.26 2425.86 5158.26C2434.79 5158.26 2442.11 5155.12 2447.82 5148.85C2453.52 5142.58 2456.37 5133.93 2456.37 5122.9Z" fill="black"/>
<path d="M4886.8 5209.88V5228.41H4783C4783 5223.85 4783.76 5219.38 4785.28 5215.01C4787.94 5207.97 4792.13 5201.04 4797.83 5194.19C4803.72 5187.35 4812.18 5179.46 4823.21 5170.52C4840.32 5156.46 4851.82 5145.33 4857.71 5137.16C4863.79 5128.98 4866.84 5121.28 4866.84 5114.06C4866.84 5106.46 4864.08 5100.09 4858.57 5094.95C4853.05 5089.63 4845.92 5086.97 4837.18 5086.97C4827.86 5086.97 4820.45 5089.73 4814.94 5095.24C4809.42 5100.75 4806.57 5108.45 4806.38 5118.34L4786.71 5116.34C4788.04 5101.51 4793.08 5090.3 4801.82 5082.69C4810.76 5074.9 4822.73 5071 4837.75 5071C4852.77 5071 4864.65 5075.18 4873.39 5083.55C4882.14 5091.91 4886.51 5102.27 4886.51 5114.63C4886.51 5120.9 4885.18 5127.08 4882.52 5133.17C4880.05 5139.06 4875.77 5145.43 4869.69 5152.27C4863.79 5158.93 4854 5168.05 4840.32 5179.65C4828.72 5189.34 4821.21 5196 4817.79 5199.61C4814.56 5203.03 4811.9 5206.45 4809.8 5209.88H4886.8ZM4913.32 5151.13C4913.32 5132.5 4915.22 5117.58 4919.02 5106.36C4922.82 5094.95 4928.43 5086.21 4935.84 5080.13C4943.45 5074.04 4952.95 5071 4964.36 5071C4972.72 5071 4980.04 5072.71 4986.32 5076.13C4992.78 5079.55 4998.1 5084.5 5002.29 5090.96C5006.47 5097.24 5009.7 5104.93 5011.98 5114.06C5014.26 5123.19 5015.4 5135.54 5015.4 5151.13C5015.4 5169.57 5013.5 5184.4 5009.7 5195.62C5006.09 5206.83 5000.48 5215.58 4992.88 5221.85C4985.46 5227.94 4975.96 5230.98 4964.36 5230.98C4949.34 5230.98 4937.46 5225.56 4928.71 5214.72C4918.45 5201.8 4913.32 5180.6 4913.32 5151.13ZM4932.99 5151.13C4932.99 5176.8 4936.03 5193.91 4942.12 5202.46C4948.2 5211.02 4955.61 5215.29 4964.36 5215.29C4973.29 5215.29 4980.71 5211.02 4986.6 5202.46C4992.69 5193.91 4995.73 5176.8 4995.73 5151.13C4995.73 5125.28 4992.69 5108.17 4986.6 5099.8C4980.71 5091.25 4973.2 5086.97 4964.07 5086.97C4955.33 5086.97 4948.3 5090.68 4942.97 5098.09C4936.32 5107.6 4932.99 5125.28 4932.99 5151.13ZM5142.3 5209.88V5228.41H5038.5C5038.5 5223.85 5039.26 5219.38 5040.78 5215.01C5043.44 5207.97 5047.63 5201.04 5053.33 5194.19C5059.22 5187.35 5067.68 5179.46 5078.71 5170.52C5095.82 5156.46 5107.32 5145.33 5113.21 5137.16C5119.29 5128.98 5122.34 5121.28 5122.34 5114.06C5122.34 5106.46 5119.58 5100.09 5114.07 5094.95C5108.55 5089.63 5101.42 5086.97 5092.68 5086.97C5083.36 5086.97 5075.95 5089.73 5070.44 5095.24C5064.92 5100.75 5062.07 5108.45 5061.88 5118.34L5042.21 5116.34C5043.54 5101.51 5048.58 5090.3 5057.32 5082.69C5066.26 5074.9 5078.23 5071 5093.25 5071C5108.27 5071 5120.15 5075.18 5128.89 5083.55C5137.64 5091.91 5142.01 5102.27 5142.01 5114.63C5142.01 5120.9 5140.68 5127.08 5138.02 5133.17C5135.55 5139.06 5131.27 5145.43 5125.19 5152.27C5119.29 5158.93 5109.5 5168.05 5095.82 5179.65C5084.22 5189.34 5076.71 5196 5073.29 5199.61C5070.06 5203.03 5067.4 5206.45 5065.3 5209.88H5142.3ZM5168.82 5151.13C5168.82 5132.5 5170.72 5117.58 5174.52 5106.36C5178.32 5094.95 5183.93 5086.21 5191.34 5080.13C5198.95 5074.04 5208.45 5071 5219.86 5071C5228.22 5071 5235.54 5072.71 5241.82 5076.13C5248.28 5079.55 5253.6 5084.5 5257.79 5090.96C5261.97 5097.24 5265.2 5104.93 5267.48 5114.06C5269.76 5123.19 5270.9 5135.54 5270.9 5151.13C5270.9 5169.57 5269 5184.4 5265.2 5195.62C5261.59 5206.83 5255.98 5215.58 5248.38 5221.85C5240.96 5227.94 5231.46 5230.98 5219.86 5230.98C5204.84 5230.98 5192.96 5225.56 5184.22 5214.72C5173.95 5201.8 5168.82 5180.6 5168.82 5151.13ZM5188.49 5151.13C5188.49 5176.8 5191.53 5193.91 5197.62 5202.46C5203.7 5211.02 5211.12 5215.29 5219.86 5215.29C5228.79 5215.29 5236.21 5211.02 5242.1 5202.46C5248.19 5193.91 5251.23 5176.8 5251.23 5151.13C5251.23 5125.28 5248.19 5108.17 5242.1 5099.8C5236.21 5091.25 5228.7 5086.97 5219.57 5086.97C5210.83 5086.97 5203.8 5090.68 5198.47 5098.09C5191.82 5107.6 5188.49 5125.28 5188.49 5151.13Z" fill="black"/>
<path d="M7695.8 5209.88V5228.41H7592C7592 5223.85 7592.76 5219.38 7594.28 5215.01C7596.94 5207.97 7601.13 5201.04 7606.83 5194.19C7612.72 5187.35 7621.18 5179.46 7632.21 5170.52C7649.32 5156.46 7660.82 5145.33 7666.71 5137.16C7672.79 5128.98 7675.84 5121.28 7675.84 5114.06C7675.84 5106.46 7673.08 5100.09 7667.57 5094.95C7662.05 5089.63 7654.92 5086.97 7646.18 5086.97C7636.86 5086.97 7629.45 5089.73 7623.94 5095.24C7618.42 5100.75 7615.57 5108.45 7615.38 5118.34L7595.71 5116.34C7597.04 5101.51 7602.08 5090.3 7610.82 5082.69C7619.76 5074.9 7631.73 5071 7646.75 5071C7661.77 5071 7673.65 5075.18 7682.39 5083.55C7691.14 5091.91 7695.51 5102.27 7695.51 5114.63C7695.51 5120.9 7694.18 5127.08 7691.52 5133.17C7689.05 5139.06 7684.77 5145.43 7678.69 5152.27C7672.79 5158.93 7663 5168.05 7649.32 5179.65C7637.72 5189.34 7630.21 5196 7626.79 5199.61C7623.56 5203.03 7620.9 5206.45 7618.8 5209.88H7695.8ZM7722.32 5151.13C7722.32 5132.5 7724.22 5117.58 7728.02 5106.36C7731.82 5094.95 7737.43 5086.21 7744.84 5080.13C7752.45 5074.04 7761.95 5071 7773.36 5071C7781.72 5071 7789.04 5072.71 7795.32 5076.13C7801.78 5079.55 7807.1 5084.5 7811.29 5090.96C7815.47 5097.24 7818.7 5104.93 7820.98 5114.06C7823.26 5123.19 7824.4 5135.54 7824.4 5151.13C7824.4 5169.57 7822.5 5184.4 7818.7 5195.62C7815.09 5206.83 7809.48 5215.58 7801.88 5221.85C7794.46 5227.94 7784.96 5230.98 7773.36 5230.98C7758.34 5230.98 7746.46 5225.56 7737.71 5214.72C7727.45 5201.8 7722.32 5180.6 7722.32 5151.13ZM7741.99 5151.13C7741.99 5176.8 7745.03 5193.91 7751.12 5202.46C7757.2 5211.02 7764.61 5215.29 7773.36 5215.29C7782.29 5215.29 7789.71 5211.02 7795.6 5202.46C7801.69 5193.91 7804.73 5176.8 7804.73 5151.13C7804.73 5125.28 7801.69 5108.17 7795.6 5099.8C7789.71 5091.25 7782.2 5086.97 7773.07 5086.97C7764.33 5086.97 7757.3 5090.68 7751.97 5098.09C7745.32 5107.6 7741.99 5125.28 7741.99 5151.13ZM7951.3 5209.88V5228.41H7847.5C7847.5 5223.85 7848.26 5219.38 7849.78 5215.01C7852.44 5207.97 7856.63 5201.04 7862.33 5194.19C7868.22 5187.35 7876.68 5179.46 7887.71 5170.52C7904.82 5156.46 7916.32 5145.33 7922.21 5137.16C7928.29 5128.98 7931.34 5121.28 7931.34 5114.06C7931.34 5106.46 7928.58 5100.09 7923.07 5094.95C7917.55 5089.63 7910.42 5086.97 7901.68 5086.97C7892.36 5086.97 7884.95 5089.73 7879.44 5095.24C7873.92 5100.75 7871.07 5108.45 7870.88 5118.34L7851.21 5116.34C7852.54 5101.51 7857.58 5090.3 7866.32 5082.69C7875.26 5074.9 7887.23 5071 7902.25 5071C7917.27 5071 7929.15 5075.18 7937.89 5083.55C7946.64 5091.91 7951.01 5102.27 7951.01 5114.63C7951.01 5120.9 7949.68 5127.08 7947.02 5133.17C7944.55 5139.06 7940.27 5145.43 7934.19 5152.27C7928.29 5158.93 7918.5 5168.05 7904.82 5179.65C7893.22 5189.34 7885.71 5196 7882.29 5199.61C7879.06 5203.03 7876.4 5206.45 7874.3 5209.88H7951.3ZM8050.25 5228.41H8031.14V5105.79C8026.39 5110.16 8020.21 5114.63 8012.61 5119.19C8005.19 5123.57 7998.54 5126.8 7992.64 5128.89V5110.35C8003.29 5105.22 8012.61 5099.14 8020.59 5092.1C8028.76 5084.88 8034.56 5077.84 8037.98 5071H8050.25V5228.41Z" fill="black"/>
<path d="M3574 18.25C3574 8.17 3582.17 0 3592.25 0H3774.75C3784.83 0 3793 8.17 3793 18.25V200.76C3793 210.84 3784.83 219.01 3774.75 219.01H3592.25C3582.17 219.01 3574 210.84 3574 200.76V18.25Z" fill="#1155CC"/>
<path d="M4012.57 44.49V24.52H4031.96V44.49C4051.92 45.63 4067.7 51.71 4079.3 62.74C4090.89 73.57 4096.69 87.07 4096.69 103.23C4096.69 119.2 4091.08 132.79 4079.87 144.01C4068.65 155.04 4052.68 161.12 4031.96 162.26V182.51H4012.57V162.26C3994.13 161.5 3978.73 155.89 3966.38 145.44C3954.02 134.79 3947.84 120.72 3947.84 103.23C3947.84 85.93 3953.92 72.05 3966.09 61.6C3978.45 50.95 3993.94 45.25 4012.57 44.49ZM4031.96 62.17V144.29C4045.46 143.72 4056.01 139.92 4063.61 132.89C4071.41 125.66 4075.3 115.78 4075.3 103.23C4075.3 91.06 4071.5 81.4601 4063.9 74.4301C4056.29 67.2001 4045.65 63.12 4031.96 62.17ZM4012.57 62.45C3999.64 63.02 3989.19 66.82 3981.2 73.86C3973.22 80.89 3969.23 90.68 3969.23 103.23C3969.23 115.78 3973.12 125.66 3980.92 132.89C3988.9 139.92 3999.45 143.72 4012.57 144.29V62.45ZM4191.93 168.53C4184.71 174.62 4177.77 178.89 4171.12 181.37C4164.65 183.84 4157.62 185.07 4150.02 185.07C4137.47 185.07 4127.87 182.03 4121.21 175.95C4114.56 169.86 4111.23 162.07 4111.23 152.56C4111.23 147.05 4112.47 142.01 4114.94 137.45C4117.41 132.7 4120.74 128.99 4124.92 126.33C4129.1 123.48 4133.76 121.39 4138.89 120.06C4142.51 118.91 4148.21 117.87 4156 116.92C4171.4 115.21 4182.81 113.02 4190.22 110.36C4190.22 107.7 4190.22 106.08 4190.22 105.51C4190.22 97.53 4188.42 91.9199 4184.8 88.6899C4179.86 84.4999 4172.54 82.41 4162.85 82.41C4153.91 82.41 4147.26 84.03 4142.89 87.26C4138.51 90.3 4135.28 95.82 4133.19 103.8L4114.37 101.23C4116.08 93.25 4118.93 86.79 4122.93 81.84C4126.92 76.9 4132.62 73.0999 4140.04 70.4399C4147.45 67.7699 4156 66.4399 4165.7 66.4399C4175.39 66.4399 4183.28 67.58 4189.37 69.87C4195.45 72.15 4199.92 75 4202.77 78.42C4205.62 81.84 4207.62 86.22 4208.76 91.54C4209.33 94.77 4209.61 100.66 4209.61 109.22V134.88C4209.61 152.75 4209.99 164.07 4210.75 168.82C4211.7 173.57 4213.42 178.13 4215.89 182.51H4195.64C4193.74 178.51 4192.5 173.86 4191.93 168.53ZM4190.22 125.47C4183.19 128.33 4172.73 130.8 4158.86 132.89C4150.87 134.03 4145.26 135.36 4142.03 136.88C4138.8 138.21 4136.23 140.21 4134.33 142.87C4132.62 145.53 4131.77 148.57 4131.77 151.99C4131.77 157.13 4133.67 161.4 4137.47 164.83C4141.46 168.25 4147.16 169.96 4154.58 169.96C4161.99 169.96 4168.55 168.34 4174.25 165.11C4180.15 161.88 4184.42 157.41 4187.09 151.71C4189.18 147.34 4190.22 140.97 4190.22 132.6V125.47ZM4245.26 69.01H4264.65V118.06C4270.73 118.06 4275.01 116.92 4277.48 114.64C4279.95 112.17 4283.56 105.23 4288.32 93.8199C4292.12 84.8799 4295.16 78.99 4297.44 76.14C4299.91 73.29 4302.67 71.3899 4305.71 70.4399C4308.75 69.4899 4313.7 69.01 4320.54 69.01H4324.25V84.98L4318.83 84.6899C4313.89 84.6899 4310.65 85.46 4309.13 86.98C4307.61 88.5 4305.33 93.15 4302.29 100.95C4299.44 108.36 4296.78 113.5 4294.3 116.35C4291.83 119.2 4288.13 121.86 4283.18 124.33C4291.36 126.42 4299.44 134.12 4307.42 147.43L4328.52 182.51H4307.42L4286.89 147.43C4282.71 140.21 4279 135.55 4275.77 133.46C4272.73 131.18 4269.02 130.04 4264.65 130.04V182.51H4245.26V69.01ZM4344.49 69.01H4436.88V84.98H4400.38V182.51H4381.28V84.98H4344.49V69.01Z" fill="#1A1A1A"/>
<path d="M4723.75 18.25C4723.75 8.17 4731.92 0 4742 0H4924.5C4934.58 0 4942.75 8.17 4942.75 18.25V200.76C4942.75 210.84 4934.58 219.01 4924.5 219.01H4742C4731.92 219.01 4723.75 210.84 4723.75 200.76V18.25Z" fill="#C9DAF8"/>
<path d="M5100.86 25.6699H5224.05V182.51H5203.23V44.1998H5121.68V182.51H5100.86V25.6699ZM5271.95 69.0099H5361.21V182.51H5342.1V84.9799H5291.06V141.44C5291.06 154.56 5290.58 163.31 5289.63 167.68C5288.87 171.86 5286.59 175.57 5282.79 178.8C5278.99 181.84 5273.38 183.36 5265.96 183.36C5261.59 183.36 5256.46 183.08 5250.57 182.51V166.25H5259.12C5263.11 166.25 5265.96 165.87 5267.68 165.11C5269.39 164.35 5270.53 163.12 5271.1 161.4C5271.67 159.5 5271.95 153.61 5271.95 143.72V69.0099ZM5464.43 168.53C5457.21 174.62 5450.27 178.89 5443.62 181.37C5437.15 183.84 5430.12 185.07 5422.52 185.07C5409.97 185.07 5400.37 182.03 5393.71 175.95C5387.06 169.86 5383.73 162.07 5383.73 152.56C5383.73 147.05 5384.97 142.01 5387.44 137.45C5389.91 132.7 5393.24 128.99 5397.42 126.33C5401.6 123.48 5406.26 121.39 5411.39 120.06C5415.01 118.91 5420.71 117.87 5428.5 116.92C5443.9 115.21 5455.31 113.02 5462.72 110.36C5462.72 107.7 5462.72 106.08 5462.72 105.51C5462.72 97.5299 5460.92 91.9198 5457.3 88.6898C5452.36 84.4998 5445.04 82.4099 5435.35 82.4099C5426.41 82.4099 5419.76 84.0299 5415.39 87.2599C5411.01 90.2999 5407.78 95.8199 5405.69 103.8L5386.87 101.23C5388.58 93.2499 5391.43 86.7898 5395.43 81.8398C5399.42 76.8998 5405.12 73.0998 5412.53 70.4398C5419.95 67.7698 5428.5 66.4398 5438.2 66.4398C5447.89 66.4398 5455.78 67.5799 5461.87 69.8699C5467.95 72.1499 5472.42 74.9999 5475.27 78.4199C5478.12 81.8399 5480.12 86.2199 5481.26 91.5399C5481.83 94.7699 5482.11 100.66 5482.11 109.22V134.88C5482.11 152.75 5482.49 164.07 5483.25 168.82C5484.2 173.57 5485.91 178.13 5488.39 182.51H5468.14C5466.24 178.51 5465 173.86 5464.43 168.53ZM5462.72 125.47C5455.69 128.33 5445.23 130.8 5431.35 132.89C5423.37 134.03 5417.76 135.36 5414.53 136.88C5411.3 138.21 5408.73 140.21 5406.83 142.87C5405.12 145.53 5404.27 148.57 5404.27 151.99C5404.27 157.13 5406.17 161.4 5409.97 164.83C5413.96 168.25 5419.66 169.96 5427.08 169.96C5434.49 169.96 5441.05 168.34 5446.75 165.11C5452.65 161.88 5456.92 157.41 5459.59 151.71C5461.68 147.34 5462.72 140.97 5462.72 132.6V125.47ZM5518.04 69.0099H5537.43V116.06H5590.76V69.0099H5609.86V182.51H5590.76V132.03H5537.43V182.51H5518.04V69.0099Z" fill="#1A1A1A"/>
</svg>
