<svg width="600" height="400" viewBox="0 0 600 400" fill="none" xmlns="http://www.w3.org/2000/svg">
<path d="M428.36 279.612C425.291 283.598 414.78 285.326 418.236 274.674C425.432 252.663 444.092 224.056 456.931 217.672C462.893 214.709 463.104 220.67 461.341 227.584C459.295 235.555 451.993 241.658 446.49 250.547C439.471 261.905 433.192 273.298 428.36 279.612Z" fill="#BBF2F0"/>
<path d="M461.835 225.397C461.693 226.102 461.529 226.831 461.341 227.584C459.295 235.555 451.993 241.658 446.491 250.547C439.471 261.905 433.193 273.298 428.36 279.612C427.443 280.776 425.891 281.764 424.233 282.293C424.374 281.963 424.539 281.611 424.727 281.234C434.427 261.27 451.253 235.767 461.835 225.397Z" fill="#8BBBE8"/>
<path d="M463.457 237.249V184.656C463.457 176.332 465.715 169.912 470.653 165.608C472.452 164.021 475.45 162.257 478.695 162.081C479.753 161.199 481.905 159.788 484.868 159.788C497.037 159.788 503.81 169.735 506.067 184.55C507.302 192.663 509.383 219.189 510.194 229.242C510.371 231.358 510.476 232.734 510.512 233.016L510.935 237.249H463.457Z" fill="#2F3B7A"/>
<path d="M502.117 228.007C503.422 224.48 505.327 220.106 504.656 216.12C503.774 211.111 500.529 207.443 500.388 202.293C500.247 196.79 503.492 190.864 502.469 186.102C501.2 180.212 493.686 177.002 490.759 173.51C484.586 166.173 485.609 157.002 495.379 162.892C500.424 165.961 500.494 169.453 504.48 173.545C507.866 177.037 512.028 178.871 514.286 181.905C518.237 187.231 516.473 192.134 517.39 197.531C518.272 202.645 522.505 205.679 524.304 211.358C527.408 221.023 521.129 236.931 507.408 237.249C498.554 237.354 499.965 233.968 502.117 228.007V228.007Z" fill="#1E2859"/>
<path d="M510.159 290.441C510.476 292.663 511.57 300 512.84 309.206H451.993C455.027 298.307 457.355 288.536 457.249 282.54C456.755 242.363 445.291 221.94 461.834 214.885C467.302 212.557 476.402 209.065 484.55 210.018C493.087 211.076 499.189 213.404 504.586 216.085C517.919 222.716 505.644 260.459 510.159 290.441V290.441Z" fill="url(#paint0_linear_28_332)"/>
<path d="M479.224 232.487C474.392 232.487 469.947 218.765 471.711 214.603C473.439 210.582 478.201 210.829 478.519 205.608C478.625 204.198 478.695 199.894 478.625 196.437C480.847 197.39 484.903 194.85 487.337 191.323C487.337 197.284 487.09 202.046 487.69 205.679C488.678 211.64 492.699 211.958 492.91 215.344C493.193 220.212 483.422 232.487 479.224 232.487Z" fill="url(#paint1_linear_28_332)"/>
<path d="M487.337 191.323C487.337 194.321 487.266 197.002 487.302 199.436C484.692 204.233 480.423 204.127 478.625 202.187C478.66 200.423 478.66 198.307 478.625 196.437C480.847 197.39 484.903 194.85 487.337 191.323V191.323Z" fill="#D6969B"/>
<path d="M490.018 184.233C489.7 191.111 485.009 198.06 479.788 198.06C476.473 198.06 470.97 191.746 472.064 182.61C472.416 179.506 471.358 177.213 472.169 174.462C472.945 171.922 474.815 170.123 477.037 169.312C477.355 175.062 483.598 182.681 490.018 184.233V184.233Z" fill="#FACBCE"/>
<path d="M492.205 186.173C491.605 188.148 490.476 189.7 488.96 189.524C488.219 189.418 488.254 187.548 488.325 185.573C488.36 184.409 488.748 182.787 490.723 182.681C492.275 182.61 492.769 184.197 492.205 186.173V186.173Z" fill="url(#paint2_linear_28_332)"/>
<path d="M417.39 280.035C417.249 276.578 420.424 272.452 423.457 270.194C430.335 265.15 441.341 263.457 453.298 255.273C456.05 253.404 459.048 249.453 460.67 247.478C462.187 245.573 468.219 243.81 469.383 243.457C470.653 243.069 472.275 243.351 474.639 243.774C477.602 244.339 480.318 245.044 480.565 245.644C481.27 247.196 478.73 246.914 476.826 246.914C474.639 246.949 474.11 246.914 473.192 248.783C471.817 251.534 470.371 255.697 468.572 256.861C466.491 258.272 464.409 257.213 460.141 258.589C457.214 259.541 452.487 263.422 451.182 264.444C443.951 270.088 433.51 280.741 425.362 282.787C421.729 283.704 417.531 284.127 417.39 280.035V280.035Z" fill="url(#paint3_linear_28_332)"/>
<path d="M417.496 281.376C416.614 278.624 417.954 279.365 419.859 279.965C422.434 280.741 425.009 280.776 427.831 280.035C433.016 278.66 437.108 274.674 441.023 271.252C445.609 267.161 450.3 262.575 455.344 258.942C458.554 256.614 467.055 257.178 466.491 257.637C465.926 258.06 461.729 257.425 457.637 259.929C453.757 262.293 446.42 268.501 441.94 272.628C437.637 276.543 432.24 280.564 427.196 282.716C425.291 283.527 418.66 284.938 417.496 281.376V281.376Z" fill="url(#paint4_linear_28_332)"/>
<path d="M481.552 191.287C481.728 191.534 480.176 192.346 478.624 192.346C476.332 192.31 475.591 191.534 475.697 191.358C475.803 191.076 476.508 191.041 478.695 190.97C480.494 190.899 481.411 191.076 481.552 191.287Z" fill="white"/>
<path d="M474.004 183.422C474.004 183.422 474.004 183.457 473.968 183.457C473.968 183.492 473.968 183.492 473.968 183.492C473.968 183.516 473.957 183.527 473.933 183.527C473.91 183.551 473.863 183.563 473.792 183.563C473.792 183.563 473.78 183.563 473.757 183.563C473.298 183.422 472.981 183.069 473.016 182.61C473.016 182.187 473.298 181.834 473.651 181.764C473.675 181.764 473.686 181.764 473.686 181.764C473.71 181.764 473.733 181.775 473.757 181.799C473.78 181.799 473.804 181.811 473.827 181.834C473.851 181.834 473.863 181.834 473.863 181.834C473.863 181.834 473.863 181.87 473.898 181.905C473.898 181.905 473.898 181.94 473.933 181.94C473.933 181.94 473.921 181.952 473.898 181.975C473.898 181.999 473.898 182.022 473.898 182.046C473.898 182.069 473.886 182.093 473.863 182.116C473.863 182.116 473.863 182.128 473.863 182.152C473.651 182.363 473.686 182.892 473.968 183.21C473.992 183.233 474.004 183.269 474.004 183.316C474.004 183.339 474.004 183.363 474.004 183.386C474.004 183.386 474.004 183.398 474.004 183.422V183.422Z" fill="#1E2859"/>
<path d="M483.563 183.422C483.527 183.492 483.457 183.563 483.351 183.563C483.328 183.563 483.316 183.563 483.316 183.563C483.316 183.563 483.304 183.563 483.281 183.563C482.822 183.422 482.54 183.069 482.54 182.61C482.54 182.187 482.822 181.834 483.21 181.764C483.234 181.764 483.257 181.775 483.281 181.799C483.328 181.799 483.363 181.811 483.386 181.834C483.422 181.869 483.457 181.905 483.457 181.94C483.457 182.011 483.457 182.081 483.386 182.116C483.386 182.14 483.386 182.152 483.386 182.152C483.175 182.363 483.21 182.892 483.492 183.21C483.539 183.257 483.563 183.304 483.563 183.351C483.563 183.386 483.563 183.386 483.563 183.422V183.422Z" fill="#1E2859"/>
<path d="M486.773 180.564C486.738 180.6 486.738 180.6 486.702 180.6C486.702 180.635 486.667 180.67 486.632 180.67C486.632 180.67 486.596 180.67 486.561 180.67C486.561 180.635 486.526 180.67 486.491 180.635C486.032 180.388 485.468 180.247 484.762 180.141C483.104 179.965 481.376 180.212 479.859 180.952C479.836 180.952 479.812 180.952 479.789 180.952C479.742 180.952 479.706 180.952 479.683 180.952C479.683 180.929 479.671 180.917 479.648 180.917C479.648 180.894 479.636 180.87 479.612 180.846C479.612 180.811 479.612 180.811 479.612 180.776C479.612 180.741 479.612 180.741 479.612 180.705C479.612 180.67 479.648 180.67 479.648 180.635C479.683 180.635 479.683 180.6 479.683 180.6C479.683 180.6 479.695 180.6 479.718 180.6C481.376 179.647 482.893 179.365 484.868 179.612C485.468 179.682 486.103 179.929 486.702 180.317L486.738 180.353C486.738 180.388 486.773 180.388 486.773 180.423C486.773 180.458 486.773 180.458 486.773 180.494C486.773 180.529 486.773 180.529 486.773 180.564V180.564Z" fill="#1E2859"/>
<path d="M478.342 188.924C478.342 188.995 478.236 189.065 478.166 189.065C478.142 189.065 478.119 189.065 478.095 189.065C477.978 189.018 477.848 188.983 477.707 188.959C476.755 188.712 475.732 188.43 475.908 187.09C475.944 186.772 476.085 186.208 476.191 185.573C476.473 184.162 476.861 182.222 476.79 181.411C476.767 181.223 476.696 181.046 476.579 180.882C476.543 180.847 476.508 180.847 476.508 180.811C476.367 180.67 476.191 180.541 475.979 180.423C474.886 179.894 472.945 179.965 471.993 180.529C471.97 180.529 471.958 180.529 471.958 180.529C471.958 180.564 471.923 180.529 471.923 180.564C471.887 180.564 471.852 180.564 471.817 180.564C471.77 180.564 471.723 180.541 471.676 180.494C471.64 180.388 471.64 180.247 471.746 180.212C473.087 179.365 475.697 179.118 476.826 180.564C476.849 180.588 476.873 180.611 476.896 180.635C476.896 180.658 476.896 180.67 476.896 180.67C477.061 180.882 477.155 181.117 477.178 181.376C477.284 182.257 476.896 184.127 476.579 185.644C476.473 186.279 476.332 186.808 476.296 187.125C476.191 188.113 476.755 188.289 477.813 188.571C477.954 188.595 478.095 188.63 478.237 188.677C478.307 188.712 478.378 188.818 478.342 188.924V188.924Z" fill="#1E2859"/>
<path d="M487.901 189.206C487.901 190.653 486.702 191.817 485.256 191.817C483.774 191.817 482.61 190.653 482.61 189.206C482.61 187.725 483.774 186.561 485.256 186.561C486.702 186.561 487.901 187.725 487.901 189.206Z" fill="#FAAFC2"/>
<path d="M474.815 189.171C474.815 190.511 474.145 191.57 473.298 191.781C472.663 190.37 472.24 188.748 472.028 186.949C472.311 186.702 472.628 186.561 472.981 186.561C473.968 186.561 474.815 187.725 474.815 189.171V189.171Z" fill="#FAAFC2"/>
<path d="M512.84 309.206H482.081C487.654 307.548 496.226 304.268 498.201 299.894C500.776 294.074 498.73 290.088 497.425 285.503C496.085 280.741 496.79 277.213 498.73 272.593C500.635 268.078 503.139 264.832 503.774 259.929C504.48 254.603 502.152 249.771 501.658 244.586C501.199 239.647 503.034 234.78 506.808 231.429C507.161 231.076 509.065 229.735 510.759 228.818C512.205 244.021 506.949 269.171 510.159 290.441C510.476 292.663 511.535 300 512.84 309.206V309.206Z" fill="url(#paint5_linear_28_332)"/>
<path d="M541.058 277.319C541.058 286.878 530.124 284.797 525.009 277.072C520.847 270.758 523.351 267.654 518.977 257.143C514.498 246.49 505.891 241.623 502.857 233.263C499.894 225.15 494.603 206.596 514.11 221.693C524.692 229.877 541.058 259.4 541.058 277.319V277.319Z" fill="url(#paint6_linear_28_332)"/>
<path d="M534.145 284.056C529.383 284.233 510.794 275.414 501.517 271.887C499.93 271.252 494.392 268.854 491.217 268.818C486.632 268.783 480.917 269.841 478.448 269.1C475.168 268.148 468.219 263.245 467.972 261.905C467.643 260.141 472.934 259.412 483.845 259.718C480.341 256.919 479.542 255.673 481.446 255.979C484.409 256.437 487.055 256.79 489.136 258.201C491.288 259.718 495.097 263.139 498.342 264.056C511.676 267.725 526.42 269.1 533.087 270.899C537.108 271.993 540.106 274.462 540.635 277.989C541.27 282.011 540.494 283.809 534.145 284.056V284.056Z" fill="url(#paint7_linear_28_332)"/>
<path d="M483.845 259.718L470.3 261.235L464.021 250.829L477.566 249.277L483.845 259.718Z" fill="white"/>
<path opacity="0.5" d="M195.132 303.633L222.716 154.815C223.139 152.593 225.079 150.97 227.372 150.97H423.81C426.737 150.97 428.995 153.651 428.43 156.543L400.847 305.362C400.423 307.584 398.483 309.206 396.19 309.206H199.753C196.825 309.206 194.568 306.526 195.132 303.633V303.633Z" fill="url(#paint8_linear_28_332)"/>
<g opacity="0.5">
<path opacity="0.5" d="M357.919 162.081L366.491 115.873C366.667 114.956 367.443 114.321 368.36 114.321H379.083C380.282 114.321 381.164 115.379 380.953 116.543L372.381 162.751C372.205 163.668 371.429 164.303 370.512 164.303H359.789C358.589 164.303 357.708 163.245 357.919 162.081V162.081Z" fill="url(#paint9_linear_28_332)"/>
<path opacity="0.5" d="M338.237 162.081L344.409 128.712C344.586 127.831 345.362 127.16 346.279 127.16H357.002C358.201 127.16 359.118 128.254 358.871 129.418L352.699 162.751C352.522 163.668 351.746 164.303 350.829 164.303H340.106C338.907 164.303 338.025 163.245 338.237 162.081V162.081Z" fill="url(#paint10_linear_28_332)"/>
<path opacity="0.5" d="M318.554 162.081L325.362 125.291C325.538 124.409 326.314 123.739 327.231 123.739H337.954C339.154 123.739 340.035 124.832 339.824 125.996L333.016 162.751C332.84 163.668 332.064 164.303 331.147 164.303H320.423C319.224 164.303 318.342 163.245 318.554 162.081V162.081Z" fill="url(#paint11_linear_28_332)"/>
<path opacity="0.5" d="M298.871 162.081L304.127 133.827C304.268 132.91 305.079 132.275 305.997 132.275H316.72C317.884 132.275 318.801 133.333 318.589 134.533L313.333 162.751C313.157 163.668 312.381 164.303 311.464 164.303H300.741C299.541 164.303 298.66 163.245 298.871 162.081V162.081Z" fill="url(#paint12_linear_28_332)"/>
<path opacity="0.5" d="M279.189 162.081L282.504 143.598C282.681 142.681 283.457 142.046 284.374 142.046H295.097C296.296 142.046 297.213 143.104 296.966 144.268L293.651 162.751C293.474 163.668 292.698 164.303 291.781 164.303H281.058C279.859 164.303 278.977 163.245 279.189 162.081Z" fill="url(#paint13_linear_28_332)"/>
<path opacity="0.5" d="M259.507 162.081L261.976 148.783C262.152 147.901 262.928 147.231 263.845 147.231H274.568C275.768 147.231 276.649 148.324 276.438 149.489L273.969 162.751C273.792 163.668 273.016 164.303 272.099 164.303H261.376C260.177 164.303 259.295 163.245 259.507 162.081Z" fill="url(#paint14_linear_28_332)"/>
<path opacity="0.5" d="M239.824 162.081L243.245 143.668C243.422 142.787 244.198 142.116 245.115 142.116H255.838C257.037 142.116 257.919 143.21 257.708 144.374L254.286 162.751C254.11 163.668 253.334 164.303 252.417 164.303H241.693C240.529 164.303 239.612 163.245 239.824 162.081Z" fill="url(#paint15_linear_28_332)"/>
<path opacity="0.5" d="M220.141 162.081L225.785 131.711C225.961 130.794 226.737 130.159 227.655 130.159H238.378C239.577 130.159 240.459 131.252 240.247 132.416L234.603 162.751C234.427 163.668 233.651 164.303 232.734 164.303H222.011C220.847 164.303 219.93 163.245 220.141 162.081V162.081Z" fill="url(#paint16_linear_28_332)"/>
<path opacity="0.5" d="M200.459 162.081L204.268 141.587C204.445 140.67 205.221 140.035 206.138 140.035H216.861C218.06 140.035 218.942 141.093 218.73 142.257L214.921 162.751C214.78 163.668 213.968 164.303 213.051 164.303H202.328C201.164 164.303 200.247 163.245 200.459 162.081Z" fill="url(#paint17_linear_28_332)"/>
</g>
<path opacity="0.5" d="M439.083 164.303H396.402L397.143 160.388H439.824L439.083 164.303Z" fill="#5192D6"/>
<g opacity="0.5">
<path opacity="0.5" d="M306.208 295.309H158.413L159.154 291.358H306.949L306.208 295.309Z" fill="#5192D6"/>
<path opacity="0.5" d="M304.762 303.21H231.464L232.205 299.259H305.468L304.762 303.21Z" fill="#5192D6"/>
<path opacity="0.5" d="M303.316 311.111H217.99L218.695 307.161H304.021L303.316 311.111Z" fill="#5192D6"/>
<path opacity="0.5" d="M301.834 319.012H273.475L274.18 315.062H302.575L301.834 319.012Z" fill="#5192D6"/>
</g>
<path opacity="0.5" d="M312.099 263.527H273.616L274.356 259.612H312.84L312.099 263.527Z" fill="#5192D6"/>
<path opacity="0.5" d="M310.688 271.429H296.261L296.967 267.513H311.393L310.688 271.429Z" fill="#5192D6"/>
<path d="M439.401 164.727H380.353V163.915H438.766L439.436 160.317L440.212 160.459L439.401 164.727Z" fill="#1D43B8"/>
<path d="M312.416 263.951H258.236V263.139H311.781L312.451 259.541L313.228 259.682L312.416 263.951Z" fill="#1D43B8"/>
<path d="M311.006 271.817H274.004V271.041H310.335L311.006 267.443L311.782 267.584L311.006 271.817Z" fill="#1D43B8"/>
<path fill-rule="evenodd" clip-rule="evenodd" d="M231.676 194.321C215.132 194.321 204.162 180.882 207.231 164.303C210.265 147.76 226.208 134.321 242.787 134.321C259.33 134.321 270.3 147.76 267.231 164.303C264.198 180.882 248.219 194.321 231.676 194.321ZM242.504 135.661C226.737 135.661 211.499 148.536 208.571 164.303C205.644 180.106 216.12 192.981 231.922 192.981C247.725 192.981 262.963 180.106 265.891 164.303C268.818 148.536 258.307 135.661 242.504 135.661V135.661Z" fill="#4399F0"/>
<path d="M268.607 164.303H264.515C267.302 149.277 257.32 137.002 242.258 137.002L243.034 132.945C260.318 132.945 271.782 147.019 268.607 164.303V164.303Z" fill="#2060C9"/>
<g opacity="0.5">
<path opacity="0.5" d="M210.476 187.654C205.221 181.517 203.21 173.227 204.833 164.303C208.148 146.455 225.362 131.922 243.21 131.922L242.081 138.025C227.584 138.025 213.616 149.841 210.935 164.303C209.594 171.534 211.217 178.272 215.52 183.28L210.476 187.654Z" fill="#FA6496"/>
</g>
<path d="M417.977 132.489C417.977 137.744 413.744 141.977 408.489 141.977C403.233 141.977 399 137.744 399 132.489C399 127.233 403.233 123 408.489 123C413.744 123 417.977 127.233 417.977 132.489Z" fill="#4399F0"/>
<path d="M407.466 137.18L402.527 132.242C402.386 132.101 402.386 131.854 402.527 131.677L403.797 130.443C403.974 130.266 404.221 130.266 404.362 130.443L407.466 133.547C407.607 133.688 407.889 133.688 408.03 133.547L412.616 128.961C412.757 128.785 413.004 128.785 413.18 128.961L414.415 130.231C414.591 130.372 414.591 130.619 414.415 130.76L408.03 137.18C407.889 137.321 407.607 137.321 407.466 137.18Z" fill="white"/>
<path d="M322.963 117.46C322.963 118.66 317.637 119.612 311.111 119.612C304.586 119.612 299.295 118.66 299.295 117.46C299.295 116.296 304.586 115.344 311.111 115.344C317.637 115.344 322.963 116.296 322.963 117.46Z" fill="#CBF3F0"/>
<path d="M311.112 117.46L304.127 108.36C302.752 106.737 301.905 104.656 301.905 102.363C301.905 97.284 306.032 93.157 311.112 93.157C316.191 93.157 320.318 97.284 320.318 102.363C320.318 104.656 319.471 106.737 318.096 108.36L311.112 117.46Z" fill="#49E5C7"/>
<path d="M316.402 102.363C316.402 105.291 314.039 107.654 311.111 107.654C308.184 107.654 305.82 105.291 305.82 102.363C305.82 99.4356 308.184 97.037 311.111 97.037C314.039 97.037 316.402 99.4356 316.402 102.363Z" fill="white"/>
<path d="M396.191 309.594H199.753V308.818H396.191C398.272 308.818 400.071 307.337 400.459 305.291L428.043 156.473L428.819 156.614L401.235 305.432C400.776 307.866 398.66 309.594 396.191 309.594V309.594Z" fill="#1D43B8"/>
<path opacity="0.5" d="M397.531 248.924H217.637C226.067 230.688 239.965 209.7 249.101 209.7C257.249 209.7 260.705 230.97 269.771 230.97C279.718 230.97 286.808 215.344 298.236 215.344C307.443 215.344 307.407 220.388 316.402 220.388C331.817 220.388 347.654 180.67 364.974 180.67C375.626 180.67 378.025 195.556 386.667 195.556C395.344 195.556 397.848 187.584 408.818 187.584L397.531 248.924Z" fill="url(#paint18_linear_28_332)"/>
<path d="M217.884 249.453L217.178 249.065C217.625 248.313 218.084 247.549 218.554 246.772C224.268 237.072 230.723 226.102 238.025 224.691C240.882 224.092 243.669 226.455 246.596 228.924C249.171 231.076 251.817 233.333 254.427 233.333C259.612 233.333 264.903 228.854 270.476 224.127C276.12 219.365 281.975 214.392 287.901 214.392C293.333 214.392 297.39 219.118 301.658 224.127C306.173 229.383 310.794 234.78 317.284 234.78C322.434 234.78 327.231 232.24 331.887 229.806C336.579 227.337 341.446 224.762 346.702 224.762C351.041 224.762 354.356 226.526 357.884 228.43C361.658 230.441 365.573 232.522 371.182 232.522C376.085 232.522 380.035 227.302 384.233 221.728C389.559 214.674 395.591 206.667 405.221 206.667V207.478C395.979 207.478 390.053 215.309 384.833 222.222C380.529 227.937 376.473 233.333 371.182 233.333C365.362 233.333 361.376 231.182 357.496 229.101C354.074 227.302 350.864 225.573 346.702 225.573C341.658 225.573 336.861 228.078 332.275 230.512C327.513 232.981 322.61 235.591 317.284 235.591C310.441 235.591 305.679 230.018 301.058 224.656C296.896 219.788 292.945 215.168 287.901 215.168C282.293 215.168 276.543 220.035 270.97 224.727C265.291 229.559 259.894 234.109 254.427 234.109C251.534 234.109 248.748 231.781 246.067 229.524C243.316 227.161 240.67 224.974 238.166 225.467C231.217 226.808 224.833 237.637 219.224 247.161C218.777 247.937 218.33 248.701 217.884 249.453V249.453Z" fill="#1D43B8"/>
<path fill-rule="evenodd" clip-rule="evenodd" d="M384.515 293.263C381.305 310.653 364.621 324.762 347.231 324.762C329.841 324.762 318.342 310.653 321.552 293.263C324.762 275.873 341.482 261.764 358.871 261.764C376.261 261.764 387.725 275.873 384.515 293.263ZM372.169 293.263C374.109 282.716 367.125 274.145 356.578 274.145C346.032 274.145 335.873 282.716 333.933 293.263C333.086 297.742 333.862 301.869 335.838 305.115C338.519 309.559 343.422 312.381 349.524 312.381C360.071 312.381 370.229 303.81 372.169 293.263V293.263Z" fill="url(#paint19_linear_28_332)"/>
<path d="M337.178 285.256L326.914 280.071C333.898 269.277 346.173 261.764 358.871 261.764L356.579 274.145C348.889 274.145 341.411 278.695 337.178 285.256Z" fill="url(#paint20_linear_28_332)"/>
<path fill-rule="evenodd" clip-rule="evenodd" d="M347.231 325.15C337.108 325.15 328.677 320.494 324.057 312.416L324.727 312.028C329.207 319.859 337.39 324.339 347.231 324.339C364.409 324.339 380.953 310.37 384.127 293.192C385.609 285.291 384.021 277.778 379.718 272.028L380.353 271.57C384.797 277.496 386.42 285.22 384.903 293.333C381.693 310.864 364.762 325.15 347.231 325.15V325.15ZM335.838 305.82C333.475 302.293 332.663 297.813 333.545 293.192C335.52 282.469 345.856 273.757 356.579 273.757C362.434 273.757 367.443 276.331 370.371 280.846L369.7 281.305C366.949 277.002 362.152 274.533 356.579 274.533C346.208 274.533 336.226 282.963 334.321 293.333C333.475 297.742 334.251 302.046 336.473 305.397L335.838 305.82Z" fill="#1D43B8"/>
<path d="M119.577 129.171C119.577 134.533 115.238 138.871 109.877 138.871C104.515 138.871 100.177 134.533 100.177 129.171C100.177 123.81 104.515 119.471 109.877 119.471C115.238 119.471 119.577 123.81 119.577 129.171Z" fill="#4793EE"/>
<path d="M114.498 132.099L109.489 129.418V121.376H110.265V128.924L114.886 131.393L114.498 132.099Z" fill="white"/>
<path opacity="0.5" d="M124.939 115.626H73.8979L77.0726 98.5185H128.113L124.939 115.626Z" fill="url(#paint21_linear_28_332)"/>
<path fill-rule="evenodd" clip-rule="evenodd" d="M154.991 98.1305L151.676 116.014H124.48L127.76 98.1305H154.991ZM137.284 107.584L126.208 115.238H150.371L142.117 107.584L140.847 108.43C140.424 108.748 139.93 108.889 139.471 108.889C138.977 108.889 138.519 108.748 138.201 108.395L137.284 107.584ZM153.228 98.9418H129.101L138.695 107.866C139.118 108.219 139.824 108.219 140.388 107.831L153.228 98.9418ZM125.468 114.78L136.649 107.055L128.325 99.2945L125.468 114.78ZM153.933 99.4356L142.752 107.16L151.076 114.885L153.933 99.4356Z" fill="#227DD9"/>
<path fill-rule="evenodd" clip-rule="evenodd" d="M472.628 117.496L471.288 115.45C470.653 115.52 470.03 115.52 469.418 115.45L468.078 117.496L467.796 117.425C467.349 117.307 466.89 117.155 466.42 116.966C465.95 116.778 465.503 116.555 465.08 116.296L464.833 116.155L465.362 113.757C464.868 113.38 464.433 112.945 464.057 112.451L461.623 112.945L461.482 112.698C460.988 111.852 460.6 110.935 460.353 109.982L460.282 109.7L462.364 108.36C462.293 107.748 462.293 107.137 462.364 106.526L460.282 105.185L460.353 104.903C460.471 104.433 460.635 103.962 460.847 103.492C461.035 103.022 461.247 102.587 461.482 102.187L461.623 101.94L464.057 102.434C464.433 101.964 464.868 101.529 465.362 101.129L464.833 98.7302L465.08 98.5891C465.926 98.0952 466.843 97.7072 467.796 97.4603L468.078 97.3898L469.418 99.4356C470.053 99.3651 470.676 99.3768 471.288 99.4709L472.628 97.3898L472.875 97.4603C473.345 97.5779 473.816 97.7307 474.286 97.9189C474.756 98.107 475.203 98.3304 475.626 98.5891L475.873 98.7302L475.344 101.129C475.838 101.529 476.273 101.964 476.649 102.434L479.083 101.94L479.224 102.187C479.718 103.034 480.106 103.951 480.353 104.903L480.424 105.185L478.342 106.526C478.413 107.137 478.413 107.748 478.342 108.36L480.424 109.735L480.353 109.982C480.212 110.453 480.047 110.923 479.859 111.393C479.671 111.864 479.459 112.299 479.224 112.698L479.083 112.945L476.649 112.451C476.273 112.922 475.838 113.357 475.344 113.757L475.873 116.155L475.626 116.296C474.78 116.825 473.863 117.178 472.91 117.425L472.628 117.496ZM465.715 115.767C466.044 115.955 466.373 116.108 466.702 116.226C467.031 116.367 467.372 116.496 467.725 116.614L469.03 114.603L469.277 114.638C469.983 114.733 470.688 114.733 471.394 114.638L471.64 114.603L472.981 116.614C473.663 116.402 474.321 116.12 474.956 115.767L474.462 113.439L474.674 113.263C475.238 112.84 475.732 112.346 476.156 111.781L476.332 111.57L478.66 112.063C478.848 111.758 479.001 111.429 479.118 111.076C479.26 110.747 479.389 110.406 479.506 110.053L477.496 108.748L477.531 108.501C477.625 107.795 477.625 107.09 477.531 106.384L477.496 106.138L479.506 104.832C479.295 104.127 479.013 103.457 478.66 102.822L476.332 103.316L476.156 103.104C475.732 102.54 475.238 102.046 474.674 101.623L474.462 101.481L474.956 99.1182C474.651 98.9536 474.321 98.8007 473.969 98.6596C473.639 98.5185 473.298 98.4009 472.946 98.3069L471.64 100.317L471.394 100.282C470.688 100.176 469.983 100.176 469.277 100.282L469.03 100.317L467.725 98.3069C467.02 98.495 466.35 98.7654 465.715 99.1182L466.208 101.481L466.032 101.623C465.444 102.046 464.939 102.54 464.515 103.104L464.374 103.316L462.011 102.822C461.846 103.128 461.693 103.457 461.552 103.81C461.411 104.139 461.294 104.48 461.2 104.832L463.21 106.138L463.175 106.384C463.057 107.09 463.057 107.795 463.175 108.501L463.21 108.748L461.2 110.053C461.388 110.758 461.658 111.429 462.011 112.063L464.374 111.57L464.515 111.781C464.939 112.346 465.444 112.84 466.032 113.263L466.208 113.439L465.715 115.767Z" fill="#227DD9"/>
<path d="M470.335 113.086C469.63 113.086 468.889 112.945 468.184 112.663L468.501 111.922C470.97 112.981 473.827 111.781 474.85 109.312C475.344 108.113 475.344 106.772 474.85 105.573C474.357 104.374 473.404 103.457 472.205 102.963C469.736 101.94 466.879 103.104 465.856 105.573L465.115 105.291C466.314 102.399 469.63 101.023 472.522 102.222C475.379 103.421 476.755 106.737 475.591 109.594C474.674 111.781 472.558 113.086 470.335 113.086V113.086Z" fill="#227DD9"/>
<path fill-rule="evenodd" clip-rule="evenodd" d="M477.355 114.709C477.355 114.462 477.566 114.286 477.813 114.215L481.129 113.616C481.305 113.58 481.482 113.404 481.552 113.192C481.74 112.534 481.999 111.899 482.328 111.287C482.434 111.111 482.434 110.864 482.328 110.723L480.423 107.936C480.282 107.725 480.282 107.443 480.423 107.266C480.682 106.984 480.941 106.702 481.199 106.42C481.458 106.161 481.729 105.914 482.011 105.679C482.222 105.503 482.505 105.503 482.681 105.644L485.468 107.548C485.644 107.654 485.891 107.654 486.067 107.548C486.679 107.219 487.314 106.961 487.972 106.772C488.184 106.702 488.325 106.561 488.36 106.349L488.995 103.034C489.03 102.787 489.242 102.61 489.489 102.575C490.241 102.504 490.994 102.504 491.746 102.575C491.993 102.61 492.17 102.787 492.24 103.034L492.84 106.349C492.875 106.561 493.051 106.702 493.228 106.772C493.91 106.961 494.556 107.219 495.168 107.548C495.344 107.654 495.591 107.654 495.732 107.548L498.519 105.644C498.73 105.503 499.013 105.503 499.189 105.679C499.471 105.914 499.753 106.161 500.035 106.42C500.294 106.702 500.541 106.984 500.776 107.266C500.953 107.443 500.953 107.725 500.812 107.936L498.907 110.688C498.801 110.864 498.801 111.111 498.871 111.287C499.224 111.899 499.495 112.534 499.683 113.192C499.753 113.404 499.894 113.58 500.106 113.616L503.422 114.215C503.669 114.286 503.845 114.462 503.88 114.709C503.951 115.461 503.951 116.214 503.88 116.966C503.845 117.213 503.669 117.425 503.422 117.46L500.106 118.06C499.894 118.131 499.753 118.272 499.683 118.483C499.495 119.142 499.224 119.777 498.871 120.388C498.801 120.564 498.801 120.811 498.907 120.988L500.812 123.774C500.953 123.951 500.953 124.233 500.776 124.444C500.541 124.727 500.294 124.997 500.035 125.256C499.753 125.514 499.471 125.761 499.189 125.996C499.013 126.173 498.73 126.173 498.519 126.032L495.732 124.127C495.591 124.021 495.344 124.021 495.168 124.127C494.556 124.456 493.91 124.715 493.228 124.903C493.051 124.974 492.875 125.115 492.84 125.326L492.24 128.642C492.17 128.889 491.993 129.101 491.746 129.101C490.994 129.171 490.241 129.171 489.489 129.101C489.242 129.101 489.03 128.889 488.995 128.642L488.36 125.326C488.325 125.115 488.184 124.974 487.972 124.903C487.314 124.715 486.679 124.456 486.067 124.127C485.891 124.021 485.644 124.021 485.468 124.127L482.681 126.032C482.505 126.173 482.222 126.173 482.011 125.996C481.729 125.761 481.458 125.514 481.199 125.256C480.941 124.997 480.682 124.727 480.423 124.444C480.282 124.233 480.282 123.951 480.423 123.774L482.328 120.988C482.434 120.811 482.434 120.564 482.328 120.388C481.999 119.777 481.74 119.142 481.552 118.483C481.482 118.272 481.305 118.131 481.129 118.06L477.813 117.46C477.566 117.425 477.355 117.213 477.355 116.966C477.284 116.214 477.284 115.461 477.355 114.709ZM486.843 119.612C488.924 121.658 492.311 121.658 494.356 119.612C496.438 117.531 496.438 114.145 494.356 112.099C492.311 110.018 488.924 110.018 486.843 112.099C484.797 114.145 484.797 117.531 486.843 119.612Z" fill="#49E5C7"/>
<path fill-rule="evenodd" clip-rule="evenodd" d="M470.335 110.476C469.959 110.476 469.583 110.394 469.206 110.229C468.43 109.947 467.866 109.347 467.549 108.607C467.231 107.866 467.231 107.019 467.549 106.279C467.866 105.538 468.43 104.974 469.206 104.656C469.947 104.339 470.759 104.339 471.499 104.656C472.24 104.974 472.84 105.538 473.157 106.279C473.439 107.019 473.439 107.866 473.157 108.607C472.84 109.347 472.24 109.947 471.499 110.229C471.123 110.394 470.735 110.476 470.335 110.476ZM468.289 106.596C467.831 107.725 468.36 109.03 469.489 109.524C470.053 109.735 470.653 109.735 471.217 109.524C471.746 109.277 472.17 108.854 472.416 108.289C472.628 107.76 472.628 107.16 472.416 106.596C472.17 106.032 471.746 105.608 471.217 105.397C470.653 105.15 470.053 105.15 469.489 105.397C468.96 105.608 468.501 106.032 468.289 106.596Z" fill="#227DD9"/>
<path d="M180.036 101.975L180.106 102.54L174.11 103.316L174.039 102.751L180.036 101.975Z" fill="url(#paint22_linear_28_332)"/>
<path d="M204.939 106.561C203.175 109.383 202.187 112.557 202.187 115.873V115.979C202.187 116.614 201.693 117.108 201.058 117.108H189.03C188.395 117.108 187.902 116.614 187.902 115.979V115.944C187.902 112.593 186.879 109.383 185.115 106.561C183.916 104.621 183.245 102.328 183.351 99.8589C183.598 93.7919 188.501 88.8536 194.568 88.642C201.27 88.3598 206.737 93.7214 206.737 100.317C206.737 102.646 206.103 104.762 204.939 106.561V106.561Z" fill="url(#paint23_linear_28_332)"/>
<path d="M199.753 124.197H190.3C189.7 124.197 189.207 123.704 189.207 123.069V117.108H200.882V123.069C200.882 123.704 200.388 124.197 199.753 124.197Z" fill="#227DD9"/>
<path d="M196.614 127.372H193.475C192.805 127.372 192.17 127.055 191.817 126.49L190.3 124.198H199.754L198.272 126.49C197.919 127.055 197.284 127.372 196.614 127.372V127.372Z" fill="#16348F"/>
<path d="M200.882 122.504H189.207V122.081H200.882V122.504Z" fill="white"/>
<path d="M200.882 121.058H189.207V120.6H200.882V121.058Z" fill="white"/>
<path d="M200.882 119.577H189.207V119.153H200.882V119.577Z" fill="white"/>
<path d="M197.037 117.108H196.438C196.438 113.157 196.79 109.912 197.425 108.43C197.813 107.443 198.237 106.631 198.66 105.82C199.401 104.339 200.071 103.069 200.318 101.27C200.423 100.494 200.106 99.9295 199.894 99.8942C199.753 99.8589 199.542 100.071 199.365 100.6C199.342 100.694 199.318 100.811 199.295 100.952C199.083 101.764 198.766 102.998 197.849 102.998C197.002 102.998 196.967 101.905 196.931 100.917C196.931 100.388 196.896 99.4356 196.649 99.4356C196.473 99.5062 196.296 100.423 196.191 100.917C195.979 101.975 195.767 102.998 195.027 102.998C194.321 102.998 194.11 101.975 193.898 100.917C193.792 100.423 193.616 99.5062 193.404 99.4356C193.192 99.4356 193.157 100.388 193.157 100.917C193.122 101.905 193.051 102.998 192.24 102.998C191.323 102.998 191.005 101.764 190.794 100.952C190.77 100.835 190.747 100.717 190.723 100.6C190.547 100.071 190.335 99.8589 190.194 99.8942C189.983 99.9295 189.665 100.494 189.771 101.27C190.018 103.069 190.688 104.339 191.429 105.82C191.852 106.631 192.24 107.443 192.663 108.43C193.263 109.912 193.651 113.157 193.651 117.108H193.051C193.051 113.263 192.699 110.053 192.134 108.677C191.711 107.69 191.288 106.878 190.9 106.102C190.124 104.55 189.453 103.245 189.171 101.376C189.03 100.388 189.453 99.4356 190.088 99.2945C190.335 99.2593 190.935 99.2593 191.288 100.459C191.311 100.553 191.346 100.67 191.393 100.811C191.535 101.376 191.781 102.399 192.24 102.399C192.487 102.399 192.522 101.446 192.557 100.882C192.593 99.8942 192.628 98.836 193.439 98.836C194.074 98.836 194.251 99.7531 194.462 100.776C194.568 101.27 194.815 102.399 195.027 102.399C195.274 102.399 195.52 101.27 195.626 100.776C195.838 99.7531 196.014 98.836 196.649 98.836C197.46 98.836 197.496 99.8942 197.531 100.882C197.566 101.446 197.602 102.399 197.849 102.399C198.307 102.399 198.554 101.376 198.695 100.811C198.742 100.67 198.777 100.553 198.801 100.459C199.154 99.2593 199.753 99.2593 200 99.2945C200.635 99.4356 201.058 100.388 200.882 101.376C200.635 103.245 199.965 104.55 199.189 106.102C198.766 106.878 198.378 107.69 197.954 108.677C197.39 110.053 197.037 113.263 197.037 117.108V117.108Z" fill="white"/>
<path opacity="0.7" d="M194.885 92.1693C195.908 93.4744 194.286 95.0264 191.923 96.8254C189.594 98.6596 187.408 100.106 186.385 98.8007C185.397 97.4956 185.961 94.6032 188.325 92.7689C190.653 90.9347 193.898 90.8994 194.885 92.1693Z" fill="white"/>
<path d="M195.097 126.455H193.968C193.686 126.455 193.333 126.314 193.087 125.996L191.429 124.198H197.637L195.979 125.996C195.732 126.314 195.379 126.455 195.097 126.455V126.455Z" fill="#1D43B8"/>
<path d="M195.344 85.2557H194.745V77.3192H195.344V85.2557Z" fill="url(#paint24_linear_28_332)"/>
<path d="M187.337 87.3368L186.879 87.6543L182.681 80.9171L183.175 80.5996L187.337 87.3368Z" fill="url(#paint25_linear_28_332)"/>
<path d="M181.623 93.4391L181.376 93.9682L174.851 90.7584L175.097 90.2645L181.623 93.4391Z" fill="url(#paint26_linear_28_332)"/>
<path d="M182.716 109.065L183.069 109.524L178.73 112.698L178.377 112.24L182.716 109.065Z" fill="url(#paint27_linear_28_332)"/>
<path d="M206.914 80.5996L207.408 80.9171L203.21 87.6543L202.716 87.3368L206.914 80.5996Z" fill="url(#paint28_linear_28_332)"/>
<path d="M214.991 90.2645L215.238 90.7584L208.713 93.9682L208.466 93.4391L214.991 90.2645Z" fill="url(#paint29_linear_28_332)"/>
<path d="M216.014 102.751L215.944 103.316L209.982 102.54L210.053 101.975L216.014 102.751Z" fill="url(#paint30_linear_28_332)"/>
<path d="M211.711 112.24L211.358 112.698L207.02 109.524L207.337 109.065L211.711 112.24Z" fill="url(#paint31_linear_28_332)"/>
<path d="M186.632 259.012C177.954 250.441 166.279 240.776 162.928 229.912C160.635 222.399 159.647 204.339 175.097 215.45C183.069 221.164 194.356 233.686 202.293 243.033C208.854 250.794 214.815 259.612 218.624 268.607C222.152 276.966 213.545 278.765 208.36 276.296C202.716 273.58 193.439 265.714 186.632 259.012V259.012Z" fill="#50A4FA"/>
<path d="M166.349 211.958C166.314 215.168 166.737 218.483 167.301 220.882C170.194 232.734 181.481 244.127 189.806 254.074C196.367 261.87 205.361 271.111 210.935 274.533C212.875 275.732 215.379 276.296 217.531 276.049C215.203 277.707 211.252 277.672 208.36 276.296C202.716 273.58 193.439 265.714 186.631 259.012C177.954 250.441 166.279 240.776 162.928 229.912C161.199 224.268 160.212 212.699 166.349 211.958Z" fill="#1D43B8"/>
<path d="M207.16 273.439C206.49 268.395 210.688 264.233 214.321 262.54C221.623 259.118 237.566 253.721 248.889 247.76C251.64 246.349 252.134 244.656 254.462 242.857C255.026 242.434 256.12 241.552 257.566 241.058C259.824 240.317 263.069 240.035 264.444 239.859C265.326 239.753 265.467 240 264.656 240.635C263.915 241.235 261.093 241.728 260 242.257C259.083 242.681 259.083 242.928 258.977 243.457C258.942 243.774 259.471 243.951 260.282 244.021C261.376 244.092 262.998 244.233 264.515 244.268C265.75 244.339 266.878 244.303 268.007 243.563C270.511 241.869 274.885 237.848 275.273 238.871C275.697 239.894 269.524 246.914 267.266 248.254C265.22 249.453 260.388 249.03 256.332 250.018C253.51 250.688 248.254 254.674 246.984 255.555C239.859 260.317 220.67 275.485 215.802 276.896C210.935 278.307 207.443 275.591 207.16 273.439V273.439Z" fill="url(#paint32_linear_28_332)"/>
<path d="M112.663 282.116C112.663 263.21 109.559 241.905 111.252 226.984C111.993 220.635 111.782 215.732 122.928 210.9C127.09 209.101 134.674 206.455 143.704 206.349C153.192 206.243 164.445 209.771 169.947 212.381C177.707 216.049 180.035 222.61 181.27 227.09C185.044 240.6 183.14 255.732 182.187 272.875C181.576 284.045 181.576 296.155 182.187 309.206H111.711C112.346 301.446 112.663 292.416 112.663 282.116V282.116Z" fill="url(#paint33_linear_28_332)"/>
<path d="M111.252 226.984C111.394 225.926 111.464 224.868 111.605 223.845C112.981 222.892 114.709 221.834 116.155 221.023C124.621 216.261 131.288 219.683 128.854 230.476C128.148 233.439 125.856 237.213 125.185 240.212C123.774 246.773 125.185 252.275 127.549 257.213C130.018 262.328 130.441 267.584 129.7 273.616C128.924 279.506 125.785 285.467 126.279 291.429C127.302 303.88 142.258 306.667 152.91 309.206H111.711C112.346 301.446 112.663 292.416 112.663 282.116C112.663 263.21 109.559 241.905 111.252 226.984Z" fill="url(#paint34_linear_28_332)"/>
<path d="M116.508 214.744C131.958 206.349 128.96 220.6 125.926 229.312C122.54 239.012 117.954 242.363 113.087 253.58C108.289 264.621 106.667 270.617 102.258 277.249C96.8962 285.361 85.5029 287.548 86.032 277.496C87.0196 258.554 98.7657 224.339 116.508 214.744V214.744Z" fill="url(#paint35_linear_28_332)"/>
<path d="M87.1957 275.979C88.5008 272.628 92.6983 269.453 96.649 268.395C103.175 266.596 117.672 266.173 130.723 262.504C133.933 261.587 137.637 258.166 139.753 256.684C141.764 255.273 144.409 254.921 147.266 254.462C149.171 254.156 148.395 255.403 144.938 258.201C155.661 257.895 160.858 258.613 160.529 260.353C160.282 261.693 153.439 266.561 150.229 267.548C147.795 268.254 142.222 267.231 137.707 267.266C134.603 267.302 129.171 269.7 127.619 270.3C118.518 273.827 96.4726 284.127 91.7812 284.127C84.0916 284.127 86.4197 277.954 87.1957 275.979V275.979Z" fill="url(#paint36_linear_28_332)"/>
<path d="M132.981 207.619L134.427 207.337C136.296 206.949 137.707 205.362 137.813 203.457C138.142 197.695 138.542 190.476 139.012 181.799H153.474V204.55C153.474 206.138 154.568 207.478 156.12 207.831C156.731 207.972 157.343 208.113 157.954 208.254C158.048 208.583 158.095 208.912 158.095 209.242C158.095 212.945 152.663 215.944 145.996 215.944C139.294 215.944 131.816 212.804 132.981 207.619Z" fill="url(#paint37_linear_28_332)"/>
<path d="M139.012 181.799H153.474V203.457C152.769 203.88 151.464 204.303 150.088 204.374C144.691 204.656 139.894 200 138.271 195.414C138.53 190.782 138.777 186.243 139.012 181.799Z" fill="#BF8286"/>
<path d="M141.094 166.243C144.268 163.069 151.182 163.139 153.898 164.162C160.318 166.561 161.164 170.723 159.542 181.799C158.06 192.099 155.097 194.25 150.159 194.25C145.432 194.25 140.67 191.217 138.448 180.459C137.602 176.402 138.307 169.03 141.094 166.243Z" fill="#FAB9BE"/>
<path d="M134.392 165.785C134.921 161.658 137.566 158.483 141.023 159.612C142.928 156.684 146.879 155.238 149.101 154.533C151.993 153.616 157.249 152.698 160.353 153.404C163.633 154.145 164.409 156.332 160.706 157.425C162.399 158.06 164.409 159.647 165.432 160.882C166.385 162.046 167.937 165.926 164.409 165.82C165.856 169.841 161.905 172.91 160.141 173.827C160.494 169.947 158.836 167.266 157.037 166.667C154.392 165.82 148.007 166.138 145.185 168.148C141.376 170.829 141.27 177.919 141.588 180.247C141.693 181.023 144.268 184.55 147.76 184.55C149.312 184.55 150.935 183.316 153.016 183.316C154.921 183.316 155.591 184.268 157.073 184.268C159.295 184.268 159.295 180.6 159.753 180.459C161.164 180 162.963 184.797 162.963 191.499C162.963 197.178 159.471 202.54 154.357 202.54C148.466 202.54 144.762 200.247 142.081 196.861C138.836 192.734 138.942 187.019 139.542 181.799C137.99 180.529 136.826 178.836 136.438 177.848C134.991 174.109 133.898 169.7 134.392 165.785V165.785Z" fill="#1E2859"/>
<path d="M152.169 187.09C154.25 187.09 155.908 186.914 155.908 187.16C155.908 187.584 154.25 188.43 152.169 188.43C150.088 188.43 148.395 187.69 148.395 187.407C148.395 187.055 150.088 187.09 152.169 187.09V187.09Z" fill="white"/>
<path d="M137.884 174.78C139.295 174.78 139.577 176.72 139.612 178.871C139.683 181.129 139.647 182.645 138.695 182.928C137.566 183.28 135.697 181.093 135.379 178.871C135.027 176.19 136.508 174.78 137.884 174.78Z" fill="#D6969B"/>
<path d="M87.5133 280.635C95.3792 282.61 106.208 278.131 117.319 272.487C124.55 268.783 127.972 267.831 132.875 266.596C136.296 265.785 142.046 266.067 143.034 267.337C143.457 267.866 138.836 267.161 136.861 267.443C133.968 267.901 129.982 269.489 127.302 270.582C121.164 273.086 115.097 275.873 109.03 278.589C104.621 280.564 100.141 282.928 95.3792 284.056C93.4039 284.515 91.0053 284.938 88.7831 283.88C86.6314 282.892 85.15 280.071 87.5133 280.635V280.635Z" fill="url(#paint38_linear_28_332)"/>
<path d="M151.217 247.76L164.762 249.277L158.483 259.718L144.938 258.201L151.217 247.76Z" fill="#1E2859"/>
<path d="M85.2206 271.287C86.4199 263.492 91.2876 262.575 98.2012 262.046C103.104 261.658 115.238 265.009 107.196 266.808C103.704 267.584 99.6474 267.866 96.7549 268.959C93.6156 270.159 90.2999 271.534 88.1482 275.203C85.9966 278.871 87.0195 282.963 85.9966 282.434C84.5151 281.623 84.9031 273.086 85.2206 271.287V271.287Z" fill="white"/>
<path d="M202.187 273.369C201.552 271.675 202.046 267.09 202.822 264.691C203.668 262.046 206.314 257.002 209.877 254.991C212.663 253.439 213.898 256.402 214.991 258.483C215.732 259.965 216.261 261.975 214.674 263.421C212.134 265.75 209.312 270.194 210.088 273.404C210.688 276.049 214.286 276.825 213.968 277.707C213.298 279.577 203.563 277.002 202.187 273.369Z" fill="white"/>
<path d="M157.602 178.483C157.602 178.436 157.602 178.413 157.602 178.413C157.602 178.366 157.613 178.342 157.637 178.342C157.637 178.319 157.637 178.307 157.637 178.307C158.06 177.954 158.166 177.284 157.919 176.967C157.919 176.967 157.919 176.955 157.919 176.931C157.896 176.908 157.884 176.884 157.884 176.861C157.884 176.837 157.884 176.814 157.884 176.79C157.884 176.755 157.919 176.755 157.919 176.72C157.919 176.72 157.919 176.684 157.954 176.684C157.978 176.661 158.001 176.649 158.025 176.649C158.048 176.649 158.072 176.649 158.095 176.649C158.119 176.649 158.131 176.649 158.131 176.649C158.554 176.79 158.801 177.178 158.766 177.672C158.73 178.06 158.483 178.554 157.813 178.66C157.79 178.66 157.778 178.66 157.778 178.66C157.731 178.66 157.684 178.636 157.637 178.589C157.637 178.589 157.637 178.554 157.602 178.554C157.602 178.519 157.602 178.519 157.602 178.483V178.483Z" fill="#1E2859"/>
<path d="M147.725 178.589C147.725 178.566 147.725 178.542 147.725 178.519C147.749 178.495 147.76 178.472 147.76 178.448C147.784 178.448 147.796 178.448 147.796 178.448C148.184 178.095 148.325 177.425 148.043 177.072C148.043 177.049 148.031 177.025 148.007 177.002C148.007 176.978 148.007 176.955 148.007 176.931C148.007 176.908 148.007 176.896 148.007 176.896L148.043 176.861C148.078 176.825 148.078 176.825 148.078 176.79C148.078 176.79 148.09 176.79 148.113 176.79C148.113 176.79 148.125 176.79 148.148 176.79C148.195 176.767 148.231 176.767 148.254 176.79C148.254 176.767 148.254 176.755 148.254 176.755C148.677 176.896 148.96 177.319 148.924 177.778C148.889 178.201 148.607 178.66 147.937 178.765C147.937 178.765 147.925 178.765 147.901 178.765C147.854 178.765 147.819 178.754 147.796 178.73C147.772 178.73 147.76 178.718 147.76 178.695C147.76 178.695 147.76 178.695 147.76 178.66C147.725 178.66 147.725 178.624 147.725 178.624C147.725 178.601 147.725 178.589 147.725 178.589V178.589Z" fill="#1E2859"/>
<path d="M155.379 219.577L149.771 214.744C150.794 214.321 152.699 213.474 153.475 212.84C154.886 211.64 156.05 210.547 155.591 207.76C155.379 206.667 153.193 205.644 155.097 205.644C156.332 205.644 157.743 206.385 158.413 207.584C159.118 208.889 159.295 210.864 159.154 212.31C158.872 215.027 157.249 217.566 155.379 219.577V219.577Z" fill="white"/>
<path d="M132.522 207.337C133.157 205.608 134.145 206.914 134.25 207.231C134.921 209.806 136.085 211.358 138.907 212.875C140.952 213.968 144.162 214.991 147.019 214.921C147.443 214.921 147.76 214.885 148.007 214.921L143.386 220.776C138.095 218.801 130.97 213.086 132.522 207.337V207.337Z" fill="white"/>
<path d="M143.351 175.556C145.679 173.827 149.347 173.721 151.675 175.168C151.746 175.238 151.781 175.802 151.746 175.873C151.711 175.944 151.64 175.979 151.57 175.979C151.546 175.979 151.511 175.967 151.464 175.944C149.101 174.462 145.926 174.427 143.563 175.908C143.516 175.908 143.48 175.908 143.457 175.908C143.433 175.908 143.422 175.908 143.422 175.908C143.422 175.908 143.41 175.908 143.386 175.908C143.339 175.885 143.304 175.861 143.28 175.838C143.245 175.732 143.28 175.626 143.351 175.556V175.556Z" fill="#1E2859"/>
<path d="M153.439 183.316C154.286 183.245 155.273 182.998 155.52 182.681C155.591 182.61 155.591 182.54 155.591 182.504C155.485 181.94 155.379 181.376 155.273 180.811C155.062 179.788 154.815 178.624 154.638 177.178C154.568 176.367 154.779 175.485 155.661 175.238C155.661 175.132 155.732 174.885 155.838 174.885C158.448 174.568 160 175.097 160.741 175.661V175.697C160.764 175.72 160.776 175.744 160.776 175.767C160.799 175.791 160.811 175.814 160.811 175.838C160.811 175.873 160.811 175.873 160.811 175.873C160.788 175.896 160.776 175.908 160.776 175.908C160.776 175.932 160.776 175.944 160.776 175.944H160.741C160.717 175.967 160.682 175.991 160.635 176.014C160.635 176.014 160.635 176.014 160.6 176.014C160.6 176.014 160.588 176.014 160.564 176.014C160.564 176.014 160.553 176.014 160.529 176.014C159.118 175.485 157.319 175.309 155.908 175.591C154.956 175.732 154.991 176.825 155.026 177.143C155.203 178.554 155.45 179.718 155.661 180.705C155.767 181.305 155.873 181.869 155.979 182.434C156.002 182.598 155.955 182.763 155.838 182.928C155.379 183.492 153.933 183.668 153.474 183.739C153.369 183.739 153.263 183.633 153.263 183.563C153.263 183.422 153.333 183.351 153.439 183.316V183.316Z" fill="#1E2859"/>
<defs>
<linearGradient id="paint0_linear_28_332" x1="497.531" y1="202.716" x2="542.011" y2="264.55" gradientUnits="userSpaceOnUse">
<stop stop-color="#BBF2F0"/>
<stop offset="1" stop-color="#7BADE0"/>
</linearGradient>
<linearGradient id="paint1_linear_28_332" x1="489.771" y1="190.37" x2="469.454" y2="193.228" gradientUnits="userSpaceOnUse">
<stop stop-color="#D6969B"/>
<stop offset="1" stop-color="#FAB9BE"/>
</linearGradient>
<linearGradient id="paint2_linear_28_332" x1="488.36" y1="182.011" x2="492.134" y2="182.011" gradientUnits="userSpaceOnUse">
<stop stop-color="#FACBCE"/>
<stop offset="1" stop-color="#D6969B"/>
</linearGradient>
<linearGradient id="paint3_linear_28_332" x1="490.229" y1="242.787" x2="427.337" y2="242.222" gradientUnits="userSpaceOnUse">
<stop stop-color="#D6969B"/>
<stop offset="1" stop-color="#FAB9BE"/>
</linearGradient>
<linearGradient id="paint4_linear_28_332" x1="441.87" y1="283.668" x2="441.87" y2="257.213" gradientUnits="userSpaceOnUse">
<stop stop-color="#D6969B"/>
<stop offset="1" stop-color="#D6969B"/>
</linearGradient>
<linearGradient id="paint5_linear_28_332" x1="497.46" y1="309.206" x2="497.46" y2="228.818" gradientUnits="userSpaceOnUse">
<stop stop-color="#7BADE0"/>
<stop offset="1" stop-color="#227DD9"/>
</linearGradient>
<linearGradient id="paint6_linear_28_332" x1="506.102" y1="203.28" x2="546.667" y2="265.22" gradientUnits="userSpaceOnUse">
<stop stop-color="#BBF2F0"/>
<stop offset="1" stop-color="#7BADE0"/>
</linearGradient>
<linearGradient id="paint7_linear_28_332" x1="540.388" y1="255.238" x2="468.431" y2="255.238" gradientUnits="userSpaceOnUse">
<stop stop-color="#FAB9BE"/>
<stop offset="1" stop-color="#D6969B"/>
</linearGradient>
<linearGradient id="paint8_linear_28_332" x1="365.256" y1="55.8378" x2="201.305" y2="166.173" gradientUnits="userSpaceOnUse">
<stop stop-color="#0046CF"/>
<stop offset="1" stop-color="#87A2FE"/>
</linearGradient>
<linearGradient id="paint9_linear_28_332" x1="394.074" y1="115.802" x2="230.194" y2="87.4073" gradientUnits="userSpaceOnUse">
<stop stop-color="#FA6496"/>
<stop offset="1" stop-color="#5192D6"/>
</linearGradient>
<linearGradient id="paint10_linear_28_332" x1="388.219" y1="131.499" x2="224.621" y2="103.175" gradientUnits="userSpaceOnUse">
<stop stop-color="#FA6496"/>
<stop offset="1" stop-color="#5192D6"/>
</linearGradient>
<linearGradient id="paint11_linear_28_332" x1="387.76" y1="131.358" x2="224.797" y2="103.139" gradientUnits="userSpaceOnUse">
<stop stop-color="#FA6496"/>
<stop offset="1" stop-color="#5192D6"/>
</linearGradient>
<linearGradient id="paint12_linear_28_332" x1="383.527" y1="142.857" x2="220.071" y2="114.568" gradientUnits="userSpaceOnUse">
<stop stop-color="#FA6496"/>
<stop offset="1" stop-color="#5192D6"/>
</linearGradient>
<linearGradient id="paint13_linear_28_332" x1="376.578" y1="155.238" x2="217.601" y2="127.69" gradientUnits="userSpaceOnUse">
<stop stop-color="#FA6496"/>
<stop offset="1" stop-color="#5192D6"/>
</linearGradient>
<linearGradient id="paint14_linear_28_332" x1="375.203" y1="163.809" x2="212.205" y2="135.591" gradientUnits="userSpaceOnUse">
<stop stop-color="#FA6496"/>
<stop offset="1" stop-color="#5192D6"/>
</linearGradient>
<linearGradient id="paint15_linear_28_332" x1="375.556" y1="162.081" x2="212.381" y2="133.827" gradientUnits="userSpaceOnUse">
<stop stop-color="#FA6496"/>
<stop offset="1" stop-color="#5192D6"/>
</linearGradient>
<linearGradient id="paint16_linear_28_332" x1="378.413" y1="153.686" x2="214.921" y2="125.362" gradientUnits="userSpaceOnUse">
<stop stop-color="#FA6496"/>
<stop offset="1" stop-color="#5192D6"/>
</linearGradient>
<linearGradient id="paint17_linear_28_332" x1="373.334" y1="166.455" x2="210.124" y2="138.201" gradientUnits="userSpaceOnUse">
<stop stop-color="#FA6496"/>
<stop offset="1" stop-color="#5192D6"/>
</linearGradient>
<linearGradient id="paint18_linear_28_332" x1="409.982" y1="179.965" x2="228.254" y2="179.965" gradientUnits="userSpaceOnUse">
<stop stop-color="#5192D6"/>
<stop offset="1" stop-color="#188BF5"/>
</linearGradient>
<linearGradient id="paint19_linear_28_332" x1="337.178" y1="338.307" x2="307.725" y2="290.653" gradientUnits="userSpaceOnUse">
<stop stop-color="#6485FA"/>
<stop offset="1" stop-color="#82BAF4"/>
</linearGradient>
<linearGradient id="paint20_linear_28_332" x1="370.088" y1="266.314" x2="319.33" y2="298.942" gradientUnits="userSpaceOnUse">
<stop stop-color="white"/>
<stop offset="1" stop-color="white"/>
</linearGradient>
<linearGradient id="paint21_linear_28_332" x1="77.2136" y1="97.813" x2="128.219" y2="97.813" gradientUnits="userSpaceOnUse">
<stop stop-color="white"/>
<stop offset="1" stop-color="#BBDAF2"/>
</linearGradient>
<linearGradient id="paint22_linear_28_332" x1="180.212" y1="103.245" x2="174.215" y2="104.021" gradientUnits="userSpaceOnUse">
<stop stop-color="#AAD2F2"/>
<stop offset="1" stop-color="white"/>
</linearGradient>
<linearGradient id="paint23_linear_28_332" x1="190.9" y1="123.104" x2="176.332" y2="97.8836" gradientUnits="userSpaceOnUse">
<stop stop-color="#4399F0"/>
<stop offset="1" stop-color="white"/>
</linearGradient>
<linearGradient id="paint24_linear_28_332" x1="194.039" y1="85.2557" x2="194.039" y2="77.3192" gradientUnits="userSpaceOnUse">
<stop stop-color="#AAD2F2"/>
<stop offset="1" stop-color="white"/>
</linearGradient>
<linearGradient id="paint25_linear_28_332" x1="186.279" y1="88.0423" x2="182.081" y2="81.2698" gradientUnits="userSpaceOnUse">
<stop stop-color="#AAD2F2"/>
<stop offset="1" stop-color="white"/>
</linearGradient>
<linearGradient id="paint26_linear_28_332" x1="181.059" y1="94.6032" x2="174.533" y2="91.3933" gradientUnits="userSpaceOnUse">
<stop stop-color="#AAD2F2"/>
<stop offset="1" stop-color="white"/>
</linearGradient>
<linearGradient id="paint27_linear_28_332" x1="183.492" y1="110.088" x2="179.153" y2="113.298" gradientUnits="userSpaceOnUse">
<stop stop-color="#AAD2F2"/>
<stop offset="1" stop-color="white"/>
</linearGradient>
<linearGradient id="paint28_linear_28_332" x1="203.81" y1="88.0423" x2="208.007" y2="81.2698" gradientUnits="userSpaceOnUse">
<stop stop-color="#AAD2F2"/>
<stop offset="1" stop-color="white"/>
</linearGradient>
<linearGradient id="paint29_linear_28_332" x1="209.03" y1="94.6032" x2="215.52" y2="91.3933" gradientUnits="userSpaceOnUse">
<stop stop-color="#AAD2F2"/>
<stop offset="1" stop-color="white"/>
</linearGradient>
<linearGradient id="paint30_linear_28_332" x1="209.877" y1="103.245" x2="215.873" y2="104.021" gradientUnits="userSpaceOnUse">
<stop stop-color="#AAD2F2"/>
<stop offset="1" stop-color="white"/>
</linearGradient>
<linearGradient id="paint31_linear_28_332" x1="206.596" y1="110.088" x2="210.935" y2="113.298" gradientUnits="userSpaceOnUse">
<stop stop-color="#AAD2F2"/>
<stop offset="1" stop-color="white"/>
</linearGradient>
<linearGradient id="paint32_linear_28_332" x1="274.921" y1="238.025" x2="207.654" y2="238.025" gradientUnits="userSpaceOnUse">
<stop stop-color="#D6969B"/>
<stop offset="1" stop-color="#FAB9BE"/>
</linearGradient>
<linearGradient id="paint33_linear_28_332" x1="128.713" y1="194.321" x2="80.9173" y2="257.002" gradientUnits="userSpaceOnUse">
<stop stop-color="#50A4FA"/>
<stop offset="1" stop-color="#1D43B8"/>
</linearGradient>
<linearGradient id="paint34_linear_28_332" x1="110.794" y1="233.369" x2="98.7656" y2="300.106" gradientUnits="userSpaceOnUse">
<stop stop-color="#1D43B8"/>
<stop offset="1" stop-color="#16348F"/>
</linearGradient>
<linearGradient id="paint35_linear_28_332" x1="125.961" y1="189.841" x2="62.9984" y2="273.792" gradientUnits="userSpaceOnUse">
<stop stop-color="#4399F0"/>
<stop offset="1" stop-color="#1D43B8"/>
</linearGradient>
<linearGradient id="paint36_linear_28_332" x1="151.005" y1="252.451" x2="95.4849" y2="268.501" gradientUnits="userSpaceOnUse">
<stop stop-color="#FAB9BE"/>
<stop offset="1" stop-color="#FAB9BE"/>
</linearGradient>
<linearGradient id="paint37_linear_28_332" x1="158.095" y1="181.093" x2="133.862" y2="181.093" gradientUnits="userSpaceOnUse">
<stop stop-color="#FAB9BE"/>
<stop offset="1" stop-color="#D6969B"/>
</linearGradient>
<linearGradient id="paint38_linear_28_332" x1="169.242" y1="248.96" x2="100.564" y2="274.145" gradientUnits="userSpaceOnUse">
<stop stop-color="#FAB9BE"/>
<stop offset="1" stop-color="#D6969B"/>
</linearGradient>
</defs>
</svg>
