<svg width="880" height="199" viewBox="0 0 880 199" fill="none" xmlns="http://www.w3.org/2000/svg">
<rect width="880" height="199" fill="white"/>
<path d="M419.68 23.2167H4.97644C2.22803 23.2167 0 25.4441 0 28.1917V160.029C0 162.777 2.22803 165.004 4.97644 165.004H419.68C422.428 165.004 424.656 162.777 424.656 160.029V28.1917C424.656 25.4441 422.428 23.2167 419.68 23.2167Z" fill="#EAF4FE"/>
<path d="M18.6616 154.225C23.9294 154.225 28.1998 149.956 28.1998 144.69C28.1998 139.423 23.9294 135.154 18.6616 135.154C13.3939 135.154 9.12347 139.423 9.12347 144.69C9.12347 149.956 13.3939 154.225 18.6616 154.225Z" fill="#003DA5"/>
<path d="M18.6616 154.225C23.9294 154.225 28.1998 149.956 28.1998 144.69C28.1998 139.423 23.9294 135.154 18.6616 135.154C13.3939 135.154 9.12347 139.423 9.12347 144.69C9.12347 149.956 13.3939 154.225 18.6616 154.225Z" fill="#003DA5"/>
<path d="M210.538 99.0708C215.806 99.0708 220.076 94.8017 220.076 89.5354C220.076 84.2691 215.806 80 210.538 80C205.27 80 201 84.2691 201 89.5354C201 94.8017 205.27 99.0708 210.538 99.0708Z" fill="#003DA5"/>
<path d="M384.43 85.8187C389.01 85.8187 392.724 82.1064 392.724 77.5271C392.724 72.9477 389.01 69.2354 384.43 69.2354C379.849 69.2354 376.136 72.9477 376.136 77.5271C376.136 82.1064 379.849 85.8187 384.43 85.8187Z" fill="white" stroke="#003DA5" stroke-width="3"/>
<path d="M875.024 23.2167H460.32C457.572 23.2167 455.344 25.4441 455.344 28.1917V160.029C455.344 162.777 457.572 165.004 460.32 165.004H875.024C877.772 165.004 880 162.777 880 160.029V28.1917C880 25.4441 877.772 23.2167 875.024 23.2167Z" fill="#EAF4FE"/>
<path d="M474.006 154.225C479.273 154.225 483.544 149.956 483.544 144.69C483.544 139.423 479.273 135.154 474.006 135.154C468.738 135.154 464.467 139.423 464.467 144.69C464.467 149.956 468.738 154.225 474.006 154.225Z" fill="#003DA5"/>
<path d="M474.006 154.225C479.273 154.225 483.544 149.956 483.544 144.69C483.544 139.423 479.273 135.154 474.006 135.154C468.738 135.154 464.467 139.423 464.467 144.69C464.467 149.956 468.738 154.225 474.006 154.225Z" fill="#003DA5"/>
<path d="M667.538 135.071C672.806 135.071 677.076 130.802 677.076 125.535C677.076 120.269 672.806 116 667.538 116C662.27 116 658 120.269 658 125.535C658 130.802 662.27 135.071 667.538 135.071Z" fill="#003DA5"/>
<path d="M840.294 115.583C844.875 115.583 848.588 111.871 848.588 107.292C848.588 102.712 844.875 99 840.294 99C835.713 99 832 102.712 832 107.292C832 111.871 835.713 115.583 840.294 115.583Z" fill="white" stroke="#003DA5" stroke-width="3"/>
<path d="M26 143L205 90" stroke="#003DA5" stroke-width="2"/>
<path d="M481 144L661 126" stroke="#003DA5" stroke-width="2"/>
<g filter="url(#filter0_i_1_40)">
<path d="M216 90L377.151 79.92" stroke="#003DA5" stroke-width="2"/>
</g>
<g filter="url(#filter1_i_1_40)">
<path d="M674 125.558L832 108" stroke="#003DA5" stroke-width="2"/>
</g>
<path d="M13.5183 180.02V180.758H8.88691V180.112L11.2051 177.532C11.4902 177.215 11.7105 176.946 11.866 176.726C12.0247 176.502 12.1349 176.303 12.1965 176.128C12.2613 175.95 12.2937 175.768 12.2937 175.584C12.2937 175.351 12.2451 175.141 12.1479 174.953C12.0539 174.762 11.9146 174.609 11.7299 174.496C11.5452 174.383 11.3217 174.326 11.0593 174.326C10.745 174.326 10.4826 174.387 10.272 174.511C10.0647 174.63 9.90915 174.798 9.80547 175.016C9.7018 175.233 9.64996 175.482 9.64996 175.764H8.75089C8.75089 175.365 8.8383 175.001 9.01331 174.671C9.18823 174.341 9.44742 174.078 9.79088 173.884C10.1343 173.686 10.5571 173.588 11.0593 173.588C11.5063 173.588 11.8887 173.666 12.2062 173.826C12.5237 173.981 12.7667 174.201 12.9352 174.487C13.1068 174.768 13.1927 175.098 13.1927 175.477C13.1927 175.685 13.1571 175.895 13.0858 176.109C13.0178 176.319 12.9222 176.53 12.7991 176.74C12.6792 176.951 12.5383 177.158 12.3763 177.362C12.2176 177.566 12.0474 177.768 11.866 177.965L9.97069 180.02H13.5183ZM18.9225 176.658V177.736C18.9225 178.316 18.8706 178.806 18.767 179.204C18.6633 179.602 18.5142 179.923 18.3198 180.165C18.1254 180.408 17.8905 180.585 17.6152 180.695C17.343 180.802 17.0352 180.855 16.6918 180.855C16.4197 180.855 16.1685 180.821 15.9385 180.753C15.7085 180.685 15.5012 180.577 15.3165 180.428C15.135 180.276 14.9795 180.078 14.8499 179.835C14.7203 179.593 14.6215 179.297 14.5535 178.951C14.4854 178.604 14.4514 178.2 14.4514 177.736V176.658C14.4514 176.078 14.5032 175.593 14.6069 175.2C14.7138 174.808 14.8645 174.494 15.0589 174.258C15.2533 174.018 15.4866 173.846 15.7587 173.743C16.0341 173.639 16.3419 173.588 16.6821 173.588C16.9574 173.588 17.2102 173.622 17.4402 173.69C17.6735 173.754 17.8808 173.86 18.0622 174.005C18.2437 174.147 18.3975 174.339 18.5239 174.579C18.6535 174.815 18.7524 175.105 18.8204 175.448C18.8884 175.792 18.9225 176.195 18.9225 176.658ZM18.0185 177.882V176.507C18.0185 176.19 17.9991 175.911 17.9602 175.671C17.9245 175.428 17.8711 175.221 17.7998 175.05C17.7285 174.878 17.6378 174.739 17.5277 174.632C17.4208 174.525 17.296 174.448 17.1534 174.399C17.0142 174.347 16.857 174.321 16.6821 174.321C16.4683 174.321 16.2787 174.361 16.1134 174.443C15.9482 174.521 15.8089 174.645 15.6955 174.817C15.5854 174.988 15.5012 175.213 15.4428 175.491C15.3845 175.77 15.3554 176.109 15.3554 176.507V177.882C15.3554 178.2 15.3732 178.48 15.4088 178.723C15.4477 178.966 15.5044 179.176 15.5789 179.355C15.6534 179.53 15.7441 179.673 15.851 179.787C15.9579 179.9 16.0811 179.984 16.2204 180.039C16.3629 180.091 16.5201 180.117 16.6918 180.117C16.9121 180.117 17.1048 180.075 17.2701 179.991C17.4353 179.907 17.573 179.775 17.6832 179.598C17.7966 179.416 17.8808 179.185 17.9359 178.903C17.991 178.617 18.0185 178.277 18.0185 177.882ZM23.0338 173.646V180.758H22.1348V174.768L20.3221 175.428V174.618L22.8929 173.646H23.0338ZM26.5718 180.005H26.6641C27.1824 180.005 27.6036 179.932 27.9277 179.787C28.2516 179.641 28.5011 179.445 28.676 179.199C28.851 178.952 28.9709 178.675 29.0357 178.368C29.1005 178.057 29.1329 177.738 29.1329 177.411V176.327C29.1329 176.007 29.0956 175.722 29.0211 175.472C28.9498 175.223 28.8494 175.014 28.7198 174.846C28.5934 174.677 28.4493 174.55 28.2873 174.462C28.1253 174.375 27.9535 174.331 27.7722 174.331C27.5648 174.331 27.3785 174.373 27.2132 174.457C27.0512 174.538 26.9136 174.653 26.8002 174.802C26.69 174.951 26.6058 175.126 26.5475 175.326C26.4891 175.527 26.46 175.746 26.46 175.982C26.46 176.193 26.4859 176.397 26.5378 176.595C26.5896 176.792 26.669 176.971 26.7759 177.129C26.8828 177.287 27.0157 177.414 27.1744 177.508C27.3364 177.598 27.5259 177.644 27.743 177.644C27.9438 177.644 28.1318 177.605 28.3067 177.528C28.4849 177.447 28.642 177.338 28.7781 177.202C28.9174 177.063 29.0275 176.906 29.1086 176.731C29.1928 176.556 29.2414 176.373 29.2544 176.181H29.682C29.682 176.451 29.6286 176.716 29.5217 176.978C29.418 177.238 29.2722 177.474 29.0843 177.688C28.8963 177.902 28.676 178.073 28.4233 178.203C28.1706 178.329 27.8952 178.392 27.5972 178.392C27.2473 178.392 26.9443 178.324 26.6884 178.188C26.4324 178.052 26.2218 177.871 26.0566 177.644C25.8946 177.418 25.7731 177.165 25.6922 176.886C25.6144 176.604 25.5755 176.319 25.5755 176.031C25.5755 175.695 25.6225 175.379 25.7165 175.084C25.8104 174.789 25.9497 174.53 26.1344 174.307C26.319 174.079 26.5475 173.903 26.8196 173.777C27.095 173.651 27.4125 173.588 27.7722 173.588C28.1772 173.588 28.5222 173.668 28.8073 173.831C29.0924 173.992 29.3241 174.21 29.5022 174.482C29.6837 174.754 29.8165 175.059 29.9007 175.399C29.9849 175.739 30.0271 176.089 30.0271 176.449V176.774C30.0271 177.141 30.0028 177.513 29.9542 177.892C29.9088 178.268 29.8197 178.627 29.6869 178.971C29.5573 179.314 29.3678 179.622 29.1183 179.894C28.8688 180.162 28.5433 180.376 28.1415 180.534C27.743 180.69 27.2505 180.768 26.6641 180.768H26.5718V180.005Z" fill="#003DA5"/>
<path d="M205.941 180.02V180.758H201.309V180.112L203.628 177.532C203.913 177.215 204.133 176.946 204.289 176.726C204.447 176.502 204.557 176.303 204.619 176.128C204.683 175.95 204.716 175.768 204.716 175.584C204.716 175.351 204.668 175.141 204.57 174.953C204.476 174.762 204.337 174.609 204.153 174.496C203.968 174.383 203.744 174.326 203.482 174.326C203.167 174.326 202.905 174.387 202.694 174.511C202.487 174.63 202.331 174.798 202.227 175.016C202.124 175.233 202.072 175.482 202.072 175.764H201.173C201.173 175.365 201.26 175.001 201.435 174.671C201.61 174.341 201.87 174.078 202.213 173.884C202.557 173.686 202.98 173.588 203.482 173.588C203.929 173.588 204.311 173.666 204.629 173.826C204.946 173.981 205.189 174.201 205.358 174.487C205.529 174.768 205.615 175.098 205.615 175.477C205.615 175.685 205.579 175.895 205.508 176.109C205.44 176.319 205.344 176.53 205.222 176.74C205.101 176.951 204.96 177.158 204.799 177.362C204.639 177.566 204.469 177.768 204.289 177.965L202.393 180.02H205.941ZM211.344 176.658V177.736C211.344 178.316 211.293 178.806 211.189 179.204C211.086 179.602 210.936 179.923 210.742 180.165C210.548 180.408 210.313 180.585 210.037 180.695C209.765 180.802 209.457 180.855 209.114 180.855C208.842 180.855 208.591 180.821 208.361 180.753C208.13 180.685 207.923 180.577 207.739 180.428C207.557 180.276 207.402 180.078 207.272 179.835C207.143 179.593 207.044 179.297 206.976 178.951C206.908 178.604 206.874 178.2 206.874 177.736V176.658C206.874 176.078 206.925 175.593 207.029 175.2C207.136 174.808 207.287 174.494 207.481 174.258C207.676 174.018 207.909 173.846 208.181 173.743C208.456 173.639 208.764 173.588 209.104 173.588C209.379 173.588 209.632 173.622 209.862 173.69C210.096 173.754 210.303 173.86 210.484 174.005C210.666 174.147 210.82 174.339 210.946 174.579C211.076 174.815 211.174 175.105 211.242 175.448C211.31 175.792 211.344 176.195 211.344 176.658ZM210.441 177.882V176.507C210.441 176.19 210.421 175.911 210.382 175.671C210.347 175.428 210.293 175.221 210.222 175.05C210.151 174.878 210.06 174.739 209.95 174.632C209.843 174.525 209.719 174.448 209.576 174.399C209.437 174.347 209.279 174.321 209.104 174.321C208.89 174.321 208.701 174.361 208.536 174.443C208.371 174.521 208.232 174.645 208.118 174.817C208.008 174.988 207.923 175.213 207.865 175.491C207.807 175.77 207.778 176.109 207.778 176.507V177.882C207.778 178.2 207.795 178.48 207.831 178.723C207.87 178.966 207.926 179.176 208.001 179.355C208.076 179.53 208.166 179.673 208.273 179.787C208.38 179.9 208.504 179.984 208.643 180.039C208.786 180.091 208.942 180.117 209.114 180.117C209.335 180.117 209.527 180.075 209.692 179.991C209.857 179.907 209.996 179.775 210.105 179.598C210.219 179.416 210.303 179.185 210.358 178.903C210.413 178.617 210.441 178.277 210.441 177.882ZM217.138 180.02V180.758H212.506V180.112L214.825 177.532C215.11 177.215 215.33 176.946 215.486 176.726C215.644 176.502 215.754 176.303 215.816 176.128C215.88 175.95 215.913 175.768 215.913 175.584C215.913 175.351 215.865 175.141 215.767 174.953C215.673 174.762 215.534 174.609 215.35 174.496C215.165 174.383 214.941 174.326 214.679 174.326C214.364 174.326 214.102 174.387 213.891 174.511C213.684 174.63 213.528 174.798 213.424 175.016C213.321 175.233 213.269 175.482 213.269 175.764H212.37C212.37 175.365 212.457 175.001 212.632 174.671C212.807 174.341 213.067 174.078 213.41 173.884C213.754 173.686 214.177 173.588 214.679 173.588C215.126 173.588 215.508 173.666 215.826 173.826C216.143 173.981 216.386 174.201 216.555 174.487C216.726 174.768 216.812 175.098 216.812 175.477C216.812 175.685 216.776 175.895 216.705 176.109C216.637 176.319 216.541 176.53 216.419 176.74C216.298 176.951 216.157 177.158 215.996 177.362C215.836 177.566 215.666 177.768 215.486 177.965L213.59 180.02H217.138ZM222.541 176.658V177.736C222.541 178.316 222.49 178.806 222.386 179.204C222.283 179.602 222.133 179.923 221.939 180.165C221.745 180.408 221.51 180.585 221.234 180.695C220.962 180.802 220.654 180.855 220.311 180.855C220.039 180.855 219.788 180.821 219.558 180.753C219.327 180.685 219.12 180.577 218.936 180.428C218.754 180.276 218.599 180.078 218.469 179.835C218.34 179.593 218.241 179.297 218.173 178.951C218.105 178.604 218.071 178.2 218.071 177.736V176.658C218.071 176.078 218.122 175.593 218.226 175.2C218.333 174.808 218.484 174.494 218.678 174.258C218.873 174.018 219.106 173.846 219.378 173.743C219.653 173.639 219.961 173.588 220.301 173.588C220.576 173.588 220.829 173.622 221.059 173.69C221.293 173.754 221.5 173.86 221.681 174.005C221.863 174.147 222.017 174.339 222.143 174.579C222.273 174.815 222.371 175.105 222.439 175.448C222.507 175.792 222.541 176.195 222.541 176.658ZM221.638 177.882V176.507C221.638 176.19 221.618 175.911 221.579 175.671C221.544 175.428 221.49 175.221 221.419 175.05C221.348 174.878 221.257 174.739 221.147 174.632C221.04 174.525 220.916 174.448 220.773 174.399C220.634 174.347 220.476 174.321 220.301 174.321C220.087 174.321 219.898 174.361 219.733 174.443C219.568 174.521 219.429 174.645 219.315 174.817C219.205 174.988 219.12 175.213 219.062 175.491C219.004 175.77 218.975 176.109 218.975 176.507V177.882C218.975 178.2 218.992 178.48 219.028 178.723C219.067 178.966 219.123 179.176 219.198 179.355C219.273 179.53 219.363 179.673 219.47 179.787C219.577 179.9 219.701 179.984 219.84 180.039C219.983 180.091 220.139 180.117 220.311 180.117C220.532 180.117 220.724 180.075 220.889 179.991C221.054 179.907 221.193 179.775 221.302 179.598C221.416 179.416 221.5 179.185 221.555 178.903C221.61 178.617 221.638 178.277 221.638 177.882Z" fill="#003DA5"/>
<path d="M380.116 180.02V180.758H375.485V180.112L377.803 177.532C378.088 177.215 378.308 176.946 378.464 176.726C378.622 176.502 378.733 176.303 378.794 176.128C378.859 175.95 378.891 175.768 378.891 175.584C378.891 175.351 378.843 175.141 378.745 174.953C378.651 174.762 378.512 174.609 378.328 174.496C378.143 174.383 377.919 174.326 377.657 174.326C377.343 174.326 377.08 174.387 376.87 174.511C376.662 174.63 376.506 174.798 376.403 175.016C376.299 175.233 376.248 175.482 376.248 175.764H375.349C375.349 175.365 375.436 175.001 375.611 174.671C375.786 174.341 376.045 174.078 376.389 173.884C376.732 173.686 377.155 173.588 377.657 173.588C378.104 173.588 378.486 173.666 378.804 173.826C379.122 173.981 379.365 174.201 379.533 174.487C379.705 174.768 379.79 175.098 379.79 175.477C379.79 175.685 379.754 175.895 379.683 176.109C379.615 176.319 379.52 176.53 379.397 176.74C379.277 176.951 379.136 177.158 378.974 177.362C378.815 177.566 378.645 177.768 378.464 177.965L376.568 180.02H380.116ZM385.52 176.658V177.736C385.52 178.316 385.468 178.806 385.365 179.204C385.261 179.602 385.112 179.923 384.917 180.165C384.723 180.408 384.488 180.585 384.212 180.695C383.94 180.802 383.633 180.855 383.289 180.855C383.017 180.855 382.766 180.821 382.536 180.753C382.306 180.685 382.098 180.577 381.914 180.428C381.733 180.276 381.577 180.078 381.447 179.835C381.318 179.593 381.219 179.297 381.151 178.951C381.083 178.604 381.049 178.2 381.049 177.736V176.658C381.049 176.078 381.101 175.593 381.204 175.2C381.311 174.808 381.462 174.494 381.656 174.258C381.851 174.018 382.084 173.846 382.356 173.743C382.632 173.639 382.939 173.588 383.279 173.588C383.555 173.588 383.808 173.622 384.037 173.69C384.271 173.754 384.479 173.86 384.66 174.005C384.841 174.147 384.995 174.339 385.122 174.579C385.251 174.815 385.35 175.105 385.418 175.448C385.486 175.792 385.52 176.195 385.52 176.658ZM384.616 177.882V176.507C384.616 176.19 384.596 175.911 384.557 175.671C384.522 175.428 384.469 175.221 384.397 175.05C384.326 174.878 384.236 174.739 384.125 174.632C384.018 174.525 383.894 174.448 383.751 174.399C383.612 174.347 383.454 174.321 383.279 174.321C383.065 174.321 382.876 174.361 382.711 174.443C382.546 174.521 382.407 174.645 382.293 174.817C382.183 174.988 382.098 175.213 382.04 175.491C381.982 175.77 381.953 176.109 381.953 176.507V177.882C381.953 178.2 381.971 178.48 382.006 178.723C382.045 178.966 382.102 179.176 382.176 179.355C382.251 179.53 382.341 179.673 382.448 179.787C382.555 179.9 382.679 179.984 382.818 180.039C382.961 180.091 383.118 180.117 383.289 180.117C383.51 180.117 383.702 180.075 383.867 179.991C384.032 179.907 384.171 179.775 384.28 179.598C384.394 179.416 384.479 179.185 384.533 178.903C384.588 178.617 384.616 178.277 384.616 177.882ZM391.313 180.02V180.758H386.682V180.112L389 177.532C389.285 177.215 389.505 176.946 389.661 176.726C389.819 176.502 389.93 176.303 389.991 176.128C390.056 175.95 390.088 175.768 390.088 175.584C390.088 175.351 390.04 175.141 389.942 174.953C389.848 174.762 389.709 174.609 389.525 174.496C389.34 174.383 389.116 174.326 388.854 174.326C388.539 174.326 388.277 174.387 388.067 174.511C387.859 174.63 387.703 174.798 387.6 175.016C387.496 175.233 387.445 175.482 387.445 175.764H386.546C386.546 175.365 386.633 175.001 386.808 174.671C386.983 174.341 387.242 174.078 387.586 173.884C387.929 173.686 388.352 173.588 388.854 173.588C389.301 173.588 389.683 173.666 390.001 173.826C390.319 173.981 390.562 174.201 390.73 174.487C390.902 174.768 390.987 175.098 390.987 175.477C390.987 175.685 390.951 175.895 390.88 176.109C390.812 176.319 390.717 176.53 390.594 176.74C390.474 176.951 390.333 177.158 390.171 177.362C390.012 177.566 389.842 177.768 389.661 177.965L387.765 180.02H391.313ZM395.229 173.646V180.758H394.331V174.768L392.518 175.428V174.618L395.089 173.646H395.229Z" fill="#003DA5"/>
<path d="M470.521 180.02V180.758H465.89V180.112L468.208 177.532C468.493 177.215 468.713 176.946 468.869 176.726C469.028 176.502 469.138 176.303 469.199 176.128C469.264 175.95 469.296 175.768 469.296 175.584C469.296 175.351 469.248 175.141 469.15 174.953C469.057 174.762 468.917 174.609 468.733 174.496C468.548 174.383 468.324 174.326 468.062 174.326C467.748 174.326 467.486 174.387 467.275 174.511C467.068 174.63 466.912 174.798 466.808 175.016C466.704 175.233 466.653 175.482 466.653 175.764H465.754C465.754 175.365 465.841 175.001 466.016 174.671C466.191 174.341 466.451 174.078 466.794 173.884C467.137 173.686 467.56 173.588 468.062 173.588C468.509 173.588 468.892 173.666 469.209 173.826C469.527 173.981 469.77 174.201 469.938 174.487C470.11 174.768 470.195 175.098 470.195 175.477C470.195 175.685 470.16 175.895 470.088 176.109C470.02 176.319 469.925 176.53 469.802 176.74C469.682 176.951 469.541 177.158 469.379 177.362C469.22 177.566 469.05 177.768 468.869 177.965L466.973 180.02H470.521ZM475.925 176.658V177.736C475.925 178.316 475.873 178.806 475.77 179.204C475.666 179.602 475.517 179.923 475.323 180.165C475.129 180.408 474.893 180.585 474.618 180.695C474.346 180.802 474.038 180.855 473.695 180.855C473.423 180.855 473.171 180.821 472.942 180.753C472.711 180.685 472.504 180.577 472.319 180.428C472.138 180.276 471.983 180.078 471.853 179.835C471.723 179.593 471.624 179.297 471.556 178.951C471.488 178.604 471.454 178.2 471.454 177.736V176.658C471.454 176.078 471.506 175.593 471.61 175.2C471.717 174.808 471.867 174.494 472.062 174.258C472.256 174.018 472.49 173.846 472.762 173.743C473.037 173.639 473.345 173.588 473.685 173.588C473.96 173.588 474.213 173.622 474.443 173.69C474.677 173.754 474.884 173.86 475.065 174.005C475.246 174.147 475.401 174.339 475.527 174.579C475.656 174.815 475.755 175.105 475.823 175.448C475.891 175.792 475.925 176.195 475.925 176.658ZM475.022 177.882V176.507C475.022 176.19 475.002 175.911 474.963 175.671C474.927 175.428 474.874 175.221 474.803 175.05C474.731 174.878 474.641 174.739 474.531 174.632C474.424 174.525 474.299 174.448 474.157 174.399C474.017 174.347 473.86 174.321 473.685 174.321C473.471 174.321 473.282 174.361 473.117 174.443C472.951 174.521 472.812 174.645 472.699 174.817C472.588 174.988 472.504 175.213 472.446 175.491C472.388 175.77 472.358 176.109 472.358 176.507V177.882C472.358 178.2 472.376 178.48 472.412 178.723C472.451 178.966 472.507 179.176 472.582 179.355C472.656 179.53 472.747 179.673 472.854 179.787C472.961 179.9 473.084 179.984 473.224 180.039C473.366 180.091 473.523 180.117 473.695 180.117C473.915 180.117 474.108 180.075 474.273 179.991C474.438 179.907 474.576 179.775 474.686 179.598C474.799 179.416 474.884 179.185 474.939 178.903C474.993 178.617 475.022 178.277 475.022 177.882ZM480.036 173.646V180.758H479.138V174.768L477.325 175.428V174.618L479.896 173.646H480.036ZM483.574 180.005H483.667C484.185 180.005 484.606 179.932 484.931 179.787C485.254 179.641 485.504 179.445 485.679 179.199C485.854 178.952 485.974 178.675 486.039 178.368C486.103 178.057 486.136 177.738 486.136 177.411V176.327C486.136 176.007 486.098 175.722 486.024 175.472C485.952 175.223 485.852 175.014 485.723 174.846C485.597 174.677 485.452 174.55 485.29 174.462C485.128 174.375 484.956 174.331 484.775 174.331C484.567 174.331 484.381 174.373 484.216 174.457C484.054 174.538 483.916 174.653 483.803 174.802C483.693 174.951 483.608 175.126 483.55 175.326C483.492 175.527 483.462 175.746 483.462 175.982C483.462 176.193 483.489 176.397 483.54 176.595C483.593 176.792 483.672 176.971 483.779 177.129C483.886 177.287 484.018 177.414 484.177 177.508C484.339 177.598 484.529 177.644 484.746 177.644C484.946 177.644 485.135 177.605 485.31 177.528C485.488 177.447 485.645 177.338 485.781 177.202C485.92 177.063 486.03 176.906 486.112 176.731C486.195 176.556 486.244 176.373 486.257 176.181H486.685C486.685 176.451 486.632 176.716 486.525 176.978C486.421 177.238 486.275 177.474 486.087 177.688C485.899 177.902 485.679 178.073 485.427 178.203C485.174 178.329 484.898 178.392 484.6 178.392C484.25 178.392 483.947 178.324 483.691 178.188C483.435 178.052 483.224 177.871 483.059 177.644C482.898 177.418 482.776 177.165 482.695 176.886C482.617 176.604 482.578 176.319 482.578 176.031C482.578 175.695 482.626 175.379 482.719 175.084C482.813 174.789 482.952 174.53 483.137 174.307C483.322 174.079 483.55 173.903 483.822 173.777C484.098 173.651 484.416 173.588 484.775 173.588C485.18 173.588 485.525 173.668 485.81 173.831C486.095 173.992 486.326 174.21 486.505 174.482C486.686 174.754 486.819 175.059 486.904 175.399C486.988 175.739 487.03 176.089 487.03 176.449V176.774C487.03 177.141 487.006 177.513 486.957 177.892C486.912 178.268 486.822 178.627 486.69 178.971C486.56 179.314 486.37 179.622 486.121 179.894C485.872 180.162 485.546 180.376 485.145 180.534C484.746 180.69 484.253 180.768 483.667 180.768H483.574V180.005Z" fill="#003DA5"/>
<path d="M662.944 180.02V180.758H658.312V180.112L660.63 177.532C660.916 177.215 661.135 176.946 661.291 176.726C661.45 176.502 661.56 176.303 661.622 176.128C661.686 175.95 661.719 175.768 661.719 175.584C661.719 175.351 661.67 175.141 661.573 174.953C661.479 174.762 661.339 174.609 661.155 174.496C660.97 174.383 660.746 174.326 660.484 174.326C660.17 174.326 659.908 174.387 659.697 174.511C659.49 174.63 659.334 174.798 659.23 175.016C659.127 175.233 659.075 175.482 659.075 175.764H658.176C658.176 175.365 658.263 175.001 658.438 174.671C658.613 174.341 658.873 174.078 659.216 173.884C659.56 173.686 659.983 173.588 660.484 173.588C660.931 173.588 661.314 173.666 661.631 173.826C661.949 173.981 662.192 174.201 662.36 174.487C662.532 174.768 662.618 175.098 662.618 175.477C662.618 175.685 662.582 175.895 662.511 176.109C662.443 176.319 662.347 176.53 662.224 176.74C662.104 176.951 661.963 177.158 661.801 177.362C661.642 177.566 661.472 177.768 661.291 177.965L659.395 180.02H662.944ZM668.347 176.658V177.736C668.347 178.316 668.296 178.806 668.192 179.204C668.088 179.602 667.939 179.923 667.745 180.165C667.551 180.408 667.315 180.585 667.04 180.695C666.768 180.802 666.46 180.855 666.117 180.855C665.845 180.855 665.594 180.821 665.364 180.753C665.133 180.685 664.926 180.577 664.742 180.428C664.56 180.276 664.405 180.078 664.275 179.835C664.145 179.593 664.047 179.297 663.979 178.951C663.911 178.604 663.877 178.2 663.877 177.736V176.658C663.877 176.078 663.928 175.593 664.032 175.2C664.139 174.808 664.29 174.494 664.484 174.258C664.679 174.018 664.912 173.846 665.184 173.743C665.459 173.639 665.767 173.588 666.107 173.588C666.382 173.588 666.635 173.622 666.865 173.69C667.099 173.754 667.306 173.86 667.487 174.005C667.669 174.147 667.823 174.339 667.949 174.579C668.078 174.815 668.177 175.105 668.245 175.448C668.313 175.792 668.347 176.195 668.347 176.658ZM667.444 177.882V176.507C667.444 176.19 667.424 175.911 667.385 175.671C667.349 175.428 667.296 175.221 667.225 175.05C667.154 174.878 667.063 174.739 666.953 174.632C666.846 174.525 666.722 174.448 666.579 174.399C666.44 174.347 666.282 174.321 666.107 174.321C665.893 174.321 665.704 174.361 665.539 174.443C665.374 174.521 665.234 174.645 665.121 174.817C665.01 174.988 664.926 175.213 664.868 175.491C664.81 175.77 664.781 176.109 664.781 176.507V177.882C664.781 178.2 664.798 178.48 664.834 178.723C664.873 178.966 664.929 179.176 665.004 179.355C665.078 179.53 665.169 179.673 665.276 179.787C665.383 179.9 665.506 179.984 665.646 180.039C665.788 180.091 665.945 180.117 666.117 180.117C666.338 180.117 666.53 180.075 666.695 179.991C666.86 179.907 666.999 179.775 667.108 179.598C667.222 179.416 667.306 179.185 667.361 178.903C667.416 178.617 667.444 178.277 667.444 177.882ZM674.141 180.02V180.758H669.509V180.112L671.827 177.532C672.113 177.215 672.332 176.946 672.488 176.726C672.647 176.502 672.757 176.303 672.819 176.128C672.883 175.95 672.916 175.768 672.916 175.584C672.916 175.351 672.867 175.141 672.77 174.953C672.676 174.762 672.537 174.609 672.352 174.496C672.167 174.383 671.943 174.326 671.681 174.326C671.367 174.326 671.105 174.387 670.894 174.511C670.687 174.63 670.531 174.798 670.427 175.016C670.324 175.233 670.272 175.482 670.272 175.764H669.373C669.373 175.365 669.46 175.001 669.635 174.671C669.81 174.341 670.07 174.078 670.413 173.884C670.757 173.686 671.18 173.588 671.681 173.588C672.128 173.588 672.511 173.666 672.828 173.826C673.146 173.981 673.389 174.201 673.558 174.487C673.729 174.768 673.815 175.098 673.815 175.477C673.815 175.685 673.779 175.895 673.708 176.109C673.64 176.319 673.544 176.53 673.421 176.74C673.301 176.951 673.16 177.158 672.998 177.362C672.839 177.566 672.669 177.768 672.488 177.965L670.592 180.02H674.141ZM679.544 176.658V177.736C679.544 178.316 679.493 178.806 679.389 179.204C679.285 179.602 679.136 179.923 678.942 180.165C678.748 180.408 678.512 180.585 678.237 180.695C677.965 180.802 677.657 180.855 677.314 180.855C677.042 180.855 676.791 180.821 676.561 180.753C676.33 180.685 676.123 180.577 675.939 180.428C675.757 180.276 675.602 180.078 675.472 179.835C675.342 179.593 675.244 179.297 675.176 178.951C675.108 178.604 675.074 178.2 675.074 177.736V176.658C675.074 176.078 675.125 175.593 675.229 175.2C675.336 174.808 675.487 174.494 675.681 174.258C675.876 174.018 676.109 173.846 676.381 173.743C676.656 173.639 676.964 173.588 677.304 173.588C677.579 173.588 677.832 173.622 678.062 173.69C678.296 173.754 678.503 173.86 678.684 174.005C678.866 174.147 679.02 174.339 679.146 174.579C679.275 174.815 679.374 175.105 679.442 175.448C679.51 175.792 679.544 176.195 679.544 176.658ZM678.641 177.882V176.507C678.641 176.19 678.621 175.911 678.582 175.671C678.546 175.428 678.493 175.221 678.422 175.05C678.351 174.878 678.26 174.739 678.15 174.632C678.043 174.525 677.919 174.448 677.776 174.399C677.637 174.347 677.479 174.321 677.304 174.321C677.09 174.321 676.901 174.361 676.736 174.443C676.571 174.521 676.431 174.645 676.318 174.817C676.207 174.988 676.123 175.213 676.065 175.491C676.007 175.77 675.978 176.109 675.978 176.507V177.882C675.978 178.2 675.995 178.48 676.031 178.723C676.07 178.966 676.126 179.176 676.201 179.355C676.275 179.53 676.366 179.673 676.473 179.787C676.58 179.9 676.703 179.984 676.843 180.039C676.985 180.091 677.142 180.117 677.314 180.117C677.535 180.117 677.727 180.075 677.892 179.991C678.057 179.907 678.196 179.775 678.305 179.598C678.419 179.416 678.503 179.185 678.558 178.903C678.613 178.617 678.641 178.277 678.641 177.882Z" fill="#003DA5"/>
<path d="M837.12 180.02V180.758H832.483V180.112L834.806 177.532C835.088 177.215 835.312 176.946 835.469 176.726C835.627 176.502 835.735 176.303 835.801 176.128C835.859 175.95 835.892 175.768 835.892 175.584C835.892 175.351 835.842 175.141 835.751 174.953C835.652 174.762 835.519 174.609 835.328 174.496C835.146 174.383 834.922 174.326 834.656 174.326C834.349 174.326 834.084 174.387 833.868 174.511C833.661 174.63 833.512 174.798 833.404 175.016C833.304 175.233 833.246 175.482 833.246 175.764H832.351C832.351 175.365 832.442 175.001 832.616 174.671C832.79 174.341 833.047 174.078 833.387 173.884C833.736 173.686 834.159 173.588 834.656 173.588C835.104 173.588 835.486 173.666 835.809 173.826C836.124 173.981 836.365 174.201 836.539 174.487C836.705 174.768 836.796 175.098 836.796 175.477C836.796 175.685 836.755 175.895 836.688 176.109C836.622 176.319 836.523 176.53 836.398 176.74C836.282 176.951 836.141 177.158 835.975 177.362C835.818 177.566 835.652 177.768 835.469 177.965L833.57 180.02H837.12ZM842.519 176.658V177.736C842.519 178.316 842.469 178.806 842.37 179.204C842.262 179.602 842.113 179.923 841.922 180.165C841.723 180.408 841.491 180.585 841.217 180.695C840.943 180.802 840.636 180.855 840.288 180.855C840.023 180.855 839.765 180.821 839.542 180.753C839.309 180.685 839.102 180.577 838.919 180.428C838.737 180.276 838.579 180.078 838.447 179.835C838.322 179.593 838.223 179.297 838.156 178.951C838.082 178.604 838.049 178.2 838.049 177.736V176.658C838.049 176.078 838.107 175.593 838.206 175.2C838.314 174.808 838.463 174.494 838.662 174.258C838.853 174.018 839.085 173.846 839.359 173.743C839.633 173.639 839.94 173.588 840.28 173.588C840.562 173.588 840.811 173.622 841.043 173.69C841.275 173.754 841.482 173.86 841.665 174.005C841.847 174.147 841.997 174.339 842.121 174.579C842.254 174.815 842.353 175.105 842.42 175.448C842.486 175.792 842.519 176.195 842.519 176.658ZM841.615 177.882V176.507C841.615 176.19 841.599 175.911 841.557 175.671C841.524 175.428 841.474 175.221 841.399 175.05C841.333 174.878 841.242 174.739 841.126 174.632C841.018 174.525 840.893 174.448 840.752 174.399C840.611 174.347 840.454 174.321 840.28 174.321C840.072 174.321 839.882 174.361 839.716 174.443C839.55 174.521 839.409 174.645 839.293 174.817C839.185 174.988 839.102 175.213 839.044 175.491C838.986 175.77 838.953 176.109 838.953 176.507V177.882C838.953 178.2 838.978 178.48 839.011 178.723C839.044 178.966 839.102 179.176 839.177 179.355C839.251 179.53 839.342 179.673 839.45 179.787C839.558 179.9 839.683 179.984 839.824 180.039C839.965 180.091 840.122 180.117 840.288 180.117C840.512 180.117 840.703 180.075 840.869 179.991C841.034 179.907 841.175 179.775 841.283 179.598C841.399 179.416 841.482 179.185 841.532 178.903C841.59 178.617 841.615 178.277 841.615 177.882ZM848.317 180.02V180.758H843.68V180.112L846.003 177.532C846.285 177.215 846.509 176.946 846.666 176.726C846.824 176.502 846.932 176.303 846.998 176.128C847.056 175.95 847.089 175.768 847.089 175.584C847.089 175.351 847.039 175.141 846.948 174.953C846.849 174.762 846.716 174.609 846.525 174.496C846.343 174.383 846.119 174.326 845.853 174.326C845.546 174.326 845.281 174.387 845.065 174.511C844.858 174.63 844.709 174.798 844.601 175.016C844.501 175.233 844.443 175.482 844.443 175.764H843.548C843.548 175.365 843.639 175.001 843.813 174.671C843.987 174.341 844.244 174.078 844.584 173.884C844.933 173.686 845.356 173.588 845.853 173.588C846.301 173.588 846.683 173.666 847.006 173.826C847.321 173.981 847.562 174.201 847.736 174.487C847.902 174.768 847.993 175.098 847.993 175.477C847.993 175.685 847.952 175.895 847.885 176.109C847.819 176.319 847.72 176.53 847.595 176.74C847.479 176.951 847.338 177.158 847.172 177.362C847.015 177.566 846.849 177.768 846.666 177.965L844.767 180.02H848.317ZM852.232 173.646V180.758H851.336V174.768L849.519 175.428V174.618L852.09 173.646H852.232Z" fill="#003DA5"/>
<path d="M14.39 46.182C13.746 46.182 13.1347 46.0887 12.556 45.902C11.9773 45.7153 11.4687 45.4213 11.03 45.02C10.6007 44.6093 10.26 44.0913 10.008 43.466C9.756 42.8313 9.63 42.066 9.63 41.17V40.89C9.63 40.0313 9.756 39.294 10.008 38.678C10.26 38.062 10.6007 37.558 11.03 37.166C11.4687 36.774 11.9773 36.4847 12.556 36.298C13.1347 36.1113 13.746 36.018 14.39 36.018C15.034 36.018 15.6453 36.1113 16.224 36.298C16.8027 36.4847 17.3067 36.774 17.736 37.166C18.1747 37.558 18.52 38.062 18.772 38.678C19.024 39.294 19.15 40.0313 19.15 40.89V41.17C19.15 42.066 19.024 42.8313 18.772 43.466C18.52 44.0913 18.1747 44.6093 17.736 45.02C17.3067 45.4213 16.8027 45.7153 16.224 45.902C15.6453 46.0887 15.034 46.182 14.39 46.182ZM14.39 44.082C14.67 44.082 14.9407 44.04 15.202 43.956C15.4633 43.8627 15.692 43.7087 15.888 43.494C16.084 43.27 16.2427 42.9713 16.364 42.598C16.4853 42.2247 16.546 41.7487 16.546 41.17V40.89C16.546 40.3487 16.4853 39.9007 16.364 39.546C16.2427 39.182 16.084 38.8973 15.888 38.692C15.692 38.4773 15.4633 38.328 15.202 38.244C14.9407 38.16 14.67 38.118 14.39 38.118C14.11 38.118 13.8393 38.16 13.578 38.244C13.3167 38.328 13.088 38.4773 12.892 38.692C12.696 38.8973 12.5373 39.182 12.416 39.546C12.2947 39.9007 12.234 40.3487 12.234 40.89V41.17C12.234 41.7487 12.2947 42.2247 12.416 42.598C12.5373 42.9713 12.696 43.27 12.892 43.494C13.088 43.7087 13.3167 43.8627 13.578 43.956C13.8393 44.04 14.11 44.082 14.39 44.082ZM20.7534 36.2H23.3294L26.0454 41.17L28.7334 36.2H31.2534V46H28.7334V40.386L26.7034 44.11H25.3034L23.2734 40.386V46H20.7534V36.2ZM37.4085 46.182C36.7365 46.182 36.1205 46.0933 35.5605 45.916C35.0005 45.7293 34.5198 45.4353 34.1185 45.034C33.7265 44.6327 33.4185 44.1147 33.1945 43.48C32.9705 42.8453 32.8585 42.0707 32.8585 41.156V40.89C32.8585 40.0313 32.9752 39.294 33.2085 38.678C33.4418 38.062 33.7638 37.558 34.1745 37.166C34.5852 36.774 35.0658 36.4847 35.6165 36.298C36.1765 36.1113 36.7738 36.018 37.4085 36.018C37.9778 36.018 38.5098 36.0833 39.0045 36.214C39.5085 36.3447 39.9472 36.55 40.3205 36.83C40.7032 37.11 41.0112 37.474 41.2445 37.922C41.4872 38.37 41.6318 38.916 41.6785 39.56H39.0745C39.0278 39.2987 38.9532 39.0793 38.8505 38.902C38.7478 38.7153 38.6218 38.566 38.4725 38.454C38.3232 38.3327 38.1552 38.2487 37.9685 38.202C37.7912 38.146 37.6045 38.118 37.4085 38.118C37.1285 38.118 36.8672 38.1693 36.6245 38.272C36.3912 38.3653 36.1858 38.524 36.0085 38.748C35.8405 38.9627 35.7052 39.2473 35.6025 39.602C35.5092 39.9567 35.4625 40.386 35.4625 40.89V41.184C35.4625 41.7253 35.5138 42.1827 35.6165 42.556C35.7285 42.92 35.8732 43.2187 36.0505 43.452C36.2278 43.676 36.4332 43.8393 36.6665 43.942C36.8998 44.0353 37.1472 44.082 37.4085 44.082C37.8845 44.082 38.2625 43.97 38.5425 43.746C38.8318 43.5127 39.0092 43.144 39.0745 42.64H41.6785C41.6412 43.2933 41.5058 43.844 41.2725 44.292C41.0485 44.74 40.7452 45.104 40.3625 45.384C39.9892 45.664 39.5505 45.8693 39.0465 46C38.5425 46.1213 37.9965 46.182 37.4085 46.182ZM44.8345 46.182C44.7319 46.182 44.6292 46.1773 44.5265 46.168C44.4332 46.1587 44.3492 46.1447 44.2745 46.126V44.04C44.3492 44.0493 44.4239 44.0587 44.4985 44.068C44.5732 44.0773 44.6619 44.082 44.7645 44.082C44.9699 44.082 45.1379 44.0727 45.2685 44.054C45.3992 44.026 45.5065 43.984 45.5905 43.928C45.6745 43.872 45.7445 43.7973 45.8005 43.704C45.8565 43.6107 45.9079 43.494 45.9545 43.354L42.0345 36.2H44.5825L47.1865 41.17L49.2305 36.2H51.6945L48.4185 43.62C48.2039 44.096 47.9939 44.4973 47.7885 44.824C47.5832 45.1413 47.3452 45.4027 47.0745 45.608C46.8039 45.8133 46.4865 45.958 46.1225 46.042C45.7679 46.1353 45.3385 46.182 44.8345 46.182Z" fill="#003DA5"/>
<path d="M464.98 36.2H467.556L470.272 41.17L472.96 36.2H475.48V46H472.96V40.386L470.93 44.11H469.53L467.5 40.386V46H464.98V36.2ZM482.545 42.094C482.302 42.2527 481.98 42.3973 481.579 42.528C481.178 42.6493 480.706 42.71 480.165 42.71C479.148 42.71 478.378 42.458 477.855 41.954C477.342 41.4407 477.085 40.6193 477.085 39.49V36.2H479.605V39.07C479.605 39.63 479.722 40.0267 479.955 40.26C480.188 40.4933 480.515 40.61 480.935 40.61C481.327 40.61 481.649 40.568 481.901 40.484C482.162 40.3907 482.377 40.2927 482.545 40.19V36.2H485.065V46H482.545V42.094ZM491.219 46.182C490.547 46.182 489.931 46.0933 489.371 45.916C488.811 45.7293 488.33 45.4353 487.929 45.034C487.537 44.6327 487.229 44.1147 487.005 43.48C486.781 42.8453 486.669 42.0707 486.669 41.156V40.89C486.669 40.0313 486.786 39.294 487.019 38.678C487.252 38.062 487.574 37.558 487.985 37.166C488.396 36.774 488.876 36.4847 489.427 36.298C489.987 36.1113 490.584 36.018 491.219 36.018C491.788 36.018 492.32 36.0833 492.815 36.214C493.319 36.3447 493.758 36.55 494.131 36.83C494.514 37.11 494.822 37.474 495.055 37.922C495.298 38.37 495.442 38.916 495.489 39.56H492.885C492.838 39.2987 492.764 39.0793 492.661 38.902C492.558 38.7153 492.432 38.566 492.283 38.454C492.134 38.3327 491.966 38.2487 491.779 38.202C491.602 38.146 491.415 38.118 491.219 38.118C490.939 38.118 490.678 38.1693 490.435 38.272C490.202 38.3653 489.996 38.524 489.819 38.748C489.651 38.9627 489.516 39.2473 489.413 39.602C489.32 39.9567 489.273 40.386 489.273 40.89V41.184C489.273 41.7253 489.324 42.1827 489.427 42.556C489.539 42.92 489.684 43.2187 489.861 43.452C490.038 43.676 490.244 43.8393 490.477 43.942C490.71 44.0353 490.958 44.082 491.219 44.082C491.695 44.082 492.073 43.97 492.353 43.746C492.642 43.5127 492.82 43.144 492.885 42.64H495.489C495.452 43.2933 495.316 43.844 495.083 44.292C494.859 44.74 494.556 45.104 494.173 45.384C493.8 45.664 493.361 45.8693 492.857 46C492.353 46.1213 491.807 46.182 491.219 46.182Z" fill="#003DA5"/>
<path d="M13.44 130.221C12.7147 130.221 12.0573 130.142 11.468 129.983C10.8787 129.813 10.3743 129.575 9.955 129.269C9.547 128.963 9.22967 128.595 9.003 128.164C8.78767 127.722 8.68 127.229 8.68 126.685C8.68 126.028 8.87833 125.438 9.275 124.917C9.67167 124.396 10.261 124.033 11.043 123.829C10.4537 123.636 9.96633 123.308 9.581 122.843C9.207 122.378 9.02 121.823 9.02 121.177C9.02 120.69 9.11633 120.242 9.309 119.834C9.513 119.426 9.802 119.08 10.176 118.797C10.55 118.502 11.009 118.276 11.553 118.117C12.1083 117.958 12.7373 117.879 13.44 117.879C14.1427 117.879 14.766 117.958 15.31 118.117C15.8653 118.276 16.33 118.502 16.704 118.797C17.078 119.08 17.3613 119.426 17.554 119.834C17.758 120.242 17.86 120.69 17.86 121.177C17.86 121.823 17.673 122.373 17.299 122.826C16.925 123.279 16.4377 123.614 15.837 123.829C16.619 124.056 17.2083 124.413 17.605 124.9C18.0017 125.387 18.2 125.982 18.2 126.685C18.2 127.229 18.0867 127.722 17.86 128.164C17.6447 128.595 17.3273 128.963 16.908 129.269C16.5 129.575 16.0013 129.813 15.412 129.983C14.8227 130.142 14.1653 130.221 13.44 130.221ZM13.44 127.875C14.052 127.875 14.5167 127.756 14.834 127.518C15.1513 127.269 15.31 126.929 15.31 126.498C15.31 126.033 15.123 125.671 14.749 125.41C14.3863 125.149 13.95 124.974 13.44 124.883C12.93 124.974 12.488 125.149 12.114 125.41C11.7513 125.671 11.57 126.033 11.57 126.498C11.57 126.929 11.7343 127.269 12.063 127.518C12.403 127.756 12.862 127.875 13.44 127.875ZM13.44 122.877C13.8707 122.798 14.2333 122.65 14.528 122.435C14.8227 122.22 14.97 121.897 14.97 121.466C14.97 121.058 14.834 120.752 14.562 120.548C14.29 120.333 13.916 120.225 13.44 120.225C12.964 120.225 12.59 120.327 12.318 120.531C12.046 120.735 11.91 121.047 11.91 121.466C11.91 121.897 12.0573 122.22 12.352 122.435C12.658 122.639 13.0207 122.786 13.44 122.877ZM19.299 127.824L23.243 124.56C23.6284 124.243 23.957 123.959 24.229 123.71C24.501 123.449 24.722 123.206 24.892 122.979C25.0734 122.752 25.2037 122.537 25.283 122.333C25.3737 122.118 25.419 121.897 25.419 121.67C25.419 121.273 25.3057 120.967 25.079 120.752C24.8637 120.537 24.552 120.429 24.144 120.429C23.0674 120.429 22.529 121.098 22.529 122.435H19.469C19.469 120.984 19.8544 119.862 20.625 119.069C21.407 118.276 22.58 117.879 24.144 117.879C24.8694 117.879 25.504 117.975 26.048 118.168C26.592 118.349 27.0454 118.61 27.408 118.95C27.7707 119.279 28.037 119.675 28.207 120.14C28.3884 120.605 28.479 121.115 28.479 121.67C28.479 122.078 28.4054 122.469 28.258 122.843C28.122 123.217 27.9237 123.58 27.663 123.931C27.4137 124.282 27.1134 124.622 26.762 124.951C26.4107 125.28 26.031 125.603 25.623 125.92L23.566 127.484H28.649V130H19.299V127.824Z" fill="#003DA5"/>
<path d="M463.425 124.824L467.369 121.56C467.754 121.243 468.083 120.959 468.355 120.71C468.627 120.449 468.848 120.206 469.018 119.979C469.199 119.752 469.33 119.537 469.409 119.333C469.5 119.118 469.545 118.897 469.545 118.67C469.545 118.273 469.432 117.967 469.205 117.752C468.99 117.537 468.678 117.429 468.27 117.429C467.193 117.429 466.655 118.098 466.655 119.435H463.595C463.595 117.984 463.98 116.862 464.751 116.069C465.533 115.276 466.706 114.879 468.27 114.879C468.995 114.879 469.63 114.975 470.174 115.168C470.718 115.349 471.171 115.61 471.534 115.95C471.897 116.279 472.163 116.675 472.333 117.14C472.514 117.605 472.605 118.115 472.605 118.67C472.605 119.078 472.531 119.469 472.384 119.843C472.248 120.217 472.05 120.58 471.789 120.931C471.54 121.282 471.239 121.622 470.888 121.951C470.537 122.28 470.157 122.603 469.749 122.92L467.692 124.484H472.775V127H463.425V124.824ZM478.476 127.221C477.717 127.221 477.048 127.119 476.47 126.915C475.903 126.7 475.427 126.405 475.042 126.031C474.657 125.657 474.368 125.215 474.175 124.705C473.982 124.184 473.886 123.617 473.886 123.005H476.946C476.946 123.56 477.071 123.98 477.32 124.263C477.581 124.535 477.994 124.671 478.561 124.671C479.048 124.671 479.411 124.552 479.649 124.314C479.887 124.076 480.006 123.747 480.006 123.328C480.006 122.897 479.881 122.569 479.632 122.342C479.394 122.115 479.009 122.002 478.476 122.002H477.473V119.758H478.476C479.383 119.758 479.836 119.356 479.836 118.551C479.836 118.2 479.723 117.928 479.496 117.735C479.281 117.531 478.969 117.429 478.561 117.429C477.598 117.429 477.116 117.928 477.116 118.925H474.056C474.056 117.656 474.436 116.664 475.195 115.95C475.966 115.236 477.059 114.879 478.476 114.879C479.179 114.879 479.802 114.964 480.346 115.134C480.901 115.293 481.366 115.519 481.74 115.814C482.114 116.097 482.397 116.443 482.59 116.851C482.794 117.248 482.896 117.69 482.896 118.177C482.896 118.823 482.715 119.373 482.352 119.826C481.989 120.279 481.502 120.602 480.89 120.795C481.604 120.988 482.142 121.316 482.505 121.781C482.879 122.246 483.066 122.852 483.066 123.6C483.066 124.144 482.958 124.637 482.743 125.079C482.528 125.521 482.222 125.901 481.825 126.218C481.428 126.535 480.947 126.785 480.38 126.966C479.813 127.136 479.179 127.221 478.476 127.221Z" fill="#003DA5"/>
<path d="M661.1 109.221C660.341 109.221 659.672 109.119 659.094 108.915C658.527 108.7 658.051 108.405 657.666 108.031C657.281 107.657 656.992 107.215 656.799 106.705C656.606 106.184 656.51 105.617 656.51 105.005H659.57C659.57 105.56 659.695 105.98 659.944 106.263C660.205 106.535 660.618 106.671 661.185 106.671C661.672 106.671 662.035 106.552 662.273 106.314C662.511 106.076 662.63 105.747 662.63 105.328C662.63 104.897 662.505 104.569 662.256 104.342C662.018 104.115 661.633 104.002 661.1 104.002H660.097V101.758H661.1C662.007 101.758 662.46 101.356 662.46 100.551C662.46 100.2 662.347 99.9277 662.12 99.735C661.905 99.531 661.593 99.429 661.185 99.429C660.222 99.429 659.74 99.9277 659.74 100.925H656.68C656.68 99.6557 657.06 98.664 657.819 97.95C658.59 97.236 659.683 96.879 661.1 96.879C661.803 96.879 662.426 96.964 662.97 97.134C663.525 97.2927 663.99 97.5193 664.364 97.814C664.738 98.0973 665.021 98.443 665.214 98.851C665.418 99.2477 665.52 99.6897 665.52 100.177C665.52 100.823 665.339 101.373 664.976 101.826C664.613 102.279 664.126 102.602 663.514 102.795C664.228 102.988 664.766 103.316 665.129 103.781C665.503 104.246 665.69 104.852 665.69 105.6C665.69 106.144 665.582 106.637 665.367 107.079C665.152 107.521 664.846 107.901 664.449 108.218C664.052 108.535 663.571 108.785 663.004 108.966C662.437 109.136 661.803 109.221 661.1 109.221ZM671.986 109.221C670.411 109.221 669.209 108.773 668.382 107.878C667.555 106.971 667.141 105.504 667.141 103.475V103.135C667.141 102.013 667.26 101.061 667.498 100.279C667.747 99.4857 668.087 98.8397 668.518 98.341C668.96 97.831 669.487 97.4627 670.099 97.236C670.722 96.998 671.408 96.879 672.156 96.879C673.335 96.879 674.275 97.1227 674.978 97.61C675.692 98.086 676.111 98.9077 676.236 100.075H673.346C673.187 99.531 672.762 99.259 672.071 99.259C671.776 99.259 671.51 99.3043 671.272 99.395C671.034 99.4857 670.83 99.65 670.66 99.888C670.49 100.115 670.348 100.426 670.235 100.823C670.133 101.208 670.076 101.696 670.065 102.285C670.337 101.888 670.717 101.611 671.204 101.452C671.691 101.293 672.213 101.214 672.768 101.214C673.958 101.214 674.876 101.554 675.522 102.234C676.168 102.903 676.491 103.798 676.491 104.92V105.107C676.491 105.73 676.383 106.297 676.168 106.807C675.953 107.306 675.647 107.736 675.25 108.099C674.853 108.45 674.377 108.728 673.822 108.932C673.278 109.125 672.666 109.221 671.986 109.221ZM671.816 106.841C672.315 106.841 672.706 106.699 672.989 106.416C673.284 106.121 673.431 105.719 673.431 105.209V105.039C673.431 104.54 673.284 104.149 672.989 103.866C672.706 103.571 672.315 103.424 671.816 103.424C671.317 103.424 670.921 103.571 670.626 103.866C670.343 104.149 670.201 104.54 670.201 105.039V105.209C670.201 105.719 670.343 106.121 670.626 106.416C670.921 106.699 671.317 106.841 671.816 106.841Z" fill="#003DA5"/>
<path d="M834.94 91.234C833.272 91.234 832 90.76 831.124 89.812C830.248 88.852 829.81 87.298 829.81 85.15V84.79C829.81 83.602 829.936 82.594 830.188 81.766C830.452 80.926 830.812 80.242 831.268 79.714C831.736 79.174 832.294 78.784 832.942 78.544C833.602 78.292 834.328 78.166 835.12 78.166C836.368 78.166 837.364 78.424 838.108 78.94C838.864 79.444 839.308 80.314 839.44 81.55H836.38C836.212 80.974 835.762 80.686 835.03 80.686C834.718 80.686 834.436 80.734 834.184 80.83C833.932 80.926 833.716 81.1 833.536 81.352C833.356 81.592 833.206 81.922 833.086 82.342C832.978 82.75 832.918 83.266 832.906 83.89C833.194 83.47 833.596 83.176 834.112 83.008C834.628 82.84 835.18 82.756 835.768 82.756C837.028 82.756 838 83.116 838.684 83.836C839.368 84.544 839.71 85.492 839.71 86.68V86.878C839.71 87.538 839.596 88.138 839.368 88.678C839.14 89.206 838.816 89.662 838.396 90.046C837.976 90.418 837.472 90.712 836.884 90.928C836.308 91.132 835.66 91.234 834.94 91.234ZM834.76 88.714C835.288 88.714 835.702 88.564 836.002 88.264C836.314 87.952 836.47 87.526 836.47 86.986V86.806C836.47 86.278 836.314 85.864 836.002 85.564C835.702 85.252 835.288 85.096 834.76 85.096C834.232 85.096 833.812 85.252 833.5 85.564C833.2 85.864 833.05 86.278 833.05 86.806V86.986C833.05 87.526 833.2 87.952 833.5 88.264C833.812 88.564 834.232 88.714 834.76 88.714ZM840.876 88.696L845.052 85.24C845.46 84.904 845.808 84.604 846.096 84.34C846.384 84.064 846.618 83.806 846.798 83.566C846.99 83.326 847.128 83.098 847.212 82.882C847.308 82.654 847.356 82.42 847.356 82.18C847.356 81.76 847.236 81.436 846.996 81.208C846.768 80.98 846.438 80.866 846.006 80.866C844.866 80.866 844.296 81.574 844.296 82.99H841.056C841.056 81.454 841.464 80.266 842.28 79.426C843.108 78.586 844.35 78.166 846.006 78.166C846.774 78.166 847.446 78.268 848.022 78.472C848.598 78.664 849.078 78.94 849.462 79.3C849.846 79.648 850.128 80.068 850.308 80.56C850.5 81.052 850.596 81.592 850.596 82.18C850.596 82.612 850.518 83.026 850.362 83.422C850.218 83.818 850.008 84.202 849.732 84.574C849.468 84.946 849.15 85.306 848.778 85.654C848.406 86.002 848.004 86.344 847.572 86.68L845.394 88.336H850.776V91H840.876V88.696Z" fill="#003DA5"/>
<path d="M194.425 74.824L198.369 71.56C198.754 71.2427 199.083 70.9593 199.355 70.71C199.627 70.4493 199.848 70.2057 200.018 69.979C200.199 69.7523 200.33 69.537 200.409 69.333C200.5 69.1177 200.545 68.8967 200.545 68.67C200.545 68.2733 200.432 67.9673 200.205 67.752C199.99 67.5367 199.678 67.429 199.27 67.429C198.193 67.429 197.655 68.0977 197.655 69.435H194.595C194.595 67.9843 194.98 66.8623 195.751 66.069C196.533 65.2757 197.706 64.879 199.27 64.879C199.995 64.879 200.63 64.9753 201.174 65.168C201.718 65.3493 202.171 65.61 202.534 65.95C202.897 66.2787 203.163 66.6753 203.333 67.14C203.514 67.6047 203.605 68.1147 203.605 68.67C203.605 69.078 203.531 69.469 203.384 69.843C203.248 70.217 203.05 70.5797 202.789 70.931C202.54 71.2823 202.239 71.6223 201.888 71.951C201.537 72.2797 201.157 72.6027 200.749 72.92L198.692 74.484H203.775V77H194.425V74.824ZM209.901 77.221C209.232 77.221 208.609 77.1133 208.031 76.898C207.453 76.6713 206.949 76.3143 206.518 75.827C206.087 75.3397 205.747 74.705 205.498 73.923C205.26 73.1297 205.141 72.172 205.141 71.05V70.71C205.141 69.6673 205.26 68.7777 205.498 68.041C205.747 67.3043 206.087 66.7037 206.518 66.239C206.949 65.763 207.453 65.4173 208.031 65.202C208.609 64.9867 209.232 64.879 209.901 64.879C210.57 64.879 211.193 64.9867 211.771 65.202C212.349 65.4173 212.853 65.763 213.284 66.239C213.715 66.7037 214.049 67.3043 214.287 68.041C214.536 68.7777 214.661 69.6673 214.661 70.71V71.05C214.661 72.172 214.536 73.1297 214.287 73.923C214.049 74.705 213.715 75.3397 213.284 75.827C212.853 76.3143 212.349 76.6713 211.771 76.898C211.193 77.1133 210.57 77.221 209.901 77.221ZM209.901 74.705C210.128 74.705 210.343 74.6483 210.547 74.535C210.762 74.4217 210.944 74.229 211.091 73.957C211.25 73.6737 211.374 73.2997 211.465 72.835C211.556 72.359 211.601 71.764 211.601 71.05V70.71C211.601 70.0867 211.556 69.5653 211.465 69.146C211.374 68.7153 211.25 68.3697 211.091 68.109C210.944 67.8483 210.762 67.667 210.547 67.565C210.343 67.4517 210.128 67.395 209.901 67.395C209.674 67.395 209.453 67.4517 209.238 67.565C209.034 67.667 208.853 67.8483 208.694 68.109C208.547 68.3697 208.428 68.7153 208.337 69.146C208.246 69.5653 208.201 70.0867 208.201 70.71V71.05C208.201 71.764 208.246 72.359 208.337 72.835C208.428 73.2997 208.547 73.6737 208.694 73.957C208.853 74.229 209.034 74.4217 209.238 74.535C209.453 74.6483 209.674 74.705 209.901 74.705ZM221.043 77.221C219.467 77.221 218.266 76.7733 217.439 75.878C216.611 74.9713 216.198 73.5037 216.198 71.475V71.135C216.198 70.013 216.317 69.061 216.555 68.279C216.804 67.4857 217.144 66.8397 217.575 66.341C218.017 65.831 218.544 65.4627 219.156 65.236C219.779 64.998 220.465 64.879 221.213 64.879C222.391 64.879 223.332 65.1227 224.035 65.61C224.749 66.086 225.168 66.9077 225.293 68.075H222.403C222.244 67.531 221.819 67.259 221.128 67.259C220.833 67.259 220.567 67.3043 220.329 67.395C220.091 67.4857 219.887 67.65 219.717 67.888C219.547 68.1147 219.405 68.4263 219.292 68.823C219.19 69.2083 219.133 69.6957 219.122 70.285C219.394 69.8883 219.773 69.6107 220.261 69.452C220.748 69.2933 221.269 69.214 221.825 69.214C223.015 69.214 223.933 69.554 224.579 70.234C225.225 70.9027 225.548 71.798 225.548 72.92V73.107C225.548 73.7303 225.44 74.297 225.225 74.807C225.009 75.3057 224.703 75.7363 224.307 76.099C223.91 76.4503 223.434 76.728 222.879 76.932C222.335 77.1247 221.723 77.221 221.043 77.221ZM220.873 74.841C221.371 74.841 221.762 74.6993 222.046 74.416C222.34 74.1213 222.488 73.719 222.488 73.209V73.039C222.488 72.5403 222.34 72.1493 222.046 71.866C221.762 71.5713 221.371 71.424 220.873 71.424C220.374 71.424 219.977 71.5713 219.683 71.866C219.399 72.1493 219.258 72.5403 219.258 73.039V73.209C219.258 73.719 219.399 74.1213 219.683 74.416C219.977 74.6993 220.374 74.841 220.873 74.841Z" fill="#003DA5"/>
<path d="M201.135 56.11C200.512 56.11 199.995 55.9707 199.584 55.692C199.173 55.406 198.902 54.977 198.77 54.405H199.804C200.009 54.9257 200.453 55.186 201.135 55.186C201.399 55.186 201.645 55.1383 201.872 55.043C202.099 54.9477 202.297 54.79 202.466 54.57C202.635 54.35 202.77 54.0567 202.873 53.69C202.976 53.3233 203.034 52.865 203.049 52.315C202.946 52.491 202.822 52.645 202.675 52.777C202.528 52.9017 202.367 53.0043 202.191 53.085C202.022 53.1583 201.846 53.2133 201.663 53.25C201.48 53.2867 201.304 53.305 201.135 53.305C200.365 53.305 199.749 53.0923 199.287 52.667C198.832 52.2343 198.605 51.6183 198.605 50.819V50.709C198.605 50.3423 198.671 50.005 198.803 49.697C198.942 49.389 199.129 49.125 199.364 48.905C199.599 48.6777 199.874 48.5017 200.189 48.377C200.504 48.2523 200.838 48.19 201.19 48.19C202.055 48.19 202.737 48.4723 203.236 49.037C203.742 49.6017 203.995 50.4927 203.995 51.71V51.93C203.995 52.6853 203.918 53.3307 203.764 53.866C203.61 54.394 203.401 54.8267 203.137 55.164C202.88 55.494 202.58 55.736 202.235 55.89C201.89 56.0367 201.524 56.11 201.135 56.11ZM201.278 52.381C201.813 52.381 202.22 52.2453 202.499 51.974C202.778 51.7027 202.917 51.314 202.917 50.808V50.698C202.917 50.1993 202.774 49.8107 202.488 49.532C202.209 49.2533 201.806 49.114 201.278 49.114C200.743 49.114 200.336 49.2497 200.057 49.521C199.778 49.785 199.639 50.1773 199.639 50.698V50.808C199.639 51.314 199.778 51.7027 200.057 51.974C200.336 52.2453 200.743 52.381 201.278 52.381ZM205.265 55.098H207.102V49.433L205.265 50.742V49.62L207.124 48.3H208.158V55.098H209.665V56H205.265V55.098ZM216.709 48.3H217.809L212.529 56H211.429L216.709 48.3ZM212.089 51.93C211.832 51.93 211.594 51.886 211.374 51.798C211.161 51.71 210.978 51.589 210.824 51.435C210.67 51.2737 210.549 51.083 210.461 50.863C210.373 50.6357 210.329 50.3863 210.329 50.115V50.005C210.329 49.7337 210.373 49.488 210.461 49.268C210.549 49.048 210.67 48.8573 210.824 48.696C210.978 48.5347 211.161 48.41 211.374 48.322C211.594 48.234 211.832 48.19 212.089 48.19C212.346 48.19 212.58 48.234 212.793 48.322C213.013 48.41 213.2 48.5347 213.354 48.696C213.508 48.8573 213.629 49.048 213.717 49.268C213.805 49.488 213.849 49.7337 213.849 50.005V50.115C213.849 50.3863 213.805 50.6357 213.717 50.863C213.629 51.083 213.508 51.2737 213.354 51.435C213.2 51.589 213.013 51.71 212.793 51.798C212.58 51.886 212.346 51.93 212.089 51.93ZM212.089 51.094C212.338 51.094 212.536 51.0133 212.683 50.852C212.83 50.6907 212.903 50.445 212.903 50.115V50.005C212.903 49.675 212.83 49.4293 212.683 49.268C212.536 49.1067 212.338 49.026 212.089 49.026C211.84 49.026 211.642 49.1067 211.495 49.268C211.348 49.4293 211.275 49.675 211.275 50.005V50.115C211.275 50.445 211.348 50.6907 211.495 50.852C211.642 51.0133 211.84 51.094 212.089 51.094ZM217.149 56.099C216.892 56.099 216.654 56.055 216.434 55.967C216.221 55.879 216.038 55.758 215.884 55.604C215.73 55.4427 215.609 55.252 215.521 55.032C215.433 54.8047 215.389 54.5553 215.389 54.284V54.174C215.389 53.9027 215.433 53.657 215.521 53.437C215.609 53.217 215.73 53.0263 215.884 52.865C216.038 52.7037 216.221 52.579 216.434 52.491C216.654 52.403 216.892 52.359 217.149 52.359C217.406 52.359 217.64 52.403 217.853 52.491C218.073 52.579 218.26 52.7037 218.414 52.865C218.568 53.0263 218.689 53.217 218.777 53.437C218.865 53.657 218.909 53.9027 218.909 54.174V54.284C218.909 54.5553 218.865 54.8047 218.777 55.032C218.689 55.252 218.568 55.4427 218.414 55.604C218.26 55.758 218.073 55.879 217.853 55.967C217.64 56.055 217.406 56.099 217.149 56.099ZM217.149 55.263C217.398 55.263 217.596 55.1823 217.743 55.021C217.89 54.8597 217.963 54.614 217.963 54.284V54.174C217.963 53.844 217.89 53.5983 217.743 53.437C217.596 53.2757 217.398 53.195 217.149 53.195C216.9 53.195 216.702 53.2757 216.555 53.437C216.408 53.5983 216.335 53.844 216.335 54.174V54.284C216.335 54.614 216.408 54.8597 216.555 55.021C216.702 55.1823 216.9 55.263 217.149 55.263Z" fill="#003DA5"/>
<path d="M12.135 110.11C11.717 110.11 11.343 110.055 11.013 109.945C10.6903 109.828 10.4153 109.67 10.188 109.472C9.96067 109.274 9.78833 109.043 9.671 108.779C9.55367 108.508 9.495 108.218 9.495 107.91H10.529C10.529 108.284 10.6573 108.592 10.914 108.834C11.1707 109.069 11.5777 109.186 12.135 109.186C12.6923 109.186 13.0993 109.065 13.356 108.823C13.6127 108.574 13.741 108.251 13.741 107.855C13.741 107.444 13.609 107.114 13.345 106.865C13.0883 106.608 12.685 106.48 12.135 106.48H11.31V105.6H12.135C12.663 105.6 13.0443 105.49 13.279 105.27C13.5137 105.043 13.631 104.731 13.631 104.335C13.631 103.954 13.5173 103.657 13.29 103.444C13.0627 103.224 12.6777 103.114 12.135 103.114C11.6143 103.114 11.233 103.228 10.991 103.455C10.7563 103.675 10.639 103.95 10.639 104.28H9.605C9.605 103.994 9.66 103.723 9.77 103.466C9.88733 103.209 10.0523 102.989 10.265 102.806C10.485 102.615 10.749 102.465 11.057 102.355C11.3723 102.245 11.7317 102.19 12.135 102.19C12.5383 102.19 12.8977 102.245 13.213 102.355C13.5283 102.465 13.7923 102.612 14.005 102.795C14.225 102.978 14.39 103.195 14.5 103.444C14.61 103.693 14.665 103.954 14.665 104.225C14.665 104.665 14.5477 105.039 14.313 105.347C14.0857 105.648 13.763 105.86 13.345 105.985C13.785 106.124 14.1333 106.352 14.39 106.667C14.6467 106.982 14.775 107.415 14.775 107.965C14.775 108.258 14.7163 108.537 14.599 108.801C14.4817 109.058 14.3093 109.285 14.082 109.483C13.862 109.674 13.587 109.828 13.257 109.945C12.927 110.055 12.553 110.11 12.135 110.11ZM18.8996 110.11C18.4742 110.11 18.0892 110.04 17.7446 109.901C17.3999 109.762 17.1029 109.549 16.8536 109.263C16.6116 108.97 16.4246 108.603 16.2926 108.163C16.1606 107.723 16.0946 107.199 16.0946 106.59V106.37C16.0946 105.615 16.1716 104.973 16.3256 104.445C16.4796 103.91 16.6886 103.477 16.9526 103.147C17.2166 102.81 17.5246 102.568 17.8766 102.421C18.2286 102.267 18.6062 102.19 19.0096 102.19C19.6036 102.19 20.1022 102.333 20.5056 102.619C20.9162 102.898 21.1876 103.323 21.3196 103.895H20.2856C20.0802 103.374 19.6549 103.114 19.0096 103.114C18.7309 103.114 18.4742 103.162 18.2396 103.257C18.0049 103.352 17.7996 103.51 17.6236 103.73C17.4549 103.95 17.3192 104.243 17.2166 104.61C17.1139 104.977 17.0552 105.435 17.0406 105.985C17.1432 105.809 17.2679 105.659 17.4146 105.534C17.5612 105.402 17.7189 105.299 17.8876 105.226C18.0636 105.145 18.2432 105.087 18.4266 105.05C18.6099 105.013 18.7859 104.995 18.9546 104.995C19.7246 104.995 20.3369 105.211 20.7916 105.644C21.2536 106.069 21.4846 106.682 21.4846 107.481V107.591C21.4846 107.958 21.4149 108.295 21.2756 108.603C21.1436 108.911 20.9602 109.179 20.7256 109.406C20.4909 109.626 20.2159 109.798 19.9006 109.923C19.5852 110.048 19.2516 110.11 18.8996 110.11ZM18.8116 109.186C19.3469 109.186 19.7539 109.05 20.0326 108.779C20.3112 108.508 20.4506 108.115 20.4506 107.602V107.492C20.4506 106.986 20.3112 106.597 20.0326 106.326C19.7539 106.055 19.3469 105.919 18.8116 105.919C18.2762 105.919 17.8692 106.055 17.5906 106.326C17.3119 106.597 17.1726 106.986 17.1726 107.492V107.602C17.1726 108.108 17.3119 108.5 17.5906 108.779C17.8692 109.05 18.2762 109.186 18.8116 109.186ZM28.8047 102.3H29.9047L24.6247 110H23.5247L28.8047 102.3ZM24.1847 105.93C23.9281 105.93 23.6897 105.886 23.4697 105.798C23.2571 105.71 23.0737 105.589 22.9197 105.435C22.7657 105.274 22.6447 105.083 22.5567 104.863C22.4687 104.636 22.4247 104.386 22.4247 104.115V104.005C22.4247 103.734 22.4687 103.488 22.5567 103.268C22.6447 103.048 22.7657 102.857 22.9197 102.696C23.0737 102.535 23.2571 102.41 23.4697 102.322C23.6897 102.234 23.9281 102.19 24.1847 102.19C24.4414 102.19 24.6761 102.234 24.8887 102.322C25.1087 102.41 25.2957 102.535 25.4497 102.696C25.6037 102.857 25.7247 103.048 25.8127 103.268C25.9007 103.488 25.9447 103.734 25.9447 104.005V104.115C25.9447 104.386 25.9007 104.636 25.8127 104.863C25.7247 105.083 25.6037 105.274 25.4497 105.435C25.2957 105.589 25.1087 105.71 24.8887 105.798C24.6761 105.886 24.4414 105.93 24.1847 105.93ZM24.1847 105.094C24.4341 105.094 24.6321 105.013 24.7787 104.852C24.9254 104.691 24.9987 104.445 24.9987 104.115V104.005C24.9987 103.675 24.9254 103.429 24.7787 103.268C24.6321 103.107 24.4341 103.026 24.1847 103.026C23.9354 103.026 23.7374 103.107 23.5907 103.268C23.4441 103.429 23.3707 103.675 23.3707 104.005V104.115C23.3707 104.445 23.4441 104.691 23.5907 104.852C23.7374 105.013 23.9354 105.094 24.1847 105.094ZM29.2447 110.099C28.9881 110.099 28.7497 110.055 28.5297 109.967C28.3171 109.879 28.1337 109.758 27.9797 109.604C27.8257 109.443 27.7047 109.252 27.6167 109.032C27.5287 108.805 27.4847 108.555 27.4847 108.284V108.174C27.4847 107.903 27.5287 107.657 27.6167 107.437C27.7047 107.217 27.8257 107.026 27.9797 106.865C28.1337 106.704 28.3171 106.579 28.5297 106.491C28.7497 106.403 28.9881 106.359 29.2447 106.359C29.5014 106.359 29.7361 106.403 29.9487 106.491C30.1687 106.579 30.3557 106.704 30.5097 106.865C30.6637 107.026 30.7847 107.217 30.8727 107.437C30.9607 107.657 31.0047 107.903 31.0047 108.174V108.284C31.0047 108.555 30.9607 108.805 30.8727 109.032C30.7847 109.252 30.6637 109.443 30.5097 109.604C30.3557 109.758 30.1687 109.879 29.9487 109.967C29.7361 110.055 29.5014 110.099 29.2447 110.099ZM29.2447 109.263C29.4941 109.263 29.6921 109.182 29.8387 109.021C29.9854 108.86 30.0587 108.614 30.0587 108.284V108.174C30.0587 107.844 29.9854 107.598 29.8387 107.437C29.6921 107.276 29.4941 107.195 29.2447 107.195C28.9954 107.195 28.7974 107.276 28.6507 107.437C28.5041 107.598 28.4307 107.844 28.4307 108.174V108.284C28.4307 108.614 28.5041 108.86 28.6507 109.021C28.7974 109.182 28.9954 109.263 29.2447 109.263Z" fill="#003DA5"/>
<path d="M371.605 39.098H373.442V33.433L371.605 34.742V33.62L373.464 32.3H374.498V39.098H376.005V40H371.605V39.098ZM379.749 40.11C379.375 40.11 379.019 40.0477 378.682 39.923C378.352 39.7983 378.062 39.5857 377.813 39.285C377.564 38.977 377.366 38.57 377.219 38.064C377.072 37.5507 376.999 36.9127 376.999 36.15V35.93C376.999 35.2187 377.072 34.6247 377.219 34.148C377.366 33.6713 377.564 33.29 377.813 33.004C378.062 32.7107 378.352 32.5017 378.682 32.377C379.019 32.2523 379.375 32.19 379.749 32.19C380.123 32.19 380.475 32.2523 380.805 32.377C381.142 32.5017 381.436 32.7107 381.685 33.004C381.934 33.29 382.132 33.6713 382.279 34.148C382.426 34.6247 382.499 35.2187 382.499 35.93V36.15C382.499 36.9127 382.426 37.5507 382.279 38.064C382.132 38.57 381.934 38.977 381.685 39.285C381.436 39.5857 381.142 39.7983 380.805 39.923C380.475 40.0477 380.123 40.11 379.749 40.11ZM379.749 39.208C379.976 39.208 380.193 39.1677 380.398 39.087C380.611 38.999 380.794 38.845 380.948 38.625C381.109 38.3977 381.234 38.086 381.322 37.69C381.417 37.294 381.465 36.7807 381.465 36.15V35.93C381.465 35.358 381.417 34.8887 381.322 34.522C381.234 34.1553 381.109 33.8657 380.948 33.653C380.794 33.4403 380.611 33.2937 380.398 33.213C380.193 33.1323 379.976 33.092 379.749 33.092C379.514 33.092 379.294 33.1323 379.089 33.213C378.884 33.2937 378.7 33.4403 378.539 33.653C378.385 33.8657 378.26 34.1553 378.165 34.522C378.077 34.8887 378.033 35.358 378.033 35.93V36.15C378.033 36.7807 378.077 37.294 378.165 37.69C378.26 38.086 378.385 38.3977 378.539 38.625C378.7 38.845 378.884 38.999 379.089 39.087C379.294 39.1677 379.514 39.208 379.749 39.208ZM386.57 40.11C386.196 40.11 385.84 40.0477 385.503 39.923C385.173 39.7983 384.883 39.5857 384.634 39.285C384.385 38.977 384.187 38.57 384.04 38.064C383.893 37.5507 383.82 36.9127 383.82 36.15V35.93C383.82 35.2187 383.893 34.6247 384.04 34.148C384.187 33.6713 384.385 33.29 384.634 33.004C384.883 32.7107 385.173 32.5017 385.503 32.377C385.84 32.2523 386.196 32.19 386.57 32.19C386.944 32.19 387.296 32.2523 387.626 32.377C387.963 32.5017 388.257 32.7107 388.506 33.004C388.755 33.29 388.953 33.6713 389.1 34.148C389.247 34.6247 389.32 35.2187 389.32 35.93V36.15C389.32 36.9127 389.247 37.5507 389.1 38.064C388.953 38.57 388.755 38.977 388.506 39.285C388.257 39.5857 387.963 39.7983 387.626 39.923C387.296 40.0477 386.944 40.11 386.57 40.11ZM386.57 39.208C386.797 39.208 387.014 39.1677 387.219 39.087C387.432 38.999 387.615 38.845 387.769 38.625C387.93 38.3977 388.055 38.086 388.143 37.69C388.238 37.294 388.286 36.7807 388.286 36.15V35.93C388.286 35.358 388.238 34.8887 388.143 34.522C388.055 34.1553 387.93 33.8657 387.769 33.653C387.615 33.4403 387.432 33.2937 387.219 33.213C387.014 33.1323 386.797 33.092 386.57 33.092C386.335 33.092 386.115 33.1323 385.91 33.213C385.705 33.2937 385.521 33.4403 385.36 33.653C385.206 33.8657 385.081 34.1553 384.986 34.522C384.898 34.8887 384.854 35.358 384.854 35.93V36.15C384.854 36.7807 384.898 37.294 384.986 37.69C385.081 38.086 385.206 38.3977 385.36 38.625C385.521 38.845 385.705 38.999 385.91 39.087C386.115 39.1677 386.335 39.208 386.57 39.208ZM396.691 32.3H397.791L392.511 40H391.411L396.691 32.3ZM392.071 35.93C391.815 35.93 391.576 35.886 391.356 35.798C391.144 35.71 390.96 35.589 390.806 35.435C390.652 35.2737 390.531 35.083 390.443 34.863C390.355 34.6357 390.311 34.3863 390.311 34.115V34.005C390.311 33.7337 390.355 33.488 390.443 33.268C390.531 33.048 390.652 32.8573 390.806 32.696C390.96 32.5347 391.144 32.41 391.356 32.322C391.576 32.234 391.815 32.19 392.071 32.19C392.328 32.19 392.563 32.234 392.775 32.322C392.995 32.41 393.182 32.5347 393.336 32.696C393.49 32.8573 393.611 33.048 393.699 33.268C393.787 33.488 393.831 33.7337 393.831 34.005V34.115C393.831 34.3863 393.787 34.6357 393.699 34.863C393.611 35.083 393.49 35.2737 393.336 35.435C393.182 35.589 392.995 35.71 392.775 35.798C392.563 35.886 392.328 35.93 392.071 35.93ZM392.071 35.094C392.321 35.094 392.519 35.0133 392.665 34.852C392.812 34.6907 392.885 34.445 392.885 34.115V34.005C392.885 33.675 392.812 33.4293 392.665 33.268C392.519 33.1067 392.321 33.026 392.071 33.026C391.822 33.026 391.624 33.1067 391.477 33.268C391.331 33.4293 391.257 33.675 391.257 34.005V34.115C391.257 34.445 391.331 34.6907 391.477 34.852C391.624 35.0133 391.822 35.094 392.071 35.094ZM397.131 40.099C396.875 40.099 396.636 40.055 396.416 39.967C396.204 39.879 396.02 39.758 395.866 39.604C395.712 39.4427 395.591 39.252 395.503 39.032C395.415 38.8047 395.371 38.5553 395.371 38.284V38.174C395.371 37.9027 395.415 37.657 395.503 37.437C395.591 37.217 395.712 37.0263 395.866 36.865C396.02 36.7037 396.204 36.579 396.416 36.491C396.636 36.403 396.875 36.359 397.131 36.359C397.388 36.359 397.623 36.403 397.835 36.491C398.055 36.579 398.242 36.7037 398.396 36.865C398.55 37.0263 398.671 37.217 398.759 37.437C398.847 37.657 398.891 37.9027 398.891 38.174V38.284C398.891 38.5553 398.847 38.8047 398.759 39.032C398.671 39.252 398.55 39.4427 398.396 39.604C398.242 39.758 398.055 39.879 397.835 39.967C397.623 40.055 397.388 40.099 397.131 40.099ZM397.131 39.263C397.381 39.263 397.579 39.1823 397.725 39.021C397.872 38.8597 397.945 38.614 397.945 38.284V38.174C397.945 37.844 397.872 37.5983 397.725 37.437C397.579 37.2757 397.381 37.195 397.131 37.195C396.882 37.195 396.684 37.2757 396.537 37.437C396.391 37.5983 396.317 37.844 396.317 38.174V38.284C396.317 38.614 396.391 38.8597 396.537 39.021C396.684 39.1823 396.882 39.263 397.131 39.263Z" fill="#003DA5"/>
<path d="M828.605 67.098H830.442V61.433L828.605 62.742V61.62L830.464 60.3H831.498V67.098H833.005V68H828.605V67.098ZM836.749 68.11C836.375 68.11 836.019 68.0477 835.682 67.923C835.352 67.7983 835.062 67.5857 834.813 67.285C834.564 66.977 834.366 66.57 834.219 66.064C834.072 65.5507 833.999 64.9127 833.999 64.15V63.93C833.999 63.2187 834.072 62.6247 834.219 62.148C834.366 61.6713 834.564 61.29 834.813 61.004C835.062 60.7107 835.352 60.5017 835.682 60.377C836.019 60.2523 836.375 60.19 836.749 60.19C837.123 60.19 837.475 60.2523 837.805 60.377C838.142 60.5017 838.436 60.7107 838.685 61.004C838.934 61.29 839.132 61.6713 839.279 62.148C839.426 62.6247 839.499 63.2187 839.499 63.93V64.15C839.499 64.9127 839.426 65.5507 839.279 66.064C839.132 66.57 838.934 66.977 838.685 67.285C838.436 67.5857 838.142 67.7983 837.805 67.923C837.475 68.0477 837.123 68.11 836.749 68.11ZM836.749 67.208C836.976 67.208 837.193 67.1677 837.398 67.087C837.611 66.999 837.794 66.845 837.948 66.625C838.109 66.3977 838.234 66.086 838.322 65.69C838.417 65.294 838.465 64.7807 838.465 64.15V63.93C838.465 63.358 838.417 62.8887 838.322 62.522C838.234 62.1553 838.109 61.8657 837.948 61.653C837.794 61.4403 837.611 61.2937 837.398 61.213C837.193 61.1323 836.976 61.092 836.749 61.092C836.514 61.092 836.294 61.1323 836.089 61.213C835.884 61.2937 835.7 61.4403 835.539 61.653C835.385 61.8657 835.26 62.1553 835.165 62.522C835.077 62.8887 835.033 63.358 835.033 63.93V64.15C835.033 64.7807 835.077 65.294 835.165 65.69C835.26 66.086 835.385 66.3977 835.539 66.625C835.7 66.845 835.884 66.999 836.089 67.087C836.294 67.1677 836.514 67.208 836.749 67.208ZM843.57 68.11C843.196 68.11 842.84 68.0477 842.503 67.923C842.173 67.7983 841.883 67.5857 841.634 67.285C841.385 66.977 841.187 66.57 841.04 66.064C840.893 65.5507 840.82 64.9127 840.82 64.15V63.93C840.82 63.2187 840.893 62.6247 841.04 62.148C841.187 61.6713 841.385 61.29 841.634 61.004C841.883 60.7107 842.173 60.5017 842.503 60.377C842.84 60.2523 843.196 60.19 843.57 60.19C843.944 60.19 844.296 60.2523 844.626 60.377C844.963 60.5017 845.257 60.7107 845.506 61.004C845.755 61.29 845.953 61.6713 846.1 62.148C846.247 62.6247 846.32 63.2187 846.32 63.93V64.15C846.32 64.9127 846.247 65.5507 846.1 66.064C845.953 66.57 845.755 66.977 845.506 67.285C845.257 67.5857 844.963 67.7983 844.626 67.923C844.296 68.0477 843.944 68.11 843.57 68.11ZM843.57 67.208C843.797 67.208 844.014 67.1677 844.219 67.087C844.432 66.999 844.615 66.845 844.769 66.625C844.93 66.3977 845.055 66.086 845.143 65.69C845.238 65.294 845.286 64.7807 845.286 64.15V63.93C845.286 63.358 845.238 62.8887 845.143 62.522C845.055 62.1553 844.93 61.8657 844.769 61.653C844.615 61.4403 844.432 61.2937 844.219 61.213C844.014 61.1323 843.797 61.092 843.57 61.092C843.335 61.092 843.115 61.1323 842.91 61.213C842.705 61.2937 842.521 61.4403 842.36 61.653C842.206 61.8657 842.081 62.1553 841.986 62.522C841.898 62.8887 841.854 63.358 841.854 63.93V64.15C841.854 64.7807 841.898 65.294 841.986 65.69C842.081 66.086 842.206 66.3977 842.36 66.625C842.521 66.845 842.705 66.999 842.91 67.087C843.115 67.1677 843.335 67.208 843.57 67.208ZM853.691 60.3H854.791L849.511 68H848.411L853.691 60.3ZM849.071 63.93C848.815 63.93 848.576 63.886 848.356 63.798C848.144 63.71 847.96 63.589 847.806 63.435C847.652 63.2737 847.531 63.083 847.443 62.863C847.355 62.6357 847.311 62.3863 847.311 62.115V62.005C847.311 61.7337 847.355 61.488 847.443 61.268C847.531 61.048 847.652 60.8573 847.806 60.696C847.96 60.5347 848.144 60.41 848.356 60.322C848.576 60.234 848.815 60.19 849.071 60.19C849.328 60.19 849.563 60.234 849.775 60.322C849.995 60.41 850.182 60.5347 850.336 60.696C850.49 60.8573 850.611 61.048 850.699 61.268C850.787 61.488 850.831 61.7337 850.831 62.005V62.115C850.831 62.3863 850.787 62.6357 850.699 62.863C850.611 63.083 850.49 63.2737 850.336 63.435C850.182 63.589 849.995 63.71 849.775 63.798C849.563 63.886 849.328 63.93 849.071 63.93ZM849.071 63.094C849.321 63.094 849.519 63.0133 849.665 62.852C849.812 62.6907 849.885 62.445 849.885 62.115V62.005C849.885 61.675 849.812 61.4293 849.665 61.268C849.519 61.1067 849.321 61.026 849.071 61.026C848.822 61.026 848.624 61.1067 848.477 61.268C848.331 61.4293 848.257 61.675 848.257 62.005V62.115C848.257 62.445 848.331 62.6907 848.477 62.852C848.624 63.0133 848.822 63.094 849.071 63.094ZM854.131 68.099C853.875 68.099 853.636 68.055 853.416 67.967C853.204 67.879 853.02 67.758 852.866 67.604C852.712 67.4427 852.591 67.252 852.503 67.032C852.415 66.8047 852.371 66.5553 852.371 66.284V66.174C852.371 65.9027 852.415 65.657 852.503 65.437C852.591 65.217 852.712 65.0263 852.866 64.865C853.02 64.7037 853.204 64.579 853.416 64.491C853.636 64.403 853.875 64.359 854.131 64.359C854.388 64.359 854.623 64.403 854.835 64.491C855.055 64.579 855.242 64.7037 855.396 64.865C855.55 65.0263 855.671 65.217 855.759 65.437C855.847 65.657 855.891 65.9027 855.891 66.174V66.284C855.891 66.5553 855.847 66.8047 855.759 67.032C855.671 67.252 855.55 67.4427 855.396 67.604C855.242 67.758 855.055 67.879 854.835 67.967C854.623 68.055 854.388 68.099 854.131 68.099ZM854.131 67.263C854.381 67.263 854.579 67.1823 854.725 67.021C854.872 66.8597 854.945 66.614 854.945 66.284V66.174C854.945 65.844 854.872 65.5983 854.725 65.437C854.579 65.2757 854.381 65.195 854.131 65.195C853.882 65.195 853.684 65.2757 853.537 65.437C853.391 65.5983 853.317 65.844 853.317 66.174V66.284C853.317 66.614 853.391 66.8597 853.537 67.021C853.684 67.1823 853.882 67.263 854.131 67.263Z" fill="#003DA5"/>
<path d="M659.19 89.11C658.772 89.11 658.409 89.055 658.101 88.945C657.793 88.8277 657.533 88.6773 657.32 88.494C657.115 88.3033 656.957 88.0907 656.847 87.856C656.737 87.6213 656.675 87.3793 656.66 87.13H657.694C657.731 87.4087 657.877 87.6543 658.134 87.867C658.398 88.0797 658.75 88.186 659.19 88.186C659.689 88.186 660.081 88.032 660.367 87.724C660.653 87.4087 660.796 86.9723 660.796 86.415C660.796 86.0997 660.748 85.8283 660.653 85.601C660.565 85.3737 660.444 85.1903 660.29 85.051C660.143 84.9117 659.975 84.809 659.784 84.743C659.593 84.677 659.395 84.644 659.19 84.644C658.794 84.644 658.482 84.7173 658.255 84.864C658.035 85.0107 657.866 85.1793 657.749 85.37H656.825V81.3H661.39V82.202H657.859V84.347C658.24 83.929 658.739 83.72 659.355 83.72C660.118 83.72 660.719 83.951 661.159 84.413C661.606 84.875 661.83 85.5423 661.83 86.415C661.83 86.8257 661.764 87.1997 661.632 87.537C661.507 87.867 661.328 88.1493 661.093 88.384C660.866 88.6187 660.587 88.7983 660.257 88.923C659.934 89.0477 659.579 89.11 659.19 89.11ZM665.736 89.11C665.281 89.11 664.882 89.055 664.537 88.945C664.192 88.835 663.903 88.6847 663.668 88.494C663.441 88.3033 663.268 88.0797 663.151 87.823C663.041 87.559 662.986 87.273 662.986 86.965C662.986 86.525 663.125 86.1327 663.404 85.788C663.683 85.436 664.093 85.1867 664.636 85.04C664.438 84.974 664.251 84.886 664.075 84.776C663.906 84.6587 663.756 84.523 663.624 84.369C663.492 84.215 663.389 84.0427 663.316 83.852C663.243 83.654 663.206 83.445 663.206 83.225C663.206 82.939 663.261 82.6713 663.371 82.422C663.481 82.1727 663.642 81.96 663.855 81.784C664.068 81.6007 664.332 81.4577 664.647 81.355C664.962 81.245 665.325 81.19 665.736 81.19C666.147 81.19 666.51 81.245 666.825 81.355C667.14 81.4577 667.404 81.6007 667.617 81.784C667.83 81.96 667.991 82.1727 668.101 82.422C668.211 82.6713 668.266 82.939 668.266 83.225C668.266 83.665 668.127 84.039 667.848 84.347C667.577 84.655 667.239 84.886 666.836 85.04C667.386 85.2233 667.797 85.4653 668.068 85.766C668.347 86.0667 668.486 86.4663 668.486 86.965C668.486 87.273 668.427 87.559 668.31 87.823C668.2 88.0797 668.028 88.3033 667.793 88.494C667.566 88.6847 667.28 88.835 666.935 88.945C666.59 89.055 666.191 89.11 665.736 89.11ZM665.736 88.186C666.051 88.186 666.319 88.153 666.539 88.087C666.759 88.0137 666.935 87.922 667.067 87.812C667.206 87.6947 667.305 87.559 667.364 87.405C667.423 87.2437 667.452 87.075 667.452 86.899C667.452 86.6937 667.408 86.5067 667.32 86.338C667.239 86.1693 667.122 86.0227 666.968 85.898C666.814 85.766 666.631 85.6633 666.418 85.59C666.213 85.5093 665.985 85.4543 665.736 85.425C665.487 85.4543 665.256 85.5093 665.043 85.59C664.838 85.6633 664.658 85.7623 664.504 85.887C664.35 86.0117 664.229 86.162 664.141 86.338C664.06 86.5067 664.02 86.6937 664.02 86.899C664.02 87.075 664.049 87.2437 664.108 87.405C664.167 87.559 664.262 87.6947 664.394 87.812C664.533 87.922 664.713 88.0137 664.933 88.087C665.153 88.153 665.421 88.186 665.736 88.186ZM665.736 84.655C666.176 84.5963 666.535 84.457 666.814 84.237C667.093 84.0097 667.232 83.6907 667.232 83.28C667.232 82.906 667.107 82.62 666.858 82.422C666.616 82.2167 666.242 82.114 665.736 82.114C665.223 82.114 664.845 82.2167 664.603 82.422C664.361 82.62 664.24 82.906 664.24 83.28C664.24 83.6907 664.379 84.0097 664.658 84.237C664.937 84.457 665.296 84.5963 665.736 84.655ZM675.805 81.3H676.905L671.625 89H670.525L675.805 81.3ZM671.185 84.93C670.928 84.93 670.69 84.886 670.47 84.798C670.257 84.71 670.074 84.589 669.92 84.435C669.766 84.2737 669.645 84.083 669.557 83.863C669.469 83.6357 669.425 83.3863 669.425 83.115V83.005C669.425 82.7337 669.469 82.488 669.557 82.268C669.645 82.048 669.766 81.8573 669.92 81.696C670.074 81.5347 670.257 81.41 670.47 81.322C670.69 81.234 670.928 81.19 671.185 81.19C671.441 81.19 671.676 81.234 671.889 81.322C672.109 81.41 672.296 81.5347 672.45 81.696C672.604 81.8573 672.725 82.048 672.813 82.268C672.901 82.488 672.945 82.7337 672.945 83.005V83.115C672.945 83.3863 672.901 83.6357 672.813 83.863C672.725 84.083 672.604 84.2737 672.45 84.435C672.296 84.589 672.109 84.71 671.889 84.798C671.676 84.886 671.441 84.93 671.185 84.93ZM671.185 84.094C671.434 84.094 671.632 84.0133 671.779 83.852C671.925 83.6907 671.999 83.445 671.999 83.115V83.005C671.999 82.675 671.925 82.4293 671.779 82.268C671.632 82.1067 671.434 82.026 671.185 82.026C670.935 82.026 670.737 82.1067 670.591 82.268C670.444 82.4293 670.371 82.675 670.371 83.005V83.115C670.371 83.445 670.444 83.6907 670.591 83.852C670.737 84.0133 670.935 84.094 671.185 84.094ZM676.245 89.099C675.988 89.099 675.75 89.055 675.53 88.967C675.317 88.879 675.134 88.758 674.98 88.604C674.826 88.4427 674.705 88.252 674.617 88.032C674.529 87.8047 674.485 87.5553 674.485 87.284V87.174C674.485 86.9027 674.529 86.657 674.617 86.437C674.705 86.217 674.826 86.0263 674.98 85.865C675.134 85.7037 675.317 85.579 675.53 85.491C675.75 85.403 675.988 85.359 676.245 85.359C676.501 85.359 676.736 85.403 676.949 85.491C677.169 85.579 677.356 85.7037 677.51 85.865C677.664 86.0263 677.785 86.217 677.873 86.437C677.961 86.657 678.005 86.9027 678.005 87.174V87.284C678.005 87.5553 677.961 87.8047 677.873 88.032C677.785 88.252 677.664 88.4427 677.51 88.604C677.356 88.758 677.169 88.879 676.949 88.967C676.736 89.055 676.501 89.099 676.245 89.099ZM676.245 88.263C676.494 88.263 676.692 88.1823 676.839 88.021C676.985 87.8597 677.059 87.614 677.059 87.284V87.174C677.059 86.844 676.985 86.5983 676.839 86.437C676.692 86.2757 676.494 86.195 676.245 86.195C675.995 86.195 675.797 86.2757 675.651 86.437C675.504 86.5983 675.431 86.844 675.431 87.174V87.284C675.431 87.614 675.504 87.8597 675.651 88.021C675.797 88.1823 675.995 88.263 676.245 88.263Z" fill="#003DA5"/>
<path d="M467.135 108.11C466.717 108.11 466.343 108.055 466.013 107.945C465.69 107.828 465.415 107.67 465.188 107.472C464.961 107.274 464.788 107.043 464.671 106.779C464.554 106.508 464.495 106.218 464.495 105.91H465.529C465.529 106.284 465.657 106.592 465.914 106.834C466.171 107.069 466.578 107.186 467.135 107.186C467.692 107.186 468.099 107.065 468.356 106.823C468.613 106.574 468.741 106.251 468.741 105.855C468.741 105.444 468.609 105.114 468.345 104.865C468.088 104.608 467.685 104.48 467.135 104.48H466.31V103.6H467.135C467.663 103.6 468.044 103.49 468.279 103.27C468.514 103.043 468.631 102.731 468.631 102.335C468.631 101.954 468.517 101.657 468.29 101.444C468.063 101.224 467.678 101.114 467.135 101.114C466.614 101.114 466.233 101.228 465.991 101.455C465.756 101.675 465.639 101.95 465.639 102.28H464.605C464.605 101.994 464.66 101.723 464.77 101.466C464.887 101.209 465.052 100.989 465.265 100.806C465.485 100.615 465.749 100.465 466.057 100.355C466.372 100.245 466.732 100.19 467.135 100.19C467.538 100.19 467.898 100.245 468.213 100.355C468.528 100.465 468.792 100.612 469.005 100.795C469.225 100.978 469.39 101.195 469.5 101.444C469.61 101.693 469.665 101.954 469.665 102.225C469.665 102.665 469.548 103.039 469.313 103.347C469.086 103.648 468.763 103.86 468.345 103.985C468.785 104.124 469.133 104.352 469.39 104.667C469.647 104.982 469.775 105.415 469.775 105.965C469.775 106.258 469.716 106.537 469.599 106.801C469.482 107.058 469.309 107.285 469.082 107.483C468.862 107.674 468.587 107.828 468.257 107.945C467.927 108.055 467.553 108.11 467.135 108.11ZM474.747 101.202H470.655V100.3H475.825V101.147L473.075 108H471.975L474.747 101.202ZM482.978 100.3H484.078L478.798 108H477.698L482.978 100.3ZM478.358 103.93C478.101 103.93 477.863 103.886 477.643 103.798C477.43 103.71 477.247 103.589 477.093 103.435C476.939 103.274 476.818 103.083 476.73 102.863C476.642 102.636 476.598 102.386 476.598 102.115V102.005C476.598 101.734 476.642 101.488 476.73 101.268C476.818 101.048 476.939 100.857 477.093 100.696C477.247 100.535 477.43 100.41 477.643 100.322C477.863 100.234 478.101 100.19 478.358 100.19C478.614 100.19 478.849 100.234 479.062 100.322C479.282 100.41 479.469 100.535 479.623 100.696C479.777 100.857 479.898 101.048 479.986 101.268C480.074 101.488 480.118 101.734 480.118 102.005V102.115C480.118 102.386 480.074 102.636 479.986 102.863C479.898 103.083 479.777 103.274 479.623 103.435C479.469 103.589 479.282 103.71 479.062 103.798C478.849 103.886 478.614 103.93 478.358 103.93ZM478.358 103.094C478.607 103.094 478.805 103.013 478.952 102.852C479.098 102.691 479.172 102.445 479.172 102.115V102.005C479.172 101.675 479.098 101.429 478.952 101.268C478.805 101.107 478.607 101.026 478.358 101.026C478.108 101.026 477.91 101.107 477.764 101.268C477.617 101.429 477.544 101.675 477.544 102.005V102.115C477.544 102.445 477.617 102.691 477.764 102.852C477.91 103.013 478.108 103.094 478.358 103.094ZM483.418 108.099C483.161 108.099 482.923 108.055 482.703 107.967C482.49 107.879 482.307 107.758 482.153 107.604C481.999 107.443 481.878 107.252 481.79 107.032C481.702 106.805 481.658 106.555 481.658 106.284V106.174C481.658 105.903 481.702 105.657 481.79 105.437C481.878 105.217 481.999 105.026 482.153 104.865C482.307 104.704 482.49 104.579 482.703 104.491C482.923 104.403 483.161 104.359 483.418 104.359C483.674 104.359 483.909 104.403 484.122 104.491C484.342 104.579 484.529 104.704 484.683 104.865C484.837 105.026 484.958 105.217 485.046 105.437C485.134 105.657 485.178 105.903 485.178 106.174V106.284C485.178 106.555 485.134 106.805 485.046 107.032C484.958 107.252 484.837 107.443 484.683 107.604C484.529 107.758 484.342 107.879 484.122 107.967C483.909 108.055 483.674 108.099 483.418 108.099ZM483.418 107.263C483.667 107.263 483.865 107.182 484.012 107.021C484.158 106.86 484.232 106.614 484.232 106.284V106.174C484.232 105.844 484.158 105.598 484.012 105.437C483.865 105.276 483.667 105.195 483.418 105.195C483.168 105.195 482.97 105.276 482.824 105.437C482.677 105.598 482.604 105.844 482.604 106.174V106.284C482.604 106.614 482.677 106.86 482.824 107.021C482.97 107.182 483.168 107.263 483.418 107.263Z" fill="#003DA5"/>
<path d="M368.45 58.696L372.626 55.24C373.034 54.904 373.382 54.604 373.67 54.34C373.958 54.064 374.192 53.806 374.372 53.566C374.564 53.326 374.702 53.098 374.786 52.882C374.882 52.654 374.93 52.42 374.93 52.18C374.93 51.76 374.81 51.436 374.57 51.208C374.342 50.98 374.012 50.866 373.58 50.866C372.44 50.866 371.87 51.574 371.87 52.99H368.63C368.63 51.454 369.038 50.266 369.854 49.426C370.682 48.586 371.924 48.166 373.58 48.166C374.348 48.166 375.02 48.268 375.596 48.472C376.172 48.664 376.652 48.94 377.036 49.3C377.42 49.648 377.702 50.068 377.882 50.56C378.074 51.052 378.17 51.592 378.17 52.18C378.17 52.612 378.092 53.026 377.936 53.422C377.792 53.818 377.582 54.202 377.306 54.574C377.042 54.946 376.724 55.306 376.352 55.654C375.98 56.002 375.578 56.344 375.146 56.68L372.968 58.336H378.35V61H368.45V58.696ZM379.436 58.696L383.612 55.24C384.02 54.904 384.368 54.604 384.656 54.34C384.944 54.064 385.178 53.806 385.358 53.566C385.55 53.326 385.688 53.098 385.772 52.882C385.868 52.654 385.916 52.42 385.916 52.18C385.916 51.76 385.796 51.436 385.556 51.208C385.328 50.98 384.998 50.866 384.566 50.866C383.426 50.866 382.856 51.574 382.856 52.99H379.616C379.616 51.454 380.024 50.266 380.84 49.426C381.668 48.586 382.91 48.166 384.566 48.166C385.334 48.166 386.006 48.268 386.582 48.472C387.158 48.664 387.638 48.94 388.022 49.3C388.406 49.648 388.688 50.068 388.868 50.56C389.06 51.052 389.156 51.592 389.156 52.18C389.156 52.612 389.078 53.026 388.922 53.422C388.778 53.818 388.568 54.202 388.292 54.574C388.028 54.946 387.71 55.306 387.338 55.654C386.966 56.002 386.564 56.344 386.132 56.68L383.954 58.336H389.336V61H379.436V58.696ZM395.913 61.234C394.245 61.234 392.973 60.76 392.097 59.812C391.221 58.852 390.783 57.298 390.783 55.15V54.79C390.783 53.602 390.909 52.594 391.161 51.766C391.425 50.926 391.785 50.242 392.241 49.714C392.709 49.174 393.267 48.784 393.915 48.544C394.575 48.292 395.301 48.166 396.093 48.166C397.341 48.166 398.337 48.424 399.081 48.94C399.837 49.444 400.281 50.314 400.413 51.55H397.353C397.185 50.974 396.735 50.686 396.003 50.686C395.691 50.686 395.409 50.734 395.157 50.83C394.905 50.926 394.689 51.1 394.509 51.352C394.329 51.592 394.179 51.922 394.059 52.342C393.951 52.75 393.891 53.266 393.879 53.89C394.167 53.47 394.569 53.176 395.085 53.008C395.601 52.84 396.153 52.756 396.741 52.756C398.001 52.756 398.973 53.116 399.657 53.836C400.341 54.544 400.683 55.492 400.683 56.68V56.878C400.683 57.538 400.569 58.138 400.341 58.678C400.113 59.206 399.789 59.662 399.369 60.046C398.949 60.418 398.445 60.712 397.857 60.928C397.281 61.132 396.633 61.234 395.913 61.234ZM395.733 58.714C396.261 58.714 396.675 58.564 396.975 58.264C397.287 57.952 397.443 57.526 397.443 56.986V56.806C397.443 56.278 397.287 55.864 396.975 55.564C396.675 55.252 396.261 55.096 395.733 55.096C395.205 55.096 394.785 55.252 394.473 55.564C394.173 55.864 394.023 56.278 394.023 56.806V56.986C394.023 57.526 394.173 57.952 394.473 58.264C394.785 58.564 395.205 58.714 395.733 58.714Z" fill="#003DA5"/>
<defs>
<filter id="filter0_i_1_40" x="215.938" y="78.9219" width="161.276" height="16.0761" filterUnits="userSpaceOnUse" color-interpolation-filters="sRGB">
<feFlood flood-opacity="0" result="BackgroundImageFix"/>
<feBlend mode="normal" in="SourceGraphic" in2="BackgroundImageFix" result="shape"/>
<feColorMatrix in="SourceAlpha" type="matrix" values="0 0 0 0 0 0 0 0 0 0 0 0 0 0 0 0 0 0 127 0" result="hardAlpha"/>
<feOffset dy="4"/>
<feGaussianBlur stdDeviation="2"/>
<feComposite in2="hardAlpha" operator="arithmetic" k2="-1" k3="1"/>
<feColorMatrix type="matrix" values="0 0 0 0 0 0 0 0 0 0 0 0 0 0 0 0 0 0 0.25 0"/>
<feBlend mode="normal" in2="shape" result="effect1_innerShadow_1_40"/>
</filter>
<filter id="filter1_i_1_40" x="673.89" y="107.006" width="158.221" height="23.5461" filterUnits="userSpaceOnUse" color-interpolation-filters="sRGB">
<feFlood flood-opacity="0" result="BackgroundImageFix"/>
<feBlend mode="normal" in="SourceGraphic" in2="BackgroundImageFix" result="shape"/>
<feColorMatrix in="SourceAlpha" type="matrix" values="0 0 0 0 0 0 0 0 0 0 0 0 0 0 0 0 0 0 127 0" result="hardAlpha"/>
<feOffset dy="4"/>
<feGaussianBlur stdDeviation="2"/>
<feComposite in2="hardAlpha" operator="arithmetic" k2="-1" k3="1"/>
<feColorMatrix type="matrix" values="0 0 0 0 0 0 0 0 0 0 0 0 0 0 0 0 0 0 0.25 0"/>
<feBlend mode="normal" in2="shape" result="effect1_innerShadow_1_40"/>
</filter>
</defs>
</svg>
