<svg width="64" height="64" viewBox="0 0 64 64" fill="none" xmlns="http://www.w3.org/2000/svg">
<circle cx="32" cy="32" r="30.5" stroke="#0064DC" stroke-width="3"/>
<path fill-rule="evenodd" clip-rule="evenodd" d="M47.184 21.7633C47.7104 22.2746 48.0892 22.9113 48.2827 23.6096C48.777 26.2321 49.0168 28.8939 48.9991 31.56C49.0168 34.2261 48.777 36.8879 48.2827 39.5104C48.0892 40.2087 47.7104 40.8454 47.184 41.3567C46.6577 41.868 46.0023 42.2361 45.2836 42.424C42.6366 43.12 32 43.12 32 43.12C32 43.12 21.3634 43.12 18.7164 42.424C17.9977 42.2361 17.3423 41.868 16.816 41.3567C16.2896 40.8454 15.9108 40.2087 15.7173 39.5104C15.223 36.8879 14.9832 34.2261 15.0009 31.56C14.9832 28.8939 15.223 26.2321 15.7173 23.6096C15.9108 22.9113 16.2896 22.2746 16.816 21.7633C17.3423 21.252 17.9977 20.8839 18.7164 20.696C21.3634 20 32 20 32 20C32 20 42.6366 20 45.2836 20.696C46.0023 20.8839 46.6577 21.252 47.184 21.7633ZM37.44 31.5601L28.6 26.6035V36.5166L37.44 31.5601Z" fill="#0064DC"/>
</svg>
