<svg xmlns="http://www.w3.org/2000/svg" width="46.947" height="51.998"><path fill="#0050B2" d="M13.167 27.289c.012.012.024.023.035.036.318.324.751.51 1.205.516a1.72 1.72 0 001.262-2.927c-4.326-4.279-4.364-11.255-.085-15.58l.085-.085a1.779 1.779 0 000-2.41 1.721 1.721 0 00-2.434-.033l-.033.033c-5.656 5.638-5.672 14.793-.035 20.45zm18.111-2.374a1.72 1.72 0 001.263 2.926 1.72 1.72 0 001.205-.516c5.657-5.637 5.673-14.793.036-20.45l-.036-.035a1.721 1.721 0 00-2.434-.033l-.033.033a1.779 1.779 0 000 2.41c4.326 4.279 4.364 11.255.085 15.581-.03.027-.058.056-.086.084zM9.334 31.26l-.033-.033c-7.799-7.817-7.799-20.472 0-28.289A1.721 1.721 0 009.334.504L9.301.47a1.779 1.779 0 00-2.41 0c-9.174 9.156-9.189 24.016-.034 33.19l.034.034a1.836 1.836 0 002.41 0 1.721 1.721 0 00.033-2.434zM40.09.504L40.057.47a1.779 1.779 0 00-2.41 0 1.721 1.721 0 00-.033 2.434l.033.033c7.799 7.817 7.799 20.472 0 28.289a1.721 1.721 0 00-.033 2.434l.033.033a1.836 1.836 0 002.41 0c9.174-9.155 9.189-24.015.033-33.189zm-2.845 44.322l-9.927-22.723.631-.574a6.085 6.085 0 001.836-4.476 6.311 6.311 0 00-1.836-4.476 6.37 6.37 0 00-8.951 0 6.311 6.311 0 00-.025 8.926l.025.025.631.574-9.927 22.724a1.722 1.722 0 00.861 2.296l.689.115a1.78 1.78 0 001.607-1.033l1.951-4.533 6.943 4.419v4.189a1.721 1.721 0 103.442 0V46.09l6.943-4.419 1.951 4.533a1.78 1.78 0 001.607 1.033l.689-.115a1.722 1.722 0 00.871-2.273l-.011-.023zm-15.493-2.812l-5.509-3.5 5.509-12.624v16.124zm-.344-22.895c-1.046-1.124-1-2.907 0-4.074a2.926 2.926 0 014.131 0c.52.539.808 1.26.803 2.008a2.983 2.983 0 01-.803 2.065 2.925 2.925 0 01-4.131.001zm3.787 22.895V25.89l5.509 12.566-5.509 3.558z"/></svg>
