<svg xmlns="http://www.w3.org/2000/svg" width="48.021" height="32.004"><path fill="#0050B2" d="M46.96 3.617h-4.242V1.005A1.01 1.01 0 0041.708 0c-6.11 0-12.119 1.206-17.774 3.517C18.279 1.155 12.321 0 6.16 0a1.01 1.01 0 00-1.01 1.005v2.613H1.01A1.01 1.01 0 000 4.622V31a1.01 1.01 0 001.01 1.005h46.001A1.01 1.01 0 0048.021 31V4.572a1.088 1.088 0 00-1.061-.955zM1.969 30.045V5.577h3.282v21.805a1.01 1.01 0 001.01 1.005c4.04 0 7.978.603 11.816 1.658H1.969zm21.006-.503c-5.049-1.959-10.352-3.065-15.805-3.165V1.959h.051a44.642 44.642 0 0115.754 3.316v24.267zm2.02-24.267A44.934 44.934 0 0140.8 1.959v24.418c-5.504.101-10.755 1.206-15.805 3.165V5.275zm21.006 24.719H29.893c3.838-1.055 7.776-1.658 11.816-1.658a1.01 1.01 0 001.01-1.005V5.577h3.282v24.417zM10.907 8.24c2.676.301 5.352.804 7.928 1.608.101.05.202.05.303.05.404 0 .808-.301.96-.703a.984.984 0 00-.656-1.206 47.357 47.357 0 00-8.281-1.658c-.555-.05-1.01.352-1.111.854-.052.502.352 1.005.857 1.055zm0 4.773c2.676.301 5.352.804 7.928 1.608.101.05.202.05.303.05.404 0 .808-.251.96-.703.151-.553-.152-1.105-.656-1.256a47.357 47.357 0 00-8.281-1.658c-.555-.05-1.01.352-1.111.854-.052.552.352 1.004.857 1.105zm0 4.773c2.676.302 5.352.804 7.928 1.608.101.05.202.05.303.05.404 0 .808-.251.96-.704.151-.553-.152-1.105-.656-1.256a47.357 47.357 0 00-8.281-1.658c-.555-.05-1.01.352-1.111.854-.052.553.352 1.005.857 1.106zm0 4.723c2.676.301 5.352.804 7.928 1.607.101.051.202.051.303.051.404 0 .808-.251.96-.703.151-.553-.152-1.105-.656-1.256a47.357 47.357 0 00-8.281-1.658c-.555-.05-1.01.351-1.111.854-.052.552.352 1.004.857 1.105zM36.811 6.28a47.357 47.357 0 00-8.281 1.658.983.983 0 00-.656 1.206c.151.402.505.703.959.703.101 0 .202 0 .303-.051 2.626-.753 5.302-1.306 7.928-1.607a.945.945 0 00.858-1.105c-.051-.452-.556-.854-1.111-.804zm0 4.773a46.525 46.525 0 00-8.281 1.658.983.983 0 00-.656 1.206c.151.402.505.704.959.704.101 0 .202 0 .303-.051a47.273 47.273 0 017.928-1.608.945.945 0 00.858-1.105c-.051-.502-.556-.904-1.111-.804zm0 4.723c-2.777.301-5.605.904-8.281 1.708a.983.983 0 00-.656 1.206c.151.402.505.703.959.703.101 0 .202 0 .303-.05a47.074 47.074 0 017.928-1.608.945.945 0 00.858-1.105c-.051-.502-.556-.904-1.111-.854zm0 4.773a46.437 46.437 0 00-8.281 1.658.982.982 0 00-.656 1.205c.151.402.505.703.959.703.101 0 .202 0 .303-.05a47.273 47.273 0 017.928-1.608.945.945 0 00.858-1.105c-.051-.451-.556-.853-1.111-.803z"/></svg>
