<svg version="1.1" id="Layer_1" xmlns="http://www.w3.org/2000/svg" xmlns:xlink="http://www.w3.org/1999/xlink" x="0px" y="0px" 	 viewBox="0 0 284.7 333.4" style="enable-background:new 0 0 284.7 333.4;" xml:space="preserve">  <g> 	<path class="st0" d="M138.7,306.9c-2.7-0.2-5.6-0.6-8.4-1.4c-4.8,2-10,5.4-12.8,9.3c4.6,4.1,13.6,13.3,17.5,18.4 		c2.9-2.7,5.7-6.1,6.5-11.6c0-0.1-0.1-0.2-0.1-0.3C139,315.5,138.4,312.4,138.7,306.9z"/> 	<path class="st0" d="M135.2,21.8c0,3.9,3.2,7.1,7.1,7.1s7.1-3.2,7.1-7.1c0-2.8-1.6-5.2-3.9-6.3h0l8.7,0.9V8.7l-8.7,0.9l0.9-9.6h-8 		l0.9,9.6l-8.7-0.9v7.6l8.4-0.9C136.7,16.6,135.2,19,135.2,21.8z"/> 	<path class="st0" d="M133.3,74.9L133.3,74.9c-0.1,0-0.1,0-0.1,0c-3.4,0.3-6,3.4-5.7,6.8c0.3,3.2,3.1,5.8,6.3,5.8c0.2,0,0.3,0,0.5,0 		v0c0.1,0,0.1,0,0.1,0c3.4-0.3,6-3.4,5.7-6.8C139.8,77.2,136.8,74.6,133.3,74.9z"/> 	<path class="st0" d="M115.7,78.4l-0.3,0.1c-1.5,0.4-2.7,1.4-3.5,2.7c-0.8,1.3-1,2.9-0.6,4.4c0.7,2.5,3,4.3,5.6,4.3 		c0.5,0,1-0.1,1.5-0.2l0.1,0c3.1-0.8,5-4,4.2-7.1C121.9,79.4,118.8,77.6,115.7,78.4z"/> 	<path class="st0" d="M98,91.5c0.8,1.5,2.5,2.4,4.2,2.4c0.8,0,1.7-0.2,2.4-0.6l0.1-0.1c2.3-1.3,3.1-4.2,1.7-6.5 		c-1.3-2.3-4.3-3.1-6.6-1.8c0,0-0.1,0.1-0.1,0.1h0C97.4,86.3,96.7,89.2,98,91.5z"/> 	<path class="st0" d="M150.8,87.5c3.3,0,6.1-2.5,6.3-5.8c0.3-3.5-2.3-6.5-5.7-6.8c0,0-0.1,0-0.1,0v0c-3.5-0.3-6.6,2.3-6.8,5.8 		c-0.3,3.5,2.3,6.5,5.7,6.8c0,0,0.1,0,0.2,0l0,0C150.4,87.5,150.6,87.5,150.8,87.5z"/> 	<path class="st0" d="M184.7,84.9c-2.3-1.3-5.3-0.5-6.6,1.8c-1.3,2.3-0.6,5.2,1.7,6.5l0.1,0.1c0.7,0.4,1.5,0.6,2.4,0.6 		c1.7,0,3.3-0.9,4.2-2.4c1.3-2.3,0.6-5.2-1.7-6.5L184.7,84.9z"/> 	<path class="st0" d="M168.9,78.3c-3.1-0.8-6.3,1.1-7.1,4.2c-0.8,3.1,1.1,6.3,4.2,7.1l0.2,0c0.5,0.1,1,0.2,1.5,0.2 		c2.6,0,5-1.8,5.6-4.4c0.8-3.1-1.1-6.3-4.2-7.1L168.9,78.3z"/> 	<path class="st0" d="M119.3,27.5c-3.8,0.1-9.9,0.5-16.4,3.5c1.7,3.9,4.9,8.8,9.5,14.6C114.1,39.1,116.3,32.5,119.3,27.5z"/> 	<path class="st0" d="M92.9,54.7c0.5-7.5,1.7-14.3,2.9-19.5c-4.1,3.1-7.5,7.4-9.4,12.7C88.4,50.1,90.6,52.5,92.9,54.7z"/> 	<path class="st0" d="M181.6,31c-6.6-3-12.6-3.4-16.4-3.5c3,5.1,5.3,11.6,6.9,18.1C176.8,39.8,180,34.9,181.6,31z"/> 	<path class="st0" d="M92.4,76.2l3.2,5.7c4-3.1,28.3-11.7,46.7-11.7h0c18.4,0,42.9,8.3,46.9,11.4l3.1-5.6c3.2-4.6,6.2-9,7-13.4 		c0.7-4.1,0.6-7.8-0.1-11.2c-2.3,2.5-4.8,5-7.3,7.4c0.1,4.5-0.1,9.2-0.7,13.9c-0.8-0.5-1.8-1-2.9-1.5c0.4-3.2,0.6-6.4,0.6-9.6 		c-2.7,2.4-5.4,4.7-7.7,6.5c-1.1-0.4-2.2-0.8-3.4-1.2c3.2-2.4,7.1-5.7,11-9.3c-0.4-10.1-2.3-19.1-3.7-24.8c-0.2-0.1-0.4-0.3-0.7-0.4 		c-2.3,5.2-6.6,11.3-11.3,16.9c1.6,6.8,2.5,13.1,3,17.1c-1-0.3-2.1-0.7-3.2-1c-0.5-3.4-1.2-8.1-2.3-13.2c-3.4,3.9-6.7,7.4-9.4,10.2 		c-1.2-0.2-2.4-0.5-3.6-0.7c2.8-2.8,6.7-6.9,10.6-11.4c0.5-0.6,1-1.2,1.5-1.8c-1.8-7.6-4.4-15.5-8-20.9c-4.8,0.4-5,2.5-5,2.5 		c1.5,12.7-0.9,24.5-2.7,31c-2.3-0.3-4.5-0.6-6.8-0.7V33.5h0h-10h0v26.8c-2.2,0.2-4.5,0.4-6.8,0.7c-1.8-6.5-4.2-18.3-2.7-31 		c0,0-0.2-2.1-5-2.5c-3.6,5.4-6.2,13.3-8,20.9c0.5,0.6,1,1.2,1.5,1.8c3.9,4.5,7.8,8.6,10.6,11.4c-1.2,0.2-2.4,0.4-3.6,0.7 		c-2.7-2.7-6.1-6.3-9.4-10.2c-1.1,5.1-1.8,9.8-2.3,13.2c-1.1,0.3-2.1,0.7-3.2,1c0.5-4,1.4-10.3,3-17.1c-4.6-5.6-9-11.6-11.3-16.9 		c-0.2,0.1-0.4,0.3-0.7,0.4c-1.5,5.7-3.4,14.7-3.7,24.8c3.9,3.7,7.8,7,11,9.3c-1.2,0.4-2.3,0.8-3.4,1.2c-2.4-1.9-5-4.1-7.7-6.5 		c0,3.1,0.2,6.4,0.6,9.6c-1.1,0.5-2,1-2.9,1.5c-0.6-4.7-0.8-9.4-0.7-13.9c-2.5-2.4-5-4.9-7.3-7.4c-0.7,3.4-0.9,7.2-0.1,11.2 		C86.1,67.1,89.2,71.5,92.4,76.2z"/> 	<path class="st0" d="M198.1,47.9c-1.9-5.3-5.3-9.5-9.4-12.7c1.2,5.2,2.4,11.9,2.9,19.5C193.9,52.5,196.1,50.1,198.1,47.9z"/> 	<path class="st0" d="M190.8,126.2c-7.3-0.3-15.1-4.2-26.5-6.7c0,0,0,0,0,0c-15.2-4-36.4,0.5-47.4,1.6c-3.1,0.3-6.3-0.6-8.8-2.4 		c-4.4-3.3-6.8-5.7-9.2-6.9c-0.2-0.6-0.5-1.2-0.7-1.9c-0.5-1.6-1.7-1.7-2.4-1c-0.5,0.5-1.1,1.4-1.6,2.3c0,0,0,0-0.1,0 		c-0.8,0.1-1.9,0.3-3,0.7c-0.2-0.2-0.4-0.4-0.5-0.6c-1.1-1.3-2.3-0.9-2.6,0.1c-0.4,1-0.6,2.7-0.5,4c0,0,0,0,0,0 		c-0.8,1.9-0.9,4.1-1.7,6.1c-0.8,1.9-1.3,3.4-1.3,3.4s1.1,0.6,2.9,0.7c2.4,0.1,2.6-0.5,5.9-2.9c0,0,0,0,0,0c1-0.7,2.5-0.6,3.3,0.3 		c1,1,2.3,2.5,3.6,4.1c1,1.2,1.9,2.7,3.2,4.1c-1.7,1.5-4.1,3.5-7,5.6c-1.2,0.9-2.3,1.5-4.6,1.6c-0.9,0-2.2,1.6-1.2,2.1 		c1,0.5,3.1,0.4,5.4,0c0.7-0.1,7.5-3,12.2-5.6c0.6,0.3,1.3,0.6,2,0.8c-1.7,1.5-4.3,3.6-7.3,5.9c-1.2,0.9-2.3,1.5-4.6,1.6 		c-0.9,0-2.2,1.6-1.2,2.1s3.1,0.4,5.4,0c1-0.2,14.3-5.8,16.2-8.5c0.1-0.1,0.1-0.2,0.2-0.3c0.8-0.1,1.7-0.2,2.7-0.3 		c14.8-2.2,21.8-7.6,31.4-7.8c9.6-0.2,12.4,7.1,16.2,10.3c0.4,0.4,0.9,0.6,1.3,0.8c1,0.7,1.6,1.3,1.9,2.1c0.2,0.6-0.3,1.1-0.9,1.4 		c-1,0.5-1.5,2.3-0.4,2.3c0.3,0,2.6,0,3.9-0.1c1.4-0.1,1.4-2.9,0.7-4.6c0-0.1-0.1-0.2-0.2-0.3c2.3-0.1,4.5-0.4,6,0.6 		c1.2,0.8,1.8,1.4,2.2,2.2c0.2,0.6-0.3,1.1-0.9,1.4c-1,0.5-1.5,2.3-0.4,2.3c0.3,0,2.6,0,3.9-0.1c1.4-0.1,1.4-2.9,0.7-4.6 		c-0.8-2.1-2.6-4.8-4.1-5.6c-1-0.6-1.2-0.4-2-0.3c-2,0.3-2.9-2.9-3.5-5.6c-0.3-1.3-1-3.2-2.7-5.1c0.1-0.7,2.3,1.2,8.2,4 		c6.6,3.1,15.8,4.2,17.5,0.2c0.9-2-0.6-5-0.6-5S197.4,126.5,190.8,126.2z M91.3,119.3c-0.6,0.6-1.6,0.4-2.1,0.3 		c0-0.4-0.2-1.5,0.4-2.1c0.6-0.6,1.6-0.4,2.1-0.3C91.9,117.7,91.9,118.7,91.3,119.3z"/> 	<path class="st0" d="M212.5,80L212.5,80c0.1,0.9,0.2,1.8,0.4,2.7c2,1.3,4.1,3.4,4.6,4.9l14.7-14.8c-1.4-2.4-4.7-5.4-7.3-6.5 		c-3.1-1.4-5.9-1.3-8.6-0.4c-0.9,0.6-1.7,1.3-2.3,2.2C211.7,71.3,211.9,75.8,212.5,80C212.5,79.9,212.5,79.9,212.5,80z"/> 	<path class="st0" d="M71.7,82.6c0.2-0.8,0.3-1.7,0.4-2.6L72,80c0,0,0-0.1,0.1-0.1c0.6-4.1,0.7-8.6-1.5-11.8 		c-0.6-0.9-1.4-1.6-2.3-2.2c-2.7-0.8-5.5-1-8.6,0.4c-2.6,1.1-6,4.1-7.3,6.5l14.7,14.8C67.6,86,69.6,83.9,71.7,82.6z"/> 	<path class="st0" d="M142.3,287.3c-4,0-10.1,0.6-12.2,1.6c-0.7,0.5-0.7,2.3-0.7,5.4c0,3,1.3,8.1,1.7,9c2.1,1,7.2,1.6,11.2,1.6h0 		c4,0,9.3-0.9,11.4-1.9c0.3-0.8,1.3-6.1,1.4-9c0.1-3-0.1-4.5-0.6-5C152.4,287.9,146.3,287.3,142.3,287.3z"/> 	<path class="st0" d="M191.3,281.7c-0.6-2.3-4.4-4.6-9.5-4.6c-1.3,0-2.6,0.1-4,0.5c-5.2,1.2-9.2,4-13.2,7.2 		c-2.8,2.3-4.8,3.8-6.2,4.9c0.1,0.5,0.1,0.9,0.2,1.4c0,0,0,0.1,0,0.1c0,0.4,0,0.8,0,1.2c0,0.1,0,0.2,0,0.3c0,0.1,0,0.2,0,0.3 		c0,0.3,0,0.5-0.1,0.8c0,0,0,0.1,0,0.1c-0.4,4.3-2.1,8.7-2.1,8.7s4,0.7,13,0.9c3.6,0.1,7.5-0.1,12,0.9c2.1,0.6,3.7,1.4,4.6,2.5 		c1.2-3.3,2.6-9.3,3.4-15.3C189.9,288,190.4,285.6,191.3,281.7z"/> 	<path class="st0" d="M56.7,209.8c-4.4,5.6-9.9,10.3-15.4,14.7c0.6,8.7,2.2,16,3.5,20.6c0.9-0.8,1.9-1.5,2.8-2.3 		c5.6-4.9,11.2-10.4,14.5-17.2c0.7-1.4,1.2-2.8,1.7-4.3c-0.3-4.1-2.2-10-5.3-13.9C57.8,208.3,57.3,209.1,56.7,209.8z"/> 	<path class="st0" d="M65.7,105.8c0,0-2.1-1-7.3-0.1c-3.9,0.4-7.8,1.4-11.6,2.6c0,5.3-0.1,14.7-0.4,23.2c6-2,12.3-3.4,18.3-3.3 		c0,0,0,0,0,0c2.3,0,3.6,0.2,3.6,0.2L65.7,105.8z"/> 	<path class="st0" d="M77.9,318.5c-1.9,0.1-3.6,0.2-5.3,0.3c0.1,1.2,0.3,1.9,1.2,2.5c1.5,1,3.4,0.4,4.6,0.2c0.6-0.1,0.9,0.3,0.9,0.7 		c-0.2,2.8,0.5,5.2,3.6,5.8c2.7,0.5,5.9-2,6.1-5.1c0-0.5,0.5-0.9,1-1c4.9-0.8,5.3-4.2,4.9-7C88.5,316.8,82.9,318.1,77.9,318.5z"/> 	<path class="st0" d="M17.7,296.2c1.8-2.5,4.7-3.5,7.2-3.9c0.1-0.9,0.4-1.8,0.8-2.5c0.6-1.1,2-2.5,4.6-3c0.7-0.2,1.4-0.2,2.1-0.3 		c-3.5-1.6-6.9-3.5-10.1-5.8c-2.5-1.8-4.8-3.8-6.8-6c-3.8,6.1-4.5,12.9-3.7,17c1.4,2.2,3.1,4.3,5,6.2 		C17.1,297.3,17.4,296.7,17.7,296.2z"/> 	<path class="st0" d="M65.1,174.1c2.6-0.4,5.1-3,3.9-5.5c-1-2.1-4.4-3-6.6-1.7c-0.4,0.2-0.9,0.2-1.2-0.2c-3.4-3.3-6.1-1.2-7.9,0.7 		c-0.4,0.4-1.1,0.4-1.4,0c-0.6-0.7-1.7-1.4-3.2-0.2c-0.7,0.6-1.3,1.3-1.8,2c7.4,5.1,11.7,8.5,13.5,10c2.2-0.1,4.5-1,3.9-4.3 		C64.3,174.5,64.7,174.2,65.1,174.1z"/> 	<path class="st0" d="M93.1,295.3c-0.1-0.5-0.2-1-0.2-1.5c0-0.1,0-0.2,0-0.2c-0.1-0.6-0.2-1.1-0.2-1.6c-0.1-0.7-0.2-1.4-0.3-2 		c-4.2-1.1-8.5-2.7-12.7-4.5c-1.1-3.1-2.2-6.2-3.1-8.8c0.6-0.5,1-1.2,1.3-2c0.7-2.3-0.7-4.7-3-5.4s-4.7,0.7-5.4,3 		c-0.7,2.3,0.7,4.7,3,5.4c0.2,0.1,0.4,0.1,0.6,0.1c0.7,1.7,1.4,3.6,2.1,5.6c-4.4-2.2-8.6-4.7-12.5-7.6c-0.1-3.1-0.3-6.2-0.3-8.9 		c0-0.2,0.1-0.4,0.1-0.6c0.8-3,7-4.8,7.6-8.7c0.4-2.3-0.8-3.3-1.8-3.7c-0.6-0.3-0.9-1-0.6-1.6c1.2-2.5,3.4-8.9-2.7-9.4 		c-0.6,0-0.9-0.7-0.8-1.3c0.3-3.2-2-7-5.2-6.4c-2.8,0.5-5,4.2-4.1,7.3c0.2,0.6-0.1,1.1-0.6,1.4c-5,3-3.3,6.9-1.7,9.6 		c0.4,0.6,0.2,1.4-0.5,1.7c-1,0.5-2.2,1.6-1.2,3.7c1.9,4.3,6.2,4.7,8,9.4c0.1,1.5,0.2,3.1,0.3,4.7c-6.8-5.6-12.1-12.1-14.7-19 		c-0.8-2.1-1.5-4.3-2.2-6.7c0,0,0,0,0,0c-0.3-1-0.6-2.2-0.9-3.4c-0.1-0.2-0.1-0.5-0.2-0.7c-0.1-0.3-0.1-0.6-0.2-1 		c-0.5-2.4-1-4.8-1.4-7.4c-0.1-0.4-0.1-0.8-0.2-1.1c-0.1-0.5-0.1-0.9-0.2-1.4c-0.1-0.6-0.1-1-0.1-1c-0.4-2.7-0.6-5.5-0.9-8.4 		c0,0,0,0,0,0c2.8-4.3,5.7-8.8,7.9-11.8c0.5,0.1,1,0.1,1.5,0c2.5-0.5,4.2-2.9,3.7-5.5s-2.9-4.2-5.5-3.7c-2.5,0.5-4.2,2.9-3.7,5.5 		c0.1,0.6,0.4,1.2,0.7,1.7c-1.3,2.3-3.1,5.1-5,8.1c-0.3-8.2-0.1-17,0.7-26c0-0.5,0.1-1,0.1-1.5c1.1,0.7,2.1,1.4,3.1,2.1 		c4.8,3.2,11.8,7,16.9,11.8c0,0,0.1,0.1,0.1,0.1c0.1,0.1,0.3,0.3,0.4,0.4c0.2,0.2,0.5,0.5,0.7,0.7c0,0,0.1,0.1,0.1,0.1c0,0,0,0,0,0 		c2.2,2.5,3.9,5.8,5,9c0.6-6.8-0.3-13.8-0.7-20.5c0-0.3,0-0.5,0-0.8c0,0,0,0,0,0c0-0.8-0.1-1.1-0.2-1.2c-0.1-0.5-0.2-1-0.3-1.4 		c-2-7.3-10.3-12.3-16.1-16.3c-2.4-1.6-4.7-3.2-7.1-4.8c0.2-1.7,0.3-3.4,0.5-5.1c0.3-0.4,0.5-0.7,0.8-1.1c1.3-1.3,2.6-2.5,3.8-3.6 		c2.3-1.3,6.8,0.7,9.6-0.9c1.7-1,1.8-2.4,1.6-3.5c-0.1-0.6,0.2-1.3,0.8-1.4c2.3-0.4,7.7-2.2,5-7.2c-0.3-0.5,0-1.1,0.4-1.3 		c2.3-1.5,3.7-5.4,1.7-7.6c-1.8-1.9-5.4-1.6-7,0.7c-0.3,0.4-0.8,0.5-1.2,0.3c-4.6-2.3-6.3,1.1-7.3,3.9c-0.2,0.6-0.9,0.9-1.4,0.6 		c-0.8-0.5-2.6,0-3.4,1.9c-1.6,3.8,1.3,7.8-1,11.5c-0.5,0.6-1.1,1.2-1.8,1.8c0.9-10.6,1.8-22.5,2.3-34.3c0.3-6,0.3-11.6,0-17 		c3.1-3.8,6.3-7.8,8.7-10.5c0.5,0.2,1.1,0.3,1.7,0.2c2.4-0.2,4.2-2.2,4.1-4.7s-2.2-4.2-4.7-4.1c-2.4,0.2-4.2,2.2-4.1,4.7 		c0,0.4,0.1,0.8,0.3,1.2c-1.6,2.1-4,5.3-6.3,8.1c-0.4-5.1-1.1-10.2-2-15.7c0,0,0,0,0,0c-0.3-2-0.9-4.6-0.8-6.4 		c0.4-5.6,2.9-9.7,2.7-14.3c-0.1-2.6-1.9-3.2-3.2-3.2c-0.8,0-1.4-0.7-1.4-1.5c0.3-3.7,0.1-8.6-6.7-9.1c-0.7-0.1-1.2-0.5-1.3-1.1 		c-0.6-3.6-4.8-6.3-8-5.4c-3.7,1.1-4.1,6.2-2.1,9.4c0.4,0.6,0.3,1.4-0.2,1.7c-6,3.6-0.5,9.2,2,11.1c0.6,0.5,0.7,1.4,0.2,2 		c-0.8,1-1.6,2.6,0,4.8c2.1,3,8.5,2.2,12.1,6.9c0.8,1.1,1.1,3.2,1.6,4.9c0,0,0,0,0,0l0,0c1.1,6.3,1.8,12.1,2.2,17.8 		c-0.6-0.3-1.1-0.6-1.7-1c-3.7-4.2-1-9.6-4.1-13.4c-1.6-2-3.3-1.4-4.3-0.7c-0.7,0.5-1.6,0.3-1.9-0.4c-1.5-2.6-5.1-7.2-10.4-3.3 		c-0.5,0.4-1.2,0.3-1.7-0.1c-2.6-2.5-7.3-2.8-9.3,0.3c-2,3.1,0.3,7.2,3.7,8.5c0.6,0.2,0.9,0.8,0.8,1.5c-1.3,6.6,4.8,7.4,7.9,7.5 		c0.8,0,1.4,0.7,1.3,1.4c-0.1,1.2,0.3,2.9,2.7,3.7c4,1.3,5.1-3.6,15.1-1.2c0.7,0.4,1.5,0.8,2.2,1.2c0.1,1.3,0.1,2.6,0.1,3.8 		c-1.7,0.7-3.3,1.4-4.9,2.1c-4,1.8-8.7,4.1-12.9,7c-0.5-0.7-1-1.4-1.3-1.9c0.1-0.4,0.2-0.8,0.2-1.3c0-2.4-1.9-4.4-4.3-4.4 		c-2.4,0-4.4,1.9-4.4,4.3c0,2.4,1.9,4.4,4.3,4.4c0.3,0,0.6,0,1-0.1c0.4,0.4,0.8,0.9,1.3,1.4c-2.2,1.9-4.2,4-5.6,6.4 		c-0.8,4.9,0.2,11.8,5.1,17.7c3.8-3.6,8.6-6.5,13.2-8.7c2.8,3.5,5.2,6.8,6.8,9c-0.3,3.9-0.6,7.8-0.9,11.5c-1.9-2.8-3.8-5.5-5.1-7.6 		c0.3-0.5,0.6-1,0.7-1.6c0.5-2.4-1-4.7-3.3-5.2c-2.4-0.5-4.7,1-5.2,3.3c-0.5,2.4,1,4.7,3.3,5.2c0.4,0.1,0.8,0.1,1.2,0.1 		c2.1,2.8,5.5,7.6,8,11.1c0,0.5-0.1,1.1-0.1,1.6c-4.8-3.2-9.6-6.5-14-10.3c-1.7-1.4-3.3-2.9-4.9-4.6l0,0c-3.3-3.3-5.6-7.3-6.8-11.5 		c0,0.4,0,0.7,0,1.1c0.2,5.9,0.1,11.3,0.5,17.2c0,0.7,0.1,1.2,0.1,1.4c0,0,0,0,0,0c0.3,4.3,2.1,8.5,4.8,11.9 		c4.9,6.3,11.6,11.2,18.4,15.7c-0.1,1.5-0.3,2.9-0.4,4.2c-0.5,5.7-0.8,11.3-0.9,16.7c-0.2-0.2-0.4-0.4-0.6-0.6 		c-0.9-1.2-1.7-2.4-1.9-3.2c-1.5-4.9,0.3-10.2-1.7-14.8c-1.2-2.6-3-2.2-4.2-1.6c-0.8,0.4-1.6,0-1.9-0.9c-1.2-3.8-3.4-8.6-9.7-5.8 		c-0.6,0.3-1.3,0.1-1.7-0.5c-2-3.3-6.9-4-9.4-1.5c-2.9,2.9-1.3,8.2,1.8,10.4c0.5,0.4,0.9,1.2,0.5,1.8c-4.1,6.5,3.2,9.4,6.3,10 		c0.8,0.2,1.2,1,1,1.9c-0.4,1.4-0.4,3.3,1.9,4.7c3.9,2.4,10-2.5,13.3-0.9c0.5,0.2,1.2,0.8,2.1,1.5c1.1,1.1,2.3,2.3,3.4,3.5 		c0.3,0.3,0.6,0.7,0.9,1c0.1,4.2,0.3,8.3,0.6,12.3c-1.8-0.9-3.5-1.8-5.1-2.7c-2.7-3-3.2-5.6-6.3-7.3c-1.9-1-2.9,0-3.4,0.9 		c-0.3,0.6-1,0.7-1.6,0.3c-2-1.6-6.2-4-8.8,0.8c-0.3,0.5-0.8,0.7-1.3,0.5c-2.7-1.1-6.3,0.2-6.7,3.3c-0.4,3.1,2.7,5.5,5.6,5.5 		c0.5,0,1,0.4,1.1,0.9c1.3,5.5,6.1,4.2,8.4,3.3c0.6-0.2,1.2,0.1,1.4,0.7c0.3,1,1.2,2.5,3.3,2c3.4-0.8,6-6.1,11.5-5.1 		c0.8,0.4,1.5,0.7,2.2,1.1c0,0.4,0.1,0.8,0.2,1.3c-6.6,4.8-13.5,9.5-18.6,15.7c0-0.5-0.1-1-0.4-1.5c-1-2.2-3.6-3.2-5.8-2.2 		c-2.2,1-3.2,3.6-2.2,5.8c0.9,2,3.1,2.9,5.1,2.4c-0.2,0.4-0.5,0.8-0.7,1.2c-1.8,3.3-3,6.7-3.2,10.5c0,4.1-0.1,16.4,0,19.3 		c0.1,1.2,0.3,2.4,0.6,3.6c0.6-4.8,2.5-10.3,6.7-15.2c0,0,0-0.1,0.1-0.1c0.1-0.1,0.1-0.1,0.2-0.2c0.2-0.2,0.4-0.4,0.6-0.7l0,0 		c4.1-4.7,8.7-8.6,13.5-12.2c5.6,2.5,11,5.1,13.8,6.7c2.2,3.3,5,6.6,8.2,9.9c-0.6,0-1.2,0.1-1.7,0.1c-0.8-0.1-1.5-0.2-1.9-0.3 		c-2.3-0.8-3.4-5.6-6.4-6.3c-1.8-0.4-2.6,0.5-3,1.2c-0.2,0.5-0.8,0.7-1.3,0.4c-1.8-1.1-6.7-3.1-7.4,1.6c-0.1,0.4-0.6,0.7-1,0.6 		c-2.5-0.4-5.5,1.2-5.3,3.7c0.2,2.2,3,4.1,5.4,3.5c0.4-0.1,0.8,0.1,1.1,0.5c2,4,5.2,2.9,7.4,1.8c0.5-0.3,1.1-0.1,1.3,0.5 		c0.3,0.8,1.1,1.8,2.8,1.2c3.1-1.1,4.6-3.9,7.7-5.4c1.6-0.1,3.4-0.3,5.2-0.4c1.9,1.6,3.9,3.2,6,4.8c-5.4,3.3-13.3,8.5-16.4,10 		c0,0,0,0,0,0c0,0,0,0-0.1,0c-5.7,1.9-7.4-1.7-13.6-0.4c-2.7,0.6-2.8,2.5-2.4,3.7c0.2,0.8-0.3,1.6-1.2,1.6l0,0c0,0,0,0,0,0 		c-0.2,0-0.4,0-0.6,0.1c-0.1,0-0.2,0-0.3,0c-0.1,0-0.3,0-0.4,0.1c-0.1,0-0.2,0-0.3,0c-0.1,0-0.2,0-0.4,0.1c-0.1,0-0.2,0-0.4,0.1 		c-0.1,0-0.2,0-0.3,0.1c-0.3,0.1-0.6,0.1-0.9,0.2c0,0-0.1,0-0.1,0c-0.2,0.1-0.3,0.1-0.5,0.2c-0.1,0-0.1,0-0.2,0.1 		c-0.2,0.1-0.3,0.1-0.5,0.2c0,0-0.1,0-0.1,0.1c-0.7,0.3-1.3,0.8-1.8,1.3c0,0,0,0,0,0c-0.1,0.1-0.2,0.3-0.3,0.4c0,0,0,0,0,0 		c-0.8,1.2-1.1,2.9-0.6,5.2c0.1,0.7-0.2,1.3-0.8,1.5c-3.6,1.3-5.3,5.9-3.4,8.9c2.2,3.4,7.7,3,10.4,0.4c0.5-0.4,1.4-0.6,1.9-0.1 		c5,4.8,8.7-0.1,10.3-3.2c0.5-0.4,1.1-0.6,1.8-0.6c2.3,0.1,3.7-0.2,4.2-1.9c0.3-1.1,0.2-2.4,0.1-3.9c-0.3-3.4-0.7-7.8,4.3-12.1 		c3.8-2.5,11-7.2,15.6-10.2c1.3,0.9,2.6,1.7,4,2.5c-1.4,2.6-3.2,5.8-4.5,8.1c-3-0.2-6-0.4-9-0.8c-0.5,0.3-1,0.5-1.4,0.8 		c-6.7,3.9-6.3,7.5-6,11.4c0.2,1.7,0.3,3.4-0.2,5c-0.2,0.7-0.6,1.3-0.9,1.8c-0.5,1-0.7,1.8-0.8,2.7c-0.1,1.2,0.4,2.6,1.8,4.2 		c0.4,0.4,0.4,1,0,1.5c-2.2,2.5-1.5,6.6,1.2,8.1c3.1,1.6,7.1-1.1,8.1-4.1c0.2-0.5,0.8-1,1.4-0.9c6.2,1.6,6.9-4.5,6.7-7.3 		c0-0.5,0-1-0.1-1.5c-0.1-0.8,0.4-1.4,1.2-1.3c1.1,0.1,2.7-0.3,2.7-2.7c0-5.3-3.4-6.5-2.8-12.3c1.8-3.3,4.2-7.7,5.9-10.8 		c4.2,2.2,8.7,4.2,13.4,5.8c-2.3,0.2-4.5,0.4-6.6,0.5c-2.5,0.1-4.9,0.2-7.4,0.2c-0.8,1.2-1.8,2.7-2,3.9c-0.5,2.8,0.1,4.1,1,5.9 		c0.8,1.7,1.7,3.8,1.7,6.9c0,2.3-0.9,3.7-1.7,4.4c-0.6,0.5-1.2,0.9-2,1.1c0,0.1,0,0.1,0,0.2c3.1,0,6.6-0.2,10.4-0.4 		c5.5-0.4,12.1-2.1,19.9-4.7c0,0,0-0.1-0.1-0.1C96,308.4,94.2,301.6,93.1,295.3z M34,136.6c0.1-0.1,0.3-0.1,0.4-0.2 		c1.3-0.6,2.6-1.2,3.9-1.7c-0.1,2.3-0.3,4.5-0.4,6.7C36.9,140.2,35.6,138.5,34,136.6z M33,254.1c1.6-1.2,3.3-2.4,4.9-3.6 		c0.5,1.8,1.1,3.5,1.7,5.2c0.2,0.6,0.4,1.1,0.7,1.7C38.5,256.5,35.9,255.3,33,254.1z"/> 	<path class="st0" d="M237.1,242.8c0.9,0.8,1.9,1.6,2.8,2.3c1.2-4.6,2.8-12,3.5-20.6c-5.6-4.4-11-9.1-15.4-14.7 		c-0.6-0.7-1.1-1.5-1.7-2.3c-3.1,3.9-5,9.8-5.3,13.9c0.4,1.4,1,2.9,1.7,4.3C226,232.5,231.5,238,237.1,242.8z"/> 	<path class="st0" d="M226.3,105.7c-5.2-0.9-7.3,0.1-7.3,0.1l-2.6,22.6c0,0,1.4-0.2,3.6-0.2c0,0,0,0,0,0c6-0.2,12.3,1.3,18.3,3.3 		c-0.3-8.5-0.4-17.8-0.4-23.2C234,107.1,230.1,106.2,226.3,105.7z"/> 	<path class="st0" d="M189.7,314.8c-0.4,2.8,0,6.2,4.9,7c0.5,0.1,1,0.5,1,1c0.2,3,3.4,5.6,6.1,5.1c3.1-0.6,3.8-3,3.6-5.8 		c0-0.4,0.3-0.8,0.9-0.7c1.1,0.3,3.1,0.8,4.6-0.2c0.9-0.6,1.1-1.3,1.2-2.5c-1.7-0.1-3.5-0.2-5.3-0.3 		C201.8,318.1,196.2,316.8,189.7,314.8z"/> 	<path class="st0" d="M262.3,280.6c-3.2,2.3-6.6,4.2-10.1,5.8c0.7,0,1.4,0.1,2.1,0.3c2.6,0.6,3.9,2,4.6,3c0.5,0.8,0.7,1.6,0.8,2.5 		c2.5,0.4,5.4,1.4,7.2,3.9c0.4,0.5,0.7,1.1,0.9,1.6c1.9-2,3.6-4.1,5-6.2c0.8-4.1,0.1-10.9-3.7-17 		C267.1,276.8,264.8,278.8,262.3,280.6z"/> 	<path class="st0" d="M224.2,179.3c1.8-1.5,6.1-4.9,13.5-10c-0.5-0.7-1.1-1.4-1.8-2c-1.5-1.2-2.6-0.5-3.2,0.2c-0.4,0.4-1,0.4-1.4,0 		c-1.8-1.9-4.5-4-7.9-0.7c-0.3,0.3-0.8,0.4-1.2,0.2c-2.2-1.3-5.6-0.4-6.6,1.7c-1.1,2.4,1.3,5.1,3.9,5.5c0.5,0.1,0.9,0.5,0.8,0.9 		C219.7,178.3,222,179.2,224.2,179.3z"/> 	<path class="st0" d="M277.8,217.2c-0.5,0.2-1.1,0-1.3-0.5c-2.6-4.8-6.8-2.3-8.8-0.8c-0.5,0.4-1.3,0.3-1.6-0.3 		c-0.5-0.9-1.5-1.9-3.4-0.9c-3.1,1.7-3.6,4.3-6.3,7.3c-1.6,0.8-3.3,1.7-5.1,2.7c0.3-4,0.5-8.1,0.6-12.3c0.3-0.3,0.6-0.7,0.9-1 		c1.1-1.1,2.3-2.3,3.4-3.5c0.9-0.8,1.6-1.3,2.1-1.5c3.3-1.6,9.4,3.3,13.3,0.9c2.3-1.4,2.3-3.4,1.9-4.7c-0.2-0.9,0.2-1.7,1-1.9 		c3.1-0.7,10.3-3.5,6.3-10c-0.4-0.6-0.1-1.4,0.5-1.8c3.1-2.2,4.7-7.5,1.8-10.4c-2.5-2.5-7.4-1.8-9.4,1.5c-0.4,0.6-1,0.8-1.7,0.5 		c-6.4-2.8-8.6,2-9.7,5.8c-0.3,0.9-1.1,1.3-1.9,0.9c-1.2-0.6-3-1-4.2,1.6c-2.1,4.6-0.2,9.8-1.7,14.8c-0.2,0.8-1.1,2-1.9,3.2 		c-0.2,0.2-0.4,0.4-0.6,0.6c-0.1-5.4-0.3-11-0.9-16.7c-0.1-1.3-0.2-2.7-0.4-4.2c6.8-4.5,13.5-9.4,18.4-15.7 		c2.6-3.4,4.4-7.6,4.8-11.9c0,0,0,0,0,0c0-0.2,0.1-0.7,0.1-1.4c0.4-5.8,0.3-11.3,0.5-17.2c0-0.4,0-0.7,0-1.1 		c-1.2,4.2-3.6,8.3-6.8,11.5l0,0c-1.5,1.6-3.2,3.1-4.9,4.6c-4.4,3.8-9.2,7.1-14,10.3c0-0.5-0.1-1.1-0.1-1.6c2.5-3.5,5.9-8.3,8-11.1 		c0.4,0,0.8,0,1.2-0.1c2.4-0.5,3.9-2.8,3.3-5.2c-0.5-2.4-2.8-3.9-5.2-3.3c-2.4,0.5-3.9,2.8-3.3,5.2c0.1,0.6,0.4,1.1,0.7,1.6 		c-1.4,2.1-3.2,4.8-5.1,7.6c-0.3-3.7-0.6-7.5-0.9-11.5c1.5-2.2,4-5.5,6.8-9c4.6,2.3,9.4,5.1,13.2,8.7c4.9-5.9,5.9-12.8,5.1-17.7 		c-1.4-2.4-3.4-4.5-5.6-6.4c0.5-0.5,0.9-1,1.3-1.4c0.3,0.1,0.6,0.1,1,0.1c2.4,0,4.4-2,4.3-4.4c0-2.4-2-4.4-4.4-4.3 		c-2.4,0-4.4,2-4.3,4.4c0,0.5,0.1,0.9,0.2,1.3c-0.3,0.5-0.7,1.2-1.3,1.9c-4.2-2.9-9-5.2-12.9-7c-1.6-0.7-3.2-1.4-4.9-2.1 		c0-1.3,0.1-2.6,0.1-3.8c0.7-0.4,1.4-0.8,2.2-1.2c10-2.3,11.1,2.6,15.1,1.2c2.5-0.8,2.8-2.5,2.7-3.7c-0.1-0.8,0.5-1.4,1.3-1.4 		c3.1,0,9.3-0.9,7.9-7.5c-0.1-0.6,0.2-1.2,0.8-1.5c3.4-1.3,5.7-5.4,3.7-8.5c-2-3.1-6.8-2.8-9.3-0.3c-0.5,0.4-1.2,0.5-1.7,0.1 		c-5.3-3.9-8.9,0.7-10.4,3.3c-0.4,0.7-1.3,0.9-1.9,0.4c-1-0.7-2.7-1.3-4.3,0.7c-3.1,3.8-0.3,9.1-4.1,13.4c-0.6,0.3-1.1,0.6-1.7,1 		c0.4-5.7,1.1-11.5,2.2-17.8l0,0c0,0,0,0,0,0c0.5-1.7,0.7-3.8,1.6-4.9c3.6-4.7,10-3.8,12.1-6.9c1.6-2.2,0.8-3.8,0-4.8 		c-0.5-0.6-0.4-1.5,0.2-2c2.6-1.9,8.1-7.5,2-11.1c-0.6-0.3-0.6-1.2-0.2-1.7c2-3.2,1.5-8.3-2.1-9.4c-3.2-0.9-7.3,1.8-8,5.4 		c-0.1,0.7-0.7,1.1-1.3,1.1c-6.7,0.5-7,5.4-6.7,9.1c0.1,0.8-0.5,1.5-1.4,1.5c-1.3,0-3.1,0.6-3.2,3.2c-0.2,4.5,2.2,8.7,2.7,14.3 		c0.1,1.8-0.5,4.4-0.8,6.4c0,0,0,0,0,0c-0.9,5.5-1.6,10.6-2,15.7c-2.3-2.9-4.7-6-6.3-8.1c0.1-0.4,0.2-0.7,0.3-1.2 		c0.2-2.4-1.7-4.5-4.1-4.7c-2.4-0.2-4.5,1.7-4.7,4.1c-0.2,2.4,1.7,4.5,4.1,4.7c0.6,0,1.2,0,1.7-0.2c2.4,2.7,5.6,6.7,8.7,10.5 		c-0.3,5.5-0.3,11,0,17c0.5,11.8,1.4,23.6,2.3,34.3c-0.6-0.6-1.2-1.2-1.8-1.8c-2.3-3.7,0.6-7.7-1-11.5c-0.8-1.9-2.6-2.5-3.4-1.9 		c-0.5,0.3-1.2,0.1-1.4-0.6c-1-2.8-2.8-6.3-7.3-3.9c-0.4,0.2-1,0.1-1.2-0.3c-1.6-2.4-5.2-2.7-7-0.7c-2,2.3-0.7,6.1,1.7,7.6 		c0.4,0.3,0.7,0.9,0.4,1.3c-2.7,5,2.7,6.8,5,7.2c0.6,0.1,0.9,0.7,0.8,1.4c-0.2,1-0.2,2.5,1.6,3.5c2.9,1.6,7.4-0.4,9.6,0.9 		c1.2,1.1,2.4,2.3,3.8,3.6c0.3,0.4,0.5,0.7,0.8,1.1c0.2,1.7,0.3,3.4,0.5,5.1c-2.4,1.6-4.8,3.2-7.1,4.8c-5.8,4-14.1,9.1-16.1,16.3 		c-0.1,0.5-0.2,1-0.3,1.4c-0.1,0.1-0.1,0.5-0.2,1.2c0,0,0,0,0,0c0,0.3,0,0.5-0.1,0.8c-0.4,6.7-1.3,13.7-0.7,20.5 		c1.1-3.3,2.8-6.5,5-9c0,0,0,0,0,0c0,0,0.1-0.1,0.1-0.1c0.2-0.3,0.5-0.5,0.7-0.7c0.1-0.1,0.3-0.3,0.4-0.4c0,0,0.1-0.1,0.1-0.1 		c5.1-4.8,12.1-8.6,16.9-11.8c1-0.7,2.1-1.4,3.1-2.1c0,0.5,0.1,1,0.1,1.5c0.8,9.1,1,17.8,0.7,26c-1.9-3-3.7-5.9-5-8.1 		c0.3-0.5,0.6-1.1,0.7-1.7c0.5-2.5-1.2-5-3.7-5.5c-2.5-0.5-5,1.2-5.5,3.7c-0.5,2.5,1.2,5,3.7,5.5c0.5,0.1,1,0.1,1.5,0 		c2.2,3,5.1,7.5,7.9,11.8c0,0,0,0,0,0c-0.2,2.9-0.5,5.6-0.9,8.4c0,0,0,0.4-0.1,1c-0.1,0.5-0.1,0.9-0.2,1.4c-0.1,0.4-0.1,0.7-0.2,1.1 		c-0.4,2.5-0.9,5-1.4,7.4c-0.1,0.3-0.1,0.6-0.2,1c-0.1,0.2-0.1,0.5-0.2,0.7c-0.3,1.3-0.6,2.4-0.9,3.4c0,0,0,0,0,0 		c-0.7,2.3-1.4,4.5-2.2,6.7c-2.6,7-7.9,13.4-14.7,19c0.1-1.6,0.2-3.2,0.3-4.7c1.9-4.7,6.1-5,8-9.4c0.9-2.1-0.3-3.2-1.2-3.7 		c-0.6-0.3-0.8-1.1-0.5-1.7c1.7-2.7,3.3-6.6-1.7-9.6c-0.5-0.3-0.8-0.8-0.6-1.4c0.9-3-1.3-6.8-4.1-7.3c-3.3-0.6-5.6,3.2-5.2,6.4 		c0.1,0.6-0.3,1.2-0.8,1.3c-6,0.5-3.9,6.9-2.7,9.4c0.3,0.6,0,1.4-0.6,1.6c-1,0.4-2.2,1.4-1.8,3.7c0.6,3.9,6.8,5.7,7.6,8.7 		c0,0.1,0.1,0.3,0.1,0.6c-0.1,2.7-0.2,5.8-0.3,8.9c-3.9,2.8-8.1,5.4-12.5,7.6c0.7-2,1.5-3.9,2.1-5.6c0.2,0,0.4-0.1,0.6-0.1 		c2.3-0.7,3.7-3.1,3-5.4c-0.7-2.3-3.1-3.7-5.4-3s-3.7,3.1-3,5.4c0.2,0.8,0.7,1.5,1.3,2c-0.9,2.6-2,5.7-3.1,8.8 		c-4.2,1.8-8.5,3.4-12.7,4.5c-0.1,0.7-0.2,1.3-0.3,2c-0.1,0.5-0.2,1.1-0.2,1.6c0,0.1,0,0.2,0,0.2c-0.1,0.5-0.2,1-0.2,1.5 		c-1.1,6.4-2.9,13.2-4.5,15.4c0,0,0,0.1-0.1,0.1c7.8,2.5,14.4,4.3,19.9,4.7c3.9,0.3,7.3,0.4,10.4,0.4c0-0.1,0-0.1,0-0.2 		c-0.8-0.2-1.4-0.6-2-1.1c-0.8-0.7-1.7-2.1-1.7-4.4c0-3.1,1-5.2,1.7-6.9c0.8-1.8,1.4-3.1,1-5.9c-0.2-1.2-1.2-2.7-2-3.9 		c-2.5,0-5-0.1-7.4-0.2c-2.2-0.1-4.4-0.3-6.6-0.5c4.7-1.6,9.2-3.6,13.4-5.8c1.7,3.1,4.1,7.5,5.9,10.8c0.6,5.8-2.8,7.1-2.8,12.3 		c0,2.4,1.6,2.8,2.7,2.7c0.7-0.1,1.3,0.5,1.2,1.3c-0.1,0.5-0.1,1-0.1,1.5c-0.2,2.9,0.4,8.9,6.7,7.3c0.6-0.2,1.2,0.3,1.4,0.9 		c1,3.1,5,5.8,8.1,4.1c2.7-1.4,3.4-5.6,1.2-8.1c-0.4-0.5-0.4-1,0-1.5c1.4-1.6,1.9-3,1.8-4.2c-0.1-0.9-0.3-1.7-0.8-2.7 		c-0.4-0.5-0.7-1.1-0.9-1.8c-0.5-1.6-0.3-3.4-0.2-5c0.4-3.8,0.7-7.5-6-11.4c-0.5-0.3-0.9-0.5-1.4-0.8c-3,0.4-6,0.7-9,0.8 		c-1.3-2.3-3.1-5.5-4.6-8.1c1.4-0.8,2.7-1.6,4-2.5c4.7,3,11.8,7.6,15.6,10.2c5,4.3,4.6,8.7,4.3,12.1c-0.1,1.5-0.3,2.8,0.1,3.9 		c0.5,1.7,1.9,2,4.2,1.9c0.6,0,1.3,0.2,1.8,0.6c1.7,3.1,5.4,8,10.3,3.2c0.5-0.5,1.4-0.4,1.9,0.1c2.7,2.5,8.2,3,10.4-0.4 		c1.9-3,0.2-7.6-3.4-8.9c-0.7-0.2-1-0.9-0.8-1.5c0.5-2.4,0.2-4-0.6-5.2c0,0,0,0,0,0c-0.1-0.2-0.2-0.3-0.3-0.4c0,0,0,0,0,0 		c-0.5-0.6-1.1-1-1.8-1.3c0,0-0.1,0-0.1-0.1c-0.2-0.1-0.3-0.1-0.5-0.2c-0.1,0-0.1,0-0.2-0.1c-0.2-0.1-0.3-0.1-0.5-0.2 		c0,0-0.1,0-0.1,0c-0.3-0.1-0.6-0.2-0.9-0.2c-0.1,0-0.2,0-0.3-0.1c-0.1,0-0.2,0-0.4-0.1c-0.1,0-0.2,0-0.4-0.1c-0.1,0-0.2,0-0.3,0 		c-0.1,0-0.3,0-0.4-0.1c-0.1,0-0.2,0-0.3,0c-0.2,0-0.4,0-0.6-0.1c0,0,0,0,0,0v0c-0.9-0.1-1.4-0.8-1.2-1.6c0.4-1.3,0.3-3.1-2.4-3.7 		c-6.1-1.3-7.9,2.3-13.6,0.4c0,0,0,0-0.1,0c0,0,0,0,0,0c-3-1.6-11-6.7-16.4-10c2.1-1.5,4.1-3.1,6-4.8c1.7,0.1,3.5,0.2,5.2,0.4 		c3.2,1.4,4.6,4.2,7.7,5.4c1.7,0.6,2.5-0.4,2.8-1.2c0.2-0.5,0.8-0.7,1.3-0.5c2.2,1.1,5.3,2.2,7.4-1.8c0.2-0.4,0.6-0.6,1.1-0.5 		c2.4,0.5,5.2-1.3,5.4-3.5c0.3-2.6-2.8-4.1-5.3-3.7c-0.4,0.1-0.9-0.1-1-0.6c-0.7-4.7-5.5-2.7-7.4-1.6c-0.5,0.3-1.1,0.1-1.3-0.4 		c-0.4-0.8-1.2-1.6-3-1.2c-3,0.7-4,5.5-6.4,6.3c-0.4,0.1-1.1,0.2-1.9,0.3c-0.6,0-1.1-0.1-1.7-0.1c3.3-3.2,6.1-6.5,8.2-9.9 		c2.8-1.6,8.2-4.1,13.8-6.7c4.8,3.7,9.4,7.5,13.5,12.2l0,0c0.2,0.2,0.4,0.4,0.6,0.7c0.1,0.1,0.1,0.1,0.2,0.2c0,0,0,0.1,0.1,0.1 		c4.2,4.9,6.1,10.5,6.7,15.2c0.3-1.2,0.5-2.3,0.6-3.6c0.1-2.9,0-15.2,0-19.3c-0.2-3.8-1.4-7.2-3.2-10.5c-0.2-0.4-0.5-0.8-0.7-1.2 		c2,0.6,4.2-0.4,5.1-2.4c1-2.2,0-4.8-2.2-5.8c-2.2-1-4.8,0-5.8,2.2c-0.2,0.5-0.3,1-0.4,1.5c-5.2-6.2-12-11-18.6-15.7 		c0.1-0.4,0.1-0.8,0.2-1.3c0.7-0.4,1.5-0.7,2.2-1.1c5.5-1,8.1,4.3,11.5,5.1c2,0.5,2.9-1,3.3-2c0.2-0.6,0.9-1,1.4-0.7 		c2.3,1,7.1,2.3,8.4-3.3c0.1-0.5,0.6-0.9,1.1-0.9c2.9,0,6-2.4,5.6-5.5C284.2,217.4,280.6,216.2,277.8,217.2z M246.8,141.4 		c-0.2-2.2-0.3-4.5-0.4-6.7c1.3,0.6,2.6,1.2,3.9,1.7c0.1,0.1,0.2,0.1,0.4,0.2C249.1,138.5,247.7,140.2,246.8,141.4z M251.7,254.1 		c-2.9,1.3-5.5,2.4-7.4,3.3c0.3-0.6,0.5-1.1,0.7-1.7c0.6-1.7,1.2-3.4,1.7-5.2C248.4,251.6,250.1,252.8,251.7,254.1z"/> 	<path class="st0" d="M73.8,251.6l0.1,1.2l0.2,1.2l0.2,1.1l0.3,1l0.3,1l0.4,0.9l0.4,0.8l0.4,0.8l0.5,0.7l0.5,0.7l0.6,0.6l0.6,0.6 		l0.6,0.6l0.6,0.5l0.7,0.5l0.7,0.4l0.7,0.4l0.8,0.4l0.8,0.3l0.8,0.3l0.1,0c2.2,1,4.6,1.5,7.1,1.5H120l1.1,0l1.1,0.1l1,0.1l1,0.1 		l1,0.2l1,0.2l1,0.2l0.9,0.3l0.9,0.3l0.9,0.3l0.9,0.4l0.9,0.4l0.8,0.5l0.8,0.5l0.8,0.5l0.8,0.6l0.7,0.6l0.7,0.6l0.7,0.7l0.7,0.7 		l0.6,0.7l0.6,0.8l0.6,0.8l0.6,0.8l0.5,0.8l0.5,0.9l0.5,0.9l0.5,0.9l0.2,0.3l0.2-0.3l0.5-0.9l0.5-0.9l0.5-0.9l0.5-0.8l0.6-0.8 		l0.6-0.8l0.6-0.8l0.6-0.7l0.7-0.7l0.7-0.7l0.7-0.6l0.7-0.6l0.8-0.6l0.8-0.5l0.8-0.5l0.8-0.5l0.9-0.4l0.9-0.4l0.9-0.3l0.9-0.3 		l0.9-0.3l1-0.2l1-0.2l1-0.2l1-0.1l1-0.1l1.1-0.1l1.1,0h28.8c2.6,0,5.1-0.6,7.3-1.6l0.7-0.3l0.8-0.3l0.8-0.4l0.7-0.4l0.7-0.4 		l0.7-0.5l0.6-0.5l0.6-0.6l0.6-0.6l0.6-0.6l0.5-0.7l0.5-0.7l0.4-0.8l0.4-0.8l0.4-0.9l0.3-1l0.3-1l0.2-1.1l0.2-1.2l0.1-1.2l0.1-1.3 		l0-0.3c0,0,0-0.1,0-0.1v-1v-102v-43.7c0-1.4-1.2-2.6-2.6-2.6h-11.2c3.8-0.8,7.3-2,10-3.5c3.3-1.9,4-4.7,3.7-8.6 		c-0.1-1-0.1-1.8-0.2-2.6c-0.1-0.5-0.2-1-0.3-1.6c-0.8-4.3-1.9-10.4,0-15.4c-2.1,1.3-4.1,2.7-6.3,3.9c-1,0.5-2.7,1.7-4,2.6 		c-2.4,1.9-6.4,4.7-7.7,8.5c-1.3,3.8-1.6,6.9-3,10.7c-1.3,3.3-3.1,4.5-4.7,4.2c-10.4-3.7-28.4-6.9-41.7-7l0,0c-0.2,0-0.3,0-0.5,0 		c-0.2,0-0.3,0-0.5,0l0,0c-13.3,0.1-31.3,3.3-41.7,7c-1.6,0.3-3.4-0.9-4.7-4.2c-1.4-3.8-1.7-6.9-3-10.7c-1.3-3.8-5.4-6.7-7.7-8.5 		c-1.3-0.9-3.1-2.1-4-2.6c-2.1-1.2-4.2-2.6-6.3-3.9c2,5,0.8,11.1,0,15.4c-0.1,0.6-0.2,1.1-0.3,1.6c0,0.7-0.1,1.5-0.2,2.6 		c-0.3,3.9,0.4,6.7,3.7,8.6c2.7,1.5,6.2,2.7,10,3.5H76.4c-1.4,0-2.6,1.2-2.6,2.6v43.7h0v102l0,1.4L73.8,251.6z M93,253.7 		c-0.5,0.4-1,0.6-1.6,0.6c-0.7,0-1.4-0.3-1.9-0.9c-0.9-1-0.7-2.6,0.3-3.4l45.7-38.4l3.8,3.2L93,253.7z M87.3,205.6 		c7.1-16.4,0.2-13.6,8-27.7l22.4,18.8c-4.7,10.5,0.5,8.6-6.9,22.9C110.7,219.5,96.1,210.8,87.3,205.6z M141.8,259.1 		c-9.3,0-16.9-7.6-16.9-16.9c0-0.2,0-0.4,0-0.6c1.9,3.2,5.4,5.3,9.3,5.3c6,0,10.9-4.9,10.9-10.9c0-4.7-2.9-8.7-7.1-10.2 		c1.2-0.3,2.4-0.4,3.7-0.4c9.3,0,16.9,7.6,16.9,16.9C158.7,251.5,151.2,259.1,141.8,259.1z M195,253.3c-0.5,0.6-1.2,0.9-1.9,0.9 		c-0.6,0-1.1-0.2-1.6-0.6l-49.3-41.4l0,0l-6.2-5.2l0,0l-42.8-35.9c-0.5,0.1-0.9,0.4-1.2,0.8c0,0,0,0.1-0.1,0.1 		c-1.4-0.8-2.3-2.4-2.1-4.1c0.3-2.2,2.4-3.7,4.6-3.4c2.1,0.3,3.5,2.2,3.4,4.2l44.3,37.2l44.3-37.2c-0.1-2.1,1.4-3.9,3.4-4.2 		c2.2-0.3,4.3,1.2,4.6,3.4c0.3,1.7-0.6,3.3-2.1,4.1c0,0,0-0.1-0.1-0.1c-0.3-0.4-0.8-0.7-1.2-0.8l-45.2,37.9l48.7,40.8 		C195.8,250.8,195.9,252.3,195,253.3z M154.4,166.8c1.4,0,2.5,1.1,2.5,2.5s-1.1,2.5-2.5,2.5h-9.5v8.6l5.1,1.8c1.3,0.5,2,1.9,1.5,3.3 		c-0.4,1-1.4,1.7-2.4,1.7c-0.3,0-0.6,0-0.9-0.2l-3.4-1.2v5.6c0,1.4-1.1,2.5-2.6,2.5c-1.4,0-2.5-1.1-2.5-2.5v-7.4l-5.1-1.8 		c-1.3-0.5-2-1.9-1.5-3.3c0.5-1.3,1.9-2,3.3-1.5l3.4,1.2v-6.8h-9.5c-1.4,0-2.5-1.1-2.5-2.5s1.1-2.5,2.5-2.5h9.5v-6.9 		c0-1.4,1.1-2.5,2.5-2.5c1.4,0,2.6,1.1,2.6,2.5v6.9H154.4z M176.1,218.5c-1.8-9.2-6.9-11.4-9.7-21.4l22.9-19.2 		c1.8,10.1,8.4,17.8,9.3,28.7C189.7,211.8,176.1,218.5,176.1,218.5z M78.9,105.8c0-0.6,0.4-1,1-1h124.8c0.5,0,1,0.4,1,1v44.6H78.9 		V105.8z"/> 	<path class="st0" d="M117.7,309.5C117.7,309.5,117.7,309.5,117.7,309.5c0.1-0.1,0.2-0.1,0.4-0.2c4.7-2.7,9.6-5.2,10-5.5 		c-0.3-1-0.6-1.9-0.8-2.8c0,0,0,0,0,0c-0.6-2.3-1.3-5.7-1.3-8.2c0-0.9,0.1-1.8,0.2-2.6c0,0,0,0,0,0c-1.2-0.9-3.1-2.5-7-5.4 		c-4.1-3-7.9-5.9-12.4-7c-1.6-0.4-3.1-0.6-4.5-0.6c-5,0-8.7,2.1-8.9,4.4c0.5,2.4,1.3,6.4,1.8,9.9c0.8,6,2.2,11.8,3.4,15.2 		c1.7-2.1,4.5-2.4,12.1-3.1c0.8-0.1,1.5-0.1,2.2-0.2c2.3-0.2,4-0.4,5.3-0.6l1.2,1.6c-1,0.4-4.7,1.3-8.2,1.9c-2.3,0.4-3.6,0.6-6,1.2 		c0,0-0.1,0-0.1,0c-3.6,0.9-4.4,2.2-4.2,2.8c0.2,0.5,0.8,1,1.4,1.5c1.4,0.9,3.1,1.2,4.8,1.2c3.4,0,6.6-1.6,10.1-3.3 		C117.4,309.6,117.5,309.6,117.7,309.5C117.6,309.5,117.6,309.5,117.7,309.5z"/> 	<path class="st0" d="M173,306.4c-3.6-0.2-7-0.3-10.8-0.6c-1.2-0.1-2.3-0.2-3.4-0.4c0,0,0,0,0,0c-1.9-0.3-3.3-0.5-3.3-0.5 		s-1.8,0.7-3.7,1.1c-2.3,0.5-5.9,1-10.1,1c-0.4,5,0.2,7.7,2.4,13.4c1,2.5,1.7,4.5,2.2,6.1c0.3,0.8,0.5,1.5,0.8,2.1 		c7-5.9,9.4-7.7,16.7-12.8c-0.2-0.8-0.5-1.6-0.9-2.3c-0.7-1.4-2-3.2-4.4-5.2c1.8,0.4,3.7,1,5.4,1.6c0,0,0,0,0,0 		c3,1.1,5.7,2.3,7.4,2.7c0,0,0,0,0,0c1.8,0.6,3.5,1,5.2,1c2.2,0,4.2-0.6,6.3-2.3c0,0,0,0,0,0c0.1-0.1,0.2-0.1,0.2-0.2 		c0.6-0.7,0.6-1.4,0.6-1.4C183.7,308,179.5,306.7,173,306.4z"/> </g> </svg> 