<svg xmlns="http://www.w3.org/2000/svg" width="47.674" height="52"><path fill="#0050B2" d="M35.891 26.479h-1.556c-.049 0-.099.049-.099.098v3.607c0 2.258.766 3.116 2.717 3.116 1.112 0 2.371-.294 3.112-.564.025-.025.049-.049.049-.074v-6.086c.025-.073-.025-.098-.074-.098h-1.58c-.049 0-.099.049-.099.098v4.982a3.885 3.885 0 01-1.087.147c-1.037 0-1.284-.319-1.284-1.693v-3.436c0-.049-.049-.097-.099-.097zM3.186 35.484c.296-.564.667-1.35 1.013-2.159a61.75 61.75 0 002.47-6.724c0-.025 0-.049-.025-.074-.049-.049-.074-.049-.099-.049H4.94c-.049 0-.074.025-.074.073-.247.982-.766 2.65-1.457 4.393l-1.606-4.393c-.025-.025-.049-.049-.074-.049H.099c-.025 0-.049.024-.074.049-.025.026-.025.05 0 .075l2.421 6.577c-.247.515-.469.932-.692 1.325-.173.294-.321.589-.469.883-.025.025-.025.049 0 .073.025.025.049.049.074.049h1.754c.024.001.073-.024.073-.049zm14.797-2.38h1.581c.049 0 .099-.049.099-.098v-6.454c0-.049-.049-.073-.099-.073h-4.841c-.049 0-.074.025-.099.073-.123 2.184-.543 4.516-1.136 6.429 0 .025 0 .049.025.074.025.024.049.024.074.024h1.655c.049 0 .074-.024.074-.049.469-1.472.84-3.387.988-5.006h1.581v4.982c-.001.049.048.098.098.098zm-7.411-5.276c.42 0 .79.049 1.284.196.049 0 .074 0 .099-.049.173-.344.395-.761.642-1.276v-.073c0-.025-.025-.049-.049-.049a7.509 7.509 0 00-2.1-.319c-2.297 0-3.335 1.08-3.335 3.509 0 2.454 1.037 3.558 3.335 3.558.568 0 1.729-.123 2.273-.344.049-.025.074-.073.049-.123l-.469-1.3c0-.025-.025-.049-.049-.049h-.074c-.395.147-1.112.245-1.606.245-1.112 0-1.63-.294-1.63-1.963 0-1.349.173-1.963 1.63-1.963zm19.613 5.301c.049 0 .099-.049.099-.098v-4.982h2.445c.025 0 .074-.025.074-.049.198-.442.37-.908.568-1.374v-.074c-.049-.073-.074-.073-.099-.073h-4.668c-.049 0-.099.049-.099.098v6.454c0 .049.049.098.099.098h1.581zm-8.102 2.307c-.025.025-.025.049 0 .073.025.025.049.049.074.049h1.754c.025 0 .074-.025.074-.049.296-.564.667-1.35 1.013-2.159 1.013-2.405 1.853-4.663 2.47-6.724 0-.025 0-.049-.025-.074-.049-.073-.074-.073-.099-.073h-1.606c-.049 0-.074.025-.074.073-.247 1.006-.766 2.65-1.457 4.393l-1.606-4.393c-.025-.025-.049-.049-.074-.049h-1.63c-.025 0-.049.024-.074.049-.025.025-.025.049 0 .074l2.421 6.577c-.247.515-.469.932-.692 1.325a10.34 10.34 0 00-.469.908zm-5.879-17.35c.42 0 .791.049 1.285.197.049 0 .074 0 .099-.049.173-.344.395-.761.642-1.276v-.074c0-.025-.025-.049-.049-.049a7.509 7.509 0 00-2.1-.319c-2.297 0-3.335 1.079-3.335 3.509 0 2.454 1.038 3.558 3.335 3.558.568 0 1.729-.123 2.273-.344.049-.024.074-.073.049-.123l-.469-1.301c0-.025-.025-.049-.049-.049h-.075c-.395.147-1.112.246-1.606.246-1.111 0-1.63-.294-1.63-1.963 0-1.35.173-1.963 1.63-1.963zm-7.781-1.522c-2.272 0-3.162.982-3.162 3.46 0 2.528.889 3.509 3.162 3.509 2.297 0 3.186-.981 3.186-3.509.001-2.502-.889-3.46-3.186-3.46zm0 5.522c-1.038 0-1.359-.27-1.359-2.037 0-1.865.346-2.037 1.359-2.037 1.037 0 1.383.172 1.383 2.037 0 1.767-.321 2.037-1.383 2.037zm-8.324 1.3H1.68c.049 0 .099-.049.099-.098v-5.006H4.2c.025 0 .074-.025.074-.049.198-.442.37-.908.568-1.374v-.073c-.025-.025-.049-.049-.074-.049H.099a.104.104 0 00-.099.097v6.454c0 .05.049.098.099.098zm47.525-.122v-.098a83.457 83.457 0 00-.173-3.288c0-.049 0-.123-.025-.172v-.098c0-.098-.025-.172-.025-.27v-.098c-.074-.957-.124-1.546-.148-1.595 0-.098-.025-.196-.025-.27V17.3a3.417 3.417 0 00-.099-.491c0-.024 0-.049-.025-.073-.42-1.988-1.531-4.172-2.915-5.816-.543-.638-1.112-1.203-1.704-1.644-.049-.049-.741-.54-1.828-1.3-1.26-.859-3.063-2.061-5.113-3.24-3.656-2.135-6.892-3.632-7.336-3.803-.025 0-.025-.025-.025-.025C27.221.491 26.06.196 24.8.074a7.374 7.374 0 00-.741-.049C23.812 0 23.59 0 23.367 0h-.346c-1.68.049-3.236.344-4.471.908-.173.074-3.458 1.571-7.188 3.755l-.148.073c-3.829 2.233-6.818 4.442-6.941 4.54-.939.687-1.779 1.57-2.544 2.7-.173.245-.173.883.568.883h1.902c.815 0 1.013-.491 1.927-1.153 1.013-.736 3.014-2.209 6.669-4.368A82.668 82.668 0 0119.119 4c.025 0 .049-.024.074-.024 0 0 .025 0 .025-.025 0 0 .025 0 .025-.025.025 0 .049-.025.049-.025.025 0 .049-.025.074-.025.296-.147.494-.221.494-.221.84-.368 2.025-.614 3.285-.638h.494c.371 0 .741.025 1.087.073.766.099 1.457.246 2.026.491.049.025.123.049.173.074 0 0 .025.024.099.049.568.246 3.631 1.693 6.966 3.632a79.697 79.697 0 016.669 4.368c.469.343.939.834 1.383 1.374 1.112 1.423 2.026 3.362 2.174 4.859 0 .025.074.614.148 1.62 0 .074 0 .123.025.196v.147c0 .098.025.172.025.27v.098c0 .049 0 .123.025.172 0 .123.025.246.025.368 0 .073 0 .147.025.221v.049c0 .098 0 .172.025.27v.196a77.41 77.41 0 01.123 4.392c0 1.595-.049 3.116-.123 4.393v.196c0 .098 0 .171-.025.27v.049c0 .074 0 .147-.025.221 0 .123-.025.245-.025.368 0 .074 0 .123-.025.172v.098c0 .098-.025.171-.025.27v.147c0 .073 0 .147-.025.196-.074 1.006-.148 1.62-.148 1.62-.148 1.497-1.062 3.436-2.174 4.859-.445.564-.914 1.031-1.383 1.374-.025 0-.667.491-1.729 1.227a88.649 88.649 0 01-4.94 3.141 80.042 80.042 0 01-6.966 3.632l-.099.049c-.049.025-.124.049-.173.073a8.718 8.718 0 01-2.026.491 7.83 7.83 0 01-1.087.074h-.494c-1.26-.025-2.445-.246-3.285-.638 0 0-.173-.074-.494-.221-.025-.024-.074-.024-.099-.049-.025-.025-.049-.025-.074-.049-.025 0-.025-.025-.049-.025-.025 0-.049-.025-.074-.025-.025-.024-.049-.024-.099-.049h-.025c-1.26-.491-3.631-1.669-6.151-3.141-3.68-2.135-5.657-3.632-6.669-4.368-.914-.662-1.112-1.153-1.927-1.153H2.297c-.741 0-.741.638-.568.883.766 1.129 1.606 2.012 2.544 2.699.123.098 3.137 2.307 6.941 4.54.198.123.395.246.618.344 3.532 2.013 6.571 3.386 6.743 3.485 1.21.54 2.791.859 4.471.908h.346c.222 0 .445 0 .667-.025.247 0 .494-.025.741-.049 1.26-.123 2.445-.417 3.384-.834 0 0 .025 0 .025-.025.42-.196 3.681-1.693 7.312-3.804a90.813 90.813 0 005.113-3.239c1.087-.761 1.779-1.252 1.828-1.301.593-.442 1.161-1.006 1.704-1.644 1.383-1.644 2.495-3.828 2.915-5.816 0-.025 0-.049.025-.074.025-.172.074-.343.099-.49v-.074c.025-.098.025-.196.025-.27 0-.049.074-.638.148-1.595v-.099c.049-.073.049-.147.049-.245v-.098c0-.049 0-.123.025-.172.074-.908.123-2.012.173-3.288v-.095c.025-.859.049-1.791.049-2.748 0-.957-.025-1.889-.05-2.748z"/></svg>
