<?xml version="1.0" encoding="utf-8"?>
<!-- Generator: Adobe Illustrator 24.3.0, SVG Export Plug-In . SVG Version: 6.00 Build 0)  -->
<svg version="1.1" id="Layer_1" xmlns="http://www.w3.org/2000/svg" xmlns:xlink="http://www.w3.org/1999/xlink" x="0px" y="0px"
	 viewBox="0 0 79.79 66.96" style="enable-background:new 0 0 79.79 66.96;" xml:space="preserve">
<style type="text/css">
	.st0{fill:#562567;}
</style>
<g>
	<g>
		<path class="st0" d="M35.31,66.3c-4.33,0-6.38-0.42-7.92-0.73c-0.83-0.17-1.44-0.29-2.17-0.29c-1.44,0-2.33-0.41-2.66-1.2
			c-0.63-1.51,1.33-3.57,1.72-3.97c0.12-0.12,0.28-0.19,0.45-0.2l4.6-0.32l24.53-24.53c0.27-0.27,0.7-0.27,0.98-0.01l2.11,2.01
			c0.14,0.13,0.22,0.31,0.22,0.5c0,0.19-0.07,0.37-0.2,0.5l-8.65,8.65l2.02,2.02l8.35-8.35c0.6-0.54,1.1-1.05,1.51-1.55
			c0.34-0.42,0.52-0.82,0.55-1.21c0.02-0.36-0.11-0.71-0.4-1.08c-0.38-0.47-0.83-0.98-1.36-1.5c-0.4-0.33-0.76-0.69-1.06-1.06
			c-0.38-0.48-0.55-1-0.5-1.56c0.05-0.5,0.25-0.98,0.6-1.43c0.28-0.35,0.63-0.73,1.06-1.16c0.27-0.27,0.4-0.59,0.4-1.01
			c0-0.42-0.13-0.74-0.4-1.01l-5.02-5.02c-0.54-0.54-1.48-0.54-2.03,0L22.31,52.51v7.75c-0.06,4.15-3.25,4.26-10.96,4.51
			c-2.81,0.09-6.3,0.21-10.6,0.53C0.37,65.32,0.03,65.04,0,64.65c-0.03-0.39,0.26-0.72,0.65-0.75c4.32-0.32,7.83-0.44,10.65-0.53
			c7.74-0.26,9.57-0.42,9.61-3.12l0-8.03c0-0.19,0.07-0.36,0.21-0.5l29.94-29.94c0.54-0.54,1.21-0.81,2-0.81
			c0.79,0,1.47,0.27,2,0.81l5.02,5.02c0.54,0.54,0.81,1.21,0.81,2s-0.27,1.46-0.81,2c-0.39,0.39-0.71,0.74-0.95,1.05
			c-0.18,0.23-0.28,0.45-0.3,0.68c-0.01,0.12,0,0.3,0.2,0.55c0.23,0.29,0.54,0.6,0.91,0.91c0.61,0.61,1.09,1.14,1.51,1.66
			c0.51,0.64,0.75,1.33,0.7,2.04c-0.04,0.68-0.33,1.36-0.86,2.01c-0.46,0.57-1.01,1.13-1.64,1.69l-8.81,8.81
			c-0.27,0.27-0.72,0.27-0.99,0l-3.01-3.01c-0.13-0.13-0.21-0.31-0.21-0.5s0.07-0.36,0.21-0.5l8.64-8.64l-1.1-1.04L30.14,60.75
			c-0.12,0.12-0.28,0.19-0.45,0.2l-4.6,0.32c-0.74,0.8-1.4,1.88-1.24,2.26c0.05,0.13,0.4,0.34,1.37,0.34c0.88,0,1.61,0.15,2.45,0.32
			c3.57,0.72,10.99,2.23,50.91-4.29c0.38-0.06,0.74,0.2,0.8,0.58c0.06,0.38-0.2,0.74-0.58,0.8C54.34,65.29,42.06,66.3,35.31,66.3z"
			/>
	</g>
</g>
</svg>
