<?xml version="1.0" encoding="utf-8"?>
<!-- Generator: Adobe Illustrator 24.3.0, SVG Export Plug-In . SVG Version: 6.00 Build 0)  -->
<svg version="1.1" id="Layer_1" xmlns="http://www.w3.org/2000/svg" xmlns:xlink="http://www.w3.org/1999/xlink" x="0px" y="0px"
	 viewBox="0 0 79.79 66.96" style="enable-background:new 0 0 79.79 66.96;" xml:space="preserve">
<style type="text/css">
	.st0{fill:#2E33B1;}
</style>
<g>
	<path class="st0" d="M78.51,63.12c-0.48-0.15-11.47-0.1-16.99,0c-7.02,0.15-17.68,0.39-21.26-0.29c-0.34-0.05-0.68-0.15-0.97-0.24
		c6.59-1.31,9.35-6.05,10.46-8.04c0.15-0.24,0.24-0.44,0.34-0.53c0.97-1.45,4.31-14.1,4.65-18.07c0.53-7.22-2.28-12.25-8.43-14.92
		c-3.49-1.5-14.24-2.66-18.99,3.49c-4.5,5.86-7.46,20.88-7.17,21.85c0.1,0.39,0.29,1.02,5.09,1.07c-0.48,6.97,0.24,7.31,0.58,7.46
		c0.34,0.15,1.26,0.34,3.63,0.77c1.94,0.39,5.04,0.97,5.91,1.31c0,0.1,0,0.24-0.05,0.39c-0.1,0.92-0.24,2.71,0.73,4.26h-0.05
		c-6.1,0.05-17.05,1.6-25.04,2.71c-4.75,0.68-8.86,1.26-10.32,1.26C0.29,65.59,0,65.88,0,66.22c0,0.34,0.29,0.63,0.63,0.63
		c1.5-0.05,5.42-0.58,10.46-1.31c7.94-1.11,18.89-2.66,24.9-2.71c0.39,0,0.78,0,1.11-0.05c0.68,0.53,1.65,0.97,2.91,1.16
		c3.73,0.68,14.05,0.48,21.55,0.29c3.68-0.1,16.17-0.15,16.6-0.05c0.34,0.1,0.68-0.1,0.77-0.44C79.04,63.41,78.85,63.22,78.51,63.12
		z M36.47,57.5c0.05-0.48,0.05-0.82-0.05-1.07c-0.24-0.53-0.92-0.82-6.83-1.94c-1.26-0.24-2.71-0.53-3.2-0.63
		c-0.1-0.29-0.15-1.02-0.15-1.94h3.39c0.34,0,0.63-0.29,0.63-0.63c0-0.34-0.29-0.63-0.63-0.63h-3.39c0-1.21,0.1-2.57,0.19-3.83
		c0-0.19-0.05-0.34-0.15-0.48c-0.1-0.15-0.29-0.19-0.44-0.19c-1.74,0-3.83-0.15-4.5-0.34c0.19-2.08,2.76-15.16,6.93-20.59
		c4.31-5.62,14.24-4.5,17.49-3.1c5.62,2.42,8.23,7.02,7.7,13.66c-0.29,3.92-3.68,16.32-4.41,17.44c-0.1,0.15-0.19,0.34-0.39,0.63
		c-1.11,1.94-3.97,6.93-11.14,7.65C36.28,60.36,36.42,58.62,36.47,57.5z"/>
	<path class="st0" d="M31.29,34.88c-1.84,0-3.34,1.5-3.34,3.34s1.5,3.34,3.34,3.34c1.84,0,3.34-1.5,3.34-3.34
		S33.13,34.88,31.29,34.88z M31.29,40.36c-1.16,0-2.13-0.97-2.13-2.13s0.97-2.13,2.13-2.13s2.13,0.97,2.13,2.13
		S32.45,40.36,31.29,40.36z"/>
</g>
</svg>
