<?xml version="1.0" encoding="utf-8"?>
<!-- Generator: Adobe Illustrator 24.3.0, SVG Export Plug-In . SVG Version: 6.00 Build 0)  -->
<svg version="1.1" id="Layer_1" xmlns="http://www.w3.org/2000/svg" xmlns:xlink="http://www.w3.org/1999/xlink" x="0px" y="0px"
	 viewBox="0 0 79.79 66.96" style="enable-background:new 0 0 79.79 66.96;" xml:space="preserve">
<style type="text/css">
	.st0{fill:#E2003A;}
</style>
<g>
	<path class="st0" d="M79.97,64.34C79.83,64,79.49,63.85,79.15,64c-2.62,0.97-35.45,2.98-44.03,0.99
		c-6.69-1.55-10.76-1.5-14.29-1.46c-0.34,0-0.68,0-1.02,0c1.26-1.12,2.28-2.47,3.1-3.64c1.02-1.36,1.84-2.57,2.62-2.57
		c0,0,0,0,0.05,0c8.48,0.39,21.81-1.26,23.7-7.33c1.16-3.69,3.2-3.59,3.97-3.59c2.04,0.05,4.36,2.04,6.44,3.78
		c1.84,1.55,3.44,2.91,4.85,2.91c1.5,0,1.84-2.23,2.18-4.61c0.15-1.07,0.39-2.81,0.68-3.06c2.28-0.87,4.07-1.94,5.28-3.15
		c2.37-2.38,3.25-7.71,3.25-11.94s-0.82-9.56-3.25-11.94c-7.37-7.37-34.06-7.37-41.43,0c-0.87,0.87-1.6,2.18-2.13,3.93
		c-7.46-0.15-17.4,1.26-21.71,5.58c-2.37,2.38-3.25,7.71-3.25,11.94c0,4.22,0.82,9.56,3.25,11.94c1.31,1.31,3.3,2.47,5.81,3.35
		c0.29,0.19,0.44,1.7,0.53,2.72c0.24,2.33,0.53,5.34,2.52,6.45c-2.57,1.21-2.7,1.07-11.08,0.44c-1.31-0.1-2.81-0.19-4.51-0.34
		c-0.34,0-0.63,0.24-0.68,0.58c0,0.34,0.24,0.63,0.58,0.68c1.65,0.1,3.15,0.24,4.46,0.34c9.79,0.68,9.39,0.82,13.02-1.26
		c0.92,0,1.84,0,2.76,0c3.49-0.05,7.46-0.1,14,1.41c2.18,0.49,6.49,0.73,11.77,0.73c15.89,0,30.56-0.84,32.98-1.72
		C79.92,65.02,80.07,64.63,79.97,64.34z M29.98,23.65c8.14,0.29,15.02,2.23,17.93,5.19c1.7,1.7,3,6.21,2.96,10.43
		c0,2.47-0.48,4.32-1.26,5.09c-2.76,2.72-14.29,0.34-17.54-2.91C29.16,38.5,28.53,29.38,29.98,23.65z M17.72,63.48
		c-2.08-0.15-2.52-2.62-2.81-5.73c-0.19-1.99-0.34-3.4-1.36-3.74c-2.37-0.82-4.17-1.89-5.38-3.06c-1.74-1.75-2.86-6.06-2.86-11.06
		s1.11-9.32,2.86-11.06c3.2-3.2,10.85-5.19,19.77-5.19c0.24,0,0.48,0,0.73,0c-1.45,6.11-0.78,15.48,2.47,18.68
		c3.39,3.4,15.8,6.31,19.29,2.91c1.41-1.41,1.65-4.37,1.65-5.97c0-3.93-1.11-9.12-3.34-11.3c-3.15-3.15-9.98-5.19-18.46-5.53
		c0.48-1.36,1.07-2.43,1.74-3.11c3.15-3.15,10.95-5.19,19.82-5.19c8.92,0,16.67,2.04,19.82,5.19c1.74,1.75,2.86,6.06,2.86,11.06
		s-1.11,9.32-2.86,11.06c-1.11,1.12-2.76,2.09-4.85,2.86c-0.97,0.39-1.21,1.99-1.5,4.03c-0.15,0.87-0.48,3.54-0.97,3.54
		c-0.92,0-2.52-1.36-4.02-2.62c-2.23-1.89-4.75-3.98-7.22-4.08c-2.52-0.1-4.26,1.41-5.18,4.46c-1.45,4.56-12.55,6.89-22.44,6.45
		c-1.45-0.05-2.52,1.41-3.73,3.06C20.77,60.67,19.51,62.42,17.72,63.48z"/>
</g>
</svg>
