<?xml version="1.0" encoding="utf-8"?>
<!-- Generator: Adobe Illustrator 24.3.0, SVG Export Plug-In . SVG Version: 6.00 Build 0)  -->
<svg version="1.1" id="Layer_1" xmlns="http://www.w3.org/2000/svg" xmlns:xlink="http://www.w3.org/1999/xlink" x="0px" y="0px"
	 viewBox="0 0 79.79 66.96" style="enable-background:new 0 0 79.79 66.96;" xml:space="preserve">
<style type="text/css">
	.st0{fill:#EA5947;}
</style>
<g>
	<g>
		<path class="st0" d="M9.93,66.74c-3.08,0-6.2-0.12-9.27-0.29C0.27,66.43-0.02,66.1,0,65.71c0.02-0.38,0.37-0.65,0.74-0.66
			c14.45,0.83,29.95,0.44,36.99-8.1l-9.76,3.47c-0.33,0.12-0.71-0.03-0.86-0.35l-3.78-7.79l-8.35-2.73
			c-0.33-0.11-0.53-0.44-0.47-0.79l1.53-8.67l-5.19-7.02c-0.21-0.28-0.18-0.67,0.08-0.92L17.24,26l-0.03-8.69
			c0-0.35,0.26-0.65,0.61-0.7l8.67-1.15l5.07-7.13c0.2-0.29,0.59-0.38,0.9-0.21l7.78,4.13l8.37-2.73c0.33-0.11,0.7,0.05,0.85,0.36
			l3.77,7.9l8.35,2.61c0.34,0.1,0.54,0.44,0.48,0.79l-1.53,8.67l5.19,7.02c0.21,0.28,0.18,0.68-0.08,0.92l-6.31,6.03l0.02,8.81
			c0,0.35-0.26,0.65-0.61,0.7l-7.32,0.97c2.79,2.04,9.87,6.54,18.74,7.31c2.06,0.18,4.95,0.06,9.1-0.38
			c0.38-0.04,0.73,0.24,0.77,0.62c0.04,0.38-0.24,0.73-0.62,0.77c-4.24,0.45-7.22,0.57-9.37,0.38c-11.95-1.03-20.47-8.34-20.83-8.65
			c-0.21-0.18-0.29-0.47-0.21-0.73c0.08-0.26,0.31-0.46,0.58-0.49l8.37-1.1l-0.02-8.49c0-0.19,0.08-0.38,0.22-0.51l6.08-5.81
			l-5-6.77c-0.11-0.15-0.16-0.35-0.13-0.54l1.47-8.36l-8.05-2.52c-0.19-0.06-0.34-0.19-0.42-0.37l-3.64-7.62l-8.07,2.64
			c-0.18,0.06-0.38,0.04-0.55-0.05l-7.5-3.98l-4.89,6.88c-0.11,0.16-0.29,0.26-0.48,0.29l-8.37,1.1l0.03,8.38
			c0,0.19-0.08,0.37-0.21,0.5l-6.1,5.92l5,6.77c0.11,0.15,0.16,0.35,0.13,0.54l-1.48,8.37l8.05,2.63c0.18,0.06,0.33,0.19,0.41,0.36
			l3.64,7.5l11.27-4c0.28-0.1,0.59-0.01,0.78,0.22c0.19,0.23,0.21,0.55,0.05,0.81C34.81,64.68,22.7,66.74,9.93,66.74z"/>
	</g>
	<g>
		<path class="st0" d="M25.76,28.63c0.43-4.96,2.7-7.57,5.97-7.29c3.27,0.28,5.06,3.25,4.64,8.21c-0.43,5.03-2.71,7.65-5.98,7.37
			C27.11,36.63,25.32,33.65,25.76,28.63z M34.9,29.42c0.36-4.19-0.95-6.65-3.28-6.85c-2.33-0.2-4.05,1.99-4.41,6.18
			c-0.36,4.19,0.94,6.72,3.28,6.92C32.82,35.88,34.54,33.61,34.9,29.42z M46.2,22.59l1.44,0.12l-16.05,24.5l-1.44-0.12L46.2,22.59z
			 M41.55,40.19c0.43-4.96,2.7-7.57,5.97-7.29c3.27,0.28,5.06,3.25,4.64,8.21c-0.43,5.03-2.71,7.65-5.98,7.37
			C42.91,48.19,41.12,45.21,41.55,40.19z M50.7,40.98c0.36-4.19-0.95-6.65-3.28-6.85c-2.33-0.2-4.05,1.99-4.41,6.18
			c-0.36,4.19,0.94,6.72,3.28,6.92C48.62,47.44,50.34,45.17,50.7,40.98z"/>
	</g>
</g>
</svg>
