 <svg version="1.1" id="Layer_1" xmlns="http://www.w3.org/2000/svg" xmlns:xlink="http://www.w3.org/1999/xlink" x="0px" y="0px" 	 viewBox="0 0 116.5 38.2" style="enable-background:new 0 0 116.5 38.2;" xml:space="preserve">  <path class="st0" d="M106.4,17.8c-7.3-0.3-15.1-4.2-26.5-6.7c0,0,0,0,0,0c-15.2-4-36.4,0.5-47.4,1.6c-3.1,0.3-6.3-0.6-8.8-2.4 	c-4.4-3.3-6.8-5.7-9.2-6.9c-0.2-0.6-0.5-1.2-0.7-1.9c-0.5-1.6-1.7-1.7-2.4-1c-0.5,0.5-1.1,1.4-1.6,2.3c0,0,0,0-0.1,0 	C8.9,2.8,7.8,3,6.7,3.4C6.5,3.2,6.4,3,6.2,2.8C5.1,1.6,3.9,2,3.6,2.9C3.2,3.9,3,5.6,3,6.9c0,0,0,0,0,0C2.2,8.9,2.2,11,1.3,13.1 	C0.5,15,0,16.4,0,16.4s1.1,0.6,2.9,0.7c2.4,0.1,2.6-0.5,5.9-2.9c0,0,0,0,0,0c1-0.7,2.5-0.6,3.3,0.3c1,1,2.3,2.5,3.6,4.1 	c1,1.2,1.9,2.7,3.2,4.1c-1.7,1.5-4.1,3.5-7,5.6c-1.2,0.9-2.3,1.5-4.6,1.6c-0.9,0-2.2,1.6-1.2,2.1c1,0.5,3.1,0.4,5.4,0 	c0.7-0.1,7.5-3,12.2-5.6c0.6,0.3,1.3,0.6,2,0.8c-1.7,1.5-4.3,3.6-7.3,5.9c-1.2,0.9-2.3,1.5-4.6,1.6c-0.9,0-2.2,1.6-1.2,2.1 	s3.1,0.4,5.4,0c1-0.2,14.3-5.8,16.2-8.5c0.1-0.1,0.1-0.2,0.2-0.3c0.8-0.1,1.7-0.2,2.7-0.3c14.8-2.2,21.8-7.6,31.4-7.8 	c9.6-0.2,12.4,7.1,16.2,10.3c0.4,0.4,0.9,0.6,1.3,0.8c1,0.7,1.6,1.3,1.9,2.1c0.2,0.6-0.3,1.1-0.9,1.4c-1,0.5-1.5,2.3-0.4,2.3 	c0.3,0,2.6,0,3.9-0.1c1.4-0.1,1.4-2.9,0.7-4.6c0-0.1-0.1-0.2-0.2-0.3c2.3-0.1,4.5-0.4,6,0.6c1.2,0.8,1.8,1.4,2.2,2.2 	c0.2,0.6-0.3,1.1-0.9,1.4c-1,0.5-1.5,2.3-0.4,2.3c0.3,0,2.6,0,3.9-0.1c1.4-0.1,1.4-2.9,0.7-4.6c-0.8-2.1-2.6-4.8-4.1-5.6 	c-1-0.6-1.2-0.4-2-0.3c-2,0.3-2.9-2.9-3.5-5.6c-0.3-1.3-1-3.2-2.7-5.1c0.1-0.7,2.3,1.2,8.2,4c6.6,3.1,15.8,4.2,17.5,0.2 	c0.9-2-0.6-5-0.6-5S113.1,18.1,106.4,17.8z M7,10.9c-0.6,0.6-1.6,0.4-2.1,0.3c0-0.4-0.2-1.5,0.4-2.1c0.6-0.6,1.6-0.4,2.1-0.3 	C7.5,9.3,7.6,10.3,7,10.9z"/> </svg> 