<svg xmlns="http://www.w3.org/2000/svg" width="48" height="46.01"><path fill="#0050B2" d="M42.146 11.503c3.219 0 5.854-2.588 5.854-5.752C48 2.588 45.366 0 42.146 0s-5.854 2.588-5.854 5.751c.001 3.163 2.635 5.752 5.854 5.752zm0-9.202c1.932 0 3.512 1.553 3.512 3.45 0 1.898-1.58 3.451-3.512 3.451s-3.512-1.553-3.512-3.451c0-1.898 1.581-3.45 3.512-3.45zm0 14.953c-1.229 0-2.4.402-3.337 1.035l-9.776-9.604a5.537 5.537 0 00.819-2.934C29.854 2.588 27.219 0 24 0c-3.22 0-5.854 2.588-5.854 5.751 0 3.163 2.634 5.752 5.854 5.752a6.004 6.004 0 003.454-1.093l9.717 9.547c-.585.863-.878 1.898-.878 3.048 0 3.163 2.634 5.751 5.854 5.751 3.219 0 5.854-2.588 5.854-5.751-.001-3.163-2.635-5.751-5.855-5.751zM24 9.202c-1.932 0-3.512-1.553-3.512-3.451 0-1.898 1.58-3.45 3.512-3.45s3.512 1.553 3.512 3.45c0 1.898-1.58 3.451-3.512 3.451zm18.146 17.253c-1.932 0-3.512-1.553-3.512-3.45 0-1.898 1.581-3.451 3.512-3.451 1.932 0 3.512 1.553 3.512 3.451.001 1.898-1.58 3.45-3.512 3.45zM24 28.756c3.219 0 5.854-2.588 5.854-5.751 0-3.163-2.634-5.751-5.854-5.751s-5.854 2.588-5.854 5.751c0 3.163 2.634 5.751 5.854 5.751zm0-9.202c1.932 0 3.512 1.553 3.512 3.451 0 1.898-1.581 3.45-3.512 3.45-1.932 0-3.512-1.553-3.512-3.45 0-1.898 1.58-3.451 3.512-3.451zM5.854 34.507C2.634 34.507 0 37.095 0 40.258c0 3.163 2.634 5.751 5.854 5.751 3.219 0 5.854-2.588 5.854-5.751-.001-3.163-2.635-5.751-5.854-5.751zm0 9.202c-1.932 0-3.512-1.553-3.512-3.451 0-1.898 1.58-3.451 3.512-3.451s3.512 1.553 3.512 3.451c0 1.898-1.581 3.451-3.512 3.451zm36.292-9.202c-2.81 0-5.21 1.956-5.737 4.601h-6.673c-.526-2.645-2.926-4.601-5.736-4.601-1.815 0-3.454.805-4.507 2.128l-9.659-9.432c1.112-1.035 1.873-2.53 1.873-4.198 0-2.761-1.99-5.119-4.683-5.636v-5.981c2.693-.517 4.683-2.875 4.683-5.636C11.707 2.588 9.073 0 5.854 0 2.634 0 0 2.588 0 5.751c0 2.761 1.99 5.119 4.683 5.636v5.981C1.99 17.886 0 20.244 0 23.005c0 3.163 2.634 5.751 5.854 5.751.702 0 1.346-.115 1.932-.345l10.537 10.352a6.528 6.528 0 00-.176 1.495c0 3.163 2.634 5.751 5.854 5.751 2.81 0 5.21-1.955 5.737-4.601h6.673c.527 2.646 2.927 4.601 5.737 4.601 3.219 0 5.854-2.588 5.854-5.751-.002-3.163-2.636-5.751-5.856-5.751zM2.341 5.751c0-1.898 1.58-3.45 3.512-3.45s3.512 1.553 3.512 3.45c0 1.898-1.581 3.451-3.512 3.451S2.341 7.649 2.341 5.751zm3.513 20.704c-1.932 0-3.512-1.553-3.512-3.45 0-1.898 1.58-3.451 3.512-3.451s3.512 1.553 3.512 3.451c0 1.898-1.581 3.45-3.512 3.45zM24 43.709c-1.932 0-3.512-1.553-3.512-3.451 0-1.898 1.58-3.451 3.512-3.451s3.512 1.553 3.512 3.451c0 1.898-1.58 3.451-3.512 3.451zm18.146 0c-1.932 0-3.512-1.553-3.512-3.451 0-1.898 1.581-3.451 3.512-3.451 1.932 0 3.512 1.553 3.512 3.451.001 1.898-1.58 3.451-3.512 3.451z"/></svg>
