<?xml version="1.0" encoding="utf-8"?>
<!-- Generator: Adobe Illustrator 24.3.0, SVG Export Plug-In . SVG Version: 6.00 Build 0)  -->
<svg version="1.1" id="Layer_1" xmlns="http://www.w3.org/2000/svg" xmlns:xlink="http://www.w3.org/1999/xlink" x="0px" y="0px"
	 viewBox="0 0 310.5 336.8" style="enable-background:new 0 0 310.5 336.8;" xml:space="preserve">
<style type="text/css">
	.st0{fill:#023F88;}
	.st1{fill-rule:evenodd;clip-rule:evenodd;fill:#D3A809;}
	.st2{fill-rule:evenodd;clip-rule:evenodd;fill:#C9252C;}
	.st3{fill-rule:evenodd;clip-rule:evenodd;fill:#FFFFFF;}
	.st4{stroke:#FFFFFF;stroke-width:3;stroke-miterlimit:10;}
	.st5{fill:#D3A809;}
	.st6{fill:#C9252C;}
</style>
<g>
	<path class="st0" d="M72.2,197.2c1,5.9,0.7,11.6,0.6,18.7c-0.1,4.4-0.9,9.4-3,13.7c-5.2,10.7-12.7,17.7-19.7,23.6
		c-1.9-7.3-3.2-14.6-3.9-22c6.2-5,14.2-11.1,21.4-23.5l0,0C69.8,203.8,71.3,200.3,72.2,197.2"/>
	<path class="st0" d="M19.8,148.8c-5.5-6-8.1-13.6-6.1-18.7c6-9.2,18.3-17.5,32.6-23.6c0.9,9,0.4,28.7,0.4,28.7
		C36.6,138.3,26.7,142.7,19.8,148.8"/>
	<path class="st0" d="M32.7,270L32.7,270c9.8,15.4,28.8,22.6,50.3,25.7c0.4,2.5,0.9,5.3,1.5,8.4c0.7,4.3,2.9,13.5,7.5,13.6
		c-32.7-1-57.4-11.5-63.9-37.4c-2.3-9-2.7-16-1.9-21.8C27.4,262.1,29.6,265.9,32.7,270"/>
	<path class="st0" d="M34.9,267c-5.5-7.5-7.3-13.5-5.4-18.4c2.5-4.8,6.2-8.5,10.2-12c1,7.3,2.4,14.4,4.4,21.6
		C40.5,261.1,37.3,263.9,34.9,267"/>
	<path class="st0" d="M53.1,103.7c5.6-2.1,11.4-3.8,17.2-5.2l7.2,30.4c-6.3,0.6-14.8,2-23.7,4.2C54.4,122.9,54.1,113.2,53.1,103.7"
		/>
	<path class="st0" d="M238.4,197.1c-1,5.9-0.7,11.6-0.6,18.7c0.1,4.4,0.9,9.4,3,13.7c5.2,10.7,12.7,17.7,19.7,23.6
		c1.9-7.3,3.2-14.6,3.9-22c-6.2-5-14.2-11.1-21.4-23.5l0,0C240.8,203.7,239.2,200.2,238.4,197.1"/>
	<path class="st0" d="M290.8,148.7c5.5-6,8.1-13.6,6.1-18.7c-6-9.2-18.3-17.5-32.6-23.6c-0.9,9-0.4,28.7-0.4,28.7
		C273.9,138.2,283.8,142.6,290.8,148.7"/>
	<path class="st0" d="M277.8,269.9L277.8,269.9c-9.8,15.4-28.8,22.6-50.3,25.7c-0.4,2.5-0.9,5.3-1.5,8.4c-0.7,4.3-2.9,13.5-7.5,13.6
		c32.7-1,57.4-11.5,63.9-37.4c2.3-9,2.7-16,1.9-21.8C283.1,262,280.9,265.8,277.8,269.9"/>
	<path class="st0" d="M275.7,266.9c5.5-7.5,7.3-13.5,5.4-18.4c-2.5-4.8-6.2-8.5-10.2-12c-1,7.3-2.4,14.4-4.4,21.6
		C270,261,273.2,263.8,275.7,266.9"/>
	<path class="st0" d="M257.4,103.6c-5.6-2.1-11.4-3.8-17.2-5.2l-7.2,30.4c6.3,0.6,14.8,2,23.7,4.2
		C256.2,122.8,256.4,113.1,257.4,103.6"/>
	<g>
		<path class="st0" d="M215.6,76.2c-6.4,5.2-10.7,13.7-15.5,25.4c-1.3,3.1-2.2,4.7-4.2,4c-11.1-3.6-25.6-6.1-40.6-6.1
			c-15,0-29.5,2.6-40.6,6.1c-2,0.6-2.9-1-4.2-4c-4.9-11.7-9.2-20.2-15.5-25.4c1.9,6.7-2.1,14.3-2.6,16.2c-3,12.1,8.5,18.9,22.2,18.9
			c1.1,0,80.2,0,81.2,0c13.8,0,25.2-6.9,22.2-18.9C217.7,90.5,213.7,82.9,215.6,76.2z"/>
		<path class="st0" d="M219.4,76c-1.9,3.9-0.2,9.4,1.4,13.4c2.9-0.1,7.7,0.3,17.2,2.9l5-21.6C224.2,68.5,220.4,73.8,219.4,76z"/>
		<path class="st0" d="M91.2,76c-1-2.2-4.8-7.4-23.5-5.4l5,21.6c9.5-2.6,14.3-3,17.2-2.9C91.4,85.4,93.1,79.9,91.2,76z"/>
	</g>
	<path class="st0" d="M131.2,304.2c2.3,1.7,4.5,3.3,6.1,4.4c0.3-8.1,2.2-13.3,3.4-16c-9.4-6.2-28.3-11.1-43-7.8
		C106.7,286.6,119,295.2,131.2,304.2z"/>
	<path class="st0" d="M213.4,301.3c4.8-1.2,7.2-3.6,7.1-7.6c0-3.9-1.7-4.6-2.3-4.8c-4.9-2-16.5,4.3-24.8,11.7
		C200.6,302,207.9,302.6,213.4,301.3z"/>
	<path class="st0" d="M119.2,299.9c-8.6-5.9-18.5-11.9-24.5-11.9c-1,0-1.8,0.2-2.6,0.5c-1.7,0.8-2.7,2.6-3,5.6
		c-0.2,1.8,0.3,3.2,1.5,4.3C94.4,301.7,104.7,302.2,119.2,299.9z"/>
	<path class="st0" d="M189.3,299.7c4.5-4.3,10-8.4,15.3-11.1c2.8-1.5,6.3-3,9.7-3.4c-14.8-3.9-34.3,0.9-44.1,7.3
		C172.9,294.4,180.6,297.5,189.3,299.7z"/>
	<path class="st0" d="M223.7,296.3c-0.6,3.4-2.9,6.7-9.5,8.3c-11.4,2.8-32.8-2.3-42.9-7.5c0.7,3,1.3,7.2,1.2,13.3
		c0,1-3.6,4.6-3.6,4.6c0.8-12.6-1.8-20.2-2.5-21.4c-0.1-0.1-0.2-0.3-0.3-0.4c-0.3-0.1-0.5-0.2-0.8-0.2c-6.7,0-17.2,0-20,0
		c-0.3,0-0.7,0.1-1,0.3c-1.2,2.2-3.8,8.6-3.5,21.1c0,0-3.2-1.3-9.3-5.7c-1.8-1.3-6.1-4.5-8.3-6.1c-12.6,2.3-28.7,3.9-34.9-1.8
		c-1.6-1.4-2.4-3.2-2.6-5.3c-22.7-2.7-25.8,20.3,3.9,22c6.4,12.6,25.7,7.6,39.7,3.7c5.5,5.5,10,15.2,10,15.2
		c5.7-2.8,10.1-7.4,13.4-11.8c4.3,3.6,11.6,8.2,23,11.3c0,0,0-8,2.4-16c14.4,4.5,33.5,9.6,40.4-2.3
		C249.2,316.2,223.7,296.4,223.7,296.3z"/>
	<path class="st1" d="M155.6,86.2c14.5,0,28.2,2.4,40.6,6.8c3.8-5.7,12.4-20.4,12.4-35.2c0-15.9-21.4-24.6-33.2-25
		c0,0-20.2,36.8-20.2,36.9L135,32.8c-11.8,0.4-33.2,9.1-33.2,25c0,15,8.8,29.9,12.6,35.4C127,88.7,140.9,86.2,155.6,86.2z"/>
	<polygon class="st1" points="168.1,17.8 155.3,0.4 142.5,17.8 155.3,46.8 	"/>
	<path class="st2" d="M223.8,108.4h-137V248c0,13.4,10.9,24.3,24.3,24.3h16.7c16.9,0,26.1,7.2,26.1,16.1l0,0h2.9l0,0
		c0-8.9,9.2-16.1,26.1-16.1h16.7c13.4,0,24.3-10.9,24.3-24.3V108.4H223.8z"/>
	<rect x="93.4" y="114.7" class="st3" width="123.7" height="45.6"/>
	<path class="st4" d="M101,290.4"/>
	<path class="st5" d="M154.9,237c-0.9,0-1.7,0.1-2.6,0.3c2.9,1.1,4.9,3.9,4.9,7.1c0,4.2-3.4,7.6-7.6,7.6c-2.8,0-5.2-1.5-6.5-3.7
		c0,0.1,0,0.3,0,0.4c0,6.5,5.3,11.8,11.8,11.8s11.8-5.3,11.8-11.8C166.6,242.2,161.4,237,154.9,237z"/>
	<polygon class="st5" points="152.3,186.6 148,185.4 147.2,188.3 152.3,189.7 152.3,196.5 158.3,196.5 158.3,191.4 162.6,192.6 
		163.4,189.7 158.3,188.3 158.3,181.8 166.5,181.8 166.5,176.2 158.3,176.2 158.3,168.5 152.3,168.5 152.3,176.2 144.1,176.2 
		144.1,181.8 152.3,181.8 	"/>
	<polygon class="st5" points="158,222.7 206.2,260.5 209.9,255.8 162.9,218.8 	"/>
	<g>
		<path class="st6" d="M102.3,134.4c-0.2-0.4-0.6-0.6-1.1-0.5l-1.8,0.3c-0.3,0.1-0.5,0.2-0.7,0.5c-1.2,2.1-1.2,2.6-0.8,3
			c0.3,0.3,2.1,0,4.2-2.1C102.5,135.3,102.6,134.8,102.3,134.4z"/>
		<path class="st0" d="M213.6,134c-0.1-0.3-0.4-0.5-0.7-0.5c-0.3-0.1-0.6,0-0.8,0.2c0,0-2.4,1.7-8.5,1.5c-4.1-0.2-8.4-1.5-13.4-3.1
			c-3.7-1.2-7.9-2.5-12.8-3.6l0,0c-12.2-3.2-28-1-39.6,0.6c-3,0.4-5.7,0.8-7.9,1c-2.9,0.3-5.7-0.5-8-2.2c-1.6-1.2-2.9-2.2-4-3.2
			c-1.9-1.6-3.4-2.8-5-3.6c-0.2-0.5-0.4-1-0.6-1.5c-0.4-1.5-1.4-1.9-1.9-2.1c-0.8-0.2-1.6,0-2.2,0.6c-0.5,0.5-1,1.3-1.5,2
			c-0.6,0.1-1.1,0.2-1.8,0.4c-0.1-0.1-0.3-0.3-0.4-0.4c-1.1-1.1-2.1-1.1-2.6-1c-0.8,0.2-1.4,0.7-1.7,1.5c-0.4,1.1-0.5,2.8-0.4,4
			c-0.5,1.1-0.7,2.2-1,3.4c-0.2,1-0.4,2-0.8,3c-0.8,1.9-1.3,3.3-1.3,3.4c-0.2,0.5,0,1,0.5,1.2c0.1,0,1.4,0.7,3.3,0.8
			c2.3,0.1,3-0.5,4.9-1.9c0.5-0.3,1-0.7,1.7-1.2c0.6-0.4,1.5-0.4,2,0.2c0.9,0.9,2.2,2.4,3.5,4c0.3,0.4,0.6,0.8,1,1.3
			c0.6,0.8,1.1,1.6,1.8,2.4c-1.6,1.4-3.8,3.2-6.3,5c-1.1,0.9-2.2,1.4-4.3,1.5c-0.8,0-1.8,0.9-2,1.8c-0.1,0.5,0.1,1,0.6,1.2
			c0.5,0.3,1.4,0.4,2.2,0.4c1.2,0,2.6-0.2,3.5-0.3c0.7-0.1,6.9-2.7,11.6-5.2c0.5,0.2,1,0.5,1.6,0.7c-1.6,1.3-3.7,3-6,4.8
			c-1.1,0.9-2.2,1.4-4.3,1.5c-0.8,0-1.8,0.9-2,1.8c-0.1,0.5,0.1,1,0.6,1.2c0.5,0.3,1.4,0.4,2.2,0.4c1.2,0,2.6-0.2,3.5-0.3
			c0.9-0.2,13.2-5.3,16.1-8.3c0.8-0.1,1.6-0.2,2.4-0.3c7.3-1.1,12.7-3,17.5-4.6s8.9-3.1,13.6-3.2c6.6-0.2,9.8,3.6,12.6,6.9
			c1,1.2,1.9,2.3,2.9,3.2c0.5,0.4,1.1,0.8,1.6,1l0.4,0.2c1,0.6,1.5,1.1,1.7,1.6c-0.1,0.1-0.2,0.2-0.4,0.3c-1.1,0.5-1.8,1.9-1.5,3
			c0.2,0.8,0.8,1.2,1.6,1.2l0,0c0.4,0,2.6,0,4-0.1c0.7,0,1.2-0.4,1.6-1c0.7-1.2,0.6-3.1,0.1-4.6c1.4-0.1,2.6,0,3.4,0.5
			c1,0.6,1.5,1.1,1.7,1.6c-0.1,0.1-0.2,0.2-0.4,0.3c-1.1,0.5-1.8,1.9-1.5,3c0.2,0.8,0.8,1.2,1.6,1.2l0,0c0.4,0,2.6,0,4-0.1
			c0.7,0,1.2-0.4,1.6-1c0.8-1.3,0.6-3.5,0-5c-0.9-2.2-2.8-5.1-4.5-6.1c-1.1-0.6-1.6-0.6-2.4-0.4l-0.3,0.1c-1.2,0.2-2-3.5-2.3-4.8
			c-0.2-0.7-0.5-1.6-0.9-2.6c1.2,0.7,2.9,1.6,5,2.6c3.4,1.6,7.9,2.9,11.8,2.9c1.5,0,2.9-0.2,4.1-0.6c1.4-0.5,2.4-1.4,2.9-2.6
			C215.2,137.4,213.7,134.3,213.6,134z"/>
		<path class="st2" d="M104.7,129.2c-0.6,0.6-1.6,0.4-2.1,0.3c0-0.4-0.2-1.5,0.4-2.1s1.6-0.4,2.1-0.3
			C105.2,127.7,105.3,128.6,104.7,129.2z"/>
	</g>
	<g>
		<path class="st5" d="M236.4,148.8c0.5,0.3,0.7,1.1,0.4,1.6c-3.6,5.7,2.5,8.2,5.2,8.8c0.7,0.2,1,0.9,0.8,1.7
			c-0.4,1.2-0.4,2.9,1.5,4.2c3.3,2.2,7.7,0,10.1,2c1.8,1.5,4.7,5.2,7.2,8.6c3.5-2,7.6-4.2,11.7-6.6c1.9-4.6,4-9.6,5.4-12.6
			c0.5-0.1,1-0.2,1.4-0.4c2.8-1.1,4.1-4.3,3-7c-1.1-2.8-4.3-4.1-7-3c-2.8,1.1-4.1,4.3-3,7c0.3,0.6,0.6,1.2,1.1,1.7
			c-1,2.9-2.6,7-4.1,10.9c-2.3-15.8-4.5-32-3.9-49.8c0.9-0.8,2-1.7,3.3-3c10.6-10.4,15.4-4.5,19.9-6.7c2.6-1.3,2.8-3.2,2.4-4.6
			c-0.2-0.9,0.3-1.7,1.2-1.8c3.5-0.5,10.2-2.5,7.6-9.6c-0.2-0.7,0.1-1.4,0.7-1.8c3.5-2,5.5-6.9,2.7-10.1c-2.7-3.2-8-2-10.4,1.2
			c-0.4,0.6-1.2,0.8-1.9,0.4c-6.6-3.5-9.9,2.2-11.1,5.4c-0.3,0.8-1.3,1.2-2.1,0.8c-1.2-0.6-3.2-1-4.7,1.4
			c-3.2,5.4-0.4,13.3-7.1,19.4c0.6-6.6,1.6-13.4,3.2-20.5l0.1-0.1c0.6-2,1-4.5,2-5.8c4.4-5.5,12-4.4,14.6-7.9
			c1.9-2.6,1.1-4.5,0.1-5.7c-0.6-0.7-0.5-1.8,0.3-2.4c3.1-2.2,9.8-8.7,2.7-13.2c-0.7-0.4-0.7-1.4-0.2-2.1c2.4-3.7,2-9.9-2.4-11.2
			c-3.8-1.2-8.8,2-9.6,6.3c-0.2,0.8-0.8,1.3-1.6,1.3c-8.1,0.5-8.5,6.3-8.2,10.8c0.1,1-0.7,1.8-1.7,1.8c-1.5,0-3.7,0.6-3.9,3.8
			c-0.3,5.4,2.5,10.4,2.9,17.1c0.1,1-0.1,2.3-0.3,3.6c-0.9,3.8-1.6,7.4-2.2,11c-1.3-2.3-2.6-4.7-3.7-6.9c0.1-0.2,0.3-0.5,0.4-0.7
			c1.3-2.7,0.1-6-2.7-7.3c-2.7-1.3-6-0.1-7.3,2.7c-1.3,2.7-0.1,6,2.7,7.3c1,0.5,2,0.6,3,0.5c2,3.4,4.3,7.5,6.6,11.5
			c-3.2,25.5-0.2,45.8,2.9,67.3c0.1,0.8,0.2,1.6,0.3,2.3c-1.2-1.2-3.5-3.7-4.7-4.9c-4.9-5.2-0.7-9.3-2.5-14.5c-0.8-2.3-2-4.1-3-3.6
			c-0.7,0.3-1.4,0-1.6-0.8c-0.9-3.3-2.7-7.5-8.3-5.2c-0.5,0.2-1.1,0.1-1.4-0.4c-1.7-2.9-5.9-3.6-8.1-1.4
			C232.5,142.2,233.8,146.8,236.4,148.8z"/>
		<path class="st5" d="M307.9,199.5c3.4-3.4,2.7-9.6-1-11.9c-4.4-2.7-10.3,0.9-12,5.3c-0.3,0.8-1.2,1.3-2.1,1.1
			c-10.4-2.4-8.3,12.2-11.6,15c-5.6,5-1.5,13.3-2.4,17.7c-0.8,4-3.7,7.7-5.4,10.6c2.3-16.4,1.7-31.4,0.2-45.9
			c-2,1.1-3.9,2.2-5.8,3.3c0.9,8.7,1.3,17.5,1.1,26.4c-1.9-3.2-3.7-6.2-5-8.5c0.3-0.5,0.5-1,0.6-1.6c0.6-2.9-1.2-5.8-4.2-6.4
			c-2.9-0.6-5.8,1.2-6.4,4.2c-0.6,2.9,1.2,5.8,4.2,6.4c0.5,0.1,1.1,0.1,1.6,0.1c2.4,3.4,5.7,8.5,8.7,13.3c-0.8,9.8-2.6,20-6,31.1
			c-3.5,11.7-10,20.8-19.3,27.3c1.7-2.3,2.8-5,3.3-8.3c1.1-7.4,6.1-4.7,7.2-10.5c0.5-2.5-1.1-3.5-2.3-3.8c-0.8-0.2-1.2-1-0.9-1.8
			c1.2-3.4,2.1-8.1-4.2-10.2c-0.6-0.2-1-0.8-1-1.4c0.3-3.6-3-7.2-6.2-7c-3.7,0.1-5.4,4.9-4.3,8.4c0.2,0.6,0,1.4-0.6,1.6
			c-6.6,2-2.7,8.6-0.7,11c0.5,0.6,0.4,1.5-0.3,1.9c-1,0.7-2.1,2.1-1.1,4.5c1.6,4.2,7.7,2,9.3,5.2c0.6,1.2,1,10.2-10.3,16.7
			c-2.8,1.6-5.1,2.4-7.2,3c0,1,0,2.9-0.4,5.5c22.4-5.7,38.4-19.6,44.6-40.4c1.6-5.2,2.8-10.2,3.8-15.1c5.9-4.3,7.6-12.1,13.2-16
			c5.3-3.7,12.5-2.7,17.4-6.6c2.8-2.2,1.8-4.3,0.7-5.6c-0.5-1-0.3-2.2,0.7-2.8c4.3-2.6,9.4-6.7,4.1-13.6
			C307.3,201,307.3,200.2,307.9,199.5z"/>
	</g>
	<g>
		<path class="st5" d="M85.7,295c-2.1-0.6-4.1-1.2-6.1-2c-11.2-6.6-10.9-15.6-10.3-16.7c1.6-3.2,7.7-1,9.3-5.2
			c0.9-2.5-0.1-3.8-1.1-4.5c-0.6-0.4-0.8-1.3-0.3-1.9c2-2.4,5.9-9-0.7-11c-0.6-0.2-0.8-1-0.6-1.6c1.1-3.5-0.5-8.2-4.3-8.4
			c-3.2-0.1-6.5,3.5-6.2,7c0,0.7-0.4,1.2-1,1.4c-6.3,2.1-5.3,6.8-4.2,10.2c0.3,0.8-0.1,1.6-0.9,1.8c-1.2,0.3-2.8,1.3-2.3,3.8
			c1.2,5.8,6.1,3.1,7.2,10.5c0.5,3.3,1.6,6,3.3,8.3c-9.3-6.4-15.7-15.6-19.3-27.3c-3.3-11-5.1-21.3-6-31.1c3-4.9,6.3-9.9,8.7-13.3
			c0.5,0,1.1,0,1.6-0.1c2.9-0.6,4.8-3.5,4.2-6.4s-3.5-4.8-6.4-4.2s-4.8,3.5-4.2,6.4c0.1,0.6,0.3,1.1,0.6,1.6c-1.3,2.4-3.1,5.4-5,8.5
			c-0.3-8.7,0.2-17.6,1-26.2c-1.8-1.1-3.7-2.1-5.6-3.2c-1.6,14.5-2.2,29.6,0.1,46.1c-1.7-3-4.6-6.6-5.4-10.6
			c-0.9-4.4,3.2-12.7-2.4-17.7c-3.3-2.9-1.2-17.4-11.6-15c-0.9,0.2-1.8-0.4-2.1-1.1c-1.7-4.4-7.6-8-12-5.3c-3.8,2.3-4.4,8.4-1,11.9
			c0.6,0.6,0.6,1.5,0.1,2.2c-5.3,6.9-0.2,11,4.1,13.6c1,0.6,1.2,1.7,0.5,2.5c-1.1,1.2-2.1,3.4,0.7,5.6c4.9,3.9,12.1,2.9,17.4,6.6
			c5.6,4,7.3,11.8,13.2,16c1,4.9,2.2,9.9,3.8,15.1c6.2,20.8,21.2,34.5,43.6,40.1C85.8,298.5,85.7,296.2,85.7,295z"/>
		<path class="st5" d="M9.3,88.7c0.6,0.4,0.9,1.1,0.7,1.8c-2.5,7.1,4.2,9.1,7.6,9.6c0.9,0.1,1.4,1,1.2,1.8c-0.3,1.4-0.2,3.3,2.4,4.6
			c4.5,2.2,9.3-3.7,19.9,6.7c1.3,1.2,2.3,2.2,3.3,3c0.6,17.7-1.6,34-3.9,49.8c-1.5-3.9-3.1-8-4.1-10.9c0.4-0.5,0.8-1,1.1-1.7
			c1.1-2.8-0.2-5.9-3-7s-5.9,0.2-7,3s0.2,5.9,3,7c0.5,0.2,1,0.3,1.4,0.4c1.4,2.9,3.4,7.8,5.3,12.3c4.1,2.3,8.1,4.5,11.6,6.5
			c2.5-3.5,5.4-7.3,7.3-8.8c2.4-1.9,6.8,0.2,10.1-2c1.9-1.3,1.9-3,1.5-4.2c-0.2-0.7,0.1-1.5,0.8-1.7c2.7-0.6,8.8-3.2,5.2-8.8
			c-0.3-0.5-0.1-1.3,0.4-1.6c2.6-1.9,3.9-6.6,1.3-9.1c-2.2-2.1-6.4-1.5-8.1,1.4c-0.3,0.5-0.9,0.7-1.4,0.4c-5.5-2.4-7.3,1.8-8.3,5.2
			c-0.2,0.8-0.9,1.1-1.6,0.8c-1-0.5-2.3,1.2-3,3.6c-1.8,5.2,2.5,9.3-2.5,14.5c-1.2,1.3-3.5,3.7-4.7,4.9c0.1-0.8,0.2-1.5,0.3-2.3
			c3.1-21.4,6.1-41.8,2.9-67.3c2.2-4,4.5-8.1,6.6-11.5c1,0.1,2,0,3-0.5c2.7-1.3,3.9-4.5,2.7-7.3c-1.3-2.7-4.5-3.9-7.3-2.7
			s-3.9,4.5-2.7,7.3c0.1,0.2,0.3,0.5,0.4,0.7c-1.1,2.1-2.5,4.5-3.7,6.9c-0.6-3.6-1.3-7.3-2.2-11c-0.2-1.3-0.4-2.5-0.3-3.6
			c0.4-6.7,3.2-11.7,2.9-17.1C48.2,58.6,46,58,44.5,58c-1,0-1.7-0.8-1.7-1.8c0.3-4.4-0.1-10.3-8.2-10.8c-0.8,0-1.5-0.6-1.6-1.3
			c-0.8-4.3-5.9-7.5-9.6-6.3C19,39.2,18.6,45.3,21,49c0.4,0.7,0.4,1.7-0.2,2.1c-7.1,4.4-0.4,10.9,2.7,13.2c0.8,0.6,0.9,1.7,0.3,2.4
			c-1,1.2-1.8,3.1,0.1,5.7c2.6,3.6,10.2,2.4,14.6,7.9c1,1.3,1.3,3.8,2,5.8c0,0.1,0.1,0.1,0.1,0.1c1.6,7.1,2.6,13.9,3.2,20.5
			c-6.7-6.1-3.9-14-7.1-19.4c-1.5-2.5-3.5-2.1-4.7-1.4c-0.8,0.4-1.8,0.1-2.1-0.8c-1.3-3.2-4.5-8.9-11.1-5.4
			c-0.6,0.3-1.4,0.2-1.9-0.4c-2.3-2.7-7.5-3.8-10.3-0.7C3.9,81.8,5.8,86.7,9.3,88.7z"/>
	</g>
	<path class="st0" d="M292,152.4c-8.8,9.3-26.6,17.1-35.4,22.9c-3.9,2.6-8.8,5.6-12.4,9.4c-4.9,5.8-3.3,12.4,1.6,20.6
		c5.3-4.4,12.1-7.9,16.8-10.8c9.7-6.2,23.5-12.2,30.8-21.2c6-7.4,5.5-13.3,6.3-31.7c0-0.2,0-0.5,0-0.7
		C298.3,144.8,295.6,148.9,292,152.4"/>
	<path class="st0" d="M18.5,152.5c8.8,9.3,26.6,17.1,35.4,22.9c3.9,2.6,8.8,5.6,12.4,9.4c4.9,5.8,3.3,12.4-1.6,20.6
		c-5.3-4.4-12.1-7.9-16.8-10.8c-9.7-6.2-23.5-12.2-30.8-21.2c-6-7.4-5.5-13.3-6.3-31.7c0-0.2,0-0.5,0-0.7
		C12.3,144.9,14.9,149,18.5,152.5"/>
	<path class="st5" d="M203.8,182.3c2,2.2,5.7,1.7,7-1l6.3-13.3l-14.4,3c-3,0.6-4.3,4.1-2.6,6.5l-44.8,35.2l-44.8-35.2
		c1.7-2.5,0.3-5.9-2.6-6.5l-14.4-3l6.3,13.3c1.3,2.8,5,3.2,7,1l3.1,2.5c-7.2,14.3-5.3,14.3-12.9,29c7.8,4.6,24.4,16.8,24.4,16.8
		c7.5-13.6,5.8-14.1,12.6-26.9l16.5,13l-49.7,39.1l3.7,4.7l72.3-56.8c6.8,12.8,5,13.3,12.6,26.9c0,0,16.6-12.2,24.4-16.8
		c-7.6-14.7-5.7-14.8-12.9-29L203.8,182.3z M110.9,199.1c0.8,0.5,1.3,1.3,1.4,1.7c-0.6,0.5-1.2,1.1-1.6,1.9
		c-0.5,0.8-0.8,1.5-0.9,2.3c-0.4,0-1.4,0-2.2-0.4c-0.8-0.5-0.6-1.9-0.3-2.5c0,0,2.5,0.1,2.5,0.1c0,0-1.3-2.2-1.3-2.2
		C109,199.4,110.1,198.6,110.9,199.1z M107.6,200l1.1,1.5l-1.9-0.2l-0.5-1.2L107.6,200z M125.4,211.5c-4,2.2-3.4,2.6-5.1-1.2
		c-0.3,0.1-0.7,0.2-1.1,0.3c0.3,5.3-2,7.6-12.4,3.1l7.2-4.9c0,0,1.2,2.9,2.1,1.4c1.3-2.2-4.8-3.9-4.8-0.6c0,0-2.7-0.9-1.4-3.4
		c1.5-2.8,5.3-0.9,5.3-0.9s-3.5-2.5-1.7-5.1c1.6-2.4,3.7-0.4,3.7-0.4c-2.9,1.5,1.4,6.2,2.8,4c0.8-1.4-2.2-1.1-2.2-1.1l0.9-8.7
		c8.8,7.1,7.9,10.1,3.1,12.4c0.1,0.5,0.2,0.8,0.2,1.2C126.1,207.3,125.5,206.9,125.4,211.5z M191.6,210.6c-0.5-0.1-0.8-0.2-1.1-0.3
		c-1.7,3.8-1.1,3.4-5.1,1.2c0-4.5-0.7-4.2,3.5-3.9c0-0.3,0.1-0.7,0.2-1.2c-4.8-2.3-5.7-5.3,3.1-12.4l0.9,8.7c0,0-3.1-0.3-2.2,1.1
		c1.3,2.2,5.7-2.4,2.8-4c0,0,2.1-2,3.7,0.4c1.7,2.6-1.7,5.1-1.7,5.1s3.8-1.9,5.3,0.9c1.3,2.5-1.4,3.4-1.4,3.4c0-3.3-6.1-1.6-4.8,0.6
		c0.8,1.4,2.1-1.4,2.1-1.4l7.2,4.9C193.6,218.1,191.3,215.9,191.6,210.6z M204.4,200.1l-0.5,1.2l-1.9,0.2l1.1-1.5L204.4,200.1z
		 M202.2,200c0,0-1.3,2.2-1.3,2.2c0,0,2.5-0.1,2.5-0.1c0.3,0.6,0.6,2-0.3,2.5c-0.8,0.5-1.8,0.5-2.2,0.4c-0.2-0.8-0.5-1.6-0.9-2.3
		c-0.4-0.7-1-1.4-1.6-1.9c0.2-0.4,0.7-1.3,1.4-1.7C200.7,198.6,201.8,199.4,202.2,200z"/>
</g>
</svg>
