<?xml version="1.0" encoding="utf-8"?>
<!-- Generator: Adobe Illustrator 24.3.0, SVG Export Plug-In . SVG Version: 6.00 Build 0)  -->
<svg version="1.1" id="Layer_1" xmlns="http://www.w3.org/2000/svg" xmlns:xlink="http://www.w3.org/1999/xlink" x="0px" y="0px"
	 viewBox="0 0 137 180" style="enable-background:new 0 0 137 180;" xml:space="preserve">
<style type="text/css">
	.st0{fill:#0C2248;}
</style>
<g>
	<path class="st0" d="M38.2,95.4L38,95.5l0.1,0.8l-0.8,0.2l0,0.3c0,0.3,0.1,0.6,0.2,0.9c-0.1,0.2-0.3,0.3-0.4,0.5
		c-0.5-1.1-1.2-1.4-1.6-1.4c-0.4,0-0.9,0.1-1.2,0.5c0-0.1,0-0.2,0-0.2c-0.2-0.3-0.1-0.8,0-1.1c0.5,0.2,1.2,0.4,1.8,0.3
		c0.5-0.1,0.9-0.4,1.2-0.8c0,0,0,0,0,0c0.2-0.3,0.3-0.7,0.3-1.1c0-0.1-0.1-0.2-0.2-0.3c-0.1,0-0.1,0-0.2,0c0.6-0.6,0.8-1.3,0.6-1.9
		c-0.1-0.1-0.2-0.2-0.3-0.3c0,0-0.1,0-0.1,0c0.3-0.4,0.4-0.9,0.3-1.3c0-0.4-0.2-0.7-0.6-0.9c-0.1-0.1-0.2-0.1-0.3-0.1
		c0,0-0.1,0-0.1,0c0.2-0.9-0.1-1.7-0.9-2.1c-0.1-0.1-0.3-0.1-0.4,0c-0.1,0.1-0.2,0.2-0.2,0.3c0-0.4-0.2-0.8-0.5-1.2
		c-0.3-0.4-0.8-0.7-1.3-0.7c-0.1,0-0.3,0.1-0.4,0.1c-0.1,0.1-0.1,0.3-0.1,0.4c0,0.1,0.1,0.8,0.1,1.6c0-0.3-0.1-0.5-0.1-0.8
		c-0.2-0.7-0.6-1.3-1.2-1.6c-0.5-0.3-1-0.3-1.6-0.2c-0.1,0-0.2,0.1-0.3,0.2c0,0.1-0.1,0.2,0,0.3c0.1,0.2,1.6,4,1.4,6.9
		c0,0.2,0,0.3,0.2,0.4c0.1,0.1,0.3,0.1,0.5,0.1c0.3-0.1,0.5,0,0.7,0.1c0.3,0.2,0.4,0.8,0.2,1.2c-0.1,0.2-0.4,0.6-0.8,0.9
		c-0.1,0-0.1,0.1-0.1,0.2l-0.1-0.1l-0.3-0.4L31,95.6c-0.6,0.2-1.2-0.3-1.5-0.8c-0.4-0.7-0.5-1.7,0-2.2c0.1-0.1,0.1-0.1,0.1-0.1
		l0.7,0.2L30.2,92c0-0.4-0.4-0.8-0.8-1c-0.3-0.1-0.6-0.1-0.9,0l0-0.1c0-0.1-0.2-0.5-0.3-0.7c-0.4-0.5-0.8-0.6-1-0.6
		c-0.3,0-0.7,0.2-0.9,0.5l0,0.1L26,89.4l-1.6,0.1l0.5,1.6l0.7-0.1l0,0.1c-0.2,0.3-0.3,0.7-0.2,1c0.1,0.1,0.2,0.3,0.4,0.5
		c-0.2,0-0.3,0-0.5,0c-0.1-0.3-0.3-0.7-0.5-0.9c-0.5-0.7-0.9-0.8-1.3-0.8c-0.4,0-0.8,0.3-1.1,0.7l-0.1,0.1l-0.2-0.6l-1.9,0.2
		l0.5,1.8l0.7,0l-0.1,0.1c-0.3,0.5-0.4,0.9-0.2,1.3c0.1,0.3,0.4,0.7,1.2,0.9c0.2,0.1,0.7,0.1,1,0.1c0.1,0.1,0.2,0.3,0.2,0.5
		c-0.2-0.1-0.4-0.2-0.6-0.2c-0.3,0-0.7,0.2-0.9,0.5l0,0.1l-0.2-0.7l-1.6,0.1l0.5,1.6l0.7-0.1l0,0.1c-0.2,0.3-0.3,0.7-0.2,1
		c0.1,0.2,0.3,0.6,1,0.7c0.2,0.1,0.7,0,0.8,0l0.1,0c0,0.3,0.1,0.6,0.3,0.8c0.3,0.3,0.8,0.5,1.2,0.4l0.7-0.2l-0.5-0.6
		c0,0,0-0.1,0-0.1c0.3-0.7,1.3-0.9,2.1-0.8c0.6,0.1,1.2,0.4,1.3,1.1l0.1,0.4l0.3,0.1l0.2,0.2c-0.1,0.1-0.1,0.1-0.1,0.2
		c-0.1,0.5-0.4,0.8-0.6,1c-0.4,0.4-0.9,0.5-1.2,0.3c-0.2-0.1-0.3-0.3-0.3-0.6c0-0.1-0.1-0.3-0.3-0.4c-0.1-0.1-0.3-0.1-0.6,0
		c-2.5,1.2-6.4,1.2-6.8,1.2c-0.1,0-0.2,0.1-0.3,0.1c-0.1,0.1-0.1,0.2-0.1,0.3c0,0.5,0.3,1,0.7,1.4c0.5,0.4,1.2,0.6,1.9,0.5
		c0.2,0,0.5-0.1,0.8-0.2c-0.8,0.3-1.4,0.5-1.6,0.5c-0.1,0-0.3,0.1-0.3,0.2c-0.1,0.1-0.1,0.3,0,0.4c0.2,0.5,0.6,0.8,1.1,0.9
		c0.4,0.1,0.8,0.1,1.2,0c-0.1,0.1-0.2,0.2-0.2,0.3c0,0.1,0,0.3,0.1,0.4c0.6,0.6,1.5,0.6,2.3,0.1c0,0,0,0.1,0,0.1
		c0,0.1,0.1,0.2,0.2,0.3c0.3,0.2,0.7,0.3,1.1,0.2c0.4-0.1,0.7-0.4,1-0.8c0,0,0,0,0,0.1c0.1,0.1,0.2,0.2,0.4,0.2
		c0.7,0,1.3-0.5,1.6-1.2c0,0.1,0.1,0.1,0.1,0.1c0,0,0,0,0,0c0,0.1-0.2,0.6-0.2,1.1c0.1,0.5,0.6,0.9,0.6,0.9l0.1,0.1l0.1,0
		c0.4,0.1,0.8,0.1,1.2-0.2c0.1-0.1,0.2-0.3,0.3-0.4c0,0,0,0,0,0c0.2-0.1,0.3-0.3,0.4-0.4c0.1,0,0.2,0,0.3-0.1
		c0.1,0.1,0.2,0.2,0.4,0.3c0.4,0.2,0.9,0.1,1.2-0.2c0.1-0.1,0.2-0.3,0.3-0.5l0.5-0.1c0.2,0,0.3-0.1,0.4-0.3c0,0,0,0,0,0
		c0.1-0.1,0.1-0.3,0.1-0.5c0-0.2-0.1-0.3-0.3-0.4c-0.1-0.1-0.3-0.1-0.4-0.1c0,0-0.1,0-0.3,0.1c0.1-0.4,0.3-0.9,0.5-1.3
		c0.1-0.1,0.1-0.3,0.1-0.5c-0.1-0.2-0.2-0.3-0.4-0.3c-0.2,0-0.3-0.2-0.3-0.3c0-0.1,0.1-0.3,0.3-0.4c0.3-0.1,0.7-0.1,1.3,0l0.1,0
		c-0.7,1.4-0.6,2.8,0.2,3.3c0.7,0.5,3.7-1.8,3.7-1.8s1-3.6,0.3-4.1c-0.8-0.5-2.1-0.1-3.1,1l-0.1-0.1c-0.3-0.4-0.5-0.8-0.5-1.2
		c0-0.2,0.1-0.4,0.2-0.4c0.1,0,0.3,0,0.4,0.2c0.1,0.2,0.3,0.2,0.4,0.2c0.2,0,0.3-0.1,0.4-0.2c0.4-0.6,1.1-1.2,1.4-1.2
		c0.6,0,1.2-0.3,1.5-0.9c0.4-0.7,0.2-1.5-0.3-2C39.5,95.2,38.8,95.1,38.2,95.4z M26.3,96.3c-0.1-0.5-0.3-0.9-0.6-1.1l-0.6-0.3
		l-0.2,0.6c0,0.1-0.1,0.3-0.2,0.4c0-0.6-0.2-1-0.4-1.3l0.4-0.6c0.4,0.1,0.9,0.1,1.4-0.1c-0.1,0.1-0.2,0.2-0.3,0.3l-0.5,0.4l0.5,0.4
		c0.3,0.2,0.8,0.3,1.3,0.2c0.1,0.5,0.4,0.9,0.6,1.4C27.3,96.3,26.8,96.3,26.3,96.3z M32.3,105.2c-0.3,0.1-0.6,0.3-0.7,0.6
		c-0.2,0-0.4,0.1-0.5,0.1c-0.1-0.1-0.3-0.2-0.5-0.2c0,0,0,0,0,0c-0.1-0.1-0.3-0.2-0.4-0.2c0,0,0,0,0,0c0,0,0,0,0,0c0,0,0,0,0,0
		c0.3-0.4,0.4-0.9,0.3-1.4c-0.1-0.6-0.5-1.1-0.9-1.5c0.2-0.3,0.6-0.5,1-0.4c0.1,0,0.1,0,0.2,0c-0.2,0.4-0.2,0.9,0,1.3
		c0.2,0.4,0.7,0.9,1.9,1C32.7,104.7,32.5,105,32.3,105.2z"/>
	<path class="st0" d="M112.3,91.7c-0.1,0.2-0.3,0.6-0.5,0.9c-0.2,0-0.3,0.1-0.5,0c0.2-0.1,0.3-0.3,0.4-0.5c0.1-0.3,0.1-0.7-0.2-1
		l0-0.1l0.7,0.1l0.5-1.6l-1.6-0.1l-0.2,0.7l0-0.1c-0.2-0.3-0.5-0.5-0.9-0.5c-0.3,0-0.7,0.1-1,0.6c-0.1,0.2-0.3,0.6-0.3,0.7l0,0.1
		c-0.3-0.1-0.6-0.2-0.9,0c-0.3,0.1-0.7,0.6-0.8,1l-0.1,0.7l0.7-0.2c0,0,0,0,0.1,0.1c0.5,0.6,0.4,1.6,0,2.2c-0.3,0.5-0.9,1-1.5,0.8
		l-0.3-0.1l-0.3,0.4l-0.1,0.1c0-0.1-0.1-0.1-0.1-0.2c-0.4-0.3-0.6-0.7-0.8-0.9c-0.2-0.5-0.1-1,0.2-1.2c0.2-0.1,0.4-0.2,0.7-0.1
		c0.1,0,0.4,0,0.5-0.1c0.1-0.1,0.2-0.3,0.2-0.4c-0.2-2.9,1.3-6.7,1.4-6.9c0-0.1,0-0.2,0-0.3c0-0.1-0.2-0.2-0.3-0.2
		c-0.5-0.2-1.1-0.1-1.6,0.2c-0.6,0.3-1,0.9-1.2,1.6c-0.1,0.2-0.1,0.5-0.1,0.8c0-0.9,0.1-1.5,0.1-1.6c0-0.1,0-0.3-0.1-0.4
		c-0.1-0.1-0.2-0.2-0.4-0.1c-0.5,0-1,0.3-1.3,0.7c-0.3,0.3-0.4,0.7-0.5,1.2c0-0.1-0.1-0.2-0.2-0.3c-0.1-0.1-0.3-0.1-0.4,0
		c-0.8,0.4-1.1,1.2-0.9,2.1c0,0-0.1,0-0.1,0c-0.1,0-0.2,0-0.3,0.1c-0.3,0.2-0.5,0.6-0.6,0.9c0,0.4,0.1,0.8,0.3,1.3c0,0-0.1,0-0.1,0
		c-0.1,0-0.3,0.1-0.3,0.3c-0.3,0.6-0.1,1.4,0.6,1.9c-0.1,0-0.1,0-0.2,0c-0.1,0.1-0.2,0.2-0.2,0.3c-0.1,0.3,0,0.7,0.3,1.1
		c0,0,0,0,0,0c0.3,0.4,0.7,0.7,1.2,0.8c0.6,0.1,1.2-0.1,1.8-0.3c0.1,0.3,0.2,0.8,0,1.1c0,0.1,0,0.1,0,0.2c-0.4-0.3-0.8-0.5-1.2-0.5
		c-0.4,0-1.1,0.3-1.6,1.4c-0.1-0.1-0.3-0.3-0.4-0.5c0.2-0.3,0.2-0.6,0.2-0.9l0-0.3L99,96.3l0.1-0.8l-0.2-0.1
		c-0.6-0.3-1.2-0.2-1.7,0.2c-0.5,0.5-0.7,1.3-0.3,2c0.3,0.6,0.9,0.9,1.5,0.9c0.3,0.1,1.1,0.7,1.4,1.2c0.1,0.1,0.3,0.2,0.4,0.2
		c0.2,0,0.3-0.1,0.4-0.2c0.1-0.2,0.3-0.3,0.4-0.2c0.1,0,0.2,0.2,0.2,0.4c0,0.3-0.2,0.7-0.5,1.2l-0.1,0.1c-1.1-1.1-2.3-1.6-3.1-1
		c-0.7,0.5,0.3,4.1,0.3,4.1s3,2.3,3.7,1.8c0.8-0.5,0.8-1.9,0.2-3.3l0.1,0c0.5-0.1,1-0.1,1.3,0c0.2,0.1,0.3,0.2,0.3,0.4
		c0,0.1-0.1,0.2-0.3,0.3c-0.2,0-0.3,0.2-0.4,0.3c-0.1,0.2,0,0.3,0.1,0.5c0.2,0.4,0.5,0.8,0.5,1.3c-0.1,0-0.2-0.1-0.3-0.1
		c-0.1,0-0.3,0-0.4,0.1c-0.1,0.1-0.2,0.2-0.3,0.4c0,0.2,0,0.3,0.1,0.5c0,0,0,0,0,0c0.1,0.1,0.2,0.2,0.4,0.3l0.5,0.1
		c0.1,0.2,0.2,0.4,0.3,0.5c0.3,0.3,0.8,0.4,1.2,0.2c0.1-0.1,0.3-0.2,0.4-0.3c0.1,0,0.2,0,0.3,0.1c0.1,0.2,0.2,0.3,0.4,0.4
		c0,0,0,0,0,0c0.1,0.1,0.2,0.3,0.3,0.4c0.3,0.3,0.7,0.3,1.2,0.2l0.1,0l0.1-0.1c0,0,0.5-0.5,0.6-0.9c0.1-0.5-0.1-1-0.2-1.1
		c0,0,0,0,0,0c0,0,0.1-0.1,0.1-0.1c0.3,0.8,0.9,1.2,1.6,1.2c0.1,0,0.3-0.1,0.4-0.2c0,0,0,0,0-0.1c0.3,0.4,0.7,0.7,1,0.8
		c0.4,0.1,0.7,0,1.1-0.2c0.1-0.1,0.2-0.2,0.2-0.3c0,0,0-0.1,0-0.1c0.7,0.5,1.6,0.5,2.3-0.1c0.1-0.1,0.1-0.2,0.1-0.4
		c0-0.1-0.1-0.3-0.2-0.3c0.4,0.1,0.8,0.1,1.2,0c0.5-0.2,0.9-0.5,1.1-0.9c0.1-0.1,0.1-0.3,0-0.4c-0.1-0.1-0.2-0.2-0.3-0.2
		c-0.2,0-0.8-0.2-1.6-0.5c0.3,0.1,0.6,0.1,0.8,0.2c0.7,0.1,1.4-0.1,1.9-0.5c0.4-0.4,0.7-0.9,0.7-1.4c0-0.1,0-0.3-0.1-0.3
		c-0.1-0.1-0.2-0.1-0.3-0.1c-0.4,0-4.3,0-6.8-1.2c-0.2-0.1-0.4-0.1-0.6,0c-0.1,0.1-0.2,0.3-0.3,0.4c0,0.3-0.1,0.5-0.3,0.6
		c-0.3,0.2-0.9,0.1-1.2-0.3c-0.2-0.2-0.4-0.6-0.6-1c0-0.1-0.1-0.1-0.1-0.2l0.2-0.2l0.3-0.1l0.1-0.4c0.1-0.6,0.7-1,1.3-1.1
		c0.8-0.1,1.7,0.1,2.1,0.8c0,0.1,0,0.1,0,0.1l-0.5,0.6l0.7,0.2c0.4,0.1,0.9-0.1,1.2-0.4c0.3-0.3,0.3-0.5,0.3-0.8l0.1,0
		c0.1,0,0.6,0,0.8,0c0.6-0.2,0.9-0.5,1-0.7c0.1-0.3,0.1-0.7-0.2-1l0-0.1l0.7,0.1l0.5-1.6l-1.6-0.1l-0.2,0.7l0-0.1
		c-0.2-0.3-0.5-0.5-0.9-0.5c-0.2,0-0.3,0-0.6,0.2c0-0.2,0.1-0.3,0.2-0.5c0.3,0,0.8,0,1-0.1c0.8-0.2,1.1-0.6,1.2-0.9
		c0.2-0.4,0.1-0.9-0.2-1.3l-0.1-0.1l0.7,0l0.5-1.8l-1.9-0.2l-0.2,0.6l-0.1-0.1c-0.3-0.5-0.7-0.7-1.1-0.7
		C113.2,90.9,112.7,91,112.3,91.7z M106.5,104.1c-0.1,0.5,0,1,0.3,1.4c0,0,0,0,0,0c0,0,0,0,0,0c0,0,0,0,0,0c-0.2,0-0.3,0.1-0.4,0.2
		c0,0,0,0,0,0c-0.2,0-0.4,0.1-0.5,0.2c-0.1,0-0.3-0.1-0.5-0.1c-0.1-0.3-0.4-0.5-0.7-0.6c-0.2-0.2-0.3-0.6-0.4-0.8
		c1.2-0.1,1.7-0.6,1.9-1c0.2-0.4,0.2-0.9,0-1.3c0.1,0,0.1,0,0.2,0c0.4-0.1,0.8,0.2,1,0.4C107.1,103,106.7,103.5,106.5,104.1z
		 M112.3,95.9c-0.1-0.1-0.1-0.3-0.2-0.4l-0.2-0.6l-0.6,0.3c-0.3,0.2-0.6,0.7-0.6,1.1c-0.5,0-1,0-1.5,0.1c0.3-0.4,0.5-0.9,0.6-1.4
		c0.5,0.1,1,0.1,1.3-0.2l0.5-0.4l-0.5-0.4c-0.1-0.1-0.2-0.2-0.3-0.3c0.5,0.2,1.1,0.2,1.4,0.1l0.4,0.6
		C112.5,94.8,112.3,95.3,112.3,95.9z"/>
	<path class="st0" d="M0,0v139.6c0,13.4,10.9,24.3,24.3,24.3H41c16.9,0,26.1,7.2,26.1,16.1H70c0-8.9,9.2-16.1,26.1-16.1h16.7
		c13.4,0,24.3-10.9,24.3-24.3V0H0z M68.1,152.1c-6.5,0-11.8-5.3-11.8-11.8c0-0.1,0-0.3,0-0.4c1.3,2.2,3.7,3.7,6.5,3.7
		c4.2,0,7.6-3.4,7.6-7.6c0-3.3-2-6-4.9-7.1c0.8-0.2,1.7-0.3,2.6-0.3c6.5,0,11.8,5.3,11.8,11.8C79.8,146.8,74.6,152.1,68.1,152.1z
		 M119.4,152.1l-48.1-37.8l4.9-3.8l47,36.9L119.4,152.1z M124,72.9c-1.3,2.8-5,3.2-7,1l-3.1,2.5c7.2,14.3,5.3,14.3,12.9,29
		c-7.8,4.6-24.4,16.8-24.4,16.8c-7.5-13.6-5.8-14.1-12.6-26.9l-72.3,56.8l-3.7-4.7l49.7-39.1l-16.5-13c-6.8,12.8-5,13.3-12.6,26.9
		c0,0-16.6-12.2-24.4-16.8c7.6-14.7,5.7-14.8,12.9-29L20,73.9c-2,2.2-5.7,1.7-7-1L6.7,59.6l14.4,3c3,0.6,4.3,4.1,2.6,6.5l44.8,35.2
		l44.8-35.2c-1.7-2.5-0.3-5.9,2.6-6.5l14.4-3L124,72.9z M79.3,67.8v6h-7.8v6.1l5.1,1.4l-0.8,2.9L71.5,83v5.1h-6v-6.8l-5.1-1.4
		l0.8-2.9l4.3,1.2v-4.4h-7.8v-6h7.8v-8.1h6v8.1H79.3z M130.4,6.3v45.6H6.7V6.3H130.4z"/>
	<path class="st0" d="M10.4,27.3c0,0,0.3,0.2,0.8,0.3c-0.4,0.6-0.4,0.9-0.2,1.2c0.2,0.3,1.6,0.3,3.6-0.8c1.6-0.1,2.3-0.6,3.9-1.8
		c0.5-0.3,1-0.7,1.7-1.2c0.6-0.4,1.5-0.4,2,0.2c0.9,0.9,2.2,2.4,3.5,4c0.3,0.4,0.6,0.8,1,1.3c0.6,0.8,1.1,1.6,1.8,2.4
		c-1.6,1.4-3.8,3.2-6.3,5c-1.1,0.9-2.2,1.4-4.3,1.5c-0.8,0-1.8,0.9-2,1.8c-0.1,0.5,0.1,1,0.6,1.2c0.5,0.3,1.4,0.4,2.2,0.4
		c1.2,0,2.6-0.2,3.5-0.3c0.7-0.1,6.9-2.7,11.6-5.2c0.5,0.2,1,0.5,1.6,0.7c-1.6,1.3-3.7,3-6,4.8c-1.1,0.9-2.2,1.4-4.3,1.5
		c-0.8,0-1.8,0.9-2,1.8c-0.1,0.5,0.1,1,0.6,1.2c0.5,0.3,1.4,0.4,2.2,0.4c1.2,0,2.6-0.2,3.5-0.3c0.9-0.2,13.2-5.3,16.1-8.3
		c0.8-0.1,1.6-0.2,2.4-0.3c7.3-1.1,12.7-3,17.5-4.6c4.8-1.6,8.9-3.1,13.6-3.2c6.6-0.2,9.8,3.6,12.6,6.9c1,1.2,1.9,2.3,2.9,3.2
		c0.5,0.4,1.1,0.8,1.6,1l0.4,0.2c1,0.6,1.5,1.1,1.7,1.6c-0.1,0.1-0.2,0.2-0.4,0.3c-1.1,0.5-1.8,1.9-1.5,3c0.2,0.8,0.8,1.2,1.6,1.2
		c0,0,0,0,0,0c0.4,0,2.6,0,4-0.1c0.7,0,1.2-0.4,1.6-1c0.7-1.2,0.6-3.1,0.1-4.6c1.4-0.1,2.6,0,3.4,0.5c1,0.6,1.5,1.1,1.7,1.6
		c-0.1,0.1-0.2,0.2-0.4,0.3c-1.1,0.5-1.8,1.9-1.5,3c0.2,0.8,0.8,1.2,1.6,1.2c0,0,0,0,0,0c0.4,0,2.6,0,4-0.1c0.7,0,1.2-0.4,1.6-1
		c0.8-1.3,0.6-3.5,0-5c-0.9-2.2-2.8-5.1-4.5-6.1c-1.1-0.6-1.6-0.6-2.4-0.4l-0.3,0.1c-1.2,0.2-2-3.5-2.3-4.8
		c-0.2-0.7-0.5-1.6-0.9-2.6c1.2,0.7,2.9,1.6,5,2.6c3.4,1.6,7.9,2.9,11.8,2.9c1.5,0,2.9-0.2,4.1-0.6c1.4-0.5,2.4-1.4,2.9-2.6
		c1-2.4-0.5-5.4-0.6-5.8c-0.1-0.3-0.4-0.5-0.7-0.5c-0.3-0.1-0.6,0-0.8,0.2c0,0-2.4,1.7-8.5,1.5c-4.1-0.2-8.4-1.5-13.4-3.1
		c-3.7-1.2-7.9-2.5-12.8-3.6c0,0,0,0,0,0c-12.2-3.2-28-1-39.6,0.6c-3,0.4-5.7,0.8-7.9,1c-2.9,0.3-5.7-0.5-8-2.2
		c-1.6-1.2-2.9-2.2-4-3.2c-1.9-1.6-3.4-2.8-5-3.6c-0.2-0.5-0.4-1-0.6-1.5c-0.4-1.5-1.4-1.9-1.9-2.1c-0.8-0.2-1.6,0-2.2,0.6
		c-0.5,0.5-1,1.3-1.5,2c-0.6,0.1-1.1,0.2-1.8,0.4c-0.1-0.1-0.3-0.3-0.4-0.4c-1.1-1.1-2.1-1.1-2.6-1c-0.8,0.2-1.4,0.7-1.7,1.5
		c-0.4,1.1-0.5,2.8-0.4,4c-0.5,1.1-0.7,2.2-1,3.4c-0.2,1-0.4,2-0.8,3C10.5,24.5,10,26,9.9,26C9.8,26.5,10,27,10.4,27.3z M16.2,19
		c0.6-0.6,1.6-0.4,2.1-0.3c0.1,0.6,0.1,1.6-0.4,2.1c-0.6,0.6-1.6,0.4-2.1,0.3C15.8,20.8,15.7,19.6,16.2,19z"/>
</g>
</svg>
