<?xml version="1.0" encoding="utf-8"?>
<!-- Generator: Adobe Illustrator 24.3.0, SVG Export Plug-In . SVG Version: 6.00 Build 0)  -->
<svg version="1.1" id="Layer_1" xmlns="http://www.w3.org/2000/svg" xmlns:xlink="http://www.w3.org/1999/xlink" x="0px" y="0px"
	 viewBox="0 0 309.4 336.1" style="enable-background:new 0 0 309.4 336.1;" xml:space="preserve">
<style type="text/css">
	.st0{fill:#023F88;}
	.st1{fill-rule:evenodd;clip-rule:evenodd;fill:#D3A809;}
	.st2{fill-rule:evenodd;clip-rule:evenodd;fill:#C9252C;}
	.st3{fill-rule:evenodd;clip-rule:evenodd;fill:#FFFFFF;}
	.st4{stroke:#FFFFFF;stroke-width:3;stroke-miterlimit:10;}
	.st5{fill:#D3A809;}
	.st6{fill:#C9252C;}
</style>
<g>
	<g>
		<path class="st0" d="M215,75.8c-6.4,5.2-10.7,13.7-15.5,25.4c-1.3,3.1-2.2,4.7-4.2,4c-11.1-3.6-25.6-6.1-40.6-6.1
			c-15,0-29.5,2.6-40.6,6.1c-2,0.6-2.9-1-4.2-4C105,89.5,100.7,81,94.4,75.8c1.9,6.7-2.1,14.3-2.6,16.2c-3,12.1,8.5,18.9,22.2,18.9
			c1.1,0,80.2,0,81.2,0c13.8,0,25.2-6.9,22.2-18.9C217.1,90.1,213.1,82.5,215,75.8z"/>
		<path class="st0" d="M218.8,75.6c-1.9,3.9-0.2,9.4,1.4,13.4c2.9-0.1,7.7,0.3,17.2,2.9l5-21.6C223.6,68.1,219.8,73.4,218.8,75.6z"
			/>
		<path class="st0" d="M90.6,75.6c-1-2.2-4.8-7.4-23.5-5.4l5,21.6c9.5-2.6,14.3-3,17.2-2.9C90.8,85,92.5,79.5,90.6,75.6z"/>
	</g>
	<g>
		<path class="st0" d="M130.6,303.8c2.3,1.7,4.5,3.3,6.1,4.4c0.3-8.1,2.2-13.3,3.4-16c-9.4-6.2-28.3-11.1-43-7.8
			C106.1,286.2,118.4,294.8,130.6,303.8z"/>
		<path class="st0" d="M212.8,300.9c4.8-1.2,7.2-3.6,7.1-7.6c0-3.9-1.7-4.6-2.3-4.8c-4.9-2-16.5,4.3-24.8,11.7
			C200,301.6,207.3,302.2,212.8,300.9z"/>
		<path class="st0" d="M118.6,299.5c-8.6-5.9-18.5-11.9-24.5-11.9c-1,0-1.8,0.2-2.6,0.5c-1.7,0.8-2.7,2.6-3,5.6
			c-0.2,1.8,0.3,3.2,1.5,4.3C93.8,301.3,104.1,301.8,118.6,299.5z"/>
		<path class="st0" d="M256.9,103.3c-5.6-2.1-11.4-3.8-17.2-5.2l-7.2,30.4c6.3,0.6,14.8,2,23.7,4.2
			C255.6,122.4,255.8,112.7,256.9,103.3z"/>
		<path class="st0" d="M188.7,299.3c4.5-4.3,10-8.4,15.3-11.1c2.8-1.5,6.3-3,9.7-3.4c-14.8-3.9-34.3,0.9-44.1,7.3
			C172.3,294,180,297.1,188.7,299.3z"/>
		<path class="st0" d="M270.3,236c-1,7.3-2.4,14.4-4.4,21.6c4.7,3.9,8.8,7.6,11.3,11.9c-10.4,16.2-31,23.4-54,26.1c0,0,0,0,0-0.1
			c-0.6,3.4-3,7.1-9.6,8.7c-11.4,2.8-32.8-2.3-42.9-7.5c0.7,3,1.3,7.2,1.2,13.3c0,1-3.6,4.6-3.6,4.6c0.8-12.6-1.8-20.2-2.5-21.4
			c-0.1-0.1-0.2-0.3-0.3-0.4c-0.3-0.1-0.5-0.2-0.8-0.2c-6.7,0-17.2,0-20,0c-0.3,0-0.7,0.1-1,0.3c-1.2,2.2-3.8,8.6-3.5,21.1
			c0,0-3.2-1.3-9.3-5.7c-1.8-1.3-6.1-4.5-8.3-6.1c-12.6,2.3-28.7,3.9-34.9-1.8c-1.6-1.4-2.4-3.2-2.6-5.3c-22.7-2.7-42.7-9.7-53-25.7
			c2.6-4.4,6.7-8,11.3-11.9c-2-7.2-3.5-14.4-4.4-21.6c-10.1,8.8-17.7,18.9-11.5,43.8c6.7,26.7,31.8,35.7,61.5,37.4
			c6.4,12.6,25.7,7.6,39.7,3.7c5.5,5.5,10,15.2,10,15.2c5.7-2.8,10.1-7.4,13.4-11.8c4.3,3.6,11.6,8.2,23,11.3c0,0,0-8,2.4-16
			c14.4,4.5,33.5,9.6,40.4-2.3c30.7-1.4,57.1-10.1,64-37.5C288.1,255,280.4,244.8,270.3,236z"/>
		<path class="st0" d="M298.7,134.3c-4.4-11-18.4-21.1-35.1-28.3c-0.9,9-0.4,28.7-0.4,28.7c11.4,3.5,22.5,8.7,29.4,15.9
			c-8.3,9.9-27.5,18.2-36.6,24.2c-6.1,4.1-14.8,9.2-17.1,16.8c-2.4,7.9-2,14.6-1.7,23.8c0.1,4.4,0.9,9.4,3,13.7
			c5.2,10.7,12.7,17.7,19.7,23.6c1.9-7.3,3.2-14.6,3.9-22c-6.2-5-14.2-11.1-21.4-23.5c5.6-5.5,13.9-9.7,19.4-13.2
			c9.7-6.2,23.5-12.2,30.8-21.2c6-7.4,5.5-13.3,6.3-31.7C299.2,138.8,299.5,136.4,298.7,134.3z"/>
		<path class="st0" d="M53.2,132.8c8.9-2.3,17.4-3.6,23.7-4.2l-7.2-30.4c-5.7,1.3-11.5,3.1-17.2,5.2
			C53.6,112.7,53.8,122.4,53.2,132.8z"/>
		<path class="st0" d="M66.8,207.2c-7.2,12.4-15.2,18.6-21.4,23.5c0.8,7.4,2.1,14.7,3.9,22c7.1-5.9,14.5-13,19.7-23.6
			c2.1-4.2,2.9-9.3,3-13.7c0.2-9.1,0.6-15.9-1.7-23.8c-2.3-7.6-10.9-12.7-17.1-16.8c-9.2-6.1-28.4-14.4-36.6-24.2
			c6.9-7.3,18.1-12.4,29.4-15.9c0,0,0.5-19.7-0.4-28.7c-16.7,7.2-30.7,17.3-35.1,28.3c-0.8,2.1-0.5,4.5-0.4,6.7
			c0.8,18.4,0.3,24.4,6.3,31.7c7.3,9,21.1,15.1,30.8,21.2C52.9,197.5,61.3,201.7,66.8,207.2z"/>
	</g>
	<path class="st1" d="M155,85.8c14.5,0,28.2,2.4,40.6,6.8c3.8-5.7,12.4-20.4,12.4-35.2c0-15.9-21.4-24.6-33.2-25
		c0,0-20.2,36.8-20.2,36.9l-20.2-36.9c-11.8,0.4-33.2,9.1-33.2,25c0,15,8.8,29.9,12.6,35.4C126.4,88.3,140.3,85.8,155,85.8z"/>
	<polygon class="st1" points="167.5,17.4 154.7,0 141.9,17.4 154.7,46.4 	"/>
	<path class="st2" d="M223.2,108h-137v139.6c0,13.4,10.9,24.3,24.3,24.3h16.7c16.9,0,26.1,7.2,26.1,16.1l0,0h2.9l0,0
		c0-8.9,9.2-16.1,26.1-16.1H199c13.4,0,24.3-10.9,24.3-24.3V108H223.2z"/>
	<rect x="92.8" y="114.3" class="st3" width="123.7" height="45.6"/>
	<path class="st4" d="M100.4,290"/>
	<g>
		<path class="st5" d="M85.1,294.6c-2.1-0.6-4.1-1.2-6.1-2C67.8,286,68.1,277,68.7,275.9c1.6-3.2,7.7-1,9.3-5.2
			c0.9-2.5-0.1-3.8-1.1-4.5c-0.6-0.4-0.8-1.3-0.3-1.9c2-2.4,5.9-9-0.7-11c-0.6-0.2-0.8-1-0.6-1.6c1.1-3.5-0.5-8.2-4.3-8.4
			c-3.2-0.1-6.5,3.5-6.2,7c0,0.7-0.4,1.2-1,1.4c-6.3,2.1-5.3,6.8-4.2,10.2c0.3,0.8-0.1,1.6-0.9,1.8c-1.2,0.3-2.8,1.3-2.3,3.8
			c1.2,5.8,6.1,3.1,7.2,10.5c0.5,3.3,1.6,6,3.3,8.3c-9.3-6.4-15.7-15.6-19.3-27.3c-3.3-11-5.1-21.3-6-31.1c3-4.9,6.3-9.9,8.7-13.3
			c0.5,0,1.1,0,1.6-0.1c2.9-0.6,4.8-3.5,4.2-6.4s-3.5-4.8-6.4-4.2s-4.8,3.5-4.2,6.4c0.1,0.6,0.3,1.1,0.6,1.6c-1.3,2.4-3.1,5.4-5,8.5
			c-0.5-13,0.8-26.2,2.5-38.5c0,0,8.1-12.4,11.9-15.5c2.4-1.9,6.8,0.2,10.1-2c1.9-1.3,1.9-3,1.5-4.2c-0.2-0.7,0.1-1.5,0.8-1.7
			c2.7-0.6,8.8-3.2,5.2-8.8c-0.3-0.5-0.1-1.3,0.4-1.6c2.6-1.9,3.9-6.6,1.3-9.1c-2.2-2.1-6.4-1.5-8.1,1.4c-0.3,0.5-0.9,0.7-1.4,0.4
			c-5.5-2.4-7.3,1.8-8.3,5.2c-0.2,0.8-0.9,1.1-1.6,0.8c-1-0.5-2.3,1.2-3,3.6c-1.8,5.2,2.5,9.3-2.5,14.5c-1.2,1.3-3.5,3.7-4.7,4.9
			c0.1-0.8,0.2-1.5,0.3-2.3c3.1-21.4,6.1-41.8,2.9-67.3c2.2-4,4.5-8.1,6.6-11.5c1,0.1,2,0,3-0.5c2.7-1.3,3.9-4.5,2.7-7.3
			c-1.3-2.7-4.5-3.9-7.3-2.7s-3.9,4.5-2.7,7.3c0.1,0.2,0.3,0.5,0.4,0.7c-1.1,2.1-2.5,4.5-3.7,6.9c-0.6-3.6-1.3-7.3-2.2-11
			c-0.2-1.3-0.4-2.5-0.3-3.6c0.4-6.7,3.2-11.7,2.9-17.1c-0.2-3.2-2.4-3.8-3.9-3.8c-1,0-1.7-0.8-1.7-1.8c0.3-4.4-0.1-10.3-8.2-10.8
			c-0.8,0-1.5-0.6-1.6-1.3c-0.8-4.3-5.9-7.5-9.6-6.3c-4.4,1.4-4.8,7.5-2.4,11.2c0.4,0.7,0.4,1.7-0.2,2.1c-7.1,4.4-0.4,10.9,2.7,13.2
			c0.8,0.6,0.9,1.7,0.3,2.4c-1,1.2-1.8,3.1,0.1,5.7c2.6,3.6,10.2,2.4,14.6,7.9c1,1.3,1.3,3.8,2,5.8c0,0.1,0.1,0.1,0.1,0.1
			c1.6,7.1,2.6,13.9,3.2,20.5c-6.7-6.1-3.9-14-7.1-19.4c-1.5-2.5-3.5-2.1-4.7-1.4c-0.8,0.4-1.8,0.1-2.1-0.8
			c-1.3-3.2-4.5-8.9-11.1-5.4c-0.6,0.3-1.4,0.2-1.9-0.4C14,76.2,8.8,75.1,6,78.2c-2.7,3.2-0.8,8.1,2.7,10.1c0.6,0.4,0.9,1.1,0.7,1.8
			c-2.5,7.1,4.2,9.1,7.6,9.6c0.9,0.1,1.4,1,1.2,1.8c-0.3,1.4-0.2,3.3,2.4,4.6c4.5,2.2,9.3-3.7,19.9,6.7c1.3,1.2,2.3,2.2,3.3,3
			c0.6,17.7-1.6,34-3.9,49.8c-1.5-3.9-3.1-8-4.1-10.9c0.4-0.5,0.8-1,1.1-1.7c1.1-2.8-0.2-5.9-3-7s-5.9,0.2-7,3s0.2,5.9,3,7
			c0.5,0.2,1,0.3,1.4,0.4c1.9,4.1,5.2,12,7.4,17.5c-2.9,19.8-5.3,40.2-2.1,63.2c-1.7-3-4.6-6.6-5.4-10.6c-0.9-4.4,3.2-12.7-2.4-17.7
			c-3.3-2.9-1.2-17.4-11.6-15c-0.9,0.2-1.8-0.4-2.1-1.1c-1.7-4.4-7.6-8-12-5.3c-3.8,2.3-4.4,8.4-1,11.9c0.6,0.6,0.6,1.5,0.1,2.2
			c-5.3,6.9-0.2,11,4.1,13.6c1,0.6,1.2,1.7,0.5,2.5c-1.1,1.2-2.1,3.4,0.7,5.6c4.9,3.9,12.1,2.9,17.4,6.6c5.6,4,7.3,11.8,13.2,16
			c1,4.9,2.2,9.9,3.8,15.1c6.2,20.8,21.2,34.5,43.6,40.1C85.2,298.1,85.1,295.8,85.1,294.6z"/>
	</g>
	<path class="st5" d="M303.1,214.9c4.3-2.6,9.4-6.7,4.1-13.6c-0.5-0.7-0.5-1.5,0.1-2.2c3.4-3.4,2.7-9.6-1-11.9
		c-4.4-2.7-10.3,0.9-12,5.3c-0.3,0.8-1.2,1.3-2.1,1.1c-10.4-2.4-8.3,12.2-11.6,15c-5.6,5-1.5,13.3-2.4,17.7c-0.8,4-3.7,7.7-5.4,10.6
		c3.2-23,0.8-43.4-2.1-63.2c2.2-5.5,5.5-13.4,7.4-17.5c0.5-0.1,1-0.2,1.4-0.4c2.8-1.1,4.1-4.3,3-7c-1.1-2.8-4.3-4.1-7-3
		c-2.8,1.1-4.1,4.3-3,7c0.3,0.6,0.6,1.2,1.1,1.7c-1,2.9-2.6,7-4.1,10.9c-2.3-15.8-4.5-32-3.9-49.8c0.9-0.8,2-1.7,3.3-3
		c10.6-10.4,15.4-4.5,19.9-6.7c2.6-1.3,2.8-3.2,2.4-4.6c-0.2-0.9,0.3-1.7,1.2-1.8c3.5-0.5,10.2-2.5,7.6-9.6
		c-0.2-0.7,0.1-1.4,0.7-1.8c3.5-2,5.5-6.9,2.7-10.1c-2.7-3.2-8-2-10.4,1.2c-0.4,0.6-1.2,0.8-1.9,0.4c-6.6-3.5-9.9,2.2-11.1,5.4
		c-0.3,0.8-1.3,1.2-2.1,0.8c-1.2-0.6-3.2-1-4.7,1.4c-3.2,5.4-0.4,13.3-7.1,19.4c0.6-6.6,1.6-13.4,3.2-20.5l0.1-0.1
		c0.6-2,1-4.5,2-5.8c4.4-5.5,12-4.4,14.6-7.9c1.9-2.6,1.1-4.5,0.1-5.7c-0.6-0.7-0.5-1.8,0.3-2.4c3.1-2.2,9.8-8.7,2.7-13.2
		c-0.7-0.4-0.7-1.4-0.2-2.1c2.4-3.7,2-9.9-2.4-11.2c-3.8-1.2-8.8,2-9.6,6.3c-0.2,0.8-0.8,1.3-1.6,1.3c-8.1,0.5-8.5,6.3-8.2,10.8
		c0.1,1-0.7,1.8-1.7,1.8c-1.5,0-3.7,0.6-3.9,3.8c-0.3,5.4,2.5,10.4,2.9,17.1c0.1,1-0.1,2.3-0.3,3.6c-0.9,3.8-1.6,7.4-2.2,11
		c-1.3-2.3-2.6-4.7-3.7-6.9c0.1-0.2,0.3-0.5,0.4-0.7c1.3-2.7,0.1-6-2.7-7.3c-2.7-1.3-6-0.1-7.3,2.7c-1.3,2.7-0.1,6,2.7,7.3
		c1,0.5,2,0.6,3,0.5c2,3.4,4.3,7.5,6.6,11.5c-3.2,25.5-0.2,45.8,2.9,67.3c0.1,0.8,0.2,1.6,0.3,2.3c-1.2-1.2-3.5-3.7-4.7-4.9
		c-4.9-5.2-0.7-9.3-2.5-14.5c-0.8-2.3-2-4.1-3-3.6c-0.7,0.3-1.4,0-1.6-0.8c-0.9-3.3-2.7-7.5-8.3-5.2c-0.5,0.2-1.1,0.1-1.4-0.4
		c-1.7-2.9-5.9-3.6-8.1-1.4c-2.6,2.5-1.3,7.1,1.3,9.1c0.5,0.3,0.7,1.1,0.4,1.6c-3.6,5.7,2.5,8.2,5.2,8.8c0.7,0.2,1,0.9,0.8,1.7
		c-0.4,1.2-0.4,2.9,1.5,4.2c3.3,2.2,7.7,0,10.1,2c3.8,3.1,11.9,15.5,11.9,15.5c1.7,12.4,2.9,25.5,2.5,38.5c-1.9-3.2-3.7-6.2-5-8.5
		c0.3-0.5,0.5-1,0.6-1.6c0.6-2.9-1.2-5.8-4.2-6.4c-2.9-0.6-5.8,1.2-6.4,4.2c-0.6,2.9,1.2,5.8,4.2,6.4c0.5,0.1,1.1,0.1,1.6,0.1
		c2.4,3.4,5.7,8.5,8.7,13.3c-0.8,9.8-2.6,20-6,31.1c-3.5,11.7-10,20.8-19.3,27.3c1.7-2.3,2.8-5,3.3-8.3c1.1-7.4,6.1-4.7,7.2-10.5
		c0.5-2.5-1.1-3.5-2.3-3.8c-0.8-0.2-1.2-1-0.9-1.8c1.2-3.4,2.1-8.1-4.2-10.2c-0.6-0.2-1-0.8-1-1.4c0.3-3.6-3-7.2-6.2-7
		c-3.7,0.1-5.4,4.9-4.3,8.4c0.2,0.6,0,1.4-0.6,1.6c-6.6,2-2.7,8.6-0.7,11c0.5,0.6,0.4,1.5-0.3,1.9c-1,0.7-2.1,2.1-1.1,4.5
		c1.6,4.2,7.7,2,9.3,5.2c0.6,1.2,1,10.2-10.3,16.7c-2.8,1.6-5.1,2.4-7.2,3l0,0c0,1,0,2.9-0.4,5.5c22.4-5.7,38.4-19.6,44.6-40.4
		c1.6-5.2,2.8-10.2,3.8-15.1c5.9-4.3,7.6-12.1,13.2-16c5.3-3.7,12.5-2.7,17.4-6.6c2.8-2.2,1.8-4.3,0.7-5.6
		C301.9,216.7,302.1,215.5,303.1,214.9z"/>
	<g>
		<path class="st5" d="M154.3,236.6c-0.9,0-1.7,0.1-2.6,0.3c2.9,1.1,4.9,3.9,4.9,7.1c0,4.2-3.4,7.6-7.6,7.6c-2.8,0-5.2-1.5-6.5-3.7
			c0,0.1,0,0.3,0,0.4c0,6.5,5.3,11.8,11.8,11.8s11.8-5.3,11.8-11.8C166,241.8,160.8,236.6,154.3,236.6z"/>
		<polygon class="st5" points="151.7,186.2 147.4,185 146.6,187.9 151.7,189.3 151.7,196.1 157.7,196.1 157.7,191 162,192.2 
			162.8,189.3 157.7,187.9 157.7,181.8 165.5,181.8 165.5,175.8 157.7,175.8 157.7,167.7 151.7,167.7 151.7,175.8 143.9,175.8 
			143.9,181.8 151.7,181.8 		"/>
		<path class="st5" d="M112,202.9l-0.5-0.4l0.5-0.4c0.1-0.1,0.2-0.2,0.3-0.3c-0.5,0.2-1.1,0.2-1.4,0.1l-0.4,0.6
			c0.2,0.3,0.4,0.8,0.4,1.3c0.1-0.1,0.1-0.3,0.2-0.4l0.2-0.6l0.6,0.3c0.3,0.2,0.6,0.7,0.6,1.1c0.5,0,1,0,1.5,0.1
			c-0.3-0.4-0.5-0.9-0.6-1.4C112.8,203.2,112.3,203.1,112,202.9z"/>
		<polygon class="st5" points="157.4,222.3 205.6,260.1 209.3,255.4 162.3,218.4 		"/>
		<path class="st5" d="M117,211.4c-0.2-0.4-0.2-0.9,0-1.3c-0.1,0-0.1,0-0.2,0c-0.4-0.1-0.8,0.2-1,0.4c0.4,0.4,0.8,1,0.9,1.5
			s0,1-0.3,1.4l0,0l0,0l0,0c0.2,0,0.3,0.1,0.4,0.2l0,0c0.2,0,0.4,0.1,0.5,0.2c0.1,0,0.3-0.1,0.5-0.1c0.1-0.3,0.4-0.5,0.7-0.6
			c0.2-0.2,0.3-0.6,0.4-0.8C117.7,212.3,117.2,211.8,117,211.4z"/>
		<path class="st5" d="M203.2,181.9c2,2.2,5.7,1.7,7-1l6.3-13.3l-14.4,3c-3,0.6-4.3,4.1-2.6,6.5l-44.8,35.2l-44.8-35.2
			c1.7-2.5,0.3-5.9-2.6-6.5l-14.4-3l6.3,13.3c1.3,2.8,5,3.2,7,1l3.1,2.5c-7.2,14.3-5.3,14.3-12.9,29c7.8,4.6,24.4,16.8,24.4,16.8
			c7.5-13.6,5.8-14.1,12.6-26.9l16.5,13l-49.7,39.1l3.7,4.7l72.3-56.8c6.8,12.8,5,13.3,12.6,26.9c0,0,16.6-12.2,24.4-16.8
			c-7.6-14.7-5.7-14.8-12.9-29L203.2,181.9z M126.4,205.6c-0.3,0.6-0.9,0.9-1.5,0.9c-0.3,0.1-1.1,0.7-1.4,1.2
			c-0.1,0.1-0.3,0.2-0.4,0.2c-0.2,0-0.3-0.1-0.4-0.2c-0.1-0.2-0.3-0.3-0.4-0.2c-0.1,0-0.2,0.2-0.2,0.4c0,0.3,0.2,0.7,0.5,1.2
			l0.1,0.1c1.1-1.1,2.3-1.6,3.1-1c0.7,0.5-0.3,4.1-0.3,4.1s-3,2.3-3.7,1.8c-0.8-0.5-0.8-1.9-0.2-3.3h-0.1c-0.5-0.1-1-0.1-1.3,0
			c-0.2,0.1-0.3,0.2-0.3,0.4c0,0.1,0.1,0.2,0.3,0.3c0.2,0,0.3,0.2,0.4,0.3c0.1,0.2,0,0.3-0.1,0.5c-0.2,0.4-0.5,0.8-0.5,1.3
			c0.1,0,0.2-0.1,0.3-0.1c0.1,0,0.3,0,0.4,0.1s0.2,0.2,0.3,0.4c0,0.2,0,0.3-0.1,0.5l0,0c-0.1,0.1-0.2,0.2-0.4,0.3l-0.5,0.1
			c-0.1,0.2-0.2,0.4-0.3,0.5c-0.3,0.3-0.8,0.4-1.2,0.2c-0.1-0.1-0.3-0.2-0.4-0.3c-0.1,0-0.2,0-0.3,0.1c-0.1,0.2-0.2,0.3-0.4,0.4l0,0
			c-0.1,0.1-0.2,0.3-0.3,0.4c-0.3,0.3-0.7,0.3-1.2,0.2h-0.1l-0.1-0.1c0,0-0.5-0.5-0.6-0.9c-0.1-0.5,0.1-1,0.2-1.1l0,0l-0.1-0.1
			c-0.3,0.8-0.9,1.2-1.6,1.2c-0.1,0-0.3-0.1-0.4-0.2c0,0,0,0,0-0.1c-0.3,0.4-0.7,0.7-1,0.8c-0.4,0.1-0.7,0-1.1-0.2
			c-0.1-0.1-0.2-0.2-0.2-0.3v-0.1c-0.7,0.5-1.6,0.5-2.3-0.1c-0.1-0.1-0.1-0.2-0.1-0.4c0-0.1,0.1-0.3,0.2-0.3c-0.4,0.1-0.8,0.1-1.2,0
			c-0.5-0.2-0.9-0.5-1.1-0.9c-0.1-0.1-0.1-0.3,0-0.4c0.1-0.1,0.2-0.2,0.3-0.2c0.2,0,0.8-0.2,1.6-0.5c-0.3,0.1-0.6,0.1-0.8,0.2
			c-0.7,0.1-1.4-0.1-1.9-0.5c-0.4-0.4-0.7-0.9-0.7-1.4c0-0.1,0-0.3,0.1-0.3c0.1-0.1,0.2-0.1,0.3-0.1c0.4,0,4.3,0,6.8-1.2
			c0.2-0.1,0.4-0.1,0.6,0c0.1,0.1,0.2,0.3,0.3,0.4c0,0.3,0.1,0.5,0.3,0.6c0.3,0.2,0.9,0.1,1.2-0.3c0.2-0.2,0.4-0.6,0.6-1
			c0-0.1,0.1-0.1,0.1-0.2l-0.2-0.2l-0.3-0.1l-0.1-0.4c-0.1-0.6-0.7-1-1.3-1.1c-0.8-0.1-1.7,0.1-2.1,0.8c0,0.1,0,0.1,0,0.1l0.5,0.6
			l-0.7,0.2c-0.4,0.1-0.9-0.1-1.2-0.4c-0.3-0.3-0.3-0.5-0.3-0.8h-0.1c-0.1,0-0.6,0-0.8,0c-0.6-0.2-0.9-0.5-1-0.7
			c-0.1-0.3-0.1-0.7,0.2-1v-0.1l-0.7,0.1l-0.5-1.6l1.6-0.1l0.2,0.7v-0.1c0.2-0.3,0.5-0.5,0.9-0.5c0.2,0,0.3,0,0.6,0.2
			c0-0.2-0.1-0.3-0.2-0.5c-0.3,0-0.8,0-1-0.1c-0.8-0.2-1.1-0.6-1.2-0.9c-0.2-0.4-0.1-0.9,0.2-1.3l0.1-0.1h-0.7l-0.5-1.8l1.9-0.2
			l0.2,0.6l0.1-0.1c0.3-0.5,0.7-0.7,1.1-0.7c0.3,0,0.8,0.1,1.3,0.8c0.1,0.2,0.3,0.6,0.5,0.9c0.2,0,0.3,0.1,0.5,0
			c-0.2-0.1-0.3-0.3-0.4-0.5c-0.1-0.3-0.1-0.7,0.2-1v-0.1l-0.7,0.1l-0.5-1.6l1.6-0.1l0.2,0.7v-0.1c0.2-0.3,0.5-0.5,0.9-0.5
			c0.3,0,0.7,0.1,1,0.6c0.1,0.2,0.3,0.6,0.3,0.7v0.1c0.3-0.1,0.6-0.2,0.9,0c0.3,0.1,0.7,0.6,0.8,1l0.1,0.7l-0.7-0.2c0,0,0,0-0.1,0.1
			c-0.5,0.6-0.4,1.6,0,2.2c0.3,0.5,0.9,1,1.5,0.8l0.3-0.1l0.3,0.4l0.1,0.1c0-0.1,0.1-0.1,0.1-0.2c0.4-0.3,0.6-0.7,0.8-0.9
			c0.2-0.5,0.1-1-0.2-1.2c-0.2-0.1-0.4-0.2-0.7-0.1c-0.1,0-0.4,0-0.5-0.1s-0.2-0.3-0.2-0.4c0.2-2.9-1.3-6.7-1.4-6.9
			c0-0.1,0-0.2,0-0.3s0.2-0.2,0.3-0.2c0.5-0.2,1.1-0.1,1.6,0.2c0.6,0.3,1,0.9,1.2,1.6c0.1,0.2,0.1,0.5,0.1,0.8
			c0-0.9-0.1-1.5-0.1-1.6s0-0.3,0.1-0.4c0.1-0.1,0.2-0.2,0.4-0.1c0.5,0,1,0.3,1.3,0.7c0.3,0.3,0.4,0.7,0.5,1.2
			c0-0.1,0.1-0.2,0.2-0.3s0.3-0.1,0.4,0c0.8,0.4,1.1,1.2,0.9,2.1h0.1c0.1,0,0.2,0,0.3,0.1c0.3,0.2,0.5,0.6,0.6,0.9
			c0,0.4-0.1,0.8-0.3,1.3h0.1c0.1,0,0.3,0.1,0.3,0.3c0.3,0.6,0.1,1.4-0.6,1.9c0.1,0,0.1,0,0.2,0c0.1,0.1,0.2,0.2,0.2,0.3
			c0.1,0.3,0,0.7-0.3,1.1l0,0c-0.3,0.4-0.7,0.7-1.2,0.8c-0.6,0.1-1.2-0.1-1.8-0.3c-0.1,0.3-0.2,0.8,0,1.1c0,0.1,0,0.1,0,0.2
			c0.4-0.3,0.8-0.5,1.2-0.5c0.4,0,1.1,0.3,1.6,1.4c0.1-0.1,0.3-0.3,0.4-0.5c-0.2-0.3-0.2-0.6-0.2-0.9V205l0.8-0.2l-0.1-0.8l0.2-0.1
			c0.6-0.3,1.2-0.2,1.7,0.2C126.6,204.1,126.8,204.9,126.4,205.6z M200.9,199.6l0.1,0.1l0.2-0.6l1.9,0.2l-0.5,1.8h-0.7l0.1,0.1
			c0.3,0.5,0.4,0.9,0.2,1.3c-0.1,0.3-0.4,0.7-1.2,0.9c-0.2,0.1-0.7,0.1-1,0.1c-0.1,0.1-0.2,0.3-0.2,0.5c0.2-0.1,0.4-0.2,0.6-0.2
			c0.3,0,0.7,0.2,0.9,0.5v0.1l0.2-0.7l1.6,0.1l-0.5,1.6l-0.7-0.1v0.1c0.2,0.3,0.3,0.7,0.2,1c-0.1,0.2-0.3,0.6-1,0.7
			c-0.2,0.1-0.7,0-0.8,0h-0.1c0,0.3-0.1,0.6-0.3,0.8c-0.3,0.3-0.8,0.5-1.2,0.4l-0.7-0.2l0.5-0.6v-0.1c-0.3-0.7-1.3-0.9-2.1-0.8
			c-0.6,0.1-1.2,0.4-1.3,1.1l-0.1,0.4l-0.3,0.1l-0.2,0.2c0.1,0.1,0.1,0.1,0.1,0.2c0.1,0.5,0.4,0.8,0.6,1c0.4,0.4,0.9,0.5,1.2,0.3
			c0.2-0.1,0.3-0.3,0.3-0.6c0-0.1,0.1-0.3,0.3-0.4c0.1-0.1,0.3-0.1,0.6,0c2.5,1.2,6.4,1.2,6.8,1.2c0.1,0,0.2,0.1,0.3,0.1
			c0.1,0.1,0.1,0.2,0.1,0.3c0,0.5-0.3,1-0.7,1.4c-0.5,0.4-1.2,0.6-1.9,0.5c-0.2,0-0.5-0.1-0.8-0.2c0.8,0.3,1.4,0.5,1.6,0.5
			c0.1,0,0.3,0.1,0.3,0.2c0.1,0.1,0.1,0.3,0,0.4c-0.2,0.5-0.6,0.8-1.1,0.9c-0.4,0.1-0.8,0.1-1.2,0c0.1,0.1,0.2,0.2,0.2,0.3
			s0,0.3-0.1,0.4c-0.6,0.6-1.5,0.6-2.3,0.1v0.1c0,0.1-0.1,0.2-0.2,0.3c-0.3,0.2-0.7,0.3-1.1,0.2c-0.4-0.1-0.7-0.4-1-0.8
			c0,0,0,0,0,0.1c-0.1,0.1-0.2,0.2-0.4,0.2c-0.7,0-1.3-0.5-1.6-1.2c0,0.1-0.1,0.1-0.1,0.1l0,0c0,0.1,0.2,0.6,0.2,1.1
			c-0.1,0.5-0.6,0.9-0.6,0.9l-0.1,0.1h-0.1c-0.4,0.1-0.8,0.1-1.2-0.2c-0.1-0.1-0.2-0.3-0.3-0.4l0,0c-0.2-0.1-0.3-0.3-0.4-0.4
			c-0.1,0-0.2,0-0.3-0.1c-0.1,0.1-0.2,0.2-0.4,0.3c-0.4,0.2-0.9,0.1-1.2-0.2c-0.1-0.1-0.2-0.3-0.3-0.5l-0.5-0.1
			c-0.2,0-0.3-0.1-0.4-0.3l0,0c-0.1-0.1-0.1-0.3-0.1-0.5s0.1-0.3,0.3-0.4c0.1-0.1,0.3-0.1,0.4-0.1c0,0,0.1,0,0.3,0.1
			c-0.1-0.4-0.3-0.9-0.5-1.3c-0.1-0.1-0.1-0.3-0.1-0.5c0.1-0.2,0.2-0.3,0.4-0.3s0.3-0.2,0.3-0.3s-0.1-0.3-0.3-0.4
			c-0.3-0.1-0.7-0.1-1.3,0h-0.1c0.7,1.4,0.6,2.8-0.2,3.3c-0.7,0.5-3.7-1.8-3.7-1.8s-1-3.6-0.3-4.1c0.8-0.5,2.1-0.1,3.1,1l0.1-0.1
			c0.3-0.4,0.5-0.8,0.5-1.2c0-0.2-0.1-0.4-0.2-0.4c-0.1,0-0.3,0-0.4,0.2c-0.1,0.2-0.3,0.2-0.4,0.2c-0.2,0-0.3-0.1-0.4-0.2
			c-0.4-0.6-1.1-1.2-1.4-1.2c-0.6,0-1.2-0.3-1.5-0.9c-0.4-0.7-0.2-1.5,0.3-2c0.5-0.4,1.1-0.5,1.7-0.2l0.2,0.1l-0.1,0.8l0.8,0.2v0.3
			c0,0.3-0.1,0.6-0.2,0.9c0.1,0.2,0.3,0.3,0.4,0.5c0.5-1.1,1.2-1.4,1.6-1.4c0.4,0,0.9,0.1,1.2,0.5c0-0.1,0-0.2,0-0.2
			c0.2-0.3,0.1-0.8,0-1.1c-0.5,0.2-1.2,0.4-1.8,0.3c-0.5-0.1-0.9-0.4-1.2-0.8l0,0c-0.2-0.3-0.3-0.7-0.3-1.1c0-0.1,0.1-0.2,0.2-0.3
			c0.1,0,0.1,0,0.2,0c-0.6-0.6-0.8-1.3-0.6-1.9c0.1-0.1,0.2-0.2,0.3-0.3h0.1c-0.3-0.4-0.4-0.9-0.3-1.3c0-0.4,0.2-0.7,0.6-0.9
			c0.1-0.1,0.2-0.1,0.3-0.1h0.1c-0.2-0.9,0.1-1.7,0.9-2.1c0.1-0.1,0.3-0.1,0.4,0c0.1,0.1,0.2,0.2,0.2,0.3c0-0.4,0.2-0.8,0.5-1.2
			s0.8-0.7,1.3-0.7c0.1,0,0.3,0.1,0.4,0.1c0.1,0.1,0.1,0.3,0.1,0.4c0,0.1-0.1,0.8-0.1,1.6c0-0.3,0.1-0.5,0.1-0.8
			c0.2-0.7,0.6-1.3,1.2-1.6c0.5-0.3,1-0.3,1.6-0.2c0.1,0,0.2,0.1,0.3,0.2c0,0.1,0.1,0.2,0,0.3c-0.1,0.2-1.6,4-1.4,6.9
			c0,0.2,0,0.3-0.2,0.4c-0.1,0.1-0.3,0.1-0.5,0.1c-0.3-0.1-0.5,0-0.7,0.1c-0.3,0.2-0.4,0.8-0.2,1.2c0.1,0.2,0.4,0.6,0.8,0.9
			c0.1,0,0.1,0.1,0.1,0.2l0.1-0.1l0.3-0.4l0.3,0.1c0.6,0.2,1.2-0.3,1.5-0.8c0.4-0.7,0.5-1.7,0-2.2c-0.1-0.1-0.1-0.1-0.1-0.1
			l-0.7,0.2l0.1-0.7c0-0.4,0.4-0.8,0.8-1c0.3-0.1,0.6-0.1,0.9,0v-0.1c0-0.1,0.2-0.5,0.3-0.7c0.4-0.5,0.8-0.6,1-0.6
			c0.3,0,0.7,0.2,0.9,0.5v0.1l0.2-0.7l1.6,0.1l-0.5,1.6l-0.7-0.1v0.1c0.2,0.3,0.3,0.7,0.2,1c-0.1,0.1-0.2,0.3-0.4,0.5
			c0.2,0,0.3,0,0.5,0c0.1-0.3,0.3-0.7,0.5-0.9c0.5-0.7,0.9-0.8,1.3-0.8C200.1,198.9,200.5,199.1,200.9,199.6z"/>
		<path class="st5" d="M192.6,210.1c-0.1,0-0.1,0-0.2,0c0.2,0.4,0.2,0.9,0,1.3c-0.2,0.4-0.7,0.9-1.9,1c0.1,0.2,0.2,0.6,0.4,0.8
			c0.3,0.1,0.6,0.3,0.7,0.6c0.2,0,0.4,0.1,0.5,0.1c0.1-0.1,0.3-0.2,0.5-0.2l0,0c0.1-0.1,0.3-0.2,0.4-0.2l0,0l0,0l0,0
			c-0.3-0.4-0.4-0.9-0.3-1.4c0.1-0.6,0.5-1.1,0.9-1.5C193.4,210.3,193,210,192.6,210.1z"/>
		<path class="st5" d="M197,201.8c0.1,0.1,0.2,0.2,0.3,0.3l0.5,0.4l-0.5,0.4c-0.3,0.2-0.8,0.3-1.3,0.2c-0.1,0.5-0.4,0.9-0.6,1.4
			c0.5-0.1,1-0.1,1.5-0.1c0.1-0.5,0.3-0.9,0.6-1.1l0.6-0.3l0.2,0.6c0,0.1,0.1,0.3,0.2,0.4c0-0.6,0.2-1,0.4-1.3l-0.4-0.6
			C198.1,202,197.6,202,197,201.8z"/>
	</g>
	<g>
		<path class="st6" d="M101.7,134c-0.2-0.4-0.6-0.6-1.1-0.5l-1.8,0.3c-0.3,0.1-0.5,0.2-0.7,0.5c-1.2,2.1-1.2,2.6-0.8,3
			c0.3,0.3,2.1,0,4.2-2.1C101.9,134.9,102,134.4,101.7,134z"/>
		<path class="st0" d="M213,133.6c-0.1-0.3-0.4-0.5-0.7-0.5c-0.3-0.1-0.6,0-0.8,0.2c0,0-2.4,1.7-8.5,1.5c-4.1-0.2-8.4-1.5-13.4-3.1
			c-3.7-1.2-7.9-2.5-12.8-3.6l0,0c-12.2-3.2-28-1-39.6,0.6c-3,0.4-5.7,0.8-7.9,1c-2.9,0.3-5.7-0.5-8-2.2c-1.6-1.2-2.9-2.2-4-3.2
			c-1.9-1.6-3.4-2.8-5-3.6c-0.2-0.5-0.4-1-0.6-1.5c-0.4-1.5-1.4-1.9-1.9-2.1c-0.8-0.2-1.6,0-2.2,0.6c-0.5,0.5-1,1.3-1.5,2
			c-0.6,0.1-1.1,0.2-1.8,0.4c-0.1-0.1-0.3-0.3-0.4-0.4c-1.1-1.1-2.1-1.1-2.6-1c-0.8,0.2-1.4,0.7-1.7,1.5c-0.4,1.1-0.5,2.8-0.4,4
			c-0.5,1.1-0.7,2.2-1,3.4c-0.2,1-0.4,2-0.8,3c-0.8,1.9-1.3,3.3-1.3,3.4c-0.2,0.5,0,1,0.5,1.2c0.1,0,1.4,0.7,3.3,0.8
			c2.3,0.1,3-0.5,4.9-1.9c0.5-0.3,1-0.7,1.7-1.2c0.6-0.4,1.5-0.4,2,0.2c0.9,0.9,2.2,2.4,3.5,4c0.3,0.4,0.6,0.8,1,1.3
			c0.6,0.8,1.1,1.6,1.8,2.4c-1.6,1.4-3.8,3.2-6.3,5c-1.1,0.9-2.2,1.4-4.3,1.5c-0.8,0-1.8,0.9-2,1.8c-0.1,0.5,0.1,1,0.6,1.2
			c0.5,0.3,1.4,0.4,2.2,0.4c1.2,0,2.6-0.2,3.5-0.3c0.7-0.1,6.9-2.7,11.6-5.2c0.5,0.2,1,0.5,1.6,0.7c-1.6,1.3-3.7,3-6,4.8
			c-1.1,0.9-2.2,1.4-4.3,1.5c-0.8,0-1.8,0.9-2,1.8c-0.1,0.5,0.1,1,0.6,1.2c0.5,0.3,1.4,0.4,2.2,0.4c1.2,0,2.6-0.2,3.5-0.3
			c0.9-0.2,13.2-5.3,16.1-8.3c0.8-0.1,1.6-0.2,2.4-0.3c7.3-1.1,12.7-3,17.5-4.6s8.9-3.1,13.6-3.2c6.6-0.2,9.8,3.6,12.6,6.9
			c1,1.2,1.9,2.3,2.9,3.2c0.5,0.4,1.1,0.8,1.6,1l0.4,0.2c1,0.6,1.5,1.1,1.7,1.6c-0.1,0.1-0.2,0.2-0.4,0.3c-1.1,0.5-1.8,1.9-1.5,3
			c0.2,0.8,0.8,1.2,1.6,1.2l0,0c0.4,0,2.6,0,4-0.1c0.7,0,1.2-0.4,1.6-1c0.7-1.2,0.6-3.1,0.1-4.6c1.4-0.1,2.6,0,3.4,0.5
			c1,0.6,1.5,1.1,1.7,1.6c-0.1,0.1-0.2,0.2-0.4,0.3c-1.1,0.5-1.8,1.9-1.5,3c0.2,0.8,0.8,1.2,1.6,1.2l0,0c0.4,0,2.6,0,4-0.1
			c0.7,0,1.2-0.4,1.6-1c0.8-1.3,0.6-3.5,0-5c-0.9-2.2-2.8-5.1-4.5-6.1c-1.1-0.6-1.6-0.6-2.4-0.4l-0.3,0.1c-1.2,0.2-2-3.5-2.3-4.8
			c-0.2-0.7-0.5-1.6-0.9-2.6c1.2,0.7,2.9,1.6,5,2.6c3.4,1.6,7.9,2.9,11.8,2.9c1.5,0,2.9-0.2,4.1-0.6c1.4-0.5,2.4-1.4,2.9-2.6
			C214.6,137,213.1,133.9,213,133.6z"/>
		<path class="st2" d="M104.1,128.8c-0.6,0.6-1.6,0.4-2.1,0.3c0-0.4-0.2-1.5,0.4-2.1s1.6-0.4,2.1-0.3
			C104.6,127.3,104.7,128.2,104.1,128.8z"/>
	</g>
	<g>
		<path class="st0" d="M58,178c-1.7-1.1-3.3-2.2-4.8-3.2c-7-4.6-19.7-10.5-29-17.3v22.5c7.2,5.3,16.1,9.7,23,14
			c3.1,2,7,4.1,10.8,6.5h0V178z"/>
		<path class="st0" d="M256,174.8c-2.4,1.6-5.3,3.4-7.9,5.5v22.3c4.7-3.3,9.9-6.1,13.7-8.6c6.2-4,14.1-7.9,20.9-12.5v-22.4
			C273.7,165.3,262.4,170.6,256,174.8z"/>
	</g>
</g>
</svg>
