<?xml version="1.0" encoding="utf-8"?>
<!-- Generator: Adobe Illustrator 24.3.0, SVG Export Plug-In . SVG Version: 6.00 Build 0)  -->
<svg version="1.1" id="Layer_1" xmlns="http://www.w3.org/2000/svg" xmlns:xlink="http://www.w3.org/1999/xlink" x="0px" y="0px"
	 viewBox="0 0 155.7 160.1" style="enable-background:new 0 0 155.7 160.1;" xml:space="preserve">
<style type="text/css">
	.st0{fill:#0F0F0F;}
	.st1{fill:#0F110F;}
	.st2{fill:#0F1310;}
	.st3{fill:#0F1510;}
	.st4{fill:#0E1711;}
	.st5{fill:#0E1911;}
	.st6{fill:#0E1B11;}
	.st7{fill:#0E1D12;}
	.st8{fill:#0E1F12;}
	.st9{fill:#0E2112;}
	.st10{fill:#0D2313;}
	.st11{fill:#0D2513;}
	.st12{fill:#0D2714;}
	.st13{fill:#0D2914;}
	.st14{fill:#0D2B14;}
	.st15{fill:#0D2D15;}
	.st16{fill:#0C2F15;}
	.st17{fill:#0C3115;}
	.st18{fill:#0C3316;}
	.st19{fill:#0C3516;}
	.st20{fill:#0C3717;}
	.st21{fill:#0C3917;}
	.st22{fill:#0B3B17;}
	.st23{fill:#0B3D18;}
	.st24{fill:#0B3F18;}
	.st25{fill:#0B4119;}
	.st26{fill:#0B4319;}
	.st27{fill:#0B4519;}
	.st28{fill:#0A471A;}
	.st29{fill:#0A491A;}
	.st30{fill:#0A4B1A;}
	.st31{fill:#0A4D1B;}
	.st32{fill:#0A4F1B;}
	.st33{fill:#0A511C;}
	.st34{fill:#09531C;}
	.st35{fill:#09551C;}
	.st36{fill:#09571D;}
	.st37{fill:#09591D;}
	.st38{fill:#095B1D;}
	.st39{fill:#095D1E;}
	.st40{fill:#085F1E;}
	.st41{fill:#08611F;}
	.st42{fill:#08631F;}
	.st43{fill:#08651F;}
	.st44{fill:#086720;}
	.st45{fill:#086920;}
	.st46{fill:#086B20;}
	.st47{fill:#076E21;}
	.st48{fill:#077021;}
	.st49{fill:#077222;}
	.st50{fill:#077422;}
	.st51{fill:#077622;}
	.st52{fill:#077823;}
	.st53{fill:#067A23;}
	.st54{fill:#067C24;}
	.st55{fill:#067E24;}
	.st56{fill:#068024;}
	.st57{fill:#068225;}
	.st58{fill:#068425;}
	.st59{fill:#058625;}
	.st60{fill:#058826;}
	.st61{fill:#058A26;}
	.st62{fill:#058C27;}
	.st63{fill:#058E27;}
	.st64{fill:#059027;}
	.st65{fill:#049228;}
	.st66{fill:#049428;}
	.st67{fill:#049628;}
	.st68{fill:#049829;}
	.st69{fill:#049A29;}
	.st70{fill:#049C2A;}
	.st71{fill:#039E2A;}
	.st72{fill:#03A02A;}
	.st73{fill:#03A22B;}
	.st74{fill:#03A42B;}
	.st75{fill:#03A62C;}
	.st76{fill:#03A82C;}
	.st77{fill:#02AA2C;}
	.st78{fill:#02AC2D;}
	.st79{fill:#02AE2D;}
	.st80{fill:#02B02D;}
	.st81{fill:#02B22E;}
	.st82{fill:#02B42E;}
	.st83{fill:#01B62F;}
	.st84{fill:#01B82F;}
	.st85{fill:#01BA2F;}
	.st86{fill:#01BC30;}
	.st87{fill:#01BE30;}
	.st88{fill:#01C030;}
	.st89{fill:#00C231;}
	.st90{fill:#00C431;}
	.st91{fill:#00C632;}
	.st92{fill:#00C832;}
	.st93{fill:#0F0F64;}
	.st94{fill:#0F0F65;}
	.st95{fill:#0F1066;}
	.st96{fill:#0F1067;}
	.st97{fill:#0E1168;}
	.st98{fill:#0E1169;}
	.st99{fill:#0E116B;}
	.st100{fill:#0E126C;}
	.st101{fill:#0E126D;}
	.st102{fill:#0E126E;}
	.st103{fill:#0D136F;}
	.st104{fill:#0D1370;}
	.st105{fill:#0D1471;}
	.st106{fill:#0D1472;}
	.st107{fill:#0D1473;}
	.st108{fill:#0D1574;}
	.st109{fill:#0C1575;}
	.st110{fill:#0C1576;}
	.st111{fill:#0C1678;}
	.st112{fill:#0C1679;}
	.st113{fill:#0C177A;}
	.st114{fill:#0C177B;}
	.st115{fill:#0B177C;}
	.st116{fill:#0B187D;}
	.st117{fill:#0B187E;}
	.st118{fill:#0B197F;}
	.st119{fill:#0B1980;}
	.st120{fill:#0B1981;}
	.st121{fill:#0A1A82;}
	.st122{fill:#0A1A84;}
	.st123{fill:#0A1A85;}
	.st124{fill:#0A1B86;}
	.st125{fill:#0A1B87;}
	.st126{fill:#0A1C88;}
	.st127{fill:#091C89;}
	.st128{fill:#091C8A;}
	.st129{fill:#091D8B;}
	.st130{fill:#091D8C;}
	.st131{fill:#091D8D;}
	.st132{fill:#091E8E;}
	.st133{fill:#081E8F;}
	.st134{fill:#081F91;}
	.st135{fill:#081F92;}
	.st136{fill:#081F93;}
	.st137{fill:#082094;}
	.st138{fill:#082095;}
	.st139{fill:#082096;}
	.st140{fill:#072197;}
	.st141{fill:#072198;}
	.st142{fill:#072299;}
	.st143{fill:#07229A;}
	.st144{fill:#07229B;}
	.st145{fill:#07239D;}
	.st146{fill:#06239E;}
	.st147{fill:#06249F;}
	.st148{fill:#0624A0;}
	.st149{fill:#0624A1;}
	.st150{fill:#0625A2;}
	.st151{fill:#0625A3;}
	.st152{fill:#0525A4;}
	.st153{fill:#0526A5;}
	.st154{fill:#0526A6;}
	.st155{fill:#0527A7;}
	.st156{fill:#0527A8;}
	.st157{fill:#0527AA;}
	.st158{fill:#0428AB;}
	.st159{fill:#0428AC;}
	.st160{fill:#0428AD;}
	.st161{fill:#0429AE;}
	.st162{fill:#0429AF;}
	.st163{fill:#042AB0;}
	.st164{fill:#032AB1;}
	.st165{fill:#032AB2;}
	.st166{fill:#032BB3;}
	.st167{fill:#032BB4;}
	.st168{fill:#032CB6;}
	.st169{fill:#032CB7;}
	.st170{fill:#022CB8;}
	.st171{fill:#022DB9;}
	.st172{fill:#022DBA;}
	.st173{fill:#022DBB;}
	.st174{fill:#022EBC;}
	.st175{fill:#022EBD;}
	.st176{fill:#012FBE;}
	.st177{fill:#012FBF;}
	.st178{fill:#012FC0;}
	.st179{fill:#0130C1;}
	.st180{fill:#0130C3;}
	.st181{fill:#0130C4;}
	.st182{fill:#0031C5;}
	.st183{fill:#0031C6;}
	.st184{fill:#0032C7;}
	.st185{fill:#0032C8;}
	.st186{fill:#00C634;}
	.st187{fill:#00C535;}
	.st188{fill:#00C337;}
	.st189{fill:#00C139;}
	.st190{fill:#00C03A;}
	.st191{fill:#00BE3C;}
	.st192{fill:#00BD3D;}
	.st193{fill:#00BB3F;}
	.st194{fill:#00B941;}
	.st195{fill:#00B842;}
	.st196{fill:#00B644;}
	.st197{fill:#00B446;}
	.st198{fill:#00B347;}
	.st199{fill:#00B149;}
	.st200{fill:#00B04A;}
	.st201{fill:#00AE4C;}
	.st202{fill:#00AC4E;}
	.st203{fill:#00AB4F;}
	.st204{fill:#00A951;}
	.st205{fill:#00A753;}
	.st206{fill:#00A654;}
	.st207{fill:#00A456;}
	.st208{fill:#00A258;}
	.st209{fill:#00A159;}
	.st210{fill:#009F5B;}
	.st211{fill:#009E5C;}
	.st212{fill:#009C5E;}
	.st213{fill:#009A60;}
	.st214{fill:#009961;}
	.st215{fill:#009763;}
	.st216{fill:#009565;}
	.st217{fill:#009466;}
	.st218{fill:#009268;}
	.st219{fill:#009169;}
	.st220{fill:#008F6B;}
	.st221{fill:#008D6D;}
	.st222{fill:#008C6E;}
	.st223{fill:#008A70;}
	.st224{fill:#008872;}
	.st225{fill:#008773;}
	.st226{fill:#008575;}
	.st227{fill:#008476;}
	.st228{fill:#008278;}
	.st229{fill:#00807A;}
	.st230{fill:#007F7B;}
	.st231{fill:#007D7D;}
	.st232{fill:#007B7F;}
	.st233{fill:#007A80;}
	.st234{fill:#007882;}
	.st235{fill:#007684;}
	.st236{fill:#007585;}
	.st237{fill:#007387;}
	.st238{fill:#007288;}
	.st239{fill:#00708A;}
	.st240{fill:#006E8C;}
	.st241{fill:#006D8D;}
	.st242{fill:#006B8F;}
	.st243{fill:#006991;}
	.st244{fill:#006892;}
	.st245{fill:#006694;}
	.st246{fill:#006595;}
	.st247{fill:#006397;}
	.st248{fill:#006199;}
	.st249{fill:#00609A;}
	.st250{fill:#005E9C;}
	.st251{fill:#005C9E;}
	.st252{fill:#005B9F;}
	.st253{fill:#0059A1;}
	.st254{fill:#0058A2;}
	.st255{fill:#0056A4;}
	.st256{fill:#0054A6;}
	.st257{fill:#0053A7;}
	.st258{fill:#0051A9;}
	.st259{fill:#004FAB;}
	.st260{fill:#004EAC;}
	.st261{fill:#004CAE;}
	.st262{fill:#004AB0;}
	.st263{fill:#0049B1;}
	.st264{fill:#0047B3;}
	.st265{fill:#0046B4;}
	.st266{fill:#0044B6;}
	.st267{fill:#0042B8;}
	.st268{fill:#0041B9;}
	.st269{fill:#003FBB;}
	.st270{fill:#003DBD;}
	.st271{fill:#003CBE;}
	.st272{fill:#003AC0;}
	.st273{fill:#0039C1;}
	.st274{fill:#0037C3;}
	.st275{fill:#0035C5;}
	.st276{fill:#0034C6;}
</style>
<g>
	<g>
		<circle class="st0" cx="77.9" cy="45.9" r="31.5"/>
		<circle class="st1" cx="78.4" cy="46.8" r="31.5"/>
		<circle class="st2" cx="78.9" cy="47.7" r="31.5"/>
		<circle class="st3" cx="79.4" cy="48.5" r="31.5"/>
		<circle class="st4" cx="79.9" cy="49.4" r="31.5"/>
		<circle class="st5" cx="80.4" cy="50.3" r="31.5"/>
		<circle class="st6" cx="80.9" cy="51.1" r="31.5"/>
		<circle class="st7" cx="81.4" cy="52" r="31.5"/>
		<circle class="st8" cx="81.9" cy="52.8" r="31.5"/>
		<circle class="st9" cx="82.4" cy="53.7" r="31.5"/>
		<circle class="st10" cx="82.9" cy="54.6" r="31.5"/>
		<circle class="st11" cx="83.4" cy="55.4" r="31.5"/>
		<circle class="st12" cx="83.9" cy="56.3" r="31.5"/>
		<circle class="st13" cx="84.3" cy="57.2" r="31.5"/>
		<circle class="st14" cx="84.8" cy="58" r="31.5"/>
		<circle class="st15" cx="85.3" cy="58.9" r="31.5"/>
		<circle class="st16" cx="85.8" cy="59.8" r="31.5"/>
		<circle class="st17" cx="86.3" cy="60.6" r="31.5"/>
		<circle class="st18" cx="86.8" cy="61.5" r="31.5"/>
		<circle class="st19" cx="87.3" cy="62.4" r="31.5"/>
		<circle class="st20" cx="87.8" cy="63.2" r="31.5"/>
		<circle class="st21" cx="88.3" cy="64.1" r="31.5"/>
		<circle class="st22" cx="88.8" cy="64.9" r="31.5"/>
		<circle class="st23" cx="89.3" cy="65.8" r="31.5"/>
		<circle class="st24" cx="89.8" cy="66.7" r="31.5"/>
		<circle class="st25" cx="90.3" cy="67.5" r="31.5"/>
		<circle class="st26" cx="90.8" cy="68.4" r="31.5"/>
		<circle class="st27" cx="91.3" cy="69.3" r="31.5"/>
		<circle class="st28" cx="91.8" cy="70.1" r="31.5"/>
		<circle class="st29" cx="92.3" cy="71" r="31.5"/>
		<circle class="st30" cx="92.8" cy="71.9" r="31.5"/>
		<circle class="st31" cx="93.3" cy="72.7" r="31.5"/>
		<circle class="st32" cx="93.8" cy="73.6" r="31.5"/>
		<circle class="st33" cx="94.3" cy="74.4" r="31.5"/>
		<circle class="st34" cx="94.8" cy="75.3" r="31.5"/>
		<circle class="st35" cx="95.3" cy="76.2" r="31.5"/>
		<circle class="st36" cx="95.8" cy="77" r="31.5"/>
		<circle class="st37" cx="96.3" cy="77.9" r="31.5"/>
		<circle class="st38" cx="96.8" cy="78.8" r="31.5"/>
		<circle class="st39" cx="97.3" cy="79.6" r="31.5"/>
		<circle class="st40" cx="97.8" cy="80.5" r="31.5"/>
		<circle class="st41" cx="98.3" cy="81.4" r="31.5"/>
		<circle class="st42" cx="98.8" cy="82.2" r="31.5"/>
		<circle class="st43" cx="99.3" cy="83.1" r="31.5"/>
		<circle class="st44" cx="99.8" cy="84" r="31.5"/>
		<circle class="st45" cx="100.3" cy="84.8" r="31.5"/>
		<circle class="st46" cx="100.8" cy="85.7" r="31.5"/>
		<circle class="st47" cx="101.3" cy="86.5" r="31.5"/>
		<circle class="st48" cx="101.8" cy="87.4" r="31.5"/>
		<circle class="st49" cx="102.3" cy="88.3" r="31.5"/>
		<circle class="st50" cx="102.8" cy="89.1" r="31.5"/>
		<circle class="st51" cx="103.3" cy="90" r="31.5"/>
		<circle class="st52" cx="103.8" cy="90.9" r="31.5"/>
		<circle class="st53" cx="104.3" cy="91.7" r="31.5"/>
		<circle class="st54" cx="104.8" cy="92.6" r="31.5"/>
		<circle class="st55" cx="105.3" cy="93.5" r="31.5"/>
		<circle class="st56" cx="105.8" cy="94.3" r="31.5"/>
		<circle class="st57" cx="106.3" cy="95.2" r="31.5"/>
		<circle class="st58" cx="106.8" cy="96" r="31.5"/>
		<circle class="st59" cx="107.3" cy="96.9" r="31.5"/>
		<circle class="st60" cx="107.8" cy="97.8" r="31.5"/>
		<circle class="st61" cx="108.3" cy="98.6" r="31.5"/>
		<circle class="st62" cx="108.8" cy="99.5" r="31.5"/>
		<circle class="st63" cx="109.3" cy="100.4" r="31.5"/>
		<circle class="st64" cx="109.8" cy="101.2" r="31.5"/>
		<circle class="st65" cx="110.3" cy="102.1" r="31.5"/>
		<circle class="st66" cx="110.8" cy="103" r="31.5"/>
		<circle class="st67" cx="111.3" cy="103.8" r="31.5"/>
		<circle class="st68" cx="111.8" cy="104.7" r="31.5"/>
		<circle class="st69" cx="112.3" cy="105.6" r="31.5"/>
		<circle class="st70" cx="112.8" cy="106.4" r="31.5"/>
		<circle class="st71" cx="113.3" cy="107.3" r="31.5"/>
		<circle class="st72" cx="113.8" cy="108.1" r="31.5"/>
		<circle class="st73" cx="114.3" cy="109" r="31.5"/>
		<circle class="st74" cx="114.8" cy="109.9" r="31.5"/>
		<circle class="st75" cx="115.3" cy="110.7" r="31.5"/>
		<circle class="st76" cx="115.8" cy="111.6" r="31.5"/>
		<circle class="st77" cx="116.3" cy="112.5" r="31.5"/>
		<circle class="st78" cx="116.8" cy="113.3" r="31.5"/>
		<circle class="st79" cx="117.3" cy="114.2" r="31.5"/>
		<circle class="st80" cx="117.8" cy="115.1" r="31.5"/>
		<circle class="st81" cx="118.3" cy="115.9" r="31.5"/>
		<circle class="st82" cx="118.8" cy="116.8" r="31.5"/>
		<circle class="st83" cx="119.3" cy="117.6" r="31.5"/>
		<circle class="st84" cx="119.8" cy="118.5" r="31.5"/>
		<circle class="st85" cx="120.3" cy="119.4" r="31.5"/>
		<circle class="st86" cx="120.8" cy="120.2" r="31.5"/>
		<circle class="st87" cx="121.3" cy="121.1" r="31.5"/>
		<circle class="st88" cx="121.8" cy="122" r="31.5"/>
		<circle class="st89" cx="122.3" cy="122.8" r="31.5"/>
		<circle class="st90" cx="122.8" cy="123.7" r="31.5"/>
		<circle class="st91" cx="123.3" cy="124.6" r="31.5"/>
		<circle class="st92" cx="123.8" cy="125.4" r="31.5"/>
	</g>
	<g>
		<circle class="st93" cx="77.9" cy="45.9" r="31.5"/>
		<circle class="st94" cx="77.4" cy="46.8" r="31.5"/>
		<circle class="st95" cx="76.9" cy="47.7" r="31.5"/>
		<circle class="st96" cx="76.4" cy="48.5" r="31.5"/>
		<circle class="st97" cx="75.9" cy="49.4" r="31.5"/>
		<circle class="st98" cx="75.4" cy="50.3" r="31.5"/>
		<circle class="st99" cx="74.9" cy="51.1" r="31.5"/>
		<circle class="st100" cx="74.4" cy="52" r="31.5"/>
		<circle class="st101" cx="73.9" cy="52.8" r="31.5"/>
		<circle class="st102" cx="73.4" cy="53.7" r="31.5"/>
		<circle class="st103" cx="72.9" cy="54.6" r="31.5"/>
		<circle class="st104" cx="72.4" cy="55.4" r="31.5"/>
		<circle class="st105" cx="71.9" cy="56.3" r="31.5"/>
		<circle class="st106" cx="71.4" cy="57.2" r="31.5"/>
		<circle class="st107" cx="70.9" cy="58" r="31.5"/>
		<circle class="st108" cx="70.4" cy="58.9" r="31.5"/>
		<circle class="st109" cx="69.9" cy="59.8" r="31.5"/>
		<circle class="st110" cx="69.4" cy="60.6" r="31.5"/>
		<circle class="st111" cx="68.9" cy="61.5" r="31.5"/>
		<circle class="st112" cx="68.4" cy="62.4" r="31.5"/>
		<circle class="st113" cx="67.9" cy="63.2" r="31.5"/>
		<circle class="st114" cx="67.4" cy="64.1" r="31.5"/>
		<circle class="st115" cx="66.9" cy="64.9" r="31.5"/>
		<circle class="st116" cx="66.4" cy="65.8" r="31.5"/>
		<circle class="st117" cx="65.9" cy="66.7" r="31.5"/>
		<circle class="st118" cx="65.4" cy="67.5" r="31.5"/>
		<circle class="st119" cx="64.9" cy="68.4" r="31.5"/>
		<circle class="st120" cx="64.4" cy="69.3" r="31.5"/>
		<circle class="st121" cx="63.9" cy="70.1" r="31.5"/>
		<circle class="st122" cx="63.4" cy="71" r="31.5"/>
		<circle class="st123" cx="62.9" cy="71.9" r="31.5"/>
		<circle class="st124" cx="62.4" cy="72.7" r="31.5"/>
		<circle class="st125" cx="61.9" cy="73.6" r="31.5"/>
		<circle class="st126" cx="61.4" cy="74.4" r="31.5"/>
		<circle class="st127" cx="60.9" cy="75.3" r="31.5"/>
		<circle class="st128" cx="60.4" cy="76.2" r="31.5"/>
		<circle class="st129" cx="59.9" cy="77" r="31.5"/>
		<circle class="st130" cx="59.4" cy="77.9" r="31.5"/>
		<circle class="st131" cx="58.9" cy="78.8" r="31.5"/>
		<circle class="st132" cx="58.4" cy="79.6" r="31.5"/>
		<circle class="st133" cx="57.9" cy="80.5" r="31.5"/>
		<circle class="st134" cx="57.4" cy="81.4" r="31.5"/>
		<circle class="st135" cx="56.9" cy="82.2" r="31.5"/>
		<circle class="st136" cx="56.4" cy="83.1" r="31.5"/>
		<circle class="st137" cx="55.9" cy="84" r="31.5"/>
		<circle class="st138" cx="55.4" cy="84.8" r="31.5"/>
		<circle class="st139" cx="54.9" cy="85.7" r="31.5"/>
		<circle class="st140" cx="54.4" cy="86.5" r="31.5"/>
		<circle class="st141" cx="53.9" cy="87.4" r="31.5"/>
		<circle class="st142" cx="53.4" cy="88.3" r="31.5"/>
		<circle class="st143" cx="52.9" cy="89.1" r="31.5"/>
		<circle class="st144" cx="52.4" cy="90" r="31.5"/>
		<circle class="st145" cx="51.9" cy="90.9" r="31.5"/>
		<circle class="st146" cx="51.4" cy="91.7" r="31.5"/>
		<circle class="st147" cx="50.9" cy="92.6" r="31.5"/>
		<circle class="st148" cx="50.4" cy="93.5" r="31.5"/>
		<circle class="st149" cx="49.9" cy="94.3" r="31.5"/>
		<circle class="st150" cx="49.4" cy="95.2" r="31.5"/>
		<circle class="st151" cx="48.9" cy="96" r="31.5"/>
		<circle class="st152" cx="48.4" cy="96.9" r="31.5"/>
		<circle class="st153" cx="47.9" cy="97.8" r="31.5"/>
		<circle class="st154" cx="47.4" cy="98.6" r="31.5"/>
		<circle class="st155" cx="46.9" cy="99.5" r="31.5"/>
		<circle class="st156" cx="46.4" cy="100.4" r="31.5"/>
		<circle class="st157" cx="45.9" cy="101.2" r="31.5"/>
		<circle class="st158" cx="45.4" cy="102.1" r="31.5"/>
		<circle class="st159" cx="44.9" cy="103" r="31.5"/>
		<circle class="st160" cx="44.4" cy="103.8" r="31.5"/>
		<circle class="st161" cx="43.9" cy="104.7" r="31.5"/>
		<circle class="st162" cx="43.4" cy="105.6" r="31.5"/>
		<circle class="st163" cx="42.9" cy="106.4" r="31.5"/>
		<circle class="st164" cx="42.4" cy="107.3" r="31.5"/>
		<circle class="st165" cx="41.9" cy="108.1" r="31.5"/>
		<circle class="st166" cx="41.5" cy="109" r="31.5"/>
		<circle class="st167" cx="41" cy="109.9" r="31.5"/>
		<circle class="st168" cx="40.5" cy="110.7" r="31.5"/>
		<circle class="st169" cx="40" cy="111.6" r="31.5"/>
		<circle class="st170" cx="39.5" cy="112.5" r="31.5"/>
		<circle class="st171" cx="39" cy="113.3" r="31.5"/>
		<circle class="st172" cx="38.5" cy="114.2" r="31.5"/>
		<circle class="st173" cx="38" cy="115.1" r="31.5"/>
		<circle class="st174" cx="37.5" cy="115.9" r="31.5"/>
		<circle class="st175" cx="37" cy="116.8" r="31.5"/>
		<circle class="st176" cx="36.5" cy="117.6" r="31.5"/>
		<circle class="st177" cx="36" cy="118.5" r="31.5"/>
		<circle class="st178" cx="35.5" cy="119.4" r="31.5"/>
		<circle class="st179" cx="35" cy="120.2" r="31.5"/>
		<circle class="st180" cx="34.5" cy="121.1" r="31.5"/>
		<circle class="st181" cx="34" cy="122" r="31.5"/>
		<circle class="st182" cx="33.5" cy="122.8" r="31.5"/>
		<circle class="st183" cx="33" cy="123.7" r="31.5"/>
		<circle class="st184" cx="32.5" cy="124.6" r="31.5"/>
		<circle class="st185" cx="32" cy="125.4" r="31.5"/>
	</g>
	<g>
		<circle class="st92" cx="123.8" cy="125.4" r="31.5"/>
		<circle class="st186" cx="122.8" cy="125.4" r="31.5"/>
		<circle class="st187" cx="121.8" cy="125.4" r="31.5"/>
		<circle class="st188" cx="120.8" cy="125.4" r="31.5"/>
		<circle class="st189" cx="119.8" cy="125.4" r="31.5"/>
		<circle class="st190" cx="118.8" cy="125.4" r="31.5"/>
		<circle class="st191" cx="117.8" cy="125.4" r="31.5"/>
		<circle class="st192" cx="116.8" cy="125.4" r="31.5"/>
		<circle class="st193" cx="115.8" cy="125.4" r="31.5"/>
		<circle class="st194" cx="114.8" cy="125.4" r="31.5"/>
		<circle class="st195" cx="113.8" cy="125.4" r="31.5"/>
		<circle class="st196" cx="112.8" cy="125.4" r="31.5"/>
		<circle class="st197" cx="111.8" cy="125.4" r="31.5"/>
		<circle class="st198" cx="110.8" cy="125.4" r="31.5"/>
		<circle class="st199" cx="109.8" cy="125.4" r="31.5"/>
		<circle class="st200" cx="108.8" cy="125.4" r="31.5"/>
		<circle class="st201" cx="107.8" cy="125.4" r="31.5"/>
		<circle class="st202" cx="106.8" cy="125.4" r="31.5"/>
		<circle class="st203" cx="105.8" cy="125.4" r="31.5"/>
		<circle class="st204" cx="104.8" cy="125.4" r="31.5"/>
		<circle class="st205" cx="103.8" cy="125.4" r="31.5"/>
		<circle class="st206" cx="102.8" cy="125.4" r="31.5"/>
		<circle class="st207" cx="101.8" cy="125.4" r="31.5"/>
		<circle class="st208" cx="100.8" cy="125.4" r="31.5"/>
		<circle class="st209" cx="99.8" cy="125.4" r="31.5"/>
		<circle class="st210" cx="98.8" cy="125.4" r="31.5"/>
		<circle class="st211" cx="97.8" cy="125.4" r="31.5"/>
		<circle class="st212" cx="96.8" cy="125.4" r="31.5"/>
		<circle class="st213" cx="95.8" cy="125.4" r="31.5"/>
		<circle class="st214" cx="94.8" cy="125.4" r="31.5"/>
		<circle class="st215" cx="93.8" cy="125.4" r="31.5"/>
		<circle class="st216" cx="92.8" cy="125.4" r="31.5"/>
		<circle class="st217" cx="91.8" cy="125.4" r="31.5"/>
		<circle class="st218" cx="90.8" cy="125.4" r="31.5"/>
		<circle class="st219" cx="89.8" cy="125.4" r="31.5"/>
		<circle class="st220" cx="88.8" cy="125.4" r="31.5"/>
		<circle class="st221" cx="87.8" cy="125.4" r="31.5"/>
		<circle class="st222" cx="86.8" cy="125.4" r="31.5"/>
		<circle class="st223" cx="85.8" cy="125.4" r="31.5"/>
		<circle class="st224" cx="84.8" cy="125.4" r="31.5"/>
		<circle class="st225" cx="83.9" cy="125.4" r="31.5"/>
		<circle class="st226" cx="82.9" cy="125.4" r="31.5"/>
		<circle class="st227" cx="81.9" cy="125.4" r="31.5"/>
		<circle class="st228" cx="80.9" cy="125.4" r="31.5"/>
		<circle class="st229" cx="79.9" cy="125.4" r="31.5"/>
		<circle class="st230" cx="78.9" cy="125.4" r="31.5"/>
		<circle class="st231" cx="77.9" cy="125.4" r="31.5"/>
		<circle class="st232" cx="76.9" cy="125.4" r="31.5"/>
		<circle class="st233" cx="75.9" cy="125.4" r="31.5"/>
		<circle class="st234" cx="74.9" cy="125.4" r="31.5"/>
		<circle class="st235" cx="73.9" cy="125.4" r="31.5"/>
		<circle class="st236" cx="72.9" cy="125.4" r="31.5"/>
		<circle class="st237" cx="71.9" cy="125.4" r="31.5"/>
		<circle class="st238" cx="70.9" cy="125.4" r="31.5"/>
		<circle class="st239" cx="69.9" cy="125.4" r="31.5"/>
		<circle class="st240" cx="68.9" cy="125.4" r="31.5"/>
		<circle class="st241" cx="67.9" cy="125.4" r="31.5"/>
		<circle class="st242" cx="66.9" cy="125.4" r="31.5"/>
		<circle class="st243" cx="65.9" cy="125.4" r="31.5"/>
		<circle class="st244" cx="64.9" cy="125.4" r="31.5"/>
		<circle class="st245" cx="63.9" cy="125.4" r="31.5"/>
		<circle class="st246" cx="62.9" cy="125.4" r="31.5"/>
		<circle class="st247" cx="61.9" cy="125.4" r="31.5"/>
		<circle class="st248" cx="60.9" cy="125.4" r="31.5"/>
		<circle class="st249" cx="59.9" cy="125.4" r="31.5"/>
		<circle class="st250" cx="58.9" cy="125.4" r="31.5"/>
		<circle class="st251" cx="57.9" cy="125.4" r="31.5"/>
		<circle class="st252" cx="56.9" cy="125.4" r="31.5"/>
		<circle class="st253" cx="55.9" cy="125.4" r="31.5"/>
		<circle class="st254" cx="54.9" cy="125.4" r="31.5"/>
		<circle class="st255" cx="53.9" cy="125.4" r="31.5"/>
		<circle class="st256" cx="52.9" cy="125.4" r="31.5"/>
		<circle class="st257" cx="51.9" cy="125.4" r="31.5"/>
		<circle class="st258" cx="50.9" cy="125.4" r="31.5"/>
		<circle class="st259" cx="49.9" cy="125.4" r="31.5"/>
		<circle class="st260" cx="48.9" cy="125.4" r="31.5"/>
		<circle class="st261" cx="47.9" cy="125.4" r="31.5"/>
		<circle class="st262" cx="46.9" cy="125.4" r="31.5"/>
		<circle class="st263" cx="45.9" cy="125.4" r="31.5"/>
		<circle class="st264" cx="44.9" cy="125.4" r="31.5"/>
		<circle class="st265" cx="43.9" cy="125.4" r="31.5"/>
		<circle class="st266" cx="42.9" cy="125.4" r="31.5"/>
		<circle class="st267" cx="41.9" cy="125.4" r="31.5"/>
		<circle class="st268" cx="41" cy="125.4" r="31.5"/>
		<circle class="st269" cx="40" cy="125.4" r="31.5"/>
		<circle class="st270" cx="39" cy="125.4" r="31.5"/>
		<circle class="st271" cx="38" cy="125.4" r="31.5"/>
		<circle class="st272" cx="37" cy="125.4" r="31.5"/>
		<circle class="st273" cx="36" cy="125.4" r="31.5"/>
		<circle class="st274" cx="35" cy="125.4" r="31.5"/>
		<circle class="st275" cx="34" cy="125.4" r="31.5"/>
		<circle class="st276" cx="33" cy="125.4" r="31.5"/>
		<circle class="st185" cx="32" cy="125.4" r="31.5"/>
	</g>
</g>
</svg>
