<?xml version="1.0" encoding="utf-8"?>
<!-- Generator: Adobe Illustrator 24.3.0, SVG Export Plug-In . SVG Version: 6.00 Build 0)  -->
<svg version="1.1" id="Layer_1" xmlns="http://www.w3.org/2000/svg" xmlns:xlink="http://www.w3.org/1999/xlink" x="0px" y="0px"
	 viewBox="0 0 137 180" style="enable-background:new 0 0 137 180;" xml:space="preserve">
<style type="text/css">
	.st0{fill-rule:evenodd;clip-rule:evenodd;fill:#0C2248;}
</style>
<path class="st0" d="M0.2,0.3v139.1c0,13.4,10.9,24.2,24.2,24.2H41c16.8,0,26,7.2,26,16h2.9c0-8.9,9.2-16,26-16h16.6
	c13.4,0,24.2-10.9,24.2-24.2V0.3h0.1H0.2z M68.1,151.8c-6.5,0-11.8-5.3-11.8-11.8c0-0.1,0-0.3,0-0.4c1.3,2.2,3.7,3.7,6.5,3.7
	c4.2,0,7.6-3.4,7.6-7.6c0-3.2-2-6-4.9-7.1c0.9-0.2,1.7-0.3,2.6-0.3c6.5,0,11.7,5.2,11.8,11.7C79.8,146.6,74.6,151.8,68.1,151.8z
	 M119.2,151.8l-48-37.7l4.9-3.9l46.8,36.9L119.2,151.8z M123.8,72.9c-1.3,2.7-5,3.2-7,1l-2.9,2.5c7.2,14.2,5.3,14.3,12.9,28.9
	c-7.8,4.6-24.3,16.7-24.3,16.7c-7.6-13.6-5.8-14.1-12.6-26.8l-72.1,56.6l-3.7-4.7l49.5-39l-16.4-13c-6.8,12.8-5.1,13.3-12.6,26.8
	c0,0-16.5-12.2-24.3-16.7c7.6-14.7,5.7-14.7,12.9-28.9l-3.1-2.5c-2,2.2-5.7,1.8-7-1L6.8,59.5l14.4,3c2.9,0.6,4.3,4,2.6,6.5
	l44.6,35.1L113,69c-1.7-2.4-0.4-5.9,2.6-6.5l14.4-3L123.8,72.9z M79.6,67.8v5.6h-8.2V80l5.1,1.4l-0.8,2.9L71.4,83v5.1h-6v-6.8
	L60.3,80l0.8-2.9l4.3,1.2v-4.8h-8.2v-5.6h8.2v-7.7h6v7.7H79.6z M130.1,52H6.8V6.6h123.3V52z M10.6,27.4c0,0,0.4,0.1,0.8,0.3
	c-0.5,1.1-0.5,1.5-0.2,1.8s1.6,0.1,3.3-1.3c1.8,0,2.5-0.7,4.2-1.9c0.5-0.3,1-0.7,1.7-1.2c0.6-0.4,1.5-0.4,2,0.2
	c0.9,0.9,2.2,2.4,3.5,4c0.3,0.4,0.6,0.8,1,1.3c0.6,0.8,1.1,1.6,1.8,2.4c-1.6,1.4-3.8,3.2-6.3,5c-1.1,0.9-2.2,1.4-4.3,1.5
	c-0.8,0-1.8,0.9-2,1.8c-0.1,0.5,0.1,1,0.6,1.2c0.5,0.3,1.4,0.4,2.2,0.4c1.2,0,2.6-0.2,3.5-0.3c0.7-0.1,6.9-2.7,11.6-5.2
	c0.5,0.2,1,0.5,1.6,0.7c-1.6,1.3-3.7,3-6,4.8c-1.1,0.9-2.2,1.4-4.3,1.5c-0.8,0-1.8,0.9-2,1.8c-0.1,0.5,0.1,1,0.6,1.2
	c0.5,0.3,1.4,0.4,2.2,0.4c1.2,0,2.6-0.2,3.5-0.3c0.9-0.2,13.2-5.3,16-8.3c0.8-0.1,1.6-0.2,2.4-0.3c7.3-1.1,12.7-3,17.4-4.6
	c4.8-1.6,8.9-3.1,13.6-3.2c6.6-0.2,9.8,3.6,12.6,6.9c1,1.2,1.9,2.3,2.9,3.2c0.5,0.4,1.1,0.8,1.6,1l0.4,0.2c1,0.6,1.5,1.1,1.7,1.6
	c-0.1,0.1-0.2,0.2-0.4,0.3c-1.1,0.5-1.8,1.9-1.5,3c0.2,0.8,0.8,1.2,1.6,1.2c0.4,0,2.6,0,4-0.1c0.7,0,1.2-0.4,1.6-1
	c0.7-1.2,0.6-3.1,0.1-4.6c1.4-0.1,2.6,0,3.4,0.5c1,0.6,1.5,1.1,1.7,1.6c-0.1,0.1-0.2,0.2-0.4,0.3c-1.1,0.5-1.8,1.9-1.5,3
	c0.2,0.8,0.8,1.2,1.6,1.2c0.4,0,2.6,0,4-0.1c0.7,0,1.2-0.4,1.6-1c0.8-1.3,0.6-3.5,0-5c-0.9-2.2-2.8-5.1-4.5-6.1
	c-1.1-0.6-1.6-0.6-2.4-0.4l-0.3,0.1c-1.2,0.2-2-3.5-2.3-4.8c-0.2-0.7-0.5-1.6-0.9-2.6c1.2,0.7,2.9,1.6,5,2.6
	c3.4,1.6,7.9,2.9,11.8,2.9c1.5,0,2.9-0.2,4.1-0.6c1.4-0.5,2.4-1.4,2.9-2.6c0.9-2.6-0.6-5.7-0.7-6c-0.1-0.3-0.4-0.5-0.7-0.5
	c-0.3-0.1-0.6,0-0.8,0.2c0,0-2.4,1.7-8.5,1.5c-4.1-0.2-8.4-1.5-13.4-3.1c-3.7-1.2-7.9-2.5-12.8-3.6c-12.2-3.2-27.9-1-39.5,0.6
	c-3,0.4-5.7,0.8-7.9,1c-2.9,0.3-5.7-0.5-8-2.2c-1.6-1.2-2.9-2.2-4-3.2c-1.9-1.6-3.4-2.8-5-3.6c-0.2-0.5-0.4-1-0.6-1.5
	c-0.4-1.5-1.4-1.9-1.9-2.1c-0.8-0.2-1.6,0-2.2,0.6c-0.5,0.5-1,1.3-1.5,2c-0.6,0.1-1.1,0.2-1.8,0.4c-0.1-0.1-0.3-0.3-0.4-0.4
	c-1.1-1.1-2.1-1.1-2.6-1c-0.8,0.2-1.4,0.7-1.7,1.5c-0.4,1.1-0.5,2.8-0.4,4c-0.5,1.1-0.7,2.2-1,3.4c-0.2,1-0.4,2-0.8,3
	c-0.8,1.9-1.3,3.3-1.3,3.4C9.9,26.7,10.1,27.2,10.6,27.4z M16.4,19.2c0.6-0.6,1.6-0.4,2.1-0.3c0.1,0.6,0.2,1.5-0.4,2.1
	s-1.6,0.4-2.1,0.3C16,20.9,15.8,19.8,16.4,19.2z M24.2,90.7c0.8,0.5,1.2,1.3,1.4,1.7c-0.6,0.5-1.1,1.1-1.6,1.9
	c-0.5,0.8-0.7,1.5-0.9,2.3c-0.4,0-1.4,0-2.2-0.4c-0.8-0.5-0.6-1.8-0.3-2.5c0,0,2.5,0.1,2.5,0.1c0,0-1.3-2.2-1.3-2.2
	C22.3,91,23.4,90.2,24.2,90.7z M20.9,91.6l1.1,1.5l-1.9-0.2l-0.5-1.2L20.9,91.6z M38.6,103c-4,2.2-3.3,2.6-5.1-1.2
	c-0.3,0.1-0.7,0.2-1.1,0.3c0.3,5.3-2,7.5-12.4,3.1l7.2-4.9c0,0,1.2,2.8,2,1.4c1.3-2.2-4.8-3.8-4.8-0.6c0,0-2.7-0.9-1.4-3.4
	c1.5-2.8,5.3-0.9,5.3-0.9s-3.5-2.4-1.7-5.1c1.6-2.4,3.7-0.4,3.7-0.4c-2.9,1.5,1.4,6.1,2.8,3.9c0.8-1.4-2.2-1.1-2.2-1.1l0.9-8.7
	c8.8,7.1,7.9,10.1,3.1,12.4c0.1,0.4,0.2,0.8,0.2,1.2C39.3,98.9,38.7,98.5,38.6,103z M104.6,102.1c-0.5-0.1-0.8-0.2-1.1-0.3
	c-1.7,3.8-1.1,3.4-5.1,1.2c0-4.5-0.7-4.2,3.5-3.9c0-0.3,0.1-0.7,0.2-1.2c-4.8-2.3-5.7-5.3,3.1-12.4l0.9,8.7c0,0-3.1-0.3-2.2,1.1
	c1.3,2.2,5.7-2.4,2.8-3.9c0,0,2.1-2,3.7,0.4c1.7,2.6-1.7,5.1-1.7,5.1s3.8-1.9,5.3,0.9c1.3,2.5-1.4,3.4-1.4,3.4
	c0-3.3-6.1-1.6-4.8,0.6c0.8,1.4,2-1.4,2-1.4l7.2,4.9C106.5,109.7,104.3,107.4,104.6,102.1z M117.4,91.7l-0.5,1.2l-1.9,0.2l1.1-1.5
	L117.4,91.7z M115.1,91.6c0,0-1.3,2.2-1.3,2.2c0,0,2.5-0.1,2.5-0.1c0.3,0.6,0.5,2-0.3,2.5c-0.8,0.5-1.8,0.5-2.2,0.4
	c-0.2-0.8-0.5-1.6-0.9-2.3c-0.4-0.7-1-1.4-1.6-1.9c0.2-0.4,0.7-1.3,1.4-1.7C113.6,90.2,114.7,91,115.1,91.6z"/>
</svg>
