<?xml version="1.0" encoding="utf-8"?>
<!-- Generator: Adobe Illustrator 24.3.0, SVG Export Plug-In . SVG Version: 6.00 Build 0)  -->
<svg version="1.1" id="Layer_1" xmlns="http://www.w3.org/2000/svg" xmlns:xlink="http://www.w3.org/1999/xlink" x="0px" y="0px"
	 viewBox="0 0 309.4 336.1" style="enable-background:new 0 0 309.4 336.1;" xml:space="preserve">
<style type="text/css">
	.st0{fill:#0C2248;}
</style>
<path class="st0" d="M256.9,103.3c-1,9.4-1.2,19.1-0.7,29.5c-8.9-2.3-17.4-3.6-23.7-4.2l7.2-30.4
	C245.4,99.5,251.2,101.2,256.9,103.3z M167.5,17.4L154.7,0l-12.8,17.4l12.8,28.9L167.5,17.4z M237.3,91.8l5-21.6
	c-18.7-2.1-22.5,3.2-23.5,5.4c-1.9,3.9-0.2,9.4,1.4,13.4C223,88.8,227.8,89.2,237.3,91.8z M126.1,203.6c0.5,0.5,0.7,1.3,0.3,2
	c-0.3,0.6-0.9,0.9-1.5,0.9c-0.3,0.1-1.1,0.7-1.4,1.2c-0.1,0.1-0.3,0.2-0.4,0.2c-0.2,0-0.3-0.1-0.4-0.2c-0.1-0.2-0.3-0.3-0.4-0.2
	c-0.1,0-0.2,0.2-0.2,0.4c0,0.3,0.2,0.7,0.5,1.2l0.1,0.1c1.1-1.1,2.3-1.6,3.1-1c0.7,0.5-0.3,4.1-0.3,4.1s-3,2.3-3.7,1.8
	c-0.8-0.5-0.8-1.9-0.2-3.3l-0.1,0c-0.5-0.1-1-0.1-1.3,0c-0.2,0.1-0.3,0.2-0.3,0.4c0,0.1,0.1,0.2,0.3,0.3c0.2,0,0.3,0.2,0.4,0.3
	c0.1,0.2,0,0.3-0.1,0.5c-0.2,0.4-0.5,0.8-0.5,1.3c0.1,0,0.2-0.1,0.3-0.1c0.1,0,0.3,0,0.4,0.1c0.1,0.1,0.2,0.2,0.3,0.4
	c0,0.2,0,0.3-0.1,0.5c0,0,0,0,0,0c-0.1,0.1-0.2,0.2-0.4,0.3l-0.5,0.1c-0.1,0.2-0.2,0.4-0.3,0.5c-0.3,0.3-0.8,0.4-1.2,0.2
	c-0.1-0.1-0.3-0.2-0.4-0.3c-0.1,0-0.2,0-0.3,0.1c-0.1,0.2-0.2,0.3-0.4,0.4c0,0,0,0,0,0c-0.1,0.1-0.2,0.3-0.3,0.4
	c-0.3,0.3-0.7,0.3-1.2,0.2l-0.1,0l-0.1-0.1c0,0-0.5-0.5-0.6-0.9c-0.1-0.5,0.1-1,0.2-1.1c0,0,0,0,0,0c0,0-0.1-0.1-0.1-0.1
	c-0.3,0.8-0.9,1.2-1.6,1.2c-0.1,0-0.3-0.1-0.4-0.2c0,0,0,0,0-0.1c-0.3,0.4-0.7,0.7-1,0.8c-0.4,0.1-0.7,0-1.1-0.2
	c-0.1-0.1-0.2-0.2-0.2-0.3c0,0,0-0.1,0-0.1c-0.7,0.5-1.6,0.5-2.3-0.1c-0.1-0.1-0.1-0.2-0.1-0.4c0-0.1,0.1-0.3,0.2-0.3
	c-0.4,0.1-0.8,0.1-1.2,0c-0.5-0.2-0.9-0.5-1.1-0.9c-0.1-0.1-0.1-0.3,0-0.4c0.1-0.1,0.2-0.2,0.3-0.2c0.2,0,0.8-0.2,1.6-0.5
	c-0.3,0.1-0.6,0.1-0.8,0.2c-0.7,0.1-1.4-0.1-1.9-0.5c-0.4-0.4-0.7-0.9-0.7-1.4c0-0.1,0-0.3,0.1-0.3c0.1-0.1,0.2-0.1,0.3-0.1
	c0.4,0,4.3,0,6.8-1.2c0.2-0.1,0.4-0.1,0.6,0c0.1,0.1,0.2,0.3,0.3,0.4c0,0.3,0.1,0.5,0.3,0.6c0.3,0.2,0.9,0.1,1.2-0.3
	c0.2-0.2,0.4-0.6,0.6-1c0-0.1,0.1-0.1,0.1-0.2l-0.2-0.2l-0.3-0.1l-0.1-0.4c-0.1-0.6-0.7-1-1.3-1.1c-0.8-0.1-1.7,0.1-2.1,0.8
	c0,0.1,0,0.1,0,0.1l0.5,0.6l-0.7,0.2c-0.4,0.1-0.9-0.1-1.2-0.4c-0.3-0.3-0.3-0.5-0.3-0.8l-0.1,0c-0.1,0-0.6,0-0.8,0
	c-0.6-0.2-0.9-0.5-1-0.7c-0.1-0.3-0.1-0.7,0.2-1l0-0.1l-0.7,0.1l-0.5-1.6l1.6-0.1l0.2,0.7l0-0.1c0.2-0.3,0.5-0.5,0.9-0.5
	c0.2,0,0.3,0,0.6,0.2c0-0.2-0.1-0.3-0.2-0.5c-0.3,0-0.8,0-1-0.1c-0.8-0.2-1.1-0.6-1.2-0.9c-0.2-0.4-0.1-0.9,0.2-1.3l0.1-0.1l-0.7,0
	l-0.5-1.8l1.9-0.2l0.2,0.6l0.1-0.1c0.3-0.5,0.7-0.7,1.1-0.7c0.3,0,0.8,0.1,1.3,0.8c0.1,0.2,0.3,0.6,0.5,0.9c0.2,0,0.3,0.1,0.5,0
	c-0.2-0.1-0.3-0.3-0.4-0.5c-0.1-0.3-0.1-0.7,0.2-1l0-0.1l-0.7,0.1l-0.5-1.6l1.6-0.1l0.2,0.7l0-0.1c0.2-0.3,0.5-0.5,0.9-0.5
	c0.3,0,0.7,0.1,1,0.6c0.1,0.2,0.3,0.6,0.3,0.7l0,0.1c0.3-0.1,0.6-0.2,0.9,0c0.3,0.1,0.7,0.6,0.8,1l0.1,0.7l-0.7-0.2c0,0,0,0-0.1,0.1
	c-0.5,0.6-0.4,1.6,0,2.2c0.3,0.5,0.9,1,1.5,0.8l0.3-0.1l0.3,0.4l0.1,0.1c0-0.1,0.1-0.1,0.1-0.2c0.4-0.3,0.6-0.7,0.8-0.9
	c0.2-0.5,0.1-1-0.2-1.2c-0.2-0.1-0.4-0.2-0.7-0.1c-0.1,0-0.4,0-0.5-0.1c-0.1-0.1-0.2-0.3-0.2-0.4c0.2-2.9-1.3-6.7-1.4-6.9
	c0-0.1,0-0.2,0-0.3c0-0.1,0.2-0.2,0.3-0.2c0.5-0.2,1.1-0.1,1.6,0.2c0.6,0.3,1,0.9,1.2,1.6c0.1,0.2,0.1,0.5,0.1,0.8
	c0-0.9-0.1-1.5-0.1-1.6c0-0.1,0-0.3,0.1-0.4c0.1-0.1,0.2-0.2,0.4-0.1c0.5,0,1,0.3,1.3,0.7c0.3,0.3,0.4,0.7,0.5,1.2
	c0-0.1,0.1-0.2,0.2-0.3c0.1-0.1,0.3-0.1,0.4,0c0.8,0.4,1.1,1.2,0.9,2.1c0,0,0.1,0,0.1,0c0.1,0,0.2,0,0.3,0.1
	c0.3,0.2,0.5,0.6,0.6,0.9c0,0.4-0.1,0.8-0.3,1.3c0,0,0.1,0,0.1,0c0.1,0,0.3,0.1,0.3,0.3c0.3,0.6,0.1,1.4-0.6,1.9c0.1,0,0.1,0,0.2,0
	c0.1,0.1,0.2,0.2,0.2,0.3c0.1,0.3,0,0.7-0.3,1.1c0,0,0,0,0,0c-0.3,0.4-0.7,0.7-1.2,0.8c-0.6,0.1-1.2-0.1-1.8-0.3
	c-0.1,0.3-0.2,0.8,0,1.1c0,0.1,0,0.1,0,0.2c0.4-0.3,0.8-0.5,1.2-0.5c0.4,0,1.1,0.3,1.6,1.4c0.1-0.1,0.3-0.3,0.4-0.5
	c-0.2-0.3-0.2-0.6-0.2-0.9l0-0.3l0.8-0.2l-0.1-0.8l0.2-0.1C125,203.1,125.6,203.2,126.1,203.6z M114,204.4c-0.3-0.4-0.5-0.9-0.6-1.4
	c-0.5,0.1-1,0.1-1.3-0.2l-0.5-0.4l0.5-0.4c0.1-0.1,0.2-0.2,0.3-0.3c-0.5,0.2-1.1,0.2-1.4,0.1l-0.4,0.6c0.2,0.3,0.4,0.8,0.4,1.3
	c0.1-0.1,0.1-0.3,0.2-0.4l0.2-0.6l0.6,0.3c0.3,0.2,0.6,0.7,0.6,1.1C112.9,204.3,113.4,204.3,114,204.4z M118.9,212.4
	c-1.2-0.1-1.7-0.6-1.9-1c-0.2-0.4-0.2-0.9,0-1.3c-0.1,0-0.1,0-0.2,0c-0.4-0.1-0.8,0.2-1,0.4c0.4,0.4,0.8,1,0.9,1.5
	c0.1,0.5,0,1-0.3,1.4c0,0,0,0,0,0c0,0,0,0,0,0c0,0,0,0,0,0c0.2,0,0.3,0.1,0.4,0.2c0,0,0,0,0,0c0.2,0,0.4,0.1,0.5,0.2
	c0.1,0,0.3-0.1,0.5-0.1c0.1-0.3,0.4-0.5,0.7-0.6C118.7,213,118.8,212.7,118.9,212.4z M155,85.8c14.5,0,28.2,2.4,40.6,6.8
	c3.8-5.7,12.4-20.4,12.4-35.2c0-15.9-21.4-24.6-33.2-25c0,0-20.2,36.8-20.2,36.9c0,0-20.2-36.9-20.2-36.9
	c-11.8,0.4-33.2,9.1-33.2,25c0,15,8.8,29.9,12.6,35.4C126.4,88.3,140.3,85.8,155,85.8z M199.7,198.9c0.4,0,0.8,0.3,1.1,0.7l0.1,0.1
	l0.2-0.6l1.9,0.2l-0.5,1.8l-0.7,0l0.1,0.1c0.3,0.5,0.4,0.9,0.2,1.3c-0.1,0.3-0.4,0.7-1.2,0.9c-0.2,0.1-0.7,0.1-1,0.1
	c-0.1,0.1-0.2,0.3-0.2,0.5c0.2-0.1,0.4-0.2,0.6-0.2c0.3,0,0.7,0.2,0.9,0.5l0,0.1l0.2-0.7l1.6,0.1l-0.5,1.6l-0.7-0.1l0,0.1
	c0.2,0.3,0.3,0.7,0.2,1c-0.1,0.2-0.3,0.6-1,0.7c-0.2,0.1-0.7,0-0.8,0l-0.1,0c0,0.3-0.1,0.6-0.3,0.8c-0.3,0.3-0.8,0.5-1.2,0.4
	l-0.7-0.2l0.5-0.6c0,0,0-0.1,0-0.1c-0.3-0.7-1.3-0.9-2.1-0.8c-0.6,0.1-1.2,0.4-1.3,1.1l-0.1,0.4l-0.3,0.1l-0.2,0.2
	c0.1,0.1,0.1,0.1,0.1,0.2c0.1,0.5,0.4,0.8,0.6,1c0.4,0.4,0.9,0.5,1.2,0.3c0.2-0.1,0.3-0.3,0.3-0.6c0-0.1,0.1-0.3,0.3-0.4
	c0.1-0.1,0.3-0.1,0.6,0c2.5,1.2,6.4,1.2,6.8,1.2c0.1,0,0.2,0.1,0.3,0.1c0.1,0.1,0.1,0.2,0.1,0.3c0,0.5-0.3,1-0.7,1.4
	c-0.5,0.4-1.2,0.6-1.9,0.5c-0.2,0-0.5-0.1-0.8-0.2c0.8,0.3,1.4,0.5,1.6,0.5c0.1,0,0.3,0.1,0.3,0.2c0.1,0.1,0.1,0.3,0,0.4
	c-0.2,0.5-0.6,0.8-1.1,0.9c-0.4,0.1-0.8,0.1-1.2,0c0.1,0.1,0.2,0.2,0.2,0.3c0,0.1,0,0.3-0.1,0.4c-0.6,0.6-1.5,0.6-2.3,0.1
	c0,0,0,0.1,0,0.1c0,0.1-0.1,0.2-0.2,0.3c-0.3,0.2-0.7,0.3-1.1,0.2c-0.4-0.1-0.7-0.4-1-0.8c0,0,0,0,0,0.1c-0.1,0.1-0.2,0.2-0.4,0.2
	c-0.7,0-1.3-0.5-1.6-1.2c0,0.1-0.1,0.1-0.1,0.1c0,0,0,0,0,0c0,0.1,0.2,0.6,0.2,1.1c-0.1,0.5-0.6,0.9-0.6,0.9l-0.1,0.1l-0.1,0
	c-0.4,0.1-0.8,0.1-1.2-0.2c-0.1-0.1-0.2-0.3-0.3-0.4c0,0,0,0,0,0c-0.2-0.1-0.3-0.3-0.4-0.4c-0.1,0-0.2,0-0.3-0.1
	c-0.1,0.1-0.2,0.2-0.4,0.3c-0.4,0.2-0.9,0.1-1.2-0.2c-0.1-0.1-0.2-0.3-0.3-0.5l-0.5-0.1c-0.2,0-0.3-0.1-0.4-0.3c0,0,0,0,0,0
	c-0.1-0.1-0.1-0.3-0.1-0.5c0-0.2,0.1-0.3,0.3-0.4c0.1-0.1,0.3-0.1,0.4-0.1c0,0,0.1,0,0.3,0.1c-0.1-0.4-0.3-0.9-0.5-1.3
	c-0.1-0.1-0.1-0.3-0.1-0.5c0.1-0.2,0.2-0.3,0.4-0.3c0.2,0,0.3-0.2,0.3-0.3c0-0.1-0.1-0.3-0.3-0.4c-0.3-0.1-0.7-0.1-1.3,0l-0.1,0
	c0.7,1.4,0.6,2.8-0.2,3.3c-0.7,0.5-3.7-1.8-3.7-1.8s-1-3.6-0.3-4.1c0.8-0.5,2.1-0.1,3.1,1l0.1-0.1c0.3-0.4,0.5-0.8,0.5-1.2
	c0-0.2-0.1-0.4-0.2-0.4c-0.1,0-0.3,0-0.4,0.2c-0.1,0.2-0.3,0.2-0.4,0.2c-0.2,0-0.3-0.1-0.4-0.2c-0.4-0.6-1.1-1.2-1.4-1.2
	c-0.6,0-1.2-0.3-1.5-0.9c-0.4-0.7-0.2-1.5,0.3-2c0.5-0.4,1.1-0.5,1.7-0.2l0.2,0.1l-0.1,0.8l0.8,0.2l0,0.3c0,0.3-0.1,0.6-0.2,0.9
	c0.1,0.2,0.3,0.3,0.4,0.5c0.5-1.1,1.2-1.4,1.6-1.4c0.4,0,0.9,0.1,1.2,0.5c0-0.1,0-0.2,0-0.2c0.2-0.3,0.1-0.8,0-1.1
	c-0.5,0.2-1.2,0.4-1.8,0.3c-0.5-0.1-0.9-0.4-1.2-0.8c0,0,0,0,0,0c-0.2-0.3-0.3-0.7-0.3-1.1c0-0.1,0.1-0.2,0.2-0.3c0.1,0,0.1,0,0.2,0
	c-0.6-0.6-0.8-1.3-0.6-1.9c0.1-0.1,0.2-0.2,0.3-0.3c0,0,0.1,0,0.1,0c-0.3-0.4-0.4-0.9-0.3-1.3c0-0.4,0.2-0.7,0.6-0.9
	c0.1-0.1,0.2-0.1,0.3-0.1c0,0,0.1,0,0.1,0c-0.2-0.9,0.1-1.7,0.9-2.1c0.1-0.1,0.3-0.1,0.4,0c0.1,0.1,0.2,0.2,0.2,0.3
	c0-0.4,0.2-0.8,0.5-1.2c0.3-0.4,0.8-0.7,1.3-0.7c0.1,0,0.3,0.1,0.4,0.1c0.1,0.1,0.1,0.3,0.1,0.4c0,0.1-0.1,0.8-0.1,1.6
	c0-0.3,0.1-0.5,0.1-0.8c0.2-0.7,0.6-1.3,1.2-1.6c0.5-0.3,1-0.3,1.6-0.2c0.1,0,0.2,0.1,0.3,0.2c0,0.1,0.1,0.2,0,0.3
	c-0.1,0.2-1.6,4-1.4,6.9c0,0.2,0,0.3-0.2,0.4c-0.1,0.1-0.3,0.1-0.5,0.1c-0.3-0.1-0.5,0-0.7,0.1c-0.3,0.2-0.4,0.8-0.2,1.2
	c0.1,0.2,0.4,0.6,0.8,0.9c0.1,0,0.1,0.1,0.1,0.2l0.1-0.1l0.3-0.4l0.3,0.1c0.6,0.2,1.2-0.3,1.5-0.8c0.4-0.7,0.5-1.7,0-2.2
	c-0.1-0.1-0.1-0.1-0.1-0.1l-0.7,0.2l0.1-0.7c0-0.4,0.4-0.8,0.8-1c0.3-0.1,0.6-0.1,0.9,0l0-0.1c0-0.1,0.2-0.5,0.3-0.7
	c0.4-0.5,0.8-0.6,1-0.6c0.3,0,0.7,0.2,0.9,0.5l0,0.1l0.2-0.7l1.6,0.1l-0.5,1.6l-0.7-0.1l0,0.1c0.2,0.3,0.3,0.7,0.2,1
	c-0.1,0.1-0.2,0.3-0.4,0.5c0.2,0,0.3,0,0.5,0c0.1-0.3,0.3-0.7,0.5-0.9C198.9,199,199.4,198.9,199.7,198.9z M193.6,210.5
	c-0.2-0.3-0.6-0.5-1-0.4c-0.1,0-0.1,0-0.2,0c0.2,0.4,0.2,0.9,0,1.3c-0.2,0.4-0.7,0.9-1.9,1c0.1,0.2,0.2,0.6,0.4,0.8
	c0.3,0.1,0.6,0.3,0.7,0.6c0.2,0,0.4,0.1,0.5,0.1c0.1-0.1,0.3-0.2,0.5-0.2c0,0,0,0,0,0c0.1-0.1,0.3-0.2,0.4-0.2c0,0,0,0,0,0
	c0,0,0,0,0,0c0,0,0,0,0,0c-0.3-0.4-0.4-0.9-0.3-1.4C192.8,211.5,193.2,211,193.6,210.5z M198.9,202.5l-0.4-0.6
	c-0.4,0.1-0.9,0.1-1.4-0.1c0.1,0.1,0.2,0.2,0.3,0.3l0.5,0.4l-0.5,0.4c-0.3,0.2-0.8,0.3-1.3,0.2c-0.1,0.5-0.4,0.9-0.6,1.4
	c0.5-0.1,1-0.1,1.5-0.1c0.1-0.5,0.3-0.9,0.6-1.1l0.6-0.3l0.2,0.6c0,0.1,0.1,0.3,0.2,0.4C198.5,203.3,198.7,202.8,198.9,202.5z
	 M89.3,88.9c1.5-3.9,3.2-9.4,1.4-13.4c-1-2.2-4.8-7.4-23.5-5.4l5,21.6C81.5,89.2,86.4,88.8,89.3,88.9z M91.6,288.1
	c-1.7,0.8-2.7,2.6-3,5.6c-0.2,1.8,0.3,3.2,1.5,4.3c3.7,3.4,14,3.9,28.5,1.5c-8.6-5.9-18.5-11.9-24.5-11.9
	C93.1,287.6,92.3,287.7,91.6,288.1z M136.7,308.2c0.3-8.1,2.2-13.3,3.4-16c-9.4-6.2-28.3-11.1-43-7.8c8.9,1.8,21.3,10.4,33.5,19.3
	C133,305.5,135.1,307.1,136.7,308.2z M76.9,128.5l-7.2-30.4c-5.7,1.3-11.5,3.1-17.2,5.2c1,9.4,1.2,19.1,0.7,29.5
	C62.1,130.5,70.7,129.2,76.9,128.5z M302.6,217.5c1.1,1.2,2.1,3.4-0.7,5.6c-4.9,3.9-12.1,2.9-17.4,6.6c-4,2.8-6,7.5-8.9,11.5
	c7.2,7.9,11.3,18.4,6.2,38.7c-6.9,27.4-33.3,36.2-64,37.5c-6.9,11.9-26,6.8-40.4,2.3c-2.4,8-2.4,16-2.4,16
	c-11.4-3.1-18.7-7.7-23-11.3c-3.3,4.4-7.8,9-13.4,11.8c0,0-4.4-9.7-10-15.2c-14,3.9-33.3,8.9-39.7-3.7
	c-29.6-1.8-54.8-10.7-61.5-37.4c-5.1-20.3-1-30.8,6.2-38.7c-2.9-4-4.9-8.7-8.9-11.5c-5.3-3.7-12.5-2.7-17.4-6.6
	c-2.8-2.2-1.8-4.3-0.7-5.6c0.7-0.8,0.5-1.9-0.5-2.5c-4.3-2.6-9.4-6.7-4.1-13.6c0.5-0.7,0.5-1.5-0.1-2.2c-3.4-3.4-2.7-9.6,1-11.9
	c4.4-2.7,10.3,0.9,12,5.3c0.3,0.8,1.2,1.3,2.1,1.1c10.4-2.4,8.3,12.2,11.6,15c5.6,5,1.5,13.3,2.4,17.7c0.8,4,3.7,7.7,5.4,10.6
	c-2.5-17.7-1.6-33.8,0.2-49.2c-7.6-4.3-15.4-9-20.3-15.1c-6-7.4-5.5-13.3-6.3-31.7c-0.1-2.2-0.4-4.6,0.4-6.7
	c3.6-9.1,13.8-17.6,26.6-24.3c-8.3-6.3-12.6-1.9-16.6-3.9c-2.6-1.3-2.8-3.2-2.4-4.6c0.2-0.9-0.3-1.7-1.2-1.8
	c-3.5-0.5-10.2-2.5-7.6-9.6c0.2-0.7-0.1-1.4-0.7-1.8c-3.5-2-5.5-6.9-2.7-10.1c2.7-3.2,8-2,10.4,1.2c0.4,0.6,1.2,0.8,1.9,0.4
	c6.6-3.5,9.9,2.2,11.1,5.4c0.3,0.8,1.3,1.2,2.1,0.8c1.2-0.6,3.2-1,4.7,1.4c3.2,5.4,0.4,13.3,7.1,19.4c-0.6-6.6-1.6-13.4-3.2-20.5
	c0,0-0.1-0.1-0.1-0.1c-0.6-2-1-4.5-2-5.8c-4.4-5.5-12-4.4-14.6-7.9c-1.9-2.6-1.1-4.5-0.1-5.7c0.6-0.7,0.5-1.8-0.3-2.4
	c-3.1-2.2-9.8-8.7-2.7-13.2c0.7-0.4,0.7-1.4,0.2-2.1c-2.4-3.7-2-9.9,2.4-11.2c3.8-1.2,8.8,2,9.6,6.3c0.2,0.8,0.8,1.3,1.6,1.3
	c8.1,0.5,8.5,6.3,8.2,10.8c-0.1,1,0.7,1.8,1.7,1.8c1.5,0,3.7,0.6,3.9,3.8c0.3,5.4-2.5,10.4-2.9,17.1c-0.1,1,0.1,2.3,0.3,3.6
	c0.9,3.8,1.6,7.4,2.2,11c1.3-2.3,2.6-4.7,3.7-6.9c-0.1-0.2-0.3-0.5-0.4-0.7c-1.3-2.7-0.1-6,2.7-7.3s6-0.1,7.3,2.7
	c1.3,2.7,0.1,6-2.7,7.3c-1,0.5-2,0.6-3,0.5c-2,3.4-4.3,7.5-6.6,11.5c3.2,25.5,0.2,45.8-2.9,67.3c-0.1,0.8-0.2,1.6-0.3,2.3
	c1.2-1.2,3.5-3.7,4.7-4.9c4.9-5.2,0.7-9.3,2.5-14.5c0.8-2.3,2-4.1,3-3.6c0.7,0.3,1.4,0,1.6-0.8c0.9-3.3,2.7-7.5,8.3-5.2
	c0.5,0.2,1.1,0.1,1.4-0.4c1.7-2.9,5.9-3.6,8.1-1.4c2.6,2.5,1.3,7.1-1.3,9.1c-0.5,0.3-0.7,1.1-0.4,1.6c3.6,5.7-2.5,8.2-5.2,8.8
	c-0.7,0.2-1,0.9-0.8,1.7c0.4,1.2,0.4,2.9-1.5,4.2c-3.3,2.2-7.7,0-10.1,2c-1.5,1.2-3.5,3.7-5.5,6.3c1.2,0.7,2.3,1.4,3.3,2
	c6.1,4.1,14.8,9.2,17.1,16.8c2.4,7.9,2,14.6,1.7,23.8c-0.1,4.4-0.9,9.4-3,13.7c-5.2,10.7-12.7,17.7-19.7,23.6
	c-1.9-7.3-3.2-14.6-3.9-22c6.2-5,14.2-11.1,21.4-23.5c-5.6-5.5-13.9-9.7-19.4-13.2c-1.5-1-3.1-1.9-4.8-2.9
	c-1.1,9.6-1.7,19.6-1.4,29.4c1.9-3.2,3.7-6.2,5-8.5c-0.3-0.5-0.5-1-0.6-1.6c-0.6-2.9,1.2-5.8,4.2-6.4c2.9-0.6,5.8,1.2,6.4,4.2
	c0.6,2.9-1.2,5.8-4.2,6.4c-0.5,0.1-1.1,0.1-1.6,0.1c-2.4,3.4-5.7,8.5-8.7,13.3c0.8,9.8,2.6,20,6,31.1c3.5,11.7,10,20.8,19.3,27.3
	c-1.7-2.3-2.8-5-3.3-8.3c-1.1-7.4-6.1-4.7-7.2-10.5c-0.5-2.5,1.1-3.5,2.3-3.8c0.8-0.2,1.2-1,0.9-1.8c-1.2-3.4-2.1-8.1,4.2-10.2
	c0.6-0.2,1-0.8,1-1.4c-0.3-3.6,3-7.2,6.2-7c3.7,0.1,5.4,4.9,4.3,8.4c-0.2,0.6,0,1.4,0.6,1.6c6.6,2,2.7,8.6,0.7,11
	c-0.5,0.6-0.4,1.5,0.3,1.9c1,0.7,2.1,2.1,1.1,4.5c-1.6,4.2-7.7,2-9.3,5.2C68.1,277,67.8,286,79,292.6c1.9,0.7,4,1.4,6.1,2
	c0,0.2,0,0.5,0,0.8c0.2,2,1.1,3.8,2.6,5.2c6.2,5.7,22.3,4.1,34.9,1.8c2.2,1.5,6.5,4.8,8.3,6.1c6,4.4,9.3,5.7,9.3,5.7
	c-0.3-12.5,2.3-18.9,3.5-21.1c0.3-0.2,0.6-0.3,1-0.3c2.9,0,13.4,0,20,0c0.3,0,0.6,0.1,0.8,0.2c0.1,0.1,0.2,0.3,0.3,0.4
	c0.7,1.2,3.3,8.8,2.5,21.4c0,0,3.6-3.6,3.6-4.6c0.1-6-0.5-10.3-1.2-13.3c10.1,5.2,31.4,10.3,42.9,7.5c6.6-1.6,9-5.3,9.6-8.7
	c0,0,0,0,0,0c0,0,0,0,0,0c0,0,0,0,0,0c2.1-0.6,4.4-1.4,7.2-3c11.3-6.5,10.9-15.6,10.3-16.7c-1.6-3.2-7.7-1-9.3-5.2
	c-0.9-2.5,0.1-3.8,1.1-4.5c0.6-0.4,0.8-1.3,0.3-1.9c-2-2.4-5.9-9,0.7-11c0.6-0.2,0.8-1,0.6-1.6c-1.1-3.5,0.5-8.2,4.3-8.4
	c3.2-0.1,6.5,3.5,6.2,7c0,0.7,0.4,1.2,1,1.4c6.3,2.1,5.3,6.8,4.2,10.2c-0.3,0.8,0.1,1.6,0.9,1.8c1.2,0.3,2.8,1.3,2.3,3.8
	c-1.2,5.8-6.1,3.1-7.2,10.5c-0.5,3.3-1.6,6-3.3,8.3c9.3-6.4,15.7-15.6,19.3-27.3c3.3-11,5.1-21.3,6-31.1c-3-4.9-6.3-9.9-8.7-13.3
	c-0.5,0-1.1,0-1.6-0.1c-2.9-0.6-4.8-3.5-4.2-6.4c0.6-2.9,3.5-4.8,6.4-4.2c2.9,0.6,4.8,3.5,4.2,6.4c-0.1,0.6-0.3,1.1-0.6,1.6
	c1.3,2.4,3.1,5.4,5,8.5c0.4-9.9-0.3-19.8-1.4-29.4c-1.7,1-3.3,1.9-4.8,2.9c-5.5,3.5-13.9,7.7-19.4,13.2
	c7.2,12.4,15.2,18.6,21.4,23.5c-0.8,7.4-2.1,14.7-3.9,22c-7.1-5.9-14.5-13-19.7-23.6c-2.1-4.2-2.9-9.3-3-13.7
	c-0.2-9.1-0.6-15.9,1.7-23.8c2.3-7.6,10.9-12.7,17.1-16.8c1-0.6,2.1-1.3,3.3-2c-2-2.7-4.1-5.2-5.5-6.3c-2.4-1.9-6.8,0.2-10.1-2
	c-1.9-1.3-1.9-3-1.5-4.2c0.2-0.7-0.1-1.5-0.8-1.7c-2.7-0.6-8.8-3.2-5.2-8.8c0.3-0.5,0.1-1.3-0.4-1.6c-2.6-1.9-3.9-6.6-1.3-9.1
	c2.2-2.1,6.4-1.5,8.1,1.4c0.3,0.5,0.9,0.7,1.4,0.4c5.5-2.4,7.3,1.8,8.3,5.2c0.2,0.8,0.9,1.1,1.6,0.8c1-0.5,2.3,1.2,3,3.6
	c1.8,5.2-2.5,9.3,2.5,14.5c1.2,1.3,3.5,3.7,4.7,4.9c-0.1-0.8-0.2-1.5-0.3-2.3c-3.1-21.4-6.1-41.8-2.9-67.3c-2.2-4-4.5-8.1-6.6-11.5
	c-1,0.1-2,0-3-0.5c-2.7-1.3-3.9-4.5-2.7-7.3c1.3-2.7,4.5-3.9,7.3-2.7c2.7,1.3,3.9,4.5,2.7,7.3c-0.1,0.2-0.3,0.5-0.4,0.7
	c1.1,2.1,2.5,4.5,3.7,6.9c0.6-3.6,1.3-7.3,2.2-11c0.2-1.3,0.4-2.5,0.3-3.6c-0.4-6.7-3.2-11.7-2.9-17.1c0.2-3.2,2.4-3.8,3.9-3.8
	c1,0,1.7-0.8,1.7-1.8c-0.3-4.4,0.1-10.3,8.2-10.8c0.8,0,1.5-0.6,1.6-1.3c0.8-4.3,5.9-7.5,9.6-6.3c4.4,1.4,4.8,7.5,2.4,11.2
	c-0.4,0.7-0.4,1.7,0.2,2.1c7.1,4.4,0.4,10.9-2.7,13.2c-0.8,0.6-0.9,1.7-0.3,2.4c1,1.2,1.8,3.1-0.1,5.7c-2.6,3.6-10.2,2.4-14.6,7.9
	c-1,1.3-1.3,3.8-2,5.8c0,0.1-0.1,0.1-0.1,0.1c-1.6,7.1-2.6,13.9-3.2,20.5c6.7-6.1,3.9-14,7.1-19.4c1.5-2.5,3.5-2.1,4.7-1.4
	c0.8,0.4,1.8,0.1,2.1-0.8c1.3-3.2,4.5-8.9,11.1-5.4c0.6,0.3,1.4,0.2,1.9-0.4c2.5-3.2,7.7-4.3,10.4-1.2c2.7,3.2,0.8,8.1-2.7,10.1
	c-0.6,0.4-0.9,1.1-0.7,1.8c2.5,7.1-4.2,9.1-7.6,9.6c-0.9,0.1-1.4,1-1.2,1.8c0.3,1.4,0.2,3.3-2.4,4.6c-4,2-8.2-2.4-16.6,3.9
	c12.8,6.7,23,15.2,26.6,24.3c0.8,2.1,0.5,4.5,0.4,6.7c-0.8,18.4-0.3,24.4-6.3,31.7c-4.9,6.1-12.8,10.8-20.3,15.1
	c1.8,15.5,2.7,31.6,0.2,49.2c1.7-3,4.6-6.6,5.4-10.6c0.9-4.4-3.2-12.7,2.4-17.7c3.3-2.9,1.2-17.4,11.6-15c0.9,0.2,1.8-0.4,2.1-1.1
	c1.7-4.4,7.6-8,12-5.3c3.8,2.3,4.4,8.4,1,11.9c-0.6,0.6-0.6,1.5-0.1,2.2c5.3,6.9,0.2,11-4.1,13.6
	C302.1,215.5,301.9,216.7,302.6,217.5z M40,165.7c1.4-9.8,2.8-19.7,3.5-30.1c-10.4,3.5-20.4,8.4-26.8,15.1c4.2,5,11.1,9.5,18.1,13.6
	c-1.3-3-2.5-5.9-3.4-7.9c-0.5-0.1-1-0.2-1.4-0.4c-2.8-1.1-4.1-4.3-3-7c1.1-2.8,4.3-4.1,7-3c2.8,1.1,4.1,4.3,3,7
	c-0.3,0.6-0.6,1.2-1.1,1.7C36.9,157.7,38.5,161.7,40,165.7z M62.9,290.7c-10.1-7.2-17.2-17.2-21-30c-0.1-0.5-0.3-1-0.4-1.4
	c-3.8,3.3-7.1,6.5-9.3,10.2C38.9,280.1,49.8,286.7,62.9,290.7z M269.4,165.7c1.5-3.9,3.1-8,4.1-10.9c-0.4-0.5-0.8-1-1.1-1.7
	c-1.1-2.8,0.2-5.9,3-7c2.8-1.1,5.9,0.2,7,3c1.1,2.8-0.2,5.9-3,7c-0.5,0.2-1,0.3-1.4,0.4c-0.9,2-2.1,4.8-3.4,7.9
	c7-4.1,13.9-8.6,18.1-13.6c-6.4-6.7-16.4-11.6-26.8-15.1C266.6,145.9,268,155.9,269.4,165.7z M267.9,259.3c-0.1,0.5-0.3,1-0.4,1.4
	c-3.9,12.9-11.6,23.2-22.2,30.5c13.6-4.1,25-10.9,31.9-21.7C275,265.8,271.7,262.6,267.9,259.3z M169.5,292.1
	c2.8,2,10.5,5.1,19.2,7.2c4.5-4.3,10-8.4,15.3-11.1c2.8-1.5,6.3-3,9.7-3.4C198.9,280.9,179.3,285.7,169.5,292.1z M91.9,92
	c0.5-1.9,4.4-9.5,2.6-16.2c6.4,5.2,10.7,13.7,15.5,25.4c1.3,3.1,2.2,4.7,4.2,4c11.1-3.6,25.6-6.1,40.6-6.1c15,0,29.5,2.6,40.6,6.1
	c2,0.6,2.9-1,4.2-4c4.9-11.7,9.2-20.2,15.5-25.4c-1.9,6.7,2.1,14.3,2.6,16.2c1.9,7.5-1.8,12.9-8.2,16h13.8v139.6
	c0,13.4-10.9,24.3-24.3,24.3h-16.7c-16.9,0-26.1,7.2-26.1,16.1h-2.9c0-8.9-9.2-16.1-26.1-16.1h-16.7c-13.4,0-24.3-10.9-24.3-24.3
	V108H100C93.7,104.9,90,99.4,91.9,92z M166,248.3c0-6.5-5.3-11.8-11.8-11.8c-0.9,0-1.7,0.1-2.6,0.3c2.9,1.1,4.9,3.9,4.9,7.1
	c0,4.2-3.4,7.6-7.6,7.6c-2.8,0-5.2-1.5-6.5-3.7c0,0.1,0,0.3,0,0.4c0,6.5,5.3,11.8,11.8,11.8C160.8,260.1,166,254.8,166,248.3z
	 M209.3,255.4l-47-36.9l-4.9,3.8l48.1,37.8L209.3,255.4z M216.6,167.7l-14.4,3c-3,0.6-4.3,4.1-2.6,6.5l-44.8,35.2l-44.8-35.2
	c1.7-2.5,0.3-5.9-2.6-6.5l-14.4-3l6.3,13.3c1.3,2.8,5,3.2,7,1l3.1,2.5c-7.2,14.3-5.3,14.3-12.9,29c7.8,4.6,24.4,16.8,24.4,16.8
	c7.5-13.6,5.8-14.1,12.6-26.9l16.5,13l-49.7,39.1l3.7,4.7l72.3-56.8c6.8,12.8,5,13.3,12.6,26.9c0,0,16.6-12.2,24.4-16.8
	c-7.6-14.7-5.7-14.8-12.9-29l3.1-2.5c2,2.2,5.7,1.7,7-1L216.6,167.7z M157.7,175.8v-8.1h-6v8.1h-7.8v6h7.8v4.4l-4.3-1.2l-0.8,2.9
	l5.1,1.4v6.8h6V191l4.3,1.2l0.8-2.9l-5.1-1.4v-6.1h7.8v-6H157.7z M92.8,114.3v45.6h123.7v-45.6H92.8z M96.1,134
	c0-0.1,0.5-1.5,1.3-3.4c0.4-0.9,0.6-1.9,0.8-3c0.2-1.1,0.5-2.3,1-3.4c0-1.3,0.1-2.9,0.4-4c0.3-0.8,0.9-1.4,1.7-1.5
	c0.5-0.1,1.5-0.1,2.6,1c0.1,0.2,0.3,0.3,0.4,0.4c0.6-0.2,1.2-0.3,1.8-0.4c0.5-0.8,1-1.5,1.5-2c0.6-0.6,1.4-0.8,2.2-0.6
	c0.5,0.1,1.4,0.6,1.9,2.1c0.2,0.6,0.4,1,0.6,1.5c1.5,0.8,3,2,5,3.6c1.2,0.9,2.5,2,4,3.2c2.3,1.7,5.2,2.5,8,2.2
	c2.3-0.2,4.9-0.6,7.9-1c11.6-1.6,27.4-3.8,39.6-0.6c0,0,0,0,0,0c4.9,1.1,9.1,2.4,12.8,3.6c5,1.6,9.3,2.9,13.4,3.1
	c6.1,0.3,8.4-1.5,8.5-1.5c0.2-0.2,0.5-0.2,0.8-0.2c0.3,0.1,0.5,0.3,0.7,0.5c0.2,0.3,1.7,3.4,0.6,5.8c-0.5,1.2-1.5,2-2.9,2.6
	c-1.2,0.4-2.6,0.6-4.1,0.6c-3.9,0-8.4-1.3-11.8-2.9c-2.1-1-3.8-1.9-5-2.6c0.5,1,0.8,1.8,0.9,2.6c0.3,1.4,1.2,5,2.3,4.8l0.3-0.1
	c0.7-0.1,1.3-0.2,2.4,0.4c1.7,1,3.6,3.9,4.5,6.1c0.6,1.5,0.8,3.7,0,5c-0.4,0.6-0.9,0.9-1.6,1c-1.4,0.1-3.6,0.1-4,0.1c0,0,0,0,0,0
	c-0.8,0-1.4-0.5-1.6-1.2c-0.2-1.1,0.5-2.5,1.5-3c0.2-0.1,0.3-0.2,0.4-0.3c-0.3-0.6-0.7-1-1.7-1.6c-0.8-0.5-2.1-0.6-3.4-0.5
	c0.5,1.5,0.6,3.4-0.1,4.6c-0.4,0.6-0.9,0.9-1.6,1c-1.4,0.1-3.6,0.1-4,0.1c0,0,0,0,0,0c-0.8,0-1.4-0.5-1.6-1.2
	c-0.2-1.1,0.5-2.5,1.5-3c0.2-0.1,0.3-0.2,0.4-0.3c-0.3-0.6-0.7-1-1.7-1.6l-0.4-0.2c-0.6-0.3-1.1-0.6-1.6-1c-1-0.9-2-2-2.9-3.2
	c-2.8-3.3-5.9-7.1-12.6-6.9c-4.7,0.1-8.8,1.5-13.6,3.2c-4.8,1.6-10.2,3.5-17.5,4.6c-0.9,0.1-1.7,0.2-2.4,0.3
	c-2.9,2.9-15.2,8.1-16.1,8.3c-0.9,0.2-2.3,0.3-3.5,0.3c-0.9,0-1.7-0.1-2.2-0.4c-0.5-0.2-0.7-0.7-0.6-1.2c0.2-0.9,1.2-1.7,2-1.8
	c2.1-0.1,3.2-0.6,4.3-1.5c2.3-1.8,4.4-3.4,6-4.8c-0.5-0.2-1.1-0.4-1.6-0.7c-4.7,2.5-10.9,5.1-11.6,5.2c-0.9,0.2-2.3,0.3-3.5,0.3
	c-0.9,0-1.7-0.1-2.2-0.4c-0.5-0.2-0.7-0.7-0.6-1.2c0.2-0.9,1.2-1.7,2-1.8c2.1-0.1,3.2-0.6,4.3-1.5c2.5-1.9,4.6-3.7,6.3-5
	c-0.7-0.8-1.3-1.6-1.8-2.4c-0.3-0.4-0.6-0.9-1-1.3c-1.3-1.7-2.6-3.1-3.5-4c-0.5-0.6-1.4-0.6-2-0.2c-0.7,0.5-1.2,0.9-1.7,1.2
	c-1.6,1.2-2.4,1.8-3.9,1.8c-1.9,1.1-3.3,1.1-3.6,0.8c-0.2-0.3-0.2-0.5,0.2-1.2c-0.5-0.2-0.8-0.3-0.8-0.3
	C96.1,135,95.9,134.5,96.1,134z M102,129.1c0.5,0,1.5,0.3,2.1-0.3c0.6-0.6,0.6-1.5,0.4-2.1c-0.5-0.1-1.5-0.2-2.1,0.3
	C101.8,127.6,102,128.8,102,129.1z M212.8,300.9c4.8-1.2,7.2-3.6,7.1-7.6c0-3.9-1.7-4.6-2.3-4.8c-4.9-2-16.5,4.3-24.8,11.7
	C200,301.6,207.3,302.2,212.8,300.9z"/>
</svg>
