<svg xmlns="http://www.w3.org/2000/svg" width="48.01" height="37.002"><path fill="#0050B2" d="M10.544.002a1.326 1.326 0 00-1.209 1.321v5.286h-2a1.303 1.303 0 00-.125 0A1.327 1.327 0 006.001 7.93v1.26L.583 12.762c-.371.25-.59.67-.583 1.115v19.161c0 2.173 1.807 3.964 4.001 3.964h40.008c2.193 0 4.001-1.791 4.001-3.964V13.877a1.32 1.32 0 00-.583-1.115L42.008 9.19V7.93c0-.73-.597-1.321-1.334-1.321h-2V1.323c0-.73-.597-1.321-1.334-1.322H10.669a1.043 1.043 0 00-.125.001zm1.459 2.643h24.004v3.964H12.003V2.645zM8.669 9.252h30.672v3.964H8.669V9.252zM6.001 12.39v.826H4.73l1.271-.826zm36.007 0l1.271.826h-1.271v-.826zM2.667 15.859h42.675v17.179c0 .755-.572 1.322-1.334 1.322H4.001c-.762 0-1.334-.567-1.334-1.322V15.859zm13.857 2.622a1.326 1.326 0 00-1.188 1.342v1.321c0 1.441 1.213 2.643 2.667 2.643h12.002c1.455 0 2.667-1.202 2.667-2.643v-1.321c.01-.73-.578-1.33-1.315-1.34a1.328 1.328 0 00-1.352 1.302v1.359H18.004v-1.321a1.327 1.327 0 00-1.48-1.342z"/></svg>
