<svg version="1.1" id="Layer_1" xmlns="http://www.w3.org/2000/svg" xmlns:xlink="http://www.w3.org/1999/xlink" x="0px" y="0px"	 viewBox="0 0 137 181.1" style="enable-background:new 0 0 137 181.1;" xml:space="preserve"><g>	<path class="st0" d="M117,25.7c-7.3-0.3-15.1-4.2-26.5-6.7c0,0,0,0,0,0c-15.2-4-36.4,0.5-47.4,1.6c-3.1,0.3-6.3-0.6-8.8-2.4		c-4.4-3.3-6.8-5.7-9.2-6.9c-0.2-0.6-0.5-1.2-0.7-1.9c-0.5-1.6-1.7-1.7-2.4-1c-0.5,0.5-1.1,1.4-1.6,2.3c0,0,0,0-0.1,0		c-0.8,0.1-1.9,0.3-3,0.7c-0.2-0.2-0.4-0.4-0.5-0.6c-1.1-1.3-2.3-0.9-2.6,0.1c-0.4,1-0.6,2.7-0.5,4c0,0,0,0,0,0		c-0.8,1.9-0.9,4.1-1.7,6.1c-0.8,1.9-1.3,3.4-1.3,3.4s1.1,0.6,2.9,0.7c2.4,0.1,2.6-0.5,5.9-2.9c0,0,0,0,0,0c1-0.7,2.5-0.6,3.3,0.3		c1,1,2.3,2.5,3.6,4.1c1,1.2,1.9,2.7,3.2,4.1c-1.7,1.5-4.1,3.5-7,5.6c-1.2,0.9-2.3,1.5-4.6,1.6c-0.9,0-2.2,1.6-1.2,2.1		c1,0.5,3.1,0.4,5.4,0c0.7-0.1,7.5-3,12.2-5.6c0.6,0.3,1.3,0.6,2,0.8c-1.7,1.5-4.3,3.6-7.3,5.9c-1.2,0.9-2.3,1.5-4.6,1.6		c-0.9,0-2.2,1.6-1.2,2.1s3.1,0.4,5.4,0c1-0.2,14.3-5.8,16.2-8.5c0.1-0.1,0.1-0.2,0.2-0.3c0.8-0.1,1.7-0.2,2.7-0.3		c14.8-2.2,21.8-7.6,31.4-7.8c9.6-0.2,12.4,7.1,16.2,10.3c0.4,0.4,0.9,0.6,1.3,0.8c1,0.7,1.6,1.3,1.9,2.1c0.2,0.6-0.3,1.1-0.9,1.4		c-1,0.5-1.5,2.3-0.4,2.3c0.3,0,2.6,0,3.9-0.1c1.4-0.1,1.4-2.9,0.7-4.6c0-0.1-0.1-0.2-0.2-0.3c2.3-0.1,4.5-0.4,6,0.6		c1.2,0.8,1.8,1.4,2.2,2.2c0.2,0.6-0.3,1.1-0.9,1.4c-1,0.5-1.5,2.3-0.4,2.3c0.3,0,2.6,0,3.9-0.1c1.4-0.1,1.4-2.9,0.7-4.6		c-0.8-2.1-2.6-4.8-4.1-5.6c-1-0.6-1.2-0.4-2-0.3c-2,0.3-2.9-2.9-3.5-5.6c-0.3-1.3-1-3.2-2.7-5.1c0.1-0.7,2.3,1.2,8.2,4		c6.6,3.1,15.8,4.2,17.5,0.2c0.9-2-0.6-5-0.6-5S123.7,26,117,25.7z M17.6,18.8c-0.6,0.6-1.6,0.4-2.1,0.3c0-0.4-0.2-1.5,0.4-2.1		c0.6-0.6,1.6-0.4,2.1-0.3C18.1,17.3,18.2,18.2,17.6,18.8z"/>	<path class="st0" d="M2.7,0C1.2,0,0,1.2,0,2.6l0,43.7v102l0,1.4l0.1,1.3l0.1,1.2l0.2,1.2l0.2,1.1l0.3,1l0.3,1l0.4,0.9l0.4,0.8		l0.4,0.8l0.5,0.7l0.5,0.7l0.6,0.6l0.6,0.6l0.6,0.6l0.6,0.5l0.7,0.5l0.7,0.4l0.7,0.4l0.8,0.4l0.8,0.3l0.8,0.3l0.1,0		c2.2,1,4.6,1.5,7.1,1.5h28.7l1.1,0l1.1,0.1l1,0.1l1,0.1l1,0.2l1,0.2l1,0.2l0.9,0.3l0.9,0.3l0.9,0.3l0.9,0.4l0.9,0.4l0.8,0.5		l0.8,0.5l0.8,0.5l0.8,0.6l0.7,0.6l0.7,0.6l0.7,0.7l0.7,0.7l0.6,0.7l0.6,0.8l0.6,0.8l0.6,0.8l0.5,0.8l0.5,0.9l0.5,0.9l0.5,0.9		l0.2,0.3l0.2-0.3l0.5-0.9l0.5-0.9l0.5-0.9l0.5-0.8l0.6-0.8l0.6-0.8l0.6-0.8l0.6-0.7l0.7-0.7l0.7-0.7l0.7-0.6l0.7-0.6l0.8-0.6		l0.8-0.5l0.8-0.5l0.8-0.5l0.9-0.4l0.9-0.4l0.9-0.3l0.9-0.3l0.9-0.3l1-0.2l1-0.2l1-0.2l1-0.1l1-0.1l1.1-0.1l1.1,0h28.8		c2.6,0,5.1-0.6,7.3-1.6l0.7-0.3l0.8-0.3l0.8-0.4l0.7-0.4l0.7-0.4l0.7-0.5l0.6-0.5l0.6-0.6l0.6-0.6l0.6-0.6l0.5-0.7l0.5-0.7l0.4-0.8		l0.4-0.8l0.4-0.9l0.3-1l0.3-1l0.2-1.1l0.2-1.2l0.1-1.2l0.1-1.3l0-0.3c0,0,0-0.1,0-0.1v-1V2.6c0-1.4-1.2-2.6-2.6-2.6H2.7z		 M19.2,153.2c-0.5,0.4-1,0.6-1.6,0.6c-0.7,0-1.4-0.3-1.9-0.9c-0.9-1-0.7-2.6,0.3-3.4l45.7-38.4l3.8,3.2L19.2,153.2z M13.5,105.1		c7.1-16.4,0.2-13.6,8-27.7l22.4,18.8c-4.7,10.5,0.5,8.6-6.9,22.9C37,119,22.3,110.3,13.5,105.1z M68.1,158.6		c-9.3,0-16.9-7.6-16.9-16.9c0-0.2,0-0.4,0-0.6c1.9,3.2,5.4,5.3,9.3,5.3c6,0,10.9-4.9,10.9-10.9c0-4.7-2.9-8.7-7.1-10.2		c1.2-0.3,2.4-0.4,3.7-0.4c9.3,0,16.9,7.6,16.9,16.9C85,151,77.4,158.6,68.1,158.6z M121.3,152.9c-0.5,0.6-1.2,0.9-1.9,0.9		c-0.6,0-1.1-0.2-1.6-0.6l-49.3-41.4l0,0l-6.2-5.2l0,0L19.6,70.7c-0.5,0.1-0.9,0.4-1.2,0.8c0,0,0,0.1-0.1,0.1		c-1.4-0.8-2.3-2.4-2.1-4.1c0.3-2.2,2.4-3.7,4.6-3.4c2.1,0.3,3.5,2.2,3.4,4.2l44.3,37.2l44.3-37.2c-0.1-2.1,1.4-3.9,3.4-4.2		c2.2-0.3,4.3,1.2,4.6,3.4c0.3,1.7-0.6,3.3-2.1,4.1c0,0,0-0.1-0.1-0.1c-0.3-0.4-0.8-0.7-1.2-0.8l-45.2,37.9l48.7,40.8		C122,150.3,122.2,151.8,121.3,152.9z M80.6,66.3c1.4,0,2.5,1.1,2.5,2.5s-1.1,2.5-2.5,2.5h-9.5V80l5.1,1.8c1.3,0.5,2,1.9,1.5,3.3		c-0.4,1-1.4,1.7-2.4,1.7c-0.3,0-0.6,0-0.9-0.2l-3.4-1.2V91c0,1.4-1.1,2.5-2.6,2.5c-1.4,0-2.5-1.1-2.5-2.5v-7.4l-5.1-1.8		c-1.3-0.5-2-1.9-1.5-3.3c0.5-1.3,1.9-2,3.3-1.5l3.4,1.2v-6.8h-9.5c-1.4,0-2.5-1.1-2.5-2.5s1.1-2.5,2.5-2.5H66v-6.9		c0-1.4,1.1-2.5,2.5-2.5c1.4,0,2.6,1.1,2.6,2.5v6.9H80.6z M102.3,118c-1.8-9.2-6.9-11.4-9.7-21.4l22.9-19.2		c1.8,10.1,8.4,17.8,9.3,28.7C116,111.3,102.3,118,102.3,118z M5.1,5.3c0-0.6,0.4-1,1-1h124.8c0.5,0,1,0.4,1,1v44.6H5.1V5.3z"/></g></svg>