<svg width="30" height="31" viewBox="0 0 30 31" fill="none" xmlns="http://www.w3.org/2000/svg">
<path d="M14.9978 0.5C11.36 0.5 8.36133 3.49788 8.36133 7.24524C8.36133 10.9426 11.3109 13.9905 14.9978 13.9905C18.6847 13.9905 21.6342 10.9926 21.6342 7.24524C21.6342 3.49788 18.6355 0.5 14.9978 0.5ZM14.9978 9.49365C13.7688 9.49365 12.7856 8.49435 12.7856 7.24524C12.7856 5.99612 13.7688 4.99682 14.9978 4.99682C16.2267 4.99682 17.2099 5.99612 17.2099 7.24524C17.2099 8.49435 16.2267 9.49365 14.9978 9.49365Z" fill="#0032C8"/>
<path d="M23.1579 18.5373C21.4866 19.4866 19.6677 20.1362 17.8488 20.436L23.0105 26.8814C23.6004 27.6309 23.7479 28.6801 23.2071 29.4796C22.3714 30.7787 20.6017 30.8286 19.7168 29.6794L14.9484 23.7336L10.2292 29.6794C9.78678 30.229 9.19688 30.4789 8.55781 30.4789C7.91875 30.4789 7.27969 30.1791 6.83726 29.5795C6.29651 28.83 6.34567 27.5809 6.93558 26.8315L12.0481 20.336C10.2292 19.9863 8.41034 19.3867 6.7881 18.4374C5.75577 17.8378 5.41166 16.5387 6.00156 15.4395C6.59147 14.3902 7.91875 14.0405 8.95108 14.6401C12.6871 16.7885 17.3572 16.7885 21.1424 14.69C22.1748 14.0905 23.5021 14.4902 24.0428 15.5394C24.5836 16.6387 24.1903 17.9377 23.1579 18.5373Z" fill="#0032C8"/>
</svg>
