<svg width="30" height="31" viewBox="0 0 30 31" fill="none" xmlns="http://www.w3.org/2000/svg">
<path d="M4.88338 13.7031C11.4025 10.7799 15.7496 8.85267 17.9247 7.92155C24.135 5.26302 25.4255 4.8012 26.2666 4.78579C26.4516 4.7826 26.8652 4.82979 27.1331 5.05354C27.3594 5.24248 27.4216 5.49771 27.4514 5.67684C27.4812 5.85597 27.5183 6.26404 27.4888 6.58289C27.1522 10.2222 25.696 19.0539 24.9552 23.13C24.6417 24.8548 24.0245 25.4331 23.4269 25.4897C22.1283 25.6127 21.1422 24.6064 19.8844 23.7578C17.9162 22.4299 16.8043 21.6033 14.8938 20.3076C12.6859 18.8101 14.1172 17.9871 15.3755 16.642C15.7048 16.29 21.4266 10.9336 21.5373 10.4477C21.5512 10.3869 21.564 10.1604 21.4333 10.0408C21.3025 9.92114 21.1095 9.96205 20.9703 9.99458C20.7729 10.0407 17.6287 12.1796 11.5376 16.4113C10.6452 17.0421 9.83678 17.3494 9.1125 17.3333C8.31404 17.3155 6.77813 16.8686 5.63634 16.4866C4.23588 16.0181 3.12283 15.7704 3.21975 14.9747C3.27023 14.5602 3.82478 14.1364 4.88338 13.7031Z" fill="#0032C8"/>
</svg>
