<svg width="30" height="31" viewBox="0 0 30 31" fill="none" xmlns="http://www.w3.org/2000/svg">
<path d="M29.367 8.62247C29.1964 8.01843 28.8621 7.46767 28.3977 7.02537C27.9332 6.583 27.355 6.26461 26.7208 6.10202C24.3852 5.5 15 5.5 15 5.5C15 5.5 5.61477 5.5 3.27921 6.10202C2.64504 6.26461 2.06676 6.583 1.60235 7.02537C1.13793 7.46767 0.803629 8.01843 0.632955 8.62247C0.196847 10.8911 -0.0148026 13.1937 0.000803929 15.5C-0.0148026 17.8063 0.196847 20.1089 0.632955 22.3775C0.803629 22.9816 1.13793 23.5323 1.60235 23.9746C2.06676 24.4169 2.64504 24.7353 3.27921 24.8979C5.61477 25.5 15 25.5 15 25.5C15 25.5 24.3852 25.5 26.7208 24.8979C27.355 24.7353 27.9332 24.4169 28.3977 23.9746C28.8621 23.5323 29.1964 22.9816 29.367 22.3775C29.8032 20.1089 30.0148 17.8063 29.9992 15.5C30.0148 13.1937 29.8032 10.8911 29.367 8.62247ZM12.0001 19.7857V11.2143L19.789 15.5L12.0001 19.7857Z" fill="#0032C8"/>
</svg>
