<svg width="30" height="31" viewBox="0 0 30 31" fill="none" xmlns="http://www.w3.org/2000/svg">
<g clip-path="url(#clip0_1405_59718)">
<path d="M17.4847 17.4847C15.5765 19.4536 15.4378 21.9082 15.273 27.2857C20.2862 27.2857 23.7469 27.2684 25.5337 25.5337C27.2684 23.7469 27.2857 20.1214 27.2857 15.273C21.9082 15.4464 19.4536 15.5765 17.4847 17.4847ZM3 15.273C3 20.1214 3.01735 23.7469 4.75204 25.5337C6.53878 27.2684 9.99949 27.2857 15.0128 27.2857C14.8393 21.9082 14.7092 19.4536 12.801 17.4847C10.8321 15.5765 8.37755 15.4378 3 15.273ZM15.0128 3C10.0082 3 6.53878 3.01735 4.75204 4.75204C3.01735 6.53878 3 10.1643 3 15.0128C8.37755 14.8393 10.8321 14.7092 12.801 12.801C14.7092 10.8321 14.848 8.37755 15.0128 3ZM17.4847 12.801C15.5765 10.8321 15.4378 8.37755 15.273 3C20.2862 3 23.7469 3.01735 25.5337 4.75204C27.2684 6.53878 27.2857 10.1643 27.2857 15.0128C21.9082 14.8393 19.4536 14.7092 17.4847 12.801Z" fill="#0032C8"/>
</g>
<defs>
<clipPath id="clip0_1405_59718">
<rect width="24.2857" height="24.2857" fill="white" transform="translate(3 3)"/>
</clipPath>
</defs>
</svg>
