<svg width="96" height="29" viewBox="0 0 96 29" fill="none" xmlns="http://www.w3.org/2000/svg">
<path d="M5.3 28.2918C5.1 28.2918 4.9 28.2918 4.7 28.2918C4.3 28.2918 3.79999 28.2918 3.39999 28.1918C2.99999 28.0918 2.6 27.9918 2.2 27.7918C1.8 27.5918 1.5 27.3918 1.2 27.0918C0.899997 26.7918 0.7 26.4918 0.5 26.0918C0.3 25.6918 0.200006 25.2918 0.100006 24.8918C6.10203e-06 24.3918 0 23.8918 0 23.5918C0 23.3918 0 22.8918 0 22.8918V5.89178C0 5.89178 0 5.39181 0 5.29181C0 4.89181 6.10203e-06 4.39176 0.100006 3.99176C0.200006 3.59176 0.3 3.19181 0.5 2.79181C0.7 2.39181 0.899997 2.09181 1.2 1.79181C1.5 1.49181 1.8 1.2918 2.2 1.0918C2.6 0.891797 2.99999 0.791772 3.39999 0.691772C3.89999 0.591772 4.4 0.591797 4.7 0.591797H5.3H90.1H90.8C91.2 0.591797 91.7 0.591772 92.1 0.691772C92.5 0.791772 92.9 0.891797 93.3 1.0918C93.7 1.2918 94 1.49181 94.3 1.79181C94.6 2.09181 94.8 2.39181 95 2.79181C95.2 3.19181 95.3 3.59176 95.4 3.99176C95.5 4.39176 95.5 4.89178 95.5 5.39178C95.5 5.59178 95.5 5.79176 95.5 5.99176C95.5 6.29176 95.5 6.49181 95.5 6.79181V22.0918C95.5 22.3918 95.5 22.5918 95.5 22.8918C95.5 23.0918 95.5 23.2918 95.5 23.5918C95.5 23.9918 95.5 24.4918 95.4 24.8918C95.3 25.2918 95.2 25.6918 95 26.0918C94.8 26.4918 94.6 26.7918 94.3 27.0918C94 27.3918 93.7 27.5918 93.3 27.7918C92.9 27.9918 92.5 28.0918 92.1 28.1918C91.6 28.2918 91.2 28.2918 90.8 28.2918C90.6 28.2918 90.4 28.2918 90.2 28.2918H89.4H5.3Z" fill="black"/>
<path d="M35.2996 19.4919H31.8996L31.0996 21.792H29.5996L32.8996 13.292H34.2996L37.6996 21.792H36.0996L35.2996 19.4919ZM32.2996 18.292H34.7996L33.8996 15.892C33.7996 15.592 33.5996 15.192 33.4996 14.792C33.3996 15.192 33.2996 15.492 33.1996 15.892L32.2996 18.292Z" fill="white"/>
<path d="M38.3002 16.9916C38.3002 16.4916 38.3002 15.9916 38.3002 15.4916H39.7002C39.8002 15.7916 39.8002 15.9916 39.8002 16.2916C40.4002 15.6916 41.0002 15.3916 41.7002 15.3916C42.1002 15.3916 42.5002 15.4916 42.9002 15.6916C43.3002 15.8916 43.6002 16.1916 43.8002 16.6916C44.0002 17.1916 44.1002 17.6916 44.1002 18.3916C44.1002 19.0916 44.0002 19.7916 43.7002 20.2916C43.4002 20.7916 43.1002 21.1916 42.6002 21.4916C42.2002 21.7916 41.6002 21.8916 41.0002 21.8916C40.6002 21.8916 40.1002 21.7916 39.7002 21.6916V24.2916L38.2002 24.3916L38.3002 16.9916ZM42.1002 20.1916C42.4002 19.7916 42.5002 19.1916 42.5002 18.4916C42.5002 17.7916 42.4002 17.2916 42.1002 16.9916C41.8002 16.6916 41.5002 16.4916 41.1002 16.4916C40.8002 16.4916 40.6002 16.5916 40.3002 16.6916C40.1002 16.7916 39.8002 16.9916 39.6002 17.1916V20.5916C39.7002 20.6916 39.9002 20.6916 40.1002 20.7916C40.3002 20.7916 40.5002 20.8916 40.7002 20.8916C41.4002 20.7916 41.8002 20.5916 42.1002 20.1916Z" fill="white"/>
<path d="M44.8998 16.9916C44.8998 16.4916 44.8998 15.9916 44.8998 15.4916H46.2998C46.3998 15.7916 46.3998 15.9916 46.3998 16.2916C46.9998 15.6916 47.5998 15.3916 48.2998 15.3916C48.6998 15.3916 49.0998 15.4916 49.4998 15.6916C49.8998 15.8916 50.1998 16.1916 50.3998 16.6916C50.5998 17.1916 50.6998 17.6916 50.6998 18.3916C50.6998 19.0916 50.5998 19.7916 50.2998 20.2916C49.9998 20.7916 49.6998 21.1916 49.1998 21.4916C48.7998 21.7916 48.1998 21.8916 47.5998 21.8916C47.1998 21.8916 46.6998 21.7916 46.2998 21.6916V24.2916L44.7998 24.3916L44.8998 16.9916ZM48.6998 20.1916C48.9998 19.7916 49.0998 19.1916 49.0998 18.4916C49.0998 17.7916 48.9998 17.2916 48.6998 16.9916C48.3998 16.6916 48.0998 16.4916 47.6998 16.4916C47.3998 16.4916 47.1998 16.5916 46.8998 16.6916C46.6998 16.7916 46.3998 16.9916 46.1998 17.1916V20.5916C46.2998 20.6916 46.4998 20.6916 46.6998 20.7916C46.8998 20.7916 47.0998 20.8916 47.2998 20.8916C47.9998 20.7916 48.3998 20.5916 48.6998 20.1916Z" fill="white"/>
<path d="M53.3004 21.2918C52.7004 20.9918 52.2004 20.4918 51.9004 19.7918C51.6004 19.1918 51.4004 18.3918 51.4004 17.4918C51.4004 16.5918 51.6004 15.6918 52.0004 15.0918C52.4004 14.3918 52.9004 13.8918 53.6004 13.5918C54.3004 13.2918 55.0004 13.0918 55.8004 13.0918C56.3004 13.0918 56.8004 13.1918 57.2004 13.2918C57.6004 13.3918 58.1004 13.5918 58.4004 13.6918L58.0004 14.7918C57.2004 14.3918 56.5004 14.2918 55.8004 14.2918C55.2004 14.2918 54.7004 14.3918 54.2004 14.6918C53.8004 14.9918 53.4004 15.2918 53.2004 15.7918C52.9004 16.2918 52.8004 16.8918 52.8004 17.5918C52.8004 18.1918 52.9004 18.6918 53.1004 19.1918C53.3004 19.6918 53.6004 19.9918 54.0004 20.2918C54.4004 20.5918 54.9004 20.6918 55.6004 20.6918C55.9004 20.6918 56.2004 20.6918 56.5004 20.5918C56.8004 20.4918 57.0004 20.4918 57.3004 20.3918V18.6918H55.3004V17.5918H58.7004V21.1918C58.2004 21.3918 57.7004 21.5918 57.2004 21.6918C56.7004 21.7918 56.1004 21.8918 55.6004 21.8918C54.7004 21.7918 53.9004 21.6918 53.3004 21.2918Z" fill="white"/>
<path d="M63.7996 21.692C63.6996 21.392 63.6996 21.192 63.6996 20.892C63.4996 21.192 63.1996 21.392 62.7996 21.592C62.4996 21.792 61.9996 21.892 61.5996 21.892C61.1996 21.892 60.8996 21.792 60.5996 21.692C60.2996 21.592 60.0996 21.392 59.8996 21.092C59.6996 20.792 59.5996 20.492 59.5996 20.092C59.5996 19.492 59.7996 18.992 60.2996 18.592C60.6996 18.192 61.4996 18.092 62.4996 18.092C62.8996 18.092 63.2996 18.092 63.5996 18.192V17.892C63.5996 17.292 63.4996 16.992 63.2996 16.692C63.0996 16.492 62.6996 16.392 62.2996 16.392C61.9996 16.392 61.6996 16.3919 61.2996 16.4919C60.9996 16.5919 60.5996 16.692 60.3996 16.792L60.1996 15.792C60.4996 15.692 60.7996 15.5919 61.1996 15.4919C61.5996 15.3919 62.0996 15.292 62.4996 15.292C62.9996 15.292 63.4996 15.392 63.8996 15.592C64.2996 15.792 64.5996 15.9919 64.7996 16.4919C64.9996 16.8919 65.0996 17.392 65.0996 18.092V20.592C65.0996 20.892 65.0996 21.292 65.0996 21.792H63.7996V21.692ZM62.8996 20.592C63.1996 20.492 63.3996 20.292 63.5996 20.092V18.892C63.1996 18.892 62.8996 18.792 62.5996 18.792C61.9996 18.792 61.5996 18.892 61.3996 19.092C61.1996 19.292 61.0996 19.492 61.0996 19.892C61.0996 20.192 61.1996 20.392 61.3996 20.592C61.5996 20.792 61.7996 20.792 62.0996 20.792C62.2996 20.792 62.5996 20.692 62.8996 20.592Z" fill="white"/>
<path d="M66.2002 20.1918V12.6918L67.6002 12.5918V19.8918C67.6002 20.1918 67.6002 20.3918 67.7002 20.4918C67.8002 20.5918 67.9002 20.6918 68.1002 20.6918C68.2002 20.6918 68.3002 20.6918 68.5002 20.5918L68.7002 21.5918C68.6002 21.6918 68.4002 21.6918 68.2002 21.6918C68.0002 21.6918 67.8002 21.7918 67.6002 21.7918C66.7002 21.8918 66.2002 21.2918 66.2002 20.1918Z" fill="white"/>
<path d="M69.7998 20.1918V12.6918L71.1998 12.5918V19.8918C71.1998 20.1918 71.1998 20.3918 71.2998 20.4918C71.3998 20.5918 71.4998 20.6918 71.6998 20.6918C71.7998 20.6918 71.8998 20.6918 72.0998 20.5918L72.2998 21.5918C72.1998 21.6918 71.9998 21.6918 71.7998 21.6918C71.5998 21.6918 71.3998 21.7918 71.1998 21.7918C70.3998 21.8918 69.7998 21.2918 69.7998 20.1918Z" fill="white"/>
<path d="M78.3998 18.792H74.1998C74.2998 20.092 74.8998 20.792 76.0998 20.792C76.3998 20.792 76.6998 20.792 76.9998 20.692C77.2998 20.592 77.5998 20.492 77.8998 20.392L78.1998 21.392C77.4998 21.692 76.6998 21.892 75.7998 21.892C75.0998 21.892 74.5998 21.7919 74.0998 21.4919C73.5998 21.1919 73.2998 20.892 73.0998 20.392C72.8998 19.892 72.7998 19.392 72.7998 18.692C72.7998 17.992 72.8998 17.392 73.1998 16.892C73.4998 16.392 73.7998 15.992 74.1998 15.692C74.5998 15.392 75.1998 15.292 75.6998 15.292C76.2998 15.292 76.7998 15.392 77.1998 15.692C77.5998 15.992 77.8998 16.392 78.0998 16.792C78.2998 17.292 78.3998 17.792 78.3998 18.292V18.792ZM76.8998 17.792C76.8998 17.292 76.6998 16.892 76.4998 16.692C76.2998 16.392 75.9998 16.292 75.5998 16.292C75.1998 16.292 74.8998 16.392 74.6998 16.692C74.3998 16.992 74.2998 17.292 74.1998 17.792H76.8998Z" fill="white"/>
<path d="M79.4004 16.9914C79.4004 16.6914 79.4004 16.0914 79.4004 15.3914H80.8004C80.8004 15.5914 80.8004 15.7914 80.9004 15.9914C80.9004 16.2914 80.9004 16.3914 80.9004 16.5914C81.1004 16.2914 81.2004 16.0914 81.4004 15.8914C81.6004 15.6914 81.7004 15.5914 82.0004 15.3914C82.2004 15.2914 82.5004 15.1914 82.7004 15.1914C82.9004 15.1914 83.1004 15.1914 83.3004 15.2914L83.1004 16.5914C83.0004 16.5914 82.8004 16.4914 82.6004 16.4914C82.3004 16.4914 82.0004 16.5914 81.7004 16.7914C81.4004 16.9914 81.2004 17.2914 80.9004 17.6914V21.7914H79.5004L79.4004 16.9914Z" fill="white"/>
<path d="M84.0996 24.2922C83.8996 24.2922 83.6996 24.1922 83.5996 24.1922L83.8996 23.1922C83.9996 23.1922 84.0996 23.2922 84.2996 23.2922C84.4996 23.2922 84.5996 23.2922 84.6996 23.2922C85.2996 23.2922 85.7996 22.8922 86.0996 22.0922L86.1996 21.8922L83.8996 15.4922H85.4996L86.6996 19.0922C86.8996 19.6922 86.9996 20.1922 87.0996 20.4922C87.1996 19.9922 87.2996 19.5922 87.4996 19.0922L88.6996 15.4922H90.1996L87.8996 21.8922C87.6996 22.4922 87.3996 22.9922 87.1996 23.3922C86.8996 23.7922 86.5996 23.9922 86.2996 24.1922C85.9996 24.3922 85.4996 24.4922 84.9996 24.4922C84.4996 24.3922 84.2996 24.3922 84.0996 24.2922Z" fill="white"/>
<path d="M30.2002 9.29224C29.9002 9.09224 29.6002 8.89219 29.5002 8.49219C29.3002 8.19219 29.2002 7.79224 29.2002 7.29224C29.2002 6.79224 29.3002 6.39222 29.5002 6.09222C29.7002 5.79222 29.9002 5.49224 30.3002 5.29224C30.6002 5.09224 31.0002 4.99219 31.5002 4.99219C31.9002 4.99219 32.3002 5.09224 32.6002 5.29224C32.9002 5.49224 33.2002 5.69222 33.3002 6.09222C33.5002 6.39222 33.6002 6.7922 33.6002 7.1922C33.6002 7.6922 33.5002 8.09221 33.3002 8.39221C33.1002 8.69221 32.9002 8.9922 32.5002 9.1922C32.2002 9.3922 31.8002 9.49219 31.3002 9.49219C30.9002 9.59219 30.6002 9.49224 30.2002 9.29224ZM32.2002 8.79224C32.4002 8.69224 32.6002 8.4922 32.7002 8.1922C32.8002 7.8922 32.9002 7.69224 32.9002 7.29224C32.9002 6.99224 32.9002 6.69219 32.8002 6.49219C32.7002 6.19219 32.6002 6.09221 32.4002 5.89221C32.2002 5.69221 31.9002 5.6922 31.6002 5.6922C31.3002 5.6922 31.0002 5.79221 30.8002 5.89221C30.6002 6.09221 30.4002 6.19219 30.3002 6.49219C30.2002 6.79219 30.1002 6.99224 30.1002 7.29224C30.1002 7.59224 30.2002 7.8922 30.3002 8.1922C30.4002 8.4922 30.6002 8.59224 30.8002 8.79224C31.0002 8.99224 31.3002 8.99219 31.6002 8.99219C31.7002 8.99219 32.0002 8.99224 32.2002 8.79224Z" fill="white"/>
<path d="M35.1998 5.79144H33.7998L33.8998 5.19141H37.2998L37.1998 5.79144H35.8998V9.49139H35.0998V5.79144H35.1998Z" fill="white"/>
<path d="M41.4004 9.59143H40.5004L39.2004 7.69141H38.7004V9.59143H37.9004V5.19141H38.7004V6.99139H39.1004L40.0004 5.69141C40.1004 5.49141 40.3004 5.39144 40.4004 5.29144C40.5004 5.19144 40.7004 5.19141 40.9004 5.19141C41.1004 5.19141 41.2004 5.19144 41.3004 5.29144L41.1004 5.89142C41.0004 5.89142 40.9004 5.79144 40.9004 5.79144C40.8004 5.79144 40.7004 5.79142 40.7004 5.89142C40.6004 5.89142 40.6004 5.99143 40.5004 6.09143L39.7004 7.19141L41.4004 9.59143Z" fill="white"/>
<path d="M41.8998 5.19141H43.0998C43.6998 5.19141 44.0998 5.29139 44.3998 5.49139C44.6998 5.69139 44.7998 6.09139 44.7998 6.49139C44.7998 6.79139 44.6998 6.99144 44.5998 7.29144C44.4998 7.49144 44.2998 7.69144 43.9998 7.79144C43.7998 7.89144 43.4998 7.99139 43.1998 7.99139C42.9998 7.99139 42.7998 7.99142 42.5998 7.89142V9.59143H41.7998V5.19141H41.8998ZM43.7998 7.09143C43.9998 6.89143 43.9998 6.79139 43.9998 6.49139C43.9998 6.19139 43.8998 5.99142 43.6998 5.89142C43.4998 5.79142 43.2998 5.69141 42.9998 5.69141H42.5998V7.19141C42.7998 7.19141 42.8998 7.19141 42.9998 7.19141C43.3998 7.39141 43.6998 7.29143 43.7998 7.09143Z" fill="white"/>
<path d="M46.2998 9.29224C45.9998 9.09224 45.6998 8.89219 45.5998 8.49219C45.3998 8.19219 45.2998 7.79224 45.2998 7.29224C45.2998 6.79224 45.3998 6.39222 45.5998 6.09222C45.7998 5.79222 45.9998 5.49224 46.3998 5.29224C46.6998 5.09224 47.0998 4.99219 47.5998 4.99219C47.9998 4.99219 48.3998 5.09224 48.6998 5.29224C48.9998 5.49224 49.2998 5.69222 49.3998 6.09222C49.5998 6.39222 49.6998 6.7922 49.6998 7.1922C49.6998 7.6922 49.5998 8.09221 49.3998 8.39221C49.1998 8.69221 48.9998 8.9922 48.5998 9.1922C48.2998 9.3922 47.8998 9.49219 47.3998 9.49219C46.9998 9.59219 46.5998 9.49224 46.2998 9.29224ZM48.2998 8.79224C48.4998 8.69224 48.6998 8.4922 48.7998 8.1922C48.8998 7.8922 48.9998 7.69224 48.9998 7.29224C48.9998 6.99224 48.9998 6.69219 48.8998 6.49219C48.7998 6.19219 48.6998 6.09221 48.4998 5.89221C48.2998 5.69221 47.9998 5.6922 47.6998 5.6922C47.3998 5.6922 47.0998 5.79221 46.8998 5.89221C46.6998 6.09221 46.4998 6.19219 46.3998 6.49219C46.2998 6.79219 46.1998 6.99224 46.1998 7.29224C46.1998 7.59224 46.2998 7.8922 46.3998 8.1922C46.4998 8.4922 46.6998 8.59224 46.8998 8.79224C47.0998 8.99224 47.3998 8.99219 47.6998 8.99219C47.7998 8.99219 48.0998 8.99224 48.2998 8.79224Z" fill="white"/>
<path d="M53.5 9.5918V7.19177C53.5 6.89177 53.5 6.49177 53.5 6.19177L51.3 9.5918H50.5V5.19177H51.2V7.69177C51.2 7.99177 51.2 8.2918 51.2 8.5918L53.4 5.19177H54.3V9.5918H53.5ZM51.8 4.79181C51.6 4.69181 51.5 4.59176 51.4 4.49176C51.3 4.39176 51.3 4.1918 51.2 4.0918H51.7C51.8 4.3918 52 4.5918 52.3 4.5918C52.6 4.5918 52.8 4.3918 52.9 4.0918H53.4C53.4 4.2918 53.3 4.39176 53.2 4.49176C53.1 4.59176 53 4.69181 52.8 4.79181C52.6 4.89181 52.4 4.89178 52.2 4.89178C52.2 4.89178 52 4.89181 51.8 4.79181Z" fill="white"/>
<path d="M56.3004 5.79144H54.9004L55.0004 5.19141H58.4004L58.3004 5.79144H57.0004V9.49139H56.2004L56.3004 5.79144Z" fill="white"/>
<path d="M59 5.19141H61.6L61.5 5.79144H59.8V6.99139H61.4V7.59143H59.8V8.89142H61.6L61.5 9.49139H59V5.19141Z" fill="white"/>
<path d="M66.9004 7.39142C67.1004 7.49142 67.2004 7.59144 67.3004 7.79144C67.4004 7.99144 67.4004 8.09144 67.4004 8.29144C67.4004 8.59144 67.3004 8.79142 67.2004 8.89142C67.1004 9.09142 66.9004 9.19144 66.7004 9.29144C66.5004 9.39144 66.2004 9.49139 65.8004 9.49139H64.4004V5.19141H65.8004C66.3004 5.19141 66.6004 5.29139 66.8004 5.49139C67.0004 5.69139 67.1004 5.89141 67.1004 6.19141C67.1004 6.49141 67.0004 6.69142 66.9004 6.89142C66.7004 7.09142 66.6004 7.19144 66.3004 7.29144C66.6004 7.19144 66.7004 7.29142 66.9004 7.39142ZM65.2004 6.99139H65.7004C65.9004 6.99139 66.0004 6.99142 66.1004 6.89142C66.2004 6.79142 66.3004 6.69143 66.4004 6.59143C66.5004 6.49143 66.5004 6.39144 66.5004 6.29144C66.5004 6.09144 66.4004 5.99142 66.3004 5.89142C66.2004 5.79142 66.0004 5.79144 65.7004 5.79144H65.2004V6.99139ZM66.4004 8.79144C66.6004 8.69144 66.6004 8.49144 66.6004 8.29144C66.6004 7.99144 66.5004 7.89141 66.3004 7.69141C66.1004 7.59141 65.9004 7.49139 65.6004 7.49139H65.1004V8.99139H65.7004C66.0004 8.99139 66.3004 8.89144 66.4004 8.79144Z" fill="white"/>
<path fill-rule="evenodd" clip-rule="evenodd" d="M18.9002 5.19141H10.9002C7.10019 5.19141 5.7002 6.59142 5.7002 10.3914V18.3914C5.7002 22.1914 7.10019 23.5914 10.9002 23.5914H18.9002C22.7002 23.5914 24.1002 22.1914 24.1002 18.3914V10.3914C24.1002 6.59142 22.7002 5.19141 18.9002 5.19141Z" fill="#C8102E"/>
<path d="M9.3002 14.3916H9.8002V16.7916H9.3002V15.7916H8.2002V16.7916H7.7002V14.3916H8.2002V15.3916H9.3002V14.3916ZM12.0002 15.7916C12.0002 16.1916 11.8002 16.3916 11.5002 16.3916C11.2002 16.3916 11.0002 16.1916 11.0002 15.7916V14.3916H10.5002V15.7916C10.5002 16.4916 10.9002 16.8916 11.5002 16.8916C12.2002 16.8916 12.5002 16.4916 12.5002 15.7916V14.3916H12.0002V15.7916ZM17.7002 15.9916L17.2002 14.3916H16.8002L16.3002 15.9916L15.8002 14.3916H15.3002L16.1002 16.7916H16.5002L17.0002 15.1916L17.5002 16.7916H17.9002L18.7002 14.3916H18.2002L17.7002 15.9916ZM19.6002 15.7916H20.5002V15.3916H19.6002V14.8916H20.9002V14.4916H19.1002V16.8916H20.9002V16.4916H19.6002V15.7916ZM21.5002 16.7916H22.0002V14.3916H21.5002V16.7916ZM13.5002 16.2916L13.3002 16.7916H12.8002L13.8002 14.3916H14.2002L15.2002 16.7916H14.7002L14.5002 16.2916H13.5002ZM13.7002 15.8916H14.4002L14.0002 14.9916L13.7002 15.8916Z" fill="white"/>
<path d="M14.8998 11.2914C13.1998 11.2914 11.7998 9.89141 11.7998 8.19141H12.1998C12.1998 9.59141 13.3998 10.7914 14.7998 10.7914C16.2998 10.7914 17.3998 9.59141 17.3998 8.19141H17.7998C17.8998 9.99141 16.4998 11.2914 14.8998 11.2914Z" fill="white"/>
</svg>
