<svg id="Layer_1" data-name="Layer 1" xmlns="http://www.w3.org/2000/svg" viewBox="0 0 213.92 167.98"><defs><style>.cls-1{fill:#6fc5ff;}.cls-2{fill:#485067;}.cls-3{fill:#ddf2eb;}.cls-4{fill:#aebdb6;}.cls-5{fill:#423745;}.cls-6{fill:#65586a;}.cls-7{fill:#281f30;}.cls-8{fill:#fff;}</style></defs><path class="cls-1" d="M126.2,0C97.65,0,72.29,7.26,56.27,18.5v29C72.29,36.27,97.64,29,126.2,29c28.75,0,54.27,7.36,70.27,18.73A52.54,52.54,0,0,1,210,62.4c2.61-4.24,3.95-7.21,3.95-15.74C213.92,20.89,174.65,0,126.2,0Z"/><path class="cls-2" d="M126.33,3.15c-28.14,0-53.13,7.16-68.92,18.24V50C73.2,38.89,98.19,31.73,126.33,31.73c28.34,0,53.48,7.25,69.25,18.46A46.66,46.66,0,0,1,208.5,63.42a27.35,27.35,0,0,0,4.22-13.23c0-.35.05-.7.05-1C212.77,23.74,174.07,3.15,126.33,3.15Z"/><path class="cls-3" d="M163.55,71.21c-12.29-10.45-30.44,9.11-75-18.59C50.79,29.09,67.15,7.39,53.86,9.75c-.77.14-31.93,17.86-31.93,17.86L132.86,157s34.79-17.54,35.18-17.8l0,0h0c2.1-1.42,3.42-4.37,3.42-8.49v-41C171.49,81.11,168.28,75.24,163.55,71.21Z"/><path class="cls-4" d="M145.53,77.88c-10.72-9.12-26.56,3.23-65.4-20.95C47.13,36.39,52,15.21,40.38,17.27c-.67.12-27.87,15.58-27.87,15.58L118.75,163.77s30.37-15.31,30.7-15.53l0,0h0c1.84-1.24,3-3.82,3-7.42V94C152.47,86.52,149.67,81.4,145.53,77.88Z"/><path class="cls-5" d="M129.26,86.64l-106-61.22c-2.87-1.65-5.49-1.71-7.49-.5h0L4.08,31.59,11.92,77c0,8.29,5.09,18,11.31,21.61l101.64,68.54s11.86-6.8,12.09-7h0c2.22-1.48,3.61-4.59,3.61-8.92v-43C140.57,100,135.48,90.23,129.26,86.64Z"/><path class="cls-6" d="M11.31,105.41l106,61.22c6.22,3.59,11.31-.26,11.31-8.55v-43c0-8.3-5.09-18-11.31-21.62l-106-61.22C5.09,28.67,0,32.52,0,40.81v43C0,92.09,5.09,101.82,11.31,105.41Z"/><path class="cls-7" d="M114.16,97.05,14.5,39.33c-5.32-3.07-9.67.22-9.67,7.31V83.37c0,7.09,4.35,15.4,9.67,18.47l99.66,57.72c5.32,3.07,9.67-.22,9.67-7.31V115.52C123.83,108.43,119.48,100.12,114.16,97.05Z"/><path class="cls-5" d="M23,44.24,14.5,39.33c-5.32-3.07-9.67.22-9.67,7.31V62.38Z"/><path class="cls-5" d="M42.66,55.64,6.58,91.73c1.75,4.35,4.65,8.22,7.92,10.11l28.07,16.25L82.15,78.51Z"/><path class="cls-5" d="M123.83,123.13v-7.61a20.26,20.26,0,0,0-.58-4.64L89.09,145l8.12,4.7Z"/><path class="cls-5" d="M109,94.06l-7.15-4.15L62.26,129.5l7.14,4.14Z"/><polygon class="cls-8" points="53.94 72.05 81.61 88.02 81.61 82.84 53.94 66.87 53.94 72.05"/><path class="cls-1" d="M212.75,74.73v-27h0A27.37,27.37,0,0,1,208.5,61C205.27,66.21,200.33,71,194,75.25c-8.54,5.72-18,10.2-31.7,14.8a8.12,8.12,0,0,0-5.45,6.5v.06l.71,23.62c32.45-8.85,55.21-25.44,55.21-45C212.77,75.08,212.75,74.9,212.75,74.73Z"/><path class="cls-2" d="M213.87,49.63a27.8,27.8,0,0,1-4.3,13.44c-3.26,5.32-8.28,10.21-14.68,14.5-9.4,6.29-19.93,11.1-35.75,16.19a3.27,3.27,0,0,0-2.28,3.11v22.31a3.28,3.28,0,0,0,4.2,3.14c31.25-9.19,52.86-25.57,52.86-44.75C213.92,77.39,213.87,49.63,213.87,49.63Z"/></svg>