<svg xmlns="http://www.w3.org/2000/svg" xmlns:xlink="http://www.w3.org/1999/xlink" viewBox="0 0 83.6339 109.8302"><defs><style>.cls-1{fill:#f0f0f0;}.cls-2{fill:url(#linear-gradient);}.cls-3{fill:#0032c8;}.cls-4{fill:url(#Безымянный_градиент_221);}.cls-5{fill:#b0c9f7;}.cls-6{fill:#80a9f5;}</style><linearGradient id="linear-gradient" x1="39.0864" y1="63.1507" x2="43.4818" y2="125.611" gradientUnits="userSpaceOnUse"><stop offset="0" stop-color="#090450"/><stop offset="1" stop-color="#141282"/></linearGradient><linearGradient id="Безымянный_градиент_221" x1="0.1831" y1="49.8758" x2="10.3483" y2="49.8758" gradientUnits="userSpaceOnUse"><stop offset="0" stop-color="#090450"/><stop offset="1" stop-color="#0032c8"/></linearGradient></defs><g id="Слой_2" data-name="Слой 2"><path class="cls-1" d="M1.34,102.033S-.1789,91.5058,11.6642,90.696s69.3816.5595,69.3816.5595-2.1694,12.397.26,17.4582c-11.1346-.1012-75.5125,0-75.5125,0S.9618,106.3939,1.34,102.033Z"/><path class="cls-2" d="M82.4192,107.43H9.5386c-1.4847,0-7.1532.385-7.0182-5.9583a7.4009,7.4009,0,0,1,3.3579-6.1,9.0625,9.0625,0,0,1,5.3029-1.6229H77.5605c5.06,0,5.06-6.4889,5.06-6.4889l-70.787-.0821S1.3058,93.4089.1831,99.7652a11.4752,11.4752,0,0,0-.0008,4.0819A7.32,7.32,0,0,0,7.34,109.83H82.4192a1.2,1.2,0,1,0,0-2.4Z"/><path class="cls-3" d="M78.1317.1422H10.3747V92.0689h67.757A4.661,4.661,0,0,0,82.62,87.2182V4.6924A4.4024,4.4024,0,0,0,78.1317.1422Z"/><path class="cls-4" d="M10.3483,0S-.5838,2.1778.226,10.6039.1831,99.7516.1831,99.7516s3.2821-7.8409,10.1652-7.8409Z"/><rect class="cls-5" x="20.6954" y="94.9491" width="53.2839" height="0.48" rx="0.1518"/><path class="cls-5" d="M75.1794,100.4677c0,.0838-.1085.2419-.2059.2419H13.3524c-.0974,0-.3376-.1581-.3376-.2419v-.2246c0-.0838.24-.0136.3376-.0136H74.9735c.0974,0,.2059-.07.2059.0136Z"/><rect class="cls-5" x="37.0166" y="104.7899" width="39.3629" height="0.7201" rx="0.3037"/><path class="cls-6" d="M12.7748,82.086a.24.24,0,0,1-.24-.24V48.0035a.24.24,0,1,1,.48,0V81.846A.24.24,0,0,1,12.7748,82.086Z"/><path class="cls-6" d="M12.7748,42.9632a.24.24,0,0,1-.24-.24V26.4019a.24.24,0,1,1,.48,0V42.7231A.24.24,0,0,1,12.7748,42.9632Z"/><path class="cls-6" d="M12.7748,12.2409a.24.24,0,0,1-.24-.24V2.88a.24.24,0,1,1,.48,0v9.1207A.24.24,0,0,1,12.7748,12.2409Z"/></g></svg>