<svg id="Layer_1" data-name="Layer 1" xmlns="http://www.w3.org/2000/svg" viewBox="0 0 101.2372 87.0282"><defs><style>.cls-1{fill:#375a64;}.cls-2{fill:#2b454e;}.cls-3{fill:#1a2e35;}.cls-4{fill:#ffc800;}.cls-5,.cls-7,.cls-9{fill:#3797f5;}.cls-13,.cls-15,.cls-6,.cls-7{opacity:0.2;}.cls-8{opacity:0.15;}.cls-11,.cls-12,.cls-9{opacity:0.3;}.cls-10{opacity:0.4;}.cls-14,.cls-15{fill:#01895d;}.cls-16{fill:#a6e473;}.cls-17{fill:#00c832;}</style></defs><rect class="cls-1" y="26.0147" width="19.8711" height="61.0135"/><rect class="cls-2" x="4.9277" y="19.8771" width="14.8691" height="6.1377"/><rect class="cls-1" x="6.1657" y="20.824" width="1.2711" height="4.2439"/><rect class="cls-1" x="8.3901" y="20.824" width="1.2711" height="4.2439"/><rect class="cls-1" x="10.6145" y="20.824" width="1.2711" height="4.2439"/><rect class="cls-1" x="12.8389" y="20.824" width="1.2711" height="4.2439"/><rect class="cls-1" x="15.0633" y="20.824" width="1.2711" height="4.2439"/><rect class="cls-1" x="17.2877" y="20.824" width="1.2711" height="4.2439"/><rect class="cls-1" x="19.7968" y="19.8771" width="6.7614" height="6.1377"/><rect class="cls-2" x="20.7448" y="20.824" width="1.0812" height="4.2439"/><rect class="cls-2" x="22.6369" y="20.824" width="1.0812" height="4.2439"/><rect class="cls-2" x="24.529" y="20.824" width="1.0812" height="4.2439"/><rect class="cls-2" x="19.7968" y="26.0147" width="10.1137" height="61.0135"/><rect class="cls-3" x="7.7479" y="16.7673" width="0.455" height="3.1098"/><rect class="cls-3" x="16.5216" y="16.7673" width="0.455" height="3.1098"/><rect class="cls-4" x="5.7326" y="11.3293" width="13.2593" height="5.438"/><rect class="cls-3" x="4.0676" y="30.2171" width="3.6678" height="5.6163"/><rect class="cls-3" x="11.5336" y="30.2171" width="3.6677" height="5.6163"/><rect class="cls-3" x="4.0676" y="39.0675" width="3.6678" height="5.6163"/><rect class="cls-3" x="11.5336" y="39.0675" width="3.6677" height="5.6163"/><rect class="cls-3" x="4.0676" y="47.918" width="3.6678" height="5.6163"/><rect class="cls-3" x="11.5336" y="47.918" width="3.6677" height="5.6163"/><rect class="cls-3" x="4.0676" y="56.7684" width="3.6678" height="5.6163"/><rect class="cls-3" x="11.5336" y="56.7684" width="3.6677" height="5.6163"/><rect class="cls-3" x="4.0676" y="65.6189" width="3.6678" height="5.6163"/><rect class="cls-3" x="11.5336" y="65.6189" width="3.6677" height="5.6163"/><rect class="cls-3" x="4.0676" y="74.4694" width="3.6678" height="5.6163"/><rect class="cls-3" x="11.5336" y="74.4694" width="3.6677" height="5.6163"/><rect class="cls-3" x="21.6546" y="30.2171" width="2.1077" height="5.6163"/><rect class="cls-3" x="25.945" y="30.2171" width="2.1077" height="5.6163"/><rect class="cls-3" x="21.6546" y="39.0675" width="2.1077" height="5.6163"/><rect class="cls-3" x="25.945" y="39.0675" width="2.1077" height="5.6163"/><rect class="cls-3" x="21.6546" y="47.918" width="2.1077" height="5.6163"/><rect class="cls-3" x="25.945" y="47.918" width="2.1077" height="5.6163"/><rect class="cls-3" x="21.6546" y="56.7684" width="2.1077" height="5.6163"/><rect class="cls-3" x="25.945" y="56.7684" width="2.1077" height="5.6163"/><rect class="cls-3" x="21.6546" y="65.6189" width="2.1077" height="5.6163"/><rect class="cls-3" x="25.945" y="65.6189" width="2.1077" height="5.6163"/><rect class="cls-3" x="21.6546" y="74.4694" width="2.1077" height="5.6163"/><rect class="cls-3" x="25.945" y="74.4694" width="2.1077" height="5.6163"/><rect class="cls-5" x="56.4847" y="14.3094" width="14.3834" height="72.7188"/><rect class="cls-6" x="56.4847" y="14.0871" width="14.3834" height="72.7188"/><rect class="cls-5" x="56.4847" y="11.9263" width="15.2434" height="2.3832" transform="translate(128.2128 26.2357) rotate(180)"/><rect class="cls-5" x="56.4847" y="8.206" width="12.9243" height="3.7203" transform="translate(125.8937 20.1323) rotate(180)"/><rect class="cls-7" x="56.4847" y="8.206" width="12.9243" height="3.7203" transform="translate(125.8937 20.1323) rotate(180)"/><g class="cls-8"><rect x="56.4847" y="8.206" width="12.9243" height="3.7203" transform="translate(125.8937 20.1323) rotate(180)"/><rect class="cls-6" x="56.4847" y="8.206" width="12.9243" height="3.7203" transform="translate(125.8937 20.1323) rotate(180)"/></g><rect class="cls-5" x="56.4847" width="9.8878" height="8.206" transform="translate(122.8572 8.206) rotate(180)"/><rect class="cls-9" x="56.4847" width="9.8878" height="8.206" transform="translate(122.8572 8.206) rotate(180)"/><g class="cls-10"><rect x="56.4847" width="9.8878" height="8.206" transform="translate(122.8572 8.206) rotate(180)"/><rect class="cls-11" x="56.4847" width="9.8878" height="8.206" transform="translate(122.8572 8.206) rotate(180)"/></g><g class="cls-12"><rect x="57.8635" y="17.0657" width="1.9512" height="7.6486"/></g><g class="cls-12"><rect x="57.8635" y="27.4858" width="1.9512" height="7.6486"/></g><g class="cls-12"><rect x="57.8635" y="37.9059" width="1.9512" height="7.6486"/></g><g class="cls-12"><rect x="57.8635" y="48.3259" width="1.9512" height="7.6486"/></g><g class="cls-12"><rect x="57.8635" y="58.746" width="1.9512" height="7.6486"/></g><g class="cls-12"><rect x="57.8635" y="69.166" width="1.9512" height="7.6486"/></g><g class="cls-12"><rect x="61.0884" y="17.0657" width="1.9512" height="7.6486"/></g><g class="cls-12"><rect x="61.0884" y="27.4858" width="1.9512" height="7.6486"/></g><g class="cls-12"><rect x="61.0884" y="37.9059" width="1.9512" height="7.6486"/></g><g class="cls-12"><rect x="61.0884" y="48.3259" width="1.9512" height="7.6486"/></g><g class="cls-12"><rect x="61.0884" y="58.746" width="1.9512" height="7.6486"/></g><g class="cls-12"><rect x="61.0884" y="69.166" width="1.9512" height="7.6486"/></g><g class="cls-12"><rect x="64.3133" y="17.0657" width="1.9512" height="7.6486"/></g><g class="cls-12"><rect x="64.3133" y="27.4858" width="1.9512" height="7.6486"/></g><g class="cls-12"><rect x="64.3133" y="37.9059" width="1.9512" height="7.6486"/></g><g class="cls-12"><rect x="64.3133" y="48.3259" width="1.9512" height="7.6486"/></g><g class="cls-12"><rect x="64.3133" y="58.746" width="1.9512" height="7.6486"/></g><g class="cls-12"><rect x="64.3133" y="69.166" width="1.9512" height="7.6486"/></g><g class="cls-12"><rect x="67.5382" y="17.0657" width="1.9512" height="7.6486"/></g><g class="cls-12"><rect x="67.5382" y="27.4858" width="1.9512" height="7.6486"/></g><g class="cls-12"><rect x="67.5382" y="37.9059" width="1.9512" height="7.6486"/></g><g class="cls-12"><rect x="67.5382" y="48.3259" width="1.9512" height="7.6486"/></g><g class="cls-12"><rect x="67.5382" y="58.746" width="1.9512" height="7.6486"/></g><g class="cls-12"><rect x="67.5382" y="69.166" width="1.9512" height="7.6486"/></g><rect class="cls-5" x="27.0014" y="14.3094" width="29.4833" height="72.7188"/><rect class="cls-5" x="28.4136" y="8.206" width="28.0711" height="3.7203"/><rect class="cls-5" x="35.3618" width="21.1229" height="8.206"/><rect class="cls-7" x="35.3618" width="21.1229" height="8.206"/><g class="cls-13"><rect x="35.3618" width="21.1229" height="8.206"/><rect class="cls-6" x="35.3618" width="21.1229" height="8.206"/></g><rect class="cls-5" x="26.119" y="11.9263" width="30.3657" height="2.3832"/><rect class="cls-6" x="26.119" y="11.9263" width="30.3657" height="2.3832"/><g class="cls-12"><rect x="29.8202" y="17.0657" width="4.002" height="7.6486"/></g><g class="cls-12"><rect x="29.8202" y="27.4858" width="4.002" height="7.6486"/></g><g class="cls-12"><rect x="29.8202" y="37.9059" width="4.002" height="7.6486"/></g><g class="cls-12"><rect x="29.8202" y="48.3259" width="4.002" height="7.6486"/></g><g class="cls-12"><rect x="29.8202" y="58.746" width="4.002" height="7.6486"/></g><g class="cls-12"><rect x="29.8202" y="69.166" width="4.002" height="7.6486"/></g><g class="cls-12"><rect x="36.4348" y="17.0657" width="4.002" height="7.6486"/></g><g class="cls-12"><rect x="36.4348" y="27.4858" width="4.002" height="7.6486"/></g><g class="cls-12"><rect x="36.4348" y="37.9059" width="4.002" height="7.6486"/></g><g class="cls-12"><rect x="36.4348" y="48.3259" width="4.002" height="7.6486"/></g><g class="cls-12"><rect x="36.4348" y="58.746" width="4.002" height="7.6486"/></g><g class="cls-12"><rect x="36.4348" y="69.166" width="4.002" height="7.6486"/></g><g class="cls-12"><rect x="43.0493" y="17.0657" width="4.002" height="7.6486"/></g><g class="cls-12"><rect x="43.0493" y="27.4858" width="4.002" height="7.6486"/></g><g class="cls-12"><rect x="43.0493" y="37.9059" width="4.002" height="7.6486"/></g><g class="cls-12"><rect x="43.0493" y="48.3259" width="4.002" height="7.6486"/></g><g class="cls-12"><rect x="43.0493" y="58.746" width="4.002" height="7.6486"/></g><g class="cls-12"><rect x="43.0493" y="69.166" width="4.002" height="7.6486"/></g><g class="cls-12"><rect x="49.6639" y="17.0657" width="4.002" height="7.6486"/></g><g class="cls-12"><rect x="49.6639" y="27.4858" width="4.002" height="7.6486"/></g><g class="cls-12"><rect x="49.6639" y="37.9059" width="4.002" height="7.6486"/></g><g class="cls-12"><rect x="49.6639" y="48.3259" width="4.002" height="7.6486"/></g><g class="cls-12"><rect x="49.6639" y="58.746" width="4.002" height="7.6486"/></g><g class="cls-12"><rect x="49.6639" y="69.166" width="4.002" height="7.6486"/></g><rect class="cls-11" x="36.4348" y="79.8207" width="10.6166" height="7.2075"/><rect class="cls-14" x="85.9938" y="45.5614" width="14.3834" height="41.4668"/><rect class="cls-15" x="85.9938" y="45.5614" width="14.3834" height="41.4668"/><rect class="cls-16" x="85.9938" y="43.1783" width="15.2434" height="2.3831" transform="translate(187.231 88.7398) rotate(180)"/><rect class="cls-14" x="85.9938" y="39.458" width="12.9243" height="3.7203" transform="translate(184.9119 82.6364) rotate(180)"/><rect class="cls-15" x="85.9938" y="39.458" width="12.9243" height="3.7203" transform="translate(184.9119 82.6364) rotate(180)"/><g class="cls-12"><rect x="87.3726" y="48.3178" width="1.9512" height="7.6486"/></g><g class="cls-12"><rect x="87.3726" y="58.7378" width="1.9512" height="7.6486"/></g><g class="cls-12"><rect x="87.3726" y="69.1579" width="1.9512" height="7.6486"/></g><g class="cls-12"><rect x="90.5975" y="48.3178" width="1.9512" height="7.6486"/></g><g class="cls-12"><rect x="90.5975" y="58.7378" width="1.9512" height="7.6486"/></g><g class="cls-12"><rect x="90.5975" y="69.1579" width="1.9512" height="7.6486"/></g><g class="cls-12"><rect x="93.8224" y="48.3178" width="1.9512" height="7.6486"/></g><g class="cls-12"><rect x="93.8224" y="58.7378" width="1.9512" height="7.6486"/></g><g class="cls-12"><rect x="93.8224" y="69.1579" width="1.9512" height="7.6486"/></g><g class="cls-12"><rect x="97.0473" y="48.3178" width="1.9512" height="7.6486"/></g><g class="cls-12"><rect x="97.0473" y="58.7378" width="1.9512" height="7.6486"/></g><g class="cls-12"><rect x="97.0473" y="69.1579" width="1.9512" height="7.6486"/></g><rect class="cls-16" x="56.5105" y="45.5614" width="29.4833" height="41.4668"/><rect class="cls-16" x="57.9227" y="39.458" width="28.0711" height="3.7203"/><rect class="cls-4" x="55.6281" y="43.1783" width="30.3657" height="2.3831"/><rect class="cls-17" x="55.6281" y="43.1783" width="30.3657" height="2.3831"/><g class="cls-12"><rect x="59.3293" y="48.3178" width="4.002" height="7.6486"/></g><g class="cls-12"><rect x="59.3293" y="58.7378" width="4.002" height="7.6486"/></g><g class="cls-12"><rect x="59.3293" y="69.1579" width="4.002" height="7.6486"/></g><g class="cls-12"><rect x="65.9439" y="48.3178" width="4.0021" height="7.6486"/></g><g class="cls-12"><rect x="65.9439" y="58.7378" width="4.0021" height="7.6486"/></g><g class="cls-12"><rect x="65.9439" y="69.1579" width="4.0021" height="7.6486"/></g><g class="cls-12"><rect x="72.5584" y="48.3178" width="4.0021" height="7.6486"/></g><g class="cls-12"><rect x="72.5584" y="58.7378" width="4.0021" height="7.6486"/></g><g class="cls-12"><rect x="72.5584" y="69.1579" width="4.0021" height="7.6486"/></g><g class="cls-12"><rect x="79.173" y="48.3178" width="4.0021" height="7.6486"/></g><g class="cls-12"><rect x="79.173" y="58.7378" width="4.0021" height="7.6486"/></g><g class="cls-12"><rect x="79.173" y="69.1579" width="4.0021" height="7.6486"/></g><path class="cls-1" d="M63.2809,87.0282s-.3192-1.4895-.9567-1.719a.9043.9043,0,0,0-1.0256.439s-.15-1.4233-1.0542-1.8492a1.3649,1.3649,0,0,0-1.5825.4463s-.6937-1.806-1.933-1.806-1.8645,2.6424-1.8645,2.6424-.7312-.7875-1.4811-.3428-.75,2.1893-.75,2.1893Z"/><path class="cls-1" d="M87.3417,87.0282h-5.9s.0137-.8781.5937-1.1111a.79.79,0,0,1,.9247.2216s.2366-1.6145,1.3174-1.6145,1.5981,1.3929,1.5981,1.3929a.8285.8285,0,0,1,.8421-.3427C87.3179,85.6528,87.3417,87.0282,87.3417,87.0282Z"/><path class="cls-2" d="M95.9484,87.0282H86.2233s.0224-1.4475.9784-1.8315a1.3023,1.3023,0,0,1,1.5244.3653s.39-2.6613,2.1716-2.6613,2.6343,2.296,2.6343,2.296a1.3652,1.3652,0,0,1,1.388-.5648C95.9091,84.7611,95.9484,87.0282,95.9484,87.0282Z"/></svg>