<svg xmlns="http://www.w3.org/2000/svg" xmlns:xlink="http://www.w3.org/1999/xlink" viewBox="0 0 725 653"><defs><style>.cls-1{fill:none;}.cls-2{clip-path:url(#clip-path);}.cls-3{fill:#ececec;}.cls-4{fill:#dcdcdc;}.cls-5{fill:#a8a8a8;}.cls-6{fill:#c8c8c8;}.cls-7{fill:#fff;}.cls-8{fill:#375a64;}.cls-9{fill:#2b454e;}.cls-10{fill:#1a2e35;}.cls-11,.cls-32{fill:#ffc800;}.cls-12{fill:url(#Безымянный_градиент_48);}.cls-13,.cls-22,.cls-24,.cls-26{opacity:0.2;}.cls-14{fill:url(#Безымянный_градиент_48-2);}.cls-15{fill:url(#Безымянный_градиент_53);}.cls-16{fill:url(#Безымянный_градиент_53-2);}.cls-17{fill:url(#Безымянный_градиент_60);}.cls-18{fill:url(#Безымянный_градиент_32);}.cls-19,.cls-20,.cls-28{opacity:0.3;}.cls-21,.cls-22{fill:#01895d;}.cls-23{fill:url(#Безымянный_градиент_60-2);}.cls-25,.cls-26,.cls-28{fill:#3797f5;}.cls-27{opacity:0.15;}.cls-29{opacity:0.4;}.cls-30{fill:#a6e473;}.cls-31{fill:#00c832;}.cls-32{opacity:0.1;}.cls-33{fill:#ffe600;}</style><clipPath id="clip-path"><rect class="cls-1" width="725" height="653"/></clipPath><linearGradient id="Безымянный_градиент_48" x1="329.1131" y1="436.6882" x2="223.4545" y2="425.5831" gradientUnits="userSpaceOnUse"><stop offset="0" stop-color="#0032c8"/><stop offset="1" stop-color="#00c832"/></linearGradient><linearGradient id="Безымянный_градиент_48-2" x1="80.4346" y1="470.4819" x2="308.9742" y2="391.7894" xlink:href="#Безымянный_градиент_48"/><linearGradient id="Безымянный_градиент_53" x1="181.0709" y1="211.864" x2="245.0303" y2="182.0393" gradientUnits="userSpaceOnUse"><stop offset="0" stop-color="#01895d"/><stop offset="1" stop-color="#00c832"/></linearGradient><linearGradient id="Безымянный_градиент_53-2" x1="246.1753" y1="196.9516" x2="277.3053" y2="196.9516" gradientTransform="translate(523.4807 393.9032) rotate(-180)" xlink:href="#Безымянный_градиент_53"/><linearGradient id="Безымянный_градиент_60" x1="-22.0246" y1="557.2567" x2="163.3217" y2="470.8283" gradientUnits="userSpaceOnUse"><stop offset="0" stop-color="#00c832"/><stop offset="1" stop-color="#01895d"/></linearGradient><linearGradient id="Безымянный_градиент_32" x1="-13.7552" y1="610.4371" x2="159.1931" y2="424.9727" gradientUnits="userSpaceOnUse"><stop offset="0" stop-color="#00c832"/><stop offset="1" stop-color="#a6e473"/></linearGradient><linearGradient id="Безымянный_градиент_60-2" x1="104.1643" y1="498.4138" x2="176.06" y2="498.4138" xlink:href="#Безымянный_градиент_60"/></defs><g id="Слой_2" data-name="Слой 2"><g class="cls-2"><path class="cls-3" d="M686.6119,247.8573H540.589s14.4785-39.5457,36.7606-39.5457,29.2618,27.2959,29.2618,27.2959,15.0338-14.83,27.3828-14.83,23.0875,19.5974,23.0875,19.5974S674.5312,229.8368,686.6119,247.8573Z"/><path class="cls-3" d="M574.7092,92.9793h-68.24S521.7172,70.8872,533.73,70.8872s15.5635,14.7282,15.5635,14.7282,8.478-6.8732,16.3328-5.6459S574.7092,92.9793,574.7092,92.9793Z"/><path class="cls-3" d="M121.12,193.696h-132.92S6.4027,153.0582,25.875,150.5181,54.66,180.7143,54.66,180.7143s12.5586-11.57,22.4357-11.57,17.4969,15.2391,17.4969,15.2391S114.3473,173.9414,121.12,193.696Z"/><path class="cls-3" d="M217.874,41.8776H128.0845S143.508,12.435,160.24,12.006s25.5276,22.2827,25.5276,22.2827S211.796,13.4007,217.874,41.8776Z"/><path class="cls-3" d="M172.9792,245.2141H112.3748s10.41-19.8726,21.7039-20.1623,17.23,15.04,17.23,15.04S168.877,225.9933,172.9792,245.2141Z"/><rect class="cls-4" x="451.7831" y="277.7849" width="73.9189" height="387.478"/><rect class="cls-3" x="463.2565" y="290.3709" width="14.369" height="14.795"/><rect class="cls-3" x="481.6377" y="290.3709" width="14.369" height="14.795"/><rect class="cls-3" x="463.2565" y="315.4898" width="14.369" height="14.7951"/><rect class="cls-3" x="481.6377" y="315.4898" width="14.369" height="14.7951"/><rect class="cls-3" x="463.2565" y="340.6085" width="14.369" height="14.7953"/><rect class="cls-3" x="481.6377" y="340.6085" width="14.369" height="14.7953"/><rect class="cls-3" x="463.2565" y="365.7273" width="14.369" height="14.7953"/><rect class="cls-3" x="481.6377" y="365.7273" width="14.369" height="14.7953"/><rect class="cls-3" x="463.2565" y="390.8462" width="14.369" height="14.7951"/><rect class="cls-3" x="481.6377" y="390.8462" width="14.369" height="14.7951"/><rect class="cls-3" x="463.2565" y="415.965" width="14.369" height="14.7951"/><rect class="cls-3" x="481.6377" y="415.965" width="14.369" height="14.7951"/><rect class="cls-3" x="463.2565" y="441.0839" width="14.369" height="14.795"/><rect class="cls-3" x="481.6377" y="441.0839" width="14.369" height="14.795"/><rect class="cls-3" x="463.2565" y="466.2028" width="14.369" height="14.795"/><rect class="cls-3" x="481.6377" y="466.2028" width="14.369" height="14.795"/><rect class="cls-3" x="463.2565" y="491.3215" width="14.369" height="14.7953"/><rect class="cls-3" x="481.6377" y="491.3215" width="14.369" height="14.7953"/><rect class="cls-3" x="463.2565" y="516.4403" width="14.369" height="14.7953"/><rect class="cls-3" x="481.6377" y="516.4403" width="14.369" height="14.7953"/><rect class="cls-3" x="463.2565" y="541.5592" width="14.369" height="14.7953"/><rect class="cls-3" x="481.6377" y="541.5592" width="14.369" height="14.7953"/><rect class="cls-3" x="463.2565" y="566.678" width="14.369" height="14.7951"/><rect class="cls-3" x="481.6377" y="566.678" width="14.369" height="14.7951"/><rect class="cls-3" x="463.2565" y="591.7969" width="14.369" height="14.7951"/><rect class="cls-3" x="481.6377" y="591.7969" width="14.369" height="14.7951"/><rect class="cls-3" x="463.2565" y="616.9158" width="14.369" height="14.7951"/><rect class="cls-3" x="499.8594" y="616.9158" width="14.369" height="14.7951" transform="translate(1014.0879 1248.6267) rotate(180)"/><rect class="cls-3" x="499.8594" y="591.7969" width="14.369" height="14.7951" transform="translate(1014.0879 1198.3889) rotate(180)"/><rect class="cls-3" x="499.8594" y="566.678" width="14.369" height="14.7951" transform="translate(1014.0879 1148.1512) rotate(180)"/><rect class="cls-3" x="499.8594" y="541.5592" width="14.369" height="14.7953" transform="translate(1014.0879 1097.9137) rotate(180)"/><rect class="cls-3" x="499.8594" y="516.4403" width="14.369" height="14.7953" transform="translate(1014.0879 1047.6759) rotate(180)"/><rect class="cls-3" x="499.8594" y="491.3215" width="14.369" height="14.7953" transform="translate(1014.0879 997.4382) rotate(180)"/><rect class="cls-3" x="499.8594" y="466.2028" width="14.369" height="14.795" transform="translate(1014.0879 947.2005) rotate(180)"/><rect class="cls-3" x="499.8594" y="441.0839" width="14.369" height="14.795" transform="translate(1014.0879 896.9628) rotate(180)"/><rect class="cls-3" x="499.8594" y="415.965" width="14.369" height="14.7951" transform="translate(1014.0879 846.7252) rotate(180)"/><rect class="cls-3" x="499.8594" y="390.8462" width="14.369" height="14.7951" transform="translate(1014.0879 796.4875) rotate(180)"/><rect class="cls-3" x="499.8594" y="365.7273" width="14.369" height="14.7953" transform="translate(1014.0879 746.25) rotate(180)"/><rect class="cls-3" x="499.8594" y="340.6085" width="14.369" height="14.7953" transform="translate(1014.0879 696.0122) rotate(180)"/><rect class="cls-3" x="499.8594" y="315.4898" width="14.369" height="14.7951" transform="translate(1014.0879 645.7747) rotate(180)"/><rect class="cls-3" x="499.8594" y="290.3709" width="14.369" height="14.795" transform="translate(1014.0879 595.5368) rotate(180)"/><rect class="cls-3" x="481.6377" y="616.9158" width="14.369" height="14.7951"/><rect class="cls-5" x="525.7019" y="277.7849" width="58.2798" height="387.478"/><rect class="cls-6" x="566.1076" y="616.9158" width="11.866" height="14.7951" transform="translate(1144.0811 1248.6267) rotate(180)"/><rect class="cls-6" x="550.9283" y="616.9158" width="11.8658" height="14.7951" transform="translate(1113.7224 1248.6267) rotate(180)"/><rect class="cls-6" x="566.1076" y="591.7969" width="11.866" height="14.7951" transform="translate(1144.0811 1198.3889) rotate(180)"/><rect class="cls-6" x="550.9283" y="591.7969" width="11.8658" height="14.7951" transform="translate(1113.7224 1198.3889) rotate(180)"/><rect class="cls-6" x="566.1076" y="566.678" width="11.866" height="14.7951" transform="translate(1144.0811 1148.1512) rotate(180)"/><rect class="cls-6" x="550.9283" y="566.678" width="11.8658" height="14.7951" transform="translate(1113.7224 1148.1512) rotate(180)"/><rect class="cls-6" x="566.1076" y="541.5592" width="11.866" height="14.7953" transform="translate(1144.0811 1097.9137) rotate(180)"/><rect class="cls-6" x="550.9283" y="541.5592" width="11.8658" height="14.7953" transform="translate(1113.7224 1097.9137) rotate(180)"/><rect class="cls-6" x="566.1076" y="516.4403" width="11.866" height="14.7953" transform="translate(1144.0811 1047.6759) rotate(180)"/><rect class="cls-6" x="550.9283" y="516.4403" width="11.8658" height="14.7953" transform="translate(1113.7224 1047.6759) rotate(180)"/><rect class="cls-6" x="566.1076" y="491.3215" width="11.866" height="14.7953" transform="translate(1144.0811 997.4382) rotate(180)"/><rect class="cls-6" x="550.9283" y="491.3215" width="11.8658" height="14.7953" transform="translate(1113.7224 997.4382) rotate(180)"/><rect class="cls-6" x="566.1076" y="466.2028" width="11.866" height="14.795" transform="translate(1144.0811 947.2005) rotate(180)"/><rect class="cls-6" x="550.9283" y="466.2028" width="11.8658" height="14.795" transform="translate(1113.7224 947.2005) rotate(180)"/><rect class="cls-6" x="566.1076" y="441.0839" width="11.866" height="14.795" transform="translate(1144.0811 896.9628) rotate(180)"/><rect class="cls-6" x="550.9283" y="441.0839" width="11.8658" height="14.795" transform="translate(1113.7224 896.9628) rotate(180)"/><rect class="cls-6" x="566.1076" y="415.965" width="11.866" height="14.7951" transform="translate(1144.0811 846.7252) rotate(180)"/><rect class="cls-6" x="550.9283" y="415.965" width="11.8658" height="14.7951" transform="translate(1113.7224 846.7252) rotate(180)"/><rect class="cls-6" x="566.1076" y="390.8462" width="11.866" height="14.7951" transform="translate(1144.0811 796.4875) rotate(180)"/><rect class="cls-6" x="550.9283" y="390.8462" width="11.8658" height="14.7951" transform="translate(1113.7224 796.4875) rotate(180)"/><rect class="cls-6" x="566.1076" y="365.7273" width="11.866" height="14.7953" transform="translate(1144.0811 746.25) rotate(180)"/><rect class="cls-6" x="550.9283" y="365.7273" width="11.8658" height="14.7953" transform="translate(1113.7224 746.25) rotate(180)"/><rect class="cls-6" x="566.1076" y="340.6085" width="11.866" height="14.7953" transform="translate(1144.0811 696.0122) rotate(180)"/><rect class="cls-6" x="550.9283" y="340.6085" width="11.8658" height="14.7953" transform="translate(1113.7224 696.0122) rotate(180)"/><rect class="cls-6" x="566.1076" y="315.4898" width="11.866" height="14.7951" transform="translate(1144.0811 645.7747) rotate(180)"/><rect class="cls-6" x="550.9283" y="315.4898" width="11.8658" height="14.7951" transform="translate(1113.7224 645.7747) rotate(180)"/><rect class="cls-6" x="566.1076" y="290.3709" width="11.866" height="14.795" transform="translate(1144.0811 595.5368) rotate(180)"/><rect class="cls-6" x="535.8805" y="290.3709" width="11.8658" height="14.795"/><rect class="cls-6" x="535.8805" y="315.4898" width="11.8658" height="14.7951"/><rect class="cls-6" x="535.8805" y="340.6085" width="11.8658" height="14.7953"/><rect class="cls-6" x="535.8805" y="365.7273" width="11.8658" height="14.7953"/><rect class="cls-6" x="535.8805" y="390.8462" width="11.8658" height="14.7951"/><rect class="cls-6" x="535.8805" y="415.965" width="11.8658" height="14.7951"/><rect class="cls-6" x="535.8805" y="441.0839" width="11.8658" height="14.795"/><rect class="cls-6" x="535.8805" y="466.2028" width="11.8658" height="14.795"/><rect class="cls-6" x="535.8805" y="491.3215" width="11.8658" height="14.7953"/><rect class="cls-6" x="535.8805" y="516.4403" width="11.8658" height="14.7953"/><rect class="cls-6" x="535.8805" y="541.5592" width="11.8658" height="14.7953"/><rect class="cls-6" x="535.8805" y="566.678" width="11.8658" height="14.7951"/><rect class="cls-6" x="535.8805" y="591.7969" width="11.8658" height="14.7951"/><rect class="cls-6" x="535.8805" y="616.9158" width="11.8658" height="14.7951"/><rect class="cls-6" x="550.9283" y="290.3709" width="11.8658" height="14.795" transform="translate(1113.7224 595.5368) rotate(180)"/><rect class="cls-3" x="73.2975" y="269.3292" width="77.1116" height="395.9336"/><rect class="cls-6" x="71.4429" y="261.4454" width="78.9662" height="7.8838"/><rect class="cls-7" x="80.2694" y="280.9503" width="7.8127" height="384.3126"/><rect class="cls-7" x="94.1082" y="280.9503" width="7.8127" height="384.3126"/><rect class="cls-7" x="107.9471" y="280.9503" width="7.8125" height="384.3126"/><rect class="cls-7" x="121.7857" y="280.9503" width="7.8125" height="384.3126"/><rect class="cls-7" x="135.6244" y="280.9503" width="7.8127" height="384.3126"/><rect class="cls-3" x="80.2694" y="290.9122" width="7.8127" height="15.5635"/><rect class="cls-3" x="94.1082" y="290.9122" width="7.8127" height="15.5635"/><rect class="cls-3" x="107.9471" y="290.9122" width="7.8125" height="15.5635"/><rect class="cls-3" x="121.7857" y="290.9122" width="7.8125" height="15.5635"/><rect class="cls-3" x="135.6244" y="290.9122" width="7.8127" height="15.5635"/><rect class="cls-3" x="80.2694" y="316.2066" width="7.8127" height="15.5638"/><rect class="cls-3" x="94.1082" y="316.2066" width="7.8127" height="15.5638"/><rect class="cls-3" x="107.9471" y="316.2066" width="7.8125" height="15.5638"/><rect class="cls-3" x="121.7857" y="316.2066" width="7.8125" height="15.5638"/><rect class="cls-3" x="135.6244" y="316.2066" width="7.8127" height="15.5638"/><rect class="cls-3" x="80.2694" y="341.5011" width="7.8127" height="15.5636"/><rect class="cls-3" x="94.1082" y="341.5011" width="7.8127" height="15.5636"/><rect class="cls-3" x="107.9471" y="341.5011" width="7.8125" height="15.5636"/><rect class="cls-3" x="121.7857" y="341.5011" width="7.8125" height="15.5636"/><rect class="cls-3" x="135.6244" y="341.5011" width="7.8127" height="15.5636"/><rect class="cls-3" x="80.2694" y="366.7957" width="7.8127" height="15.5636"/><rect class="cls-3" x="94.1082" y="366.7957" width="7.8127" height="15.5636"/><rect class="cls-3" x="107.9471" y="366.7957" width="7.8125" height="15.5636"/><rect class="cls-3" x="121.7857" y="366.7957" width="7.8125" height="15.5636"/><rect class="cls-3" x="135.6244" y="366.7957" width="7.8127" height="15.5636"/><rect class="cls-3" x="80.2694" y="392.0903" width="7.8127" height="15.5636"/><rect class="cls-3" x="94.1082" y="392.0903" width="7.8127" height="15.5636"/><rect class="cls-3" x="107.9471" y="392.0903" width="7.8125" height="15.5636"/><rect class="cls-3" x="121.7857" y="392.0903" width="7.8125" height="15.5636"/><rect class="cls-3" x="135.6244" y="392.0903" width="7.8127" height="15.5636"/><rect class="cls-3" x="80.2694" y="417.3847" width="7.8127" height="15.5638"/><rect class="cls-3" x="94.1082" y="417.3847" width="7.8127" height="15.5638"/><rect class="cls-3" x="107.9471" y="417.3847" width="7.8125" height="15.5638"/><rect class="cls-3" x="121.7857" y="417.3847" width="7.8125" height="15.5638"/><rect class="cls-3" x="135.6244" y="417.3847" width="7.8127" height="15.5638"/><rect class="cls-3" x="80.2694" y="442.6794" width="7.8127" height="15.5635"/><rect class="cls-3" x="94.1082" y="442.6794" width="7.8127" height="15.5635"/><rect class="cls-3" x="107.9471" y="442.6794" width="7.8125" height="15.5635"/><rect class="cls-3" x="121.7857" y="442.6794" width="7.8125" height="15.5635"/><rect class="cls-3" x="135.6244" y="442.6794" width="7.8127" height="15.5635"/><rect class="cls-3" x="80.2694" y="467.9738" width="7.8127" height="15.5638"/><rect class="cls-3" x="94.1082" y="467.9738" width="7.8127" height="15.5638"/><rect class="cls-3" x="107.9471" y="467.9738" width="7.8125" height="15.5638"/><rect class="cls-3" x="121.7857" y="467.9738" width="7.8125" height="15.5638"/><rect class="cls-3" x="135.6244" y="467.9738" width="7.8127" height="15.5638"/><rect class="cls-3" x="80.2694" y="493.2684" width="7.8127" height="15.5636"/><rect class="cls-3" x="94.1082" y="493.2684" width="7.8127" height="15.5636"/><rect class="cls-3" x="107.9471" y="493.2684" width="7.8125" height="15.5636"/><rect class="cls-3" x="121.7857" y="493.2684" width="7.8125" height="15.5636"/><rect class="cls-3" x="135.6244" y="493.2684" width="7.8127" height="15.5636"/><rect class="cls-3" x="80.2694" y="518.5629" width="7.8127" height="15.5636"/><rect class="cls-3" x="94.1082" y="518.5629" width="7.8127" height="15.5636"/><rect class="cls-3" x="107.9471" y="518.5629" width="7.8125" height="15.5636"/><rect class="cls-3" x="121.7857" y="518.5629" width="7.8125" height="15.5636"/><rect class="cls-3" x="135.6244" y="518.5629" width="7.8127" height="15.5636"/><rect class="cls-3" x="80.2694" y="543.8575" width="7.8127" height="15.5636"/><rect class="cls-3" x="94.1082" y="543.8575" width="7.8127" height="15.5636"/><rect class="cls-3" x="107.9471" y="543.8575" width="7.8125" height="15.5636"/><rect class="cls-3" x="121.7857" y="543.8575" width="7.8125" height="15.5636"/><rect class="cls-3" x="135.6244" y="543.8575" width="7.8127" height="15.5636"/><rect class="cls-3" x="80.2694" y="569.1519" width="7.8127" height="15.5636"/><rect class="cls-3" x="94.1082" y="569.1519" width="7.8127" height="15.5636"/><rect class="cls-3" x="107.9471" y="569.1519" width="7.8125" height="15.5636"/><rect class="cls-3" x="121.7857" y="569.1519" width="7.8125" height="15.5636"/><rect class="cls-3" x="135.6244" y="569.1519" width="7.8127" height="15.5636"/><rect class="cls-3" x="80.2694" y="594.4464" width="7.8127" height="15.5636"/><rect class="cls-3" x="94.1082" y="594.4464" width="7.8127" height="15.5636"/><rect class="cls-3" x="107.9471" y="594.4464" width="7.8125" height="15.5636"/><rect class="cls-3" x="121.7857" y="594.4464" width="7.8125" height="15.5636"/><rect class="cls-3" x="135.6244" y="594.4464" width="7.8127" height="15.5636"/><rect class="cls-3" x="80.2694" y="619.741" width="7.8127" height="45.5219"/><rect class="cls-3" x="94.1082" y="619.741" width="7.8127" height="45.5219"/><rect class="cls-3" x="107.9471" y="619.741" width="7.8125" height="45.5219"/><rect class="cls-3" x="121.7857" y="619.741" width="7.8125" height="45.5219"/><rect class="cls-3" x="135.6244" y="619.741" width="7.8127" height="45.5219"/><rect class="cls-4" x="150.4091" y="269.3292" width="49.5059" height="395.9336"/><rect class="cls-6" x="150.4091" y="261.4454" width="51.6488" height="7.8838"/><rect class="cls-6" x="157.3812" y="280.9503" width="7.8127" height="384.3126"/><rect class="cls-6" x="171.22" y="280.9503" width="7.8127" height="384.3126"/><rect class="cls-6" x="185.0586" y="280.9503" width="7.8127" height="384.3126"/><rect class="cls-4" x="157.3812" y="290.9122" width="7.8127" height="15.5635"/><rect class="cls-4" x="171.22" y="290.9122" width="7.8127" height="15.5635"/><rect class="cls-4" x="185.0586" y="290.9122" width="7.8127" height="15.5635"/><rect class="cls-4" x="157.3812" y="316.2066" width="7.8127" height="15.5638"/><rect class="cls-4" x="171.22" y="316.2066" width="7.8127" height="15.5638"/><rect class="cls-4" x="185.0586" y="316.2066" width="7.8127" height="15.5638"/><rect class="cls-4" x="157.3812" y="341.5011" width="7.8127" height="15.5636"/><rect class="cls-4" x="171.22" y="341.5011" width="7.8127" height="15.5636"/><rect class="cls-4" x="185.0586" y="341.5011" width="7.8127" height="15.5636"/><rect class="cls-4" x="157.3812" y="366.7957" width="7.8127" height="15.5636"/><rect class="cls-4" x="171.22" y="366.7957" width="7.8127" height="15.5636"/><rect class="cls-4" x="185.0586" y="366.7957" width="7.8127" height="15.5636"/><rect class="cls-4" x="157.3812" y="392.0903" width="7.8127" height="15.5636"/><rect class="cls-4" x="171.22" y="392.0903" width="7.8127" height="15.5636"/><rect class="cls-4" x="185.0586" y="392.0903" width="7.8127" height="15.5636"/><rect class="cls-4" x="157.3812" y="417.3847" width="7.8127" height="15.5638"/><rect class="cls-4" x="171.22" y="417.3847" width="7.8127" height="15.5638"/><rect class="cls-4" x="185.0586" y="417.3847" width="7.8127" height="15.5638"/><rect class="cls-4" x="157.3812" y="442.6794" width="7.8127" height="15.5635"/><rect class="cls-4" x="171.22" y="442.6794" width="7.8127" height="15.5635"/><rect class="cls-4" x="185.0586" y="442.6794" width="7.8127" height="15.5635"/><rect class="cls-4" x="157.3812" y="467.9738" width="7.8127" height="15.5638"/><rect class="cls-4" x="171.22" y="467.9738" width="7.8127" height="15.5638"/><rect class="cls-4" x="185.0586" y="467.9738" width="7.8127" height="15.5638"/><rect class="cls-4" x="157.3812" y="493.2684" width="7.8127" height="15.5636"/><rect class="cls-4" x="171.22" y="493.2684" width="7.8127" height="15.5636"/><rect class="cls-4" x="185.0586" y="493.2684" width="7.8127" height="15.5636"/><rect class="cls-4" x="157.3812" y="518.5629" width="7.8127" height="15.5636"/><rect class="cls-4" x="171.22" y="518.5629" width="7.8127" height="15.5636"/><rect class="cls-4" x="185.0586" y="518.5629" width="7.8127" height="15.5636"/><rect class="cls-4" x="157.3812" y="543.8575" width="7.8127" height="15.5636"/><rect class="cls-4" x="171.22" y="543.8575" width="7.8127" height="15.5636"/><rect class="cls-4" x="185.0586" y="543.8575" width="7.8127" height="15.5636"/><rect class="cls-4" x="157.3812" y="569.1519" width="7.8127" height="15.5636"/><rect class="cls-4" x="171.22" y="569.1519" width="7.8127" height="15.5636"/><rect class="cls-4" x="185.0586" y="569.1519" width="7.8127" height="15.5636"/><rect class="cls-4" x="157.3812" y="594.4464" width="7.8127" height="15.5636"/><rect class="cls-4" x="171.22" y="594.4464" width="7.8127" height="15.5636"/><rect class="cls-4" x="185.0586" y="594.4464" width="7.8127" height="15.5636"/><rect class="cls-4" x="157.3812" y="619.741" width="7.8127" height="45.5219"/><rect class="cls-4" x="171.22" y="619.741" width="7.8127" height="45.5219"/><rect class="cls-4" x="185.0586" y="619.741" width="7.8127" height="45.5219"/><rect class="cls-3" x="-12.7809" y="387.9126" width="73.1309" height="277.3503"/><rect class="cls-6" x="-2.3791" y="369.5179" width="62.7291" height="18.3947"/><rect class="cls-4" x="-4.7628" y="397.5136" width="57.0948" height="207.3373"/><rect class="cls-7" x="-4.7628" y="417.2999" width="57.0948" height="4.8998"/><rect class="cls-7" x="-4.7628" y="437.5946" width="57.0948" height="4.8998"/><rect class="cls-7" x="-4.7628" y="457.8891" width="57.0948" height="4.8998"/><rect class="cls-7" x="-4.7628" y="478.1836" width="57.0948" height="4.8999"/><rect class="cls-7" x="-4.7628" y="498.4782" width="57.0948" height="4.8998"/><rect class="cls-7" x="-4.7628" y="518.7727" width="57.0948" height="4.8999"/><rect class="cls-7" x="-4.7628" y="539.0674" width="57.0948" height="4.8998"/><rect class="cls-7" x="-4.7628" y="559.3619" width="57.0948" height="4.8998"/><rect class="cls-7" x="-4.7628" y="579.6566" width="57.0948" height="4.8998"/><rect class="cls-7" x="-4.7628" y="599.9511" width="57.0948" height="4.8998"/><rect class="cls-4" x="60.35" y="387.9126" width="45.8062" height="277.3503"/><rect class="cls-5" x="60.35" y="369.5179" width="38.9321" height="18.3947"/><rect class="cls-6" x="66.665" y="397.5136" width="35.2186" height="207.3373"/><rect class="cls-7" x="66.665" y="417.2999" width="35.2186" height="4.8998"/><rect class="cls-7" x="66.665" y="437.5946" width="35.2186" height="4.8998"/><rect class="cls-7" x="66.665" y="457.8891" width="35.2186" height="4.8998"/><rect class="cls-7" x="66.665" y="478.1836" width="35.2186" height="4.8999"/><rect class="cls-7" x="66.665" y="498.4782" width="35.2186" height="4.8998"/><rect class="cls-7" x="66.665" y="518.7727" width="35.2186" height="4.8999"/><rect class="cls-7" x="66.665" y="539.0674" width="35.2186" height="4.8998"/><rect class="cls-7" x="66.665" y="559.3619" width="35.2186" height="4.8998"/><rect class="cls-7" x="66.665" y="579.6566" width="35.2186" height="4.8998"/><rect class="cls-7" x="66.665" y="599.9511" width="35.2186" height="4.8998"/><rect class="cls-4" x="588.2391" y="392.5882" width="39.0582" height="46.1382"/><rect class="cls-6" x="627.2973" y="392.5882" width="24.7647" height="47.8307"/><rect class="cls-4" x="629.1328" y="412.9622" width="24.5779" height="27.4567"/><rect class="cls-6" x="653.7107" y="412.9622" width="15.3293" height="27.4567"/><rect class="cls-3" x="573.2582" y="435.7278" width="63.1573" height="229.535"/><rect class="cls-7" x="580.4776" y="445.5951" width="19.86" height="8.1148"/><rect class="cls-7" x="605.8832" y="445.5951" width="19.86" height="8.1148"/><rect class="cls-7" x="580.4776" y="459.3723" width="19.86" height="8.115"/><rect class="cls-7" x="605.8832" y="459.3723" width="19.86" height="8.115"/><rect class="cls-7" x="580.4776" y="473.1497" width="19.86" height="8.115"/><rect class="cls-7" x="605.8832" y="473.1497" width="19.86" height="8.115"/><rect class="cls-7" x="580.4776" y="486.9271" width="19.86" height="8.115"/><rect class="cls-7" x="605.8832" y="486.9271" width="19.86" height="8.115"/><rect class="cls-7" x="580.4776" y="500.7046" width="19.86" height="8.115"/><rect class="cls-7" x="605.8832" y="500.7046" width="19.86" height="8.115"/><rect class="cls-7" x="580.4776" y="514.482" width="19.86" height="8.115"/><rect class="cls-7" x="605.8832" y="514.482" width="19.86" height="8.115"/><rect class="cls-7" x="580.4776" y="528.2594" width="19.86" height="8.1148"/><rect class="cls-7" x="605.8832" y="528.2594" width="19.86" height="8.1148"/><rect class="cls-7" x="580.4776" y="542.0366" width="19.86" height="8.115"/><rect class="cls-7" x="605.8832" y="542.0366" width="19.86" height="8.115"/><rect class="cls-7" x="580.4776" y="555.8141" width="19.86" height="8.115"/><rect class="cls-7" x="605.8832" y="555.8141" width="19.86" height="8.115"/><rect class="cls-7" x="580.4776" y="569.5915" width="19.86" height="8.115"/><rect class="cls-7" x="605.8832" y="569.5915" width="19.86" height="8.115"/><rect class="cls-7" x="580.4776" y="583.3689" width="19.86" height="8.115"/><rect class="cls-7" x="605.8832" y="583.3689" width="19.86" height="8.115"/><rect class="cls-7" x="580.4776" y="597.1463" width="19.86" height="8.115"/><rect class="cls-7" x="605.8832" y="597.1463" width="19.86" height="8.115"/><rect class="cls-7" x="580.4776" y="610.9237" width="19.86" height="8.1148"/><rect class="cls-7" x="605.8832" y="610.9237" width="19.86" height="8.1148"/><rect class="cls-7" x="580.4776" y="624.7012" width="19.86" height="8.1148"/><rect class="cls-7" x="605.8832" y="624.7012" width="19.86" height="8.1148"/><rect class="cls-6" x="636.4155" y="435.7278" width="51.1778" height="229.535"/><rect class="cls-3" x="666.1554" y="624.7012" width="16.3062" height="8.1148" transform="translate(1348.6169 1257.5171) rotate(180)"/><rect class="cls-3" x="645.2959" y="624.7012" width="16.3062" height="8.1148" transform="translate(1306.8979 1257.5171) rotate(180)"/><rect class="cls-3" x="666.1554" y="610.9237" width="16.3062" height="8.1148" transform="translate(1348.6169 1229.9623) rotate(180)"/><rect class="cls-3" x="645.2959" y="610.9237" width="16.3062" height="8.1148" transform="translate(1306.8979 1229.9623) rotate(180)"/><rect class="cls-3" x="666.1554" y="597.1463" width="16.3062" height="8.115" transform="translate(1348.6169 1202.4076) rotate(180)"/><rect class="cls-3" x="645.2959" y="597.1463" width="16.3062" height="8.115" transform="translate(1306.8979 1202.4076) rotate(180)"/><rect class="cls-3" x="666.1554" y="583.3689" width="16.3062" height="8.115" transform="translate(1348.6169 1174.8528) rotate(180)"/><rect class="cls-3" x="645.2959" y="583.3689" width="16.3062" height="8.115" transform="translate(1306.8979 1174.8528) rotate(180)"/><rect class="cls-3" x="666.1554" y="569.5915" width="16.3062" height="8.115" transform="translate(1348.6169 1147.2979) rotate(180)"/><rect class="cls-3" x="645.2959" y="569.5915" width="16.3062" height="8.115" transform="translate(1306.8979 1147.2979) rotate(180)"/><rect class="cls-3" x="666.1554" y="555.8141" width="16.3062" height="8.115" transform="translate(1348.6169 1119.7431) rotate(180)"/><rect class="cls-3" x="645.2959" y="555.8141" width="16.3062" height="8.115" transform="translate(1306.8979 1119.7431) rotate(180)"/><rect class="cls-3" x="666.1554" y="542.0366" width="16.3062" height="8.115" transform="translate(1348.6169 1092.1883) rotate(180)"/><rect class="cls-3" x="645.2959" y="542.0366" width="16.3062" height="8.115" transform="translate(1306.8979 1092.1883) rotate(180)"/><rect class="cls-3" x="666.1554" y="528.2594" width="16.3062" height="8.1148" transform="translate(1348.6169 1064.6336) rotate(180)"/><rect class="cls-3" x="645.2959" y="528.2594" width="16.3062" height="8.1148" transform="translate(1306.8979 1064.6336) rotate(180)"/><rect class="cls-3" x="666.1554" y="514.482" width="16.3062" height="8.115" transform="translate(1348.6169 1037.0789) rotate(180)"/><rect class="cls-3" x="645.2959" y="514.482" width="16.3062" height="8.115" transform="translate(1306.8979 1037.0789) rotate(180)"/><rect class="cls-3" x="666.1554" y="500.7046" width="16.3062" height="8.115" transform="translate(1348.6169 1009.5241) rotate(180)"/><rect class="cls-3" x="645.2959" y="500.7046" width="16.3062" height="8.115" transform="translate(1306.8979 1009.5241) rotate(180)"/><rect class="cls-3" x="666.1554" y="486.9271" width="16.3062" height="8.115" transform="translate(1348.6169 981.9693) rotate(180)"/><rect class="cls-3" x="645.2959" y="486.9271" width="16.3062" height="8.115" transform="translate(1306.8979 981.9693) rotate(180)"/><rect class="cls-3" x="666.1554" y="473.1497" width="16.3062" height="8.115" transform="translate(1348.6169 954.4144) rotate(180)"/><rect class="cls-3" x="645.2959" y="473.1497" width="16.3062" height="8.115" transform="translate(1306.8979 954.4144) rotate(180)"/><rect class="cls-3" x="666.1554" y="459.3723" width="16.3062" height="8.115" transform="translate(1348.6169 926.8596) rotate(180)"/><rect class="cls-3" x="645.2959" y="459.3723" width="16.3062" height="8.115" transform="translate(1306.8979 926.8596) rotate(180)"/><rect class="cls-3" x="666.1554" y="445.5951" width="16.3062" height="8.1148" transform="translate(1348.6169 899.3049) rotate(180)"/><rect class="cls-3" x="645.2959" y="445.5951" width="16.3062" height="8.1148" transform="translate(1306.8979 899.3049) rotate(180)"/><rect class="cls-6" x="333.7932" y="515.6949" width="74.4939" height="149.568"/><rect class="cls-4" x="345.5082" y="528.6412" width="13.1833" height="9.1636"/><rect class="cls-4" x="345.5082" y="548.2136" width="13.1833" height="9.1637"/><rect class="cls-4" x="345.5082" y="567.786" width="13.1833" height="9.1637"/><rect class="cls-4" x="345.5082" y="587.3586" width="13.1833" height="9.1636"/><rect class="cls-4" x="345.5082" y="606.931" width="13.1833" height="9.1637"/><rect class="cls-4" x="345.5082" y="626.5034" width="13.1833" height="9.1637"/><rect class="cls-4" x="345.5082" y="646.076" width="13.1833" height="9.1636"/><rect class="cls-4" x="364.4719" y="528.6412" width="13.1833" height="9.1636"/><rect class="cls-4" x="364.4719" y="548.2136" width="13.1833" height="9.1637"/><rect class="cls-4" x="364.4719" y="567.786" width="13.1833" height="9.1637"/><rect class="cls-4" x="364.4719" y="587.3586" width="13.1833" height="9.1636"/><rect class="cls-4" x="364.4719" y="606.931" width="13.1833" height="9.1637"/><rect class="cls-4" x="364.4719" y="626.5034" width="13.1833" height="9.1637"/><rect class="cls-4" x="364.4719" y="646.076" width="13.1833" height="9.1636"/><rect class="cls-4" x="383.3888" y="528.6412" width="13.1833" height="9.1636"/><rect class="cls-4" x="383.3888" y="548.2136" width="13.1833" height="9.1637"/><rect class="cls-4" x="383.3888" y="567.786" width="13.1833" height="9.1637"/><rect class="cls-4" x="383.3888" y="587.3586" width="13.1833" height="9.1636"/><rect class="cls-4" x="383.3888" y="606.931" width="13.1833" height="9.1637"/><rect class="cls-4" x="383.3888" y="626.5034" width="13.1833" height="9.1637"/><rect class="cls-4" x="383.3888" y="646.076" width="13.1833" height="9.1636"/><rect class="cls-4" x="358.6915" y="500.1114" width="49.5956" height="15.5834"/><rect class="cls-3" x="376.8441" y="490.4637" width="31.443" height="9.6477"/><rect class="cls-5" x="408.2871" y="515.6949" width="52.2657" height="149.568"/><rect class="cls-6" x="444.4719" y="644.6144" width="10.7314" height="9.1637" transform="translate(899.6752 1298.3925) rotate(180)"/><rect class="cls-6" x="444.4719" y="625.042" width="10.7314" height="9.1637" transform="translate(899.6752 1259.2477) rotate(180)"/><rect class="cls-6" x="444.4719" y="605.4694" width="10.7314" height="9.1637" transform="translate(899.6752 1220.1025) rotate(180)"/><rect class="cls-6" x="444.4719" y="585.897" width="10.7314" height="9.1637" transform="translate(899.6752 1180.9577) rotate(180)"/><rect class="cls-6" x="444.4719" y="566.3246" width="10.7314" height="9.1637" transform="translate(899.6752 1141.8129) rotate(180)"/><rect class="cls-6" x="444.4719" y="546.7522" width="10.7314" height="9.1637" transform="translate(899.6752 1102.6681) rotate(180)"/><rect class="cls-6" x="444.4719" y="527.1798" width="10.7314" height="9.1636" transform="translate(899.6752 1063.5231) rotate(180)"/><rect class="cls-6" x="429.0352" y="644.6144" width="10.7313" height="9.1637" transform="translate(868.8016 1298.3925) rotate(180)"/><rect class="cls-6" x="429.0352" y="625.042" width="10.7313" height="9.1637" transform="translate(868.8016 1259.2477) rotate(180)"/><rect class="cls-6" x="429.0352" y="605.4694" width="10.7313" height="9.1637" transform="translate(868.8016 1220.1025) rotate(180)"/><rect class="cls-6" x="429.0352" y="585.897" width="10.7313" height="9.1637" transform="translate(868.8016 1180.9577) rotate(180)"/><rect class="cls-6" x="429.0352" y="566.3246" width="10.7313" height="9.1637" transform="translate(868.8016 1141.8129) rotate(180)"/><rect class="cls-6" x="429.0352" y="546.7522" width="10.7313" height="9.1637" transform="translate(868.8016 1102.6681) rotate(180)"/><rect class="cls-6" x="429.0352" y="527.1798" width="10.7313" height="9.1636" transform="translate(868.8016 1063.5231) rotate(180)"/><rect class="cls-6" x="413.6367" y="644.6144" width="10.7313" height="9.1637" transform="translate(838.0046 1298.3925) rotate(180)"/><rect class="cls-6" x="413.6367" y="625.042" width="10.7313" height="9.1637" transform="translate(838.0046 1259.2477) rotate(180)"/><rect class="cls-6" x="413.6367" y="605.4694" width="10.7313" height="9.1637" transform="translate(838.0046 1220.1025) rotate(180)"/><rect class="cls-6" x="413.6367" y="585.897" width="10.7313" height="9.1637" transform="translate(838.0046 1180.9577) rotate(180)"/><rect class="cls-6" x="413.6367" y="566.3246" width="10.7313" height="9.1637" transform="translate(838.0046 1141.8129) rotate(180)"/><rect class="cls-6" x="413.6367" y="546.7522" width="10.7313" height="9.1637" transform="translate(838.0046 1102.6681) rotate(180)"/><rect class="cls-6" x="413.6367" y="527.1798" width="10.7313" height="9.1636" transform="translate(838.0046 1063.5231) rotate(180)"/><rect class="cls-6" x="408.2871" y="500.1114" width="44.3481" height="15.5834"/><rect class="cls-4" x="408.2871" y="490.4637" width="24.0319" height="9.6477"/><rect class="cls-8" x="492.1447" y="307.193" width="112.5794" height="345.67"/><rect class="cls-9" x="520.0623" y="272.4203" width="84.2406" height="34.7727"/><rect class="cls-8" x="527.0765" y="277.7849" width="7.2013" height="24.0435"/><rect class="cls-8" x="539.6788" y="277.7849" width="7.2013" height="24.0435"/><rect class="cls-8" x="552.281" y="277.7849" width="7.2011" height="24.0435"/><rect class="cls-8" x="564.8831" y="277.7849" width="7.2011" height="24.0435"/><rect class="cls-8" x="577.4852" y="277.7849" width="7.2013" height="24.0435"/><rect class="cls-8" x="590.0874" y="277.7849" width="7.2013" height="24.0435"/><rect class="cls-8" x="604.3029" y="272.4203" width="38.3064" height="34.7727"/><rect class="cls-9" x="609.6735" y="277.7849" width="6.1256" height="24.0435"/><rect class="cls-9" x="620.3933" y="277.7849" width="6.1256" height="24.0435"/><rect class="cls-9" x="631.1131" y="277.7849" width="6.1256" height="24.0435"/><rect class="cls-9" x="604.3029" y="307.193" width="57.2991" height="345.67"/><rect class="cls-10" x="536.0403" y="254.8016" width="2.5778" height="17.6187"/><rect class="cls-10" x="585.7472" y="254.8016" width="2.5779" height="17.6187"/><rect class="cls-11" x="524.6226" y="223.9928" width="75.12" height="30.8088"/><rect class="cls-10" x="515.1895" y="331.001" width="20.7797" height="31.8192"/><rect class="cls-10" x="557.4878" y="331.001" width="20.7795" height="31.8192"/><rect class="cls-10" x="515.1895" y="381.1431" width="20.7797" height="31.8192"/><rect class="cls-10" x="557.4878" y="381.1431" width="20.7795" height="31.8192"/><rect class="cls-10" x="515.1895" y="431.2851" width="20.7797" height="31.8192"/><rect class="cls-10" x="557.4878" y="431.2851" width="20.7795" height="31.8192"/><rect class="cls-10" x="515.1895" y="481.4271" width="20.7797" height="31.8192"/><rect class="cls-10" x="557.4878" y="481.4271" width="20.7795" height="31.8192"/><rect class="cls-10" x="515.1895" y="531.5691" width="20.7797" height="31.8192"/><rect class="cls-10" x="557.4878" y="531.5691" width="20.7795" height="31.8192"/><rect class="cls-10" x="515.1895" y="581.7111" width="20.7797" height="31.8192"/><rect class="cls-10" x="557.4878" y="581.7111" width="20.7795" height="31.8192"/><rect class="cls-10" x="614.8281" y="331.001" width="11.9414" height="31.8192"/><rect class="cls-10" x="639.1355" y="331.001" width="11.9414" height="31.8192"/><rect class="cls-10" x="614.8281" y="381.1431" width="11.9414" height="31.8192"/><rect class="cls-10" x="639.1355" y="381.1431" width="11.9414" height="31.8192"/><rect class="cls-10" x="614.8281" y="431.2851" width="11.9414" height="31.8192"/><rect class="cls-10" x="639.1355" y="431.2851" width="11.9414" height="31.8192"/><rect class="cls-10" x="614.8281" y="481.4271" width="11.9414" height="31.8192"/><rect class="cls-10" x="639.1355" y="481.4271" width="11.9414" height="31.8192"/><rect class="cls-10" x="614.8281" y="531.5691" width="11.9414" height="31.8192"/><rect class="cls-10" x="639.1355" y="531.5691" width="11.9414" height="31.8192"/><rect class="cls-10" x="614.8281" y="581.7111" width="11.9414" height="31.8192"/><rect class="cls-10" x="639.1355" y="581.7111" width="11.9414" height="31.8192"/><rect class="cls-12" x="246.1753" y="209.4083" width="60.2169" height="443.4546"/><rect class="cls-13" x="246.1753" y="209.4083" width="60.2169" height="443.4546"/><rect class="cls-8" x="246.1753" y="234.2474" width="60.2169" height="4.6606"/><rect class="cls-10" x="252.3809" y="252.6077" width="11.0837" height="25.9274"/><rect class="cls-10" x="252.3809" y="285.3224" width="11.0837" height="25.9276"/><rect class="cls-10" x="252.3809" y="318.0373" width="11.0837" height="25.9274"/><rect class="cls-10" x="252.3809" y="350.7333" width="11.0837" height="25.9274"/><rect class="cls-10" x="252.3809" y="383.448" width="11.0837" height="25.9276"/><rect class="cls-10" x="252.3809" y="416.1629" width="11.0837" height="25.9274"/><rect class="cls-10" x="252.3809" y="448.8591" width="11.0837" height="25.9273"/><rect class="cls-10" x="252.3809" y="481.5738" width="11.0837" height="25.9274"/><rect class="cls-10" x="252.3809" y="514.2885" width="11.0837" height="25.9274"/><rect class="cls-10" x="252.3809" y="546.9847" width="11.0837" height="25.9273"/><rect class="cls-10" x="252.3809" y="579.6994" width="11.0837" height="25.9274"/><rect class="cls-10" x="252.3809" y="612.4143" width="11.0837" height="25.9273"/><rect class="cls-10" x="252.3809" y="252.6077" width="11.0837" height="25.9274"/><rect class="cls-10" x="252.3809" y="285.3224" width="11.0837" height="25.9276"/><rect class="cls-10" x="252.3809" y="318.0373" width="11.0837" height="25.9274"/><rect class="cls-10" x="252.3809" y="350.7333" width="11.0837" height="25.9274"/><rect class="cls-10" x="252.3809" y="383.448" width="11.0837" height="25.9276"/><rect class="cls-10" x="252.3809" y="416.1629" width="11.0837" height="25.9274"/><rect class="cls-10" x="252.3809" y="448.8591" width="11.0837" height="25.9273"/><rect class="cls-10" x="252.3809" y="481.5738" width="11.0837" height="25.9274"/><rect class="cls-10" x="252.3809" y="514.2885" width="11.0837" height="25.9274"/><rect class="cls-10" x="252.3809" y="546.9847" width="11.0837" height="25.9273"/><rect class="cls-10" x="252.3809" y="579.6994" width="11.0837" height="25.9274"/><rect class="cls-10" x="252.3809" y="612.4143" width="11.0837" height="25.9273"/><rect class="cls-10" x="270.742" y="252.6077" width="11.0835" height="25.9274"/><rect class="cls-10" x="270.742" y="285.3224" width="11.0835" height="25.9276"/><rect class="cls-10" x="270.742" y="318.0373" width="11.0835" height="25.9274"/><rect class="cls-10" x="270.742" y="350.7333" width="11.0835" height="25.9274"/><rect class="cls-10" x="270.742" y="383.448" width="11.0835" height="25.9276"/><rect class="cls-10" x="270.742" y="416.1629" width="11.0835" height="25.9274"/><rect class="cls-10" x="270.742" y="448.8591" width="11.0835" height="25.9273"/><rect class="cls-10" x="270.742" y="481.5738" width="11.0835" height="25.9274"/><rect class="cls-10" x="270.742" y="514.2885" width="11.0835" height="25.9274"/><rect class="cls-10" x="270.742" y="546.9847" width="11.0835" height="25.9273"/><rect class="cls-10" x="270.742" y="579.6994" width="11.0835" height="25.9274"/><rect class="cls-10" x="270.742" y="612.4143" width="11.0835" height="25.9273"/><rect class="cls-10" x="270.742" y="252.6077" width="11.0835" height="25.9274"/><rect class="cls-10" x="270.742" y="285.3224" width="11.0835" height="25.9276"/><rect class="cls-10" x="270.742" y="318.0373" width="11.0835" height="25.9274"/><rect class="cls-10" x="270.742" y="350.7333" width="11.0835" height="25.9274"/><rect class="cls-10" x="270.742" y="383.448" width="11.0835" height="25.9276"/><rect class="cls-10" x="270.742" y="416.1629" width="11.0835" height="25.9274"/><rect class="cls-10" x="270.742" y="448.8591" width="11.0835" height="25.9273"/><rect class="cls-10" x="270.742" y="481.5738" width="11.0835" height="25.9274"/><rect class="cls-10" x="270.742" y="514.2885" width="11.0835" height="25.9274"/><rect class="cls-10" x="270.742" y="546.9847" width="11.0835" height="25.9273"/><rect class="cls-10" x="270.742" y="579.6994" width="11.0835" height="25.9274"/><rect class="cls-10" x="270.742" y="612.4143" width="11.0835" height="25.9273"/><rect class="cls-10" x="289.1029" y="252.6077" width="11.0835" height="25.9274"/><rect class="cls-10" x="289.1029" y="285.3224" width="11.0835" height="25.9276"/><rect class="cls-10" x="289.1029" y="318.0373" width="11.0835" height="25.9274"/><rect class="cls-10" x="289.1029" y="350.7333" width="11.0835" height="25.9274"/><rect class="cls-10" x="289.1029" y="383.448" width="11.0835" height="25.9276"/><rect class="cls-10" x="289.1029" y="416.1629" width="11.0835" height="25.9274"/><rect class="cls-10" x="289.1029" y="448.8591" width="11.0835" height="25.9273"/><rect class="cls-10" x="289.1029" y="481.5738" width="11.0835" height="25.9274"/><rect class="cls-10" x="289.1029" y="514.2885" width="11.0835" height="25.9274"/><rect class="cls-10" x="289.1029" y="546.9847" width="11.0835" height="25.9273"/><rect class="cls-10" x="289.1029" y="579.6994" width="11.0835" height="25.9274"/><rect class="cls-10" x="289.1029" y="612.4143" width="11.0835" height="25.9273"/><rect class="cls-10" x="289.1029" y="252.6077" width="11.0835" height="25.9274"/><rect class="cls-10" x="289.1029" y="285.3224" width="11.0835" height="25.9276"/><rect class="cls-10" x="289.1029" y="318.0373" width="11.0835" height="25.9274"/><rect class="cls-10" x="289.1029" y="350.7333" width="11.0835" height="25.9274"/><rect class="cls-10" x="289.1029" y="383.448" width="11.0835" height="25.9276"/><rect class="cls-10" x="289.1029" y="416.1629" width="11.0835" height="25.9274"/><rect class="cls-10" x="289.1029" y="448.8591" width="11.0835" height="25.9273"/><rect class="cls-10" x="289.1029" y="481.5738" width="11.0835" height="25.9274"/><rect class="cls-10" x="289.1029" y="514.2885" width="11.0835" height="25.9274"/><rect class="cls-10" x="289.1029" y="546.9847" width="11.0835" height="25.9273"/><rect class="cls-10" x="289.1029" y="579.6994" width="11.0835" height="25.9274"/><rect class="cls-10" x="289.1029" y="612.4143" width="11.0835" height="25.9273"/><rect class="cls-14" x="143.2334" y="209.4083" width="102.9419" height="443.4546"/><rect class="cls-9" x="143.2334" y="234.2474" width="102.9419" height="4.6606"/><rect class="cls-15" x="179.9259" y="184.4949" width="66.2495" height="24.9135"/><rect class="cls-16" x="246.1753" y="184.4949" width="31.13" height="24.9135" transform="translate(523.4807 393.9032) rotate(180)"/><rect class="cls-13" x="246.1753" y="184.4949" width="31.13" height="24.9135" transform="translate(523.4807 393.9032) rotate(180)"/><rect class="cls-10" x="154.2621" y="252.6077" width="17.995" height="25.9274"/><rect class="cls-10" x="154.2621" y="285.3224" width="17.995" height="25.9276"/><rect class="cls-10" x="154.2621" y="318.0373" width="17.995" height="25.9274"/><rect class="cls-10" x="154.2621" y="350.7333" width="17.995" height="25.9274"/><rect class="cls-10" x="154.2621" y="383.448" width="17.995" height="25.9276"/><rect class="cls-10" x="154.2621" y="416.1629" width="17.995" height="25.9274"/><rect class="cls-10" x="154.2621" y="448.8591" width="17.995" height="25.9273"/><rect class="cls-10" x="154.2621" y="481.5738" width="17.995" height="25.9274"/><rect class="cls-10" x="154.2621" y="514.2885" width="17.995" height="25.9274"/><rect class="cls-10" x="154.2621" y="546.9847" width="17.995" height="25.9273"/><rect class="cls-10" x="154.2621" y="579.6994" width="17.995" height="25.9274"/><rect class="cls-10" x="154.2621" y="612.4143" width="17.995" height="25.9273"/><rect class="cls-10" x="154.2621" y="252.6077" width="17.995" height="25.9274"/><rect class="cls-10" x="154.2621" y="285.3224" width="17.995" height="25.9276"/><rect class="cls-10" x="154.2621" y="318.0373" width="17.995" height="25.9274"/><rect class="cls-10" x="154.2621" y="350.7333" width="17.995" height="25.9274"/><rect class="cls-10" x="154.2621" y="383.448" width="17.995" height="25.9276"/><rect class="cls-10" x="154.2621" y="416.1629" width="17.995" height="25.9274"/><rect class="cls-10" x="154.2621" y="448.8591" width="17.995" height="25.9273"/><rect class="cls-10" x="154.2621" y="481.5738" width="17.995" height="25.9274"/><rect class="cls-10" x="154.2621" y="514.2885" width="17.995" height="25.9274"/><rect class="cls-10" x="154.2621" y="546.9847" width="17.995" height="25.9273"/><rect class="cls-10" x="154.2621" y="579.6994" width="17.995" height="25.9274"/><rect class="cls-10" x="154.2621" y="612.4143" width="17.995" height="25.9273"/><rect class="cls-10" x="184.0725" y="252.6077" width="17.995" height="25.9274"/><rect class="cls-10" x="184.0725" y="285.3224" width="17.995" height="25.9276"/><rect class="cls-10" x="184.0725" y="318.0373" width="17.995" height="25.9274"/><rect class="cls-10" x="184.0725" y="350.7333" width="17.995" height="25.9274"/><rect class="cls-10" x="184.0725" y="383.448" width="17.995" height="25.9276"/><rect class="cls-10" x="184.0725" y="416.1629" width="17.995" height="25.9274"/><rect class="cls-10" x="184.0725" y="448.8591" width="17.995" height="25.9273"/><rect class="cls-10" x="184.0725" y="481.5738" width="17.995" height="25.9274"/><rect class="cls-10" x="184.0725" y="514.2885" width="17.995" height="25.9274"/><rect class="cls-10" x="184.0725" y="546.9847" width="17.995" height="25.9273"/><rect class="cls-10" x="184.0725" y="579.6994" width="17.995" height="25.9274"/><rect class="cls-10" x="184.0725" y="612.4143" width="17.995" height="25.9273"/><rect class="cls-10" x="184.0725" y="252.6077" width="17.995" height="25.9274"/><rect class="cls-10" x="184.0725" y="285.3224" width="17.995" height="25.9276"/><rect class="cls-10" x="184.0725" y="318.0373" width="17.995" height="25.9274"/><rect class="cls-10" x="184.0725" y="350.7333" width="17.995" height="25.9274"/><rect class="cls-10" x="184.0725" y="383.448" width="17.995" height="25.9276"/><rect class="cls-10" x="184.0725" y="416.1629" width="17.995" height="25.9274"/><rect class="cls-10" x="184.0725" y="448.8591" width="17.995" height="25.9273"/><rect class="cls-10" x="184.0725" y="481.5738" width="17.995" height="25.9274"/><rect class="cls-10" x="184.0725" y="514.2885" width="17.995" height="25.9274"/><rect class="cls-10" x="184.0725" y="546.9847" width="17.995" height="25.9273"/><rect class="cls-10" x="184.0725" y="579.6994" width="17.995" height="25.9274"/><rect class="cls-10" x="184.0725" y="612.4143" width="17.995" height="25.9273"/><rect class="cls-10" x="213.8828" y="252.6077" width="17.9952" height="25.9274"/><rect class="cls-10" x="213.8828" y="285.3224" width="17.9952" height="25.9276"/><rect class="cls-10" x="213.8828" y="318.0373" width="17.9952" height="25.9274"/><rect class="cls-10" x="213.8828" y="350.7333" width="17.9952" height="25.9274"/><rect class="cls-10" x="213.8828" y="383.448" width="17.9952" height="25.9276"/><rect class="cls-10" x="213.8828" y="416.1629" width="17.9952" height="25.9274"/><rect class="cls-10" x="213.8828" y="448.8591" width="17.9952" height="25.9273"/><rect class="cls-10" x="213.8828" y="481.5738" width="17.9952" height="25.9274"/><rect class="cls-10" x="213.8828" y="514.2885" width="17.9952" height="25.9274"/><rect class="cls-10" x="213.8828" y="546.9847" width="17.9952" height="25.9273"/><rect class="cls-10" x="213.8828" y="579.6994" width="17.9952" height="25.9274"/><rect class="cls-10" x="213.8828" y="612.4143" width="17.9952" height="25.9273"/><rect class="cls-10" x="213.8828" y="252.6077" width="17.9952" height="25.9274"/><rect class="cls-10" x="213.8828" y="285.3224" width="17.9952" height="25.9276"/><rect class="cls-10" x="213.8828" y="318.0373" width="17.9952" height="25.9274"/><rect class="cls-10" x="213.8828" y="350.7333" width="17.9952" height="25.9274"/><rect class="cls-10" x="213.8828" y="383.448" width="17.9952" height="25.9276"/><rect class="cls-10" x="213.8828" y="416.1629" width="17.9952" height="25.9274"/><rect class="cls-10" x="213.8828" y="448.8591" width="17.9952" height="25.9273"/><rect class="cls-10" x="213.8828" y="481.5738" width="17.9952" height="25.9274"/><rect class="cls-10" x="213.8828" y="514.2885" width="17.9952" height="25.9274"/><rect class="cls-10" x="213.8828" y="546.9847" width="17.9952" height="25.9273"/><rect class="cls-10" x="213.8828" y="579.6994" width="17.9952" height="25.9274"/><rect class="cls-10" x="213.8828" y="612.4143" width="17.9952" height="25.9273"/><polygon class="cls-17" points="104.164 652.863 22.557 652.863 22.557 396.855 104.164 343.965 104.164 652.863"/><polygon class="cls-18" points="93.676 652.863 31.741 652.863 31.741 404.017 93.676 363.877 93.676 652.863"/><polygon class="cls-19" points="93.676 661.451 31.741 661.451 31.741 412.605 93.676 372.465 93.676 661.451"/><g class="cls-20"><rect x="38.8333" y="408.3243" width="54.841" height="1.9733"/><rect x="38.8333" y="424.4952" width="54.841" height="1.9733"/><rect x="38.8333" y="440.6663" width="54.841" height="1.9733"/><rect x="38.8333" y="456.8372" width="54.841" height="1.9733"/><rect x="38.8333" y="473.0083" width="54.841" height="1.9733"/><rect x="38.8333" y="489.1794" width="54.841" height="1.9733"/><rect x="38.8333" y="505.3503" width="54.841" height="1.9733"/><rect x="38.8333" y="521.5214" width="54.841" height="1.9733"/><rect x="38.8333" y="537.6925" width="54.841" height="1.9733"/><rect x="38.8333" y="553.8634" width="54.841" height="1.9733"/><rect x="38.8333" y="570.0345" width="54.841" height="1.9733"/><rect x="38.8333" y="586.2056" width="54.841" height="1.9732"/><rect x="38.8333" y="602.3765" width="54.841" height="1.9733"/><rect x="38.8333" y="618.5476" width="54.841" height="1.9733"/><rect x="38.8333" y="634.7185" width="54.841" height="1.9733"/><rect x="38.8333" y="650.8896" width="54.841" height="1.9733"/><rect x="-65.4113" y="520.2111" width="263.3303" height="1.9733" transform="translate(-454.944 587.4517) rotate(-90)"/></g><polygon class="cls-21" points="93.674 363.875 93.674 372.782 38.833 408.324 38.833 652.863 31.745 652.863 31.745 404.012 93.674 363.875"/><polygon class="cls-22" points="93.674 363.875 93.674 372.782 38.833 408.324 38.833 652.863 31.745 652.863 31.745 404.012 93.674 363.875"/><rect class="cls-11" x="104.1643" y="343.9648" width="71.8957" height="308.8982"/><rect class="cls-23" x="104.1643" y="343.9648" width="71.8957" height="308.8982"/><g class="cls-24"><rect x="111.1398" y="363.8754" width="57.9448" height="6.9908"/><rect x="111.1398" y="379.7163" width="57.9448" height="6.991"/><rect x="111.1398" y="395.5571" width="57.9448" height="6.991"/><rect x="111.1398" y="411.3981" width="57.9448" height="6.991"/><rect x="111.1398" y="427.2389" width="57.9448" height="6.9908"/><rect x="111.1398" y="443.0798" width="57.9448" height="6.991"/><rect x="111.1398" y="458.9206" width="57.9448" height="6.991"/><rect x="111.1398" y="474.7616" width="57.9448" height="6.991"/><rect x="111.1398" y="490.6024" width="57.9448" height="6.991"/><rect x="111.1398" y="506.4434" width="57.9448" height="6.9908"/><rect x="111.1398" y="522.2843" width="57.9448" height="6.9908"/><rect x="111.1398" y="538.1251" width="57.9448" height="6.991"/><rect x="111.1398" y="553.9659" width="57.9448" height="6.991"/><rect x="111.1398" y="569.8069" width="57.9448" height="6.9908"/><rect x="111.1398" y="585.6478" width="57.9448" height="6.9908"/><rect x="111.1398" y="601.4886" width="57.9448" height="6.991"/><rect x="111.1398" y="617.3294" width="57.9448" height="6.991"/><rect x="111.1398" y="633.1703" width="57.9448" height="6.9911"/></g><rect class="cls-25" x="408.6574" y="325.8034" width="64.6908" height="327.0595"/><rect class="cls-13" x="408.6574" y="324.8034" width="64.6908" height="327.0595"/><rect class="cls-25" x="408.6574" y="315.085" width="68.5587" height="10.7185" transform="translate(885.8736 640.8884) rotate(180)"/><rect class="cls-25" x="408.6574" y="298.3527" width="58.1284" height="16.7323" transform="translate(875.4432 613.4376) rotate(180)"/><rect class="cls-26" x="408.6574" y="298.3527" width="58.1284" height="16.7323" transform="translate(875.4432 613.4376) rotate(180)"/><g class="cls-27"><rect x="408.6574" y="298.3527" width="58.1284" height="16.7323" transform="translate(875.4432 613.4376) rotate(180)"/><rect class="cls-13" x="408.6574" y="298.3527" width="58.1284" height="16.7323" transform="translate(875.4432 613.4376) rotate(180)"/></g><rect class="cls-25" x="408.6574" y="261.4454" width="44.4714" height="36.9072" transform="translate(861.7862 559.7981) rotate(180)"/><rect class="cls-28" x="408.6574" y="261.4454" width="44.4714" height="36.9072" transform="translate(861.7862 559.7981) rotate(180)"/><g class="cls-29"><rect x="408.6574" y="261.4454" width="44.4714" height="36.9072" transform="translate(861.7862 559.7981) rotate(180)"/><rect class="cls-19" x="408.6574" y="261.4454" width="44.4714" height="36.9072" transform="translate(861.7862 559.7981) rotate(180)"/></g><g class="cls-20"><rect x="414.8586" y="338.2001" width="8.7755" height="34.4005"/></g><g class="cls-20"><rect x="414.8586" y="385.0653" width="8.7755" height="34.4003"/></g><g class="cls-20"><rect x="414.8586" y="431.9306" width="8.7755" height="34.4003"/></g><g class="cls-20"><rect x="414.8586" y="478.7958" width="8.7755" height="34.4003"/></g><g class="cls-20"><rect x="414.8586" y="525.661" width="8.7755" height="34.4003"/></g><g class="cls-20"><rect x="414.8586" y="572.5261" width="8.7755" height="34.4005"/></g><g class="cls-20"><rect x="429.3629" y="338.2001" width="8.7757" height="34.4005"/></g><g class="cls-20"><rect x="429.3629" y="385.0653" width="8.7757" height="34.4003"/></g><g class="cls-20"><rect x="429.3629" y="431.9306" width="8.7757" height="34.4003"/></g><g class="cls-20"><rect x="429.3629" y="478.7958" width="8.7757" height="34.4003"/></g><g class="cls-20"><rect x="429.3629" y="525.661" width="8.7757" height="34.4003"/></g><g class="cls-20"><rect x="429.3629" y="572.5261" width="8.7757" height="34.4005"/></g><g class="cls-20"><rect x="443.8672" y="338.2001" width="8.7757" height="34.4005"/></g><g class="cls-20"><rect x="443.8672" y="385.0653" width="8.7757" height="34.4003"/></g><g class="cls-20"><rect x="443.8672" y="431.9306" width="8.7757" height="34.4003"/></g><g class="cls-20"><rect x="443.8672" y="478.7958" width="8.7757" height="34.4003"/></g><g class="cls-20"><rect x="443.8672" y="525.661" width="8.7757" height="34.4003"/></g><g class="cls-20"><rect x="443.8672" y="572.5261" width="8.7757" height="34.4005"/></g><g class="cls-20"><rect x="458.3714" y="338.2001" width="8.7757" height="34.4005"/></g><g class="cls-20"><rect x="458.3714" y="385.0653" width="8.7757" height="34.4003"/></g><g class="cls-20"><rect x="458.3714" y="431.9306" width="8.7757" height="34.4003"/></g><g class="cls-20"><rect x="458.3714" y="478.7958" width="8.7757" height="34.4003"/></g><g class="cls-20"><rect x="458.3714" y="525.661" width="8.7757" height="34.4003"/></g><g class="cls-20"><rect x="458.3714" y="572.5261" width="8.7757" height="34.4005"/></g><rect class="cls-25" x="276.0536" y="325.8034" width="132.6039" height="327.0595"/><rect class="cls-25" x="282.405" y="298.3527" width="126.2524" height="16.7323"/><rect class="cls-25" x="313.6553" y="261.4454" width="95.0022" height="36.9072"/><rect class="cls-26" x="313.6553" y="261.4454" width="95.0022" height="36.9072"/><g class="cls-24"><rect x="313.6553" y="261.4454" width="95.0022" height="36.9072"/><rect class="cls-13" x="313.6553" y="261.4454" width="95.0022" height="36.9072"/></g><rect class="cls-25" x="272.0847" y="315.085" width="136.5727" height="10.7185"/><rect class="cls-13" x="272.0847" y="315.085" width="136.5727" height="10.7185"/><g class="cls-20"><rect x="288.7314" y="338.2001" width="17.9994" height="34.4005"/></g><g class="cls-20"><rect x="288.7314" y="385.0653" width="17.9994" height="34.4003"/></g><g class="cls-20"><rect x="288.7314" y="431.9306" width="17.9994" height="34.4003"/></g><g class="cls-20"><rect x="288.7314" y="478.7958" width="17.9994" height="34.4003"/></g><g class="cls-20"><rect x="288.7314" y="525.661" width="17.9994" height="34.4003"/></g><g class="cls-20"><rect x="288.7314" y="572.5261" width="17.9994" height="34.4005"/></g><g class="cls-20"><rect x="318.481" y="338.2001" width="17.9994" height="34.4005"/></g><g class="cls-20"><rect x="318.481" y="385.0653" width="17.9994" height="34.4003"/></g><g class="cls-20"><rect x="318.481" y="431.9306" width="17.9994" height="34.4003"/></g><g class="cls-20"><rect x="318.481" y="478.7958" width="17.9994" height="34.4003"/></g><g class="cls-20"><rect x="318.481" y="525.661" width="17.9994" height="34.4003"/></g><g class="cls-20"><rect x="318.481" y="572.5261" width="17.9994" height="34.4005"/></g><g class="cls-20"><rect x="348.2306" y="338.2001" width="17.9994" height="34.4005"/></g><g class="cls-20"><rect x="348.2306" y="385.0653" width="17.9994" height="34.4003"/></g><g class="cls-20"><rect x="348.2306" y="431.9306" width="17.9994" height="34.4003"/></g><g class="cls-20"><rect x="348.2306" y="478.7958" width="17.9994" height="34.4003"/></g><g class="cls-20"><rect x="348.2306" y="525.661" width="17.9994" height="34.4003"/></g><g class="cls-20"><rect x="348.2306" y="572.5261" width="17.9994" height="34.4005"/></g><g class="cls-20"><rect x="377.9802" y="338.2001" width="17.9996" height="34.4005"/></g><g class="cls-20"><rect x="377.9802" y="385.0653" width="17.9996" height="34.4003"/></g><g class="cls-20"><rect x="377.9802" y="431.9306" width="17.9996" height="34.4003"/></g><g class="cls-20"><rect x="377.9802" y="478.7958" width="17.9996" height="34.4003"/></g><g class="cls-20"><rect x="377.9802" y="525.661" width="17.9996" height="34.4003"/></g><g class="cls-20"><rect x="377.9802" y="572.5261" width="17.9996" height="34.4005"/></g><rect class="cls-19" x="318.481" y="620.4464" width="47.749" height="32.4166"/><rect class="cls-21" x="541.3773" y="466.3623" width="64.6908" height="186.5007"/><rect class="cls-22" x="541.3773" y="466.3623" width="64.6908" height="186.5007"/><rect class="cls-30" x="541.3773" y="455.644" width="68.5587" height="10.7183" transform="translate(1151.3133 922.0062) rotate(180)"/><rect class="cls-21" x="541.3773" y="438.9117" width="58.1284" height="16.7323" transform="translate(1140.883 894.5556) rotate(180)"/><rect class="cls-22" x="541.3773" y="438.9117" width="58.1284" height="16.7323" transform="translate(1140.883 894.5556) rotate(180)"/><g class="cls-20"><rect x="547.5785" y="478.7591" width="8.7755" height="34.4005"/></g><g class="cls-20"><rect x="547.5785" y="525.6244" width="8.7755" height="34.4003"/></g><g class="cls-20"><rect x="547.5785" y="572.4896" width="8.7755" height="34.4003"/></g><g class="cls-20"><rect x="562.0827" y="478.7591" width="8.7757" height="34.4005"/></g><g class="cls-20"><rect x="562.0827" y="525.6244" width="8.7757" height="34.4003"/></g><g class="cls-20"><rect x="562.0827" y="572.4896" width="8.7757" height="34.4003"/></g><g class="cls-20"><rect x="576.587" y="478.7591" width="8.7757" height="34.4005"/></g><g class="cls-20"><rect x="576.587" y="525.6244" width="8.7757" height="34.4003"/></g><g class="cls-20"><rect x="576.587" y="572.4896" width="8.7757" height="34.4003"/></g><g class="cls-20"><rect x="591.0915" y="478.7591" width="8.7755" height="34.4005"/></g><g class="cls-20"><rect x="591.0915" y="525.6244" width="8.7755" height="34.4003"/></g><g class="cls-20"><rect x="591.0915" y="572.4896" width="8.7755" height="34.4003"/></g><rect class="cls-30" x="408.7736" y="466.3623" width="132.6037" height="186.5007"/><rect class="cls-30" x="415.1249" y="438.9117" width="126.2524" height="16.7323"/><rect class="cls-11" x="404.8046" y="455.644" width="136.5727" height="10.7183"/><rect class="cls-31" x="404.8046" y="455.644" width="136.5727" height="10.7183"/><g class="cls-20"><rect x="421.4512" y="478.7591" width="17.9994" height="34.4005"/></g><g class="cls-20"><rect x="421.4512" y="525.6244" width="17.9994" height="34.4003"/></g><g class="cls-20"><rect x="421.4512" y="572.4896" width="17.9994" height="34.4003"/></g><g class="cls-20"><rect x="451.2008" y="478.7591" width="17.9996" height="34.4005"/></g><g class="cls-20"><rect x="451.2008" y="525.6244" width="17.9996" height="34.4003"/></g><g class="cls-20"><rect x="451.2008" y="572.4896" width="17.9996" height="34.4003"/></g><g class="cls-20"><rect x="480.9504" y="478.7591" width="17.9996" height="34.4005"/></g><g class="cls-20"><rect x="480.9504" y="525.6244" width="17.9996" height="34.4003"/></g><g class="cls-20"><rect x="480.9504" y="572.4896" width="17.9996" height="34.4003"/></g><g class="cls-20"><rect x="510.7" y="478.7591" width="17.9996" height="34.4005"/></g><g class="cls-20"><rect x="510.7" y="525.6244" width="17.9996" height="34.4003"/></g><g class="cls-20"><rect x="510.7" y="572.4896" width="17.9996" height="34.4003"/></g><path class="cls-10" d="M489.591,202.807a21.83,21.83,0,0,0-2.7323-1.17,11.4536,11.4536,0,0,0-2.9781-.687,2.5476,2.5476,0,0,0-.9249.1024,1.3594,1.3594,0,0,0-.2842.134c-.0749.0485-.1206.087-.1824.1316-.1214.0859-.2146.1743-.32.2623a14.0142,14.0142,0,0,0-1.0833,1.0961c-.6718.7534-1.268,1.539-1.8661,2.346l.74-.2593a22.6568,22.6568,0,0,0-3.0407-.641,12.4447,12.4447,0,0,0-1.5882-.1116,5.6487,5.6487,0,0,0-.8456.06,3.0035,3.0035,0,0,0-.4537.1107,3.3773,3.3773,0,0,0-.4552.2156,5.3707,5.3707,0,0,0-1.2009,1.1511,15.0171,15.0171,0,0,0-.8981,1.27,19.5471,19.5471,0,0,0-1.4157,2.7142c.653-.7823,1.2836-1.5694,1.9556-2.3086a14.6635,14.6635,0,0,1,1.0213-1.0672,4.9316,4.9316,0,0,1,1.07-.8321,2.7634,2.7634,0,0,1,1.1907-.117,11.2783,11.2783,0,0,1,1.42.1939c.9547.1715,1.9293.4086,2.8656.6633l.47.1279.27-.3872c.5468-.7844,1.14-1.56,1.7332-2.3046a12.936,12.936,0,0,1,.9169-1.0573c.0785-.0742.1585-.16.2346-.22l.1088-.0926c.0124-.0043.01-.0181.0437-.0292a1.4984,1.4984,0,0,1,.5226-.1044,14.471,14.471,0,0,1,2.8106.2745C487.6567,202.4269,488.6169,202.6269,489.591,202.807Z"/><path class="cls-10" d="M478.8483,231.8335a32.7062,32.7062,0,0,0-3.673-2.5167A17.1556,17.1556,0,0,0,471,227.4383a3.8159,3.8159,0,0,0-1.3887-.1194,2.0274,2.0274,0,0,0-.4569.1141c-.124.0493-.2028.0925-.3064.14-.2035.0911-.3664.1936-.5467.2922a20.988,20.988,0,0,0-1.9121,1.2943c-1.2065.9112-2.3118,1.8913-3.4262,2.9027l1.163-.165a33.9517,33.9517,0,0,0-4.2805-1.8292,18.6974,18.6974,0,0,0-2.3012-.6274,8.4863,8.4863,0,0,0-1.26-.1585,4.4994,4.4994,0,0,0-.6989.03,5.0526,5.0526,0,0,0-.7319.1842,8.05,8.05,0,0,0-2.1006,1.341,22.485,22.485,0,0,0-1.69,1.6044,29.27,29.27,0,0,0-2.8722,3.575c1.1875-.9589,2.3439-1.9314,3.5471-2.8214a21.8819,21.8819,0,0,1,1.8118-1.27,7.3754,7.3754,0,0,1,1.8152-.91,4.1368,4.1368,0,0,1,1.7836.1754,16.9291,16.9291,0,0,1,2.03.6992c1.3526.53,2.7154,1.1636,4.017,1.8108l.6535.3251.51-.49c1.032-.993,2.13-1.959,3.2189-2.8807a19.3875,19.3875,0,0,1,1.6559-1.286c.1368-.086.2794-.1892.4087-.2544l.187-.1044c.02-.0029.02-.0237.0727-.03a2.2487,2.2487,0,0,1,.7986-.0011,21.7106,21.7106,0,0,1,4.0494,1.2237C476.1172,230.7105,477.47,231.2845,478.8483,231.8335Z"/><path class="cls-10" d="M181.6019,164.6717a21.8425,21.8425,0,0,0-2.5042-1.6008,11.45,11.45,0,0,0-2.8261-1.1642,2.546,2.546,0,0,0-.9291-.05,1.3524,1.3524,0,0,0-.3024.0858c-.0817.0355-.1332.066-.2013.1-.1339.065-.24.137-.3587.2066a14.024,14.024,0,0,0-1.248.9043c-.7858.6337-1.5021,1.3111-2.2242,2.01l.7725-.1349a22.6869,22.6869,0,0,0-2.8949-1.1292,12.4824,12.4824,0,0,0-1.5488-.3694,5.6328,5.6328,0,0,0-.8438-.0787,2.9777,2.9777,0,0,0-.4659.035,3.3583,3.3583,0,0,0-.4843.1385,5.37,5.37,0,0,0-1.3729.9394,15.0187,15.0187,0,0,0-1.0935,1.1066,19.5887,19.5887,0,0,0-1.84,2.4464c.7719-.6651,1.5227-1.3386,2.3063-1.958a14.6692,14.6692,0,0,1,1.182-.8862,4.924,4.924,0,0,1,1.1916-.646,2.76,2.76,0,0,1,1.1937.079,11.2666,11.2666,0,0,1,1.3692.4234c.9138.3249,1.8365.7181,2.7189,1.1223l.4429.203.3294-.338c.6675-.6845,1.3795-1.3522,2.0863-1.99a12.93,12.93,0,0,1,1.0774-.8934c.09-.06.1825-.1322.2673-.1784l.1225-.0737c.0131-.0023.0131-.0164.0479-.0217a1.4984,1.4984,0,0,1,.5326-.0177,14.4746,14.4746,0,0,1,2.728.73C179.7558,163.9808,180.6705,164.3348,181.6019,164.6717Z"/><path class="cls-10" d="M205.9406,160.73a32.72,32.72,0,0,0-2.76-3.4936,17.159,17.159,0,0,0-3.43-3.0334,3.8156,3.8156,0,0,0-1.29-.5261,2.0159,2.0159,0,0,0-.47-.0266c-.1331.01-.2209.0282-.334.0427-.2215.0264-.4076.076-.609.1166a21.0343,21.0343,0,0,0-2.21.6682c-1.4227.5121-2.7689,1.12-4.1335,1.755l1.1595.1875a33.9293,33.9293,0,0,0-3.5444-3.0172,18.656,18.656,0,0,0-2.0111-1.2821,8.4859,8.4859,0,0,0-1.1562-.5254,4.48,4.48,0,0,0-.6766-.1788,5.0388,5.0388,0,0,0-.7533-.0413,8.04,8.04,0,0,0-2.404.6571,22.4942,22.4942,0,0,0-2.09,1.03,29.2908,29.2908,0,0,0-3.8039,2.5612c1.4188-.5631,2.8118-1.1486,4.2246-1.6413a21.9855,21.9855,0,0,1,2.1073-.675,7.3928,7.3928,0,0,1,2.0035-.3306,4.1377,4.1377,0,0,1,1.6513.6972,16.9258,16.9258,0,0,1,1.7307,1.27c1.1341.9082,2.2477,1.9169,3.2985,2.9215l.5276.5046.6321-.317c1.28-.6419,2.6156-1.2383,3.9289-1.7951a19.3531,19.3531,0,0,1,1.9631-.7367c.1561-.0415.3229-.0978.4657-.1215l.2095-.0443c.02.0032.0263-.0166.0785-.0072a2.2452,2.2452,0,0,1,.7627.2359,21.706,21.706,0,0,1,3.5038,2.3707C203.666,158.8469,204.7873,159.7963,205.9406,160.73Z"/><path class="cls-10" d="M513.576,224.7072a32.7,32.7,0,0,0-2.76-3.4934,17.159,17.159,0,0,0-3.43-3.0334,3.8139,3.8139,0,0,0-1.2905-.5262,2.0244,2.0244,0,0,0-.47-.0267c-.1333.01-.2209.0284-.334.0429-.2216.0262-.4076.0759-.609.1165a21.0216,21.0216,0,0,0-2.21.6683c-1.4226.5121-2.7687,1.12-4.1334,1.7549l1.16.1874a34.006,34.006,0,0,0-3.5444-3.0171,18.74,18.74,0,0,0-2.0112-1.2822,8.5089,8.5089,0,0,0-1.1561-.5254,4.517,4.517,0,0,0-.6766-.1786,5.0557,5.0557,0,0,0-.7534-.0413,8.0466,8.0466,0,0,0-2.4041.657,22.54,22.54,0,0,0-2.09,1.03,29.3392,29.3392,0,0,0-3.804,2.5612c1.4189-.5631,2.8119-1.1484,4.2247-1.641a21.8754,21.8754,0,0,1,2.1073-.6751,7.379,7.379,0,0,1,2.0035-.3305,4.1363,4.1363,0,0,1,1.6513.697,16.9207,16.9207,0,0,1,1.7306,1.27c1.1342.9082,2.2478,1.917,3.2984,2.9218l.5277.5042.6321-.3168c1.28-.6419,2.6157-1.2383,3.9288-1.7952a19.3551,19.3551,0,0,1,1.9633-.7366c.1561-.0415.3228-.0976.4657-.1216l.2093-.0442c.02.0032.0265-.0166.0787-.0074a2.2478,2.2478,0,0,1,.7625.2361,21.7,21.7,0,0,1,3.5038,2.37C511.3015,222.8243,512.4228,223.7739,513.576,224.7072Z"/><path class="cls-9" d="M61.7719,652.8629s-1.4362-6.6991-4.3036-7.7315-4.6123,1.9744-4.6123,1.9744-.6757-6.4011-4.7413-8.3168-7.1175,2.0073-7.1175,2.0073-3.12-8.1228-8.6938-8.1228-8.386,11.8844-8.386,11.8844-3.2886-3.5419-6.6611-1.5414-3.3728,9.8464-3.3728,9.8464Z"/><path class="cls-8" d="M537.4424,652.8629s-1.436-6.6991-4.3032-7.7315-4.6124,1.9744-4.6124,1.9744-.6756-6.4011-4.7414-8.3168-7.1174,2.0073-7.1174,2.0073-3.12-8.1228-8.6939-8.1228-8.3861,11.8844-8.3861,11.8844-3.2884-3.5419-6.661-1.5414-3.3727,9.8464-3.3727,9.8464Z"/><path class="cls-9" d="M188.4828,652.8629H138.08s1.66-7.1059,5.0024-7.6088,4.8969,2.792,4.8969,2.792-.1512-9.9109,6.0909-11.5992,11.4769,7.0682,11.4769,7.0682,3.9143-4.993,9.2473-4.6732,6.6881,8.5689,6.6881,8.5689S186.3375,644.5472,188.4828,652.8629Z"/><path class="cls-8" d="M16.98,652.8629H-9.5548s.0614-3.9494,2.67-4.9971a3.5537,3.5537,0,0,1,4.1594.9967s1.0638-7.2613,5.925-7.2613,7.1874,6.2646,7.1874,6.2646a3.7254,3.7254,0,0,1,3.7874-1.5413C16.8728,646.677,16.98,652.8629,16.98,652.8629Z"/><path class="cls-8" d="M209.3027,652.8629H182.768s.0613-3.9494,2.67-4.9971a3.5538,3.5538,0,0,1,4.1594.9967s1.0639-7.2613,5.925-7.2613,7.1876,6.2646,7.1876,6.2646a3.7252,3.7252,0,0,1,3.7872-1.5413C209.1954,646.677,209.3027,652.8629,209.3027,652.8629Z"/><path class="cls-8" d="M645.658,652.8629H619.1231s.0614-3.9494,2.67-4.9971a3.5536,3.5536,0,0,1,4.1593.9967s1.0639-7.2613,5.9249-7.2613,7.1877,6.2646,7.1877,6.2646a3.7254,3.7254,0,0,1,3.7874-1.5413C645.5509,646.677,645.658,652.8629,645.658,652.8629Z"/><path class="cls-9" d="M684.3672,652.8629h-43.74s.101-6.51,4.4006-8.2372a5.8575,5.8575,0,0,1,6.8564,1.643s1.7538-11.97,9.7667-11.97,11.848,10.3267,11.848,10.3267a6.1407,6.1407,0,0,1,6.2429-2.5406C684.1906,642.6663,684.3672,652.8629,684.3672,652.8629Z"/><rect class="cls-6" x="-18.5" y="652.8629" width="711.8124" height="12.3999"/><path class="cls-10" d="M31.4034,652.8629a20.7282,20.7282,0,0,1,.8461,6.2,20.4905,20.4905,0,0,1-.8461,6.2,20.5,20.5,0,0,1-.846-6.2A20.7345,20.7345,0,0,1,31.4034,652.8629Z"/><path class="cls-10" d="M87.04,652.8629a20.7377,20.7377,0,0,1,.846,6.2,20.4935,20.4935,0,0,1-.846,6.2,20.4931,20.4931,0,0,1-.8457-6.2A20.7277,20.7277,0,0,1,87.04,652.8629Z"/><path class="cls-10" d="M142.6773,652.8629a20.7341,20.7341,0,0,1,.8457,6.2,20.5025,20.5025,0,0,1-.8457,6.2,20.4905,20.4905,0,0,1-.8461-6.2A20.725,20.725,0,0,1,142.6773,652.8629Z"/><path class="cls-10" d="M198.3139,652.8629a20.7154,20.7154,0,0,1,.8461,6.2,20.4874,20.4874,0,0,1-.8461,6.2,20.5058,20.5058,0,0,1-.8458-6.2A20.7375,20.7375,0,0,1,198.3139,652.8629Z"/><path class="cls-10" d="M253.9508,652.8629a20.7249,20.7249,0,0,1,.846,6.2,20.4935,20.4935,0,0,1-.846,6.2,20.5025,20.5025,0,0,1-.8457-6.2A20.7341,20.7341,0,0,1,253.9508,652.8629Z"/><path class="cls-10" d="M309.5878,652.8629a20.7246,20.7246,0,0,1,.8458,6.2,20.4933,20.4933,0,0,1-.8458,6.2,20.4968,20.4968,0,0,1-.8461-6.2A20.7315,20.7315,0,0,1,309.5878,652.8629Z"/><path class="cls-10" d="M365.2246,652.8629a20.7379,20.7379,0,0,1,.8461,6.2,20.4968,20.4968,0,0,1-.8461,6.2,20.4935,20.4935,0,0,1-.846-6.2A20.7249,20.7249,0,0,1,365.2246,652.8629Z"/><path class="cls-10" d="M420.8614,652.8629a20.7344,20.7344,0,0,1,.8459,6.2,20.5,20.5,0,0,1-.8459,6.2,20.4964,20.4964,0,0,1-.8458-6.2A20.7311,20.7311,0,0,1,420.8614,652.8629Z"/><path class="cls-10" d="M476.4985,652.8629a20.7372,20.7372,0,0,1,.8456,6.2,20.5056,20.5056,0,0,1-.8456,6.2,20.4874,20.4874,0,0,1-.8461-6.2A20.7122,20.7122,0,0,1,476.4985,652.8629Z"/><path class="cls-10" d="M532.1351,652.8629a20.7218,20.7218,0,0,1,.8461,6.2,20.4937,20.4937,0,0,1-.8461,6.2,20.5058,20.5058,0,0,1-.8458-6.2A20.7375,20.7375,0,0,1,532.1351,652.8629Z"/><path class="cls-10" d="M587.7719,652.8629a20.7152,20.7152,0,0,1,.8459,6.2,20.4871,20.4871,0,0,1-.8459,6.2,20.5027,20.5027,0,0,1-.8458-6.2A20.7407,20.7407,0,0,1,587.7719,652.8629Z"/><path class="cls-10" d="M643.409,652.8629a20.7311,20.7311,0,0,1,.8458,6.2,20.5,20.5,0,0,1-.8458,6.2,20.4874,20.4874,0,0,1-.8461-6.2A20.7282,20.7282,0,0,1,643.409,652.8629Z"/><circle class="cls-32" cx="375.3983" cy="105.0814" r="53.5106" transform="translate(35.6478 296.2243) rotate(-45)"/><circle class="cls-33" cx="375.3984" cy="105.0814" r="33.6593"/></g></g></svg>