<svg xmlns="http://www.w3.org/2000/svg" xmlns:xlink="http://www.w3.org/1999/xlink" viewBox="0 0 100.4386 104.121"><defs><style>.cls-1{isolation:isolate;}.cls-2{fill:#e6e6e6;}.cls-2,.cls-21{mix-blend-mode:multiply;}.cls-3{fill:#a30000;}.cls-4{fill:#f24d2c;}.cls-5{fill:gray;}.cls-6{fill:#6e6a66;}.cls-7{fill:#d6d6d6;}.cls-8{fill:#d0d0d0;}.cls-9{fill:#9e2808;}.cls-10{fill:#fa8348;}.cls-11{fill:#ff9f56;}.cls-12{fill:#d2dde8;}.cls-13{fill:#b2c5d9;}.cls-14{fill:#8da5a8;}.cls-15{fill:#e6eff0;}.cls-16{fill:#c3c3c3;}.cls-17{fill:#acacac;}.cls-18{fill:#d8d8d8;}.cls-19{fill:url(#Ѕезым_нный_градиент_8);}.cls-20{fill:#f79c39;}.cls-21{fill:#d4b55b;}.cls-22{fill:#ff9d00;}.cls-23{fill:url(#Ѕезым_нный_градиент_8-2);}.cls-24{fill:#8fa7ab;}.cls-25{fill:#d03836;}.cls-26{fill:#404040;}</style><linearGradient id="Ѕезым_нный_градиент_8" x1="2620.8124" y1="-431.0019" x2="2626.4552" y2="-438.6228" gradientTransform="translate(2666.6425 -403.203) rotate(180)" gradientUnits="userSpaceOnUse"><stop offset="0.1613" stop-color="#d9d9d9"/><stop offset="0.1633" stop-color="#f0f0f0"/><stop offset="0.5593" stop-color="#f0f0f0"/><stop offset="0.5622" stop-color="#d9d9d9"/><stop offset="0.8728" stop-color="#d9d9d9"/><stop offset="0.8739" stop-color="#c4c4c4"/></linearGradient><linearGradient id="Ѕезым_нный_градиент_8-2" x1="2575.426" y1="-404.8825" x2="2581.0689" y2="-412.5035" xlink:href="#Ѕезым_нный_градиент_8"/></defs><g class="cls-1"><g id="Layer_1" data-name="Layer 1"><polyline class="cls-2" points="55.138 49.455 71.811 50.953 100.438 75.396 95.182 78.35 77.173 65.83 40.43 84.981 55.63 101.167 50.374 104.121 21.775 94.071 19.261 92.61 0 84.727"/><path class="cls-3" d="M83.8055,13.866l1.6729.9512Z"/><path class="cls-4" d="M85.4784,14.8172l4.4152-3.4636Z"/><polygon class="cls-5" points="81.292 12.406 83.805 13.866 68.027 62.653 65.513 61.193 81.292 12.406"/><polygon class="cls-6" points="83.805 13.866 68.026 62.653 73.283 59.699 89.062 10.912 83.805 13.866"/><polygon class="cls-7" points="89.899 11.387 92.413 12.847 87.156 15.802 84.642 14.341 89.899 11.387"/><path class="cls-4" d="M89.062,10.9117,73.283,59.6992Z"/><polygon class="cls-7" points="91.051 43.901 75.274 50.826 73.244 52.238 93.254 47.615 91.051 43.901"/><polygon class="cls-5" points="89.021 45.313 73.244 52.238 71.511 57.677 91.224 49.027 89.021 45.313"/><polygon class="cls-7" points="86.548 9.452 89.062 10.912 83.805 13.866 81.292 12.406 86.548 9.452"/><path class="cls-3" d="M38.9973,39.6369l1.6725.9506Z"/><path class="cls-4" d="M40.67,40.5875l4.4151-3.4634Z"/><polygon class="cls-5" points="36.483 38.176 38.997 39.637 23.218 88.424 20.704 86.964 36.483 38.176"/><polygon class="cls-6" points="28.474 85.47 23.218 88.424 38.997 39.637 44.253 36.682 28.474 85.47"/><polygon class="cls-7" points="46.284 69.744 30.506 76.669 28.476 78.081 48.487 73.458 46.284 69.744"/><polygon class="cls-5" points="44.253 71.156 28.476 78.081 26.743 83.52 46.456 74.87 44.253 71.156"/><polygon class="cls-8" points="47.604 38.618 55.63 101.167 50.374 104.121 42.347 41.572 47.604 38.618"/><polygon class="cls-7" points="45.09 37.158 47.604 38.618 42.347 41.572 39.834 40.112 45.09 37.158"/><path class="cls-4" d="M44.2534,36.6825,28.4742,85.47Z"/><polygon class="cls-7" points="41.739 35.222 44.253 36.682 38.997 39.637 36.483 38.176 41.739 35.222"/><polygon class="cls-5" points="42.348 41.572 50.374 104.121 47.86 102.66 39.834 40.112 42.348 41.572"/><polygon class="cls-8" points="92.413 12.847 87.156 15.802 95.182 78.35 100.439 75.396 92.413 12.847"/><polygon class="cls-5" points="87.156 15.802 84.642 14.341 92.668 76.889 95.182 78.35 87.156 15.802"/><polygon class="cls-9" points="45.104 63.985 46.398 64.369 92.442 17.322 42.757 46.008 45.104 63.985"/><polygon class="cls-10" points="93.737 17.704 92.442 17.322 42.757 46.008 44.051 46.391 93.737 17.704"/><polygon class="cls-11" points="96.08 35.678 94.767 36.441 87.705 40.508 77.749 46.27 70.688 50.337 60.746 56.085 53.685 60.167 46.397 64.375 45.734 59.319 44.053 46.397 50.888 42.443 60.845 36.695 67.892 32.628 77.848 26.88 84.909 22.799 93.735 17.701 94.018 19.833 95.755 33.193 96.08 35.678"/><polygon class="cls-9" points="48.061 87.609 49.355 87.992 95.4 40.945 45.714 69.631 48.061 87.609"/><polygon class="cls-10" points="96.694 41.328 95.4 40.945 45.714 69.631 47.008 70.014 96.694 41.328"/><polygon class="cls-11" points="99.046 59.305 95.345 61.437 85.375 67.185 78.328 71.267 68.372 77 61.311 81.082 51.369 86.816 49.349 87.988 48.107 78.455 47.005 70.01 51.467 67.425 58.529 63.358 68.471 57.611 75.532 53.543 85.488 47.795 92.535 43.714 96.687 41.327 98.128 52.3 99.046 59.305"/><polygon class="cls-12" points="47.005 70.01 51.467 67.425 48.107 78.455 47.005 70.01"/><polygon class="cls-12" points="60.845 36.695 53.685 60.167 46.397 64.375 45.734 59.319 50.888 42.443 60.845 36.695"/><polygon class="cls-12" points="68.471 57.611 61.311 81.082 51.369 86.816 58.529 63.358 68.471 57.611"/><polygon class="cls-12" points="77.848 26.88 70.688 50.337 60.746 56.085 67.892 32.628 77.848 26.88"/><polygon class="cls-12" points="85.488 47.795 78.328 71.267 68.372 77 75.532 53.543 85.488 47.795"/><polygon class="cls-12" points="94.018 19.833 87.705 40.508 77.749 46.27 84.909 22.799 93.735 17.701 94.018 19.833"/><polygon class="cls-12" points="98.128 52.3 95.345 61.437 85.375 67.185 92.535 43.714 96.687 41.327 98.128 52.3"/><polygon class="cls-13" points="43.157 31.461 41.207 32.586 41.207 39.985 43.157 38.859 43.157 31.461"/><polygon class="cls-14" points="40.411 32.153 40.411 39.552 41.207 39.985 41.207 32.586 40.411 32.153"/><polygon class="cls-15" points="42.361 31.028 40.411 32.153 41.207 32.586 43.157 31.461 42.361 31.028"/><path class="cls-16" d="M45.754,26.7534s-.5-.9966-3.1107-.4906c-3.7672.73-5.5035,4.8844-4.8759,7.8537.5463,2.585,1.7332,2.8871,1.7332,2.8871C41.8025,35.6744,45.754,29.3951,45.754,26.7534Z"/><path class="cls-17" d="M38.8441,29.391a7.16,7.16,0,0,0,.1414,2.4254,9.5784,9.5784,0,0,0,1.6,3.865c1.4435-.8335,3.5346-3.6129,4.8944-6.2222a14.8477,14.8477,0,0,1-5.9123,6.6485s-.903.2147-1.4491-2.37C37.7358,31.9267,37.8506,30.4431,38.8441,29.391Z"/><path class="cls-18" d="M46.9569,29.3146c0-2.7342-1.931-3.8354-4.3132-2.46A9.5059,9.5059,0,0,0,38.33,34.2954c0,2.7336,1.9317,3.8344,4.3139,2.4591A9.5047,9.5047,0,0,0,46.9569,29.3146Z"/><path class="cls-19" d="M46.91,29.4685c0-2.5643-1.8118-3.5969-4.0463-2.3069a8.9152,8.9152,0,0,0-4.0464,6.9794c0,2.5642,1.8114,3.5972,4.0464,2.307A8.9168,8.9168,0,0,0,46.91,29.4685Z"/><path class="cls-20" d="M39.3325,34.0517c0,2.2345,1.5747,3.1343,3.5242,2.0093A7.4245,7.4245,0,0,0,45.63,32.912a6.8661,6.8661,0,0,0,.7649-2.9541c0-2.234-1.59-3.134-3.5385-2.0091a7.873,7.873,0,0,0-3.509,5.668A4.0182,4.0182,0,0,0,39.3325,34.0517Z"/><path class="cls-21" d="M39.3477,33.6168a21.2529,21.2529,0,0,1,2.8787-1.4094c.84-.3749,2.3547.21,3.4039.7046a6.8661,6.8661,0,0,0,.7649-2.9541c0-2.234-1.59-3.134-3.5385-2.0091A7.873,7.873,0,0,0,39.3477,33.6168Z"/><path class="cls-22" d="M43.7229,29.3292c0-.8427-.5952-1.1818-1.3293-.758a2.9285,2.9285,0,0,0-1.3293,2.2928c0,.8426.5949,1.1818,1.3293.7582A2.93,2.93,0,0,0,43.7229,29.3292Z"/><path class="cls-22" d="M42.3935,32.8492c0-.8423-.5949-1.1813-1.3292-.7576a2.9282,2.9282,0,0,0-1.3293,2.293c0,.8426.5949,1.1814,1.3293.7578A2.9284,2.9284,0,0,0,42.3935,32.8492Z"/><path class="cls-22" d="M45.53,31.037c0-.8423-.5952-1.1816-1.3294-.7576a2.928,2.928,0,0,0-1.3294,2.2928c0,.8428.5949,1.1816,1.3294.7578A2.9293,2.9293,0,0,0,45.53,31.037Z"/><polygon class="cls-13" points="88.544 5.341 86.593 6.467 86.593 13.866 88.544 12.74 88.544 5.341"/><polygon class="cls-14" points="85.797 6.034 85.797 13.433 86.593 13.866 86.593 6.467 85.797 6.034"/><polygon class="cls-15" points="87.748 4.908 85.797 6.034 86.593 6.467 88.544 5.341 87.748 4.908"/><path class="cls-16" d="M91.14.6339S90.64-.3624,88.03.1431c-3.7671.73-5.5034,4.8851-4.8757,7.854.5461,2.5851,1.7327,2.8869,1.7327,2.8869C87.1889,9.5549,91.14,3.2755,91.14.6339Z"/><path class="cls-17" d="M84.2308,3.2717a7.1489,7.1489,0,0,0,.1408,2.4253,9.57,9.57,0,0,0,1.6,3.8646C87.4155,8.7284,89.507,5.949,90.8667,3.34a14.8482,14.8482,0,0,1-5.9124,6.648s-.9034.215-1.45-2.37C83.122,5.8072,83.2372,4.3236,84.2308,3.2717Z"/><path class="cls-18" d="M92.3434,3.195C92.3434.4613,90.4121-.64,88.03.7356a9.5049,9.5049,0,0,0-4.3132,7.44c0,2.7335,1.9311,3.8348,4.3132,2.4589A9.5041,9.5041,0,0,0,92.3434,3.195Z"/><path class="cls-23" d="M92.2966,3.3493c0-2.5644-1.8115-3.5973-4.0463-2.3073a8.9173,8.9173,0,0,0-4.0465,6.98c0,2.5646,1.8117,3.5973,4.0465,2.3069A8.9158,8.9158,0,0,0,92.2966,3.3493Z"/><path class="cls-20" d="M84.7187,7.9324c0,2.2347,1.5751,3.1342,3.5243,2.0093a7.4251,7.4251,0,0,0,2.774-3.1486,6.8737,6.8737,0,0,0,.7647-2.9543c0-2.2343-1.5894-3.1338-3.5387-2.0095a7.8746,7.8746,0,0,0-3.5091,5.6682A4.0173,4.0173,0,0,0,84.7187,7.9324Z"/><path class="cls-21" d="M84.7339,7.4975a21.2712,21.2712,0,0,1,2.8792-1.41c.84-.3749,2.3543.21,3.4039.7052a6.8737,6.8737,0,0,0,.7647-2.9543c0-2.2343-1.5894-3.1338-3.5387-2.0095A7.8746,7.8746,0,0,0,84.7339,7.4975Z"/><path class="cls-22" d="M89.1092,3.21c0-.8427-.5948-1.1821-1.3293-.7581a2.9285,2.9285,0,0,0-1.3291,2.293c0,.8425.595,1.1819,1.3291.7579A2.9288,2.9288,0,0,0,89.1092,3.21Z"/><path class="cls-22" d="M87.78,6.73c0-.843-.5948-1.1818-1.3291-.7582a2.9286,2.9286,0,0,0-1.3295,2.2928c0,.8427.595,1.1819,1.3295.758A2.9282,2.9282,0,0,0,87.78,6.73Z"/><path class="cls-22" d="M90.9164,4.9178c0-.8427-.5952-1.1821-1.3291-.7581a2.9293,2.9293,0,0,0-1.3295,2.2932c0,.8423.5952,1.1817,1.3295.7578A2.93,2.93,0,0,0,90.9164,4.9178Z"/><polygon class="cls-24" points="66.257 32.468 56.138 78.799 57.467 79.474 67.864 31.981 66.257 32.468"/><polygon class="cls-12" points="57.463 79.475 90.428 60.484 67.866 31.979 57.463 79.475"/><polygon class="cls-25" points="89.204 60.17 68.045 33.985 59.184 77.464 89.204 60.17"/><polygon class="cls-11" points="85.526 59.224 69.154 38.754 63.431 71.989 85.526 59.224"/><path class="cls-26" d="M73.0335,49.4537a3.5075,3.5075,0,0,0,1.0485-3.0566c-.1335-1.216-.8195-1.8193-1.5322-1.3474a3.5077,3.5077,0,0,0-1.0484,3.0568C71.6351,49.3225,72.3208,49.9258,73.0335,49.4537Z"/><path class="cls-26" d="M83.5805,59.0872s-3.76-2.4979-4.5342-2.1789c-.4835.1993-.7634.9762-1.2392,1.9274l-2.7354-1.1934c-.5112-1.7667-2.3911-6.4906-2.3911-6.4906L70.9312,49.299l-2.89,2.3286L66.8162,56.5s.2113,1.2692,1.0286.0372l.2175-.8031,1.3867.5783-.1318.5628c-.2125.9075.0135,1.7656.5147,1.9555l2.7262,1.0329.4569,4.1615c.0827.7537.5475,1.1014,1.0381.7764l.0165-.0109a2.2314,2.2314,0,0,0,.7382-1.9533l-.4167-3.7981a1.402,1.402,0,0,0,.6525-.394L77.38,59.62a7.7761,7.7761,0,0,1-.7272,1.0287,6.5691,6.5691,0,0,0-1.494,3.4208ZM72.16,53.1263l1.22,3.7781-1.8546-.809Zm-3.819,1.58.4621-1.7042,1.6284-.8853-.7441,3.177Z"/><path class="cls-26" d="M79.6371,55.9093c.3319-.7447-.184-2.0054-1.1968-.5887C77.96,55.9925,79.3056,56.6538,79.6371,55.9093Z"/><path class="cls-26" d="M75.8828,59.5287s-1.061,1.1446-.6021,1.3933S77.3855,58.81,75.8828,59.5287Z"/><path class="cls-26" d="M77.48,57.6608c.45.1717,1.113-1.8143.1716-1.3844C77.6515,56.2764,77.03,57.49,77.48,57.6608Z"/><path class="cls-26" d="M69.7791,62.3836l-1.3807,4.2505c-.2283.7163-.0287,1.4423.4062,1.4747.31.0233.6424-.3238.801-.8377l1.5487-4.97-.09-2.29-1.6475-.9242Z"/></g></g></svg>