<svg width="105" height="81" viewBox="0 0 105 81" fill="none" xmlns="http://www.w3.org/2000/svg">
<path fill-rule="evenodd" clip-rule="evenodd" d="M35.1556 71.9686C34.9328 71.9739 34.7165 72.0019 34.4923 72.0019C19.8397 72.0019 7.95977 60.0723 7.95977 45.3552C7.95977 30.6382 19.8397 18.7059 34.4923 18.7059C34.7165 18.7059 34.9328 18.7339 35.1556 18.7393V12.0436H29.1858L28.6578 11.2441C12.3934 14.037 0 28.2224 0 45.3552C0 64.4881 15.4433 79.9993 34.4923 79.9993C34.7152 79.9993 34.9341 79.986 35.1556 79.9807V71.9686Z" fill="#EBBF30"/>
<path fill-rule="evenodd" clip-rule="evenodd" d="M35.1556 18.7424C34.9328 18.737 34.7165 18.7091 34.4923 18.7091C19.8397 18.7091 7.95977 30.6386 7.95977 45.3557C7.95977 60.0728 19.8397 72.005 34.4923 72.005C34.7165 72.005 34.9328 71.977 35.1556 71.9717V78.6673H29.1858L28.6578 79.4668C12.3934 76.6739 0 62.4885 0 45.3557C0 26.2228 15.4433 10.7116 34.4923 10.7116C34.7152 10.7116 34.9341 10.7249 35.1556 10.7303V18.7424Z" fill="#EBBF30"/>
<path fill-rule="evenodd" clip-rule="evenodd" d="M34.4927 80.0013V72.0038C49.1479 72.0038 61.0279 60.0743 61.0279 45.3572C61.0279 30.6401 49.1479 18.7079 34.4927 18.7079V12.0456H39.8018L40.3298 11.2461C56.5916 14.0389 68.985 28.2244 68.985 45.3572C68.985 64.4901 53.5417 80.0013 34.4927 80.0013Z" fill="#D1A92A"/>
<path fill-rule="evenodd" clip-rule="evenodd" d="M34.4927 10.7116V18.7091C49.1479 18.7091 61.0279 30.6386 61.0279 45.3557C61.0279 60.0728 49.1479 72.005 34.4927 72.005V78.6673H39.8018L40.3298 79.4668C56.5916 76.6739 68.985 62.4885 68.985 45.3557C68.985 26.2228 53.5417 10.7116 34.4927 10.7116Z" fill="#D1A92A"/>
<path fill-rule="evenodd" clip-rule="evenodd" d="M67.5736 5.94727H61.6494L65.2039 15.4701H71.1282L67.5736 5.94727Z" fill="#EBBF30"/>
<path fill-rule="evenodd" clip-rule="evenodd" d="M79.4244 5.94727L85.3463 5.94727L81.7917 15.4701H75.8699L79.4244 5.94727Z" fill="#D1A92A"/>
<path fill-rule="evenodd" clip-rule="evenodd" d="M80.5949 0L82.9765 3.56779L73.4977 19.0266L64.0332 3.56779L66.4029 0L80.5949 0Z" fill="#D8E7EE"/>
<path fill-rule="evenodd" clip-rule="evenodd" d="M78.8853 7.13836L79.4244 5.9483L80.614 0.0253906L85.3344 5.9483L84.2585 7.13836H78.8853ZM62.7394 7.13836L61.6636 5.9483L66.3816 0.0277707L67.5736 5.9483L68.1127 7.13836H62.7394Z" fill="#C5D6E0"/>
<path fill-rule="evenodd" clip-rule="evenodd" d="M73.4859 19.0141L61.6624 5.94727H67.5735L73.4859 19.0141ZM85.3343 5.94727L73.5108 19.0141L79.4232 5.94727H85.3343V5.94727Z" fill="#ABC0CE"/>
<path fill-rule="evenodd" clip-rule="evenodd" d="M67.5735 5.9479L73.4977 0L79.4243 5.9479L67.5735 5.9479Z" fill="white"/>
<path fill-rule="evenodd" clip-rule="evenodd" d="M74.0902 68.9903C73.8912 68.995 73.6981 69.02 73.4978 69.02C60.4112 69.02 49.801 58.3655 49.801 45.2213C49.801 32.0771 60.4112 21.4202 73.4978 21.4202C73.6981 21.4202 73.8912 21.4452 74.0902 21.4499V15.4699H68.7584L68.2869 14.7559C53.7607 17.2502 42.6919 29.9196 42.6919 45.2213C42.6919 62.3093 56.4847 76.1628 73.4978 76.1628C73.6969 76.1628 73.8924 76.1509 74.0902 76.1461V68.9903Z" fill="#EBBF30"/>
<path fill-rule="evenodd" clip-rule="evenodd" d="M73.4978 76.1628V69.02C86.5868 69.02 97.197 58.3655 97.197 45.2213C97.197 32.0771 86.5868 21.4202 73.4978 21.4202V15.4699H78.2395L78.7111 14.7559C93.2349 17.2502 104.304 29.9196 104.304 45.2213C104.304 62.3093 90.511 76.1628 73.4978 76.1628Z" fill="#D1A92A"/>
</svg>
