<svg id="Layer_1" data-name="Layer 1" xmlns="http://www.w3.org/2000/svg" viewBox="0 0 213.55 203.62"><defs><style>.cls-1{fill:#333c3b;}.cls-2{fill:#ddf2eb;}.cls-3{fill:#8ba6a1;}.cls-4{fill:#cbe6dd;}.cls-5{fill:#6e7c7c;}.cls-6{fill:#2c3838;}.cls-7{fill:#555a60;}.cls-8{fill:#575f72;}.cls-9{fill:#6fc5ff;}.cls-10{fill:#68d2e8;}</style></defs><path class="cls-1" d="M3.4,58.49,102.3.85A5.82,5.82,0,0,1,110.88,4S106.71.2,104.21,1.66L5.32,59.29a7,7,0,0,0-3.45,6l24.79,89.21a2.73,2.73,0,0,0,2.63,1.77c-1.89.84-3.79-.26-4.5-2.35L0,64.41A6.86,6.86,0,0,1,3.4,58.49Z"/><path class="cls-2" d="M212.34,136.81l-73.8-41.12a6.13,6.13,0,0,0-5.49,0L29.3,156.13c-1.48.85-1.41,2.25.14,3.12l73.81,41.12a6.14,6.14,0,0,0,5.48,0l103.76-60.45C214,139.08,213.9,137.68,212.34,136.81Z"/><path class="cls-3" d="M122.46,162.4l24.41-14.22a7.59,7.59,0,0,1,6.78,0l19.77,11c1.92,1.07,2,2.8.17,3.86l-24.41,14.22a7.56,7.56,0,0,1-6.78,0l-19.77-11C120.71,165.2,120.64,163.47,122.46,162.4Z"/><path class="cls-4" d="M122.46,163.52l24.41-14.22a7.56,7.56,0,0,1,6.78,0l19.77,11c1.92,1.07,2,2.8.17,3.86l-24.41,14.22a7.59,7.59,0,0,1-6.78,0l-19.77-11C120.71,166.32,120.64,164.59,122.46,163.52Z"/><path class="cls-5" d="M29.44,159.25l73.81,41.13a6,6,0,0,0,5.48,0S212.91,139.64,213,139.57a1.55,1.55,0,0,0,.3-.33l0-.06a2,2,0,0,0,.23-.76v2.41a2.25,2.25,0,0,1-1.11,1.78L108.92,203a6,6,0,0,1-5.49,0l-73.8-41.13a2,2,0,0,1-1.21-1.58l-.18-2.57A2,2,0,0,0,29.44,159.25Z"/><path class="cls-6" d="M40.83,158.28l0,1.27a.49.49,0,0,0,.3.4L44.91,162l.14.06.12,0,.06,0h0l.1,0,.1,0h.3l.13,0H46l0,0h.09l.21-.09,2.43-1.43,0,.87a.48.48,0,0,0,.3.39l3.63,2,.1.06.14.06.12,0h.11l.1,0h.4l.12,0,.07,0h0l.09,0,.21-.09,4.63-2.7h0a.48.48,0,0,0,.11-.09l.06-.06,0,0v0l0,0s0,0,0-.06a.08.08,0,0,0,0,0v-.06l0-1,.39.22.14.07.12,0h.6l.12,0h.1l.09,0,.21-.1,3.71-2.17,0,.89a.53.53,0,0,0,.31.4l3.2,1.78,0,0a0,0,0,0,0,0,0,.53.53,0,0,1-.19.17L57.7,167.13a1.45,1.45,0,0,1-.29.11l0,0c-.11,0-.22,0-.34,0h0a1.61,1.61,0,0,1-.37,0h0a1.52,1.52,0,0,1-.32-.12l-3.74-2.08a.51.51,0,0,1-.3-.4l0,1.28a.51.51,0,0,0,.31.4l3.74,2.08.14.07.12,0h.73l0,0h0l.08,0a.68.68,0,0,0,.21-.1l.27-.15,0,.86a.47.47,0,0,0,.3.4l3.73,2.08.14.06.13.05h.1l.1,0H63l.14,0h.08l.08,0,.21-.09.26-.16,0,.86c0,.14.1.28.3.4l3.74,2.08.13.06.12,0,.06,0h.67l0,0h0l.09,0a1,1,0,0,0,.21-.09l1.45-.85,0,.93a.51.51,0,0,0,.31.4l3.73,2.08.14.07a.27.27,0,0,0,.12,0l.07,0h0l.1,0h.06l0,1.21a.52.52,0,0,0,.3.4l3.74,2.08.14.07.13,0h.1l.09,0h.41l.14,0h.08l.08,0,.21-.09,3.6-2.1h0a.34.34,0,0,0,.12-.09s0,0,.06-.06v0h0l0,0a.11.11,0,0,1,0-.06l0-.05v-.07l0-1,.38.21.14.06.12,0h.11l.1,0,.09,0h.31l.14,0H86l.08,0a1.33,1.33,0,0,0,.21-.09l4.63-2.7h0l.11-.09.06-.06s0,0,0,0h0l0,0a.11.11,0,0,0,0-.06s0,0,0-.05v-.06l0-1,.4.22.13.07.12,0,.07,0h.66l.06,0h.05l.08,0,.21-.09,4.63-2.7h0a.63.63,0,0,0,.12-.1l.06-.06,0,0h0l0,0,0,0a.42.42,0,0,1,0-.06s0,0,0-.06h0l0-1,.38.22.14.07.12,0h.11l.1,0h.4l.12,0h.1l.08,0a1,1,0,0,0,.22-.09l4.63-2.7h0a.62.62,0,0,0,.12-.08.28.28,0,0,0,.06-.08h0a.08.08,0,0,0,0,0s0,0,0,0a.11.11,0,0,0,0-.05s0,0,0-.06h0l0-1,.39.21.14.07.12,0,0,0h.06l.09,0h.41l.12,0h.05l0,0H106l.22-.09,4.63-2.7a0,0,0,0,1,0,0l.12-.09.06-.06a.1.1,0,0,1,0,0h0l0,0a.07.07,0,0,0,0-.06s0,0,0-.05a.13.13,0,0,0,0-.06l0-1,.38.21.14.07.13,0,.06,0h0l.1,0h.4l.14,0h0l0,0,.09,0a1.89,1.89,0,0,0,.21-.09L144,144.3h0a1.48,1.48,0,0,0,.13-.08l0-.07,0,0h0s0,0,0,0l0-.05a.13.13,0,0,1,0-.06v-.05h0l0-1,.38.21a.69.69,0,0,0,.15.07.34.34,0,0,0,.12,0l.06,0h0l.1,0h.4l.15,0h0l0,0,.09,0a.53.53,0,0,0,.2-.09l4.65-2.7h0a.38.38,0,0,0,.13-.09l.05-.06v0h0l0,0a.33.33,0,0,1,0-.06v-.06a.09.09,0,0,0,0,0h0l0-1,.38.21.15.07.12,0h.1l.1,0h.4l.12,0h.1l.09,0,.2-.09,4.64-2.7h0l.12-.09.06-.07a0,0,0,0,1,0,0h0l0,0,0-.05,0,0v-.06l0-1.08.45.25a.69.69,0,0,0,.15.07l.12,0,.06,0h.54l.13,0h.05l0,0,.09,0a1.33,1.33,0,0,0,.21-.09l4.63-2.7h0a.6.6,0,0,0,.13-.09s0,0,.06-.06v0h0l0,0,0-.05s0,0,0-.06v-.05h0l0-1,.38.21a.52.52,0,0,0,.15.06l.12,0,.06,0h0l.1,0h.4l.12,0,.07,0h.11a1,1,0,0,0,.21-.1l4.63-2.7h0l.12-.1.05-.06,0,0a0,0,0,0,1,0,0s0,0,0,0l0,0a.15.15,0,0,1,0-.06s0,0,0-.05l-.05-1.3a.39.39,0,0,1-.06.21h0a.5.5,0,0,1-.2.17L166,130.2a2.08,2.08,0,0,1-.3.12h0a2,2,0,0,1-.34,0h0a2.07,2.07,0,0,1-.35,0,0,0,0,0,0,0,0,1.61,1.61,0,0,1-.33-.12l-3.73-2.08a.54.54,0,0,1-.31-.4l.06,1.29a.48.48,0,0,0,.3.39l3.25,1.82a1,1,0,0,1-.18.15l-4.64,2.7a.83.83,0,0,1-.29.11H159a1.75,1.75,0,0,1-.33,0h0a2.33,2.33,0,0,1-.37,0h0a1.24,1.24,0,0,1-.32-.12L154.23,132a.33.33,0,0,1-.11-.09l.81-.47h0s.09-.06.12-.1l.06-.07h0l0,0a.08.08,0,0,0,0,0,.11.11,0,0,0,0-.06V131h0l0-1.25.62.34.13.07a.61.61,0,0,0,.13,0l.05,0h0l.09,0h.41l.13,0h.05l.05,0h.08l.21-.1,2.63-1.52h0l.12-.09.06-.07a0,0,0,0,1,0,0h0a0,0,0,0,0,0,0l0-.05s0,0,0-.06a.43.43,0,0,0,0,0h0l0-1,.41.22.15.07a.25.25,0,0,0,.12,0l.06,0h0l.1,0h.4l.12,0,.06,0h0l.09,0a.67.67,0,0,0,.21-.09l5.29-3.08h0l.12-.1.06-.06a0,0,0,0,1,0,0h0s0,0,0,0,0,0,0,0a.14.14,0,0,0,0-.06.09.09,0,0,0,0,0h0l0-.84,6,3.33.14.06a.28.28,0,0,0,.13,0l.06,0h0s0,0,0,0l.09,0h.4l.13,0h.09l.09,0,.21-.09,3.51-2a0,0,0,0,1,0,0,.38.38,0,0,0,.12-.09l.06-.06a0,0,0,0,1,0,0h0l0,0a.08.08,0,0,1,0-.06.11.11,0,0,0,0-.05s0,0,0-.06l-.05-1.29a.41.41,0,0,1-.06.2h0a.45.45,0,0,1-.2.18l-3.51,2a.84.84,0,0,1-.29.12h0a2,2,0,0,1-.34,0h0a2.21,2.21,0,0,1-.35,0h0a1.61,1.61,0,0,1-.33-.12l-9.46-5.27a.47.47,0,0,1-.13-.11l3.05-1.77h0a.4.4,0,0,0,.12-.1l.06,0v0h0l0,0a.33.33,0,0,0,0-.06.2.2,0,0,1,0,0v-.06h0l0-1.28a.32.32,0,0,1-.07.2h0a.9.9,0,0,1-.2.18l-3.51,2a.93.93,0,0,1-.32.12s0,0,0,0a1.87,1.87,0,0,1-.34,0h0a2,2,0,0,1-.35,0h0a1.75,1.75,0,0,1-.32-.12l-9.43-5.25a.63.63,0,0,1-.12-.11l3.05-1.77h0a.52.52,0,0,0,.11-.1s0,0,.07-.06a0,0,0,0,1,0,0v0h0l0-.06,0,0s0-.05,0-.06l0-1.29a.56.56,0,0,1-.06.2h0a.72.72,0,0,1-.2.18l-5,2.91a1,1,0,0,1-.3.11l0,0a2,2,0,0,1-.35,0h0a1.34,1.34,0,0,1-.35,0h0a1.75,1.75,0,0,1-.32-.12l-3.73-2.08A.55.55,0,0,1,145,111l4.54-2.65h0a.38.38,0,0,0,.12-.09l.06-.06v0h0l0,0a.08.08,0,0,1,0-.05s0,0,0-.06,0,0,0,0h0l0-1.29a.31.31,0,0,1-.07.2h0a.71.71,0,0,1-.2.18l-15.63,9.11a1.25,1.25,0,0,1-.29.11h0a1.86,1.86,0,0,1-.34,0h0a2.2,2.2,0,0,1-.36,0h0a1,1,0,0,1-.32-.13l-3.74-2.08-.09-.08,2-1.19h0a.57.57,0,0,0,.13-.08s0,0,.05-.08h0a.14.14,0,0,0,0,0,.17.17,0,0,1,0,0,.11.11,0,0,0,0-.06v0h0l0-1,.38.22.15.07.13,0h.72l.05,0h0l.1,0a1.21,1.21,0,0,0,.2-.09l4.64-2.71h0l.13-.09.06-.06v0h0l0,0a.08.08,0,0,1,0,0v-.06a.13.13,0,0,0,0,0h0l0-.84.24.13a.61.61,0,0,0,.14.07l.13,0,.06,0h.66l.05,0h.05l.08,0a.67.67,0,0,0,.21-.09l4.64-2.71h0a.94.94,0,0,0,.12-.09l.05-.06,0,0h0a0,0,0,0,1,0,0l0,0s0,0,0-.06,0,0,0,0h0l-.05-1.29a.42.42,0,0,1-.06.21h0a.71.71,0,0,1-.2.17l-4.63,2.7a2.08,2.08,0,0,1-.3.12h0a2,2,0,0,1-.34,0h0a1.47,1.47,0,0,1-.36,0h0a1.61,1.61,0,0,1-.33-.12L134,104.54a.54.54,0,0,1-.3-.4l0,1.29a.52.52,0,0,0,.3.39l3.28,1.82a.46.46,0,0,1-.07.07l-4.64,2.7a1.1,1.1,0,0,1-.29.11h-.05a1.27,1.27,0,0,1-.34,0h0a1.2,1.2,0,0,1-.36,0h0a1.21,1.21,0,0,1-.32-.11l-3.73-2.09a.5.5,0,0,1-.31-.4l0,1.3a.5.5,0,0,0,.3.39l3.25,1.81a.65.65,0,0,1-.17.15l-4.64,2.7a.92.92,0,0,1-.29.11l-.05,0a1.87,1.87,0,0,1-.34,0h0a2.19,2.19,0,0,1-.36,0h0a1.61,1.61,0,0,1-.33-.12l-3.73-2.08a.48.48,0,0,1-.29-.38l0,1.27a.48.48,0,0,0,.3.39l3.21,1.8v0h0a1,1,0,0,1-.21.17l-4.63,2.7a2.52,2.52,0,0,1-.29.12h0a1.27,1.27,0,0,1-.34,0h0a1.42,1.42,0,0,1-.36,0h0a1,1,0,0,1-.32-.11l-3.74-2.08a.49.49,0,0,1-.3-.4l0,1.29a.52.52,0,0,0,.3.39l3.25,1.81a.51.51,0,0,1-.17.15l-4.63,2.7a1.48,1.48,0,0,1-.29.12h0a1.9,1.9,0,0,1-.35,0h0a2.19,2.19,0,0,1-.36,0h0a1.52,1.52,0,0,1-.32-.12L107.51,120a.52.52,0,0,1-.3-.39l.05,1.28a.5.5,0,0,0,.3.39l3.24,1.82a.43.43,0,0,1-.17.15l-4.63,2.7a.77.77,0,0,1-.3.11l0,0a1.87,1.87,0,0,1-.34,0h0a2.09,2.09,0,0,1-.36,0h0a1.2,1.2,0,0,1-.33-.13l-3.73-2.08a.54.54,0,0,1-.31-.39l.05,1.28a.53.53,0,0,0,.31.4l3.25,1.81a.62.62,0,0,1-.19.16l-4.63,2.7a1.1,1.1,0,0,1-.29.11h0a2,2,0,0,1-.34,0h0a1.45,1.45,0,0,1-.35,0h0a1,1,0,0,1-.32-.12l-3.73-2.08a.53.53,0,0,1-.31-.4l0,1.29a.52.52,0,0,0,.3.4l3.25,1.8a.52.52,0,0,1-.17.16l-4.65,2.7a1.1,1.1,0,0,1-.29.12h-.05a1.76,1.76,0,0,1-.34,0h0a1.42,1.42,0,0,1-.36-.05h0a1.24,1.24,0,0,1-.32-.12l-3.73-2.08a.48.48,0,0,1-.3-.39l0,1.28a.51.51,0,0,0,.3.4l3.25,1.8a.5.5,0,0,1-.17.15l-4.63,2.7a1.05,1.05,0,0,1-.31.12h0a1.86,1.86,0,0,1-.33,0h0a2.21,2.21,0,0,1-.37,0h0l-.32-.13L81,135.42a.49.49,0,0,1-.29-.39l0,1.28a.49.49,0,0,0,.3.4l3.24,1.81a.52.52,0,0,1-.19.16l-4.63,2.7a1.26,1.26,0,0,1-.29.12H79.1a1.87,1.87,0,0,1-.34,0h0a2,2,0,0,1-.36,0h0a1.61,1.61,0,0,1-.33-.12l-3.73-2.08a.7.7,0,0,1-.22-.19.34.34,0,0,1-.08-.21l0,1.29a.52.52,0,0,0,.31.39l3.25,1.82a1,1,0,0,1-.18.15l-4.63,2.7a1.33,1.33,0,0,1-.3.11h0a1.27,1.27,0,0,1-.34,0h0a2.1,2.1,0,0,1-.36,0h0a1.18,1.18,0,0,1-.33-.12l-3.73-2.08a.85.85,0,0,1-.22-.18.35.35,0,0,1-.09-.22l.05,1.29a.5.5,0,0,0,.31.39L71,146.25a1,1,0,0,1-.18.17l-4.64,2.7a1.33,1.33,0,0,1-.3.11h0a2,2,0,0,1-.35,0h0a1.48,1.48,0,0,1-.35-.05h0a1.18,1.18,0,0,1-.33-.12L61.05,147a.55.55,0,0,1-.31-.4l0,1.29a.51.51,0,0,0,.31.4l3.25,1.8a.87.87,0,0,1-.17.16L59.53,153a.83.83,0,0,1-.29.11l-.05,0a3.31,3.31,0,0,1-.34,0h0a2.33,2.33,0,0,1-.37,0h0a1.75,1.75,0,0,1-.32-.12l-3.73-2.08a.48.48,0,0,1-.3-.4l0,1.29a.5.5,0,0,0,.3.39L57.71,154a.71.71,0,0,1-.18.16l-4.63,2.7a1,1,0,0,1-.3.11h-.05a1.75,1.75,0,0,1-.33,0h0a2.2,2.2,0,0,1-.36,0h0a1.05,1.05,0,0,1-.31-.12l-3.74-2.08a.48.48,0,0,1-.3-.39l0,1.28a.51.51,0,0,0,.3.39l3.25,1.82a.66.66,0,0,1-.17.16l-4.63,2.69a1,1,0,0,1-.31.11h0a1.15,1.15,0,0,1-.33,0h0a1.47,1.47,0,0,1-.36,0h0a1.61,1.61,0,0,1-.33-.12l-3.73-2.09A.39.39,0,0,1,40.83,158.28Zm90.31-39.16.68-.4h0l.12-.1.06-.07h0l0,0a.13.13,0,0,0,0,0s0,0,0-.06v-.06h0l0-1,.43.24s.09,0,.14.07l.12,0,.06,0H133l.09,0h.48l0,0,.09,0a1,1,0,0,0,.22-.09l4-2.35,0,.92a.55.55,0,0,0,.31.4l3.74,2.08a.91.91,0,0,0,.14.07l.12,0,.06,0h0a.18.18,0,0,0,.1,0H143l.05,0,.08,0a1,1,0,0,0,.21-.09l1.69-1,0,.9a.49.49,0,0,0,.3.4L149.1,121a.84.84,0,0,0,.14.06l.12,0h.11l.09,0H150l.12,0,0,0h.06l.08,0a.78.78,0,0,0,.21-.09l.24-.14,0,.83a.5.5,0,0,0,.29.4l3.11,1.73a.25.25,0,0,1,0,.12h0a.76.76,0,0,1-.21.18l-6.11,3.57a1.32,1.32,0,0,1-.3.1s0,0,0,0a1.87,1.87,0,0,1-.34,0h0a2.21,2.21,0,0,1-.37,0h0a1.24,1.24,0,0,1-.32-.12l-3.73-2.08s-.06-.06-.1-.08l4.18-2.44h0l.12-.09.06-.07h0l0,0a.17.17,0,0,1,0,0,.08.08,0,0,1,0-.05v-.06h0l0-1.29a.39.39,0,0,1-.06.21h0a.61.61,0,0,1-.2.19l-9.17,5.34a1.25,1.25,0,0,1-.31.11,0,0,0,0,1,0,0,1.87,1.87,0,0,1-.34,0h0a1.12,1.12,0,0,1-.36,0h0a1.17,1.17,0,0,1-.33-.11L132.44,125c-.05,0-.06-.06-.1-.09l2-1.17a0,0,0,0,1,0,0,.54.54,0,0,0,.12-.09l.06-.07h0a0,0,0,0,0,0,0l0,0s0,0,0-.06a.11.11,0,0,0,0,0l0-1.09,1.74,1,0-1.28-5-2.79Z"/><path class="cls-7" d="M155.51,118.05l.12-.09.06-.06s0,0,0,0h0l0,0,0,0a.13.13,0,0,0,0-.06.11.11,0,0,0,0,0h0l0-1,5.59,3.11a.71.71,0,0,1-.18.16l-5,2.92a1.25,1.25,0,0,1-.29.11h-.05a1.86,1.86,0,0,1-.34,0h0a2.2,2.2,0,0,1-.36,0h0a1.52,1.52,0,0,1-.32-.12L151,120.78a.46.46,0,0,1-.07-.07l4.56-2.66Z"/><path class="cls-7" d="M148.37,115.66l.12-.09.06-.07a0,0,0,0,1,0,0h0s0,0,0,0l0,0s0,0,0-.06a.43.43,0,0,0,0,0h0l0-.87.29.15a.61.61,0,0,0,.14.07l.12,0,.06,0h0l.1,0h.4l.12,0h.1l.08,0a1,1,0,0,0,.21-.1l1.8-1,0,.89a.51.51,0,0,0,.31.4l3.24,1.81a.57.57,0,0,1-.18.16l-5,2.92a1.25,1.25,0,0,1-.29.11h-.05a1.86,1.86,0,0,1-.34,0h0a2.2,2.2,0,0,1-.36,0h0a1.33,1.33,0,0,1-.32-.12l-3.74-2.08-.12-.11,3.15-1.84Z"/><path class="cls-7" d="M144.84,112.08a.48.48,0,0,0,.3.39l3.26,1.82-.09.09-5,2.92a1.33,1.33,0,0,1-.3.11h0a1.86,1.86,0,0,1-.34,0h0a2,2,0,0,1-.35,0h0a.88.88,0,0,1-.32-.12l-3.74-2.08a.76.76,0,0,1-.14-.11l6.76-3.94Z"/><path class="cls-7" d="M135.87,129.25a.09.09,0,0,0,0-.05h0l0-1,.38.21.15.07.12,0h.1l.1,0h.4l.12,0h.1l.09,0,.2-.1,4.81-2.79,0,.85a.48.48,0,0,0,.3.4l3.22,1.79a0,0,0,0,0,0,0h0a.63.63,0,0,1-.21.18l-4.63,2.7a1,1,0,0,1-.3.11l0,0a1.87,1.87,0,0,1-.34,0h0a1.47,1.47,0,0,1-.36,0h0a1.33,1.33,0,0,1-.32-.12L136,129.49a1.12,1.12,0,0,1-.16-.13l0-.06A.07.07,0,0,0,135.87,129.25Z"/><path class="cls-7" d="M132.53,137.89l.12-.09.06-.07v0h0a.1.1,0,0,1,0,0l0-.06a.09.09,0,0,0,0-.05.13.13,0,0,0,0-.06h0l0-1,.39.22.14.07.12,0h.1l.1,0h.4l.13,0,.07,0h0l.08,0,.21-.09,2.5-1.46,0,.93a.52.52,0,0,0,.3.4l3.25,1.81a1,1,0,0,1-.18.16l-4.63,2.69a1,1,0,0,1-.3.12h0a2,2,0,0,1-.34,0h0a1.47,1.47,0,0,1-.36,0h0a1,1,0,0,1-.32-.12l-3.74-2.08a.93.93,0,0,1-.15-.13l2-1.16Z"/><path class="cls-7" d="M125.9,141.75l.12-.09.06-.06v0h0s0,0,0,0l0-.06a.43.43,0,0,0,0,0s0,0,0-.06h0l0-1,.38.21.14.07.12,0h.1l.1,0h.41l.12,0,.07,0h0l.09,0,.21-.1,2.49-1.45,0,.93a.53.53,0,0,0,.31.4l3.24,1.81a.51.51,0,0,1-.17.15l-4.64,2.7a.83.83,0,0,1-.29.11h0a1.32,1.32,0,0,1-.34,0h0a1.37,1.37,0,0,1-.36,0h0a1.61,1.61,0,0,1-.33-.12L124,143.05a.49.49,0,0,1-.15-.13l2-1.16Z"/><path class="cls-7" d="M119.26,145.62l.12-.09.06-.06s0,0,0,0h0l0,0,0-.06a.43.43,0,0,0,0,0v-.06h0l0-1,.39.22.14.06.12,0,.07,0h.53l.15,0H121l.09,0,.21-.09,2.49-1.46,0,.94c0,.14.1.28.3.4l3.25,1.8a.71.71,0,0,1-.18.16l-4.63,2.7a1.33,1.33,0,0,1-.3.11h0a1.75,1.75,0,0,1-.33,0h0a2,2,0,0,1-.35,0h0a1.75,1.75,0,0,1-.32-.12l-3.73-2.08a.49.49,0,0,1-.15-.13l2-1.17Z"/><path class="cls-7" d="M112.63,149.48a.31.31,0,0,0,.11-.09l.06-.06,0,0h0l0,0a.08.08,0,0,0,0-.05s0,0,0-.06v0h0l0-1,.39.21a.61.61,0,0,0,.14.07l.12,0,.07,0h0l.1,0h.41l.14,0h.08l.08,0,.21-.09,2.49-1.46,0,.93a.5.5,0,0,0,.3.4l3.25,1.81a.61.61,0,0,1-.17.15l-4.64,2.7a1,1,0,0,1-.29.12h0a1.87,1.87,0,0,1-.34,0h0a1.47,1.47,0,0,1-.36,0h0a1.24,1.24,0,0,1-.32-.12l-3.73-2.08a1.11,1.11,0,0,1-.16-.12l2-1.17Z"/><path class="cls-7" d="M106,153.36l.12-.09.06-.06a0,0,0,0,1,0,0h0s0,0,0,0,0,0,0-.06a.09.09,0,0,0,0-.05.13.13,0,0,0,0-.06h0l0-1,.41.23.14.06.12,0,.06,0h0l.1,0h.4l.13,0,.06,0h0l.09,0,.21-.09,2.49-1.45,0,.93a.53.53,0,0,0,.31.4l3.24,1.8a.79.79,0,0,1-.19.17l-4.64,2.7a.83.83,0,0,1-.29.11h0a1.32,1.32,0,0,1-.34,0h0a1.42,1.42,0,0,1-.36,0h0a1.33,1.33,0,0,1-.32-.12l-3.74-2.08c-.06,0-.1-.09-.15-.13l2-1.16Z"/><path class="cls-7" d="M99.34,157.23l.12-.09a.18.18,0,0,0,.05-.07l0,0h0l0,0a.14.14,0,0,0,0-.06s0,0,0-.05v-.06h0l0-1,.38.22.15.06.11,0,.06,0h.14l.1,0h.31l.14,0H101l.08,0a1,1,0,0,0,.21-.09l2.5-1.46,0,.94a.55.55,0,0,0,.31.4l3.24,1.8a.42.42,0,0,1-.17.15l-4.64,2.7a.84.84,0,0,1-.29.12h0a1.76,1.76,0,0,1-.33,0h0a2,2,0,0,1-.35,0h0a1,1,0,0,1-.32-.12l-3.74-2.08-.15-.12,2-1.17Z"/><path class="cls-7" d="M92.7,161.09l.12-.08.06-.07v0h0l0,0,0,0s0,0,0-.06v-.05h0l0-1,.39.22a.61.61,0,0,0,.14.07l.12,0h.1l.1,0h.4l.12,0h.06l0,0,.09,0a.78.78,0,0,0,.21-.09l2.49-1.45,0,.93a.51.51,0,0,0,.3.4l3.25,1.8a.56.56,0,0,1-.18.16L96,164.47a1.48,1.48,0,0,1-.29.12h0a1.87,1.87,0,0,1-.34,0h0a1.47,1.47,0,0,1-.36,0h0a1.75,1.75,0,0,1-.32-.12l-3.73-2.08a.49.49,0,0,1-.15-.13l2-1.16Z"/><path class="cls-7" d="M86.06,165l.12-.09.06-.06a0,0,0,0,0,0,0h0l0,0a.14.14,0,0,0,0-.06l0-.05v-.06h0l0-1,.39.22a.84.84,0,0,0,.14.06l.12,0,.07,0h0l.09,0h.41l.14,0h0l.05,0,.08,0a.67.67,0,0,0,.21-.09l2.49-1.45,0,.93a.51.51,0,0,0,.3.4l3.25,1.81a.86.86,0,0,1-.17.15l-4.64,2.7a1.25,1.25,0,0,1-.29.11h0a1.27,1.27,0,0,1-.34,0h0a1.47,1.47,0,0,1-.36,0h0a1.33,1.33,0,0,1-.32-.12l-3.74-2.08c-.06,0-.1-.09-.15-.13l2-1.16Z"/><path class="cls-7" d="M79.33,168.88l.12-.09.06-.06v0h0l0,0,0,0a.13.13,0,0,0,0-.06.09.09,0,0,0,0-.05h0l0-1.11.49.27a.61.61,0,0,0,.14.07l.12,0h.1l.1,0h.4l.13,0h.09l.09,0,.21-.09,2.49-1.46,0,.94a.48.48,0,0,0,.3.39l3.24,1.81a.53.53,0,0,1-.17.16l-4.64,2.7a1.25,1.25,0,0,1-.29.11h0a1.86,1.86,0,0,1-.33,0h0a2.2,2.2,0,0,1-.36,0h0a.84.84,0,0,1-.31-.12l-3.74-2.08a.47.47,0,0,1-.15-.12l1.9-1.11Z"/><path class="cls-7" d="M72.1,153.52l.12-.09.06-.06a0,0,0,0,1,0,0h0l0,0,0-.06a.43.43,0,0,0,0-.05s0,0,0-.06h0l0-1,.38.21.15.07.11,0h.11l.09,0h.4l.15,0h0l.05,0,.08,0a.67.67,0,0,0,.21-.09l3.71-2.16,0,.88a.49.49,0,0,0,.3.4l3.24,1.8a.53.53,0,0,1-.17.16l-4.64,2.7a1.25,1.25,0,0,1-.29.11h0a1.27,1.27,0,0,1-.34,0h0a2,2,0,0,1-.35,0h0a1.75,1.75,0,0,1-.32-.12l-3.73-2.08a.55.55,0,0,1-.11-.1l.75-.44Z"/><path class="cls-7" d="M78.73,149.66a.58.58,0,0,0,.12-.1l.06-.06v0h0l0,0s0,0,0-.05,0,0,0-.06a.11.11,0,0,0,0-.06h0l0-1,.39.22.15.07.12,0h.1l.1,0h.4l.14,0h.08l.08,0,.22-.1,3.7-2.16,0,.88a.53.53,0,0,0,.31.4L88,149.42a.68.68,0,0,1-.18.15l-4.63,2.7a1,1,0,0,1-.3.11h0a1.34,1.34,0,0,1-.35,0h0a1.42,1.42,0,0,1-.36,0h0a1.33,1.33,0,0,1-.32-.12l-3.74-2.08a.36.36,0,0,1-.11-.1l.74-.43Z"/><path class="cls-7" d="M85.37,145.79l.12-.09.06-.07v0h0l0,0,0,0a.11.11,0,0,0,0-.05.13.13,0,0,0,0-.06h0l0-1,.38.22.15.06.12,0,.06,0h0l.1,0h.39l.13,0,.06,0h0l.08,0a1.45,1.45,0,0,0,.22-.09l3.72-2.18,0,.88a.51.51,0,0,0,.3.4l3.24,1.81a.53.53,0,0,1-.19.17l-4.63,2.7a1.33,1.33,0,0,1-.3.11h0a2,2,0,0,1-.34,0h0l-.36,0h0a.82.82,0,0,1-.32-.12l-3.74-2.08s-.07-.06-.11-.09l.75-.44Z"/><path class="cls-7" d="M92,141.92l.12-.09.06-.06,0,0h0l0,0a.14.14,0,0,0,0-.06s0,0,0-.05v0h0l0-1,.41.23.14.07.12,0,.07,0h0l.1,0h.4l.13,0,0,0h0l.08,0a.78.78,0,0,0,.21-.09l3.71-2.16,0,.88a.53.53,0,0,0,.31.4l3.24,1.81a.86.86,0,0,1-.17.15l-4.64,2.7a1.25,1.25,0,0,1-.29.11h0a1.24,1.24,0,0,1-.33,0h0a2.2,2.2,0,0,1-.36,0h0a1,1,0,0,1-.32-.12l-3.73-2.07a.55.55,0,0,1-.11-.1l.72-.43Z"/><path class="cls-7" d="M98.66,138.05l.12-.1.06-.06v0h0l0,0,0-.05s0,0,0-.06,0,0,0-.06h0l0-1,.39.21.14.07.12,0,.06,0h.54l.12,0h.1l.08,0,.22-.09,3.71-2.17,0,.88a.53.53,0,0,0,.31.4l3.24,1.81a.63.63,0,0,1-.17.15l-4.64,2.71a1.33,1.33,0,0,1-.3.11h0a1.87,1.87,0,0,1-.34,0h0a1.47,1.47,0,0,1-.36,0h0a1,1,0,0,1-.32-.12L98,138.58a1.06,1.06,0,0,1-.11-.09l.75-.44Z"/><path class="cls-7" d="M105.29,134.18l.12-.09.06-.06v0h0l0,0a.14.14,0,0,0,0-.06l0,0v-.05h0l0-1,.39.22.15.06.11,0,.07,0h.13l.1,0h.3l.15,0H107l.08,0a1.45,1.45,0,0,0,.22-.09l3.7-2.16,0,.88a.53.53,0,0,0,.31.4l3.24,1.8a.53.53,0,0,1-.17.16l-4.64,2.7a1.1,1.1,0,0,1-.29.11h0a1.86,1.86,0,0,1-.33,0h0a2,2,0,0,1-.36,0h0a.84.84,0,0,1-.31-.12l-3.74-2.08c-.05,0-.07-.06-.11-.09l.74-.44Z"/><path class="cls-7" d="M111.93,130.31l.12-.09.06-.06s0,0,0,0h0l0,0s0,0,0,0,0,0,0-.06a.11.11,0,0,0,0-.06h0l0-1,.39.21a.61.61,0,0,0,.14.07l.12,0h.1l.1,0h.4l.12,0h.1l.08,0,.22-.1,3.71-2.16,0,.88a.53.53,0,0,0,.31.4l3.24,1.8a.66.66,0,0,1-.17.16l-4.64,2.7a1,1,0,0,1-.3.11h0a1.34,1.34,0,0,1-.35,0h0a1.37,1.37,0,0,1-.36,0h0a1.33,1.33,0,0,1-.32-.12l-3.74-2.08a.36.36,0,0,1-.11-.1l.75-.43Z"/><path class="cls-7" d="M118.56,126.45l.13-.09,0-.07v0h0l0,0a.08.08,0,0,0,0,0s0,0,0-.05v-.06h0l0-1,.38.21.15.07.12,0h.1l.09,0h.4l.13,0h.1l.08,0,.22-.1,3.7-2.16,0,.88a.49.49,0,0,0,.3.4l3.25,1.81a.68.68,0,0,1-.18.15l-4.63,2.7a1,1,0,0,1-.3.11l0,0a2,2,0,0,1-.34,0h0a1.37,1.37,0,0,1-.36,0h0a1.33,1.33,0,0,1-.32-.12L117.92,127a.52.52,0,0,1-.11-.1l.74-.43Z"/><path class="cls-7" d="M125.2,122.58l.13-.09a.18.18,0,0,0,0-.07s0,0,0,0h0l0,0a.14.14,0,0,0,0-.06s0,0,0,0v-.06h0l0-1,.38.22a.59.59,0,0,0,.14.06l.12,0,.06,0h.05l.09,0h.4l.13,0h0l.05,0,.08,0,.21-.09,3.78-2.2,0,.88a.51.51,0,0,0,.31.4l3.21,1.79v0h0a.9.9,0,0,1-.2.18l-4.64,2.7a1.45,1.45,0,0,1-.29.11h0a1.86,1.86,0,0,1-.33,0h0a2.2,2.2,0,0,1-.36,0h0a1.27,1.27,0,0,1-.32-.13l-3.73-2.08a.33.33,0,0,1-.11-.09l.74-.44Z"/><path class="cls-7" d="M127.73,127.65l.12-.1.06-.06s0,0,0,0h0v0s0,0,0-.05a.13.13,0,0,0,0-.06.11.11,0,0,0,0,0h0l0-1,.39.21a.61.61,0,0,0,.14.07l.12,0h.11l.09,0h.4l.15,0h.08l.08,0a1,1,0,0,0,.21-.1l2.44-1.42,0,.87a.51.51,0,0,0,.3.4l3.25,1.8a.53.53,0,0,1-.17.16l-4.63,2.7a1.33,1.33,0,0,1-.3.11h0a1.86,1.86,0,0,1-.33,0h0a2.2,2.2,0,0,1-.36,0h0a1.33,1.33,0,0,1-.32-.12l-3.74-2.09a.7.7,0,0,1-.1-.08l2-1.17Z"/><path class="cls-7" d="M122.6,137s0,0,0,0h0l0-1,.38.21.15.07.12,0h.1l.1,0h.4l.12,0h.1l.08,0a1,1,0,0,0,.21-.09l4.64-2.7h0l.09-.07,0,.87a.51.51,0,0,0,.31.4l3.24,1.81a1,1,0,0,1-.18.16l-4.63,2.7a1.33,1.33,0,0,1-.3.11h0a2,2,0,0,1-.34,0h0a2,2,0,0,1-.35,0h0a1.61,1.61,0,0,1-.33-.12l-3.73-2.09a.51.51,0,0,1-.16-.13l0-.05S122.6,137,122.6,137Z"/><path class="cls-7" d="M116,140.85a.35.35,0,0,0,0-.06h0l0-1,.39.22.14.06.12,0,.06,0h.14l.1,0h.48l0,0,.08,0a.67.67,0,0,0,.21-.09l4.64-2.7h0l.08-.07,0,.87a.51.51,0,0,0,.31.4l3.24,1.81a.65.65,0,0,1-.17.15l-4.64,2.7a.83.83,0,0,1-.29.11h0a1.24,1.24,0,0,1-.33,0h0a1.47,1.47,0,0,1-.36,0h0a1.33,1.33,0,0,1-.32-.12l-3.74-2.08a.73.73,0,0,1-.16-.14s0,0,0,0S116,140.87,116,140.85Z"/><path class="cls-7" d="M109.33,144.72v-.05h0l0-1,.38.22.15.06.12,0,.06,0h0l.1,0h.53l.07,0h0l.08,0a.67.67,0,0,0,.21-.09l4.64-2.7h0l.09-.06,0,.86a.5.5,0,0,0,.3.4l3.25,1.81a.71.71,0,0,1-.18.16l-4.64,2.7a.92.92,0,0,1-.29.11h0a1.24,1.24,0,0,1-.33,0h0a1.47,1.47,0,0,1-.36,0h0a1.75,1.75,0,0,1-.32-.12L109.45,145a1.12,1.12,0,0,1-.16-.13.14.14,0,0,0,0-.06S109.32,144.74,109.33,144.72Z"/><path class="cls-7" d="M102.64,147.52l.4.22.15.07.12,0h.11l.09,0h.4l.13,0h.09l.09,0,.21-.09,4.63-2.7h0l.09-.06,0,.86a.5.5,0,0,0,.3.4l3.25,1.81a.61.61,0,0,1-.17.15l-4.64,2.7a1,1,0,0,1-.3.12h0a1.87,1.87,0,0,1-.34,0h0a1.34,1.34,0,0,1-.35,0h0a1.24,1.24,0,0,1-.32-.12l-3.73-2.08a.49.49,0,0,1-.17-.14s0,0,0,0a.13.13,0,0,0,0-.06.11.11,0,0,0,0-.06h0Z"/><path class="cls-7" d="M96,152.46s0,0,0-.05h0l0-1,.38.22a.59.59,0,0,0,.14.06l.12,0h.11l.1,0h.4l.12,0h.05l0,0,.09,0a.72.72,0,0,0,.2-.09l4.64-2.7h0l.1-.08,0,.87a.51.51,0,0,0,.3.4l3.24,1.8a.53.53,0,0,1-.19.17l-4.63,2.7a1,1,0,0,1-.3.11h0a1.32,1.32,0,0,1-.34,0h0a1.47,1.47,0,0,1-.36,0h0a1.33,1.33,0,0,1-.32-.12l-3.74-2.08a.67.67,0,0,1-.15-.13.14.14,0,0,1,0-.06A.43.43,0,0,0,96,152.46Z"/><path class="cls-7" d="M89.4,156.33a.13.13,0,0,0,0-.06h0l0-1,.39.22.14.07.13,0h.1l.1,0h.4l.12,0h.1l.08,0a1,1,0,0,0,.21-.1l4.64-2.7h0l.08-.06,0,.86a.49.49,0,0,0,.31.4l3.24,1.81a.42.42,0,0,1-.17.15l-4.63,2.7a1.34,1.34,0,0,1-.3.12h0a1.87,1.87,0,0,1-.34,0h0l-.35,0h0a1,1,0,0,1-.32-.12l-3.73-2.08a.53.53,0,0,1-.16-.13l0-.05S89.4,156.35,89.4,156.33Z"/><path class="cls-7" d="M82.77,160.19v-.05h0l0-1,.38.21.14.07.12,0h.11l.1,0H84l.12,0h.1l.08,0,.21-.09,4.64-2.71h0l.09-.07,0,.87a.5.5,0,0,0,.3.4l3.25,1.81a.68.68,0,0,1-.18.15L88,162.51a1,1,0,0,1-.3.12h0a2,2,0,0,1-.35,0h0a1.47,1.47,0,0,1-.36,0h0a1,1,0,0,1-.32-.12l-3.74-2.08a1.12,1.12,0,0,1-.16-.13l0-.05A.13.13,0,0,1,82.77,160.19Z"/><path class="cls-7" d="M81.26,154.72l.12-.09.06-.06v0h0s0,0,0,0l0,0s0,0,0-.06v-.05h0l0-1,.39.22.14.06.12,0,.06,0h.14l.09,0h.31l.15,0H83l.08,0a.67.67,0,0,0,.21-.09l2.44-1.42,0,.86a.51.51,0,0,0,.31.4l3.24,1.81a.57.57,0,0,1-.18.16l-4.63,2.7a1,1,0,0,1-.3.11h0a1.32,1.32,0,0,1-.34,0h0a2.2,2.2,0,0,1-.36,0h0a1.2,1.2,0,0,1-.33-.13L79.34,156a.27.27,0,0,1-.1-.08l2-1.17Z"/><path class="cls-7" d="M87.9,150.85l.12-.09.06-.06v0h0l0,0,0,0s0,0,0-.06v-.06h0l0-1,.38.21.15.07.12,0h.1l.1,0h.4l.14,0h.08l.08,0a1,1,0,0,0,.21-.1l2.44-1.42,0,.87a.52.52,0,0,0,.3.4l3.25,1.81a.51.51,0,0,1-.17.15l-4.63,2.7a1,1,0,0,1-.3.11h0a1.32,1.32,0,0,1-.34,0h0a2.09,2.09,0,0,1-.36,0h0a1.2,1.2,0,0,1-.33-.13L86,152.11a.27.27,0,0,1-.1-.08l2-1.17Z"/><path class="cls-7" d="M94.53,147l.12-.09.06-.07v0h0s0,0,0,0,0,0,0-.06a.13.13,0,0,0,0-.06.09.09,0,0,0,0,0h0l0-1,.41.22.14.07.12,0h.11l.09,0H96l.15,0h.08l.08,0a1,1,0,0,0,.21-.1L99,144.39l0,.87a.51.51,0,0,0,.3.4l3.24,1.8a.46.46,0,0,1-.19.17l-4.63,2.7a1.48,1.48,0,0,1-.29.12h0a1.87,1.87,0,0,1-.34,0h0a1.47,1.47,0,0,1-.36,0h0a1.61,1.61,0,0,1-.33-.12l-3.73-2.08-.1-.09,2-1.17Z"/><path class="cls-7" d="M101.18,143.11l.12-.09.06-.06v0h0l0,0a.14.14,0,0,0,0-.06l0-.05v-.06h0l0-1,.39.21a.59.59,0,0,0,.14.06l.12,0,.06,0h0l.1,0h.4l.15,0h.08l.08,0a.67.67,0,0,0,.21-.09l2.44-1.42,0,.87a.51.51,0,0,0,.3.39l3.25,1.82a.65.65,0,0,1-.17.15l-4.64,2.7a1.25,1.25,0,0,1-.29.11h0a1.86,1.86,0,0,1-.33,0h0a2,2,0,0,1-.35,0h0a.82.82,0,0,1-.32-.12l-3.74-2.08s-.06-.06-.1-.08l2-1.18Z"/><path class="cls-7" d="M107.82,139.24a.5.5,0,0,0,.12-.08l.06-.07v0h0v0l0-.05s0,0,0-.06a.43.43,0,0,0,0,0h0l0-1,.39.22.14.07.12,0h.11l.1,0h.39l.14,0h.08l.09,0,.21-.1,2.44-1.42,0,.87a.49.49,0,0,0,.3.39l3.25,1.81a.47.47,0,0,1-.18.16l-4.63,2.7a1,1,0,0,1-.3.11l0,0a1.76,1.76,0,0,1-.33,0h0a1.47,1.47,0,0,1-.36,0h0a1.52,1.52,0,0,1-.32-.12l-3.74-2.08-.1-.09,2-1.17Z"/><path class="cls-7" d="M114.46,135.38l.12-.09.06-.07v0h0l0,0,0,0s0,0,0-.06a.43.43,0,0,0,0-.05h0l0-1,.38.22.14.06.12,0,.06,0h.14l.1,0h.43l0,0h.05l.09,0,.21-.09,2.43-1.42,0,.86a.48.48,0,0,0,.3.4l3.25,1.81a.68.68,0,0,1-.18.15l-4.63,2.7a1.34,1.34,0,0,1-.3.12h0a1.87,1.87,0,0,1-.34,0h0a1.47,1.47,0,0,1-.36,0h0a1.61,1.61,0,0,1-.33-.12l-3.73-2.08a.45.45,0,0,1-.1-.09l2-1.17Z"/><path class="cls-7" d="M121.09,131.51l.12-.09.06-.06v0h0l0,0s0,0,0-.05a.13.13,0,0,0,0-.06.09.09,0,0,0,0-.05h0l0-1,.39.22.14.06.12,0,.07,0h0l.09,0h.41l.12,0,.07,0h0l.08,0a.67.67,0,0,0,.21-.09l2.44-1.42,0,.87a.51.51,0,0,0,.3.39L129.1,132a.65.65,0,0,1-.17.15l-4.64,2.7a1,1,0,0,1-.29.11h0a1.27,1.27,0,0,1-.34,0h0a1.47,1.47,0,0,1-.36,0h0a1.33,1.33,0,0,1-.32-.12l-3.74-2.09a.7.7,0,0,1-.1-.08l2-1.17Z"/><path class="cls-7" d="M74.62,158.59l.12-.09.06-.07s0,0,0,0h0s0,0,0,0a.08.08,0,0,0,0-.05s0,0,0-.06v0h0l0-1,.39.21.15.07.12,0h.1l.1,0h.4l.14,0h.08l.08,0,.21-.09L79.05,156l0,.86a.52.52,0,0,0,.3.4l3.25,1.81a.51.51,0,0,1-.17.15l-4.63,2.7a1,1,0,0,1-.3.11l0,0a1.76,1.76,0,0,1-.33,0h0a1.47,1.47,0,0,1-.36,0h0a1.33,1.33,0,0,1-.32-.12l-3.74-2.08-.1-.09,2-1.17Z"/><path class="cls-7" d="M76.13,164.06V164h0l0-1,.38.22.14.06.13,0,.06,0H77l.09,0h.44l0,0h0l.09,0a.67.67,0,0,0,.21-.09l4.64-2.7h0l.08-.06,0,.87a.53.53,0,0,0,.31.4l3.24,1.8a.57.57,0,0,1-.18.16l-4.63,2.7a1.45,1.45,0,0,1-.29.11h0a1.86,1.86,0,0,1-.34,0h0a2.2,2.2,0,0,1-.36,0h0a1.75,1.75,0,0,1-.32-.12l-3.73-2.08a.45.45,0,0,1-.16-.14s0,0,0,0A.43.43,0,0,0,76.13,164.06Z"/><path class="cls-7" d="M129.24,133.12v-.05h0l0-1,.39.21.14.07.12,0,.06,0h.67l0,0h.05l.09,0,.21-.09,4.63-2.7h0l.08-.06,0,.87a.55.55,0,0,0,.31.4l3.24,1.8a.53.53,0,0,1-.17.16l-4.63,2.7a1.33,1.33,0,0,1-.3.11h0a1.86,1.86,0,0,1-.34,0h0a2,2,0,0,1-.36,0h0a1,1,0,0,1-.32-.11l-3.74-2.09a.51.51,0,0,1-.16-.13s0,0,0-.05S129.23,133.14,129.24,133.12Z"/><path class="cls-7" d="M124,116.79l.12-.09.06-.06s0,0,0,0h0s0,0,0,0l0-.06a.43.43,0,0,0,0,0v0h0l0-1.08.45.26.14.06.12,0,.07,0h0l.1,0h.52l0,0h0l.09,0,.21-.09,2.4-1.4,0,.86a.53.53,0,0,0,.31.4l3.23,1.8h0a.54.54,0,0,1-.21.18l-4.63,2.71a1.25,1.25,0,0,1-.29.11h0a1.84,1.84,0,0,1-.33,0h0a2,2,0,0,1-.35,0h0a1.24,1.24,0,0,1-.32-.12L122,118.05s-.07-.06-.1-.08l2-1.17Z"/><path class="cls-7" d="M117.32,120.65l.12-.09,0-.06,0,0h0l0,0s0,0,0,0a.14.14,0,0,0,0-.06v0h0l0-1,.38.21.14.07.13,0h.1l.1,0h.4l.12,0h.1l.08,0,.21-.09,2.44-1.43,0,.87a.54.54,0,0,0,.3.4l3.25,1.8a.66.66,0,0,1-.17.16l-4.64,2.7a1.25,1.25,0,0,1-.29.11h0a1.27,1.27,0,0,1-.34,0h0a1.34,1.34,0,0,1-.35,0h0a1.33,1.33,0,0,1-.32-.12l-3.74-2.08-.1-.09,2-1.17Z"/><path class="cls-7" d="M110.68,124.52l.12-.09,0-.06,0,0h0l0,0,0,0a.14.14,0,0,0,0-.06v0h0l0-1,.38.22.15.06a.42.42,0,0,0,.12,0l.06,0h.14l.09,0h.44l.06,0h0l.09,0a1,1,0,0,0,.21-.09l2.43-1.42,0,.87a.52.52,0,0,0,.31.39l3.24,1.81a.57.57,0,0,1-.18.16l-4.63,2.7a1.45,1.45,0,0,1-.29.11h0a1.86,1.86,0,0,1-.34,0h0a2,2,0,0,1-.35,0h0a1,1,0,0,1-.32-.12l-3.74-2.08a.7.7,0,0,1-.1-.08l2-1.17Z"/><path class="cls-7" d="M104,128.39l.12-.09.06-.06v0h0s0,0,0,0,0,0,0-.06a.11.11,0,0,0,0-.05.13.13,0,0,0,0-.06h0l0-1,.38.21.15.07.12,0h.6l.14,0h.08l.09,0a1.89,1.89,0,0,0,.21-.09l2.43-1.42,0,.86a.48.48,0,0,0,.3.4l3.24,1.81a.65.65,0,0,1-.17.15l-4.64,2.7a1.1,1.1,0,0,1-.29.11h0a1.24,1.24,0,0,1-.33,0h0a1.34,1.34,0,0,1-.35,0h0a1.61,1.61,0,0,1-.33-.12l-3.73-2.08a.45.45,0,0,1-.1-.09l2-1.17Z"/><path class="cls-7" d="M97.4,132.25a.36.36,0,0,0,.12-.08.2.2,0,0,0,.06-.07s0,0,0,0h0l0,0a.14.14,0,0,0,0-.06s0,0,0-.06v-.05h0l0-1,.39.22a.84.84,0,0,0,.14.06l.13,0,0,0h0l.1,0h.4l.12,0h.1l.09,0a.72.72,0,0,0,.2-.09l2.44-1.42,0,.87a.53.53,0,0,0,.31.4l3.24,1.8a.71.71,0,0,1-.18.16l-4.63,2.7a1,1,0,0,1-.3.11h0a1.27,1.27,0,0,1-.34,0h0a1.47,1.47,0,0,1-.36,0h0a1.33,1.33,0,0,1-.32-.12l-3.74-2.09a.7.7,0,0,1-.1-.08l2-1.17Z"/><path class="cls-7" d="M90.77,136.12l.12-.09L91,136s0,0,0,0h0l0,0,0,0s0,0,0-.06v-.05h0l0-1,.38.21a.59.59,0,0,0,.14.06l.12,0,.07,0h0l.09,0h.58l0,0,.09,0,.21-.09,2.43-1.42,0,.87a.52.52,0,0,0,.31.39l3.24,1.81a.66.66,0,0,1-.17.16L94,139.47l-.29.11h0a1.75,1.75,0,0,1-.33,0h0a2,2,0,0,1-.35,0h0a.93.93,0,0,1-.33-.12l-3.73-2.08a.27.27,0,0,1-.1-.08l2-1.17Z"/><path class="cls-7" d="M84.11,140l.12-.09a.13.13,0,0,0,.06-.07l0,0h0l0,0a.14.14,0,0,0,0-.06l0,0v-.06h0l0-1,.4.22.14.07.13,0h.1l.1,0h.4l.14,0h.08l.08,0a1,1,0,0,0,.21-.09l2.44-1.42,0,.86a.51.51,0,0,0,.31.4l3.23,1.8a.59.59,0,0,1-.18.17l-4.64,2.7a.92.92,0,0,1-.29.11l0,0a1.87,1.87,0,0,1-.34,0h0a1.34,1.34,0,0,1-.35,0h0a1.75,1.75,0,0,1-.32-.12l-3.73-2.08s-.07-.06-.1-.08l2-1.18Z"/><path class="cls-7" d="M77.48,143.86l.12-.09.06-.06v0h0s0,0,0,0,0,0,0-.05,0,0,0-.06v0h0l0-1,.38.21.15.07.12,0,.06,0h0l.1,0H79l.15,0h.07l.09,0,.21-.1,2.43-1.42,0,.87a.49.49,0,0,0,.3.4l3.24,1.8a.53.53,0,0,1-.17.16l-4.64,2.7a1.1,1.1,0,0,1-.29.11h0a1.76,1.76,0,0,1-.34,0h0a2.2,2.2,0,0,1-.36,0h0a1,1,0,0,1-.32-.13l-3.74-2.08a.39.39,0,0,1-.1-.08l2-1.17Z"/><path class="cls-7" d="M70.84,147.73l.12-.09.06-.06a0,0,0,0,1,0,0h0l0,0s0,0,0-.05a.13.13,0,0,0,0-.06.18.18,0,0,0,0-.06h0l0-1,.39.22.15.07.12,0h.1l.1,0h.4l.14,0h.08l.09,0a1,1,0,0,0,.21-.09l2.43-1.42,0,.86a.51.51,0,0,0,.31.4l3.24,1.81a.57.57,0,0,1-.18.16L74,151.08a1.33,1.33,0,0,1-.3.11h0a1.86,1.86,0,0,1-.34,0h0a2.2,2.2,0,0,1-.36,0h0a.82.82,0,0,1-.32-.12L68.92,149a.7.7,0,0,1-.1-.08l2-1.17Z"/><path class="cls-7" d="M64.21,151.59a.5.5,0,0,0,.12-.08l.06-.07v0h0s0,0,0,0l0-.06a.43.43,0,0,1,0-.05v-.06h0l0-1,.38.21a.52.52,0,0,0,.15.07l.12,0h.6l.12,0h.1l.08,0a1,1,0,0,0,.21-.09L68.63,149l0,.86a.51.51,0,0,0,.31.4l3.24,1.81a.86.86,0,0,1-.17.15l-4.64,2.7a.92.92,0,0,1-.29.11h0a1.27,1.27,0,0,1-.34,0h0a1.47,1.47,0,0,1-.36,0h0a1.52,1.52,0,0,1-.32-.12l-3.74-2.08a.7.7,0,0,0-.1-.08l2-1.18Z"/><path class="cls-7" d="M50.93,159.33l.12-.09.06-.06,0,0h0l0,0a.14.14,0,0,0,0-.06.08.08,0,0,0,0-.05V159h0l0-1,.38.21.14.07.13,0,0,0h0l.1,0h.4l.14,0h.08l.08,0a.67.67,0,0,0,.21-.09l2.44-1.42,0,.87a.5.5,0,0,0,.3.39l3.25,1.81a.83.83,0,0,1-.17.15l-4.64,2.7a1.48,1.48,0,0,1-.29.12h-.05a1.87,1.87,0,0,1-.34,0h0l-.36,0h0a.82.82,0,0,1-.32-.12L49,160.59a.7.7,0,0,1-.1-.08l2-1.18Z"/><path class="cls-7" d="M57.57,155.46a.27.27,0,0,0,.12-.09l.06-.06a0,0,0,0,0,0,0h0l0,0,0-.05s0,0,0-.06a.43.43,0,0,0,0,0h0l0-1,.39.22a.59.59,0,0,0,.14.06l.12,0,.06,0h0l.09,0h.41l.14,0,0,0h0l.09,0a.78.78,0,0,0,.21-.09L62,152.88l0,.87a.51.51,0,0,0,.31.4l3.24,1.8a.71.71,0,0,1-.18.16l-4.63,2.7a1,1,0,0,1-.3.11h0a1.27,1.27,0,0,1-.34,0h0a1.47,1.47,0,0,1-.36,0h0a1.33,1.33,0,0,1-.32-.12l-3.74-2.08-.1-.09,2-1.17Z"/><path class="cls-7" d="M65.46,157.39l.12-.09.06-.07v0h0a.05.05,0,0,0,0,0l0,0s0,0,0-.05V157h0l0-1,.39.22.14.06.12,0,.06,0h.54l.14,0h.09l.08,0a1.36,1.36,0,0,0,.21-.1l3.71-2.16,0,.88a.51.51,0,0,0,.31.4l3.24,1.81a.55.55,0,0,1-.18.15L69.93,160a1.48,1.48,0,0,1-.29.12h0a1.87,1.87,0,0,1-.34,0h0a1.47,1.47,0,0,1-.36,0h0a1.52,1.52,0,0,1-.32-.12l-3.73-2.08a.58.58,0,0,1-.12-.1l.75-.43Z"/><path class="cls-7" d="M67.89,162.51l.12-.09.06-.07v0h0s0,0,0,0,0,0,0,0a.09.09,0,0,0,0-.05.18.18,0,0,0,0-.06h0l0-1.1.49.27.14.07.12,0,.06,0h0l.1,0h.4l.14,0,0,0h.05l.09,0a.72.72,0,0,0,.2-.09l2.44-1.42,0,.87a.47.47,0,0,0,.3.39L76,162.94a.44.44,0,0,1-.17.16l-4.64,2.7a.92.92,0,0,1-.29.11h0a1.27,1.27,0,0,1-.34,0h0a1.47,1.47,0,0,1-.36,0h0a1,1,0,0,1-.32-.13l-3.74-2.08a.7.7,0,0,1-.1-.08l1.92-1.12Z"/><path class="cls-7" d="M65.81,164.6a.48.48,0,0,0,.3.4l3.25,1.81a.71.71,0,0,1-.18.16l-5.76,3.35a1.26,1.26,0,0,1-.29.12h-.05a1.76,1.76,0,0,1-.33,0h0a1.47,1.47,0,0,1-.36,0h0a1.33,1.33,0,0,1-.32-.12l-3.74-2.08-.1-.09,7.58-4.41Z"/><path class="cls-7" d="M69.24,168.25l.12-.09.06-.07v0h0l0,0a.08.08,0,0,0,0-.05.11.11,0,0,0,0,0,.18.18,0,0,0,0-.06h0l0-1,.38.21.15.07.12,0h.6l.13,0h.09l.09,0,.21-.09,4.63-2.7h0a.27.27,0,0,0,.08-.07l0,.87a.51.51,0,0,0,.31.4l3.19,1.78a.13.13,0,0,1,0,.06h0a.51.51,0,0,1-.2.18l-10.13,5.91a1.33,1.33,0,0,1-.3.11h0a1.86,1.86,0,0,1-.34,0h0a2.09,2.09,0,0,1-.36,0h0a.82.82,0,0,1-.32-.12L64,171.42a.34.34,0,0,1-.09-.08l5.3-3.09Z"/><path class="cls-7" d="M77.31,171a.49.49,0,0,0,.3.4l3.25,1.81a.54.54,0,0,1-.18.15L76,176.07a1.1,1.1,0,0,1-.29.12h0a2,2,0,0,1-.34,0h0a1.42,1.42,0,0,1-.36,0h0a1.33,1.33,0,0,1-.32-.12L70.93,174a.93.93,0,0,1-.15-.13l6.49-3.78Z"/><path class="cls-7" d="M75.37,177.52h.33l.07,0h0l.08,0a1,1,0,0,0,.21-.09l4.64-2.7h0a.39.39,0,0,0,.1-.08l0,.9a.54.54,0,0,0,.3.4l3.25,1.81a.65.65,0,0,1-.17.15l-3.59,2.09a1,1,0,0,1-.3.11l0,0a1.87,1.87,0,0,1-.34,0h0a1.47,1.47,0,0,1-.36,0h0a1.61,1.61,0,0,1-.33-.12l-3.73-2.08a.54.54,0,0,1-.28-.33h.11Z"/><path class="cls-7" d="M81,174.33a.11.11,0,0,0,0-.05h0l0-1,.39.21.14.07.12,0h.11l.09,0h.4l.13,0,.06,0h0l.09,0a1.36,1.36,0,0,0,.21-.1l4.63-2.7h0l.1-.08,0,.89a.51.51,0,0,0,.31.4l3.24,1.81a.53.53,0,0,1-.17.16l-4.64,2.69a.84.84,0,0,1-.29.12h0a1.86,1.86,0,0,1-.34,0h0a2.2,2.2,0,0,1-.36,0h0a.93.93,0,0,1-.33-.12l-3.73-2.08a.61.61,0,0,1-.17-.14.14.14,0,0,0,0-.06A.07.07,0,0,0,81,174.33Z"/><path class="cls-7" d="M87.63,170.47v-.06h0l0-1,.38.22.15.06.11,0h.61l.12,0h.1l.09,0,.21-.09,4.63-2.7h0a.39.39,0,0,0,.1-.08l0,.9a.52.52,0,0,0,.31.39l3.25,1.81a.71.71,0,0,1-.18.16l-4.63,2.7a1.33,1.33,0,0,1-.3.11h0a2,2,0,0,1-.34,0h0a2.09,2.09,0,0,1-.36,0h0a.93.93,0,0,1-.33-.12l-3.73-2.08a.66.66,0,0,1-.18-.14s0,0,0,0Z"/><path class="cls-7" d="M94.26,166.6a.13.13,0,0,0,0-.06h0l0-1,.39.22.14.07.12,0,.06,0h0l.09,0h.4l.13,0h.09l.09,0a.78.78,0,0,0,.21-.09l4.63-2.7h0a.53.53,0,0,0,.11-.09l0,.9a.52.52,0,0,0,.3.4l3.25,1.81a.51.51,0,0,1-.17.15l-4.64,2.7a1,1,0,0,1-.29.11l0,0a1.87,1.87,0,0,1-.34,0h0a1.47,1.47,0,0,1-.36,0h0a1.33,1.33,0,0,1-.32-.12l-3.74-2.08a1.29,1.29,0,0,1-.17-.15s0,0,0,0A.07.07,0,0,0,94.26,166.6Z"/><path class="cls-7" d="M100.9,162.73s0,0,0,0h0l0-1,.39.22.15.07.11,0h.11l.1,0h.39l.14,0,0,0h0l.09,0a.67.67,0,0,0,.21-.09l4.64-2.7h0l.1-.08,0,.89a.5.5,0,0,0,.3.4l3.25,1.81a.42.42,0,0,1-.17.15l-4.64,2.7a1.1,1.1,0,0,1-.29.12h-.05l-.34,0h0a1.47,1.47,0,0,1-.36,0h0a1.18,1.18,0,0,1-.33-.12L101,163a.54.54,0,0,1-.18-.15l0,0S100.9,162.75,100.9,162.73Z"/><path class="cls-7" d="M107.54,158.87v-.06h0l0-1,.38.22.14.06.12,0,.07,0h.54l.12,0h.1l.08,0a.67.67,0,0,0,.21-.09l4.64-2.7h0l.12-.09.06-.06v0h0l0,0,0-.06a.07.07,0,0,0,0-.05.13.13,0,0,0,0-.06h0l0-1,.41.23a.59.59,0,0,0,.14.06l.12,0,.06,0h0l.09,0h.58l0,0,.09,0,.21-.09,4.63-2.7h0a.27.27,0,0,0,.12-.09.17.17,0,0,0,.06-.06l0,0h0l0,0a.08.08,0,0,0,0,0s0,0,0-.06v-.05h0l0-1,.38.21.14.07.12,0h.6l.13,0h.1l.08,0,.22-.1,4.63-2.7h0l.12-.09.06-.06a0,0,0,0,1,0,0h0s0,0,0,0l0-.06a.43.43,0,0,1,0-.05.13.13,0,0,0,0-.06h0l0-1,.39.21.14.07.12,0h.11l.09,0h.41l.12,0h.1l.09,0,.2-.09,4.64-2.7h0l.12-.09.06-.07v0h0l0,0s0,0,0-.06a.09.09,0,0,0,0-.05.18.18,0,0,0,0-.06h0l0-1,.39.22.14.06.12,0,.06,0h.14l.1,0h.43l.05,0h.05l.08,0a.67.67,0,0,0,.21-.09l4.64-2.7h0a.39.39,0,0,0,.1-.08l0,.9a.48.48,0,0,0,.3.39l3.25,1.81a.71.71,0,0,1-.18.16L112.8,161.2a1.25,1.25,0,0,1-.29.11h-.05a1.86,1.86,0,0,1-.34,0h0a1.34,1.34,0,0,1-.35-.05h0a1.75,1.75,0,0,1-.32-.12l-3.74-2.08a.79.79,0,0,1-.17-.14.14.14,0,0,0,0-.06S107.54,158.89,107.54,158.87Z"/><path class="cls-7" d="M140.73,139.53a.13.13,0,0,0,0-.06h0l0-1,.39.21a.61.61,0,0,0,.14.07l.12,0h.1l.1,0h.4l.13,0h.1l.09,0,.21-.1,4.74-2.76,0,.87a.51.51,0,0,0,.31.4l3.25,1.81a.71.71,0,0,1-.18.16l-4.64,2.7a1,1,0,0,1-.3.11h0a1.76,1.76,0,0,1-.34,0h0a2.23,2.23,0,0,1-.36-.05h0a1.75,1.75,0,0,1-.32-.12l-3.73-2.08a.54.54,0,0,1-.18-.15s0,0,0,0A.09.09,0,0,0,140.73,139.53Z"/><path class="cls-7" d="M150.08,134.25a.27.27,0,0,0,.12-.09l.06-.06v0h0l0,0,0,0a.13.13,0,0,0,0-.06.11.11,0,0,0,0-.05h0l0-1.1.48.27.15.06.11,0,.07,0h.54l.12,0h.1l.09,0,.21-.09,1.75-1,0,.88a.48.48,0,0,0,.3.4l3.22,1.79a0,0,0,0,0,0,0h0a.51.51,0,0,1-.2.18l-4.63,2.7a1.34,1.34,0,0,1-.3.12h0a1.87,1.87,0,0,1-.34,0h0a1.47,1.47,0,0,1-.36,0h0a1.61,1.61,0,0,1-.33-.12l-3.73-2.08s-.07-.07-.11-.1l2.67-1.56Z"/><path class="cls-7" d="M139.17,134l.12-.09.06-.07h0v0l0-.06a.43.43,0,0,1,0-.05.13.13,0,0,0,0-.06h0l0-1,.39.22a.59.59,0,0,0,.14.06l.12,0,.06,0h.14l.1,0h.3l.14,0h.08l.09,0a1,1,0,0,0,.21-.09l4.63-2.7h0a.38.38,0,0,0,.12-.09A.17.17,0,0,0,146,130l0,0h0l0,0s0,0,0-.05a.14.14,0,0,0,0-.06v-.05h0l0-1.07.46.25.14.07.12,0h.11l.09,0h.41l.12,0h.1l.08,0a.67.67,0,0,0,.21-.09l3.82-2.22,0,.93a.51.51,0,0,0,.31.4l3.11,1.73a.35.35,0,0,1-.06.17h0a.59.59,0,0,1-.2.18l-2.75,1.6a1.1,1.1,0,0,1-.29.11h-.05a1.27,1.27,0,0,1-.34,0h0a1.47,1.47,0,0,1-.36,0h0a1.33,1.33,0,0,1-.32-.12L147,129.67a.51.51,0,0,1-.3-.4l.05,1.29c0,.14.1.28.3.4l3.2,1.78s0,0,0,0h0a.59.59,0,0,1-.2.18l-7.6,4.43a1.33,1.33,0,0,1-.3.11h0a2,2,0,0,1-.34,0h0a2.09,2.09,0,0,1-.36,0h0a1.33,1.33,0,0,1-.32-.12l-3.74-2.08a1,1,0,0,1-.15-.13l2-1.17Z"/><path class="cls-7" d="M154,125.39l.12-.09a.13.13,0,0,0,.06-.07h0l0,0a.14.14,0,0,0,0-.06s0,0,0-.06v0h0l0-1.19.59.33.15.07.12,0h.1l.1,0h.4l.12,0h.1l.09,0,.21-.1.16-.09,0,.9a.49.49,0,0,0,.3.4l3.24,1.8a.71.71,0,0,1-.2.18l-2.62,1.52a1.26,1.26,0,0,1-.29.12h-.05l-.34,0h0l-.36,0h0a.82.82,0,0,1-.32-.12L152,126.77a.61.61,0,0,1-.15-.12l2.15-1.26Z"/><path class="cls-7" d="M161.2,121.22l.12-.09.06-.06v0h0l0,0s0,0,0-.06a.07.07,0,0,0,0,0,.13.13,0,0,0,0-.06h0l0-1,.39.21.15.07.12,0,.06,0h.14l.1,0h.42l0,0h.05l.08,0a1.45,1.45,0,0,0,.22-.09l.29-.18,0,.9a.53.53,0,0,0,.31.4L167.1,123l-.07.06-5.28,3.08a1.34,1.34,0,0,1-.3.12h0l-.33,0h0a2.23,2.23,0,0,1-.36,0h0a1,1,0,0,1-.32-.12l-3.73-2.08a.73.73,0,0,1-.13-.1l4.69-2.74Z"/><path class="cls-7" d="M133.94,103.78l4.63-2.7a1.56,1.56,0,0,1,1.38,0l3.74,2.08c.39.22.41.57,0,.79l-4.64,2.7a1.56,1.56,0,0,1-1.38,0L134,104.57C133.59,104.35,133.57,104,133.94,103.78Z"/><path class="cls-7" d="M127.44,107.57l4.63-2.7a1.53,1.53,0,0,1,1.38,0l3.74,2.08c.39.22.41.57,0,.79l-4.64,2.7a1.53,1.53,0,0,1-1.38,0l-3.74-2.08C127.09,108.14,127.06,107.79,127.44,107.57Z"/><path class="cls-7" d="M120.81,111.43l4.63-2.7a1.59,1.59,0,0,1,1.38,0l3.74,2.09c.39.21.4.57,0,.78L126,114.3a1.55,1.55,0,0,1-1.39,0l-3.73-2.08C120.45,112,120.43,111.65,120.81,111.43Z"/><path class="cls-7" d="M114.1,115.34l4.64-2.7a1.53,1.53,0,0,1,1.38,0l3.73,2.08c.39.22.41.57,0,.79l-4.63,2.7a1.58,1.58,0,0,1-1.39,0l-3.73-2.09C113.75,115.91,113.73,115.56,114.1,115.34Z"/><path class="cls-7" d="M107.47,119.2l4.64-2.7a1.57,1.57,0,0,1,1.37,0l3.74,2.08c.39.22.41.58,0,.79l-4.64,2.7a1.55,1.55,0,0,1-1.39,0L107.5,120C107.11,119.77,107.1,119.42,107.47,119.2Z"/><path class="cls-7" d="M100.83,123.07l4.63-2.7a1.56,1.56,0,0,1,1.38,0l3.74,2.08c.39.22.41.57,0,.79l-4.64,2.7a1.53,1.53,0,0,1-1.38,0l-3.74-2.08C100.48,123.64,100.46,123.29,100.83,123.07Z"/><path class="cls-7" d="M94.19,126.94l4.64-2.7a1.53,1.53,0,0,1,1.38,0l3.74,2.08c.39.22.41.57,0,.79l-4.63,2.7a1.58,1.58,0,0,1-1.39,0l-3.73-2.08C93.84,127.51,93.83,127.15,94.19,126.94Z"/><path class="cls-7" d="M87.56,130.8l4.63-2.7a1.56,1.56,0,0,1,1.38,0l3.74,2.08c.39.22.4.57,0,.79l-4.64,2.69a1.55,1.55,0,0,1-1.39,0l-3.73-2.08C87.2,131.38,87.18,131,87.56,130.8Z"/><path class="cls-7" d="M80.92,134.67l4.64-2.7a1.56,1.56,0,0,1,1.38,0l3.73,2.08c.39.22.41.57,0,.79l-4.63,2.7a1.55,1.55,0,0,1-1.39,0L81,135.45C80.57,135.24,80.55,134.89,80.92,134.67Z"/><path class="cls-7" d="M74.27,138.55l4.63-2.7a1.53,1.53,0,0,1,1.38,0L84,137.93c.39.22.41.57,0,.79l-4.63,2.7a1.56,1.56,0,0,1-1.38,0l-3.74-2.08C73.91,139.12,73.9,138.76,74.27,138.55Z"/><path class="cls-7" d="M67.63,142.41l4.64-2.7a1.56,1.56,0,0,1,1.38,0l3.73,2.08c.4.22.42.57,0,.79l-4.63,2.7a1.58,1.58,0,0,1-1.39,0l-3.73-2.08C67.28,143,67.26,142.63,67.63,142.41Z"/><path class="cls-7" d="M61,146.28l4.64-2.7a1.56,1.56,0,0,1,1.38,0l3.73,2.08c.4.22.41.57,0,.79l-4.63,2.7a1.58,1.58,0,0,1-1.39,0L61,147.06C60.64,146.85,60.62,146.5,61,146.28Z"/><path class="cls-7" d="M54.36,150.14l4.64-2.7a1.59,1.59,0,0,1,1.38,0l3.73,2.09c.39.22.41.57,0,.78L59.52,153a1.58,1.58,0,0,1-1.39,0l-3.74-2.08C54,150.71,54,150.36,54.36,150.14Z"/><path class="cls-7" d="M47.72,154l4.64-2.7a1.56,1.56,0,0,1,1.38,0l3.73,2.09c.39.21.41.57,0,.78l-4.63,2.7a1.55,1.55,0,0,1-1.39,0l-3.73-2.08C47.37,154.58,47.35,154.23,47.72,154Z"/><path class="cls-7" d="M41.09,157.88l4.63-2.7a1.53,1.53,0,0,1,1.38,0l3.74,2.08c.39.22.41.57,0,.79l-4.64,2.7a1.56,1.56,0,0,1-1.38,0l-3.74-2.08C40.73,158.45,40.72,158.09,41.09,157.88Z"/><path class="cls-7" d="M128.67,113.38l15.63-9.11a1.56,1.56,0,0,1,1.38,0l3.73,2.08c.4.22.41.57,0,.79l-15.63,9.11a1.56,1.56,0,0,1-1.38,0l-3.74-2.08C128.31,113.94,128.29,113.59,128.67,113.38Z"/><path class="cls-7" d="M122,117.27l4.64-2.7a1.53,1.53,0,0,1,1.38,0l3.74,2.08c.39.22.4.57,0,.79l-4.64,2.7a1.56,1.56,0,0,1-1.38,0L122,118.05C121.63,117.83,121.62,117.48,122,117.27Z"/><path class="cls-7" d="M115.36,121.13l4.64-2.7a1.52,1.52,0,0,1,1.38,0l3.73,2.08c.39.22.41.57,0,.79l-4.64,2.7a1.53,1.53,0,0,1-1.38,0l-3.74-2.08C115,121.7,115,121.35,115.36,121.13Z"/><path class="cls-7" d="M108.72,125l4.64-2.7a1.5,1.5,0,0,1,1.37,0l3.74,2.08c.39.22.41.57,0,.79l-4.63,2.7a1.56,1.56,0,0,1-1.38,0l-3.74-2.09C108.36,125.56,108.35,125.22,108.72,125Z"/><path class="cls-7" d="M102.09,128.86l4.64-2.7a1.54,1.54,0,0,1,1.37,0l3.74,2.09c.39.21.4.57,0,.78l-4.63,2.7a1.53,1.53,0,0,1-1.38,0l-3.74-2.08C101.73,129.43,101.72,129.08,102.09,128.86Z"/><path class="cls-7" d="M95.45,132.73l4.63-2.7a1.53,1.53,0,0,1,1.38,0l3.74,2.08c.39.22.41.57,0,.79l-4.63,2.7a1.53,1.53,0,0,1-1.38,0l-3.74-2.08C95.09,133.3,95.08,133,95.45,132.73Z"/><path class="cls-7" d="M88.81,136.6l4.64-2.7a1.53,1.53,0,0,1,1.38,0L98.57,136c.39.22.4.57,0,.79L94,139.47a1.56,1.56,0,0,1-1.38,0l-3.73-2.08C88.46,137.16,88.45,136.81,88.81,136.6Z"/><path class="cls-7" d="M82.16,140.47l4.64-2.7a1.56,1.56,0,0,1,1.38,0l3.73,2.08c.39.21.4.57,0,.78l-4.64,2.7a1.53,1.53,0,0,1-1.38,0l-3.74-2.08C81.8,141,81.79,140.69,82.16,140.47Z"/><path class="cls-7" d="M75.53,144.34l4.63-2.7a1.53,1.53,0,0,1,1.38,0l3.74,2.08c.39.22.4.57,0,.79l-4.63,2.7a1.59,1.59,0,0,1-1.38,0l-3.74-2.09C75.17,144.9,75.15,144.56,75.53,144.34Z"/><path class="cls-7" d="M68.89,148.21l4.63-2.7a1.53,1.53,0,0,1,1.38,0l3.74,2.08c.39.22.4.57,0,.79L74,151.08a1.54,1.54,0,0,1-1.37,0L68.92,149C68.53,148.77,68.52,148.42,68.89,148.21Z"/><path class="cls-7" d="M62.25,152.07l4.64-2.7a1.53,1.53,0,0,1,1.38,0L72,151.45c.4.22.41.57,0,.79l-4.64,2.7a1.53,1.53,0,0,1-1.38,0l-3.73-2.08C61.89,152.64,61.88,152.29,62.25,152.07Z"/><path class="cls-7" d="M55.61,155.94l4.64-2.7a1.52,1.52,0,0,1,1.38,0l3.73,2.08c.39.22.41.57,0,.79l-4.64,2.7a1.56,1.56,0,0,1-1.38,0l-3.73-2.08C55.26,156.51,55.24,156.16,55.61,155.94Z"/><path class="cls-7" d="M49,159.8l4.64-2.7a1.56,1.56,0,0,1,1.38,0l3.73,2.08c.39.22.41.57,0,.78l-4.64,2.7a1.53,1.53,0,0,1-1.38,0L49,160.59C48.62,160.37,48.61,160,49,159.8Z"/><path class="cls-7" d="M145.06,110.4l5-2.92a1.59,1.59,0,0,1,1.38,0l3.73,2.09c.39.22.41.57,0,.78l-5,2.92a1.53,1.53,0,0,1-1.38,0l-3.74-2.08C144.7,111,144.69,110.62,145.06,110.4Z"/><path class="cls-7" d="M138.15,114.43l5-2.92a1.53,1.53,0,0,1,1.38,0l3.74,2.08c.39.22.4.57,0,.79l-5,2.92a1.56,1.56,0,0,1-1.38,0l-3.74-2.08C137.79,115,137.78,114.64,138.15,114.43Z"/><path class="cls-7" d="M152.3,112.73l3.51-2a1.58,1.58,0,0,1,1.39,0l9.42,5.25c.39.22.41.57,0,.79l-3.51,2a1.53,1.53,0,0,1-1.38,0l-9.43-5.25C152,113.3,151.93,113,152.3,112.73Z"/><path class="cls-7" d="M145.29,116.82l5-2.92a1.53,1.53,0,0,1,1.38,0l3.74,2.08c.38.22.41.57,0,.79l-5,2.92a1.53,1.53,0,0,1-1.38,0l-3.74-2.08C144.93,117.39,144.92,117,145.29,116.82Z"/><path class="cls-7" d="M124.52,122.33l4.63-2.7a1.55,1.55,0,0,1,1.39,0l3.73,2.08c.39.22.41.57,0,.79l-4.64,2.7a1.56,1.56,0,0,1-1.38,0l-3.73-2.08C124.16,122.9,124.14,122.54,124.52,122.33Z"/><path class="cls-7" d="M131.22,118.42l4.63-2.7a1.58,1.58,0,0,1,1.39,0l5.72,3.18,1.37.76L146.7,121c.39.22.41.58,0,.79l-9.17,5.35a1.53,1.53,0,0,1-1.38,0L132.44,125c-.38-.21-.4-.57,0-.79l3.86-2.24-5-2.8C130.86,119,130.85,118.64,131.22,118.42Z"/><path class="cls-7" d="M117.88,126.19l4.64-2.7a1.58,1.58,0,0,1,1.39,0l3.73,2.08c.39.21.4.57,0,.79L123,129.06a1.53,1.53,0,0,1-1.38,0L117.92,127C117.53,126.76,117.51,126.41,117.88,126.19Z"/><path class="cls-7" d="M111.24,130.06l4.64-2.7a1.59,1.59,0,0,1,1.38,0l3.74,2.09c.39.21.4.57,0,.78l-4.63,2.7a1.55,1.55,0,0,1-1.39,0l-3.73-2.08C110.89,130.63,110.87,130.28,111.24,130.06Z"/><path class="cls-7" d="M104.61,133.93l4.64-2.7a1.53,1.53,0,0,1,1.38,0l3.74,2.08c.39.21.4.57,0,.79l-4.64,2.7a1.53,1.53,0,0,1-1.38,0l-3.73-2.07C104.26,134.49,104.24,134.14,104.61,133.93Z"/><path class="cls-7" d="M98,137.79l4.64-2.7a1.56,1.56,0,0,1,1.38,0l3.74,2.08c.38.21.4.57,0,.78l-4.64,2.71a1.56,1.56,0,0,1-1.38,0L98,138.58C97.62,138.37,97.6,138,98,137.79Z"/><path class="cls-7" d="M91.34,141.66,96,139a1.55,1.55,0,0,1,1.39,0l3.73,2.09c.39.21.41.56,0,.78l-4.64,2.7a1.56,1.56,0,0,1-1.38,0l-3.73-2.08C91,142.23,91,141.88,91.34,141.66Z"/><path class="cls-7" d="M84.68,145.54l4.64-2.7a1.55,1.55,0,0,1,1.39,0l3.73,2.08c.39.21.4.57,0,.79l-4.63,2.7a1.56,1.56,0,0,1-1.38,0l-3.74-2.09C84.33,146.1,84.31,145.75,84.68,145.54Z"/><path class="cls-7" d="M78.05,149.4l4.64-2.7a1.53,1.53,0,0,1,1.38,0l3.73,2.08c.39.21.41.56,0,.78l-4.63,2.7a1.55,1.55,0,0,1-1.39,0l-3.73-2.08C77.69,150,77.68,149.62,78.05,149.4Z"/><path class="cls-7" d="M71.41,153.27l4.63-2.7a1.58,1.58,0,0,1,1.39,0l3.73,2.09c.39.21.41.56,0,.78l-4.64,2.7a1.56,1.56,0,0,1-1.38,0l-3.73-2.08C71.06,153.84,71,153.49,71.41,153.27Z"/><path class="cls-7" d="M64.77,157.13l4.64-2.7a1.58,1.58,0,0,1,1.39,0l3.73,2.08c.39.21.41.57,0,.79L69.93,160a1.56,1.56,0,0,1-1.38,0l-3.74-2.08C64.42,157.7,64.41,157.35,64.77,157.13Z"/><path class="cls-7" d="M52.54,164.26l10.14-5.9a1.53,1.53,0,0,1,1.38,0l3.74,2.08c.39.22.41.57,0,.79l-10.13,5.9a1.53,1.53,0,0,1-1.38,0l-3.74-2.08C52.19,164.83,52.17,164.48,52.54,164.26Z"/><path class="cls-7" d="M125.78,128.12l4.63-2.7a1.56,1.56,0,0,1,1.38,0l3.74,2.08c.39.22.41.58,0,.79l-4.63,2.7a1.55,1.55,0,0,1-1.39,0l-3.73-2.08C125.42,128.69,125.4,128.34,125.78,128.12Z"/><path class="cls-7" d="M119.14,132l4.63-2.7a1.53,1.53,0,0,1,1.38,0l3.73,2.08c.4.22.42.57,0,.79l-4.63,2.7a1.55,1.55,0,0,1-1.39,0l-3.73-2.08C118.78,132.56,118.76,132.21,119.14,132Z"/><path class="cls-7" d="M112.5,135.85l4.64-2.7a1.59,1.59,0,0,1,1.38,0l3.73,2.08c.4.22.41.58,0,.8l-4.63,2.7a1.58,1.58,0,0,1-1.39,0l-3.73-2.08C112.15,136.42,112.13,136.07,112.5,135.85Z"/><path class="cls-7" d="M105.86,139.72l4.64-2.7a1.59,1.59,0,0,1,1.38,0l3.73,2.08c.4.22.41.58,0,.79l-4.63,2.7a1.55,1.55,0,0,1-1.39,0l-3.74-2.08C105.51,140.29,105.49,139.94,105.86,139.72Z"/><path class="cls-7" d="M99.23,143.59l4.63-2.7a1.53,1.53,0,0,1,1.38,0L109,143c.39.22.41.57,0,.79l-4.64,2.7a1.53,1.53,0,0,1-1.38,0l-3.74-2.08C98.88,144.16,98.86,143.8,99.23,143.59Z"/><path class="cls-7" d="M92.57,147.46l4.64-2.7a1.59,1.59,0,0,1,1.38,0l3.74,2.08c.39.22.4.58,0,.8l-4.63,2.7a1.58,1.58,0,0,1-1.39,0l-3.73-2.08C92.22,148,92.2,147.68,92.57,147.46Z"/><path class="cls-7" d="M85.94,151.33l4.64-2.7a1.5,1.5,0,0,1,1.37,0l3.74,2.08c.39.22.41.57,0,.79l-4.64,2.7a1.53,1.53,0,0,1-1.38,0L86,152.11C85.59,151.9,85.57,151.54,85.94,151.33Z"/><path class="cls-7" d="M79.3,155.2l4.64-2.7a1.53,1.53,0,0,1,1.38,0l3.74,2.08c.39.22.4.57,0,.79l-4.63,2.7a1.55,1.55,0,0,1-1.39,0L79.34,156C79,155.77,78.93,155.41,79.3,155.2Z"/><path class="cls-7" d="M72.67,159.06l4.64-2.7a1.57,1.57,0,0,1,1.37,0l3.74,2.08c.39.22.41.58,0,.79l-4.63,2.7a1.57,1.57,0,0,1-1.4,0l-3.73-2.08C72.31,159.63,72.3,159.28,72.67,159.06Z"/><path class="cls-7" d="M66,162.93l4.63-2.7a1.53,1.53,0,0,1,1.38,0l3.74,2.08c.39.22.41.57,0,.79l-4.64,2.7a1.53,1.53,0,0,1-1.38,0l-3.73-2.09C65.68,163.5,65.66,163.15,66,162.93Z"/><path class="cls-7" d="M58.27,167.45,64,164.1a1.53,1.53,0,0,1,1.38,0l3.74,2.08c.39.22.4.57,0,.79l-5.76,3.35a1.53,1.53,0,0,1-1.38,0l-3.74-2.08C57.92,168,57.9,167.67,58.27,167.45Z"/><path class="cls-7" d="M151,120l5-2.92a1.53,1.53,0,0,1,1.38,0l3.73,2.08c.4.22.41.57,0,.79l-5,2.92a1.53,1.53,0,0,1-1.38,0L151,120.78C150.62,120.56,150.61,120.21,151,120Z"/><path class="cls-7" d="M142.66,124.8l6.11-3.56a1.55,1.55,0,0,1,1.39,0l3.73,2.08c.39.22.41.57,0,.79l-6.12,3.56a1.59,1.59,0,0,1-1.38,0l-3.73-2.08C142.3,125.37,142.29,125,142.66,124.8Z"/><path class="cls-7" d="M136,128.7l4.63-2.7a1.55,1.55,0,0,1,1.39,0l3.73,2.08c.39.21.41.57,0,.78l-4.64,2.7a1.53,1.53,0,0,1-1.38,0L136,129.49C135.61,129.27,135.58,128.92,136,128.7Z"/><path class="cls-7" d="M129.32,132.57l4.64-2.7a1.55,1.55,0,0,1,1.39,0l3.73,2.08c.39.22.4.57,0,.79l-4.63,2.7a1.59,1.59,0,0,1-1.38,0l-3.74-2.08C129,133.14,129,132.78,129.32,132.57Z"/><path class="cls-7" d="M122.69,136.43l4.63-2.7a1.56,1.56,0,0,1,1.38,0l3.74,2.08c.39.22.4.57,0,.79l-4.63,2.7a1.59,1.59,0,0,1-1.38,0l-3.74-2.08C122.33,137,122.31,136.65,122.69,136.43Z"/><path class="cls-7" d="M116.05,140.3l4.64-2.7a1.53,1.53,0,0,1,1.38,0l3.74,2.08c.39.22.4.57,0,.79l-4.64,2.7a1.53,1.53,0,0,1-1.38,0l-3.73-2.08C115.7,140.87,115.68,140.52,116.05,140.3Z"/><path class="cls-7" d="M109.41,144.17l4.64-2.7a1.53,1.53,0,0,1,1.38,0l3.74,2.08c.39.22.4.57,0,.79l-4.64,2.7a1.56,1.56,0,0,1-1.38,0L109.45,145C109.06,144.74,109,144.38,109.41,144.17Z"/><path class="cls-7" d="M102.78,148l4.63-2.7a1.55,1.55,0,0,1,1.39,0l3.73,2.08c.39.21.41.57,0,.78l-4.64,2.7a1.53,1.53,0,0,1-1.38,0l-3.73-2.08C102.43,148.6,102.4,148.25,102.78,148Z"/><path class="cls-7" d="M96.12,151.91l4.64-2.7a1.55,1.55,0,0,1,1.39,0l3.73,2.08c.39.22.4.57,0,.79l-4.63,2.7a1.53,1.53,0,0,1-1.38,0l-3.74-2.08C95.77,152.48,95.75,152.13,96.12,151.91Z"/><path class="cls-7" d="M89.49,155.77l4.64-2.7a1.56,1.56,0,0,1,1.38,0l3.73,2.08c.39.22.41.57,0,.78l-4.63,2.71a1.61,1.61,0,0,1-1.39,0l-3.73-2.09C89.13,156.35,89.12,156,89.49,155.77Z"/><path class="cls-7" d="M82.85,159.64l4.64-2.7a1.56,1.56,0,0,1,1.38,0L92.6,159c.39.22.41.57,0,.79L88,162.52a1.54,1.54,0,0,1-1.37,0l-3.74-2.08C82.5,160.21,82.48,159.86,82.85,159.64Z"/><path class="cls-7" d="M76.21,163.51l4.64-2.7a1.55,1.55,0,0,1,1.39,0L86,162.89c.39.22.41.57,0,.79l-4.63,2.7a1.59,1.59,0,0,1-1.38,0l-3.74-2.08C75.86,164.08,75.85,163.72,76.21,163.51Z"/><path class="cls-7" d="M64,170.64l10.14-5.91a1.53,1.53,0,0,1,1.38,0l3.74,2.08c.38.21.41.57,0,.78l-10.13,5.91a1.56,1.56,0,0,1-1.38,0L64,171.42C63.63,171.21,63.61,170.85,64,170.64Z"/><path class="cls-7" d="M163.74,119.1l3.51-2a1.58,1.58,0,0,1,1.39,0l9.46,5.28c.4.22.42.57,0,.79l-3.51,2a1.53,1.53,0,0,1-1.38,0l-9.47-5.28C163.39,119.67,163.37,119.32,163.74,119.1Z"/><path class="cls-7" d="M156.59,123.27l5.29-3.08a1.53,1.53,0,0,1,1.38,0l3.74,2.08c.38.21.41.57,0,.78l-5.29,3.08a1.53,1.53,0,0,1-1.38,0l-3.73-2.08C156.23,123.84,156.22,123.49,156.59,123.27Z"/><path class="cls-7" d="M151.94,126l2.61-1.52a1.55,1.55,0,0,1,1.39,0l3.74,2.08c.39.22.4.57,0,.79l-2.62,1.53a1.59,1.59,0,0,1-1.38,0L152,126.78C151.58,126.56,151.56,126.2,151.94,126Z"/><path class="cls-7" d="M147,128.88l2.74-1.6a1.55,1.55,0,0,1,1.39,0l3.73,2.08c.39.21.41.56,0,.78l-2.75,1.6a1.53,1.53,0,0,1-1.38,0L147,129.67C146.61,129.45,146.59,129.1,147,128.88Z"/><path class="cls-7" d="M137.27,134.53l7.6-4.43a1.58,1.58,0,0,1,1.39,0l3.73,2.09c.39.21.4.57,0,.78l-7.6,4.43a1.56,1.56,0,0,1-1.38,0l-3.74-2.08C136.92,135.1,136.9,134.74,137.27,134.53Z"/><path class="cls-7" d="M130.63,138.39l4.64-2.7a1.56,1.56,0,0,1,1.38,0l3.74,2.08c.39.22.41.57,0,.79l-4.63,2.7a1.56,1.56,0,0,1-1.38,0l-3.74-2.08C130.28,139,130.26,138.61,130.63,138.39Z"/><path class="cls-7" d="M124,142.26l4.63-2.7a1.55,1.55,0,0,1,1.39,0l3.74,2.09c.38.21.4.57,0,.78l-4.64,2.7a1.53,1.53,0,0,1-1.38,0L124,143.05C123.65,142.83,123.63,142.47,124,142.26Z"/><path class="cls-7" d="M117.36,146.13l4.64-2.7a1.53,1.53,0,0,1,1.38,0l3.74,2.08c.38.22.4.57,0,.79l-4.63,2.7a1.58,1.58,0,0,1-1.39,0l-3.73-2.08C117,146.7,117,146.35,117.36,146.13Z"/><path class="cls-7" d="M110.73,150l4.63-2.7a1.58,1.58,0,0,1,1.39,0l3.73,2.08c.39.22.41.57,0,.79l-4.63,2.69a1.53,1.53,0,0,1-1.38,0l-3.73-2.08C110.37,150.56,110.35,150.21,110.73,150Z"/><path class="cls-7" d="M104.07,153.87l4.64-2.7a1.55,1.55,0,0,1,1.39,0l3.73,2.09c.39.21.4.57,0,.78l-4.63,2.7a1.53,1.53,0,0,1-1.38,0l-3.74-2.08C103.72,154.44,103.7,154.08,104.07,153.87Z"/><path class="cls-7" d="M97.44,157.73l4.63-2.7a1.58,1.58,0,0,1,1.39,0l3.73,2.08c.39.22.41.57,0,.78l-4.64,2.71a1.54,1.54,0,0,1-1.37,0l-3.74-2.08C97.09,158.3,97.07,158,97.44,157.73Z"/><path class="cls-7" d="M90.8,161.6l4.63-2.7a1.58,1.58,0,0,1,1.39,0l3.74,2.08c.39.21.4.57,0,.79L96,164.47a1.53,1.53,0,0,1-1.38,0l-3.73-2.08C90.45,162.17,90.43,161.82,90.8,161.6Z"/><path class="cls-7" d="M84.17,165.47l4.63-2.7a1.55,1.55,0,0,1,1.39,0l3.73,2.08c.39.22.4.57,0,.79l-4.64,2.7a1.53,1.53,0,0,1-1.38,0l-3.74-2.08C83.81,166,83.79,165.68,84.17,165.47Z"/><path class="cls-7" d="M77.53,169.34l4.63-2.7a1.55,1.55,0,0,1,1.39,0l3.73,2.08c.39.22.41.57,0,.79l-4.64,2.7a1.53,1.53,0,0,1-1.38,0l-3.73-2.08C77.17,169.9,77.15,169.55,77.53,169.34Z"/><path class="cls-7" d="M70.89,173.2l4.64-2.7a1.58,1.58,0,0,1,1.39,0l3.73,2.09c.39.21.4.57,0,.78l-4.63,2.7a1.53,1.53,0,0,1-1.38,0L70.93,174C70.54,173.77,70.52,173.42,70.89,173.2Z"/><path class="cls-7" d="M160.81,127.35l4.64-2.7a1.56,1.56,0,0,1,1.38,0l3.73,2.08c.39.22.42.57,0,.79l-4.63,2.7a1.55,1.55,0,0,1-1.39,0l-3.73-2.09C160.46,127.92,160.44,127.57,160.81,127.35Z"/><path class="cls-7" d="M154.18,131.22l4.63-2.71a1.61,1.61,0,0,1,1.39,0l3.73,2.09c.39.22.41.57,0,.79l-4.64,2.7a1.56,1.56,0,0,1-1.38,0L154.21,132C153.82,131.78,153.81,131.43,154.18,131.22Z"/><path class="cls-7" d="M147.48,135.12l4.63-2.7a1.56,1.56,0,0,1,1.38,0l3.73,2.08c.4.22.42.57.05.79l-4.64,2.7a1.56,1.56,0,0,1-1.38,0l-3.74-2.08C147.12,135.69,147.1,135.34,147.48,135.12Z"/><path class="cls-7" d="M140.84,139l4.64-2.7a1.56,1.56,0,0,1,1.38,0l3.73,2.09c.4.21.41.57,0,.79l-4.64,2.7a1.56,1.56,0,0,1-1.38,0l-3.73-2.08C140.49,139.56,140.47,139.2,140.84,139Z"/><path class="cls-7" d="M107.64,158.33l31.2-18.18a1.56,1.56,0,0,1,1.38,0l3.73,2.08c.4.22.42.58,0,.79L112.8,161.2a1.58,1.58,0,0,1-1.39,0l-3.73-2.09C107.29,158.9,107.27,158.55,107.64,158.33Z"/><path class="cls-7" d="M101,162.19l4.64-2.7a1.57,1.57,0,0,1,1.37,0l3.74,2.09c.39.21.41.57,0,.78l-4.63,2.7a1.57,1.57,0,0,1-1.4,0L101,163C100.65,162.77,100.64,162.41,101,162.19Z"/><path class="cls-7" d="M94.37,166.06l4.63-2.7a1.56,1.56,0,0,1,1.38,0l3.74,2.08c.39.22.41.58,0,.79l-4.64,2.7a1.53,1.53,0,0,1-1.38,0l-3.74-2.08C94,166.63,94,166.28,94.37,166.06Z"/><path class="cls-7" d="M87.73,169.93l4.64-2.7a1.53,1.53,0,0,1,1.38,0l3.74,2.08c.39.22.41.57,0,.79l-4.63,2.7a1.55,1.55,0,0,1-1.39,0l-3.73-2.08C87.38,170.5,87.36,170.14,87.73,169.93Z"/><path class="cls-7" d="M81.1,173.79l4.63-2.7a1.56,1.56,0,0,1,1.38,0l3.74,2.08c.39.22.4.57,0,.79l-4.64,2.69a1.55,1.55,0,0,1-1.39,0l-3.73-2.08C80.74,174.37,80.72,174,81.1,173.79Z"/><path class="cls-7" d="M75.5,177.05,79.1,175a1.53,1.53,0,0,1,1.38,0L84.21,177c.4.22.41.57,0,.79l-3.59,2.1a1.58,1.58,0,0,1-1.39,0l-3.73-2.08C75.15,177.62,75.13,177.27,75.5,177.05Z"/><path class="cls-8" d="M111.09,4.51c-.68-2.8-3.82-4.64-6.45-3.11L5.32,59.29a7,7,0,0,0-3.45,6l24.79,89.21c.47,1.56,1.6,2.39,2.88,1.65L134.93,94.73a1.9,1.9,0,0,0,.95-1.65Z"/><path class="cls-9" d="M132.26,91.7,107.81,4.9a.61.61,0,0,0-.89-.36L5.77,63.51a.63.63,0,0,0-.28.7L29.94,151a.61.61,0,0,0,.9.36L132,92.39A.61.61,0,0,0,132.26,91.7Z"/><path class="cls-10" d="M132.26,91.7,107.81,4.9a.61.61,0,0,0-.89-.36L29.94,151a.61.61,0,0,0,.9.36L132,92.39A.61.61,0,0,0,132.26,91.7Z"/></svg>