<svg xmlns="http://www.w3.org/2000/svg" xmlns:xlink="http://www.w3.org/1999/xlink" viewBox="0 0 419.29 276.55"><defs><style>.bf125f6f-26d6-4870-b756-8e5fd188487f{opacity:0.3;}.acff8c0b-ffdd-450c-8215-2f382c08e8c6{fill:#00b4d6;}.e824f74c-69c2-474f-ba19-dc73af6520d2{fill:#008497;}.fd67049e-2be0-48d9-b019-33feb480633d{fill:#cce2f4;}.fbf68765-4998-4aaa-8a0e-c7a833a0f95f{fill:#cacaca;}.f60bcc43-139f-455a-93e2-c58d13734979{fill:#fff;}.f48144e0-7b84-4d14-a999-697708e71fb3{opacity:0.8;}.b2a12c0c-47d8-496e-a329-c8b8f3d60b59{fill:#93bdd8;}.aed8ab8d-f37c-4462-9eda-32b9da6d6a54,.b1712c40-e66a-4a6c-901d-5347c517fdd0{opacity:0.79;}.b1712c40-e66a-4a6c-901d-5347c517fdd0{fill:url(#e44ac40e-b1bb-404b-919a-fea699242926);}.aed8ab8d-f37c-4462-9eda-32b9da6d6a54{fill:url(#ab43574c-3e71-4211-87a2-edd4e9208cd4);}.f963d141-319d-4741-b28f-5ec38deac7cf{fill:url(#a6e54eb1-d74c-45be-b876-ec34cb86bd30);}.b689e543-c35b-421e-8766-142a5c9273be{opacity:0.65;}.b8e90433-28e9-46be-acd5-79526f815be4{fill:url(#abaf42c8-a89e-4153-954f-4d149ed66992);}.b39c0c24-05b3-4dc4-baee-53d3d15f44d3{fill:url(#a086b91b-52fa-4780-be6c-700ea94ca744);}.fcc9b2b7-54bc-45db-b790-2d06e5a27706{fill:url(#aff835af-ace8-4992-b835-d732fd5721e8);}.fc9cd5f6-85fb-4dcd-9c73-2c20d457d2e8{fill:url(#a5d1c4c1-56d3-4b6e-9473-49193f650b97);}.e31c7b8c-746b-4054-800f-1394af589227{fill:url(#bcb9cbc1-69ec-43fa-a3c0-5eb15f20732b);}.eac7fcc2-c656-4a16-9fc0-4550460aca36{fill:url(#a8aa28fd-4850-4f02-9e5f-d0bead211346);}.b3dd8ec0-345b-4e4c-be55-1dab472b982e{fill:url(#efbf19d8-74e4-4a20-b24d-895eee34b086);}.a326eeec-7dab-4516-944f-b4d4c3c4c607{fill:#d22b21;}.ba936220-d505-409d-9286-e162e63ed06a{fill:#ffbd5d;}.bf3161b2-2c70-49f2-a903-deffceed0994{fill:#ff4131;}.a4220c6f-90fb-4d4f-89cb-6ceade2690dc{fill:url(#e0eaf106-2704-4884-ba2d-96bfa33c7d87);}.b646109d-0f7b-4bfc-bf2f-42ec7f4f570b{fill:url(#adf5a398-6769-491e-aa3e-b404e096a38e);}.bb329bcd-cb64-4ba8-9d0a-1251294ef23d{fill:url(#b6e3eb18-c84b-4c95-8a0e-fe80fedbf33d);}.fb89fdb5-9f11-4ed6-8bf6-b85b92643678{fill:#2b5680;}.fe0ef8c3-d825-4d04-9dea-20e2a9a862fa{fill:#283169;}.af6f5ade-9b8f-42e5-8446-51c3039635e6{fill:url(#e1011fec-fedb-4877-a708-8495d1559533);}.f77f7366-c1a6-4016-9228-2b39e54e71d1{fill:#ff9060;}.e780b0c0-8a21-465e-b347-3ccb599e963a{fill:#ffa06e;}.ba8fd3b8-d973-4755-9d2b-f619edb3ed03{fill:url(#afa70915-fd3b-44c0-9f2f-830292143c40);}.ae6ea3b5-abe0-4954-a403-8b4d662ea429{fill:#8cf5f7;}.a9ec6dee-7222-451f-b4fd-35b4ce9d4526{fill:#ffbcae;}.bb11cd6f-f304-46db-993d-3edc24c25238{fill:#f7804c;}.b84b1aa1-18ff-443f-b1d0-1164e54202a1{fill:#fb8d5f;}.b77a3d7b-e859-468e-96e7-617fdcdc3e5a{fill:#003964;}.f2387a78-78b2-445e-83bb-c1a947e09619{fill:url(#fae9ada4-fd00-4288-a8f9-0c6e332b195d);}.a57bd232-b06a-4d4c-8043-1715368c10bd{fill:#0032fd;}.fb2e9443-7664-486d-938a-f67c84922ea3{fill:url(#a7d813a7-5124-49b2-aebf-1a4a1535a503);}.af3adef6-46cb-4c2f-b123-1987cfe33aa8{fill:url(#ad3444d4-e54e-4cf7-b934-e3d91d996436);}.a73f29f3-ed8e-4390-9981-80b4f8511ee5{fill:url(#a37bf9ce-1028-40f3-8e50-b90c298144d5);}.f352bd54-b281-4996-aa36-22f50ab28e3a{fill:url(#ac587c87-e88a-436e-9899-17ee7fe92d7c);}.b280a1ad-0c03-4e66-ae45-c6bfcb60d829{fill:#110e0e;opacity:0.15;}.e1a69250-db47-4a47-837b-6206ec458da3{fill:url(#b9267910-062c-4cd0-9afa-bfbcde943eca);}.a578d788-86b6-4ed3-a6ee-942f524d8d8a{fill:url(#ea5e7078-04d9-45b1-bf62-41cee855991f);}.e243c451-7d92-499a-8ba0-4d7c21d69a6a{fill:url(#be09a3a7-1305-4851-bf54-1a476cba0fc8);}.fcba6299-a8d2-454d-a572-09f38e286551{fill:url(#b0dc736b-9734-4b00-b6b3-d4ee4698f352);}.e9689b24-47fd-4a78-9719-3e99f04d7e4d{fill:url(#b226bbbb-e0af-4dc9-9bbe-8da16abdbfb7);}.f6d9c13e-cd7f-41a8-b44d-ff3c7efe5913{fill:url(#a118e841-383c-4668-9f2f-8ac7c053a89d);}.ff94e36d-c4fb-41e6-949d-d33f53836baf{fill:url(#abb0f36a-13ce-4cd7-96da-5fb75baca387);}.aa2dcd03-1324-419a-840b-bdfb1dac49bc{fill:url(#b0ac157b-d2d0-4881-a364-6be36c1c72d6);}.f7fbb3ac-4a73-4b13-8121-7e5e8dc25cc6{fill:#7ae7f8;}.ace54ad6-2871-4913-a507-b63a6d6e7c16{fill:url(#a0fcaa44-fb63-4d35-a2f9-d317641e2f26);}.a8f7f760-abdd-400e-91e3-ab6444785afa{fill:url(#feac376a-4785-417e-8102-8dd95ac3ab97);}.e2bd48b8-4a94-41a9-bbff-d3600fe76df1{fill:url(#ff9a7df9-25d4-4761-9f35-033218287749);}.a872fe1a-20a3-490a-8f70-fced56079dc2{fill:url(#e6aa824a-b99e-451f-926d-54e966403b8f);}.b6bd5f65-adcb-4ae7-b16d-927182396d2c{fill:url(#bb82eff5-81c3-4a74-beeb-d5e4e0737174);}.b49c61b3-5934-47db-8ebc-49c3e0d43196{fill:url(#bdc2cf8a-e6ea-4025-bb26-7351cf9ea1ec);}.a37679d7-6a52-4937-9808-c26aa59ffba2{fill:url(#f82998e7-03f7-43d7-bf57-491028a626ba);}.a6cec4d1-91ff-494d-89c7-fb66c6f54bd6{fill:url(#e5a53e01-ea81-4b75-9a38-d156d9a0284e);}.b6c8ea70-48f8-490d-8e27-79c64c57ff95{fill:url(#a923d8b0-fe73-41b0-9d2d-7aa8878529c1);}.acb6c5ed-2057-425c-a5de-77969dbb1c95{fill:url(#b57294ba-2071-47bb-82a9-304cfb27619c);}.eacc81cc-9649-4d75-83c0-b520d7f0bb35{fill:url(#a1858391-7175-46d1-a5ee-b0954a75c52d);}.e40156bf-d268-4868-a3c9-94f9690c4639{fill:#2a323f;}</style><linearGradient id="e44ac40e-b1bb-404b-919a-fea699242926" x1="64.4" y1="239" x2="412.04" y2="239" gradientUnits="userSpaceOnUse"><stop offset="0" stop-color="#0032fd"/><stop offset="0.09" stop-color="#0c48fb"/><stop offset="0.23" stop-color="#1c64f8"/><stop offset="0.38" stop-color="#287af6"/><stop offset="0.54" stop-color="#3189f4"/><stop offset="0.73" stop-color="#3692f3"/><stop offset="1" stop-color="#3895f3"/></linearGradient><linearGradient id="ab43574c-3e71-4211-87a2-edd4e9208cd4" x1="0.1" y1="232.47" x2="176.52" y2="232.47" gradientUnits="userSpaceOnUse"><stop offset="0" stop-color="#0032fd"/><stop offset="0.17" stop-color="#0439fc"/><stop offset="0.41" stop-color="#0f4dfa"/><stop offset="0.7" stop-color="#216df7"/><stop offset="1" stop-color="#3895f3"/></linearGradient><linearGradient id="a6e54eb1-d74c-45be-b876-ec34cb86bd30" x1="4.1" y1="247.41" x2="188.67" y2="247.41" gradientUnits="userSpaceOnUse"><stop offset="0" stop-color="#3895f3"/><stop offset="0.17" stop-color="#3895f3"/><stop offset="0.21" stop-color="#4fa5d8"/><stop offset="0.27" stop-color="#69b8b9"/><stop offset="0.34" stop-color="#7fc79f"/><stop offset="0.41" stop-color="#8fd38c"/><stop offset="0.5" stop-color="#9bdc7e"/><stop offset="0.6" stop-color="#a2e175"/><stop offset="0.78" stop-color="#a4e273"/></linearGradient><linearGradient id="abaf42c8-a89e-4153-954f-4d149ed66992" x1="285.75" y1="242.31" x2="412.02" y2="242.31" xlink:href="#ab43574c-3e71-4211-87a2-edd4e9208cd4"/><linearGradient id="a086b91b-52fa-4780-be6c-700ea94ca744" x1="292.26" y1="252.35" x2="315.79" y2="252.35" xlink:href="#ab43574c-3e71-4211-87a2-edd4e9208cd4"/><linearGradient id="aff835af-ace8-4992-b835-d732fd5721e8" x1="309.1" y1="249.9" x2="313.95" y2="249.9" xlink:href="#ab43574c-3e71-4211-87a2-edd4e9208cd4"/><linearGradient id="a5d1c4c1-56d3-4b6e-9473-49193f650b97" x1="376.53" y1="244.74" x2="389.22" y2="244.74" xlink:href="#a6e54eb1-d74c-45be-b876-ec34cb86bd30"/><linearGradient id="bcb9cbc1-69ec-43fa-a3c0-5eb15f20732b" x1="362.1" y1="249.01" x2="382.65" y2="249.01" xlink:href="#a6e54eb1-d74c-45be-b876-ec34cb86bd30"/><linearGradient id="a8aa28fd-4850-4f02-9e5f-d0bead211346" x1="391.34" y1="244.54" x2="397.01" y2="244.54" xlink:href="#a6e54eb1-d74c-45be-b876-ec34cb86bd30"/><linearGradient id="efbf19d8-74e4-4a20-b24d-895eee34b086" x1="316.53" y1="259.33" x2="412.02" y2="259.33" xlink:href="#a6e54eb1-d74c-45be-b876-ec34cb86bd30"/><linearGradient id="e0eaf106-2704-4884-ba2d-96bfa33c7d87" x1="35.15" y1="235.93" x2="55.12" y2="235.93" xlink:href="#e44ac40e-b1bb-404b-919a-fea699242926"/><linearGradient id="adf5a398-6769-491e-aa3e-b404e096a38e" x1="41.01" y1="242.03" x2="58.54" y2="242.03" xlink:href="#e44ac40e-b1bb-404b-919a-fea699242926"/><linearGradient id="b6e3eb18-c84b-4c95-8a0e-fe80fedbf33d" x1="29.01" y1="230.28" x2="40.69" y2="230.28" xlink:href="#e44ac40e-b1bb-404b-919a-fea699242926"/><linearGradient id="e1011fec-fedb-4877-a708-8495d1559533" x1="194.21" y1="128.78" x2="207.55" y2="98.83" gradientUnits="userSpaceOnUse"><stop offset="0" stop-color="#0032c8"/><stop offset="0.13" stop-color="#003dbb"/><stop offset="0.38" stop-color="#00599a"/><stop offset="0.7" stop-color="#008565"/><stop offset="1" stop-color="#00b42d"/></linearGradient><linearGradient id="afa70915-fd3b-44c0-9f2f-830292143c40" x1="202.5" y1="188.93" x2="308.88" y2="188.93" xlink:href="#e1011fec-fedb-4877-a708-8495d1559533"/><linearGradient id="fae9ada4-fd00-4288-a8f9-0c6e332b195d" x1="112.23" y1="158.61" x2="186.61" y2="98.37" xlink:href="#e1011fec-fedb-4877-a708-8495d1559533"/><linearGradient id="a7d813a7-5124-49b2-aebf-1a4a1535a503" x1="113.68" y1="128.26" x2="163.03" y2="128.26" xlink:href="#e1011fec-fedb-4877-a708-8495d1559533"/><linearGradient id="ad3444d4-e54e-4cf7-b934-e3d91d996436" x1="372.09" y1="25.49" x2="374.4" y2="25.49" xlink:href="#ab43574c-3e71-4211-87a2-edd4e9208cd4"/><linearGradient id="a37bf9ce-1028-40f3-8e50-b90c298144d5" x1="372.23" y1="24.79" x2="373.53" y2="24.79" xlink:href="#ab43574c-3e71-4211-87a2-edd4e9208cd4"/><linearGradient id="ac587c87-e88a-436e-9899-17ee7fe92d7c" x1="371.42" y1="154.71" x2="375.88" y2="154.71" xlink:href="#ab43574c-3e71-4211-87a2-edd4e9208cd4"/><linearGradient id="b9267910-062c-4cd0-9afa-bfbcde943eca" x1="366.55" y1="247.78" x2="380.75" y2="247.78" xlink:href="#ab43574c-3e71-4211-87a2-edd4e9208cd4"/><linearGradient id="ea5e7078-04d9-45b1-bf62-41cee855991f" x1="365.09" y1="31.81" x2="381.41" y2="31.81" xlink:href="#ab43574c-3e71-4211-87a2-edd4e9208cd4"/><linearGradient id="be09a3a7-1305-4851-bf54-1a476cba0fc8" x1="365.09" y1="31.81" x2="377.18" y2="31.81" xlink:href="#ab43574c-3e71-4211-87a2-edd4e9208cd4"/><linearGradient id="b0dc736b-9734-4b00-b6b3-d4ee4698f352" x1="361.52" y1="48.11" x2="384.97" y2="48.11" xlink:href="#ab43574c-3e71-4211-87a2-edd4e9208cd4"/><linearGradient id="b226bbbb-e0af-4dc9-9bbe-8da16abdbfb7" x1="360.26" y1="35.39" x2="386.24" y2="35.39" xlink:href="#ab43574c-3e71-4211-87a2-edd4e9208cd4"/><linearGradient id="a118e841-383c-4668-9f2f-8ac7c053a89d" x1="360.26" y1="35.39" x2="376.59" y2="35.39" xlink:href="#ab43574c-3e71-4211-87a2-edd4e9208cd4"/><linearGradient id="abb0f36a-13ce-4cd7-96da-5fb75baca387" x1="365.63" y1="30.79" x2="370.16" y2="30.79" xlink:href="#ab43574c-3e71-4211-87a2-edd4e9208cd4"/><linearGradient id="b0ac157b-d2d0-4881-a364-6be36c1c72d6" x1="361.92" y1="32.92" x2="384.58" y2="32.92" xlink:href="#ab43574c-3e71-4211-87a2-edd4e9208cd4"/><linearGradient id="a0fcaa44-fb63-4d35-a2f9-d317641e2f26" x1="51.21" y1="105.99" x2="52.78" y2="105.99" xlink:href="#ab43574c-3e71-4211-87a2-edd4e9208cd4"/><linearGradient id="feac376a-4785-417e-8102-8dd95ac3ab97" x1="51.31" y1="105.51" x2="52.19" y2="105.51" xlink:href="#ab43574c-3e71-4211-87a2-edd4e9208cd4"/><linearGradient id="ff9a7df9-25d4-4761-9f35-033218287749" x1="50.75" y1="193.84" x2="53.79" y2="193.84" xlink:href="#ab43574c-3e71-4211-87a2-edd4e9208cd4"/><linearGradient id="e6aa824a-b99e-451f-926d-54e966403b8f" x1="47.44" y1="257.1" x2="57.1" y2="257.1" xlink:href="#ab43574c-3e71-4211-87a2-edd4e9208cd4"/><linearGradient id="bb82eff5-81c3-4a74-beeb-d5e4e0737174" x1="46.45" y1="110.28" x2="57.54" y2="110.28" xlink:href="#ab43574c-3e71-4211-87a2-edd4e9208cd4"/><linearGradient id="bdc2cf8a-e6ea-4025-bb26-7351cf9ea1ec" x1="46.45" y1="110.28" x2="54.67" y2="110.28" xlink:href="#ab43574c-3e71-4211-87a2-edd4e9208cd4"/><linearGradient id="f82998e7-03f7-43d7-bf57-491028a626ba" x1="44.03" y1="121.37" x2="59.97" y2="121.37" xlink:href="#ab43574c-3e71-4211-87a2-edd4e9208cd4"/><linearGradient id="e5a53e01-ea81-4b75-9a38-d156d9a0284e" x1="43.17" y1="112.72" x2="60.83" y2="112.72" xlink:href="#ab43574c-3e71-4211-87a2-edd4e9208cd4"/><linearGradient id="a923d8b0-fe73-41b0-9d2d-7aa8878529c1" x1="43.17" y1="112.72" x2="54.27" y2="112.72" xlink:href="#ab43574c-3e71-4211-87a2-edd4e9208cd4"/><linearGradient id="b57294ba-2071-47bb-82a9-304cfb27619c" x1="46.82" y1="109.59" x2="49.9" y2="109.59" xlink:href="#ab43574c-3e71-4211-87a2-edd4e9208cd4"/><linearGradient id="a1858391-7175-46d1-a5ee-b0954a75c52d" x1="44.29" y1="111.04" x2="59.7" y2="111.04" xlink:href="#ab43574c-3e71-4211-87a2-edd4e9208cd4"/></defs><g id="f71fc297-34ce-48aa-985c-05bbe95b8beb" data-name="Слой 2"><g class="bf125f6f-26d6-4870-b756-8e5fd188487f"><rect class="acff8c0b-ffdd-450c-8215-2f382c08e8c6" x="204.4" y="90.63" width="34.54" height="158.63"/><rect class="e824f74c-69c2-474f-ba19-dc73af6520d2" x="212.16" y="90.63" width="34.54" height="158.63"/><rect class="acff8c0b-ffdd-450c-8215-2f382c08e8c6" x="212.16" y="90.59" width="34.53" height="9.17" transform="translate(458.86 190.35) rotate(180)"/><rect class="acff8c0b-ffdd-450c-8215-2f382c08e8c6" x="212.16" y="110.47" width="34.53" height="9.17" transform="translate(458.86 230.11) rotate(180)"/><rect class="acff8c0b-ffdd-450c-8215-2f382c08e8c6" x="212.16" y="130.35" width="34.53" height="9.17" transform="translate(458.86 269.87) rotate(180)"/><rect class="acff8c0b-ffdd-450c-8215-2f382c08e8c6" x="212.16" y="150.23" width="34.53" height="9.17" transform="translate(458.86 309.63) rotate(180)"/><rect class="acff8c0b-ffdd-450c-8215-2f382c08e8c6" x="212.16" y="170.11" width="34.53" height="9.17" transform="translate(458.86 349.39) rotate(180)"/><rect class="acff8c0b-ffdd-450c-8215-2f382c08e8c6" x="212.16" y="189.99" width="34.53" height="9.17" transform="translate(458.86 389.16) rotate(180)"/><rect class="acff8c0b-ffdd-450c-8215-2f382c08e8c6" x="212.16" y="209.88" width="34.53" height="9.17" transform="translate(458.86 428.92) rotate(180)"/><rect class="acff8c0b-ffdd-450c-8215-2f382c08e8c6" x="212.16" y="229.76" width="34.53" height="9.17" transform="translate(458.86 468.68) rotate(180)"/><rect class="acff8c0b-ffdd-450c-8215-2f382c08e8c6" x="259.62" y="113.08" width="34.54" height="136.18"/><rect class="e824f74c-69c2-474f-ba19-dc73af6520d2" x="267.38" y="113.08" width="34.54" height="136.18"/><rect class="acff8c0b-ffdd-450c-8215-2f382c08e8c6" x="267.39" y="113.04" width="34.53" height="7.87" transform="translate(569.31 233.95) rotate(180)"/><rect class="acff8c0b-ffdd-450c-8215-2f382c08e8c6" x="267.39" y="130.11" width="34.53" height="7.87" transform="translate(569.31 268.09) rotate(180)"/><rect class="acff8c0b-ffdd-450c-8215-2f382c08e8c6" x="267.39" y="147.18" width="34.53" height="7.87" transform="translate(569.31 302.22) rotate(180)"/><rect class="acff8c0b-ffdd-450c-8215-2f382c08e8c6" x="267.39" y="164.25" width="34.53" height="7.87" transform="translate(569.31 336.36) rotate(180)"/><rect class="acff8c0b-ffdd-450c-8215-2f382c08e8c6" x="267.39" y="181.31" width="34.53" height="7.87" transform="translate(569.31 370.5) rotate(180)"/><rect class="acff8c0b-ffdd-450c-8215-2f382c08e8c6" x="267.39" y="198.38" width="34.53" height="7.87" transform="translate(569.31 404.63) rotate(180)"/><rect class="acff8c0b-ffdd-450c-8215-2f382c08e8c6" x="267.39" y="215.45" width="34.53" height="7.87" transform="translate(569.31 438.77) rotate(180)"/><rect class="acff8c0b-ffdd-450c-8215-2f382c08e8c6" x="267.39" y="232.52" width="34.53" height="7.87" transform="translate(569.31 472.9) rotate(180)"/><rect class="fd67049e-2be0-48d9-b019-33feb480633d" x="185.7" y="244.4" width="14.47" height="19.92" transform="translate(385.87 508.71) rotate(180)"/><path class="fbf68765-4998-4aaa-8a0e-c7a833a0f95f" d="M190.12,217.22v55.31H35.85l-13.76-.13-2.55,0-.12-.2H22l0,0A192,192,0,0,1,7.35,235.2c-.21-.73-.42-1.46-.62-2.2-1.3-4.75-2.51-9.82-3.53-15.15-.31-1.62-.6-3.27-.88-4.94-.19-1.2-.38-2.41-.56-3.64-.23-1.62-.45-3.27-.64-4.93q-.21-1.87-.39-3.78c-.15-1.63-.29-3.27-.39-4.93s-.18-3.12-.24-4.7a157.45,157.45,0,0,1,.29-16.77c.12-1.64.27-3.28.44-4.93.37-3.43.86-6.88,1.49-10.36q1.11-6.08,2.83-12.22c2.29-2.37,7.34,6.27,7.34,6.27H32.31V118.45H54.19v22.38h5V114.11H81.05V164.2h27.67v29.21h10.34v7.36H142.8V188.09h13.64V153.66h16.84v63.56Z"/><rect class="f60bcc43-139f-455a-93e2-c58d13734979" x="59.18" y="117.49" width="21.89" height="5.1" transform="translate(140.25 240.09) rotate(180)"/><rect class="f60bcc43-139f-455a-93e2-c58d13734979" x="59.18" y="127.08" width="21.89" height="5.1" transform="translate(140.25 259.27) rotate(180)"/><rect class="f60bcc43-139f-455a-93e2-c58d13734979" x="59.18" y="135.71" width="21.89" height="5.1" transform="translate(140.25 276.52) rotate(180)"/><rect class="f60bcc43-139f-455a-93e2-c58d13734979" x="32.32" y="135.71" width="21.89" height="5.1" transform="translate(86.53 276.52) rotate(180)"/><rect class="f60bcc43-139f-455a-93e2-c58d13734979" x="32.32" y="127.08" width="21.89" height="5.1" transform="translate(86.53 259.27) rotate(180)"/><rect class="f60bcc43-139f-455a-93e2-c58d13734979" x="32.32" y="118.47" width="21.89" height="5.1" transform="translate(86.53 242.04) rotate(180)"/><rect class="f60bcc43-139f-455a-93e2-c58d13734979" x="32.31" y="144.07" width="48.75" height="5.1" transform="translate(113.38 293.24) rotate(180)"/><rect class="f60bcc43-139f-455a-93e2-c58d13734979" x="32.31" y="152.43" width="48.75" height="5.1" transform="translate(113.38 309.97) rotate(180)"/><rect class="f60bcc43-139f-455a-93e2-c58d13734979" x="156.28" y="153.67" width="16.99" height="7.88" transform="translate(329.55 315.22) rotate(180)"/><rect class="f60bcc43-139f-455a-93e2-c58d13734979" x="156.28" y="165.39" width="16.99" height="7.88" transform="translate(329.55 338.65) rotate(180)"/><rect class="f60bcc43-139f-455a-93e2-c58d13734979" x="156.28" y="177.1" width="16.99" height="7.88" transform="translate(329.55 362.08) rotate(180)"/><rect class="f60bcc43-139f-455a-93e2-c58d13734979" x="156.28" y="189.38" width="16.99" height="7.88" transform="translate(329.55 386.64) rotate(180)"/><rect class="f60bcc43-139f-455a-93e2-c58d13734979" x="156.28" y="201.28" width="16.99" height="7.88" transform="translate(329.55 410.44) rotate(180)"/><rect class="f60bcc43-139f-455a-93e2-c58d13734979" x="156.28" y="213.18" width="16.99" height="7.88" transform="translate(329.55 434.24) rotate(180)"/><rect class="f60bcc43-139f-455a-93e2-c58d13734979" x="156.28" y="225.63" width="16.99" height="7.88" transform="translate(329.55 459.14) rotate(180)"/><rect class="f60bcc43-139f-455a-93e2-c58d13734979" x="32.31" y="160.61" width="48.75" height="3.24" transform="translate(113.38 324.45) rotate(180)"/><rect class="f60bcc43-139f-455a-93e2-c58d13734979" x="150.25" y="153.67" width="6.26" height="34.43"/><rect class="f60bcc43-139f-455a-93e2-c58d13734979" x="130.2" y="188.1" width="12.6" height="12.67"/><path class="f60bcc43-139f-455a-93e2-c58d13734979" d="M32.32,118.47v34.45H28v-34l.59-.41Z"/><rect class="f60bcc43-139f-455a-93e2-c58d13734979" x="56.51" y="114.11" width="2.67" height="26.7"/><g class="f48144e0-7b84-4d14-a999-697708e71fb3"><rect class="f60bcc43-139f-455a-93e2-c58d13734979" x="100.49" y="169.23" width="3.71" height="4.94" transform="translate(204.69 343.39) rotate(180)"/><rect class="f60bcc43-139f-455a-93e2-c58d13734979" x="93.56" y="169.23" width="3.71" height="4.94" transform="translate(190.82 343.39) rotate(180)"/><rect class="f60bcc43-139f-455a-93e2-c58d13734979" x="86.78" y="169.23" width="3.71" height="4.94" transform="translate(177.26 343.39) rotate(180)"/><rect class="f60bcc43-139f-455a-93e2-c58d13734979" x="80.35" y="169.23" width="3.71" height="4.94" transform="translate(164.41 343.39) rotate(180)"/><rect class="f60bcc43-139f-455a-93e2-c58d13734979" x="73.8" y="169.23" width="3.71" height="4.94" transform="translate(151.3 343.39) rotate(180)"/><rect class="f60bcc43-139f-455a-93e2-c58d13734979" x="67.17" y="169.23" width="3.71" height="4.94" transform="translate(138.05 343.39) rotate(180)"/><rect class="f60bcc43-139f-455a-93e2-c58d13734979" x="60.24" y="169.23" width="3.71" height="4.94" transform="translate(124.18 343.39) rotate(180)"/><rect class="f60bcc43-139f-455a-93e2-c58d13734979" x="53.46" y="169.23" width="3.71" height="4.94" transform="translate(110.62 343.39) rotate(180)"/><rect class="f60bcc43-139f-455a-93e2-c58d13734979" x="47.03" y="169.23" width="3.71" height="4.94" transform="translate(97.76 343.39) rotate(180)"/><rect class="f60bcc43-139f-455a-93e2-c58d13734979" x="40.48" y="169.23" width="3.71" height="4.94" transform="translate(84.66 343.39) rotate(180)"/><rect class="f60bcc43-139f-455a-93e2-c58d13734979" x="33.65" y="169.23" width="3.71" height="4.94" transform="translate(71.01 343.39) rotate(180)"/><rect class="f60bcc43-139f-455a-93e2-c58d13734979" x="26.71" y="169.23" width="3.71" height="4.94" transform="translate(57.14 343.39) rotate(180)"/><rect class="f60bcc43-139f-455a-93e2-c58d13734979" x="19.93" y="169.23" width="3.71" height="4.94" transform="translate(43.58 343.39) rotate(180)"/><rect class="f60bcc43-139f-455a-93e2-c58d13734979" x="13.51" y="169.23" width="3.71" height="4.94" transform="translate(30.72 343.39) rotate(180)"/><rect class="f60bcc43-139f-455a-93e2-c58d13734979" x="6.95" y="169.23" width="3.71" height="4.94" transform="translate(17.62 343.39) rotate(180)"/><path class="f60bcc43-139f-455a-93e2-c58d13734979" d="M4,169.23v4.93H.39c.12-1.64.27-3.28.44-4.93Z"/><rect class="f60bcc43-139f-455a-93e2-c58d13734979" x="100.49" y="177.94" width="3.71" height="4.94" transform="translate(204.69 360.81) rotate(180)"/><rect class="f60bcc43-139f-455a-93e2-c58d13734979" x="93.56" y="177.94" width="3.71" height="4.94" transform="translate(190.82 360.81) rotate(180)"/><rect class="f60bcc43-139f-455a-93e2-c58d13734979" x="86.78" y="177.94" width="3.71" height="4.94" transform="translate(177.26 360.81) rotate(180)"/><rect class="f60bcc43-139f-455a-93e2-c58d13734979" x="80.35" y="177.94" width="3.71" height="4.94" transform="translate(164.41 360.81) rotate(180)"/><rect class="f60bcc43-139f-455a-93e2-c58d13734979" x="73.8" y="177.94" width="3.71" height="4.94" transform="translate(151.3 360.81) rotate(180)"/><rect class="f60bcc43-139f-455a-93e2-c58d13734979" x="67.17" y="177.94" width="3.71" height="4.94" transform="translate(138.05 360.81) rotate(180)"/><rect class="f60bcc43-139f-455a-93e2-c58d13734979" x="60.24" y="177.94" width="3.71" height="4.94" transform="translate(124.18 360.81) rotate(180)"/><rect class="f60bcc43-139f-455a-93e2-c58d13734979" x="53.46" y="177.94" width="3.71" height="4.94" transform="translate(110.62 360.81) rotate(180)"/><rect class="f60bcc43-139f-455a-93e2-c58d13734979" x="47.03" y="177.94" width="3.71" height="4.94" transform="translate(97.76 360.81) rotate(180)"/><rect class="f60bcc43-139f-455a-93e2-c58d13734979" x="40.48" y="177.94" width="3.71" height="4.94" transform="translate(84.66 360.81) rotate(180)"/><rect class="f60bcc43-139f-455a-93e2-c58d13734979" x="33.65" y="177.94" width="3.71" height="4.94" transform="translate(71.01 360.81) rotate(180)"/><rect class="f60bcc43-139f-455a-93e2-c58d13734979" x="26.71" y="177.94" width="3.71" height="4.94" transform="translate(57.14 360.81) rotate(180)"/><rect class="f60bcc43-139f-455a-93e2-c58d13734979" x="19.93" y="177.94" width="3.71" height="4.94" transform="translate(43.58 360.81) rotate(180)"/><rect class="f60bcc43-139f-455a-93e2-c58d13734979" x="13.51" y="177.94" width="3.71" height="4.94" transform="translate(30.72 360.81) rotate(180)"/><rect class="f60bcc43-139f-455a-93e2-c58d13734979" x="6.95" y="177.94" width="3.71" height="4.94" transform="translate(17.62 360.81) rotate(180)"/><rect class="f60bcc43-139f-455a-93e2-c58d13734979" x="0.33" y="177.94" width="3.71" height="4.94" transform="translate(4.36 360.81) rotate(180)"/><rect class="f60bcc43-139f-455a-93e2-c58d13734979" x="100.49" y="186.51" width="3.71" height="4.94" transform="translate(204.69 377.96) rotate(180)"/><rect class="f60bcc43-139f-455a-93e2-c58d13734979" x="93.56" y="186.51" width="3.71" height="4.94" transform="translate(190.82 377.96) rotate(180)"/><rect class="f60bcc43-139f-455a-93e2-c58d13734979" x="86.78" y="186.51" width="3.71" height="4.94" transform="translate(177.26 377.96) rotate(180)"/><rect class="f60bcc43-139f-455a-93e2-c58d13734979" x="80.35" y="186.51" width="3.71" height="4.94" transform="translate(164.41 377.96) rotate(180)"/><rect class="f60bcc43-139f-455a-93e2-c58d13734979" x="73.8" y="186.51" width="3.71" height="4.94" transform="translate(151.3 377.96) rotate(180)"/><rect class="f60bcc43-139f-455a-93e2-c58d13734979" x="67.17" y="186.51" width="3.71" height="4.94" transform="translate(138.05 377.96) rotate(180)"/><rect class="f60bcc43-139f-455a-93e2-c58d13734979" x="60.24" y="186.51" width="3.71" height="4.94" transform="translate(124.18 377.96) rotate(180)"/><rect class="f60bcc43-139f-455a-93e2-c58d13734979" x="53.46" y="186.51" width="3.71" height="4.94" transform="translate(110.62 377.96) rotate(180)"/><rect class="f60bcc43-139f-455a-93e2-c58d13734979" x="47.03" y="186.51" width="3.71" height="4.94" transform="translate(97.76 377.96) rotate(180)"/><rect class="f60bcc43-139f-455a-93e2-c58d13734979" x="40.48" y="186.51" width="3.71" height="4.94" transform="translate(84.66 377.96) rotate(180)"/><rect class="f60bcc43-139f-455a-93e2-c58d13734979" x="33.65" y="186.51" width="3.71" height="4.94" transform="translate(71.01 377.96) rotate(180)"/><rect class="f60bcc43-139f-455a-93e2-c58d13734979" x="26.71" y="186.51" width="3.71" height="4.94" transform="translate(57.14 377.96) rotate(180)"/><rect class="f60bcc43-139f-455a-93e2-c58d13734979" x="19.93" y="186.51" width="3.71" height="4.94" transform="translate(43.58 377.96) rotate(180)"/><rect class="f60bcc43-139f-455a-93e2-c58d13734979" x="13.51" y="186.51" width="3.71" height="4.94" transform="translate(30.72 377.96) rotate(180)"/><rect class="f60bcc43-139f-455a-93e2-c58d13734979" x="6.95" y="186.51" width="3.71" height="4.94" transform="translate(17.62 377.96) rotate(180)"/><rect class="f60bcc43-139f-455a-93e2-c58d13734979" x="0.33" y="186.51" width="3.71" height="4.94" transform="translate(4.36 377.96) rotate(180)"/><rect class="f60bcc43-139f-455a-93e2-c58d13734979" x="100.49" y="195.63" width="3.71" height="4.94" transform="translate(204.69 396.19) rotate(180)"/><rect class="f60bcc43-139f-455a-93e2-c58d13734979" x="93.56" y="195.63" width="3.71" height="4.94" transform="translate(190.82 396.19) rotate(180)"/><rect class="f60bcc43-139f-455a-93e2-c58d13734979" x="86.78" y="195.63" width="3.71" height="4.94" transform="translate(177.26 396.19) rotate(180)"/><rect class="f60bcc43-139f-455a-93e2-c58d13734979" x="80.35" y="195.63" width="3.71" height="4.94" transform="translate(164.41 396.19) rotate(180)"/><rect class="f60bcc43-139f-455a-93e2-c58d13734979" x="73.8" y="195.63" width="3.71" height="4.94" transform="translate(151.3 396.19) rotate(180)"/><rect class="f60bcc43-139f-455a-93e2-c58d13734979" x="67.17" y="195.63" width="3.71" height="4.94" transform="translate(138.05 396.19) rotate(180)"/><rect class="f60bcc43-139f-455a-93e2-c58d13734979" x="60.24" y="195.63" width="3.71" height="4.94" transform="translate(124.18 396.19) rotate(180)"/><rect class="f60bcc43-139f-455a-93e2-c58d13734979" x="53.46" y="195.63" width="3.71" height="4.94" transform="translate(110.62 396.19) rotate(180)"/><rect class="f60bcc43-139f-455a-93e2-c58d13734979" x="47.03" y="195.63" width="3.71" height="4.94" transform="translate(97.76 396.19) rotate(180)"/><rect class="f60bcc43-139f-455a-93e2-c58d13734979" x="40.48" y="195.63" width="3.71" height="4.94" transform="translate(84.66 396.19) rotate(180)"/><rect class="f60bcc43-139f-455a-93e2-c58d13734979" x="33.65" y="195.63" width="3.71" height="4.94" transform="translate(71.01 396.19) rotate(180)"/><rect class="f60bcc43-139f-455a-93e2-c58d13734979" x="26.71" y="195.63" width="3.71" height="4.94" transform="translate(57.14 396.19) rotate(180)"/><rect class="f60bcc43-139f-455a-93e2-c58d13734979" x="19.93" y="195.63" width="3.71" height="4.94" transform="translate(43.58 396.19) rotate(180)"/><rect class="f60bcc43-139f-455a-93e2-c58d13734979" x="13.51" y="195.63" width="3.71" height="4.94" transform="translate(30.72 396.19) rotate(180)"/><rect class="f60bcc43-139f-455a-93e2-c58d13734979" x="6.95" y="195.63" width="3.71" height="4.94" transform="translate(17.62 396.19) rotate(180)"/><path class="f60bcc43-139f-455a-93e2-c58d13734979" d="M4,195.63v4.93H.73c-.15-1.63-.29-3.27-.39-4.93Z"/><rect class="f60bcc43-139f-455a-93e2-c58d13734979" x="100.49" y="204.34" width="3.71" height="4.94" transform="translate(204.69 413.61) rotate(180)"/><rect class="f60bcc43-139f-455a-93e2-c58d13734979" x="93.56" y="204.34" width="3.71" height="4.94" transform="translate(190.82 413.61) rotate(180)"/><rect class="f60bcc43-139f-455a-93e2-c58d13734979" x="86.78" y="204.34" width="3.71" height="4.94" transform="translate(177.26 413.61) rotate(180)"/><rect class="f60bcc43-139f-455a-93e2-c58d13734979" x="80.35" y="204.34" width="3.71" height="4.94" transform="translate(164.41 413.61) rotate(180)"/><rect class="f60bcc43-139f-455a-93e2-c58d13734979" x="73.8" y="204.34" width="3.71" height="4.94" transform="translate(151.3 413.61) rotate(180)"/><rect class="f60bcc43-139f-455a-93e2-c58d13734979" x="67.17" y="204.34" width="3.71" height="4.94" transform="translate(138.05 413.61) rotate(180)"/><rect class="f60bcc43-139f-455a-93e2-c58d13734979" x="60.24" y="204.34" width="3.71" height="4.94" transform="translate(124.18 413.61) rotate(180)"/><rect class="f60bcc43-139f-455a-93e2-c58d13734979" x="53.46" y="204.34" width="3.71" height="4.94" transform="translate(110.62 413.61) rotate(180)"/><rect class="f60bcc43-139f-455a-93e2-c58d13734979" x="47.03" y="204.34" width="3.71" height="4.94" transform="translate(97.76 413.61) rotate(180)"/><rect class="f60bcc43-139f-455a-93e2-c58d13734979" x="40.48" y="204.34" width="3.71" height="4.94" transform="translate(84.66 413.61) rotate(180)"/><rect class="f60bcc43-139f-455a-93e2-c58d13734979" x="33.65" y="204.34" width="3.71" height="4.94" transform="translate(71.01 413.61) rotate(180)"/><rect class="f60bcc43-139f-455a-93e2-c58d13734979" x="26.71" y="204.34" width="3.71" height="4.94" transform="translate(57.14 413.61) rotate(180)"/><rect class="f60bcc43-139f-455a-93e2-c58d13734979" x="19.93" y="204.34" width="3.71" height="4.94" transform="translate(43.58 413.61) rotate(180)"/><rect class="f60bcc43-139f-455a-93e2-c58d13734979" x="13.51" y="204.34" width="3.71" height="4.94" transform="translate(30.72 413.61) rotate(180)"/><rect class="f60bcc43-139f-455a-93e2-c58d13734979" x="6.95" y="204.34" width="3.71" height="4.94" transform="translate(17.62 413.61) rotate(180)"/><path class="f60bcc43-139f-455a-93e2-c58d13734979" d="M4,204.34v4.93H1.76c-.23-1.62-.45-3.27-.64-4.93Z"/><rect class="f60bcc43-139f-455a-93e2-c58d13734979" x="100.49" y="212.91" width="3.71" height="4.94" transform="translate(204.69 430.76) rotate(180)"/><rect class="f60bcc43-139f-455a-93e2-c58d13734979" x="93.56" y="212.91" width="3.71" height="4.94" transform="translate(190.82 430.76) rotate(180)"/><rect class="f60bcc43-139f-455a-93e2-c58d13734979" x="86.78" y="212.91" width="3.71" height="4.94" transform="translate(177.26 430.76) rotate(180)"/><rect class="f60bcc43-139f-455a-93e2-c58d13734979" x="80.35" y="212.91" width="3.71" height="4.94" transform="translate(164.41 430.76) rotate(180)"/><rect class="f60bcc43-139f-455a-93e2-c58d13734979" x="73.8" y="212.91" width="3.71" height="4.94" transform="translate(151.3 430.76) rotate(180)"/><rect class="f60bcc43-139f-455a-93e2-c58d13734979" x="67.17" y="212.91" width="3.71" height="4.94" transform="translate(138.05 430.76) rotate(180)"/><rect class="f60bcc43-139f-455a-93e2-c58d13734979" x="60.24" y="212.91" width="3.71" height="4.94" transform="translate(124.18 430.76) rotate(180)"/><rect class="f60bcc43-139f-455a-93e2-c58d13734979" x="53.46" y="212.91" width="3.71" height="4.94" transform="translate(110.62 430.76) rotate(180)"/><rect class="f60bcc43-139f-455a-93e2-c58d13734979" x="47.03" y="212.91" width="3.71" height="4.94" transform="translate(97.76 430.76) rotate(180)"/><rect class="f60bcc43-139f-455a-93e2-c58d13734979" x="40.48" y="212.91" width="3.71" height="4.94" transform="translate(84.66 430.76) rotate(180)"/><rect class="f60bcc43-139f-455a-93e2-c58d13734979" x="33.65" y="212.91" width="3.71" height="4.94" transform="translate(71.01 430.76) rotate(180)"/><rect class="f60bcc43-139f-455a-93e2-c58d13734979" x="26.71" y="212.91" width="3.71" height="4.94" transform="translate(57.14 430.76) rotate(180)"/><rect class="f60bcc43-139f-455a-93e2-c58d13734979" x="19.93" y="212.91" width="3.71" height="4.94" transform="translate(43.58 430.76) rotate(180)"/><rect class="f60bcc43-139f-455a-93e2-c58d13734979" x="13.51" y="212.91" width="3.71" height="4.94" transform="translate(30.72 430.76) rotate(180)"/><rect class="f60bcc43-139f-455a-93e2-c58d13734979" x="6.95" y="212.91" width="3.71" height="4.94" transform="translate(17.62 430.76) rotate(180)"/><path class="f60bcc43-139f-455a-93e2-c58d13734979" d="M4,212.91v4.94H3.2c-.31-1.62-.6-3.27-.88-4.94Z"/></g><rect class="acff8c0b-ffdd-450c-8215-2f382c08e8c6" x="44.25" y="228.38" width="85.96" height="43.79" transform="translate(174.45 500.55) rotate(180)"/><rect class="acff8c0b-ffdd-450c-8215-2f382c08e8c6" x="109.43" y="250.27" width="85.96" height="21.9" transform="translate(304.81 522.44) rotate(180)"/><path class="acff8c0b-ffdd-450c-8215-2f382c08e8c6" d="M37.36,235.2v37H22l0,0A192,192,0,0,1,7.35,235.2Z"/><rect class="e824f74c-69c2-474f-ba19-dc73af6520d2" x="108.45" y="233.51" width="16.01" height="8.11" transform="translate(232.91 475.12) rotate(180)"/><rect class="e824f74c-69c2-474f-ba19-dc73af6520d2" x="87.89" y="233.51" width="16.01" height="8.11" transform="translate(191.79 475.12) rotate(180)"/><rect class="e824f74c-69c2-474f-ba19-dc73af6520d2" x="67.72" y="233.51" width="16.01" height="8.11" transform="translate(151.46 475.12) rotate(180)"/><rect class="e824f74c-69c2-474f-ba19-dc73af6520d2" x="47.95" y="233.51" width="16.01" height="8.11" transform="translate(111.91 475.12) rotate(180)"/><rect class="b2a12c0c-47d8-496e-a329-c8b8f3d60b59" x="36.89" y="228.38" width="8.25" height="44.17" transform="translate(82.03 500.93) rotate(180)"/><rect class="fd67049e-2be0-48d9-b019-33feb480633d" x="169.44" y="150.24" width="0.45" height="3.43" transform="translate(339.33 303.91) rotate(180)"/><rect class="fd67049e-2be0-48d9-b019-33feb480633d" x="153.39" y="150.24" width="0.45" height="3.43" transform="translate(307.23 303.91) rotate(180)"/><rect class="e824f74c-69c2-474f-ba19-dc73af6520d2" x="179.11" y="234.33" width="59.02" height="37.48" transform="translate(417.24 506.15) rotate(180)"/><rect class="acff8c0b-ffdd-450c-8215-2f382c08e8c6" x="179.11" y="229.44" width="59.02" height="12.18" transform="translate(417.24 471.05) rotate(180)"/><rect class="acff8c0b-ffdd-450c-8215-2f382c08e8c6" x="231.08" y="245.23" width="3.03" height="4.03" transform="translate(465.19 494.49) rotate(180)"/><rect class="acff8c0b-ffdd-450c-8215-2f382c08e8c6" x="225.41" y="245.23" width="3.03" height="4.03" transform="translate(453.85 494.49) rotate(180)"/><rect class="acff8c0b-ffdd-450c-8215-2f382c08e8c6" x="219.87" y="245.23" width="3.03" height="4.03" transform="translate(442.77 494.49) rotate(180)"/><rect class="acff8c0b-ffdd-450c-8215-2f382c08e8c6" x="214.62" y="245.23" width="3.03" height="4.03" transform="translate(432.26 494.49) rotate(180)"/><rect class="acff8c0b-ffdd-450c-8215-2f382c08e8c6" x="209.26" y="245.23" width="3.03" height="4.03" transform="translate(421.55 494.49) rotate(180)"/><rect class="acff8c0b-ffdd-450c-8215-2f382c08e8c6" x="203.85" y="245.23" width="3.03" height="4.03" transform="translate(410.72 494.49) rotate(180)"/><rect class="acff8c0b-ffdd-450c-8215-2f382c08e8c6" x="198.18" y="245.23" width="3.03" height="4.03" transform="translate(399.39 494.49) rotate(180)"/><rect class="acff8c0b-ffdd-450c-8215-2f382c08e8c6" x="192.64" y="245.23" width="3.03" height="4.03" transform="translate(388.3 494.49) rotate(180)"/><rect class="acff8c0b-ffdd-450c-8215-2f382c08e8c6" x="187.38" y="245.23" width="3.03" height="4.03" transform="translate(377.8 494.49) rotate(180)"/><rect class="acff8c0b-ffdd-450c-8215-2f382c08e8c6" x="182.03" y="245.23" width="3.03" height="4.03" transform="translate(367.09 494.49) rotate(180)"/><rect class="acff8c0b-ffdd-450c-8215-2f382c08e8c6" x="231.08" y="252.35" width="3.03" height="4.03" transform="translate(465.19 508.73) rotate(180)"/><rect class="acff8c0b-ffdd-450c-8215-2f382c08e8c6" x="225.41" y="252.35" width="3.03" height="4.03" transform="translate(453.85 508.73) rotate(180)"/><rect class="acff8c0b-ffdd-450c-8215-2f382c08e8c6" x="219.87" y="252.35" width="3.03" height="4.03" transform="translate(442.77 508.73) rotate(180)"/><rect class="acff8c0b-ffdd-450c-8215-2f382c08e8c6" x="214.62" y="252.35" width="3.03" height="4.03" transform="translate(432.26 508.73) rotate(180)"/><rect class="acff8c0b-ffdd-450c-8215-2f382c08e8c6" x="209.26" y="252.35" width="3.03" height="4.03" transform="translate(421.55 508.73) rotate(180)"/><rect class="acff8c0b-ffdd-450c-8215-2f382c08e8c6" x="203.85" y="252.35" width="3.03" height="4.03" transform="translate(410.72 508.73) rotate(180)"/><rect class="acff8c0b-ffdd-450c-8215-2f382c08e8c6" x="198.18" y="252.35" width="3.03" height="4.03" transform="translate(399.39 508.73) rotate(180)"/><rect class="acff8c0b-ffdd-450c-8215-2f382c08e8c6" x="192.64" y="252.35" width="3.03" height="4.03" transform="translate(388.3 508.73) rotate(180)"/><rect class="acff8c0b-ffdd-450c-8215-2f382c08e8c6" x="187.38" y="252.35" width="3.03" height="4.03" transform="translate(377.8 508.73) rotate(180)"/><rect class="acff8c0b-ffdd-450c-8215-2f382c08e8c6" x="182.03" y="252.35" width="3.03" height="4.03" transform="translate(367.09 508.73) rotate(180)"/><rect class="acff8c0b-ffdd-450c-8215-2f382c08e8c6" x="231.08" y="259.36" width="3.03" height="4.03" transform="translate(465.19 522.75) rotate(180)"/><rect class="acff8c0b-ffdd-450c-8215-2f382c08e8c6" x="225.41" y="259.36" width="3.03" height="4.03" transform="translate(453.85 522.75) rotate(180)"/><rect class="acff8c0b-ffdd-450c-8215-2f382c08e8c6" x="219.87" y="259.36" width="3.03" height="4.03" transform="translate(442.77 522.75) rotate(180)"/><rect class="acff8c0b-ffdd-450c-8215-2f382c08e8c6" x="214.62" y="259.36" width="3.03" height="4.03" transform="translate(432.26 522.75) rotate(180)"/><rect class="acff8c0b-ffdd-450c-8215-2f382c08e8c6" x="209.26" y="259.36" width="3.03" height="4.03" transform="translate(421.55 522.75) rotate(180)"/><rect class="acff8c0b-ffdd-450c-8215-2f382c08e8c6" x="203.85" y="259.36" width="3.03" height="4.03" transform="translate(410.72 522.75) rotate(180)"/><rect class="acff8c0b-ffdd-450c-8215-2f382c08e8c6" x="198.18" y="259.36" width="3.03" height="4.03" transform="translate(399.39 522.75) rotate(180)"/><rect class="acff8c0b-ffdd-450c-8215-2f382c08e8c6" x="192.64" y="259.36" width="3.03" height="4.03" transform="translate(388.3 522.75) rotate(180)"/><rect class="acff8c0b-ffdd-450c-8215-2f382c08e8c6" x="187.38" y="259.36" width="3.03" height="4.03" transform="translate(377.8 522.75) rotate(180)"/><rect class="acff8c0b-ffdd-450c-8215-2f382c08e8c6" x="182.03" y="259.36" width="3.03" height="4.03" transform="translate(367.09 522.75) rotate(180)"/><rect class="b2a12c0c-47d8-496e-a329-c8b8f3d60b59" x="231.08" y="232.86" width="2.55" height="4.16" transform="translate(464.71 469.88) rotate(180)"/><rect class="b2a12c0c-47d8-496e-a329-c8b8f3d60b59" x="205.79" y="232.86" width="2.55" height="4.16" transform="translate(414.13 469.88) rotate(180)"/><rect class="b2a12c0c-47d8-496e-a329-c8b8f3d60b59" x="185.68" y="232.86" width="2.55" height="4.16" transform="translate(373.9 469.88) rotate(180)"/><rect class="e824f74c-69c2-474f-ba19-dc73af6520d2" x="241.84" y="234.33" width="59.02" height="37.48" transform="translate(542.69 506.15) rotate(180)"/><rect class="acff8c0b-ffdd-450c-8215-2f382c08e8c6" x="241.84" y="229.44" width="59.02" height="12.18" transform="translate(542.69 471.05) rotate(180)"/><rect class="acff8c0b-ffdd-450c-8215-2f382c08e8c6" x="293.81" y="245.23" width="3.03" height="4.03" transform="translate(590.64 494.49) rotate(180)"/><rect class="acff8c0b-ffdd-450c-8215-2f382c08e8c6" x="288.14" y="245.23" width="3.03" height="4.03" transform="translate(579.31 494.49) rotate(180)"/><rect class="acff8c0b-ffdd-450c-8215-2f382c08e8c6" x="282.6" y="245.23" width="3.03" height="4.03" transform="translate(568.22 494.49) rotate(180)"/><rect class="acff8c0b-ffdd-450c-8215-2f382c08e8c6" x="277.34" y="245.23" width="3.03" height="4.03" transform="translate(557.71 494.49) rotate(180)"/><rect class="acff8c0b-ffdd-450c-8215-2f382c08e8c6" x="271.99" y="245.23" width="3.03" height="4.03" transform="translate(547 494.49) rotate(180)"/><rect class="acff8c0b-ffdd-450c-8215-2f382c08e8c6" x="266.57" y="245.23" width="3.03" height="4.03" transform="translate(536.17 494.49) rotate(180)"/><rect class="acff8c0b-ffdd-450c-8215-2f382c08e8c6" x="260.9" y="245.23" width="3.03" height="4.03" transform="translate(524.84 494.49) rotate(180)"/><rect class="acff8c0b-ffdd-450c-8215-2f382c08e8c6" x="255.36" y="245.23" width="3.03" height="4.03" transform="translate(513.75 494.49) rotate(180)"/><rect class="acff8c0b-ffdd-450c-8215-2f382c08e8c6" x="250.11" y="245.23" width="3.03" height="4.03" transform="translate(503.25 494.49) rotate(180)"/><rect class="acff8c0b-ffdd-450c-8215-2f382c08e8c6" x="244.75" y="245.23" width="3.03" height="4.03" transform="translate(492.54 494.49) rotate(180)"/><rect class="acff8c0b-ffdd-450c-8215-2f382c08e8c6" x="293.81" y="252.35" width="3.03" height="4.03" transform="translate(590.64 508.73) rotate(180)"/><rect class="acff8c0b-ffdd-450c-8215-2f382c08e8c6" x="288.14" y="252.35" width="3.03" height="4.03" transform="translate(579.31 508.73) rotate(180)"/><rect class="acff8c0b-ffdd-450c-8215-2f382c08e8c6" x="282.6" y="252.35" width="3.03" height="4.03" transform="translate(568.22 508.73) rotate(180)"/><rect class="acff8c0b-ffdd-450c-8215-2f382c08e8c6" x="277.34" y="252.35" width="3.03" height="4.03" transform="translate(557.71 508.73) rotate(180)"/><rect class="acff8c0b-ffdd-450c-8215-2f382c08e8c6" x="271.99" y="252.35" width="3.03" height="4.03" transform="translate(547 508.73) rotate(180)"/><rect class="acff8c0b-ffdd-450c-8215-2f382c08e8c6" x="266.57" y="252.35" width="3.03" height="4.03" transform="translate(536.17 508.73) rotate(180)"/><rect class="acff8c0b-ffdd-450c-8215-2f382c08e8c6" x="260.9" y="252.35" width="3.03" height="4.03" transform="translate(524.84 508.73) rotate(180)"/><rect class="acff8c0b-ffdd-450c-8215-2f382c08e8c6" x="255.36" y="252.35" width="3.03" height="4.03" transform="translate(513.75 508.73) rotate(180)"/><rect class="acff8c0b-ffdd-450c-8215-2f382c08e8c6" x="250.11" y="252.35" width="3.03" height="4.03" transform="translate(503.25 508.73) rotate(180)"/><rect class="acff8c0b-ffdd-450c-8215-2f382c08e8c6" x="244.75" y="252.35" width="3.03" height="4.03" transform="translate(492.54 508.73) rotate(180)"/><rect class="acff8c0b-ffdd-450c-8215-2f382c08e8c6" x="293.81" y="259.36" width="3.03" height="4.03" transform="translate(590.64 522.75) rotate(180)"/><rect class="acff8c0b-ffdd-450c-8215-2f382c08e8c6" x="288.14" y="259.36" width="3.03" height="4.03" transform="translate(579.31 522.75) rotate(180)"/><rect class="acff8c0b-ffdd-450c-8215-2f382c08e8c6" x="282.6" y="259.36" width="3.03" height="4.03" transform="translate(568.22 522.75) rotate(180)"/><rect class="acff8c0b-ffdd-450c-8215-2f382c08e8c6" x="277.34" y="259.36" width="3.03" height="4.03" transform="translate(557.71 522.75) rotate(180)"/><rect class="acff8c0b-ffdd-450c-8215-2f382c08e8c6" x="271.99" y="259.36" width="3.03" height="4.03" transform="translate(547 522.75) rotate(180)"/><rect class="acff8c0b-ffdd-450c-8215-2f382c08e8c6" x="266.57" y="259.36" width="3.03" height="4.03" transform="translate(536.17 522.75) rotate(180)"/><rect class="acff8c0b-ffdd-450c-8215-2f382c08e8c6" x="260.9" y="259.36" width="3.03" height="4.03" transform="translate(524.84 522.75) rotate(180)"/><rect class="acff8c0b-ffdd-450c-8215-2f382c08e8c6" x="255.36" y="259.36" width="3.03" height="4.03" transform="translate(513.75 522.75) rotate(180)"/><rect class="acff8c0b-ffdd-450c-8215-2f382c08e8c6" x="250.11" y="259.36" width="3.03" height="4.03" transform="translate(503.25 522.75) rotate(180)"/><rect class="acff8c0b-ffdd-450c-8215-2f382c08e8c6" x="244.75" y="259.36" width="3.03" height="4.03" transform="translate(492.54 522.75) rotate(180)"/><rect class="b2a12c0c-47d8-496e-a329-c8b8f3d60b59" x="293.81" y="232.86" width="2.55" height="4.16" transform="translate(590.16 469.88) rotate(180)"/><rect class="b2a12c0c-47d8-496e-a329-c8b8f3d60b59" x="268.52" y="232.86" width="2.55" height="4.16" transform="translate(539.58 469.88) rotate(180)"/><rect class="b2a12c0c-47d8-496e-a329-c8b8f3d60b59" x="248.4" y="232.86" width="2.55" height="4.16" transform="translate(499.35 469.88) rotate(180)"/><rect class="e824f74c-69c2-474f-ba19-dc73af6520d2" x="304.7" y="234.33" width="59.02" height="37.48" transform="translate(668.42 506.15) rotate(180)"/><rect class="acff8c0b-ffdd-450c-8215-2f382c08e8c6" x="304.7" y="229.44" width="59.02" height="12.18" transform="translate(668.42 471.05) rotate(180)"/><rect class="acff8c0b-ffdd-450c-8215-2f382c08e8c6" x="356.67" y="245.23" width="3.03" height="4.03" transform="translate(716.37 494.49) rotate(180)"/><rect class="acff8c0b-ffdd-450c-8215-2f382c08e8c6" x="351" y="245.23" width="3.03" height="4.03" transform="translate(705.03 494.49) rotate(180)"/><rect class="acff8c0b-ffdd-450c-8215-2f382c08e8c6" x="345.46" y="245.23" width="3.03" height="4.03" transform="translate(693.95 494.49) rotate(180)"/><rect class="acff8c0b-ffdd-450c-8215-2f382c08e8c6" x="340.21" y="245.23" width="3.03" height="4.03" transform="translate(683.44 494.49) rotate(180)"/><rect class="acff8c0b-ffdd-450c-8215-2f382c08e8c6" x="334.85" y="245.23" width="3.03" height="4.03" transform="translate(672.73 494.49) rotate(180)"/><rect class="acff8c0b-ffdd-450c-8215-2f382c08e8c6" x="329.43" y="245.23" width="3.03" height="4.03" transform="translate(661.9 494.49) rotate(180)"/><rect class="acff8c0b-ffdd-450c-8215-2f382c08e8c6" x="323.77" y="245.23" width="3.03" height="4.03" transform="translate(650.56 494.49) rotate(180)"/><rect class="acff8c0b-ffdd-450c-8215-2f382c08e8c6" x="318.23" y="245.23" width="3.03" height="4.03" transform="translate(639.48 494.49) rotate(180)"/><rect class="acff8c0b-ffdd-450c-8215-2f382c08e8c6" x="312.97" y="245.23" width="3.03" height="4.03" transform="translate(628.97 494.49) rotate(180)"/><rect class="acff8c0b-ffdd-450c-8215-2f382c08e8c6" x="307.62" y="245.23" width="3.03" height="4.03" transform="translate(618.26 494.49) rotate(180)"/><rect class="acff8c0b-ffdd-450c-8215-2f382c08e8c6" x="356.67" y="252.35" width="3.03" height="4.03" transform="translate(716.37 508.73) rotate(180)"/><rect class="acff8c0b-ffdd-450c-8215-2f382c08e8c6" x="351" y="252.35" width="3.03" height="4.03" transform="translate(705.03 508.73) rotate(180)"/><rect class="acff8c0b-ffdd-450c-8215-2f382c08e8c6" x="345.46" y="252.35" width="3.03" height="4.03" transform="translate(693.95 508.73) rotate(180)"/><rect class="acff8c0b-ffdd-450c-8215-2f382c08e8c6" x="340.21" y="252.35" width="3.03" height="4.03" transform="translate(683.44 508.73) rotate(180)"/><rect class="acff8c0b-ffdd-450c-8215-2f382c08e8c6" x="334.85" y="252.35" width="3.03" height="4.03" transform="translate(672.73 508.73) rotate(180)"/><rect class="acff8c0b-ffdd-450c-8215-2f382c08e8c6" x="329.43" y="252.35" width="3.03" height="4.03" transform="translate(661.9 508.73) rotate(180)"/><rect class="acff8c0b-ffdd-450c-8215-2f382c08e8c6" x="323.77" y="252.35" width="3.03" height="4.03" transform="translate(650.56 508.73) rotate(180)"/><rect class="acff8c0b-ffdd-450c-8215-2f382c08e8c6" x="318.23" y="252.35" width="3.03" height="4.03" transform="translate(639.48 508.73) rotate(180)"/><rect class="acff8c0b-ffdd-450c-8215-2f382c08e8c6" x="312.97" y="252.35" width="3.03" height="4.03" transform="translate(628.97 508.73) rotate(180)"/><rect class="acff8c0b-ffdd-450c-8215-2f382c08e8c6" x="307.62" y="252.35" width="3.03" height="4.03" transform="translate(618.26 508.73) rotate(180)"/><rect class="acff8c0b-ffdd-450c-8215-2f382c08e8c6" x="356.67" y="259.36" width="3.03" height="4.03" transform="translate(716.37 522.75) rotate(180)"/><rect class="acff8c0b-ffdd-450c-8215-2f382c08e8c6" x="351" y="259.36" width="3.03" height="4.03" transform="translate(705.03 522.75) rotate(180)"/><rect class="acff8c0b-ffdd-450c-8215-2f382c08e8c6" x="345.46" y="259.36" width="3.03" height="4.03" transform="translate(693.95 522.75) rotate(180)"/><rect class="acff8c0b-ffdd-450c-8215-2f382c08e8c6" x="340.21" y="259.36" width="3.03" height="4.03" transform="translate(683.44 522.75) rotate(180)"/><rect class="acff8c0b-ffdd-450c-8215-2f382c08e8c6" x="334.85" y="259.36" width="3.03" height="4.03" transform="translate(672.73 522.75) rotate(180)"/><rect class="acff8c0b-ffdd-450c-8215-2f382c08e8c6" x="329.43" y="259.36" width="3.03" height="4.03" transform="translate(661.9 522.75) rotate(180)"/><rect class="acff8c0b-ffdd-450c-8215-2f382c08e8c6" x="323.77" y="259.36" width="3.03" height="4.03" transform="translate(650.56 522.75) rotate(180)"/><rect class="acff8c0b-ffdd-450c-8215-2f382c08e8c6" x="318.23" y="259.36" width="3.03" height="4.03" transform="translate(639.48 522.75) rotate(180)"/><rect class="acff8c0b-ffdd-450c-8215-2f382c08e8c6" x="312.97" y="259.36" width="3.03" height="4.03" transform="translate(628.97 522.75) rotate(180)"/><rect class="acff8c0b-ffdd-450c-8215-2f382c08e8c6" x="307.62" y="259.36" width="3.03" height="4.03" transform="translate(618.26 522.75) rotate(180)"/><rect class="b2a12c0c-47d8-496e-a329-c8b8f3d60b59" x="356.67" y="232.86" width="2.55" height="4.16" transform="translate(715.89 469.88) rotate(180)"/><rect class="b2a12c0c-47d8-496e-a329-c8b8f3d60b59" x="331.38" y="232.86" width="2.55" height="4.16" transform="translate(665.31 469.88) rotate(180)"/><rect class="b2a12c0c-47d8-496e-a329-c8b8f3d60b59" x="311.27" y="232.86" width="2.55" height="4.16" transform="translate(625.08 469.88) rotate(180)"/></g><circle class="fbf68765-4998-4aaa-8a0e-c7a833a0f95f" cx="326.45" cy="6.65" r="6.65" transform="translate(267.59 327.82) rotate(-80.78)"/><path class="b1712c40-e66a-4a6c-901d-5347c517fdd0" d="M406.1,275v0l-336.25-.71c-3.82-6.72-7.61-15.79-4-22.2,5.73-10.14,26.63-7.5,42.4-6.79,32.28,1.45,28.82-47.1,103.31-17.36,19.2,7.66,68.11,7.45,97.17-10.57,20.9-13,61-14.57,81.79-14.44a66,66,0,0,1,13.86,17.62,70.9,70.9,0,0,1,6.61,21c1,6.69,3,19.93-4,32C406.64,274.18,406.32,274.69,406.1,275Z"/><path class="aed8ab8d-f37c-4462-9eda-32b9da6d6a54" d="M176.52,273.61l-20.27-.07-34.88-.11-99.13-.33-.17-.3-.11-.21A193,193,0,0,1,6.73,233.44,185.62,185.62,0,0,1,.1,191.38,131.4,131.4,0,0,1,53.27,201c35,14.56,23.53,35.84,39.9,35.84s17.45-9.07,33.83-2.9,14.36,19.28,24.59,18.47C161.59,251.62,175.89,260.59,176.52,273.61Z"/><path class="f963d141-319d-4741-b28f-5ec38deac7cf" d="M188.67,274.41H19.56c-.39-.93-.83-2-1.3-3.17A251.14,251.14,0,0,1,4.1,220.41c8.4.62,35.25,3.94,52.25,21.52,20.35,21.06,46.37,22.86,66.16,19.85a75.05,75.05,0,0,1,7.86-.7C151.79,260.25,185.18,265.93,188.67,274.41Z"/><g class="b689e543-c35b-421e-8766-142a5c9273be"><path class="b8e90433-28e9-46be-acd5-79526f815be4" d="M409.88,275l-124.13-.38c1.31-3.53,6.42-15,18.71-19.7a29.4,29.4,0,0,1,5.17-1.48c.64-.13,1.29-.23,2-.32s1.55-.18,2.37-.23,1.65-.07,2.52-.06c21.86.17,28.63-41.06,80.48-43.15a63.37,63.37,0,0,1,7.43,10.94C411.46,233.85,414.37,251.19,409.88,275Z"/><path class="b39c0c24-05b3-4dc4-baee-53d3d15f44d3" d="M315.79,261.09s-13.3-19.23-22-17.35S315.79,261.09,315.79,261.09Z"/><path class="fcc9b2b7-54bc-45db-b790-2d06e5a27706" d="M313.81,257.47s1.2-16.38-3.31-15.07S313.81,257.47,313.81,257.47Z"/></g><path class="fc9cd5f6-85fb-4dcd-9c73-2c20d457d2e8" d="M387.43,264.48s6.89-33.25-6.32-39S387.43,264.48,387.43,264.48Z"/><path class="e31c7b8c-746b-4054-800f-1394af589227" d="M382.65,260.87S376,242,365.89,237.79,367.28,251,382.65,260.87Z"/><path class="eac7fcc2-c656-4a16-9fc0-4550460aca36" d="M391.4,253.76s7-10.13,5.38-16.62S390.74,242.6,391.4,253.76Z"/><path class="b3dd8ec0-345b-4e4c-be55-1dab472b982e" d="M410,273.55l-.06.36H316.53S329,254.17,346.08,265a23.15,23.15,0,0,0,12.42,3.69,14.94,14.94,0,0,0,9.67-3.57c25.76-21.73,35.73-20.66,43.39-20.2,0,0,0,.07,0,.1A96.91,96.91,0,0,1,410,273.55Z"/><path class="acff8c0b-ffdd-450c-8215-2f382c08e8c6" d="M367.41,275.17s-3.34-7.52-18.59-7.79-17.54,8-28.7,4.53-20.8,2.09-20.8,2.09Z"/><polygon class="a326eeec-7dab-4516-944f-b4d4c3c4c607" points="310.09 206.25 83.88 206.25 73.42 153.08 299.23 153.08 310.09 206.25"/><polygon class="ba936220-d505-409d-9286-e162e63ed06a" points="313.95 206.25 87.74 206.25 77.28 153.08 303.09 153.08 313.95 206.25"/><path class="a326eeec-7dab-4516-944f-b4d4c3c4c607" d="M83.87,206.25h74.2a0,0,0,0,1,0,0v6.51a0,0,0,0,1,0,0H84.84a1,1,0,0,1-1-1v-5.55A0,0,0,0,1,83.87,206.25Z"/><path class="a326eeec-7dab-4516-944f-b4d4c3c4c607" d="M352.34,212.75H153.4a3.25,3.25,0,0,1-3.26-3.25h0a3.25,3.25,0,0,1,3.26-3.25H352.34a3.24,3.24,0,0,1,3.25,3.25h0A3.24,3.24,0,0,1,352.34,212.75Z"/><path class="bf3161b2-2c70-49f2-a903-deffceed0994" d="M97.38,212.75,93.5,228v0L82,273.12a1.33,1.33,0,0,1-1.28,1,1.85,1.85,0,0,1-1.82-2.2l10.23-52.63,1.27-6.54Z"/><path class="a326eeec-7dab-4516-944f-b4d4c3c4c607" d="M93.5,228c.38-7.79-4.33-8.69-4.33-8.69l1.27-6.54h6.94Z"/><path class="bf3161b2-2c70-49f2-a903-deffceed0994" d="M146.45,212.75,142.58,228v0l-11.47,45.12a1.32,1.32,0,0,1-1.28,1,1.85,1.85,0,0,1-1.82-2.2l10.23-52.63,1.27-6.54Z"/><path class="a326eeec-7dab-4516-944f-b4d4c3c4c607" d="M142.58,228c.37-7.79-4.34-8.69-4.34-8.69l1.27-6.54h6.94Z"/><path class="bf3161b2-2c70-49f2-a903-deffceed0994" d="M336.85,212.75,340.72,228v0l11.46,45.12a1.34,1.34,0,0,0,1.29,1,1.85,1.85,0,0,0,1.81-2.2l-10.22-52.63-1.28-6.54Z"/><path class="a326eeec-7dab-4516-944f-b4d4c3c4c607" d="M340.72,228c-.37-7.79,4.34-8.69,4.34-8.69l-1.28-6.54h-6.93Z"/><path class="bf3161b2-2c70-49f2-a903-deffceed0994" d="M287.78,212.75,291.65,228v0l11.46,45.12a1.34,1.34,0,0,0,1.29,1,1.85,1.85,0,0,0,1.81-2.2L296,219.29l-1.28-6.54Z"/><path class="a326eeec-7dab-4516-944f-b4d4c3c4c607" d="M291.65,228c-.37-7.79,4.34-8.69,4.34-8.69l-1.28-6.54h-6.93Z"/><path class="acff8c0b-ffdd-450c-8215-2f382c08e8c6" d="M182.57,273.9H171.74c-.58-.49.4-1.61,1.42-1.69a6.4,6.4,0,0,1,1.66.2c.15-2,1-10.88,4.21-10.53,3.61.4,0,3.92-1,6a50.14,50.14,0,0,0-1.92,4.8c.29.06.6.13.91.18.48-1.46,2.26-6.4,4.52-6.12,2.66.34,1.59,2.32-.3,3.5-1.38.86-3.07,2.09-3.88,2.68a11.38,11.38,0,0,0,2.12.17A4.59,4.59,0,0,1,182.57,273.9Z"/><path class="fbf68765-4998-4aaa-8a0e-c7a833a0f95f" d="M198.57,26.88s4.93-8.3,16.73-7.37c0,0,17.12-13.82,35.38-1.85,0,0,19.41-3,33.78,2.57,9.58,3.69,12.75,7.57,12.75,7.57Z"/><path class="fbf68765-4998-4aaa-8a0e-c7a833a0f95f" d="M271.93,49.62a10.2,10.2,0,0,1,9.72-4.49S291.59,36.7,302.2,44c0,0,11.27-1.81,19.62,1.56,5.57,2.26,7.4,4.62,7.4,4.62Z"/><path class="fbf68765-4998-4aaa-8a0e-c7a833a0f95f" d="M30.73,84.87S33.82,78,41.23,78.8c0,0,10.75-11.38,22.22-1.52,0,0,12.18-2.44,21.21,2.12,6,3,8,6.23,8,6.23Z"/><path class="a4220c6f-90fb-4d4f-89cb-6ceade2690dc" d="M35.15,241.26s11.64-12.73,18.66-11.19-16.46,11.85-16.46,11.85Z"/><path class="b646109d-0f7b-4bfc-bf2f-42ec7f4f570b" d="M41,243s13.6-5.42,17.12-2.35-16.54,3.66-16.54,3.66Z"/><path class="bb329bcd-cb64-4ba8-9d0a-1251294ef23d" d="M29,236.72c.14-.58,7.31-13.75,11-13.16s-8,13.46-8,13.46Z"/><path class="fb89fdb5-9f11-4ed6-8bf6-b85b92643678" d="M248.12,148.51a17.8,17.8,0,0,1-3.28-4.82,129.71,129.71,0,0,1-6.68-15c-.69-1.93-1-3.24-.85-3.37a20.11,20.11,0,0,0,1.83-3c1-1.84,2.3-4.33,3.57-6.85,2.48-4.94,4.86-10.05,4.79-10.87.62,2,11.17,35.39,11.43,40S251.28,150.88,248.12,148.51Z"/><path class="fe0ef8c3-d825-4d04-9dea-20e2a9a862fa" d="M244.85,143.7h0a129.71,129.71,0,0,1-6.68-15c.27-2.09.59-4.34,1-6.4.77-4.1,1.79-7.42,3.05-7.11a19.36,19.36,0,0,1,2.16,0c2.51,2,0,14.9,1.9,18.56C247.66,136.5,244.85,143.7,244.85,143.7Z"/><path class="fb89fdb5-9f11-4ed6-8bf6-b85b92643678" d="M247.5,104.56a.27.27,0,0,1,0-.08A.22.22,0,0,1,247.5,104.56Z"/><path class="af6f5ade-9b8f-42e5-8446-51c3039635e6" d="M174.29,84a76.83,76.83,0,0,1,12.47,9.79c6.54,6.13,16.41,19.77,20.76,22.54s27.68,4.75,27.68,4.75v5.14s-21,6.92-34.8,4.15-25.7-13.25-25.7-13.25Z"/><path class="f77f7366-c1a6-4016-9228-2b39e54e71d1" d="M281.88,244.22c.22-.71.49-1.63.78-2.63.51-5.81,1.81-27.78,3.73-36.35,6.72,4.34,14.95.31,17.09.31-2.75,8.33-10.18,30.82-12,35.51-.74,3.14-1.73,8.24-1.17,10.91a31,31,0,0,0,4.63,11.59c.27.38-9.87-1.18-14-4s-7.32-5.49-5.47-8a12.4,12.4,0,0,1,2.25-2.38C279.28,248,281.21,246.35,281.88,244.22Z"/><path class="fb89fdb5-9f11-4ed6-8bf6-b85b92643678" d="M280.88,260.54c4.51,2.11,2.73,2.49,8.57,6.21s9.07,3,9.87,2.37-1.73-3-4.31-5.59l-.07,0a19.39,19.39,0,0,1-9.59-3.79c-3.71-2.84-6.72-7-9.27-9a12,12,0,0,0-2,2.56C272.68,256.11,276.37,258.43,280.88,260.54Z"/><path class="e780b0c0-8a21-465e-b347-3ccb599e963a" d="M265.47,247.81c.09-.74.18-1.69.28-2.74-.58-5.79-3.41-27.62-3.12-36.4,7.41,3,14.74-2.49,16.85-2.89-1.15,8.7-4.26,32.18-5.17,37.13-.13,3.22-.16,8.42.89,10.93a31,31,0,0,0,6.72,10.53c.33.32-9.92.69-14.49-1.29s-8.21-4-6.87-6.82a13,13,0,0,1,1.77-2.76C263.63,252,265.21,250,265.47,247.81Z"/><path class="fb89fdb5-9f11-4ed6-8bf6-b85b92643678" d="M267.54,264c4.82,1.23,3.15,1.93,9.58,4.5s9.47,1.28,10.14.48-2.26-2.6-5.28-4.68l-.06,0a19.38,19.38,0,0,1-10.14-1.94c-4.17-2.09-7.9-5.6-10.77-7.07a12.39,12.39,0,0,0-1.46,2.88C258.66,261.2,262.72,262.79,267.54,264Z"/><path class="ba8fd3b8-d973-4755-9d2b-f619edb3ed03" d="M236.52,162s6.32-8.24,10.67-7.05,33.65,6.8,48.64,22.67c13.45,14.24,13.05,40.73,13.05,40.73s-20.17,5.54-33.21,3.16-14.9.53-21,1.45c-4.32.66-7.71-22.4-10.68-24.38-4.65-3.1-40.73-2.37-41.52-18.19S236.52,162,236.52,162Z"/><path class="ae6ea3b5-abe0-4954-a403-8b4d662ea429" d="M231.25,47.11c.43-3.78-1.43-6.76-5.59-7.5-3-.54-7.52.84-7.95,4.62s2.13,8.51,5.91,8.94A6.89,6.89,0,0,0,231.25,47.11Z"/><path class="ae6ea3b5-abe0-4954-a403-8b4d662ea429" d="M222.29,73.77S240.44,60.83,229.08,48A9.55,9.55,0,0,0,225,45.28c-4.32-1.47-14-4-19.62,1-6,5.31-8.67,9.57-4.82,15.48S222.29,73.77,222.29,73.77Z"/><path class="a9ec6dee-7222-451f-b4fd-35b4ce9d4526" d="M207.47,71.92s-.06,2.47,0,5.82c0,1.63.06,3.48.14,5.35,0,1.34-.17,2.59-.06,3.89l3.74,19.69,15.6-19.8s-2.8-2.91-5.41-17.27a2.32,2.32,0,0,0,0-.23Z"/><path class="fb89fdb5-9f11-4ed6-8bf6-b85b92643678" d="M247.89,159.85c1,1.89-4.25,6.72-6.92,8.1-3.41,1.77-3.59,2.41-24.07,3.72-2.21.14-4.3.27-6.25.37-13.21.73-20.32.72-20.32.72s10.06-14.89,6-51.53c-.53-4.75,1.29-12.47,4-16.4,2.85-4.1,3-9.18,3.69-14.06.2-1.4-.86-1.58-.49-2.92,0,0,3.56-1.47,3.94-1.51,2.3,1.6,5.47,4.87,12.4,4.8,4.68,0,6.15-3.15,6.63-4.79a57.18,57.18,0,0,1,5.42,2.16c13.09,4.54,15.55,16,15.55,16s-4.76,33.63-5.15,38.37C242.05,146,245.41,155.3,247.89,159.85Z"/><path class="bb11cd6f-f304-46db-993d-3edc24c25238" d="M207.45,77.74c0,1.63.06,3.48.14,5.35,15-4,14.08-12,13.87-13.49a2.32,2.32,0,0,0,0-.23S213.44,73.76,207.45,77.74Z"/><path class="a9ec6dee-7222-451f-b4fd-35b4ce9d4526" d="M204.25,79.27s16,2.36,17.36-7.66,4.27-16.45-5.92-18.38S203,54.86,201.75,58.1,200.11,78.4,204.25,79.27Z"/><path class="ae6ea3b5-abe0-4954-a403-8b4d662ea429" d="M205.51,50.61s-1.18,19.23,18.66,19.68C224.17,70.29,226.68,44.68,205.51,50.61Z"/><path class="ae6ea3b5-abe0-4954-a403-8b4d662ea429" d="M209.67,52.71s-6.23,2.88-8.69,8.37C201,61.08,195.53,51.29,209.67,52.71Z"/><path class="fe0ef8c3-d825-4d04-9dea-20e2a9a862fa" d="M215.56,162.88c5.27,16.87-26,10.08-26,10.08s1.37-6,.42-17.76c-.39-4.77-5.7-11.32-4.59-17.48,1.16-6.45,15.37-11,19.25-18.6C201.19,138.49,221,150.88,215.56,162.88Z"/><path class="b84b1aa1-18ff-443f-b1d0-1164e54202a1" d="M215.26,163.11s7-.49,9.69.3,5,3,5.34,4.15-5.44,1.88-6.82,1.28-3.86.6-5.54.1a13.89,13.89,0,0,1-3.56-1.88Z"/><path class="f60bcc43-139f-455a-93e2-c58d13734979" d="M203,72.27s.29,1.7,1,1.94a5.72,5.72,0,0,0,3.08.35,2.34,2.34,0,0,0,1.53-1.12A13.17,13.17,0,0,0,203,72.27Z"/><path class="fe0ef8c3-d825-4d04-9dea-20e2a9a862fa" d="M221,253.71s-1.19,16,1.83,16.26c.41,0,15.35.15,15.35.15l19.27.15s-.29-4.71-5.85-5.72-14.87-5-18.19-12.41C229.94,244.36,221,253.71,221,253.71Z"/><path class="fe0ef8c3-d825-4d04-9dea-20e2a9a862fa" d="M149.39,165.38s-6.65,20.93,2.11,28.28c10.22,8.56,66.43,3.16,65.64,8.1-1.35,8.47,3.43,56.19,3.43,56.19s11.2,2.14,18.32.16c0,0,8.3-68.6-1.19-77.44-13.85-12.89-60.5-21.61-60.5-21.61Z"/><path class="b77a3d7b-e859-468e-96e7-617fdcdc3e5a" d="M200.78,253.71s-1.19,16,1.84,16.26c.4,0,15.34.15,15.34.15l19.27.15s-.29-4.71-5.85-5.72-14.87-5-18.19-12.41C209.7,244.36,200.78,253.71,200.78,253.71Z"/><path class="fb89fdb5-9f11-4ed6-8bf6-b85b92643678" d="M129.62,165.38s-6.65,20.93,2.11,28.28c10.21,8.56,66.37,3.15,65.64,8.1-2.11,14.37,2.57,57.34,2.57,57.34s12.06,1,19.18-1c0,0,10.73-65.11-1.19-77.44-7.71-8-55.23-18.45-55.23-18.45Z"/><path class="a9ec6dee-7222-451f-b4fd-35b4ce9d4526" d="M165.13,63.64s-4.48,9-2.47,16.57l-5.77,20.45L139.65,80.09A51.55,51.55,0,0,0,147.88,59Z"/><path class="f2387a78-78b2-445e-83bb-c1a947e09619" d="M140.67,177.14c-5.86.35-10.9.1-14-.85-2.31-.7-4-19.65-4.9-39.83-1-22.34-.85-46.18.7-48.43,3-4.34,17-8.24,17.4-8.28a28.11,28.11,0,0,0,15.7,5c5-.08,6.55-3,7.06-4.78,2.06.21,8,2.62,9.7,3.17,8.4,2.77,8.2,15.72,8.2,15.72s.81,48.19,3.51,59.53C186.52,168.71,159.42,176,140.67,177.14Z"/><path class="a9ec6dee-7222-451f-b4fd-35b4ce9d4526" d="M168.34,68.69s-19.23,5.7-22.5-5.88-10.46-18,3.83-22.69c11.75-3.83,17,.16,19,3.76S175.39,66.27,168.34,68.69Z"/><path class="ae6ea3b5-abe0-4954-a403-8b4d662ea429" d="M171.83,56s7.53,14.07,1.64,17.79-23.37,6.28-28-12.13c0,0,10.28,3.1,14.52,1.9s6.39-4.36,10.82-3.42C170.85,60.14,172.27,59.68,171.83,56Z"/><path class="ae6ea3b5-abe0-4954-a403-8b4d662ea429" d="M142.56,45.75a3.47,3.47,0,0,1,1.34-2.27C153.66,36,163,39.2,163,39.2c-9-7.33-24.69-1.4-26.07,7.58-2.26,14.66,8.62,14.88,8.62,14.88s9.11-6.82,1.88-10.71A9.82,9.82,0,0,1,143,47h0A4.69,4.69,0,0,1,142.56,45.75Z"/><path class="ae6ea3b5-abe0-4954-a403-8b4d662ea429" d="M170.13,62.88a4.5,4.5,0,0,1-3,2.81,4.25,4.25,0,0,1-3.77-1.15A19.65,19.65,0,0,1,170.13,62.88Z"/><path class="a57bd232-b06a-4d4c-8043-1715368c10bd" d="M162.64,163.21l3.89,8.57s-19.64-1.78-23.2.85c-1.66,1.23-3,3.21-2.66,4.51-5.86.35-10.9.1-14-.85-2.31-.7-4-19.65-4.9-39.83l2.81-3.9,6.8-6a4.66,4.66,0,0,1,7.7,3,35.46,35.46,0,0,1,.23,3.88C139.34,143.1,155.19,156.68,162.64,163.21Z"/><path class="e780b0c0-8a21-465e-b347-3ccb599e963a" d="M162,162.9a15.82,15.82,0,0,0,5.35,1.14c5.28.16,7,.18,9.26,1.3a22.69,22.69,0,0,1,4.56,3.74c.71.75,1.54,3.86.79,4.29-1.36.79-8.78-1.83-10.79-1.35a10.93,10.93,0,0,1-5.9-.71,50.51,50.51,0,0,0-5-1.75Z"/><path class="e780b0c0-8a21-465e-b347-3ccb599e963a" d="M167.78,164.2a44.84,44.84,0,0,0,5.63-1.53s.91.61.35,1.14a8.55,8.55,0,0,1-2.16,1.1Z"/><path class="fb2e9443-7664-486d-938a-f67c84922ea3" d="M124.31,86.2s-10.67,6.13-10.47,33.21-1.59,32,3.36,35.59,33.05,14.67,43.33,15.33c0,0,3.69-3.76,2.11-7.85,0,0-31.74-20.79-32.13-22s9.62-22.86,10.61-30S124.31,86.2,124.31,86.2Z"/><path class="e780b0c0-8a21-465e-b347-3ccb599e963a" d="M238.49,165.19s-7.38-.2-8.83,1.25-3.56,4.88-2.5,5.8,5.27-1.32,7.91-.79,4.35.13,6.85-1.72S238.49,165.19,238.49,165.19Z"/><path class="fb89fdb5-9f11-4ed6-8bf6-b85b92643678" d="M248.38,135.92,238.3,165.19s.29,3.06,4.64,5c0,0,17.3-17.3,16.12-24.42S248.38,135.92,248.38,135.92Z"/><path class="fb89fdb5-9f11-4ed6-8bf6-b85b92643678" d="M207.47,86.34s-15.21,5-21.23,13.81c-4.62,6.76-7,37.54-6.42,42.51.54,4.76,6.71,13.89,33.1,25.46.38.17,4.81-1.09,3.63-5.14l-20.1-23.17,12.17-30.52S217.44,96,207.47,86.34Z"/><path class="af3adef6-46cb-4c2f-b123-1987cfe33aa8" d="M374.4,28.83h-2.31l0-.18.7-6.16a.39.39,0,0,1,.39-.35h.07a.66.66,0,0,1,.35.16.64.64,0,0,1,.2.4Z"/><path class="a73f29f3-ed8e-4390-9981-80b4f8511ee5" d="M372.32,27.43h-.09l.58-5a.39.39,0,0,1,.39-.35h.07l.07.06a.6.6,0,0,1,.16.41l0,3.56A1.23,1.23,0,0,1,372.32,27.43Z"/><rect class="f352bd54-b281-4996-aa36-22f50ab28e3a" x="371.42" y="56.28" width="4.46" height="196.87"/><rect class="b280a1ad-0c03-4e66-ae45-c6bfcb60d829" x="371.42" y="56.28" width="2.06" height="196.87"/><rect class="e1a69250-db47-4a47-837b-6206ec458da3" x="366.55" y="221.73" width="14.2" height="52.09"/><rect class="b280a1ad-0c03-4e66-ae45-c6bfcb60d829" x="366.55" y="221.73" width="8.46" height="52.09"/><path class="a578d788-86b6-4ed3-a6ee-942f524d8d8a" d="M381.41,31.81c0,2.43-3.65,4.4-8.16,4.4-.35,0-.68,0-1,0-4-.26-7.14-2.12-7.14-4.36s3.12-4.1,7.14-4.37c.34,0,.67,0,1,0C377.76,27.4,381.41,29.37,381.41,31.81Z"/><path class="e243c451-7d92-499a-8ba0-4d7c21d69a6a" d="M377.18,31.81c0,2-2,3.64-4.95,4.36-4-.26-7.14-2.12-7.14-4.36s3.12-4.1,7.14-4.37C375.14,28.16,377.18,29.84,377.18,31.81Z"/><polygon class="fcba6299-a8d2-454d-a572-09f38e286551" points="380.73 60.16 366.53 60.16 361.52 36.05 384.97 36.05 380.73 60.16"/><rect class="e9689b24-47fd-4a78-9719-3e99f04d7e4d" x="360.26" y="34.24" width="25.98" height="2.31"/><rect class="f6d9c13e-cd7f-41a8-b44d-ff3c7efe5913" x="360.26" y="34.24" width="16.33" height="2.31"/><path class="b280a1ad-0c03-4e66-ae45-c6bfcb60d829" d="M368.87,221.73H378l-1.33-4a.87.87,0,0,0-.83-.6h-4.25a1.14,1.14,0,0,0-1.05.7Z"/><polygon class="ae6ea3b5-abe0-4954-a403-8b4d662ea429" points="363.2 37.23 383.23 37.23 379.32 58.9 367.82 58.9 363.2 37.23"/><path class="ff94e36d-c4fb-41e6-949d-d33f53836baf" d="M365.63,32.06s1.52-3.33,4.53-3.23c0,0-1.91,1.71-1.74,3.23S365.63,32.06,365.63,32.06Z"/><polygon class="aa2dcd03-1324-419a-840b-bdfb1dac49bc" points="384.58 34.24 361.92 34.24 363.77 31.59 382.82 31.59 384.58 34.24"/><polygon class="f7fbb3ac-4a73-4b13-8121-7e5e8dc25cc6" points="364.53 37.98 369.12 37.98 370.46 58.22 369.12 58.22 364.53 37.98"/><path class="ace54ad6-2871-4913-a507-b63a6d6e7c16" d="M52.78,108.26H51.21v-.12L51.7,104a.27.27,0,0,1,.27-.24H52a.45.45,0,0,1,.23.11.43.43,0,0,1,.13.27Z"/><path class="a8f7f760-abdd-400e-91e3-ab6444785afa" d="M51.36,107.31h0L51.7,104a.27.27,0,0,1,.27-.24H52a.08.08,0,0,0,0,0,.43.43,0,0,1,.11.28l0,2.42A.84.84,0,0,1,51.36,107.31Z"/><rect class="e2bd48b8-4a94-41a9-bbff-d3600fe76df1" x="50.75" y="126.92" width="3.03" height="133.84"/><rect class="b280a1ad-0c03-4e66-ae45-c6bfcb60d829" x="50.75" y="126.92" width="1.4" height="133.84"/><rect class="a872fe1a-20a3-490a-8f70-fced56079dc2" x="47.44" y="239.4" width="9.65" height="35.41"/><rect class="b280a1ad-0c03-4e66-ae45-c6bfcb60d829" x="47.44" y="239.4" width="5.75" height="35.41"/><path class="b6bd5f65-adcb-4ae7-b16d-927182396d2c" d="M57.54,110.28c0,1.66-2.48,3-5.54,3q-.36,0-.69,0c-2.74-.18-4.86-1.44-4.86-3s2.12-2.78,4.86-3l.69,0C55.06,107.29,57.54,108.63,57.54,110.28Z"/><path class="b49c61b3-5934-47db-8ebc-49c3e0d43196" d="M54.67,110.28c0,1.34-1.38,2.48-3.36,3-2.74-.18-4.86-1.44-4.86-3s2.12-2.78,4.86-3C53.29,107.81,54.67,109,54.67,110.28Z"/><polygon class="a37679d7-6a52-4937-9808-c26aa59ffba2" points="57.09 129.56 47.43 129.56 44.03 113.17 59.97 113.17 57.09 129.56"/><rect class="a6cec4d1-91ff-494d-89c7-fb66c6f54bd6" x="43.17" y="111.94" width="17.66" height="1.57"/><rect class="b6c8ea70-48f8-490d-8e27-79c64c57ff95" x="43.17" y="111.94" width="11.1" height="1.57"/><path class="b280a1ad-0c03-4e66-ae45-c6bfcb60d829" d="M49,239.4h6.17l-.9-2.74a.6.6,0,0,0-.56-.41H50.84a.77.77,0,0,0-.72.48Z"/><polygon class="ae6ea3b5-abe0-4954-a403-8b4d662ea429" points="45.17 113.97 58.78 113.97 56.12 128.7 48.3 128.7 45.17 113.97"/><path class="acb6c5ed-2057-425c-a5de-77969dbb1c95" d="M46.82,110.46s1-2.27,3.08-2.2c0,0-1.3,1.16-1.18,2.2S46.82,110.46,46.82,110.46Z"/><polygon class="eacc81cc-9649-4d75-83c0-b520d7f0bb35" points="59.7 111.94 44.3 111.94 45.56 110.14 58.5 110.14 59.7 111.94"/><polygon class="f7fbb3ac-4a73-4b13-8121-7e5e8dc25cc6" points="46.07 114.48 49.19 114.48 50.1 128.24 49.19 128.24 46.07 114.48"/><rect class="e40156bf-d268-4868-a3c9-94f9690c4639" x="10.8" y="273.45" width="408.49" height="3.11" rx="0.13"/></g></svg>