<svg xmlns="http://www.w3.org/2000/svg" xmlns:xlink="http://www.w3.org/1999/xlink" viewBox="0 0 292.5236 220.0653"><defs><style>.cls-1{fill:#80a9f5;}.cls-2{fill:url(#Безымянный_градиент_31);}.cls-3{fill:url(#linear-gradient);}.cls-15,.cls-4{fill:#fff;}.cls-4{opacity:0.76;}.cls-5{fill:url(#Безымянный_градиент_89);}.cls-6{fill:url(#linear-gradient-2);}.cls-7{fill:#b0c9f7;}.cls-8{fill:#6c8ced;}.cls-9{fill:#f0f0f0;}.cls-10{fill:url(#linear-gradient-3);}.cls-11{fill:url(#linear-gradient-4);}.cls-12{fill:url(#linear-gradient-5);}.cls-13{fill:url(#linear-gradient-6);}.cls-14{fill:#dc0000;}</style><linearGradient id="Безымянный_градиент_31" x1="105.2989" y1="-23.2891" x2="37.539" y2="227.987" gradientUnits="userSpaceOnUse"><stop offset="0" stop-color="#00329c"/><stop offset="0.0536" stop-color="#0032a0"/><stop offset="0.388" stop-color="#0032b6"/><stop offset="0.709" stop-color="#0032c3"/><stop offset="1" stop-color="#0032c8"/></linearGradient><linearGradient id="linear-gradient" x1="63.6123" y1="-7.3114" x2="46.4487" y2="135.9674" gradientUnits="userSpaceOnUse"><stop offset="0" stop-color="#3e49f8"/><stop offset="1" stop-color="#313bd7"/></linearGradient><linearGradient id="Безымянный_градиент_89" x1="61.4579" y1="181.2565" x2="304.0864" y2="29.6454" gradientUnits="userSpaceOnUse"><stop offset="0" stop-color="#fff"/><stop offset="0.0301" stop-color="#eff2fb"/><stop offset="0.1414" stop-color="#b7c5f0"/><stop offset="0.2563" stop-color="#869ee5"/><stop offset="0.3725" stop-color="#5d7ddc"/><stop offset="0.4904" stop-color="#3b62d5"/><stop offset="0.6102" stop-color="#214dcf"/><stop offset="0.7329" stop-color="#0f3ecb"/><stop offset="0.8604" stop-color="#0435c9"/><stop offset="1" stop-color="#0032c8"/></linearGradient><linearGradient id="linear-gradient-2" x1="65.9125" y1="4.6143" x2="292.5236" y2="4.6143" xlink:href="#linear-gradient"/><linearGradient id="linear-gradient-3" x1="245.1019" y1="-2.5265" x2="116.7416" y2="260.1645" xlink:href="#linear-gradient"/><linearGradient id="linear-gradient-4" x1="108.4255" y1="333.3122" x2="110.4145" y2="20.996" xlink:href="#linear-gradient"/><linearGradient id="linear-gradient-5" x1="159.5708" y1="180.4015" x2="134.8295" y2="338.0125" gradientUnits="userSpaceOnUse"><stop offset="0" stop-color="#090450"/><stop offset="1" stop-color="#141282"/></linearGradient><linearGradient id="linear-gradient-6" x1="69.1013" y1="181.3521" x2="215.3724" y2="71.4001" xlink:href="#linear-gradient"/></defs><g id="Слой_2" data-name="Слой 2"><path class="cls-1" d="M104.0961,112.8722H4.7118L13.53,210.5457a5,5,0,0,0,4.98,4.55h85.5868Z"/><path class="cls-2" d="M70.0215,215.0961H30.2677l-4.5315-49.8472a4.4144,4.4144,0,0,1,4.3963-4.8142H68.2113a4.4145,4.4145,0,0,1,4.4085,4.6435Z"/><path class="cls-3" d="M97.7071,117.8414H3.6889a3.6855,3.6855,0,0,1-3.44-5.0085l.7145-1.8575a3.6854,3.6854,0,0,1,3.44-2.3625H97.7071Z"/><rect class="cls-4" x="37.3666" y="127.07" width="10.6483" height="16.3274"/><rect class="cls-4" x="57.2434" y="127.07" width="10.6483" height="16.3274"/><rect class="cls-4" x="17.4897" y="127.07" width="10.6483" height="16.3274"/><polygon class="cls-5" points="70.731 4.969 82.603 215.096 280.148 215.096 288.667 4.969 70.731 4.969"/><path class="cls-6" d="M289.4173,9.2285H69.69A2.4353,2.4353,0,0,1,67.3628,7.51L66.0219,3.1513A2.4352,2.4352,0,0,1,68.3494,0H290.0879a2.4352,2.4352,0,0,1,2.4068,2.8055l-.67,4.3582A2.4353,2.4353,0,0,1,289.4173,9.2285Z"/><polygon class="cls-7" points="286.768 51.822 287.976 22.007 71.694 22.007 73.379 51.822 286.768 51.822"/><rect class="cls-8" x="95.5774" y="22.0065" width="4.9692" height="29.8153"/><rect class="cls-8" x="129.6521" y="22.0065" width="4.9692" height="29.8153"/><rect class="cls-8" x="163.7267" y="22.0065" width="4.9692" height="29.8153"/><rect class="cls-8" x="197.8013" y="22.0065" width="4.9692" height="29.8153"/><rect class="cls-8" x="231.8759" y="22.0065" width="4.9693" height="29.8153"/><rect class="cls-8" x="265.9506" y="22.0065" width="4.9692" height="29.8153"/><rect class="cls-1" x="97.7071" y="63.8899" width="51.1491" height="22.0066"/><rect class="cls-9" x="99.6015" y="66.0196" width="47.3602" height="18.4571"/><rect class="cls-1" x="153.5922" y="63.8899" width="51.1491" height="22.0066"/><rect class="cls-9" x="155.4866" y="66.0196" width="47.3603" height="18.4571"/><rect class="cls-1" x="209.4773" y="63.8899" width="51.1491" height="22.0066" transform="translate(470.1038 149.7864) rotate(-180)"/><rect class="cls-9" x="211.3718" y="66.0196" width="47.3603" height="18.4571" transform="translate(470.1038 150.4963) rotate(-180)"/><rect class="cls-10" x="108.3554" y="137.0084" width="96.5448" height="83.0569"/><path class="cls-11" d="M100.5467,134.1689h17.7472a0,0,0,0,1,0,0v85.8965a0,0,0,0,1,0,0h-6.7875a10.96,10.96,0,0,1-10.96-10.96V134.1689A0,0,0,0,1,100.5467,134.1689Z"/><path class="cls-12" d="M142.4042,162.5644H165.253a22.61,22.61,0,0,1,22.61,22.61v34.891a0,0,0,0,1,0,0h-62.47a0,0,0,0,1,0,0V179.5759A17.0115,17.0115,0,0,1,142.4042,162.5644Z"/><path class="cls-1" d="M93.0321,100.1269l2.5453,43.2705h99.3844v76.6679H259.7a6.5089,6.5089,0,0,0,6.5036-6.2458l4.5223-111.7656a4.6682,4.6682,0,0,0-4.6086-4.8566L97.748,95.1849A4.6682,4.6682,0,0,0,93.0321,100.1269Z"/><polygon class="cls-13" points="94.742 129.2 204.9 129.2 204.9 112.872 93.782 112.872 94.742 129.2"/><rect class="cls-1" x="111.195" y="112.8722" width="4.2593" height="16.3275"/><rect class="cls-1" x="130.3619" y="112.8722" width="4.2593" height="16.3275"/><rect class="cls-1" x="149.5289" y="112.8722" width="4.2593" height="16.3275"/><rect class="cls-1" x="168.6959" y="112.8722" width="4.2593" height="16.3275"/><rect class="cls-1" x="187.8629" y="112.8722" width="4.2593" height="16.3275"/><circle class="cls-14" cx="236.4902" cy="160.7897" r="26.9757" transform="translate(2.7947 325.6148) rotate(-69.407)"/><path class="cls-15" d="M251.9332,153.3358H242.97v-7.7213a3.2821,3.2821,0,0,0-3.282-3.282h-6.5689a3.2821,3.2821,0,0,0-3.282,3.282v7.7213h-8.9636a3.282,3.282,0,0,0-3.282,3.2821v7.6337a3.282,3.282,0,0,0,3.282,3.282h8.9636v7.7213a3.282,3.282,0,0,0,3.282,3.282h6.5689a3.282,3.282,0,0,0,3.282-3.282v-7.7213h8.9635a3.282,3.282,0,0,0,3.282-3.282v-7.6337A3.282,3.282,0,0,0,251.9332,153.3358Z"/></g></svg>