<svg xmlns="http://www.w3.org/2000/svg" xmlns:xlink="http://www.w3.org/1999/xlink" viewBox="0 0 830.3434 703.463"><defs><style>.cls-1{fill:#00c832;}.cls-2{fill:url(#Безымянный_градиент_108);}.cls-3{fill:#82b378;}.cls-4{fill:url(#Безымянный_градиент_115);}.cls-5{fill:url(#Безымянный_градиент_110);}.cls-15,.cls-6{fill:#fff;}.cls-6{opacity:0.5;}.cls-7{fill:#dfebfd;}.cls-8{fill:#afcdfb;}.cls-9{fill:#cde0fb;}.cls-10{fill:#a8d29f;}.cls-11{fill:#f99746;}.cls-12{fill:#db6f26;}.cls-13{fill:#ffa969;}.cls-14{fill:#ffb27d;}.cls-16{fill:#163560;}.cls-17{fill:#b5453c;}.cls-18{fill:#efdece;}.cls-19{fill:#fcecdb;}.cls-20{fill:#1c468a;}.cls-21{fill:#233862;}.cls-22{fill:#ed975d;}.cls-23{fill:#ed7d2b;}.cls-24{fill:#8fb7ef;}.cls-25{fill:#f9ddbf;}.cls-26{fill:#285ba5;}.cls-27{fill:url(#Безымянный_градиент_110-2);}.cls-28{fill:#a6e473;}.cls-29{fill:#ffcb9c;}.cls-30{fill:#699dee;}.cls-31{fill:#548ee2;}.cls-32{fill:#f4d2b8;}.cls-33{fill:#568cdb;}.cls-34{fill:#d39e7a;}.cls-35{fill:#efcbab;}.cls-36{fill:#f4a269;}.cls-37{fill:#739af0;}.cls-38{fill:#4a75cb;}.cls-39{fill:#2b478b;}.cls-40{fill:#6bb7bf;}.cls-41{fill:#8ad8db;}.cls-42{fill:#ed9f4a;}.cls-43{fill:#ffb278;}.cls-44{fill:url(#Безымянный_градиент_19);}.cls-45{fill:#6b6b6b;opacity:0.52;}.cls-46{fill:url(#Безымянный_градиент_19-2);}.cls-47{fill:url(#Безымянный_градиент_19-3);}.cls-48{fill:url(#Безымянный_градиент_19-4);}.cls-49{fill:url(#Безымянный_градиент_19-5);}.cls-50{fill:url(#Безымянный_градиент_19-6);}.cls-51{fill:#e8e8e8;}.cls-52{fill:#c7dcf9;}.cls-53{fill:url(#Безымянный_градиент_19-7);}.cls-54{fill:url(#Безымянный_градиент_110-3);}</style><linearGradient id="Безымянный_градиент_108" x1="13.783" y1="601.9673" x2="207.1383" y2="601.9673" gradientUnits="userSpaceOnUse"><stop offset="0" stop-color="#00c832"/><stop offset="0.2257" stop-color="#00c957"/><stop offset="0.584" stop-color="#00cb8c"/><stop offset="0.8531" stop-color="#00cdad"/><stop offset="1" stop-color="#00cdba"/></linearGradient><linearGradient id="Безымянный_градиент_115" x1="58.7211" y1="537.8283" x2="666.2391" y2="143.3016" gradientTransform="translate(724.9601 681.1299) rotate(180)" gradientUnits="userSpaceOnUse"><stop offset="0" stop-color="#00c832"/><stop offset="0.1337" stop-color="#00c238"/><stop offset="0.3053" stop-color="#00b248"/><stop offset="0.4976" stop-color="#009862"/><stop offset="0.705" stop-color="#007387"/><stop offset="0.9223" stop-color="#0045b5"/><stop offset="1" stop-color="#0032c8"/></linearGradient><linearGradient id="Безымянный_градиент_110" x1="128.4987" y1="321.8615" x2="596.4615" y2="321.8615" gradientTransform="translate(724.9601 643.7229) rotate(180)" gradientUnits="userSpaceOnUse"><stop offset="0" stop-color="#a6e473"/><stop offset="1" stop-color="#01895d"/></linearGradient><linearGradient id="Безымянный_градиент_110-2" x1="128.4987" y1="649.4388" x2="596.4615" y2="649.4388" gradientTransform="translate(724.9601 1298.8777) rotate(180)" xlink:href="#Безымянный_градиент_110"/><linearGradient id="Безымянный_градиент_19" x1="48.127" y1="377.163" x2="52.8778" y2="374.7424" gradientUnits="userSpaceOnUse"><stop offset="0" stop-color="#00c832"/><stop offset="0.2844" stop-color="#009565"/><stop offset="0.6155" stop-color="#00609a"/><stop offset="0.8642" stop-color="#003fbb"/><stop offset="1" stop-color="#0032c8"/></linearGradient><linearGradient id="Безымянный_градиент_19-2" x1="-0.9437" y1="560.8115" x2="101.5422" y2="508.5923" xlink:href="#Безымянный_градиент_19"/><linearGradient id="Безымянный_градиент_19-3" x1="30.3735" y1="659.5248" x2="70.2275" y2="639.2182" xlink:href="#Безымянный_градиент_19"/><linearGradient id="Безымянный_градиент_19-4" x1="42.5122" y1="387.48" x2="59.0738" y2="379.0415" xlink:href="#Безымянный_градиент_19"/><linearGradient id="Безымянный_градиент_19-5" x1="36.8293" y1="408.8892" x2="67.6329" y2="393.194" xlink:href="#Безымянный_градиент_19"/><linearGradient id="Безымянный_градиент_19-6" x1="37.5098" y1="394.4485" x2="64.076" y2="380.9124" xlink:href="#Безымянный_градиент_19"/><linearGradient id="Безымянный_градиент_19-7" x1="39.2751" y1="391.0495" x2="61.4413" y2="379.7552" xlink:href="#Безымянный_градиент_19"/><linearGradient id="Безымянный_градиент_110-3" x1="107.3368" y1="26.5914" x2="617.6235" y2="26.5914" gradientTransform="translate(725.6827 40.1137) rotate(177.9365)" xlink:href="#Безымянный_градиент_110"/></defs><g id="Слой_2" data-name="Слой 2"><path class="cls-1" d="M590.4609,476.05s47.9391-7.9075,80.4829,18.8248,13.314,72.402,40.184,78.3133c38.7385,8.5226,127.8374,20.7506,118.54,104.5105-.94,8.4709-271.9452,0-271.9452,0L569.3444,497.26Z"/><path class="cls-2" d="M199.32,531.0733s-57.25-10.46-97,22.083-21.6319,59.2761-42.9243,66.25S7.9975,640.0249,14.7491,674.463H207.1383Z"/><path class="cls-3" d="M1.2862,674.463H27.1529c1.3858-1.1758-.9592-3.8459-3.41-4.0256a15.1166,15.1166,0,0,0-3.9477.4672c-.3558-4.7276-2.3885-25.9806-10.05-25.1266-8.6137.9559,0,9.36,2.4352,14.3344a118.3151,118.3151,0,0,1,4.5761,11.4639c-.6991.1516-1.4235.3-2.1627.4362-1.1419-3.5059-5.39-15.297-10.7922-14.61-6.3424.8043-3.7933,5.5323.7024,8.3387,3.2984,2.0637,7.3484,4.9968,9.273,6.4136a27.48,27.48,0,0,1-5.0589.4055C4.2876,672.4548,2.1249,673.7606,1.2862,674.463Z"/><rect class="cls-4" x="134.5135" y="26.5915" width="455.9331" height="627.947" transform="translate(724.9601 681.1299) rotate(-180)"/><rect class="cls-5" x="128.4987" y="311.7894" width="467.9628" height="20.1441" transform="translate(724.9601 643.7229) rotate(-180)"/><rect class="cls-6" x="191.6027" y="94.0933" width="129.9598" height="172.7511" transform="translate(513.1652 360.9378) rotate(-180)"/><rect class="cls-7" x="194.7739" y="97.2649" width="123.6166" height="166.4092"/><path class="cls-8" d="M288.9971,95.5774V142.971c0,.4151.0052.8224.0139,1.218.08,3.6967.516,6.5382,1.0389,6.5382h.15c.4853,0,.895-2.4459,1.0151-5.7486.01-.2721.019-.55.0242-.8339,0-.0194.0018-.0386.0018-.06.0069-.363.01-.7356.01-1.1139V95.3591Q290.112,95.44,288.9971,95.5774Z"/><path class="cls-8" d="M290.7107,144.7368c8.2062,0,14.8593,7.0347,14.8593,15.7122H275.8509C275.8509,151.7715,282.5039,144.7368,290.7107,144.7368Z"/><path class="cls-9" d="M289.5265,144.9282a6.1143,6.1143,0,0,1,1.3051-.1421c5.3471,0,9.6817,7.0126,9.6817,15.6629h-2.61C297.9031,152.5148,294.2561,145.9594,289.5265,144.9282Z"/><path class="cls-3" d="M293.2115,212.6126s7.3182-8.5377.4512-13.9609c0,0-5.0156-3.0366-9.1056-2.79,0,0,5.7953,9.718,3.9206,10.6844s-5.6773-11.294-5.6773-11.294-11.4142-1.107-15.0862.6584c0,0,9.7577,7.9855,7.7028,8.4606s-12.5949-7.3623-12.5949-7.3623-10.6238,1.808-10.0572,8.2887,4.227,8.482,5.8359,8.31,11.0205-3.7649,11.2253-2.4466-5.46,5.6262-9.4271,5.8278c0,0,7.49,8.26,12.4673,5.8763s5.4029-6.1628,8.5058-7.58,5.7521-1.4138,4.4707.0318-6.8968,2.85-8.6713,5.9891-3.3665,5.2559,1.7835,4.4808,13.5219-4.5433,13.8892-8.8586Z"/><path class="cls-3" d="M257.9849,205.4725s28.8544-1.1122,35.2266,7.14a20.87,20.87,0,0,0,5.746,8.0639l.676,1.8423s-5-5.2722-6.7893-5.5911C292.8442,216.9277,295.6424,206.7044,257.9849,205.4725Z"/><path class="cls-3" d="M298.9575,220.6765a18.12,18.12,0,0,1,6.6237,12.7644l-1.124.1005s-1.9784-8.4621-5.5537-11.7713S298.9575,220.6765,298.9575,220.6765Z"/><path class="cls-10" d="M312.0005,213.6373l1.593,3.4118c.0708.155.146.3187.2256.4869a.0131.0131,0,0,1,.0047.0088c.6859,1.4737,2.4119,2.4826,4.5666,3.1109V192.67c-1.5618.677-2.6154,1.1815-2.6154,1.1815s.6508,12.7582-1.4334,12.4972c-2.08-.2613,0-11.3245,0-11.3245-3.9033,1.1726-7.55,5.7263-7.55,5.7263C302.2381,208.172,312.0005,213.6373,312.0005,213.6373Z"/><path class="cls-3" d="M309.3937,223.1428v1.9516s.0355-.08.0977-.2212c.0043-.0089.0043-.0134.0087-.0177.08-.1993.1681-.3851.2567-.5709.0177-.0443.04-.0929.0622-.1416a1.0824,1.0824,0,0,0,.0484-.102c.1729-.3759.3894-.8319.6284-1.3276.0043-.0086.0043-.0131.009-.0174.978-2,2.3808-4.6025,3.319-5.1512a.0131.0131,0,0,0-.0047-.0088,2.1166,2.1166,0,0,1-.2256-.4869c-.3894-1.1506-.6768-4.2926,4.7969-9.0453v-1.6949c-3.1552,2.2836-5.58,4.7706-6.39,7.3284a20.7981,20.7981,0,0,1-2.5977,9.4923A.0453.0453,0,0,1,309.3937,223.1428Z"/><path class="cls-3" d="M309.3959,223.1408a18.03,18.03,0,0,0-1.8125,14.1943l1.0848-.2913s-1.0528-8.5831,1.1525-12.9S309.3959,223.1408,309.3959,223.1408Z"/><path class="cls-10" d="M300.3123,199.714s12.8689-7.2068,6.8632-16.9874c0,0-4.8043-6.0055-9.9522-7.55,0,0,2.7455,14.5849,0,14.9281s-1.8873-16.4724-1.8873-16.4724-13.5555-6.52-18.8745-6.0055c0,0,8.4077,14.2418,5.6621,13.8987s-12.1825-14.7568-12.1825-14.7568-13.8987-2.5737-16.13,5.6624,1.373,12.3544,3.4317,12.8693,15.2717.3431,14.9281,2.059-9.2655,4.4614-14.2418,2.9171c0,0,5.491,13.5553,12.6978,12.869s9.4374-5.1477,13.8986-5.4908,7.7214.8578,5.4906,2.0591-9.78.3936-13.3836,3.457-6.52,4.9508.1716,6.3236,18.703.5147,21.1054-4.633Z"/><path class="cls-3" d="M260.16,175.0052s36.0335,11.6679,40.1519,24.7088a27.3706,27.3706,0,0,0,3.4314,12.5258v2.5738s-3.7749-8.7508-5.8337-9.952C297.91,204.8616,305.9745,193.5367,260.16,175.0052Z"/><path class="cls-3" d="M303.7437,212.24a23.7651,23.7651,0,0,1,2.389,18.7106l-1.43-.384s1.3877-11.3141-1.5195-17.0044S303.7437,212.24,303.7437,212.24Z"/><path class="cls-11" d="M222.5518,237.2487s-19.0479-77.6009-20.423-84.1226a4.9234,4.9234,0,0,0-4.402-4.2276c3.3479-.3425,5.784-.3682,5.784-.3682,6.5905,0,12.4475,4.7168,14.5625,11.7277,4.6129,15.2913,22.4883,40.8886,31.093,69.61C248.7307,229.8562,222.5518,237.2487,222.5518,237.2487Z"/><path class="cls-11" d="M318.39,263.6742V249.1284c-3.4559-6.6735-6.9473-12.714-9.9655-17.4491q-.6969-1.0889-1.3544-2.08v-.0044c-.1413-.2169-.2831-.4247-.4244-.6329v-.0043c-.5756-.863-1.1288-1.664-1.6509-2.3941v-.0043c-.8055-1.1241-1.54-2.0932-2.1863-2.881a10.3486,10.3486,0,0,0-3.4426-2.6684l-.0047-.0045c-.115-.0575-.23-.115-.3449-.1682a15.94,15.94,0,0,0-1.6154-.6417c-.0575-.022-.1192-.04-.1772-.0618H297.22a24.3372,24.3372,0,0,0-5.2217-1.0311h-.0044a57.9717,57.9717,0,0,0-13.4354.584h-.0043c-.5929.0841-1.1858.1727-1.7744.27-2.5714.416-5.1069.9291-7.4876,1.478-.0091,0-.0178.0043-.0268.0043q-1.3075.2988-2.5446.6064c-.0618.0177-.1236.0308-.1858.0485H266.53c-.2877.0709-.5752.1461-.8586.217-1.2788.3274-2.4915.6549-3.6107.9691-4.6557,1.31-7.7443,2.4073-7.7443,2.4073l-.0182.6284-.0575,2.3456-.0306,1.15-.0843,3.381-.0043.1461-.0091.469-.0752,2.9385-.0087.2433-.6728,26.6846Z"/><path class="cls-12" d="M227.9862,236.2949l.0043.0618,1.8851,20.8567.385,4.2836c0,.0045,0,.0045.0044.0088l.1949,2.1684h76.7614A286.237,286.237,0,0,0,297.03,235.6575a98.1513,98.1513,0,0,0-4.2927-9.001,10.6494,10.6494,0,0,0-4.5493-4.2615,22.1748,22.1748,0,0,0-10.4613-1.8765c-.5087.0089-1.0268.0311-1.5532.062a57.8068,57.8068,0,0,0-6.8812.8542c-.0091,0-.0178.0043-.0268.0043q-1.314.2323-2.6509.5223H266.61a.0832.0832,0,0,0-.0311.0088h-.0043c-.19.04-.3851.0841-.5752.1284h-.0044c-1.4118.31-2.8324.6638-4.2572,1.0443-4.54,1.217-9.0939,2.7349-13.32,4.3058l-.239.0929c-1.5225.5621-2.9961,1.1375-4.4076,1.7038a.0045.0045,0,0,1-.0047.0046c-1.5134.6018-2.96,1.2035-4.319,1.7788l-.0087.0045c-.35.146-.6906.2921-1.0268.438h-.0043c-.3587.1549-.704.3055-1.0445.4559-1.1682.5088-2.2525.9957-3.2395,1.4471-.7165.323-1.38.6329-1.9866.9159-.4957.23-.9517.4471-1.3631.6418l-.0047.0043q-.232.1063-.4512.2124h-.0043c-.7615.3674-1.35.66-1.7481.8542C228.185,236.1932,227.9862,236.2949,227.9862,236.2949Z"/><path class="cls-13" d="M194.7739,148.82V263.6742H199.23c3.1686-.4469,6.3238-.9337,9.3951-1.46h.0044c5.2351-.8982,10.2088-1.9073,14.5369-3.0137,1.2745-.3273,2.4962-.6592,3.6466-1.0045.6949-.2079,1.3673-.416,2.0091-.6284.3583-.1152.7126-.2344,1.0532-.3539,4.828-1.6861,7.9612-3.536,8.3463-5.51.35-1.801-.5134-6.0894-2.1686-11.9129.0043-.0046,0-.0046-.0043-.0089-.2922-1.0531-.62-2.164-.9694-3.319-.159-.5265-.3275-1.0665-.4957-1.62-.0661-.2078-.1326-.42-.1992-.6327l-.0795-.2655c-.0618-.19-.1236-.3806-.1815-.5709-.0177-.0486-.0307-.0975-.0441-.1416v-.0045c-.3937-1.2347-.8012-2.5-1.23-3.8058-.615-1.8542-1.2611-3.7793-1.9426-5.7529-.8807-2.58-1.819-5.244-2.7926-7.9656-.2831-.7921-.5661-1.5843-.854-2.3851-1.022-2.8323-2.0752-5.7042-3.1418-8.5852-2.7437-7.4036-5.5891-14.8425-8.2313-21.6441-.7965-2.0445-1.5709-4.0316-2.3233-5.9433,0-.0043,0-.0088-.0043-.0088q-.7766-1.9983-1.5225-3.8722c-1.4425-3.664-2.4646-7.1779-3.4206-10.3508V162.91c-1.4248-4.7441-2.7083-8.7091-5.0359-11.2137a8.7256,8.7256,0,0,0-5.3769-2.7527c-.137-.0177-.2745-.0354-.4158-.0486H197.77a12.8631,12.8631,0,0,0-1.3984-.0752Z"/><path class="cls-13" d="M208.1829,263.6742H310.478c-1.4689-12.1519-3.4957-21.7724-6.2883-24.7773-1.2831-1.3807-3.7879-2.4427-7.16-3.2394-1.4823-.3494-3.1332-.65-4.921-.9071-2.9206-.416-6.2088-.7124-9.74-.9071-1.8587-.1063-3.7836-.1815-5.7573-.2347l-.9382-.0265h-.0043c-3.9741-.0884-8.125-.0884-12.307-.0221h-.0044c-3.0847.0486-6.1867.1372-9.2447.2478-.4512.0178-.9024.031-1.35.0487-1.2831.0531-2.558.1063-3.8147.1638-5.1155.2344-10.0054.5266-14.3646.823-.6192.0443-1.23.0841-1.8276.1283-.261.0178-.5177.0355-.7744.0532h-.0043c-.5666.04-1.12.0795-1.66.1238h-.0043c-.1331.0089-.27.0178-.3985.0266h-.0043c-.0843.0089-.1638.0134-.248.0177h-.0044c-2.8851.217-5.4167.4248-7.4655.5975-1.2874.1106-2.3851.2081-3.2659.2876-1.5665.1417-2.4339.23-2.4339.23l-.1283.416-7.7352,25.49h-.0044Z"/><path class="cls-14" d="M237.2136,186.5545s4.3847,1.5642,7.8381,8.5714,4.8825,25.8734,6.5935,26.053,14.7011-2.3473,14.7011-2.3473l-.3007,3.2373s-13.5128,8.9921-16.3356,7.3752-10.6165-23.41-11.1212-26.7081S237.2136,186.5545,237.2136,186.5545Z"/><path class="cls-15" d="M207.0355,184.1207s17.5725-3.7282,30.1781,2.4338c0,0,8.081,17.4,7.8325,20.35s-3.0567,15.2459-.5113,19.8882-23.3793,12.8895-28.0488,10.017S206.27,187.319,207.0355,184.1207Z"/><path class="cls-16" d="M270.0928,254.4651c1.1858,2.7483,2.7615,5.8681,4.5316,9.2091h23.8923c-2.7394-14.2983-5.1867-24.2461-6.408-28.9238-.5221-2-.8186-3.0357-.8186-3.0357a7.12,7.12,0,0,0-4.0847-3.642c-.0043-.0046-.0134-.0046-.022-.0089-3.2127-.925-6.9833,1.2258-10.342,4.3679-.3937.3716-.7879.7566-1.1682,1.15h-.0043a42.1093,42.1093,0,0,0-3.51,4.16c-2.4028,3.2349-4.0666,6.4122-4.2969,8.0319C267.5836,247.7165,268.4821,250.7478,270.0928,254.4651Z"/><path class="cls-16" d="M287.36,228.15s-5.3765-3.0809-17.5919-.43a77.0821,77.0821,0,0,0-22.2109,8.998l31.1527,1.2934Z"/><path class="cls-14" d="M211.9017,184.0767s-7.794-1.4272-8.8775,4.918-.1262,44.66,5.8432,46.59,30.46-8.8459,30.46-8.8459l-.7385-4.0908s-23.4287,3.19-24.2749,2.8369S211.9017,184.0767,211.9017,184.0767Z"/><path class="cls-17" d="M272.16,212.9538l1.1112-10.2178L258.82,221.7767s6.05,3.0133,6.405,2.4366S272.16,212.9538,272.16,212.9538Z"/><polygon class="cls-17" points="250.535 212.954 237.188 233.337 259.606 233.337 272.16 212.954 250.535 212.954"/><polygon class="cls-15" points="272.16 212.954 273.208 202.835 265.655 212.283 272.16 212.954"/><polygon class="cls-18" points="237.873 232.291 236.848 231.558 250.113 211.847 250.535 212.954 237.873 232.291"/><polygon class="cls-19" points="250.113 211.847 271.233 212.44 272.16 212.954 250.535 212.954 250.113 211.847"/><path class="cls-20" d="M243.0322,263.6742h23.8967c1.1591-3.2925,2.2127-6.3724,3.1639-9.2091,2.4075-7.1955,4.1642-12.86,5.2792-16.59.5934-1.9914,1.0091-3.4342,1.2394-4.2661.1591-.5486.2343-.8319.2343-.8319,0-.1149,0-.23-.0043-.345-.0355-2.6552-.9469-4.4211-2.4206-5.5051-.0752-.0577-.1551-.1107-.2346-.1638l-.0044-.0045c-2.4252-1.6064-6.2131-1.5355-10.1207-.65h-.0043a41.5631,41.5631,0,0,0-9.8463,3.7039,16.4851,16.4851,0,0,0-4.6864,3.3146q-.08.1-.1594.2125a7.7819,7.7819,0,0,0-.4162.6815,16.6111,16.6111,0,0,0-1.0484,2.487c-.0182.0487-.0354.0973-.0489.1459-.009.0266-.0177.0531-.0268.0754-1.3453,4.018-2.5488,10.4172-3.5934,17.7012v.0044C243.8019,257.3992,243.4039,260.5146,243.0322,263.6742Z"/><path class="cls-20" d="M274.1849,226.765s-9.2491-8.3025-46.9965,9.5777l30.9988.4674Z"/><path class="cls-14" d="M238.5888,222.6484s3.4339-2.3008,4.7-2.4784c1.4845-.2083,3.0839-2.078,2.9249-1.0123s-1.8021,2.441-2.2567,2.8872,2.5713.3693,3.7865-.2206c.5705-.2768,3.6129-1.0672,3.5909.0283a5.9158,5.9158,0,0,1-4.2071,4.4886c-1.3864.3131-8.052.5007-8.052.5007Z"/><path class="cls-21" d="M222.9187,166.2864s-6.5494,3.5844-1.5018,10.7463c0,0-5.69.82-7.1725-.78a4.653,4.653,0,0,0,.4991,1.0549s-5.5511-.5692-7.5917-2.609,3.3526-30.0977,18.2449-24.8068c0,0,13.1311.8254,9.83,15.693s1.6055,15.55,1.6055,15.55a7.0525,7.0525,0,0,1-2.1172.3911s-.9119-.5011-1.0277-1.06a3.4589,3.4589,0,0,0,.284,1.163s-5.3657-.2347-7.7322-2.6014S221.7324,169.2834,222.9187,166.2864Z"/><path class="cls-21" d="M220.6053,173.7638s-3.5631-5.0247-4.5869-9.4277c-.7308-3.1436-4.6937-16.0664,7.2149-14.9947,0,0,8.4107,1.2335,11.7525,3.2428,2.6574,1.5981,6.5581,5.145,2.9573,15.6268l-.8928,3.5239Z"/><path class="cls-14" d="M228.2774,188.8553c-.8846.6467-4.7714,1.4451-7.8826-.0953-2.9274-1.4462-4.2653-4.5831-3.8276-5.8631.44-1.287,1.7952-1.7168,3.2762-9.4539l.5692.2321,9.5676,3.9127s-.8376,3.0878-1.42,6.037C228.07,186.1009,228.7926,188.4789,228.2774,188.8553Z"/><path class="cls-22" d="M229.98,177.5878s-.8376,3.0878-1.42,6.037c-5.5381-1.2435-7.4906-6.8983-8.1475-9.95Z"/><path class="cls-14" d="M231.2952,180.7445s-13.2193-2.3537-11.6268-10.5633.9589-14.0423,9.466-12.8867,9.5348,4.6055,9.67,7.475S234.7745,181.1451,231.2952,180.7445Z"/><path class="cls-21" d="M234.86,155.35s-6.5045,10.9686-12.916,11.7-7.8908-2.0644-7.8908-2.0644a17.6979,17.6979,0,0,0,7.173-9.5587S232.5294,149.8037,234.86,155.35Z"/><path class="cls-21" d="M233.7387,156.0855s2.678,2.822,3.0873,5.2609.0713,7.2949,1.4961,7.3264c0,0,4.0558-6.8949,1.2161-11.5088C236.5274,152.2713,233.7387,156.0855,233.7387,156.0855Z"/><path class="cls-21" d="M234.2478,156.527s-4.4409,10.8739-12.7531,13.3986c0,0,8.7728-5.84,10.4708-13.19S234.2478,156.527,234.2478,156.527Z"/><path class="cls-21" d="M207.1513,174.6973c2.04,2.04,7.5914,2.6109,7.5914,2.6109a4.5942,4.5942,0,0,1-.4974-1.0562c2.9075,2.2244,9.8411.3542,9.8411.3542-5.6034-1.0731-4.0269-9.16-2.1427-9.556a174.3031,174.3031,0,0,1,3.8393-17.1167c-.2476-.0333-.3876-.0426-.3876-.0426C210.5049,144.6,205.1111,172.6591,207.1513,174.6973Z"/><path class="cls-15" d="M214.4449,183.4021s-8.59.13-10.8477,1.9853-3.3021,28.3763-3.3021,28.3763a18.4289,18.4289,0,0,1,7.724-.2524,25.6675,25.6675,0,0,0,8.4669,0Z"/><path class="cls-15" d="M228.9594,183.8813s10.83,2.171,13.301,5.046,7.45,17.3386,7.45,17.3386a4.9568,4.9568,0,0,0-2.9124,1.6282c-.9879,1.3364-4.2222.7076-4.2222.7076Z"/><path class="cls-11" d="M248.7052,263.6742c-1.4823-3.2216-2.9914-6.3236-4.4742-9.24V254.43c-2.96-5.8149-5.8147-10.8774-8.1777-14.6389.0043-.0046,0-.0046-.0043-.0089-.7922-1.27-1.5312-2.39-2.195-3.3367-.3012-.4293-.5886-.8187-.8587-1.1772-.0751-.1017-.1547-.199-.239-.2965a1.9422,1.9422,0,0,0-.1283-.1549,3.92,3.92,0,0,0-.2922-.3185c-.0617-.0709-.1283-.1417-.1987-.2081a1.5793,1.5793,0,0,0-.1509-.146,12.4022,12.4022,0,0,0-4.5445-2.6552,25.2733,25.2733,0,0,0-6.6026-1.217,50.45,50.45,0,0,0-7.24.1241h-.0044c-2.5091.2078-5.0359.5663-7.4789,1-.8362.1506-1.66.3053-2.469.4736a.0772.0772,0,0,0-.0311.0043h-.0177c-3.31.6727-6.3592,1.4471-8.8242,2.1332v29.6671Z"/><path class="cls-23" d="M231.0351,263.6742c-.2567-.7256-.5135-1.4558-.77-2.1684-.0044-.0043-.0044-.0043-.0044-.0088-.4779-1.3408-.96-2.6552-1.4382-3.93-1.3544-3.6066-2.6863-6.93-3.9167-9.8418a104.0456,104.0456,0,0,0-4.6111-9.7668c-.1106-.19-.2213-.38-.3449-.562a9.6128,9.6128,0,0,0-1.0225-1.3187,10.2225,10.2225,0,0,0-1.5268-1.3719,12.6084,12.6084,0,0,0-2.9646-1.6018,23.0477,23.0477,0,0,0-8.1868-1.3144c-.8453,0-1.717.0265-2.6021.08a.0772.0772,0,0,0-.0311.0043h-.0177c-1.4693.0886-2.9736.2524-4.5225.478-.2615.0355-.5178.0752-.7792.1195-.0575.0088-.1193.0177-.1945.0309-1.0977.1772-2.2083.3851-3.328.6152v30.5567Z"/><path class="cls-24" d="M172.981,276.2087v.4385H340.03v-.4385a12.59,12.59,0,0,0-12.59-12.5905H324.655V90.8673H188.3559V263.6182h-2.7845A12.5906,12.5906,0,0,0,172.981,276.2087ZM318.3157,127.7579h-123.62V97.2068h123.62Zm0,135.86h-123.62V134.8894h123.62Z"/><rect class="cls-15" x="196.5583" y="99.9396" width="119.5171" height="6.0105" transform="translate(512.6336 205.8897) rotate(-180)"/><rect class="cls-15" x="196.5583" y="109.3792" width="119.5171" height="6.0107" transform="translate(512.6336 224.7692) rotate(-180)"/><rect class="cls-15" x="196.5583" y="118.8191" width="119.5171" height="6.0107" transform="translate(512.6336 243.6489) rotate(-180)"/><rect class="cls-15" x="196.5583" y="127.66" width="119.5171" height="6.0107" transform="translate(512.6336 261.3307) rotate(-180)"/><rect class="cls-15" x="196.5583" y="137.6005" width="119.5171" height="6.0105" transform="translate(512.6336 281.2116) rotate(-180)"/><rect class="cls-15" x="309.3713" y="97.1092" width="1.1556" height="51.3768" transform="translate(619.8981 245.5951) rotate(-180)"/><rect class="cls-15" x="201.4127" y="97.1092" width="1.156" height="51.3768" transform="translate(403.9814 245.5951) rotate(-180)"/><rect class="cls-25" x="188.7513" y="394.473" width="129.9581" height="172.7509"/><path class="cls-15" d="M251.2087,397.585s-.3086,51.0479,51.4745,94.2c0,0-10.788,56.2676-9.2469,72.2109h24.8794V397.585Z"/><path class="cls-14" d="M246.6883,484.548a12.3009,12.3009,0,0,1,8.54,5.92c3.1591,5.3311,9.28,28.4011,13.7522,33.109s20.2449,14.1243,20.2449,14.1243l-4.0018,2.5895s-24.0112-7.2974-27.5424-11.5348-8.5178-26.9529-8.5178-26.9529Z"/><path class="cls-21" d="M241.3783,452.0816s-.3042-7.6043-11.25-8.0753-18.821,8.7577-19.18,13.7949,1.8773,12.877-5.3026,18.0794-3.6487,29.4162,13.3006,29.4162,27.048-.9866,27.1123-9.7365.338-16.677-6.3937-19.1084S241.3783,452.0816,241.3783,452.0816Z"/><path class="cls-20" d="M222.8789,549.3987s.0225.0708.0622.204c.0178.0527.0355.1106.0575.1814.0441.1505.1063.3449.1772.5839.0177.0532.035.1149.0531.1772.0619.19.128.4114.1989.65.0444.1417.0886.2922.1374.4512.385,1.2614.9071,3.0139,1.5311,5.1245.1547.5445.3229,1.1154.4957,1.7084.0838.2921.1724.5929.261.8984.0311.1015.0618.2079.0886.3142.0618.2078.1236.4157.1811.6283.0709.239.1417.4823.2126.7347.1638.5709.3319,1.1595.5043,1.7611.3985,1.4028.8147,2.8807,1.2348,4.4075h25.6049c-.0617-1.6063-.137-3.124-.23-4.5445-.0173-.3319-.04-.6552-.0618-.978-.1106-1.602-.2347-3.08-.363-4.4167-.035-.3539-.0661-.6992-.1016-1.0354-.0708-.6772-.1417-1.3142-.2126-1.9162-.0129-.1107-.0264-.217-.04-.3228-.0129-.1107-.0263-.217-.04-.3233-.08-.6374-.1547-1.2213-.23-1.7524-.0268-.1772-.0532-.35-.0752-.5177-.0225-.1638-.0488-.3276-.0709-.4823s-.0445-.3008-.0665-.4425-.0441-.2745-.0666-.4072c-.0086-.0665-.0173-.1283-.0307-.19-.0311-.1863-.0574-.3587-.0843-.5182-.022-.1058-.04-.2078-.0531-.3007-.0177-.093-.0355-.1816-.0484-.2611a3.4175,3.4175,0,0,0-.3055-.92c-.0355-.0708-.0752-.1417-.115-.2078s-.0795-.1332-.124-.1949a3.5266,3.5266,0,0,0-.3051-.376c-.0489-.0532-.102-.1063-.1552-.1552a1.9568,1.9568,0,0,0-.1767-.159c-.0488-.04-.0929-.0752-.1418-.1106-.0842-.0666-.1681-.1284-.2567-.1859-.0575-.04-.1149-.0751-.1772-.1106a4.363,4.363,0,0,0-.398-.2126c-.0708-.0355-.1461-.0709-.2213-.102-.0842-.04-.1728-.0752-.261-.1106-.0842-.0307-.1685-.0618-.2567-.0925-.08-.0311-.1638-.0579-.248-.0843a9.1531,9.1531,0,0,0-.9249-.239c-.0751-.0177-.15-.0311-.23-.0441-.12-.0268-.239-.0488-.363-.0665-.1637-.022-.3276-.0489-.4956-.0709-.1107-.013-.2213-.0263-.3363-.0354-.0886-.0087-.1815-.0178-.2744-.0264-.1547-.0134-.3142-.0268-.4736-.0354-.1859-.0091-.38-.0177-.5752-.0264-.8894-.0311-1.8411-.0091-2.8233.0527-.2256.0135-.4512.0312-.6816.0489-.376.0311-.7567.0661-1.1374.1063-.5484.0575-1.1063.124-1.6681.2035h-.0044c-.0488.0044-.1019.013-.1551.0221-.261.0354-.5221.0752-.7831.1149-.7878.12-1.5756.2567-2.3587.4028-.31.0575-.62.12-.9248.1815l-.85.1725c-.7922.1637-1.5714.3361-2.3233.5133-.2836.0666-.558.1327-.8324.1993a1.854,1.854,0,0,0-.2122.0531c-.137.0311-.27.0618-.3984.0973-.1993.0488-.3937.0972-.5886.146q-.4777.1264-.9292.239c-.12.0311-.239.0618-.3582.0929-.1906.0532-.3764.1016-.558.15-.5.1327-.9688.2658-1.4027.3894-.1993.0575-.3894.1106-.5709.1638-.159.0445-.3095.0886-.4555.1327a.3643.3643,0,0,0-.0666.0177c-.1283.04-.2523.0752-.3673.1063-.1106.0354-.2213.0666-.3233.0972-.1279.04-.2476.0752-.3582.1107-.0752.0224-.15.0445-.217.0665-.0795.0221-.1547.0441-.2212.0666C223.1049,549.3235,222.8789,549.3987,222.8789,549.3987Z"/><path class="cls-16" d="M222.8789,549.3987s.0225.0708.0622.204c.0178.0527.0355.1106.0575.1814.0441.1505.1063.3449.1772.5839.0177.0532.035.1149.0531.1772.0619.19.128.4114.1989.65.0444.1417.0886.2922.1374.4512.385,1.2614.9071,3.0139,1.5311,5.1245.1547.5445.3229,1.1154.4957,1.7084.0838.2921.1724.5929.261.8984.0311.1015.0618.2079.0886.3142.0618.2078.1236.4157.1811.6283.0709.239.1417.4823.2126.7347.1638.5709.3319,1.1595.5043,1.7611.3985,1.4028.8147,2.8807,1.2348,4.4075h25.6049c-.0617-1.6063-.137-3.124-.23-4.5445-.0173-.3319-.04-.6552-.0618-.978-.1106-1.602-.2347-3.08-.363-4.4167-.035-.3539-.0661-.6992-.1016-1.0354-.0708-.6772-.1417-1.3142-.2126-1.9162-.0129-.1107-.0264-.217-.04-.3228-.0129-.1107-.0263-.217-.04-.3233-.08-.6374-.1547-1.2213-.23-1.7524-.0268-.1772-.0532-.35-.0752-.5177-.0225-.1638-.0488-.3276-.0709-.4823s-.0445-.3008-.0665-.4425-.0441-.2745-.0666-.4072c-.0086-.0665-.0173-.1283-.0307-.19-.0311-.1863-.0574-.3587-.0843-.5182-.022-.1058-.04-.2078-.0531-.3007-.0177-.093-.0355-.1816-.0484-.2611a3.4175,3.4175,0,0,0-.3055-.92c-.0355-.0708-.0752-.1417-.115-.2078s-.0795-.1332-.124-.1949a3.5266,3.5266,0,0,0-.3051-.376c-.0489-.0532-.102-.1063-.1552-.1552a1.9568,1.9568,0,0,0-.1767-.159c-.0488-.04-.0929-.0752-.1418-.1106-.0842-.0666-.1681-.1284-.2567-.1859-.0575-.04-.1149-.0751-.1772-.1106a4.363,4.363,0,0,0-.398-.2126c-.0708-.0355-.1461-.0709-.2213-.102-.0842-.04-.1728-.0752-.261-.1106-.0842-.0307-.1685-.0618-.2567-.0925-.08-.0311-.1638-.0579-.248-.0843a9.1531,9.1531,0,0,0-.9249-.239c-.0751-.0177-.15-.0311-.23-.0441-.12-.0268-.239-.0488-.363-.0665-.1637-.022-.3276-.0489-.4956-.0709-.1107-.013-.2213-.0263-.3363-.0354-.0886-.0087-.1815-.0178-.2744-.0264-.1547-.0134-.3142-.0268-.4736-.0354-.1859-.0091-.38-.0177-.5752-.0264-.8894-.0311-1.8411-.0091-2.8233.0527-.2256.0135-.4512.0312-.6816.0489-.376.0311-.7567.0661-1.1374.1063-.5484.0575-1.1063.124-1.6681.2035h-.0044c-.0488.0044-.1019.013-.1551.0221-.261.0354-.5221.0752-.7831.1149-.7878.12-1.5756.2567-2.3587.4028-.31.0575-.62.12-.9248.1815l-.85.1725c-.7922.1637-1.5714.3361-2.3233.5133-.2836.0666-.558.1327-.8324.1993a1.854,1.854,0,0,0-.2122.0531c-.137.0311-.27.0618-.3984.0973-.1993.0488-.3937.0972-.5886.146q-.4777.1264-.9292.239c-.12.0311-.239.0618-.3582.0929-.1906.0532-.3764.1016-.558.15-.5.1327-.9688.2658-1.4027.3894-.1993.0532-.3894.1106-.5709.1638-.159.0445-.3095.0886-.4555.1327a.3643.3643,0,0,0-.0666.0177c-.1283.0354-.2523.0752-.3673.1063-.1106.0354-.2213.0666-.3233.0972-.1279.04-.2476.0752-.3582.1107-.0752.0224-.15.0445-.217.0665-.0795.0221-.1547.0441-.2212.0666C223.1049,549.3235,222.8789,549.3987,222.8789,549.3987Z"/><path class="cls-20" d="M210.2361,567.2239h25.3081c.6288-3.5536,1.2217-6.8372,1.7524-9.6911.9028-4.8813,1.6154-8.5231,1.9387-10.16.1236-.6288.19-.965.19-.965s-.2346-.2788-.646-.7477h-.0044c-2.6245-2.956-12.5417-13.4354-17.2812-8.625-.7744.7878-1.5972,1.624-2.4339,2.5359a32.7624,32.7624,0,0,0-7.5494,12.5236A37.2244,37.2244,0,0,0,210.2361,567.2239Z"/><path class="cls-14" d="M241.3783,488.1193l-4.28,6.4211-8.6254-.4244-3.9841-10.2992s1.229-.2325,1.8012-13.075l10.766,3.284a20.9756,20.9756,0,0,0,.1905,6.9936A11.6107,11.6107,0,0,0,241.3783,488.1193Z"/><path class="cls-14" d="M242.5784,483.5886c-.5535,0-10.695-3.3929-25.1763,2.5052,0,0,6.8748,39.3313,3.9219,46.8379a79.3067,79.3067,0,0,0-4.0752,14.1688l32.0355.3971s-.4478-25.7649,1.0285-34.8839S242.5784,483.5886,242.5784,483.5886Z"/><path class="cls-11" d="M210.9483,551.2466a6.5577,6.5577,0,0,0,3.22,2.73,30.678,30.678,0,0,0,6.1722,1.9823,59.5766,59.5766,0,0,0,6.2857.9978c1.3747.1556,2.8436.2874,4.3358.3722.2118.0142.424.0237.631.0332,9.6519.48,20.4614.2446,21.8694-4.3458a8.2193,8.2193,0,0,0,.0467-2.481c-.1832-2.3683-.7343-5.9089-1.271-9.2236-.5134-3.1686-1.0121-6.13-1.1534-7.6691-.7394-8.1358.8142-19.8166,1.0406-27.3777.1833-6.3044-5.4383-21.7186-5.4383-21.7186s-1.0687-.6357-5.2447-1.21c0,0-.6024,7.5659-4.4866,8.2063-6.7279,1.1111-12.1424-5.0472-13.7289-7.5282,0,0-7.7214,1.9491-9.9859,4.5338-1.6292,1.8548-1.4174,6.2948-.9321,9.0913a12.3144,12.3144,0,0,0,.49,2.0247c.48,1.2615,2.2878,10.5365,3.112,14.2323.019.0942.0376.1789.0562.2593.0566.2494.1037.4658.1508.6448a.0175.0175,0,0,1,.0047.0142c.0471.1975.0895.3531.1223.4521.0191.0609.038.1223.0566.1789a.0176.0176,0,0,0,.0048.0142,30.6983,30.6983,0,0,1,1.4879,12.4151,13.3224,13.3224,0,0,1-.372,1.9867C216.3486,535.38,211.8757,546.256,210.9483,551.2466Z"/><path class="cls-22" d="M237.246,481.0194c-4.45-.36-10.9565-10.2776-10.9565-10.2776l10.766,3.284A20.9756,20.9756,0,0,0,237.246,481.0194Z"/><path class="cls-11" d="M241.4427,483.3366s10.3308,1.1064,13.7855,5.9612,5.6509,12.1364,5.6509,12.1364-2.4659,7.3977-9.67,6.4729S241.4427,483.3366,241.4427,483.3366Z"/><path class="cls-14" d="M238.861,476.9429s-13.1428-.3989-12.7681-8.58-1.07-13.7414,7.3367-13.833,9.8935,3.1051,10.4324,5.8661S242.2893,476.8357,238.861,476.9429Z"/><path class="cls-21" d="M237.8468,453.4939s-.3989,2.7114-5.5784,6.265-6.0666,11.83-6.0666,11.83-3.9167-14.7.7675-18.0132S237.8468,453.4939,237.8468,453.4939Z"/><path class="cls-21" d="M233.6034,448.8577s6.7283-.637,11.5023,6.9076c2.0571,3.25.4516,8.326-1.6754,10.9928,0,0-.7-6.9378-4.37-9.2689S233.6034,448.8577,233.6034,448.8577Z"/><path class="cls-15" d="M235.8467,472.1735s.1193,1.0091,2.5813,1.1362c0,0,2.067.1072,2.1271-.98A6.6464,6.6464,0,0,0,235.8467,472.1735Z"/><path class="cls-3" d="M278.5389,526.6619s3.4659-4.0433.2139-6.6116a9.2265,9.2265,0,0,0-4.3125-1.3215s2.7446,4.6025,1.8565,5.06-2.6884-5.3488-2.6884-5.3488-5.4059-.5242-7.1449.312c0,0,4.6211,3.7818,3.6478,4.0065s-5.9646-3.4866-5.9646-3.4866-5.0312.8565-4.7629,3.9257,2.0018,4.017,2.7637,3.9353,5.2192-1.7831,5.3164-1.1591-2.586,2.6647-4.4646,2.76c0,0,3.5467,3.9119,5.9042,2.7831s2.5588-2.9188,4.0286-3.59,2.7238-.6695,2.1171.0151-3.2663,1.35-4.1068,2.8363-1.5943,2.4892.8449,2.1223,6.4037-2.1517,6.5774-4.1954Z"/><path class="cls-3" d="M261.8558,523.28s13.6653-.5263,16.6831,3.3817a9.881,9.881,0,0,0,2.7213,3.819l.32.8725s-2.3678-2.497-3.2153-2.6478C278.3647,528.7056,279.69,523.8637,261.8558,523.28Z"/><path class="cls-3" d="M281.26,530.4809a8.58,8.58,0,0,1,3.1366,6.0451l-.5324.0475s-.9365-4.0074-2.63-5.5748S281.26,530.4809,281.26,530.4809Z"/><path class="cls-10" d="M290.6566,521.5771s-5.513-3.0877-2.94-7.2775c0,0,2.0584-2.5731,4.2637-3.2348,0,0-1.1764,6.2486,0,6.3956s.8086-7.0572.8086-7.0572,5.8073-2.793,8.0861-2.5726c0,0-3.6021,6.1012-2.4262,5.9543s5.2193-6.3221,5.2193-6.3221,5.9542-1.1024,6.91,2.4261-.5882,5.2927-1.47,5.5131-6.5424.1469-6.3955.882,3.9694,1.9115,6.1013,1.25c0,0-2.3523,5.8074-5.44,5.5135s-4.0433-2.2057-5.9543-2.3526-3.3078.3677-2.3523.8824,4.19.1686,5.7335,1.4806,2.7935,2.121-.0735,2.7092-8.0122.22-9.0416-1.9849Z"/><path class="cls-3" d="M307.8578,510.9914s-15.4371,4.9988-17.2012,10.5857a11.7276,11.7276,0,0,1-1.47,5.3662v1.1024s1.6171-3.749,2.4992-4.2637C291.6856,523.782,288.2309,518.9306,307.8578,510.9914Z"/><path class="cls-3" d="M289.1864,526.9433a10.1807,10.1807,0,0,0-1.0234,8.0157l.6124-.1647s-.5946-4.8471.6509-7.2845S289.1864,526.9433,289.1864,526.9433Z"/><path class="cls-10" d="M281.8855,517.319s7.2676-4.07,3.8761-9.593c0,0-2.7132-3.3916-5.62-4.2637,0,0,1.55,8.2365,0,8.43s-1.0661-9.3022-1.0661-9.3022-7.6548-3.682-10.6588-3.3916c0,0,4.7482,8.0429,3.1976,7.8489s-6.88-8.3333-6.88-8.3333-7.8489-1.4534-9.1086,3.1979.7748,6.9768,1.9378,7.2672,8.6241.1937,8.43,1.163-5.2321,2.519-8.0425,1.6469c0,0,3.1008,7.6553,7.17,7.2676s5.33-2.9071,7.8489-3.1007,4.3605.4845,3.1012,1.1629-5.5235.2222-7.5585,1.9521-3.682,2.7961.0968,3.5709,10.5624.2909,11.919-2.6158Z"/><path class="cls-3" d="M259.211,503.3655s20.3486,6.5891,22.6745,13.9535a15.4613,15.4613,0,0,0,1.9378,7.0736v1.4534s-2.1318-4.9417-3.2943-5.62C280.529,520.2262,285.0831,513.8307,259.211,503.3655Z"/><path class="cls-3" d="M283.8233,524.3926a13.4205,13.4205,0,0,1,1.3492,10.5664l-.8073-.217s.7835-6.3895-.8582-9.6026S283.8233,524.3926,283.8233,524.3926Z"/><path class="cls-20" d="M267.8948,533.3025a14.2356,14.2356,0,1,0,28.4711,0Z"/><path class="cls-26" d="M282.1305,547.5383a13.9229,13.9229,0,0,1-1.7346,0,14.2356,14.2356,0,0,0,14.2353-14.2358h-3.5368C291.0944,540.5658,289.1583,546.6674,282.1305,547.5383Z"/><path class="cls-16" d="M267.6981,548.2629h28.8648a1.7573,1.7573,0,0,0-1.7567-1.7567H269.454A1.7567,1.7567,0,0,0,267.6981,548.2629Z"/><rect class="cls-16" x="267.5707" y="533.3025" width="29.2637" height="0.4365" transform="translate(564.405 1067.0414) rotate(-180)"/><path class="cls-14" d="M267.0015,538.6116c.3224-.7585,3.4115-1.5053,4.6423-2.0381,0,0,.7831.5622-.2645,1.4879-.2835.2507-.8086.6357-1.3047.9871.1512-.0389.3008-.0778.4473-.1176,1.1011-.2969,8.2257,2.1314,9.0719,3.7131s-4.0878,5.5278-7.7724,4.2879c-1.8929-.6365-8.0749-1.7576-8.0749-1.7576l1.0346-5.0014S266.6787,539.37,267.0015,538.6116Z"/><path class="cls-14" d="M212.068,491.7611s-1.468,10.1584,9.1251,25.2243,9.9776,16.0077,16.0529,20.01,26.5005,8.1794,26.5005,8.1794l1.0346-5.0014s-19.8119-12.74-21.6953-15.2565-14.6134-30.8-14.6134-30.8Z"/><path class="cls-11" d="M222.2346,487.9875s8.4517,6.6272,10.6989,9.8637,4.3125,10.48,4.3125,10.48-8.8467,5.5481-24.1041,1.5411c0,0-4.0618-18.8685.0994-21.3236a8.9018,8.9018,0,0,1,8.0153-.561Z"/><path class="cls-15" d="M247.818,397.585s-9.46,41.801-53.1224,56.596c0,0,.4145,64.4207,5.3463,81.3735a182.7627,182.7627,0,0,1,6.1647,28.4417h-11.511V397.585Z"/><path class="cls-24" d="M172.981,576.5867v.4382H340.03v-.4382a12.59,12.59,0,0,0-12.59-12.59H324.655V391.2452H188.3559v172.751h-2.7845A12.5906,12.5906,0,0,0,172.981,576.5867Zm145.3347-148.451h-123.62V397.585h123.62Zm0,135.8605h-123.62V435.2676h123.62Z"/><rect class="cls-27" x="128.4987" y="617.4146" width="467.9628" height="64.0484" transform="translate(724.9601 1298.8777) rotate(-180)"/><path class="cls-28" d="M485.315,703.463s8.67-31.1617,44.6955-41.62,33.7009-5.23,66.24-23.8228,83.6713-6.9728,94.13,8.1345,34.863,23.2422,68.564,22.6611,35.4044,32.24,35.4044,32.24Z"/><rect class="cls-6" x="398.5042" y="394.4713" width="129.9594" height="172.7514" transform="translate(926.9677 961.6939) rotate(-180)"/><rect class="cls-29" x="401.6736" y="397.6412" width="123.62" height="166.4116" transform="translate(926.9672 961.6939) rotate(-180)"/><path class="cls-21" d="M474.9082,544.18s7.128,9.7223,7.128,19.8733H433.6517s2.592-15.7695,13.6082-19.8733S474.9082,544.18,474.9082,544.18Z"/><path class="cls-14" d="M415.6954,491.7867s7.6095,19.3551,8.4576,20.0388C426.44,513.67,440.5,492.2,442.66,488.4534s15.5083-.5428,16.644-7.51a54.2314,54.2314,0,0,0,1.064-5.985c.0015-.1785.0006-.3634,0-.545a38.9735,38.9735,0,0,0-.3012-4.3955l.6659.0519,11.1973.8635a13.2478,13.2478,0,0,0-.7472,5.9607c.1236,1.0623.1675,3.06.2984,5.0152a5.1979,5.1979,0,0,0,3.7207,4.6453c4.7974,1.408,10.7387,3.5213,11.775,6.19,2.0161,5.1906,6.5522,28.6435,7.4163,36.5909s8.928,31.26,8.928,31.26h-4.032s-15.12-25.4317-16.4163-29.4054c-.3978-1.22-1.8384-6.084-3.6433-12.2383-1.6874,6.6932-4.0912,13.3736-4.61,16.0862-.91,4.7521,7.8217,20.0885,6.9576,24.3392s-47.0886,6.5494-46.4589,0,7.1464-17.6429,8.4425-22.827c.9769-3.9081-1.2887-16.9558-1.9929-24.7036-7.0611,8.065-16.662,15.59-19.6073,14.0474-7.56-3.96-9.9362-33.1925-9.9362-33.1925Z"/><path class="cls-21" d="M468.3015,463.994s6.0222,4.7944.9357,11.7224c0,0,5.8981-.242,7.3819-1.7836a4.5566,4.5566,0,0,1-.5093,1.0251s5.4549-.4529,7.4951-2.4144-2.7169-29.5813-17.4225-24.6755c0,0-12.8936.56-9.9388,15.2042s-1.87,15.22-1.87,15.22a6.917,6.917,0,0,0,2.0688.424s.9036-.4741,1.0281-1.02a3.3908,3.3908,0,0,1-.3006,1.1353s5.2667-.1284,7.6326-2.4045S469.4079,466.9561,468.3015,463.994Z"/><path class="cls-21" d="M473.6178,470.0305s2.6035-5.4526,2.8563-9.88c.18-3.1608-2.7647-14.4446-14.096-11.4168a15.7724,15.7724,0,0,0-6.2023,3.2308c-2.3013,1.9892-5.4781,6.07-.2446,15.5988l1.4527,3.2563Z"/><path class="cls-22" d="M459.3038,480.9438c8.0841-1.18,12.6426-9.6838,12.6426-9.6838-3.2972-.3665-7.896,1.31-11.5791,3.1538.0011.1816.0017.3665,0,.545A29.1124,29.1124,0,0,1,459.3038,480.9438Z"/><path class="cls-14" d="M459.1988,477.7156s14.5147-1.49,13.4479-10.5145.0879-15.295-9.2245-14.7254-10.7024,4.2261-11.079,7.3247S455.3957,477.8707,459.1988,477.7156Z"/><path class="cls-21" d="M456.7981,453.0423s5.23,10.1129,11.5034,10.9517,8.72-1.1071,8.72-1.1071a17.36,17.36,0,0,1-6.8532-9.5106S459.1888,447.6468,456.7981,453.0423Z"/><path class="cls-21" d="M457.8837,453.7843s-2.68,2.717-3.128,5.1012-.2083,7.1527-1.6061,7.1566c0,0-3.8468-6.8389-.9743-11.31C455.2212,449.9908,457.8837,453.7843,457.8837,453.7843Z"/><path class="cls-21" d="M457.3763,454.2078s4.1488,10.7487,12.2528,13.3822c0,0-8.4932-5.8942-10.0187-13.1345S457.3763,454.2078,457.3763,454.2078Z"/><path class="cls-15" d="M462.1742,472.4458s-.362,1.3-1.2509,1.4944a12.3711,12.3711,0,0,1-3.42.2727,11.3389,11.3389,0,0,1-.9028-1.3237S460.3269,472.0318,462.1742,472.4458Z"/><path class="cls-14" d="M415.8482,492.88s.2617-6.8891-.4706-9.2547-2.3257-6.1773-2.6848-6.017-1.0666,5.3216-.7675,6.4807-.3055,3.9054-.7658,3.357-1.18-4.2123-1.7831-3.9966-.0415,2.4417-.33,3.0014-.2666,2.057.9046,3.9577,2.3029,4.0752,2.3029,4.0752Z"/><path class="cls-14" d="M502.45,560.5955s5.8368-1.3985,7.7562-.7351,5.42,4.08,4.5163,4.1358-4.9115-1.0247-5.4762-.8808-2.2016.3565-2.2016.3565,2.371.15,2.2583.5809-6.141.5052-6.853,0a38.9429,38.9429,0,0,1-3.1614-3.4573Z"/><path class="cls-15" d="M481.4329,488.7045s-7.3255,6.2676-16.645,5.7788-16.6684-8.154-16.6684-8.154-4.2436.0333-6.4757,2.4094-10.7281,13.0321-10.7281,13.0321-.7447,7.9937,8.8007,13.5742l.9673-1.7269s1.6081,19.9052.6,21.7769-8.928,21.4619-7.6321,24.4654,44.6565,10.3947,47.9245-.4832-4.8906-20.31-4.5552-24.1979,2.2079-16.2275,2.2079-16.2275,12.5275-1.9167,12.96-9.4051C492.1885,509.5467,489.9737,488.5986,481.4329,488.7045Z"/><path class="cls-24" d="M379.882,576.5867v.4382H546.9312v-.4382a12.5905,12.5905,0,0,0-12.59-12.59h-2.7848V391.2452H395.2573v172.751h-2.7848A12.5907,12.5907,0,0,0,379.882,576.5867Zm145.3347-148.451h-123.62V397.585h123.62Zm0,135.8605h-123.62V435.2676h123.62Z"/><rect class="cls-15" x="403.4593" y="400.3175" width="119.5171" height="6.0105" transform="translate(926.4357 806.6455) rotate(-180)"/><rect class="cls-15" x="403.4593" y="409.7572" width="119.5171" height="6.0109" transform="translate(926.4357 825.5253) rotate(-180)"/><rect class="cls-15" x="403.4593" y="419.1973" width="119.5171" height="6.0105" transform="translate(926.4357 844.405) rotate(-180)"/><rect class="cls-15" x="403.4593" y="428.038" width="119.5171" height="6.0105" transform="translate(926.4357 862.0864) rotate(-180)"/><rect class="cls-15" x="403.4593" y="437.9785" width="119.5171" height="6.0105" transform="translate(926.4357 881.9675) rotate(-180)"/><rect class="cls-15" x="516.2723" y="397.4869" width="1.1558" height="51.3772" transform="translate(1033.7004 846.3511) rotate(-180)"/><rect class="cls-15" x="408.3141" y="397.4869" width="1.1556" height="51.3772" transform="translate(817.7839 846.3511) rotate(-180)"/><path class="cls-19" d="M432.2919,552.9692h18.4717a1.6634,1.6634,0,0,1,1.6634,1.6634v2.9242a1.6264,1.6264,0,0,1-1.6264,1.6264H432.2919a0,0,0,0,1,0,0v-6.214A0,0,0,0,1,432.2919,552.9692Z" transform="translate(884.7189 1112.1524) rotate(-180)"/><path class="cls-30" d="M417.2746,555.5259v.9347a2.7208,2.7208,0,0,0,2.7225,2.7222h32.9693a.3948.3948,0,0,0,.3948-.3946v-.14a.3951.3951,0,0,0-.3948-.3946H432.8686a2.5354,2.5354,0,0,1-.5767-1.612v-1.1879a2.4748,2.4748,0,0,1,.5473-1.5554h20.1272a.3948.3948,0,0,0,.3948-.395v-.14a.3945.3945,0,0,0-.3948-.3945H419.8312a2.5543,2.5543,0,0,0-2.5566,2.5567Z"/><path class="cls-31" d="M417.3731,554.821h15a2.4828,2.4828,0,0,1,.4659-.9227h20.1272a.3948.3948,0,0,0,.3948-.395v-.14a.3945.3945,0,0,0-.3948-.3945H419.8312A2.557,2.557,0,0,0,417.3731,554.821Z"/><polygon class="cls-32" points="452.427 556.076 449.986 556.181 452.427 556.243 452.427 556.076"/><polygon class="cls-32" points="452.427 557.051 446.619 557.156 452.427 557.218 452.427 557.051"/><path class="cls-17" d="M448.6629,563.9962h-18.73v-4.8333h18.8816a2.3407,2.3407,0,0,1,2.3408,2.3406h0A2.4926,2.4926,0,0,1,448.6629,563.9962Z"/><path class="cls-19" d="M409.6923,559.1629h22.4851a1.2651,1.2651,0,0,1,1.2651,1.2651v2.2744a1.2938,1.2938,0,0,1-1.2938,1.2938H409.6923a0,0,0,0,1,0,0v-4.8333A0,0,0,0,1,409.6923,559.1629Z"/><path class="cls-17" d="M434.8656,563.9962H408.952a.3612.3612,0,0,1-.3613-.3613h0a.3612.3612,0,0,1,.3613-.3613h25.9136a.3613.3613,0,0,1,.3615.3613h0A.3614.3614,0,0,1,434.8656,563.9962Z"/><path class="cls-17" d="M434.8656,559.8859H408.952a.3616.3616,0,0,1-.3613-.3617h0a.3614.3614,0,0,1,.3613-.3613h25.9136a.3616.3616,0,0,1,.3615.3613h0A.3617.3617,0,0,1,434.8656,559.8859Z"/><polygon class="cls-32" points="409.692 561.58 412.572 561.661 409.692 561.71 409.692 561.58"/><polygon class="cls-32" points="409.692 560.467 416.543 560.548 409.692 560.598 409.692 560.467"/><path class="cls-30" d="M416.4723,560.5324a1.1286,1.1286,0,0,0-.3909.5489.7911.7911,0,0,0-.03.191c-.0164.4537,0,1.48,0,1.48l-.8669-.5134-.8643.5134v-1.3911a1.1052,1.1052,0,0,1,.2117-.6867.3277.3277,0,0,1,.2394-.1422Z"/><path class="cls-33" d="M416.4723,560.5324a1.1286,1.1286,0,0,0-.3909.5489l-1.7369.02s.0683-.4888.4265-.5692Z"/><rect class="cls-7" x="401.2017" y="94.0918" width="129.9579" height="172.7509"/><path class="cls-15" d="M468.7037,97.2068s.3083,51.0482-51.4748,94.2006c0,0,10.7883,56.2674,9.247,72.2108H401.5967V97.2068Z"/><path class="cls-34" d="M515.0564,194.0736s10.8293,1.5318,13.6232,3.9765c4.7159,4.1263,1.26,66.9465,1.26,66.9465s-16.2926,1.3457-16.2926,0S515.0564,194.0736,515.0564,194.0736Z"/><path class="cls-35" d="M472.5773,265.1124l23.2949,1.73,16.2319,1.2039,3.4253.2566.2124-1.4605.1859-1.2921.04-.2876.8185-5.6822.0044-.0176.3232-2.2392.9957-6.9124,5.1023-35.3318,1.4205-9.8463s1.08-9.2886-7.5582-10.802c-.6329-.1107-1.3013-.23-1.9871-.3542-.0089,0-.022-.0043-.0311-.0043-2.9251-.5223-6.2707-1.1241-9.5631-1.5446a54.75,54.75,0,0,0-7.7751-.5309,22.9265,22.9265,0,0,0-2.8722.2167,10.6184,10.6184,0,0,0-3.0134.8322,2.3829,2.3829,0,0,0-.2833.1415,4.87,4.87,0,0,0-.9073.5929,4.1235,4.1235,0,0,0-.323.2965,6.5528,6.5528,0,0,0-1.0178,1.8321c-.416.9869-.88,2.3013-1.3853,3.89-.7036,2.2083-1.4823,4.9342-2.3056,8.01-2.2964,8.616-4.9339,19.9714-7.2352,30.3-.0708.3142-.1417.6241-.2081.9339-.2964,1.332-.5883,2.6464-.8673,3.93-.0132.062-.0309.1238-.0443.1858-.0532.239-.1018.478-.1547.7169-.1418.6373-.2789,1.27-.4162,1.89-.2653,1.239-.5265,2.4427-.7787,3.6022-1.6906,7.8415-2.9253,13.7937-3.2438,15.3469C472.6039,264.9752,472.5773,265.1124,472.5773,265.1124Z"/><path class="cls-36" d="M487.3073,199.5752s-3.6816,5.448-5.7815,16.9011c-1.839,10.03-3.4516,13.7336-6.1075,15.7907s-17.4529,8.13-17.4529,8.13l1.1063,2.5921s21.6886-2.9536,24.1246-6.5785,11.7239-25.0413,11.003-29.9737S487.3073,199.5752,487.3073,199.5752Z"/><path class="cls-23" d="M437.6219,266.8427h17.9048c.4469-1.7832,1.1107-2.9118,2.3719-2.9781,1.1372-.0621,7.3018.5929,14.7628.85,11.8377.4116,26.9326-.1682,30.3311-6.1557a20.5123,20.5123,0,0,0,1.8276-4.257v-.0046c.0666-.2078.124-.407.1815-.6106a21.8437,21.8437,0,0,0,.6772-7.1691,23.6657,23.6657,0,0,0-.4737-3.3676,19.8058,19.8058,0,0,0-1.2524-4.0094l-5.8458,4.2793h-.0043l-.6552.478s-5.0225-.376-11.9306-.6681c-1.5311-.0621-3.1552-.1241-4.841-.1727q-1.255-.04-2.5491-.0663c-.2745-.0089-.5532-.0134-.8276-.0177-2.0889-.0443-4.2306-.0664-6.3636-.0664-.2123,0-.4248,0-.6328.0044-.5044,0-1.0046.0045-1.5046.0088-8.2489.084-16.086.624-20.0643,2.1286a7.7924,7.7924,0,0,0-1.4382.69l-.04.0266C444.3882,247.6369,440.9055,256.399,437.6219,266.8427Z"/><path class="cls-11" d="M454.053,266.8427h41.8192l16.2319,1.2039a13.5053,13.5053,0,0,0,2.1286-1.2039,8.65,8.65,0,0,0,1.5-1.301c.08-.0929.1592-.1858.2346-.2787a5.6787,5.6787,0,0,0,.6638-1.0091,8.42,8.42,0,0,0,.9957-4.5537v-.0043a8.6417,8.6417,0,0,0-.5134-2.3719,14.2888,14.2888,0,0,0-3.2306-4.9033,32.5556,32.5556,0,0,0-8.1691-5.9035h-.0352c-.4648.0223-5.3415.2656-11.7848.8056H493.89c-.6193.0486-1.2522.1061-1.8983.1592h-.0045c-5.04.4514-10.8023,1.0666-16.0815,1.8853-6.8106,1.0575-12.8157,2.4471-15.4311,4.2438C458.4386,255.01,456.2214,260.0987,454.053,266.8427Z"/><path class="cls-17" d="M490.6414,193.7808a10.4568,10.4568,0,0,0,.9648,1.4871,7.8237,7.8237,0,0,0,.9868,1.062c.0929.0841.1858.1636.2833.2433-.0664-.12-.1372-.2478-.2038-.385-.1547-.3008-.31-.6416-.4689-1.04a20.5834,20.5834,0,0,1-.6549-1.96,36.1768,36.1768,0,0,1-.8939-4.31,33.0559,33.0559,0,0,0,1.1772,4.1688c.2433.6638.522,1.35.8405,2.0134.102.2258.217.4471.3319.6638a10.9193,10.9193,0,0,0,1.0268,1.602c.1241.0707.2433.1415.3674.2167h.0043c.0443.0266.0843.0489.124.0752a26.4421,26.4421,0,0,1,2.77,1.9783c.4956.3938,1,.823,1.509,1.27h.0044q.6107.544,1.2346,1.1283c1.7836,1.6729,3.6023,3.5889,5.3459,5.58.385.4382.7655.8851,1.1417,1.3321.9869,1.1638,1.9383,2.3453,2.8367,3.5048.677.8762,1.3231,1.7392,1.9294,2.58,1.2833,1.7745,2.39,3.4474,3.2392,4.8856,1.1507,1.9514,1.8234,3.4782,1.81,4.2615v.0089s4.3856-5.81,6.8638-9.0676c.9559-1.2611,1.6286-2.1373,1.655-2.155,0,0,6.147-8.9878,1.8721-16.002a12.82,12.82,0,0,0-5.1734-4.5934c-6.4962-3.4207-6.7927-8.3461-6.8193-12.643-.0222-4.2927-3.2129-22.5736-15.3956-16.9225a8.15,8.15,0,0,0-2.9562-.562,2.4764,2.4764,0,0,1,1.1417.4514,9.7124,9.7124,0,0,0-5.182,1.3541c-.9116.6018-1.7435,2.0932-2.425,4.1289v.0043c-.0443.1329-.0884.2656-.1329.4028-.2788.8982-.5309,1.885-.7477,2.9428a45.2454,45.2454,0,0,0-.8055,6.0405c-.0487.7081-.0841,1.4205-.0972,2.1374v.0046a.5412.5412,0,0,0-.0046.084C488.0173,184.93,488.7165,190.2406,490.6414,193.7808Z"/><path class="cls-14" d="M494.2469,194.82c.2141-.09.4624-.1841.7245-.28-.0145-.5541-.0451-1.1468-.0869-1.7477-.189-2.74-.5931-5.6356-.5931-5.6356l9.1224-2.4471.5426-.1448a28.3662,28.3662,0,0,0,1.7881,8.6352c.9445.043,1.5454.0992,1.5454.0992a3.4968,3.4968,0,0,1-.5074,2.359,3.2721,3.2721,0,0,1,.1491.45c.5674,2.5519-5.8605,6.1582-8.8407,6.29a3.1105,3.1105,0,0,1-3.1621-1.4968C491.2935,199.9605,491.5794,195.9354,494.2469,194.82Z"/><path class="cls-36" d="M494.2914,187.1571s.4041,2.8953.5931,5.6356c5.1635-.4907,7.5833-5.392,8.5293-8.0827Z"/><path class="cls-17" d="M504.3015,183.64a27.243,27.243,0,0,0,2.8319-8.17c.29-2.6459-1.688-12.25-11.3353-10.2046a13.2645,13.2645,0,0,0-5.35,2.4406c-2.0195,1.5694-4.8659,4.8564-.8894,13.0871l1.0769,2.7982Z"/><path class="cls-14" d="M492.7367,189.8674s12.253-.6141,11.7532-8.2387.7448-12.8392-7.0995-12.7694-9.1722,3.0787-9.6242,5.6643S489.5366,189.8307,492.7367,189.8674Z"/><path class="cls-17" d="M491.8034,169.0442s3.9474,8.7212,9.1787,9.7009,7.37-.5471,7.37-.5471a14.5967,14.5967,0,0,1-5.3371-8.2866S494.0474,164.6185,491.8034,169.0442Z"/><path class="cls-17" d="M492.6824,169.7149s-2.3695,2.1639-2.85,4.146-.4887,5.9973-1.6627,5.9389c0,0-2.93-5.9113-.3219-9.54C490.6131,166.4128,492.6824,169.7149,492.6824,169.7149Z"/><path class="cls-37" d="M480.4768,244.5369c.9915,1.1856,4.0875,1.5494,7.3966,2.094a22.2136,22.2136,0,0,1,7.284,2.1113c4.4169,2.5932,18.8482,11.3578,23.0778,10.9589,1.64-.1543,1.333-3.2848.34-7.4383-1.5635-6.5593-4.8362-15.6688-4.8362-19.63a115.07,115.07,0,0,0-1.68-13.1257q-.1172-.7072-.2375-1.4268c-1.9-11.3714-4.5314-24.78-4.5314-24.78s-2.9346,6.4033-8.6534,6.4033c-5.717,0-4.3892-4.8832-4.3892-4.8832s-5.2177.6137-6.45,1.9415-4.36,7.0673-4.98,8.6328c0,0-.1266,1.9916,4.8052,2.94a64.7069,64.7069,0,0,0-1.3434,9.01c-.1058,2.6625,1.8166,10.9954,2.3695,16.1783a9.5692,9.5692,0,0,1-.0762,3.93c-.3814.8373-1.6156,1.6711-3.02,2.4894C482.7648,241.5655,479.3,243.1274,480.4768,244.5369Z"/><path class="cls-38" d="M485.5522,239.9432c-3.1651,5.3962,8.5843,7.0187,10.5292,8.1611,4.4169,2.5932,17.9242,11.9957,22.1538,11.5968,1.64-.1543,1.333-3.2848.34-7.4383-1.5635-6.5593-4.8362-15.6688-4.8362-19.63a115.07,115.07,0,0,0-1.68-13.1257l-5.0911-4.8884s-5.4553,14.1-10.6558,16.4106a43.72,43.72,0,0,1-7.6637,2.4944,9.5692,9.5692,0,0,1-.0762,3.93C488.1906,238.2911,486.9564,239.1249,485.5522,239.9432Z"/><rect class="cls-21" x="468.4383" y="243.8746" width="16.0167" height="1.8924" transform="translate(952.8933 489.6416) rotate(-180)"/><path class="cls-21" d="M471.84,245.5079c-.1567-.6264-14.7239-23.5-14.7239-23.5H424.7044l16.2572,22.8861Z"/><path class="cls-39" d="M470.4764,245.767c-.1567-.6262-14.7708-23.76-14.7708-23.76H424.7044l15.4668,23.76Z"/><path class="cls-8" d="M444.8187,234.6806a2.5888,2.5888,0,0,0,2.256,1.6783,1.1563,1.1563,0,0,0,1.1005-1.6783,2.5894,2.5894,0,0,0-2.2563-1.6783A1.1561,1.1561,0,0,0,444.8187,234.6806Z"/><path class="cls-14" d="M475.6545,237.9488c.6705-.2874,5.8465.6545,7.3238.9317,4.6868-.9177,20.0959-3.9974,20.8461-4.9618.8851-1.1383,2.817-35.82,5.03-36.3978,0,0,4.353-2.6435,8.5617,2.3713s-2.9911,40.8624-9.2276,42.704c-6.9271,2.0457-26.9383-.3275-26.9383-.3275v-.0013c-1.6439.5616-4.5169.8781-6.0433,1.387-2.0138.6713-3.8038.1119-4.2514-.6714S474.8714,238.2844,475.6545,237.9488Z"/><path class="cls-37" d="M507.29,193.3s8.94.8066,11.5361,3.747,3.3553,10.9082,3.3553,10.9082-7.8726,6.3551-17.3579,3.889Z"/><path class="cls-15" d="M472.0944,97.2068s9.4595,41.8011,53.1223,56.5963c0,0-.4146,64.4206-5.3464,81.3734a182.7828,182.7828,0,0,0-6.1646,28.4417h11.511V97.2068Z"/><path class="cls-24" d="M534.3409,263.6182h-2.7848V90.8673H395.2573V263.6182h-2.7848a12.5907,12.5907,0,0,0-12.5905,12.5905v.4385H546.9312v-.4385A12.5905,12.5905,0,0,0,534.3409,263.6182ZM401.5967,97.2068h123.62v30.5511h-123.62Zm0,37.6826h123.62V263.6182h-123.62Z"/><path class="cls-40" d="M422.6113,251.0694a6.3555,6.3555,0,0,1-7.5084-2.6945S420.1663,247.5159,422.6113,251.0694Z"/><path class="cls-40" d="M422.92,249.2329a2.1443,2.1443,0,0,1,2.1474-1.6223A2.7293,2.7293,0,0,1,422.92,249.2329Z"/><path class="cls-40" d="M421.9946,240.0534a2.8706,2.8706,0,0,1-2.9251-2.1042S421.3751,238.2064,421.9946,240.0534Z"/><path class="cls-40" d="M416.9452,209.2251c4.2936-.9205,4.3663-4.4324,4.3663-4.4324C416.2547,206.3906,416.9452,209.2251,416.9452,209.2251Z"/><path class="cls-40" d="M416.6505,208.4243a3.8792,3.8792,0,0,1-4.583-1.6448S415.1581,206.2553,416.6505,208.4243Z"/><path class="cls-40" d="M422.5277,261.37l.5546.6383a.1393.1393,0,0,0,.244-.092,230.7918,230.7918,0,0,0-4.2546-43.6144,138.9768,138.9768,0,0,0-4.2589-16.517h0c.0213.06,1.9459,6.2727,4.0432,16.585,1.93,9.4922,4.1395,21.8978,3.5807,42.7557A.36.36,0,0,0,422.5277,261.37Z"/><path class="cls-11" d="M414.8493,199.3209c.6847.55,3.3069,2.8957.7632,4.7045,0,0-1.95.6177-2.5956-.8844a9.5763,9.5763,0,0,1-.6616-2.9657.2592.2592,0,0,1,.2377-.2734,2.0646,2.0646,0,0,0,.55-.1249c.2416-.0938.3639-.4581.69-.538a1.93,1.93,0,0,1,.65-.0724A.6855.6855,0,0,1,414.8493,199.3209Z"/><path class="cls-40" d="M416.3048,203.3709a1.5778,1.5778,0,0,0-.489,1.6165l.008.3679a1.7407,1.7407,0,0,0-1.1591-1.2042A2.06,2.06,0,0,0,416.3048,203.3709Z"/><path class="cls-41" d="M416.9452,209.2251c4.2936-.9205,4.3663-4.4324,4.3663-4.4324S417.9105,206.6605,416.9452,209.2251Z"/><path class="cls-40" d="M421.07,206.82a3.8794,3.8794,0,0,0,4.5491-1.7362S422.5188,204.6209,421.07,206.82Z"/><path class="cls-40" d="M416.2547,259.8723l-.5417.6495a.1393.1393,0,0,1-.2457-.0873,230.8062,230.8062,0,0,1,3.38-43.6909,138.9282,138.9282,0,0,1,3.9272-16.599h0c-.02.0607-1.82,6.3106-3.71,16.6627-1.74,9.529-3.7,21.9762-2.7232,42.8188A.3623.3623,0,0,1,416.2547,259.8723Z"/><path class="cls-11" d="M422.6884,197.6817c-.6735.564-3.2483,2.9614-.6688,4.719,0,0,1.9616.5784,2.5774-.9363a9.5621,9.5621,0,0,0,.6021-2.9784.2588.2588,0,0,0-.2429-.2684,2.0782,2.0782,0,0,1-.5532-.1139c-.2431-.089-.3729-.4507-.7005-.5242a1.9159,1.9159,0,0,0-.6513-.0592A.6858.6858,0,0,0,422.6884,197.6817Z"/><path class="cls-40" d="M421.3144,201.76a1.5783,1.5783,0,0,1,.5214,1.6066l-.0007.3679a1.74,1.74,0,0,1,1.1347-1.2271A2.06,2.06,0,0,1,421.3144,201.76Z"/><path class="cls-40" d="M419.9256,203.6535a3.8791,3.8791,0,0,1-4.1141-2.6046S418.9422,201.2114,419.9256,203.6535Z"/><path class="cls-40" d="M414.1155,256.6066l.4021.7442a.1392.1392,0,0,0,.258-.0367,230.7993,230.7993,0,0,0,5.359-43.4927,138.9128,138.9128,0,0,0-.5545-17.0481h0c.0076.0635.5311,6.5461.3291,17.0675-.186,9.6847-.7355,22.2735-5.83,42.5076A.3612.3612,0,0,0,414.1155,256.6066Z"/><path class="cls-11" d="M420.1532,194.3765c.5481.6865,2.5957,3.547-.2812,4.7577,0,0-2.0374.1776-2.34-1.4292a9.5608,9.5608,0,0,1,.0011-3.0387.2584.2584,0,0,1,.2913-.2148,2.0591,2.0591,0,0,0,.5646-.0019c.256-.0389.4551-.3676.7906-.3747a1.93,1.93,0,0,1,.65.0713A.685.685,0,0,1,420.1532,194.3765Z"/><path class="cls-40" d="M420.69,198.6463a1.5782,1.5782,0,0,0-.83,1.4711l-.0726.3608a1.74,1.74,0,0,0-.8682-1.4278A2.06,2.06,0,0,0,420.69,198.6463Z"/><path class="cls-40" d="M417.5727,200.4782a3.2626,3.2626,0,0,0-1.9456-2.9663S415.1989,199.3954,417.5727,200.4782Z"/><path class="cls-42" d="M422.142,196.85a2.2945,2.2945,0,0,1,1.5365-2.22A1.9142,1.9142,0,0,1,422.142,196.85Z"/><path class="cls-42" d="M416.9133,207.2143a2.5045,2.5045,0,0,1,.7422-3.0632A2.9409,2.9409,0,0,1,416.9133,207.2143Z"/><path class="cls-40" d="M415.8115,207.08a.9324.9324,0,0,0-.8051-.9832S414.8679,206.821,415.8115,207.08Z"/><path class="cls-40" d="M423.9613,204.1511a2.699,2.699,0,0,1,2.8977-1.18S426.5277,204.5031,423.9613,204.1511Z"/><path class="cls-11" d="M411.7572,263.4857h14.1541a1.56,1.56,0,0,0,1.544-1.7843l-6.5882-45.4081a.8617.8617,0,0,0-.8527-.7381h-2.1035a.92.92,0,0,0-.91.785l-6.7445,45.405A1.5171,1.5171,0,0,0,411.7572,263.4857Z"/><path class="cls-43" d="M422.7759,262.1126l-3.4974-46.5468a.86.86,0,0,1,.7385.7275l6.5883,45.4081a1.5607,1.5607,0,0,1-1.5443,1.7846h-2.8292A1.6745,1.6745,0,0,0,422.7759,262.1126Z"/><path class="cls-44" d="M49.3684,379.6h2.849l-.0248-.2237-.86-7.5989a.486.486,0,0,0-.4821-.43.7269.7269,0,0,0-.0907.0059.76.76,0,0,0-.6668.6825Z"/><path class="cls-45" d="M51.9424,377.8754l.1015.0029-.7111-6.1013a.486.486,0,0,0-.4821-.43.7269.7269,0,0,0-.0907.0059.942.942,0,0,0-.0749.0712.7533.7533,0,0,0-.2026.509l-.0414,4.3863A1.5418,1.5418,0,0,0,51.9424,377.8754Z"/><rect class="cls-46" x="47.5523" y="413.4136" width="5.4938" height="242.5767"/><rect class="cls-45" x="50.5094" y="413.4136" width="2.5367" height="242.5767"/><rect class="cls-47" x="41.5516" y="617.28" width="17.4978" height="64.183"/><rect class="cls-45" x="48.6205" y="617.28" width="10.4289" height="64.183"/><path class="cls-48" d="M40.7382,383.26c0,2.9977,4.5011,5.4263,10.0549,5.4263.4241,0,.84-.0132,1.2508-.0422,4.9621-.3318,8.8038-2.6158,8.8038-5.3841s-3.8417-5.0507-8.8038-5.382q-.6156-.0435-1.2508-.0426C45.2393,377.8357,40.7382,380.2647,40.7382,383.26Z"/><path class="cls-45" d="M45.9425,383.26c0,2.4154,2.514,4.49,6.1014,5.3841,4.9621-.3318,8.8038-2.6158,8.8038-5.3841s-3.8417-5.0507-8.8038-5.382C48.4565,378.7708,45.9425,380.8449,45.9425,383.26Z"/><polygon class="cls-49" points="41.572 418.198 59.069 418.198 65.238 388.494 36.348 388.494 41.572 418.198"/><rect class="cls-50" x="34.7871" y="386.2559" width="32.0116" height="2.849"/><rect class="cls-45" x="46.6756" y="386.2559" width="20.1231" height="2.849"/><path class="cls-45" d="M56.183,617.28H45.0024l1.6359-4.9628a1.0739,1.0739,0,0,1,1.02-.7372h5.2378a1.4029,1.4029,0,0,1,1.2968.868Z"/><polygon class="cls-51" points="63.171 389.942 38.496 389.942 43.315 416.64 57.484 416.64 63.171 389.942"/><path class="cls-52" d="M60.183,383.5805s-1.88-4.106-5.59-3.9809c0,0,2.3612,2.101,2.1446,3.9809S60.183,383.5805,60.183,383.5805Z"/><polygon class="cls-53" points="36.833 386.256 64.754 386.256 62.467 383 39.003 383 36.833 386.256"/><polygon class="cls-45" points="43.709 386.256 64.754 386.256 62.467 383 45.879 383 43.709 386.256"/><polygon class="cls-15" points="61.532 390.873 55.877 390.873 54.231 415.805 55.877 415.805 61.532 390.873"/><rect class="cls-54" x="107.7993" y="9.159" width="509.3617" height="34.8647" transform="translate(723.7678 66.2174) rotate(-177.9365)"/></g></svg>