<?xml version="1.0" encoding="utf-8"?>
<!-- Generator: Adobe Illustrator 24.3.0, SVG Export Plug-In . SVG Version: 6.00 Build 0)  -->
<svg version="1.1" id="Layer_1" xmlns="http://www.w3.org/2000/svg" xmlns:xlink="http://www.w3.org/1999/xlink" x="0px" y="0px"
	 viewBox="0 0 123.3 90.9" style="enable-background:new 0 0 123.3 90.9;" xml:space="preserve">
<style type="text/css">
	.st0{fill:#F5F4F3;}
	.st1{fill:#EBEBEB;}
	.st2{fill:#EE3C40;}
	.st3{fill:#E2E2E2;}
	.st4{fill:#5A5A5A;}
	.st5{fill:#CECECE;}
	.st6{fill:#444444;}
	.st7{fill:#BFBFBF;}
	.st8{fill:#FFC580;}
	.st9{fill:#FDB763;}
	.st10{fill:#A3C1E5;}
	.st11{fill:#70A3DA;}
	.st12{fill:#DC2C30;}
</style>
<path class="st0" d="M11.1,36.5h9l11.1-22.1c1-1.9,2.9-3.1,5-3.1h77.3c2.6,0,4.7,2.1,4.7,4.7l0,0v53.3H4.8V42.7
	C4.8,39.2,7.6,36.5,11.1,36.5"/>
<path class="st1" d="M11.1,36.5h9l11.1-22.1c1-1.9,2.9-3.1,5-3.1h77.3c2.1,0,4,1.4,4.5,3.4H44.4c-2.1,0-4.1,1.2-5,3.1L28.3,39.9h-9
	c-3.4,0-6.2,2.8-6.2,6.2v23.1H4.8V42.7C4.8,39.2,7.6,36.5,11.1,36.5"/>
<rect x="4.8" y="48.2" class="st2" width="113.3" height="6.5"/>
<path class="st2" d="M81.7,26.6h6.5v-6.4c0-0.5,0.4-1,1-1l0,0H94c0.5,0,1,0.4,1,1l0,0v6.4h6.5c0.5,0,1,0.4,1,1v4.8c0,0.5-0.4,1-1,1
	l0,0H95v6.4c0,0.5-0.4,1-1,1l0,0h-4.8c-0.5,0-1-0.4-1-1v-6.4h-6.5c-0.5,0-1-0.4-1-1l0,0v-4.8C80.7,27,81.1,26.6,81.7,26.6"/>
<path class="st2" d="M44.1,11.2h13.1V4.8C57.2,2.1,55,0,52.4,0H49c-2.7,0-4.9,2.1-4.9,4.8V11.2L44.1,11.2z"/>
<path class="st3" d="M2.4,76.5h118.3c0.7,0,1.3-0.6,1.4-1.3V64.9c0-0.7-0.6-1.3-1.4-1.3H2.4c-0.7,0-1.3,0.6-1.4,1.3v10.3
	C1,75.9,1.6,76.5,2.4,76.5"/>
<path class="st4" d="M17.8,77.2c-0.1,7.6,6.1,13.9,13.7,13.9S45.4,85,45.4,77.4s-6.1-13.9-13.7-13.9h-0.1
	C24,63.5,17.9,69.6,17.8,77.2"/>
<path class="st4" d="M84.7,77.2c-0.1,7.6,6.1,13.9,13.7,13.9c7.6,0.1,13.9-6.1,13.9-13.7c0.1-7.6-6.1-13.9-13.7-13.9h-0.1
	C90.9,63.5,84.7,69.6,84.7,77.2"/>
<path class="st5" d="M2.4,63.5h8.3c-0.7,0-1.3,0.6-1.4,1.3v10.3c0,0.7,0.6,1.3,1.4,1.3H2.4c-0.7,0-1.3-0.6-1.4-1.3V64.9
	C1,64.1,1.6,63.5,2.4,63.5"/>
<path class="st6" d="M31.6,63.5c1.4,0,2.8,0.2,4.1,0.6c-7.2,2.2-11.3,9.8-9.1,17.1c1.3,4.4,4.7,7.8,9.1,9.1
	c-1.3,0.4-2.7,0.6-4.1,0.6c-7.6,0.1-13.8-6-13.8-13.6c-0.1-7.6,6-13.8,13.6-13.8C31.5,63.5,31.6,63.5,31.6,63.5"/>
<path class="st6" d="M98.5,63.5c1.4,0,2.8,0.2,4.1,0.6c-7.2,2.2-11.3,9.8-9.1,17.1c1.3,4.4,4.7,7.8,9.1,9.1
	c-1.3,0.4-2.7,0.6-4.1,0.6c-7.6,0.1-13.8-6-13.8-13.6c-0.1-7.6,6-13.8,13.6-13.8C98.4,63.5,98.4,63.5,98.5,63.5"/>
<path class="st7" d="M30.7,71.5C27.6,72,25.5,75,26,78.1s3.5,5.2,6.6,4.7s5.2-3.5,4.7-6.6C36.9,73.2,33.9,71,30.7,71.5
	C30.8,71.5,30.8,71.5,30.7,71.5"/>
<path class="st7" d="M97.6,71.5c-3.1,0.5-5.2,3.5-4.7,6.6s3.5,5.2,6.6,4.7s5.2-3.5,4.7-6.6C103.8,73.1,100.8,71,97.6,71.5
	C97.7,71.5,97.6,71.5,97.6,71.5"/>
<path class="st8" d="M4.8,56.7h11.5c0.8,0,1.5-0.6,1.5-1.4v-7.5c0-0.8-0.7-1.5-1.5-1.4H4.8V56.7z"/>
<rect x="4.8" y="46.3" class="st9" width="8.3" height="10.4"/>
<path class="st10" d="M38.6,18.7H60c0.8,0,1.5,0.6,1.5,1.4l0,0V35c0,0.8-0.7,1.5-1.5,1.4l0,0H31.2c-0.8,0-1.5-0.6-1.5-1.4
	c0-0.2,0-0.4,0.2-0.7l7.5-14.9C37.6,19,38.1,18.7,38.6,18.7"/>
<path class="st11" d="M29.9,34.4l7.5-14.9c0.2-0.5,0.8-0.8,1.3-0.8h6.9c-0.6,0-1.1,0.3-1.3,0.8l-7.5,14.9c-0.4,0.7-0.1,1.6,0.7,1.9
	c0.2,0.1,0.4,0.2,0.7,0.2h-6.9c-0.8,0-1.5-0.6-1.5-1.4C29.7,34.8,29.8,34.6,29.9,34.4"/>
<path class="st12" d="M48.9,0h3.4c0.5,0,0.9,0.1,1.4,0.2c-2,0.6-3.5,2.5-3.5,4.6v6.4H44V4.8C44.1,2.1,46.3,0,48.9,0"/>
</svg>
