<svg xmlns="http://www.w3.org/2000/svg" xmlns:xlink="http://www.w3.org/1999/xlink" viewBox="0 0 204.8439 357.451"><defs><style>.cls-1{isolation:isolate;}.cls-2{font-size:57.1255px;fill:#193158;font-family:GolosText-DemiBold, Golos;font-weight:300;}.cls-3{fill:#ffb6a7;}.cls-4{fill:url(#Безымянный_градиент_4);}.cls-5{fill:url(#Безымянный_градиент_78);}.cls-6{fill:#104c74;}.cls-7{fill:url(#Безымянный_градиент_4-2);}.cls-8{fill:#fff;}.cls-21,.cls-9{fill:#0d6299;}.cls-9{opacity:0.21;mix-blend-mode:multiply;}.cls-10{fill:url(#Безымянный_градиент_81);}.cls-11{fill:url(#Безымянный_градиент_63);}.cls-12{fill:#00c832;}.cls-13{fill:url(#Безымянный_градиент_63-2);}.cls-14{fill:url(#Безымянный_градиент_4-3);}.cls-15{fill:url(#Безымянный_градиент_63-3);}.cls-16{fill:#0032c8;}.cls-17{fill:url(#Безымянный_градиент_78-2);}.cls-18{fill:#00a022;}.cls-19{fill:#f2f2f2;}.cls-20{fill:url(#Безымянный_градиент_78-3);}</style><linearGradient id="Безымянный_градиент_4" x1="60.3555" y1="191.6477" x2="186.8464" y2="191.6477" gradientUnits="userSpaceOnUse"><stop offset="0" stop-color="#0032c8"/><stop offset="0.1325" stop-color="#003dbb"/><stop offset="0.3758" stop-color="#00599a"/><stop offset="0.6997" stop-color="#008565"/><stop offset="1" stop-color="#00b42d"/></linearGradient><linearGradient id="Безымянный_градиент_78" x1="45.7984" y1="274.9197" x2="63.6191" y2="274.9197" gradientTransform="translate(-86.4492 32.7456) rotate(-18.9822)" gradientUnits="userSpaceOnUse"><stop offset="0" stop-color="#007fc8"/><stop offset="0.0421" stop-color="#0079c8"/><stop offset="0.2984" stop-color="#005ac8"/><stop offset="0.5481" stop-color="#0044c8"/><stop offset="0.7861" stop-color="#0037c8"/><stop offset="1" stop-color="#0032c8"/></linearGradient><linearGradient id="Безымянный_градиент_4-2" x1="89.2726" y1="107.1604" x2="138.5444" y2="107.1604" gradientTransform="translate(-28.6622 42.879) rotate(-18.9822)" xlink:href="#Безымянный_градиент_4"/><linearGradient id="Безымянный_градиент_81" x1="26.5741" y1="234.6994" x2="56.9023" y2="219.9073" gradientTransform="translate(-72.8979 25.731) rotate(-18.9822)" gradientUnits="userSpaceOnUse"><stop offset="0.2457" stop-color="#007fc8"/><stop offset="0.3948" stop-color="#0078c8"/><stop offset="0.6127" stop-color="#0064c8"/><stop offset="0.8715" stop-color="#0045c8"/><stop offset="1" stop-color="#0032c8"/></linearGradient><linearGradient id="Безымянный_градиент_63" x1="88.496" y1="34.6644" x2="126.9039" y2="34.6644" gradientTransform="translate(-5.4187 36.9171) rotate(-18.9822)" gradientUnits="userSpaceOnUse"><stop offset="0" stop-color="#008c32"/><stop offset="0.354" stop-color="#00a22f"/><stop offset="0.6943" stop-color="#00af2e"/><stop offset="1" stop-color="#00b42d"/></linearGradient><linearGradient id="Безымянный_градиент_63-2" x1="52.3172" y1="119.5481" x2="104.6863" y2="119.5481" gradientTransform="translate(-34.6169 32.0356) rotate(-18.9822)" xlink:href="#Безымянный_градиент_63"/><linearGradient id="Безымянный_градиент_4-3" x1="101.9343" y1="115.0031" x2="59.2231" y2="112.0165" gradientTransform="translate(-32.5399 32.3829) rotate(-18.9822)" xlink:href="#Безымянный_градиент_4"/><linearGradient id="Безымянный_градиент_63-3" x1="69.7854" y1="92.6378" x2="101.9246" y2="103.7042" gradientTransform="translate(-27.2635 33.2647) rotate(-18.982)" xlink:href="#Безымянный_градиент_63"/><linearGradient id="Безымянный_градиент_78-2" x1="0" y1="219.8974" x2="88.6681" y2="219.8974" gradientTransform="matrix(1, 0, 0, 1, 0, 0)" xlink:href="#Безымянный_градиент_78"/><linearGradient id="Безымянный_градиент_78-3" x1="109.3991" y1="343.8758" x2="121.9056" y2="264.9127" gradientTransform="matrix(1, 0, 0, 1, 0, 0)" xlink:href="#Безымянный_градиент_78"/></defs><g class="cls-1"><g id="Слой_2" data-name="Слой 2"><text class="cls-2" transform="translate(133.4661 129.5684)"> </text><path class="cls-3" d="M119.1792,14.2474a2.6322,2.6322,0,0,0-1.1021-1.07c-1.2615-.6134-2.9881-1.3685-3.1209-1.0662s1.3757,1.1784,1.3757,1.1784a19.5115,19.5115,0,0,0-2.3705.1168c-.8537.1312-1.81.4338-1.7189.726s1.8984.1454,1.8984.1454-2.1041.1972-1.9856.6455,2.3041.0346,2.3041.0346-1.7163.4388-1.504.8922,2.1405-.2174,2.1405-.2174-1.2045.5546-1.0134.9626c.1409.3007,2.002-.2184,3.0136-.3449a10.0977,10.0977,0,0,0,1.8835-.4135C119.7331,15.6241,119.5579,14.6376,119.1792,14.2474Z"/><path class="cls-4" d="M60.3555,236.3927,67.37,238.962l7.0369,8.79-13.6157,39.57s11.3159,4.57,17.7044,6.5528,73.5206,14.4281,101.0607-75.97C207.1375,127.372,148.264,90.6372,138.5444,87.742c-16.9723,22.13-17.1586,49.883-17.1586,49.883A28.9874,28.9874,0,0,1,137.65,164.1367c0,14.1036-5.959,46.725-17.6652,68.9391-6.2353,11.8324-14.748,18.435-25.111,17.751-12.3806-.8171-15.021-12.8425-15.021-12.8425L62.13,231.2327Z"/><rect class="cls-5" x="45.7749" y="273.4983" width="17.8676" height="2.8427" transform="translate(92.3994 -2.8451) rotate(18.9822)"/><rect class="cls-6" x="62.3005" y="275.1384" width="1.7124" height="5.3744" transform="translate(93.806 -5.4348) rotate(18.9826)"/><rect class="cls-7" x="96.9286" y="80.7846" width="33.9599" height="52.7516" transform="translate(41.0509 -31.2241) rotate(18.9822)"/><rect class="cls-8" x="128.4722" y="86.0599" width="1.5463" height="52.7516" transform="translate(43.6015 -35.9263) rotate(18.9824)"/><rect class="cls-8" x="97.6305" y="76.586" width="8.1437" height="52.7516" transform="translate(39.0224 -27.4826) rotate(18.9826)"/><path class="cls-9" d="M156.2621,206.6188c16.4579-62.1443-6.2474-86.6169-26.117-94.0459-11.9058-4.4522-29.8728-10.72-32.1006-11.4959l-8.7719,25.5015,32.1132,11.0465A28.9876,28.9876,0,0,1,137.65,164.1367c0,14.1036-5.959,46.7249-17.6652,68.9391-6.2354,11.8322-14.748,18.4349-25.111,17.7512-12.3806-.8176-15.021-12.8429-15.021-12.8429L62.13,231.2324l-1.7749,5.16L67.37,238.962l7.0369,8.79L67.624,267.4644c6.3449,2.1844,15.11,5.077,23.5707,7.4551C110.4082,280.3193,141.2567,263.2784,156.2621,206.6188Z"/><path class="cls-10" d="M19.3276,224.42H61.6835a0,0,0,0,1,0,0v0a12.9278,12.9278,0,0,1-12.9278,12.9278H32.2551A12.9275,12.9275,0,0,1,19.3276,224.42v0A0,0,0,0,1,19.3276,224.42Z" transform="translate(77.3033 -0.6199) rotate(18.9822)"/><rect class="cls-11" x="97.219" y="6.0949" width="20.962" height="57.139" transform="translate(17.1322 -33.147) rotate(18.9822)"/><path class="cls-12" d="M114.8222-5.5338h4.8847a.7673.7673,0,0,1,.7673.7673v23.25a.7674.7674,0,0,1-.7674.7674h-4.8847a.7672.7672,0,0,1-.7672-.7672v-23.25a.7673.7673,0,0,1,.7673-.7673Z" transform="translate(72.6342 115.5146) rotate(-71.0169)"/><rect class="cls-13" x="68.0207" y="69.5178" width="20.962" height="100.0605" transform="translate(43.1548 -19.0335) rotate(18.9822)"/><rect class="cls-14" x="70.0977" y="69.865" width="20.962" height="87.2896" transform="translate(41.3037 -20.0375) rotate(18.9822)"/><rect class="cls-12" x="58.7468" y="155.2554" width="6.4192" height="24.7845" rx="1.0804" transform="translate(-116.7273 171.7046) rotate(-71.0182)"/><rect class="cls-15" x="68.875" y="48.1407" width="33.9599" height="100.0605" transform="translate(36.601 -22.5877) rotate(18.982)"/><polygon class="cls-12" points="113.84 49.257 93.865 42.44 86.072 45.338 118.185 56.385 113.84 49.257"/><path class="cls-12" d="M89.367,148.3194,52.2363,135.5473a1.4152,1.4152,0,0,0-1.7991.8779l-1.6963,4.9317a1.4159,1.4159,0,0,0,.8783,1.7991L86.75,155.9281a1.4158,1.4158,0,0,0,1.7991-.8784l1.6963-4.9312A1.4154,1.4154,0,0,0,89.367,148.3194Z"/><circle class="cls-12" cx="116.9646" cy="106.1678" r="7.8197" transform="translate(-6.606 204.5682) rotate(-80.7604)"/><path class="cls-9" d="M72.9822,173.6918l1.3851-4.0267a1.08,1.08,0,0,0-.67-1.3731l-.7857-.27,3.3818-9.8311,1.8022-5.2395,8.6542,2.9769a1.4158,1.4158,0,0,0,1.7991-.8784l1.6963-4.9312a1.4154,1.4154,0,0,0-.8781-1.7991l-2.5087-.8628,31.3268-91.0722-4.3447-7.128-.068-.023,12.3593-35.9308,1.0817.3722a.7673.7673,0,0,0,.9752-.4758L129.7774,8.58a.7668.7668,0,0,0-.476-.9748L119.1177,4.1015,61.7216,170.9607l9.8875,3.4013A1.08,1.08,0,0,0,72.9822,173.6918Z"/><path class="cls-16" d="M11.088,262.5077H48.8237a2.1806,2.1806,0,0,1,2.1806,2.1806v3.685a2.1806,2.1806,0,0,1-2.1806,2.1806H11.0878a2.1806,2.1806,0,0,1-2.1806-2.1806v-3.6848a2.1808,2.1808,0,0,1,2.1808-2.1808Z" transform="translate(88.3251 4.7503) rotate(18.9823)"/><path class="cls-17" d="M84.3051,226.8112,8.5679,200.7592A6.4637,6.4637,0,1,0,4.363,212.9836L80.1,239.0356a6.4638,6.4638,0,0,0,8.2148-4.01v0A6.4636,6.4636,0,0,0,84.3051,226.8112Z"/><path class="cls-9" d="M4.363,212.9835,80.1,239.036a6.46,6.46,0,0,0,7.7982-3.0718L.1043,205.7648A6.46,6.46,0,0,0,4.363,212.9835Z"/><circle class="cls-12" cx="110.1331" cy="81.91" r="12.7943" transform="translate(5.2217 170.4095) rotate(-76.7893)"/><circle class="cls-18" cx="110.0184" cy="82.2543" r="5.5608"/><path class="cls-18" d="M120.3633,106.1678a3.3987,3.3987,0,1,1-3.3987-3.3987A3.3988,3.3988,0,0,1,120.3633,106.1678Z"/><path class="cls-19" d="M84.28,245.992,68.967,290.5089q.7189.2718,1.4566.5467l15.0976-43.8908A15.9274,15.9274,0,0,1,84.28,245.992Z"/><path class="cls-20" d="M123.0064,278.5042c4.9841,13.17,22.3743,61.5149,22.3743,61.5149H85.0488s-1.2124-40.568-1.4277-53.354c-.1869-11.1053,4.7363-21.5195,15.6122-23.7731S118.0223,265.3342,123.0064,278.5042Z"/><circle class="cls-21" cx="102.989" cy="278.0418" r="9.8046"/><circle class="cls-6" cx="102.989" cy="278.0418" r="4.2614"/><path class="cls-16" d="M18.7651,339.0392h167.667a18.4118,18.4118,0,0,1,18.4118,18.4118v0a0,0,0,0,1,0,0H.3533a0,0,0,0,1,0,0v0A18.4118,18.4118,0,0,1,18.7651,339.0392Z"/></g></g></svg>