<?xml version="1.0" encoding="utf-8"?>
<!-- Generator: Adobe Illustrator 24.3.0, SVG Export Plug-In . SVG Version: 6.00 Build 0)  -->
<svg version="1.1" id="Layer_1" xmlns="http://www.w3.org/2000/svg" xmlns:xlink="http://www.w3.org/1999/xlink" x="0px" y="0px"
	 viewBox="0 0 142.2 103.1" style="enable-background:new 0 0 142.2 103.1;" xml:space="preserve">
<style type="text/css">
	.st0{fill:#4F32C8;}
	.st1{opacity:0.32;fill:#F5717F;enable-background:new    ;}
	.st2{fill:url(#SVGID_1_);}
	.st3{fill:#272A47;}
	.st4{fill:#00C832;}
	.st5{fill:none;stroke:#FFFFFF;stroke-width:0.7684;stroke-linecap:round;stroke-linejoin:round;}
</style>
<g>
	<g id="Layer_1_1_">
		<path class="st0" d="M108,103c6.5-1,12.5-4.1,17.2-8.7c6.3-6.4,10.8-15.2,9.7-24.2s-9.4-17.1-18.3-16c-4.2,0.5-9.1,2.6-12.1-0.3
			c-0.8-1-1.5-2.1-2-3.2c-3.7-6.7-12.2-9.9-19.7-8.5s-13.8,7-17.3,13.8c-3.4,6.6-4.3,14.6-1.1,21.3c2.4,5.2,9.2,11.3,15.2,11
			c2.7-0.1,5.6-0.7,8,0.6c3.7,1.9,4.4,7,7.2,10C98.4,102.6,103.2,103.6,108,103z"/>
		<path class="st1" d="M111,99.5c-4.8,0.6-9.6-0.4-13.1-4.1c-2.9-3-3.5-8.1-7.2-10c-2.4-1.2-5.3-0.7-8-0.6c-6,0.3-12.8-5.8-15.2-11
			c-3.1-6.7-2.2-14.8,1.1-21.3c0.7-1.4,1.6-2.7,2.5-4c-2.2,2.2-4.1,4.7-5.5,7.4c-3.4,6.6-4.3,14.6-1.1,21.3
			c2.4,5.2,9.2,11.3,15.2,11c2.7-0.1,5.6-0.7,8,0.6c3.7,1.9,4.4,7,7.2,10c3.5,3.7,8.3,4.7,13.1,4.1c6.5-1,12.5-4.1,17.2-8.7
			c1-1.1,2-2.2,3-3.4C123.5,95.5,117.5,98.5,111,99.5z"/>
		
			<linearGradient id="SVGID_1_" gradientUnits="userSpaceOnUse" x1="78.8915" y1="42.4915" x2="25.2115" y2="96.1715" gradientTransform="matrix(1 0 0 -1 0 106)">
			<stop  offset="0" style="stop-color:#090450"/>
			<stop  offset="1" style="stop-color:#0032C8"/>
		</linearGradient>
		<polygon class="st2" points="78.2,64.2 17.3,20.9 21.6,13.5 86.4,52 		"/>
		<path class="st3" d="M104.7,61.6l-6.9,4.3c-1.6,0.8-2.7,2.2-3,3.9l-1,7.2l7.3-5.1c0.7-0.6,1.2-1.4,1.6-2.3L104.7,61.6z"/>
		<path class="st4" d="M118.4,69.4l3.7,2.4c0.5,0.3,0.6,1,0.3,1.5l-10.7,16.1c-0.3,0.5-1,0.6-1.5,0.3l-3.7-2.4
			c-0.5-0.3-0.6-1-0.3-1.5l10.7-16.1C117.2,69.2,117.9,69,118.4,69.4z"/>
		<polyline class="st5" points="25,20.6 96.7,66.5 113.5,81.9 		"/>
		<polyline class="st5" points="23.1,22.8 94.8,68.7 111.6,84 		"/>
		<polyline class="st5" points="26.8,18.6 98.5,64.5 115.2,79.9 		"/>
		<path class="st0" d="M10.4,17.1c0.1-2.3,1.1-6.6-1.6-8.1c-1.1-0.7-3,0.8-2.1,1.8c0.3,0.3,0.7,0.4,1,0.8c0.4,0.6,0.1,1.4-0.4,1.9
			C6,14.8,4,15.1,2.4,14.3C-3,11.4,1.8,1.9,6.1,0.4c3.4-1,7-0.1,9.4,2.5c2.3,2.6,3.3,6.1,2.5,9.6c1.2,0.8,2.7-0.3,4.1-0.7
			c2.2-0.5,4.5,0.6,5.6,2.6c1,2,1.2,4.3,0.6,6.5C25.8,31.5,10.2,26.1,10.4,17.1z"/>
		<path class="st3" d="M93.9,53.1c-0.9-0.4-1.6-1-2.3-1.7C91.2,51,91,50.5,90.8,50c-0.3-1.2,0.2-2.4,1.3-3c0.5-0.3,1.1-0.4,1.6-0.5
			c1.2-0.1,2.3,0.3,3.2,1c1.4,1.4,2.5,3.1,3.3,4.9c0.6,1.6,1.5,3,2.7,4.2c0.5,0.5,1.2,0.8,1.9,1c0.7,0.1,1.5,0.1,2.2-0.1
			c0.8-0.2,1.7-0.5,2.6-0.8c1-0.3,2-0.5,3.1-0.5c1.2,0,2.3,0.5,3.2,1.3c0.8,0.8,1.2,2,1.1,3.2c-0.1,1.2-0.8,2.2-1.8,2.7
			c-0.9,0.5-2.1,0.1-2.5-0.9c0-0.1-0.1-0.2-0.1-0.3l0,0c0,0,0,0,0-0.1l0.5-1.1l-0.2,1.2l0-0.1c0.2,0.4,0.5,0.6,0.9,0.7
			c0.4,0.1,0.7,0,1-0.2c0.6-0.4,0.9-1.2,0.9-1.9c0-0.7-0.4-1.4-0.9-1.8c-0.6-0.4-1.3-0.6-1.9-0.5c-1.5,0.1-3.1,1-5.1,1.6
			c-1.1,0.3-2.2,0.4-3.3,0.2c-1.1-0.2-2.2-0.7-3-1.5c-1.4-1.4-2.5-3.2-3.2-5.1c-0.6-1.6-1.4-3.1-2.4-4.5c-0.5-0.5-1.2-0.8-1.9-0.8
			c-0.7-0.1-1.4,0.2-1.8,0.7c-0.4,0.7-0.3,1.5,0.1,2.2C92.6,51.8,93.2,52.5,93.9,53.1z"/>
		<path class="st3" d="M100.8,83.1c0.9,0.4,1.7,0.9,2.4,1.6c0.4,0.4,0.6,0.8,0.8,1.3c0.4,1.2-0.1,2.4-1.2,3.1
			c-0.5,0.3-1,0.5-1.6,0.5c-1.1,0.1-2.3-0.2-3.2-0.8c-1.5-1.3-2.7-3-3.5-4.8c-0.7-1.5-1.7-2.9-2.9-4.1c-0.6-0.4-1.2-0.8-1.9-0.9
			c-0.7-0.1-1.5,0-2.2,0.3c-0.8,0.2-1.6,0.6-2.5,0.9c-1,0.4-2,0.6-3,0.7c-1.2,0-2.3-0.4-3.2-1.1c-0.8-0.8-1.3-1.9-1.3-3.1
			c0-1.2,0.7-2.2,1.7-2.8c0.9-0.5,2.1-0.2,2.6,0.8c0.1,0.1,0.1,0.2,0.1,0.3l0,0c0,0,0,0,0,0.1l-0.5,1.2l0.1-1.2l0,0.1
			c-0.2-0.3-0.5-0.6-0.9-0.6c-0.4-0.1-0.7,0-1,0.3c-0.6,0.5-0.9,1.2-0.8,1.9c0.1,0.7,0.4,1.4,1,1.8c0.6,0.4,1.3,0.5,2,0.4
			c1.5-0.2,3.1-1.2,5-1.8c1-0.4,2.2-0.5,3.3-0.4c1.1,0.2,2.2,0.6,3.1,1.4c1.5,1.4,2.7,3.1,3.4,4.9c0.6,1.6,1.5,3.1,2.7,4.4
			c0.5,0.5,1.2,0.7,2,0.7c0.7,0.1,1.4-0.2,1.8-0.8c0.3-0.7,0.3-1.5-0.2-2.1C102.1,84.3,101.5,83.7,100.8,83.1z"/>
	</g>
</g>
</svg>
