<svg width="98" height="29" viewBox="0 0 98 29" fill="none" xmlns="http://www.w3.org/2000/svg">
<path d="M6.28364 28.3911C6.0805 28.3911 5.87735 28.3911 5.67421 28.3911C5.26793 28.3911 4.76009 28.3911 4.3538 28.29C3.94752 28.1889 3.54122 28.0878 3.13494 27.8857C2.72866 27.6835 2.42395 27.4813 2.11924 27.1781C1.81452 26.8748 1.61139 26.5716 1.40824 26.1672C1.2051 25.7629 1.10354 25.3586 1.00197 24.9543C0.900397 24.4489 0.900391 23.9434 0.900391 23.6402C0.900391 23.438 0.900391 22.9326 0.900391 22.9326V5.84957C0.900391 5.84957 0.900391 5.34418 0.900391 5.2431C0.900391 4.83877 0.900397 4.3333 1.00197 3.92897C1.10354 3.52464 1.2051 3.12036 1.40824 2.71603C1.61139 2.31169 1.81452 2.00844 2.11924 1.7052C2.42395 1.40195 2.72866 1.19977 3.13494 0.997602C3.54122 0.795436 3.94752 0.694329 4.3538 0.593246C4.86166 0.492163 5.3695 0.492188 5.67421 0.492188H6.28364H92.4155H93.1266C93.5328 0.492188 94.0407 0.492163 94.447 0.593246C94.8532 0.694329 95.2595 0.795436 95.6658 0.997602C96.0721 1.19977 96.3768 1.40195 96.6815 1.7052C96.9862 2.00844 97.1894 2.31169 97.3925 2.71603C97.5957 3.12036 97.6972 3.52464 97.7988 3.92897C97.9004 4.3333 97.9004 4.83874 97.9004 5.34416C97.9004 5.54632 97.9004 5.74847 97.9004 5.95063C97.9004 6.25388 97.9004 6.4561 97.9004 6.75935V22.225C97.9004 22.5283 97.9004 22.7304 97.9004 23.0337C97.9004 23.2358 97.9004 23.438 97.9004 23.7413C97.9004 24.1456 97.9004 24.651 97.7988 25.0553C97.6972 25.4597 97.5957 25.864 97.3925 26.2684C97.1894 26.6727 96.9862 26.9759 96.6815 27.2792C96.3768 27.5824 96.0721 27.7846 95.6658 27.9868C95.2595 28.1889 94.8532 28.29 94.447 28.3911C93.9391 28.4922 93.5328 28.4922 93.1266 28.4922C92.9234 28.4922 92.7203 28.4922 92.5171 28.4922H91.7046L6.28364 28.3911Z" fill="black"/>
<path d="M31.1856 8.42747H31.8413C32.3877 8.42747 32.7155 8.13716 32.7155 7.75011C32.7155 7.36305 32.3877 7.07275 31.8413 7.07275C31.2949 7.07275 30.9671 7.36305 30.8578 7.75011H30.2021C30.2021 6.976 30.8578 6.49219 31.8413 6.49219C32.8248 6.49219 33.4804 6.97596 33.4804 7.65331C33.4804 8.13713 33.1526 8.52419 32.6062 8.62095V8.71775C33.2619 8.81451 33.699 9.10478 33.699 9.78213C33.699 10.4595 32.934 11.0401 31.9506 11.0401C30.9671 11.0401 30.2021 10.5562 30.2021 9.78213H30.8578C30.8578 10.1692 31.2949 10.4595 31.9506 10.4595C32.6062 10.4595 32.934 10.1692 32.934 9.78213C32.934 9.39507 32.6062 9.10477 31.8413 9.10477H31.1856V8.42747Z" fill="white"/>
<path d="M34.4639 9.97568C34.4639 9.3951 34.901 9.1048 35.7752 9.00804L36.7587 8.9113V8.62096C36.7587 8.33067 36.5401 8.13714 35.9937 8.13714C35.5566 8.13714 35.3381 8.23393 35.2288 8.52422H34.5731C34.6824 7.94364 35.2288 7.65332 35.9937 7.65332C36.8679 7.65332 37.4143 8.04041 37.4143 8.71776V10.8466H36.7587V10.4595H36.6494C36.4308 10.7498 35.9937 10.9433 35.5566 10.9433C34.901 10.9433 34.4639 10.5563 34.4639 9.97568ZM36.7587 9.6854V9.49186L35.8845 9.5886C35.3381 9.5886 35.1195 9.78213 35.1195 10.0724C35.1195 10.3627 35.4473 10.5562 35.7752 10.5562C36.3216 10.4595 36.7587 10.1692 36.7587 9.6854Z" fill="white"/>
<path d="M39.2719 8.23394V10.8466H38.6162V7.65332H41.0203V8.13714L39.2719 8.23394Z" fill="white"/>
<path d="M45.2812 9.29838C45.2812 10.266 44.7348 10.9434 43.7514 10.9434C43.205 10.9434 42.8771 10.7499 42.6586 10.3628V11.911H42.0029V7.65338H42.6586V8.1372C42.8771 7.75015 43.3142 7.55664 43.7514 7.55664C44.7348 7.6534 45.2812 8.33074 45.2812 9.29838ZM44.5163 9.29838C44.5163 8.62103 44.1885 8.234 43.5328 8.234C42.9864 8.234 42.5493 8.62103 42.5493 9.29838C42.5493 9.97573 42.8771 10.3628 43.5328 10.3628C44.1885 10.3628 44.5163 9.97573 44.5163 9.29838Z" fill="white"/>
<path d="M46.1568 12.0078V11.4272C46.2661 11.4272 46.3754 11.4272 46.3754 11.4272C46.7032 11.4272 46.9218 11.3304 47.031 10.9434V10.7498L45.7197 7.55664H46.4847L47.3589 10.0725H47.4681L48.3423 7.55664H49.1073L47.796 10.8466C47.4681 11.6208 47.1403 11.911 46.3754 11.911C46.4846 12.0078 46.2661 12.0078 46.1568 12.0078Z" fill="white"/>
<path d="M49.7617 9.97574H50.4174C50.5267 10.266 50.7452 10.3628 51.1823 10.3628C51.6194 10.3628 51.9472 10.1693 51.9472 9.879C51.9472 9.58871 51.7287 9.39518 51.1823 9.39518H50.6359V8.91136H51.1823C51.6194 8.91136 51.838 8.71781 51.838 8.52428C51.838 8.33075 51.6194 8.1372 51.1823 8.1372C50.7452 8.1372 50.5267 8.33075 50.4174 8.52428H49.7617C49.871 7.9437 50.4174 7.55664 51.1823 7.55664C52.0565 7.55664 52.4936 7.94372 52.4936 8.42754C52.4936 8.71783 52.2751 9.00808 51.9472 9.10484V9.20164C52.3843 9.29841 52.6029 9.58871 52.6029 9.879C52.6029 10.4596 52.0565 10.8466 51.1823 10.8466C50.4174 10.9434 49.871 10.6531 49.7617 9.97574Z" fill="white"/>
<path d="M53.6963 10.9432V7.75H54.3519V9.97556H54.4612L56.1004 7.75H56.756V10.9432H56.1004V8.71764L54.4612 10.9432H53.6963Z" fill="white"/>
<path d="M60.6898 8.23382H59.5971V10.8465H58.9414V8.23382H57.8486V7.75H60.7991L60.6898 8.23382Z" fill="white"/>
<path d="M64.5147 10.0724C64.4054 10.653 63.7498 10.9433 62.9848 10.9433C62.0014 10.9433 61.3457 10.3627 61.3457 9.29832C61.3457 8.33068 62.0014 7.65332 62.9848 7.65332C63.9683 7.65332 64.624 8.23392 64.624 9.29832V9.49186H62.1106C62.1106 10.0724 62.5477 10.3628 63.0941 10.3628C63.5312 10.3628 63.859 10.266 63.9683 9.97568L64.5147 10.0724ZM62.0013 9.00804H63.859C63.859 8.52422 63.5312 8.23394 62.9848 8.23394C62.4385 8.23394 62.1106 8.52422 62.0013 9.00804Z" fill="white"/>
<path d="M67.5741 7.75H69.2133C69.8689 7.75 70.306 8.04028 70.306 8.5241C70.306 8.81439 70.0875 9.1047 69.6504 9.20146V9.2982C70.0875 9.2982 70.4153 9.68525 70.4153 10.0723C70.4153 10.6529 69.9782 10.9432 69.104 10.9432H67.4648V7.75H67.5741ZM68.2298 8.23382V9.00792H68.8854C69.3225 9.00792 69.5411 8.81437 69.5411 8.62084C69.5411 8.33055 69.3225 8.23382 68.9947 8.23382H68.2298ZM68.2298 9.49174V10.4594H69.104C69.5411 10.4594 69.7596 10.2659 69.7596 9.97556C69.7596 9.68527 69.5411 9.49174 68.9947 9.49174H68.2298Z" fill="white"/>
<path d="M93.6033 0.492188C95.9417 0.492188 97.8482 2.34835 97.8993 4.65726L97.9004 4.7524V24.232C97.9004 26.5524 96.0282 28.4405 93.6993 28.4911L93.6033 28.4922H5.19746C2.85912 28.4922 0.952544 26.636 0.901442 24.3271L0.900391 24.232V4.7524C0.900391 2.43201 2.77261 0.543837 5.1015 0.493229L5.19746 0.492188H93.6033ZM93.6033 1.10088H5.19746C3.19485 1.10088 1.56515 2.68623 1.51548 4.65962L1.51431 4.7524V24.232C1.51431 26.2166 3.11469 27.8331 5.10393 27.8823L5.19746 27.8835H93.6033C95.6059 27.8835 97.2356 26.2981 97.2853 24.3248L97.2865 24.232V4.7524C97.2865 2.76777 95.6861 1.15131 93.6968 1.10204L93.6033 1.10088Z" fill="black"/>
<path d="M93.6033 0.492188C95.9417 0.492188 97.8482 2.34835 97.8993 4.65726L97.9004 4.7524V24.232C97.9004 26.5524 96.0282 28.4405 93.6993 28.4911L93.6033 28.4922H5.19746C2.85912 28.4922 0.952544 26.636 0.901442 24.3271L0.900391 24.232V4.7524C0.900391 2.43201 2.77261 0.543837 5.1015 0.493229L5.19746 0.492188H93.6033ZM93.6033 1.10088H5.19746C3.19485 1.10088 1.56515 2.68623 1.51548 4.65962L1.51431 4.7524V24.232C1.51431 26.2166 3.11469 27.8331 5.10393 27.8823L5.19746 27.8835H93.6033C95.6059 27.8835 97.2356 26.2981 97.2853 24.3248L97.2865 24.232V4.7524C97.2865 2.76777 95.6861 1.15131 93.6968 1.10204L93.6033 1.10088Z" fill="black"/>
<path d="M35.6214 22.6697H35.8946V15.6161H35.0408V18.9175L35.1318 20.9344L30.4982 15.6274H30.2021V22.6584H31.0446V19.2781L30.9763 17.3513L35.6214 22.6697ZM42.2019 20.9232L43.033 22.6584H43.9097V22.5457L40.6308 15.5936H40.2437L36.9307 22.5457V22.6584H37.8187L38.6498 20.9232H42.2019ZM40.4259 16.9119L41.9173 20.202H38.9344L40.4259 16.9119ZM44.3537 20.7429C44.3992 22.1851 45.8906 22.8161 47.2113 22.7823C48.4978 22.7485 49.9665 22.2077 49.9665 20.6978C49.9665 19.1429 48.6458 18.8837 47.2341 18.726C46.3688 18.6133 45.3442 18.5795 45.3442 17.5316C45.3442 16.6077 46.3233 16.2809 47.0975 16.2584C47.9058 16.2584 48.8621 16.5401 48.9418 17.4302H49.7388C49.6932 16.0668 48.3043 15.4697 47.0747 15.5035C45.8223 15.5035 44.4903 16.157 44.4903 17.5429C44.4903 18.9513 45.7882 19.2781 47.0747 19.4133C48.0424 19.5485 49.1126 19.5598 49.1126 20.6978C49.0784 21.7232 48.031 22.0161 47.1885 22.0499C46.3119 22.0499 45.2189 21.6894 45.162 20.7429H44.3423H44.3537ZM56.8316 22.6584V15.6274H55.9777V18.5908H52.2207V15.6274H51.3782V22.6584H52.2207V19.357H55.9777V22.6584H56.8316ZM59.9397 20.5063C59.3249 20.5063 58.7898 20.5063 58.1864 20.5063C58.1409 23.6049 63.9358 23.526 63.9358 20.5626C63.9358 18.8049 62.5583 18.6246 61.1465 18.4668C60.509 18.3992 59.9739 18.2866 60.0194 17.757C60.0763 16.9232 61.989 16.8443 61.989 17.7795C62.6038 17.7795 63.0706 17.7795 63.7195 17.7795C63.7651 14.7485 58.232 14.7485 58.3003 17.7795C58.323 19.3119 59.3363 19.8302 60.8847 19.9429C61.5905 19.988 62.1825 20.0668 62.1825 20.5513C62.1825 21.3739 59.9625 21.3964 59.9625 20.5063H59.9397ZM66.3039 17.2274V22.6584C66.9073 22.6584 67.4993 22.6584 68.1027 22.6584V17.2274H69.8446C69.8446 16.6866 69.8446 16.157 69.8446 15.6161H64.562C64.562 16.1457 64.562 16.6866 64.562 17.2274H66.3039ZM77.8255 19.1429C77.8255 14.2753 70.5277 14.2753 70.5277 19.1429C70.5277 24.0218 77.8255 24.0218 77.8255 19.1429ZM72.4063 19.1429C72.4063 16.6077 75.9698 16.6077 75.9698 19.1429C75.9698 21.7006 72.4063 21.7006 72.4063 19.1429ZM83.814 20.157C85.6128 18.9513 85.1005 15.6274 82.3112 15.6161C81.2752 15.6161 80.2163 15.6161 79.1917 15.6161C79.1917 17.9711 79.1917 20.3147 79.1917 22.6471C79.7837 22.6471 80.3985 22.6471 81.0133 22.6471V20.5739H81.9582L83.1764 22.6471H85.203V22.388L83.814 20.157ZM82.3112 18.9626H81.0133C81.0133 18.3992 81.0133 17.802 81.0133 17.2274C81.4345 17.2274 81.8899 17.2161 82.3112 17.2274C83.3472 17.2387 83.3017 18.9626 82.3112 18.9626ZM90.7361 15.6161C89.0739 15.6161 87.9467 15.6161 86.2959 15.6161C86.2959 17.9485 86.2959 20.3035 86.2959 22.6471C87.9467 22.6471 89.1649 22.6471 90.8271 22.6471C90.8271 22.1175 90.8271 21.5767 90.8271 21.0471C89.757 21.0471 89.1536 21.0471 88.1061 21.0471C88.1061 20.6302 88.1061 20.2246 88.1061 19.8077H90.5198C90.5198 19.2781 90.5198 18.7373 90.5198 18.2077H88.1061V17.2161C89.1536 17.2161 89.6773 17.2161 90.7361 17.2161C90.7361 16.6753 90.7361 16.1344 90.7361 15.6049V15.6161Z" fill="white"/>
<path d="M23.2162 7.054C23.2929 6.93258 23.2008 6.76562 23.0475 6.76562H19.873C19.7197 6.76562 19.6276 6.9174 19.7043 7.054L21.2839 9.77078C21.3606 9.8922 21.5446 9.8922 21.6213 9.77078L23.2162 7.054Z" fill="#AE2B30"/>
<path d="M19.8567 22.2922C19.78 22.4136 19.872 22.5806 20.0254 22.5806H23.1998C23.3532 22.5806 23.4452 22.4288 23.3685 22.2922L21.7736 19.5754C21.6969 19.454 21.5129 19.454 21.4362 19.5754L19.8413 22.2922H19.8567Z" fill="#AE2B30"/>
<path d="M25.5775 10.1802C25.7308 10.1802 25.8228 10.0284 25.7462 9.89183L24.1513 7.17505C24.0746 7.05363 23.8906 7.05363 23.8139 7.17505L22.219 9.89183C22.1423 10.0133 22.2343 10.1802 22.3877 10.1802H25.5621H25.5775Z" fill="#AE2B30"/>
<path d="M23.8132 13.7473C23.8899 13.8688 24.0739 13.8688 24.1506 13.7473L25.7455 11.0306C25.8222 10.9091 25.7301 10.7422 25.5768 10.7422H22.4023C22.249 10.7422 22.1569 10.894 22.2336 11.0306L23.8285 13.7473H23.8132Z" fill="#AE2B30"/>
<path d="M27.9701 14.2935C28.1234 14.2935 28.2154 14.1417 28.1387 14.0051L26.5438 11.2883C26.4672 11.1669 26.2831 11.1669 26.2065 11.2883L24.6115 14.0051C24.5349 14.1265 24.6269 14.2935 24.7802 14.2935H27.9547H27.9701Z" fill="#AE2B30"/>
<path d="M26.2214 17.8606C26.2981 17.982 26.4821 17.982 26.5588 17.8606L28.1537 15.1438C28.2304 15.0224 28.1383 14.8555 27.985 14.8555H24.8105C24.6572 14.8555 24.5651 15.0072 24.6418 15.1438L26.2367 17.8606H26.2214Z" fill="#AE2B30"/>
<path d="M22.2336 18.134C22.1569 18.2554 22.249 18.4224 22.4023 18.4224H25.5768C25.7301 18.4224 25.8222 18.2706 25.7455 18.134L24.1506 15.4172C24.0739 15.2958 23.8899 15.2958 23.8132 15.4172L22.2183 18.134H22.2336Z" fill="#AE2B30"/>
<path d="M23.8132 21.9729C23.8899 22.0944 24.0739 22.0944 24.1506 21.9729L25.7455 19.2561C25.8222 19.1347 25.7301 18.9678 25.5768 18.9678H22.4023C22.249 18.9678 22.1569 19.1195 22.2336 19.2561L23.8285 21.9729H23.8132Z" fill="#AE2B30"/>
<path d="M16.9135 6.88701C16.9901 6.76559 16.8981 6.59863 16.7448 6.59863H13.5703C13.4169 6.59863 13.3249 6.75041 13.4016 6.88701L14.9812 9.60379C15.0578 9.72521 15.2419 9.72521 15.3185 9.60379L16.9135 6.88701Z" fill="#363789"/>
<path d="M13.3244 22.2776C13.2478 22.399 13.3398 22.5659 13.4931 22.5659H16.6676C16.821 22.5659 16.913 22.4142 16.8363 22.2776L15.2414 19.5608C15.1647 19.4394 14.9807 19.4394 14.904 19.5608L13.3091 22.2776H13.3244Z" fill="#363789"/>
<path d="M19.2288 10.1656C19.3822 10.1656 19.4742 10.0138 19.3975 9.87719L17.8026 7.1604C17.7259 7.03898 17.5419 7.03898 17.4652 7.1604L15.8703 9.87719C15.7937 9.99861 15.8857 10.1656 16.039 10.1656H19.2135H19.2288Z" fill="#363789"/>
<path d="M17.4646 13.7171C17.5412 13.8385 17.7253 13.8385 17.8019 13.7171L19.3968 11.0003C19.4735 10.8789 19.3815 10.7119 19.2282 10.7119H16.0537C15.9003 10.7119 15.8083 10.8637 15.885 11.0003L17.4799 13.7171H17.4646Z" fill="#363789"/>
<path d="M21.6204 14.2779C21.7738 14.2779 21.8658 14.1261 21.7891 13.9895L20.1942 11.2727C20.1176 11.1513 19.9335 11.1513 19.8568 11.2727L18.2619 13.9895C18.1853 14.1109 18.2773 14.2779 18.4306 14.2779H21.6051H21.6204Z" fill="#363789"/>
<path d="M19.8728 17.8294C19.9494 17.9508 20.1335 17.9508 20.2101 17.8294L21.8051 15.1126C21.8817 14.9912 21.7897 14.8242 21.6364 14.8242H18.4619C18.3085 14.8242 18.2165 14.976 18.2932 15.1126L19.8881 17.8294H19.8728Z" fill="#363789"/>
<path d="M15.885 18.1028C15.8083 18.2242 15.9003 18.3911 16.0537 18.3911H19.2282C19.3815 18.3911 19.4735 18.2394 19.3968 18.1028L17.8019 15.386C17.7253 15.2646 17.5412 15.2646 17.4646 15.386L15.8696 18.1028H15.885Z" fill="#363789"/>
<path d="M17.4646 21.9427C17.5412 22.0641 17.7253 22.0641 17.8019 21.9427L19.3968 19.2259C19.4735 19.1045 19.3815 18.9375 19.2282 18.9375H16.0537C15.9003 18.9375 15.8083 19.0893 15.885 19.2259L17.4799 21.9427H17.4646Z" fill="#363789"/>
<path d="M10.809 6.78056C10.8856 6.65914 10.7936 6.49219 10.6403 6.49219H7.46578C7.31243 6.49219 7.22041 6.64396 7.29709 6.78056L8.87667 9.49734C8.95334 9.61877 9.13737 9.61877 9.21405 9.49734L10.809 6.78056Z" fill="#D9DADA"/>
<path d="M6.99045 22.1702C6.91377 22.2916 7.00579 22.4585 7.15914 22.4585H10.3336C10.487 22.4585 10.579 22.3068 10.5023 22.1702L8.90741 19.4534C8.83073 19.3319 8.6467 19.3319 8.57002 19.4534L6.97512 22.1702H6.99045Z" fill="#D9DADA"/>
<path d="M13.2161 10.0591C13.3695 10.0591 13.4615 9.90734 13.3848 9.77074L11.7899 7.05396C11.7133 6.93254 11.5292 6.93254 11.4525 7.05396L9.85764 9.77074C9.78096 9.89216 9.87297 10.0591 10.0263 10.0591H13.2008H13.2161Z" fill="#D9DADA"/>
<path d="M11.1325 13.6106C11.2092 13.732 11.3932 13.732 11.4699 13.6106L13.0648 10.8938C13.1415 10.7724 13.0495 10.6055 12.8961 10.6055H9.72164C9.56829 10.6055 9.47627 10.7572 9.55295 10.8938L11.1479 13.6106H11.1325Z" fill="#D9DADA"/>
<path d="M15.2874 14.1724C15.4408 14.1724 15.5328 14.0206 15.4561 13.884L13.8612 11.1672C13.7845 11.0458 13.6005 11.0458 13.5238 11.1672L11.9289 13.884C11.8522 14.0054 11.9443 14.1724 12.0976 14.1724H15.2721H15.2874Z" fill="#D9DADA"/>
<path d="M13.5388 17.7239C13.6155 17.8453 13.7995 17.8453 13.8762 17.7239L15.4711 15.0071C15.5477 14.8857 15.4557 14.7188 15.3024 14.7188H12.1279C11.9745 14.7188 11.8825 14.8705 11.9592 15.0071L13.5541 17.7239H13.5388Z" fill="#D9DADA"/>
<path d="M9.55295 17.9973C9.47627 18.1187 9.56829 18.2857 9.72164 18.2857H12.8961C13.0495 18.2857 13.1415 18.1339 13.0648 17.9973L11.4699 15.2805C11.3932 15.1591 11.2092 15.1591 11.1325 15.2805L9.53762 17.9973H9.55295Z" fill="#D9DADA"/>
<path d="M11.1325 21.8362C11.2092 21.9576 11.3932 21.9576 11.4699 21.8362L13.0648 19.1194C13.1415 18.998 13.0495 18.8311 12.8961 18.8311H9.72164C9.56829 18.8311 9.47627 18.9828 9.55295 19.1194L11.1479 21.8362H11.1325Z" fill="#D9DADA"/>
</svg>
