<svg xmlns="http://www.w3.org/2000/svg" viewBox="0 0 130.9777 159.129"><defs><style>.cls-1{isolation:isolate;}.cls-2{opacity:0.8;}.cls-3{fill:#00c832;}.cls-4,.cls-5,.cls-6,.cls-7{fill:#a6e473;}.cls-4{opacity:0.9;}.cls-5{opacity:0.53;}.cls-6{opacity:0.6;}.cls-8{mix-blend-mode:multiply;}.cls-9{fill:#e2d9c9;}.cls-10{fill:#6d898d;}.cls-11{fill:#3b565b;}.cls-12{fill:#acc1c4;}.cls-13{fill:#01895d;}.cls-14{fill:#c2ff88;}.cls-15{fill:#dc0000;}.cls-16{fill:#980f1e;}.cls-17{fill:#ff5c53;}.cls-18{fill:#ff8683;}</style></defs><g class="cls-1"><g id="Layer_1" data-name="Layer 1"><g class="cls-2"><path class="cls-3" d="M121.037,3.1505c4.4923-1.7168,8.4322-.3886,8.7941,2.9728l1.1194,95.1342c.3643,3.3583-2.9819,7.4772-7.4779,9.1964-4.4916,1.7183-8.429.3886-8.794-2.9712l-1.12-95.1344C113.1956,8.9877,116.5419,4.87,121.037,3.1505Z"/><path class="cls-3" d="M109.85,1.8482c4.4945-1.7191,8.4351-.3886,8.7962,2.9712l.0754,101.117c.3642,3.3592-2.981,7.4757-7.4772,9.1956-4.4937,1.7192-8.43.3872-8.7938-2.9728l-.0756-101.1147C102.01,7.6847,105.3566,3.5666,109.85,1.8482Z"/><path class="cls-3" d="M96.9969.7516c4.4922-1.7192,8.43-.3893,8.7932,2.9712l.7026,106.8911c.3651,3.3591-2.9819,7.4771-7.4771,9.1963-4.4922,1.7185-8.43.3879-8.7948-2.9712L89.52,9.948C89.1555,6.5873,92.5031,2.47,96.9969.7516Z"/><path class="cls-3" d="M84.3516,1.5793c4.4922-1.7193,8.429-.388,8.7947,2.9712l1.1172,110.7416c.3649,3.36-2.9819,7.4764-7.4773,9.1956-4.4937,1.7191-8.43.3886-8.7946-2.97L76.8729,10.7755C76.5086,7.4157,79.8563,3.2983,84.3516,1.5793Z"/><path class="cls-3" d="M72.9559,13.9578c4.4946-1.72,8.43-.3878,8.7964,2.972l.2834,103.04c.3643,3.36-2.9833,7.4773-7.4779,9.1979-4.4961,1.7177-8.43.3865-8.794-2.9719l-.285-103.0412C65.1145,19.7936,68.4614,15.6771,72.9559,13.9578Z"/><path class="cls-3" d="M60.2039,13.8238c4.4961-1.7208,8.4313-.39,8.797,2.97l.8048,107.8542c.3657,3.3591-2.9827,7.4764-7.4787,9.1964-4.4916,1.7183-8.4282.3878-8.7909-2.9712L52.7268,23.0192C52.3641,19.6594,55.7109,15.5428,60.2039,13.8238Z"/><path class="cls-4" d="M72.8919,42.96c4.5068-1.6772,9.5995-1.1088,11.3728,1.2711l43.91,58.8709c1.7725,2.3783-.4419,5.6666-4.95,7.3454-4.5068,1.6772-9.6,1.1079-11.3743-1.27L67.9448,50.3049C66.1692,47.9259,68.3837,44.6377,72.8919,42.96Z"/><path class="cls-5" d="M60.6247,47.5251c4.5081-1.6773,9.5985-1.1073,11.3741,1.27L115.907,107.667c1.774,2.3791-.4412,5.6674-4.95,7.3447-4.5073,1.6788-9.5985,1.1079-11.3735-1.27L55.6759,54.87C53.9018,52.4905,56.1164,49.2023,60.6247,47.5251Z"/><path class="cls-4" d="M48.3572,52.0905c4.5083-1.678,9.6-1.1081,11.3743,1.27l43.9074,58.8707c1.774,2.3791-.44,5.6674-4.9479,7.3447s-9.6,1.1095-11.3759-1.27L43.41,59.4336C41.6361,57.0545,43.8505,53.767,48.3572,52.0905Z"/><path class="cls-5" d="M36.0913,56.6551c4.5067-1.6772,9.5987-1.1095,11.3727,1.27l43.909,58.8716c1.774,2.3792-.4412,5.6674-4.9487,7.3446s-9.6,1.1081-11.3743-1.27L31.1426,63.999C29.3686,61.62,31.5832,58.3316,36.0913,56.6551Z"/><path class="cls-6" d="M23.8256,61.219c4.5066-1.6773,9.5985-1.1081,11.3727,1.27l43.9074,58.8715c1.7733,2.3792-.439,5.6666-4.9487,7.3446-4.5067,1.6781-9.5987,1.1081-11.3743-1.27L18.8753,68.5636C17.1013,66.1852,19.3157,62.8978,23.8256,61.219Z"/><path class="cls-4" d="M11.56,65.7836c4.5067-1.678,9.5987-1.1087,11.3712,1.2712l43.9074,58.8707c1.7756,2.38-.44,5.6682-4.9487,7.3455-4.5068,1.6772-9.5987,1.108-11.3743-1.2712L6.6094,73.1275C4.8339,70.75,7.0484,67.4616,11.56,65.7836Z"/><path class="cls-7" d="M72.8919,42.96c4.5068-1.6772,9.5995-1.1088,11.3728,1.2711L99.2,64.2542c1.7742,2.379-.4427,5.6674-4.9493,7.3446-4.5083,1.6772-9.6,1.1087-11.3743-1.27L67.9448,50.3049C66.1692,47.9259,68.3837,44.6377,72.8919,42.96Z"/><path class="cls-7" d="M60.6247,47.5251c4.5081-1.6773,9.5985-1.1073,11.3741,1.27L88.456,70.8634c1.7756,2.3791-.44,5.6673-4.9479,7.3447-4.5061,1.6772-9.5995,1.1087-11.3735-1.27L55.6759,54.87C53.9018,52.4905,56.1164,49.2023,60.6247,47.5251Z"/><path class="cls-7" d="M48.3572,52.0905c4.5083-1.678,9.6-1.1081,11.3743,1.27L73.14,71.3389c1.7756,2.3791-.44,5.6673-4.9487,7.3453C63.685,80.36,58.593,79.7931,56.819,77.4124L43.41,59.4336C41.6361,57.0545,43.8505,53.767,48.3572,52.0905Z"/><path class="cls-7" d="M36.0913,56.6551c4.5067-1.6772,9.5987-1.1095,11.3727,1.27L65.9573,82.7193c1.7756,2.3791-.442,5.6688-4.9487,7.3437-4.5082,1.678-9.6017,1.11-11.3741-1.2686L31.1426,63.999C29.3686,61.62,31.5832,58.3316,36.0913,56.6551Z"/><path class="cls-7" d="M23.8256,61.219c4.5066-1.6773,9.5985-1.1081,11.3727,1.27l15.44,20.7054c1.7756,2.3791-.4388,5.6673-4.9471,7.3453s-9.6,1.1081-11.3743-1.2725l-15.442-20.704C17.1013,66.1852,19.3157,62.8978,23.8256,61.219Z"/><path class="cls-7" d="M11.56,65.7836c4.5067-1.678,9.5987-1.1087,11.3712,1.2712L37.3564,86.3961c1.774,2.3791-.442,5.6674-4.9487,7.3446S22.809,94.8494,21.0334,92.47L6.6094,73.1275C4.8339,70.75,7.0484,67.4616,11.56,65.7836Z"/></g><g class="cls-8"><path class="cls-9" d="M83.7114,151.9829c-.77-1.8861-.74-3.6829.07-4.013s2.0878.9313,2.8583,2.8173.7392,3.6838-.0693,4.0138S84.4819,153.8689,83.7114,151.9829ZM.155,72.4066,6.1262,87.03A2.076,2.076,0,0,0,8.1579,88.318l45.4864-2.3768a8.3478,8.3478,0,0,1,2.4462.0816,9.2144,9.2144,0,0,1,.7986,1.6856c.0594.1569.1173.3048.1722.44l7.7971,19.0938-2.0833.85a1.477,1.477,0,0,0-.852,2.0309c.506.8076,2.0255,2.0338,2.5544,2.8256l17.3219,44.8561.0511-.0206c.6135,1.502,3.39,1.7893,6.2008.641s4.5913-3.2952,3.9778-4.7972l.0518-.022-19.03-44.1582c-.1738-.9372.05-2.8759-.154-3.8055a1.4731,1.4731,0,0,0-2.027-.8551l-2.1673.8855L60.905,86.5782c-.0487-.1173-.1006-.2438-.1539-.3833-.4724-1.2047-1.1172-2.8568-2.42-3.6821-1.2421-.79-3.0923-.8109-4.9046-.7155L9.4107,84.0963,4.782,72.7587l1.0746-.4382c2.2723,4.8549,4.9883,8.134,6.4087,7.554L88.3386,48.8084c1.6-.6531.9533-5.9471-1.4464-11.8223S81.25,26.8775,79.649,27.5314L3.5764,58.5975c-1.42.5807-1.0653,4.8237.7119,9.8807L1.2919,69.7013A2.0742,2.0742,0,0,0,.155,72.4066Z"/></g><path class="cls-10" d="M65.9757,109.9776l3.8438-1.57-8.9145-21.83c-.0487-.1173-.1006-.2438-.1539-.3833-.4724-1.2047-1.1172-2.8568-2.42-3.6821-1.2421-.79-3.0923-.8109-4.9046-.7155L9.4107,84.0963,4.782,72.7587,83.6947,40.5341l-1.5691-3.8422L1.2919,69.7013A2.0742,2.0742,0,0,0,.155,72.4066L6.1262,87.03A2.076,2.076,0,0,0,8.1579,88.318l45.4864-2.3768a8.3478,8.3478,0,0,1,2.4462.0816,9.2144,9.2144,0,0,1,.7986,1.6856c.0594.1569.1173.3048.1722.44Z"/><path class="cls-11" d="M66.9084,108.599,58.6905,88.4772c-.0518-.1242-.1052-.2614-.1615-.4084a6.1019,6.1019,0,0,0-1.6918-2.7967c-.919-.5814-2.9521-.4755-3.8194-.4312L7.6961,87.2084,1.8741,72.9506,80.783,40.726,80.6083,40.3,1.4839,72.6123a.23.23,0,0,0-.125.2995L7.33,87.5354a.23.23,0,0,0,.2255.1425l45.485-2.3754a9.1649,9.1649,0,0,1,3.0724.1556l.5472.1616.3552.4435a8.5848,8.5848,0,0,1,1.0805,2.1687c.0625.1554.1159.2957.1662.42L66.48,108.7743Z"/><path class="cls-12" d="M68.8668,107.302,60.3014,86.3252c-.0486-.12-.1005-.253-.1554-.3962-.4283-1.0852-1.01-2.575-2.0574-3.2379-1.0273-.6538-2.7816-.6577-4.359-.5747L9.0586,84.45,3.8325,71.6536,82.7436,39.4283l-.8717-2.1345L1.8939,69.9543a1.1538,1.1538,0,0,0-.631,1.502L7.2343,86.08a1.1561,1.1561,0,0,0,1.1278.7163L53.8486,84.42a9.3312,9.3312,0,0,1,2.7584.1182l.2714.0808.1814.2194a8.2207,8.2207,0,0,1,.9358,1.9265c.0624.16.1189.3017.1721.4312l8.5654,20.9768Z"/><path class="cls-13" d="M3.5764,58.5975h0L79.649,27.5314c1.6011-.6539,4.8443,3.5808,7.2432,9.4547s3.0467,11.1692,1.4464,11.8223L12.2653,79.8745h0c-1.6.6532-4.8435-3.5808-7.2409-9.4554C2.6239,64.5446,1.9763,59.2507,3.5764,58.5975Z"/><path class="cls-3" d="M4.9253,68.9644A32.2648,32.2648,0,0,1,2.6986,61.05c-.0014-1.3214.2835-2.2083.8778-2.4523h0L79.649,27.5314c1.6011-.6539,4.8443,3.5808,7.2432,9.4547A32.22,32.22,0,0,1,89.12,44.9013c.0015,1.32-.2811,2.2077-.8771,2.4515L12.1677,78.4191h0C10.569,79.0722,7.3258,74.84,4.9253,68.9644Z"/><path class="cls-7" d="M86.3093,39.2173c-2.3989-5.8754-5.6423-10.1085-7.2432-9.4548L2.9943,60.828l-.0016.0008a.92.92,0,0,0-.2941.1982c.0031-1.3077.2851-2.1863.8778-2.43h0L79.649,27.5314c1.6011-.6539,4.8443,3.5808,7.2432,9.4547,2.2366,5.4767,2.9506,10.4444,1.74,11.6241A27.6473,27.6473,0,0,0,86.3093,39.2173Z"/><path class="cls-7" d="M43.61,50.7059C27.77,57.1748,13.1844,61.8378,3.2412,63.8769A22.5089,22.5089,0,0,1,2.6986,61.05c-.0014-1.3214.2835-2.2083.8778-2.4523h0L79.649,27.5314c.9167-.3735,2.3706.8549,3.894,3.0717C75.2314,36.2933,60.6765,43.7377,43.61,50.7059Z"/><path class="cls-14" d="M5.6554,60.06c.1417.3452,16.4708-5.9958,36.4729-14.1642S78.2324,30.8249,78.0907,30.48,61.62,36.477,41.6192,44.6446C21.6155,52.8129,5.5137,59.7154,5.6554,60.06Z"/><path class="cls-14" d="M79.851,29.2269c-.3041.2165.3542,1.6606,1.4721,3.2257s2.27,2.6572,2.5736,2.4408c.3024-.2179-.356-1.662-1.4724-3.2264C81.3064,30.1017,80.1558,29.01,79.851,29.2269Z"/><path class="cls-13" d="M13.0121,78.0746c-.247-.605,16.3031-7.936,36.9668-16.3748S87.594,46.9116,87.8409,47.5167,71.537,55.4534,50.8735,63.8915,13.259,78.6789,13.0121,78.0746Z"/><path class="cls-15" d="M61.9231,110.1232c.506.8076,2.0255,2.0338,2.5544,2.8256l17.3219,44.8561.0511-.0206c.6135,1.502,3.39,1.7893,6.2008.641s4.5913-3.2952,3.9778-4.7972l.0518-.022-19.03-44.1582c-.1738-.9372.05-2.8759-.154-3.8055a1.4731,1.4731,0,0,0-2.027-.8551l-8.0944,3.305A1.477,1.477,0,0,0,61.9231,110.1232Zm21.7883,41.86c-.77-1.8861-.74-3.6829.07-4.013s2.0878.9313,2.8583,2.8173.7392,3.6838-.0693,4.0138S84.4819,153.8689,83.7114,151.9829Z"/><path class="cls-16" d="M62.7751,108.0923l.2088-.0846a18.43,18.43,0,0,1,1.7283,1.8556l17.3227,44.8576.0519-.0212c.6142,1.5026,3.39,1.79,6.2.6423a8.1155,8.1155,0,0,0,3.4589-2.5125l.3352.7766-.0518.022c.6135,1.502-1.1681,3.65-3.9778,4.7972s-5.5873.861-6.2008-.641l-.0511.0206L64.4775,112.9488c-.5289-.7918-2.0484-2.018-2.5544-2.8256A1.477,1.477,0,0,1,62.7751,108.0923Z"/><path class="cls-17" d="M67.326,115.3172c-.39-.7628-.2789-1.5828.11-1.7412l3.9444-1.61c.3855-.1592,1.0379.3491,1.2954,1.1668.2836.9075.5106,2.6793.78,3.5839.2424.82.2789,1.5842-.1081,1.7428l-2.7754,1.133c-.3872.1578-.8961-.4137-1.2939-1.17C68.8364,117.5882,67.7588,116.1631,67.326,115.3172Z"/><path class="cls-17" d="M71.3252,125.6985c-.4055-.79-.2759-1.6453.1417-1.8159l4.2461-1.7337c.4176-.1708,1.111.3483,1.3717,1.198.2926.941.5122,2.7829.7864,3.7248.25.849.2775,1.6445-.14,1.8152l-2.9872,1.22c-.4191.1707-.9556-.4175-1.3717-1.1986C72.91,128.0434,71.7778,126.5741,71.3252,125.6985Z"/><path class="cls-17" d="M75.8533,137.299c-.4512-.8847-.3293-1.83.1158-2.0117l4.5136-1.8434c.4428-.1806,1.1941.4084,1.49,1.3565.33,1.0485.6,3.0976.9129,4.1454.2835.9474.3285,1.8313-.1158,2.0135l-3.1748,1.2953c-.4435.1814-1.03-.4816-1.4905-1.3556C77.5938,139.9313,76.3516,138.2791,75.8533,137.299Z"/><path class="cls-16" d="M86.2041,151.9624c-.5823-1.4266-1.5493-2.3792-2.162-2.13-.474.1943-.5935,1.0624-.3474,2.1079-.7522-1.87-.7163-3.6434.0862-3.97.8084-.3307,2.0878.9313,2.8583,2.8173s.7392,3.6838-.0693,4.0138a.7561.7561,0,0,1-.2135.0465C86.7574,154.3971,86.7116,153.2046,86.2041,151.9624Z"/><path class="cls-17" d="M91.0965,155.0059l.0524-.0213-19.03-44.16c-.1753-.9357.0487-2.876-.1539-3.8072a1.4763,1.4763,0,0,0-2.0286-.852l-8.093,3.3058c-.0319.0138-.0594.0312-.0914.0465a1.6389,1.6389,0,0,1,1.0227-1.425l8.0944-3.305a1.4731,1.4731,0,0,1,2.027.8551c.2043.93-.02,2.8683.154,3.8055l19.03,44.1582-.0518.022c.3445.8437-.0671,1.8908-.99,2.85A1.9427,1.9427,0,0,0,91.0965,155.0059Z"/><path class="cls-18" d="M66.05,107.7212c.0991.2423,1.4845-.0931,3.0954-.7507s2.8348-1.3884,2.7357-1.6315-1.4843.0938-3.0954.7514C67.1766,106.7473,65.9512,107.478,66.05,107.7212Z"/></g></g></svg>