<?xml version="1.0" encoding="utf-8"?>
<!-- Generator: Adobe Illustrator 24.3.0, SVG Export Plug-In . SVG Version: 6.00 Build 0)  -->
<svg version="1.1" id="Layer_1" xmlns="http://www.w3.org/2000/svg" xmlns:xlink="http://www.w3.org/1999/xlink" x="0px" y="0px"
	 viewBox="0 0 505.7 271.4" style="enable-background:new 0 0 505.7 271.4;" xml:space="preserve">
<style type="text/css">
	.st0{fill:none;stroke:#00C832;stroke-linecap:round;stroke-linejoin:round;stroke-dasharray:10;}
	.st1{fill:none;stroke:#0032C8;stroke-linecap:round;stroke-linejoin:round;stroke-dasharray:10;}
	.st2{fill:url(#SVGID_1_);}
	.st3{fill:#0032C8;}
	.st4{fill:#00C832;}
</style>
<g id="Слой_2">
	<path d="M77.9,128.5H67.7v-3.8h14.9v3.3l-7,17.9h-4.9L77.9,128.5z"/>
	<path d="M92.4,146.3c-1.7,0.1-3.4-0.4-4.9-1.3c-1.3-1-2.1-2.5-2.2-4.1h4.2c0.2,0.5,0.5,0.9,1,1.2c0.6,0.3,1.3,0.4,2,0.4
		c0.5,0,1-0.1,1.5-0.3c0.5-0.2,0.9-0.5,1.3-0.9c0.4-0.6,0.7-1.2,0.9-1.9c0.3-1,0.4-2,0.4-3c-0.3,0.4-0.6,0.7-1,1
		c-0.4,0.3-0.8,0.5-1.3,0.7c-0.5,0.2-0.9,0.3-1.4,0.4c-0.5,0.1-1,0.1-1.5,0.1c-3.3,0.4-6.3-2-6.7-5.4c0-0.4,0-0.9,0-1.3v-0.3
		c0-1,0.2-2,0.6-2.9c0.4-0.9,0.9-1.6,1.6-2.3c0.7-0.7,1.5-1.2,2.4-1.5c1-0.4,2.1-0.5,3.1-0.5c2.3-0.2,4.6,0.7,6.2,2.4
		c1.4,1.6,2.2,4.1,2.2,7.7v0.6c0,1.8-0.2,3.5-0.6,5.2c-0.3,1.3-1,2.5-1.8,3.5c-0.7,0.9-1.6,1.6-2.7,2
		C94.7,146.1,93.6,146.3,92.4,146.3z M92.9,135c0.9,0.1,1.9-0.3,2.6-0.9c0.6-0.6,1-1.5,0.9-2.4v-0.3c0-0.9-0.3-1.7-1-2.4
		c-1.5-1.2-3.6-1.3-5.1,0c-0.6,0.6-1,1.5-0.9,2.4v0.3c0,0.9,0.3,1.7,0.9,2.4C91,134.8,92,135.1,92.9,135L92.9,135z"/>
	<path d="M111.4,146.3c-2.6,0-4.6-0.6-5.9-1.8c-1.4-1.3-2.1-3.2-2-5.1h4.6c-0.1,0.8,0.2,1.7,0.8,2.3c0.7,0.6,1.6,0.8,2.5,0.8
		c0.9,0.1,1.8-0.2,2.5-0.7c0.6-0.5,0.9-1.3,0.8-2.1c0-1.9-1.1-2.9-3.3-2.9h-2v-3.5h2c0.8,0.1,1.6-0.2,2.2-0.6
		c0.6-0.5,0.8-1.2,0.8-1.9c0-0.7-0.3-1.4-0.8-1.9c-0.6-0.5-1.5-0.8-2.3-0.7c-0.8-0.1-1.6,0.2-2.3,0.7c-0.5,0.5-0.8,1.3-0.7,2h-4.6
		c-0.1-1.8,0.6-3.6,1.9-4.9c1.3-1.2,3.2-1.7,5.7-1.7c1.1,0,2.3,0.1,3.3,0.4c0.9,0.2,1.7,0.7,2.4,1.2c0.6,0.5,1.1,1.1,1.4,1.8
		c0.3,0.7,0.5,1.5,0.5,2.3c0,1.1-0.3,2.1-1,3c-0.7,0.8-1.6,1.4-2.6,1.7c1.1,0.3,2.2,0.9,2.9,1.8c0.7,1,1.1,2.2,1,3.4
		c0,0.9-0.2,1.7-0.5,2.5c-0.4,0.8-0.9,1.5-1.6,2c-0.7,0.6-1.6,1-2.5,1.3C113.6,146.2,112.5,146.3,111.4,146.3z"/>
	<path d="M123.4,145.9V142h4.2v3.9l-3.4,4.9h-2.1L123.4,145.9z"/>
	<path d="M139.2,146.3c-1.7,0.1-3.4-0.4-4.9-1.3c-1.3-1-2.1-2.5-2.2-4.1h4.2c0.2,0.5,0.5,0.9,1,1.2c0.6,0.3,1.3,0.4,2,0.4
		c0.5,0,1-0.1,1.5-0.3c0.5-0.2,0.9-0.5,1.3-0.9c0.4-0.6,0.7-1.2,0.9-1.9c0.3-1,0.4-2,0.4-3c-0.3,0.4-0.6,0.7-1,1
		c-0.4,0.3-0.8,0.5-1.3,0.7c-0.5,0.2-0.9,0.3-1.4,0.4c-0.5,0.1-1,0.1-1.5,0.1c-3.3,0.4-6.3-2-6.7-5.4c0-0.4,0-0.9,0-1.3v-0.3
		c0-1,0.2-2,0.6-2.9c0.4-0.9,0.9-1.6,1.6-2.3c0.7-0.7,1.5-1.2,2.4-1.5c1-0.4,2.1-0.5,3.1-0.5c2.3-0.2,4.6,0.7,6.2,2.4
		c1.4,1.6,2.2,4.1,2.2,7.7v0.6c0,1.8-0.2,3.5-0.6,5.2c-0.3,1.3-1,2.5-1.8,3.5c-0.7,0.9-1.6,1.6-2.7,2
		C141.5,146.1,140.4,146.3,139.2,146.3z M139.7,135c0.9,0.1,1.9-0.3,2.6-0.9c0.6-0.6,1-1.5,0.9-2.4v-0.3c0-0.9-0.3-1.7-1-2.4
		c-1.5-1.2-3.6-1.3-5.1,0c-0.6,0.6-1,1.5-0.9,2.4v0.3c0,0.9,0.3,1.7,0.9,2.4C137.8,134.8,138.7,135.1,139.7,135L139.7,135z"/>
	<path d="M158.2,146.3c-1.7,0.1-3.4-0.4-4.9-1.3c-1.3-1-2.1-2.5-2.2-4.1h4.2c0.2,0.5,0.5,0.9,1,1.2c0.6,0.3,1.3,0.4,2,0.4
		c0.5,0,1-0.1,1.5-0.3c0.5-0.2,0.9-0.5,1.3-0.9c0.4-0.6,0.7-1.2,0.9-1.9c0.3-1,0.4-2,0.4-3c-0.3,0.4-0.6,0.7-1,1
		c-0.4,0.3-0.8,0.5-1.3,0.7c-0.5,0.2-0.9,0.3-1.4,0.4c-0.5,0.1-1,0.1-1.5,0.1c-3.3,0.4-6.3-2-6.7-5.4c0-0.4,0-0.9,0-1.3v-0.3
		c0-1,0.2-2,0.6-2.9c0.4-0.9,0.9-1.6,1.6-2.3c0.7-0.7,1.5-1.2,2.4-1.5c1-0.4,2.1-0.5,3.1-0.5c2.3-0.2,4.6,0.7,6.2,2.4
		c1.4,1.6,2.2,4.1,2.2,7.7v0.6c0,1.8-0.2,3.5-0.6,5.2c-0.3,1.3-1,2.5-1.8,3.5c-0.7,0.9-1.6,1.6-2.7,2
		C160.5,146.1,159.3,146.3,158.2,146.3z M158.6,135c0.9,0.1,1.9-0.3,2.6-0.9c0.6-0.6,1-1.5,0.9-2.4v-0.3c0-0.9-0.3-1.7-1-2.4
		c-1.5-1.2-3.6-1.3-5.1,0c-0.6,0.6-1,1.5-0.9,2.4v0.3c0,0.9,0.3,1.7,0.9,2.4C156.8,134.8,157.7,135.1,158.6,135L158.6,135z"/>
	<path d="M64.5,157.2h3.7l3.5,6.9l3.5-6.9h3.6v12.7h-3v-8.3l-3.1,5.8h-2.2l-3.1-5.8v8.3h-3V157.2z"/>
	<path d="M81.9,170.2c-0.1,0-0.3,0-0.5,0c-0.2,0-0.3,0-0.5-0.1v-2.9c0.1,0,0.2,0,0.4,0c0.3,0,0.6-0.1,0.8-0.3
		c0.3-0.3,0.5-0.6,0.6-0.9c0.2-0.6,0.3-1.2,0.3-1.8c0.1-0.7,0.1-1.7,0.1-2.8v-4.3h10.1v12.7H90v-10.1h-4v2.2c0,1.4-0.1,2.7-0.3,4.1
		c-0.1,0.9-0.4,1.7-0.8,2.5c-0.3,0.6-0.7,1-1.3,1.3C83.2,170.1,82.5,170.2,81.9,170.2z"/>
	<path d="M96.1,157.2h3.2v4.9h5.4v-4.9h3.2v12.7h-3.2v-5.2h-5.4v5.2h-3.2V157.2z"/>
	<path d="M116.2,157.2h3v1.9c0.4-0.6,0.9-1.1,1.5-1.5c0.8-0.5,1.7-0.7,2.6-0.6c1.5-0.1,2.9,0.5,4,1.6c1,1.3,1.6,3,1.4,4.7v0.5
		c0.1,1.8-0.4,3.5-1.5,4.9c-1,1.1-2.5,1.7-3.9,1.6c-0.8,0-1.6-0.2-2.3-0.6c-0.6-0.4-1.2-0.9-1.6-1.5v6.6h-3.2L116.2,157.2z
		 M122.6,167.5c0.8,0,1.6-0.3,2.1-0.9c0.6-0.8,0.9-1.9,0.8-2.9v-0.5c0.1-1-0.2-1.9-0.8-2.7c-0.5-0.6-1.3-0.9-2.1-0.9
		c-0.8,0-1.6,0.2-2.3,0.8c-0.6,0.6-1,1.5-0.9,2.3v1.4c-0.1,0.9,0.2,1.8,0.9,2.5C120.9,167.3,121.7,167.6,122.6,167.5z"/>
	<path d="M133.2,175c-0.2,0-0.5,0-0.7-0.1v-2.7c0.2,0,0.5,0.1,0.7,0.1c0.4,0,0.9-0.2,1.1-0.5c0.4-0.6,0.7-1.2,0.9-1.9l-5.4-12.7h3.6
		l3.5,8.8l3.2-8.8h3.3l-4.9,12.7c-0.4,0.9-0.7,1.7-1,2.3c-0.3,0.6-0.6,1.1-1,1.6c-0.4,0.4-0.8,0.7-1.3,0.9
		C134.4,174.9,133.8,175,133.2,175z"/>
	<path d="M150.7,170.2c-0.8,0-1.7-0.1-2.5-0.5c-0.8-0.3-1.4-0.8-2-1.4c-0.6-0.7-1-1.4-1.3-2.3c-0.3-1-0.5-2.1-0.5-3.2v-0.6
		c0-1.3,0.1-2.6,0.3-3.8c0.2-1,0.5-2,1.1-2.9c0.5-0.8,1.2-1.4,2-1.8c1-0.5,2.1-0.7,3.2-0.8c0.5,0,1,0,1.5,0s0.9,0,1.4-0.1
		c0.4,0,0.8-0.1,1.2-0.2c0.3-0.1,0.6-0.2,0.9-0.3v2.8c-0.5,0.2-0.9,0.3-1.4,0.4c-1,0.1-2.1,0.2-3.2,0.2c-0.6,0-1.3,0.1-1.9,0.3
		c-0.5,0.1-0.9,0.4-1.3,0.7c-0.4,0.4-0.6,0.8-0.8,1.3c-0.2,0.6-0.4,1.3-0.4,1.9c0.4-0.7,1-1.3,1.7-1.8c0.9-0.5,1.9-0.7,2.9-0.7
		c0.7,0,1.5,0.1,2.2,0.4c0.6,0.2,1.2,0.6,1.7,1.1c0.5,0.5,0.9,1.1,1.1,1.8c0.3,0.8,0.4,1.6,0.4,2.4v0.5c0,0.9-0.1,1.8-0.5,2.7
		c-0.3,0.8-0.7,1.5-1.3,2c-0.6,0.6-1.2,1-2,1.3C152.4,170.1,151.5,170.2,150.7,170.2z M150.7,167.5c0.9,0,1.7-0.3,2.2-0.9
		c0.6-0.8,0.9-1.7,0.8-2.7v-0.5c0-0.9-0.2-1.7-0.8-2.4c-1.2-1.1-3.2-1.1-4.4,0c-0.6,0.6-0.9,1.5-0.8,2.4v0.4c0,0.5,0.1,1.1,0.2,1.6
		c0.1,0.4,0.3,0.8,0.6,1.2c0.3,0.3,0.6,0.5,1,0.7C149.9,167.5,150.3,167.5,150.7,167.5z"/>
	<path d="M161.5,170.2c-1.1,0-2-0.9-2-2c0-0.6,0.2-1.1,0.6-1.5c0.8-0.8,2.1-0.8,2.9,0c0.4,0.4,0.6,0.9,0.6,1.5
		C163.5,169.3,162.6,170.2,161.5,170.2L161.5,170.2z"/>
	<path d="M275.5,244.4H268v-2.4l7.5-10.2h3.4v9.7h1.8v2.8h-1.8v3.4h-3.4L275.5,244.4z M275.5,241.6v-5.9l-4.3,5.9H275.5z"/>
	<path d="M289.2,248.1c-0.9,0-1.8-0.1-2.7-0.4c-0.8-0.3-1.4-0.7-2-1.4c-0.6-0.7-1-1.5-1.2-2.4c-0.3-1.1-0.4-2.3-0.4-3.4v-0.5
		c0-1.3,0.1-2.6,0.5-3.9c0.3-1,0.7-1.9,1.3-2.6c0.5-0.7,1.3-1.2,2.1-1.5c0.8-0.3,1.7-0.5,2.6-0.5c1.3-0.1,2.5,0.3,3.6,0.9
		c1,0.7,1.6,1.9,1.7,3.1h-3.2c-0.4-0.8-1.3-1.3-2.2-1.2c-0.4,0-0.8,0.1-1.2,0.2c-0.4,0.1-0.7,0.4-1,0.7c-0.3,0.4-0.5,0.9-0.7,1.4
		c-0.2,0.7-0.3,1.5-0.3,2.3c0.2-0.3,0.4-0.6,0.7-0.8c0.3-0.2,0.6-0.4,0.9-0.5c0.3-0.1,0.7-0.2,1.1-0.3c0.4-0.1,0.7-0.1,1.1-0.1
		c2.5-0.3,4.7,1.5,5,4c0,0.3,0,0.7,0,1v0.2c0,0.8-0.1,1.5-0.4,2.2c-0.3,0.6-0.7,1.2-1.2,1.7c-0.5,0.5-1.2,0.9-1.8,1.1
		C290.8,248,290,248.1,289.2,248.1z M289,245.2c0.7,0,1.4-0.2,1.9-0.7c0.5-0.5,0.7-1.1,0.7-1.8v-0.2c0-0.7-0.2-1.3-0.7-1.8
		c-1.1-0.9-2.7-0.9-3.8,0c-0.5,0.5-0.7,1.1-0.7,1.8v0.2c0,0.7,0.2,1.3,0.7,1.8C287.6,245,288.3,245.3,289,245.2L289,245.2z"/>
	<path d="M298,247.8v-3h3.2v3l-2.5,3.6h-1.5L298,247.8z"/>
	<path d="M311.2,234.7h-7.6v-2.8h11.2v2.5l-5.2,13.5h-3.6L311.2,234.7z"/>
	<path d="M316,245.3l5.6-4.8c0.5-0.5,1-0.9,1.3-1.2c0.3-0.3,0.6-0.6,0.9-0.9c0.2-0.3,0.4-0.5,0.5-0.8c0.1-0.3,0.2-0.6,0.1-0.9
		c0-0.6-0.2-1.1-0.5-1.6c-0.4-0.4-1-0.6-1.6-0.6c-0.7,0-1.4,0.2-1.9,0.7c-0.5,0.6-0.8,1.5-0.7,2.3h-3.4c-0.1-1.6,0.5-3.1,1.5-4.3
		c1.2-1.1,2.8-1.7,4.5-1.6c0.8,0,1.6,0.1,2.4,0.4c0.6,0.2,1.2,0.6,1.7,1c0.5,0.4,0.8,1,1.1,1.6c0.2,0.6,0.4,1.3,0.4,2
		c0,0.5-0.1,1.1-0.3,1.6c-0.2,0.5-0.5,1-0.8,1.4c-0.4,0.5-0.8,0.9-1.2,1.3c-0.5,0.4-0.9,0.9-1.5,1.3l-3.3,2.7h7.3v2.8H316L316,245.3
		z"/>
	<path d="M335.7,235.8h3.6l3.3,6.5l3.3-6.5h3.4v12.1h-2.9V240l-2.9,5.5h-2l-2.9-5.5v7.9h-2.9V235.8z"/>
	<path d="M352.2,248.1c-0.1,0-0.3,0-0.5,0c-0.2,0-0.3,0-0.5-0.1v-2.7c0.1,0,0.2,0,0.3,0c0.3,0,0.5-0.1,0.8-0.3
		c0.3-0.2,0.4-0.6,0.5-0.9c0.2-0.6,0.3-1.1,0.3-1.7c0.1-0.7,0.1-1.6,0.1-2.6v-4.1h9.6v12.1h-3v-9.6h-3.8v2c0,1.3-0.1,2.6-0.2,3.9
		c-0.1,0.8-0.3,1.6-0.7,2.4c-0.3,0.5-0.7,0.9-1.2,1.2C353.4,248,352.8,248.1,352.2,248.1z"/>
	<path d="M365.6,235.8h3v4.7h5.1v-4.7h3v12.1h-3v-4.9h-5.1v4.9h-3V235.8z"/>
	<path d="M384.7,235.8h2.8v1.8c0.3-0.6,0.8-1.1,1.4-1.4c0.8-0.4,1.6-0.6,2.5-0.6c1.4-0.1,2.8,0.5,3.8,1.5c1,1.3,1.5,2.9,1.4,4.5v0.5
		c0.1,1.7-0.4,3.3-1.4,4.7c-1,1-2.3,1.6-3.7,1.5c-0.8,0-1.5-0.2-2.2-0.5c-0.6-0.3-1.1-0.8-1.5-1.4v6.2h-3L384.7,235.8z M390.7,245.5
		c0.8,0,1.5-0.3,2-0.9c0.6-0.8,0.9-1.8,0.8-2.7v-0.5c0.1-0.9-0.2-1.8-0.8-2.6c-0.5-0.6-1.2-0.9-2-0.9c-0.8,0-1.6,0.2-2.2,0.7
		c-0.6,0.6-0.9,1.4-0.9,2.2v1.4c-0.1,0.9,0.2,1.8,0.8,2.4C389.2,245.3,389.9,245.6,390.7,245.5z"/>
	<path d="M400.8,252.6c-0.2,0-0.5,0-0.7-0.1V250c0.2,0,0.5,0.1,0.7,0.1c0.4,0,0.8-0.2,1.1-0.5c0.4-0.6,0.6-1.1,0.9-1.8l-5.1-12.1
		h3.4l3.3,8.3l3-8.3h3.1l-4.6,12.1c-0.3,0.8-0.6,1.6-0.9,2.2c-0.3,0.5-0.6,1.1-1,1.5c-0.3,0.4-0.8,0.7-1.3,0.9
		C402,252.6,401.4,252.7,400.8,252.6z"/>
	<path d="M417.4,248.1c-0.8,0-1.6-0.1-2.4-0.4c-0.7-0.3-1.4-0.7-1.9-1.3c-0.6-0.6-1-1.4-1.2-2.2c-0.3-1-0.5-2-0.4-3v-0.5
		c0-1.2,0.1-2.4,0.3-3.6c0.2-1,0.5-1.9,1-2.7c0.5-0.7,1.1-1.3,1.9-1.7c0.9-0.5,2-0.7,3-0.7c0.5,0,0.9,0,1.4,0c0.5,0,0.9,0,1.3-0.1
		c0.4,0,0.7-0.1,1.1-0.1c0.3-0.1,0.6-0.2,0.9-0.3v2.7c-0.4,0.2-0.9,0.3-1.4,0.3c-1,0.1-2,0.2-3,0.2c-0.6,0-1.2,0.1-1.8,0.2
		c-0.5,0.1-0.9,0.4-1.2,0.7c-0.3,0.3-0.6,0.8-0.8,1.2c-0.2,0.6-0.3,1.2-0.4,1.8c0.4-0.7,0.9-1.3,1.6-1.7c0.8-0.5,1.8-0.7,2.7-0.6
		c0.7,0,1.4,0.1,2.1,0.4c0.6,0.2,1.2,0.6,1.6,1c0.5,0.5,0.8,1.1,1.1,1.7c0.3,0.7,0.4,1.5,0.4,2.3v0.4c0,0.9-0.1,1.8-0.4,2.6
		c-0.3,0.7-0.7,1.4-1.2,1.9c-0.5,0.5-1.2,0.9-1.9,1.2C419,248,418.2,248.1,417.4,248.1z M417.4,245.5c0.8,0,1.6-0.3,2.1-0.9
		c0.5-0.7,0.8-1.6,0.8-2.6v-0.5c0-0.8-0.2-1.6-0.8-2.2c-1.2-1.1-3-1.1-4.2,0c-0.5,0.6-0.8,1.4-0.8,2.2v0.4c0,0.5,0.1,1,0.2,1.5
		c0.1,0.4,0.3,0.8,0.6,1.1c0.3,0.3,0.6,0.5,0.9,0.7C416.6,245.5,417,245.5,417.4,245.5L417.4,245.5z"/>
	<path d="M275,129.5h3.6v-9.7l-3.6,2.6v-3.3l3.8-2.7h3.2v13.1h3v2.8h-10V129.5z"/>
	<path d="M286.1,129.8l5.6-4.8c0.5-0.5,1-0.9,1.3-1.2c0.3-0.3,0.6-0.6,0.9-0.9c0.2-0.3,0.4-0.5,0.5-0.8c0.1-0.3,0.2-0.6,0.1-0.9
		c0-0.6-0.2-1.1-0.5-1.6c-0.4-0.4-1-0.6-1.6-0.6c-0.7,0-1.4,0.2-1.9,0.7c-0.5,0.6-0.8,1.5-0.7,2.3h-3.4c-0.1-1.6,0.5-3.1,1.5-4.3
		c1.2-1.1,2.8-1.7,4.5-1.6c0.8,0,1.6,0.1,2.4,0.4c0.6,0.2,1.2,0.6,1.7,1c0.5,0.4,0.8,1,1.1,1.6c0.2,0.6,0.4,1.3,0.4,2
		c0,0.5-0.1,1.1-0.3,1.6c-0.2,0.5-0.5,1-0.8,1.4c-0.4,0.5-0.8,0.9-1.2,1.3c-0.5,0.4-0.9,0.9-1.5,1.3l-3.3,2.7h7.3v2.8h-12.1
		L286.1,129.8z"/>
	<path d="M306.3,132.6c-0.9,0-1.7-0.1-2.6-0.3c-0.7-0.2-1.4-0.5-1.9-0.9c-0.5-0.4-0.9-0.9-1.2-1.5c-0.3-0.6-0.4-1.2-0.4-1.9
		c0-0.9,0.3-1.7,0.8-2.4c0.6-0.8,1.5-1.3,2.4-1.5c-0.8-0.2-1.5-0.7-2-1.3c-0.5-0.6-0.8-1.4-0.8-2.3c0-0.6,0.1-1.2,0.4-1.8
		c0.3-0.5,0.6-1,1.1-1.4c0.5-0.4,1.1-0.7,1.8-0.9c1.6-0.4,3.3-0.4,4.8,0c0.7,0.2,1.3,0.5,1.8,0.9c0.5,0.4,0.9,0.8,1.1,1.4
		c0.3,0.5,0.4,1.1,0.4,1.8c0,0.8-0.3,1.6-0.8,2.2c-0.5,0.6-1.2,1.1-2,1.4c2.2,0.7,3.3,2,3.3,3.9c0,0.7-0.1,1.3-0.4,1.9
		c-0.3,0.6-0.7,1.1-1.2,1.5c-0.6,0.4-1.2,0.7-1.9,0.9C308.1,132.5,307.2,132.6,306.3,132.6z M306.3,129.7c0.7,0.1,1.5-0.1,2.1-0.5
		c0.4-0.4,0.7-0.9,0.7-1.5c0-0.6-0.3-1.2-0.8-1.6c-1.1-1-2.8-1-3.9,0c-0.5,0.4-0.8,1-0.8,1.6c0,0.6,0.2,1.1,0.7,1.5
		C304.9,129.6,305.6,129.8,306.3,129.7L306.3,129.7z M306.3,122.9c0.6-0.1,1.2-0.3,1.7-0.7c0.4-0.4,0.7-0.9,0.6-1.5
		c0-0.5-0.2-1-0.6-1.3c-0.5-0.3-1.1-0.5-1.7-0.4c-0.6,0-1.2,0.1-1.7,0.4c-0.4,0.3-0.6,0.8-0.6,1.3c0,0.6,0.2,1.1,0.6,1.5
		C305.2,122.6,305.7,122.9,306.3,122.9z"/>
	<path d="M315.5,132.3v-3h3.2v3l-2.5,3.6h-1.5L315.5,132.3z"/>
	<path d="M328,132.6c-0.9,0-1.8-0.1-2.7-0.4c-0.8-0.3-1.4-0.7-2-1.4c-0.6-0.7-1-1.5-1.2-2.4c-0.3-1.1-0.4-2.3-0.4-3.4v-0.5
		c0-1.3,0.1-2.6,0.5-3.9c0.3-1,0.7-1.9,1.3-2.6c0.5-0.7,1.3-1.2,2.1-1.5c0.8-0.3,1.7-0.5,2.6-0.5c1.3-0.1,2.5,0.3,3.6,0.9
		c1,0.7,1.6,1.9,1.7,3.1h-3.2c-0.4-0.8-1.3-1.3-2.2-1.2c-0.4,0-0.8,0.1-1.2,0.2c-0.4,0.1-0.7,0.4-1,0.7c-0.3,0.4-0.5,0.9-0.7,1.4
		c-0.2,0.7-0.3,1.5-0.3,2.3c0.2-0.3,0.4-0.6,0.7-0.8c0.3-0.2,0.6-0.4,0.9-0.5c0.3-0.1,0.7-0.2,1.1-0.3c0.4-0.1,0.7-0.1,1.1-0.1
		c2.5-0.3,4.7,1.5,5,4c0,0.3,0,0.7,0,1v0.2c0,0.8-0.1,1.5-0.4,2.2c-0.3,0.6-0.7,1.2-1.2,1.7c-0.5,0.5-1.2,0.9-1.8,1.1
		C329.6,132.5,328.8,132.6,328,132.6z M327.7,129.7c0.7,0,1.4-0.2,1.9-0.7c0.5-0.5,0.7-1.1,0.7-1.8V127c0-0.7-0.2-1.3-0.7-1.8
		c-1.1-0.9-2.7-0.9-3.8,0c-0.5,0.5-0.7,1.1-0.7,1.8v0.2c0,0.7,0.2,1.3,0.7,1.8C326.3,129.5,327,129.7,327.7,129.7L327.7,129.7z"/>
	<path d="M341.5,132.6c-1.6,0.1-3.2-0.4-4.4-1.4c-1-1-1.6-2.4-1.5-3.8h3.4c-0.1,0.6,0.2,1.3,0.6,1.7c0.5,0.4,1.2,0.6,1.9,0.6
		c0.7,0.1,1.3-0.1,1.9-0.6c0.4-0.4,0.7-1,0.6-1.6c0-1.4-0.8-2.1-2.5-2.1H340v-2.6h1.5c0.6,0,1.2-0.1,1.7-0.5
		c0.4-0.3,0.6-0.9,0.6-1.4c0-0.5-0.2-1-0.6-1.4c-0.5-0.4-1.1-0.6-1.7-0.5c-0.6-0.1-1.2,0.1-1.7,0.5c-0.4,0.4-0.6,1-0.6,1.5h-3.4
		c-0.1-1.4,0.4-2.7,1.4-3.6c1.2-1,2.7-1.4,4.3-1.3c0.8,0,1.7,0.1,2.5,0.3c0.6,0.2,1.2,0.5,1.8,0.9c0.5,0.4,0.8,0.8,1.1,1.4
		c0.2,0.5,0.4,1.1,0.4,1.7c0,0.8-0.2,1.6-0.7,2.2c-0.5,0.6-1.2,1.1-2,1.3c0.9,0.2,1.6,0.7,2.2,1.3c0.5,0.7,0.8,1.6,0.8,2.5
		c0,0.7-0.1,1.3-0.4,1.9c-0.3,0.6-0.7,1.1-1.2,1.5c-0.6,0.4-1.2,0.8-1.9,1C343.2,132.5,342.3,132.6,341.5,132.6z"/>
	<path d="M355.1,120.2h3.6l3.3,6.5l3.3-6.5h3.4v12.1h-2.9v-7.9l-2.9,5.5h-2l-2.9-5.5v7.9h-2.9V120.2z"/>
	<path d="M371.6,132.6c-0.1,0-0.3,0-0.5,0c-0.2,0-0.3,0-0.5-0.1v-2.7c0.1,0,0.2,0,0.3,0c0.3,0,0.5-0.1,0.8-0.3
		c0.3-0.2,0.4-0.6,0.5-0.9c0.2-0.6,0.3-1.1,0.3-1.7c0.1-0.7,0.1-1.6,0.1-2.6v-4.1h9.6v12.1h-3v-9.6h-3.8v2c0,1.3-0.1,2.6-0.2,3.9
		c-0.1,0.8-0.3,1.6-0.7,2.4c-0.3,0.5-0.7,0.9-1.2,1.2C372.8,132.5,372.2,132.6,371.6,132.6z"/>
	<path d="M385,120.2h3v4.7h5.1v-4.7h3v12.1h-3v-4.9H388v4.9h-3L385,120.2z"/>
	<path d="M404.1,120.2h2.8v1.8c0.3-0.6,0.8-1.1,1.4-1.4c0.8-0.4,1.6-0.6,2.5-0.6c1.4-0.1,2.8,0.5,3.8,1.5c1,1.3,1.5,2.9,1.4,4.5v0.5
		c0.1,1.7-0.4,3.3-1.4,4.7c-1,1-2.3,1.6-3.7,1.5c-0.8,0-1.5-0.2-2.2-0.5c-0.6-0.3-1.1-0.8-1.5-1.4v6.2h-3L404.1,120.2z M410.1,130
		c0.8,0,1.5-0.3,2-0.9c0.6-0.8,0.9-1.8,0.8-2.7v-0.5c0.1-0.9-0.2-1.8-0.8-2.6c-0.5-0.6-1.2-0.9-2-0.9c-0.8,0-1.6,0.2-2.2,0.7
		c-0.6,0.6-0.9,1.4-0.9,2.2v1.4c-0.1,0.9,0.2,1.8,0.8,2.4C408.5,129.8,409.3,130.1,410.1,130L410.1,130z"/>
	<path d="M420.1,137.1c-0.2,0-0.5,0-0.7-0.1v-2.6c0.2,0,0.5,0.1,0.7,0.1c0.4,0,0.8-0.2,1.1-0.5c0.4-0.6,0.6-1.1,0.9-1.8l-5.1-12.1
		h3.4l3.3,8.3l3-8.3h3.1l-4.6,12.1c-0.3,0.8-0.6,1.6-0.9,2.2c-0.3,0.5-0.6,1.1-1,1.5c-0.3,0.4-0.8,0.7-1.3,0.9
		C421.3,137.1,420.7,137.1,420.1,137.1z"/>
	<path d="M436.7,132.6c-0.8,0-1.6-0.1-2.4-0.4c-0.7-0.3-1.4-0.7-1.9-1.3c-0.6-0.6-1-1.4-1.2-2.2c-0.3-1-0.5-2-0.4-3v-0.5
		c0-1.2,0.1-2.4,0.3-3.6c0.2-1,0.5-1.9,1-2.7c0.5-0.7,1.1-1.3,1.9-1.7c0.9-0.5,2-0.7,3-0.7c0.5,0,0.9,0,1.4,0c0.5,0,0.9,0,1.3-0.1
		c0.4,0,0.7-0.1,1.1-0.1c0.3-0.1,0.6-0.2,0.9-0.3v2.7c-0.4,0.2-0.9,0.3-1.4,0.3c-1,0.1-2,0.2-3,0.2c-0.6,0-1.2,0.1-1.8,0.2
		c-0.5,0.1-0.9,0.4-1.2,0.7c-0.3,0.3-0.6,0.8-0.8,1.2c-0.2,0.6-0.3,1.2-0.4,1.8c0.4-0.7,0.9-1.3,1.6-1.7c0.8-0.5,1.8-0.7,2.7-0.6
		c0.7,0,1.4,0.1,2.1,0.4c0.6,0.2,1.2,0.6,1.6,1c0.5,0.5,0.8,1.1,1.1,1.7c0.3,0.7,0.4,1.5,0.4,2.3v0.4c0,0.9-0.1,1.8-0.4,2.6
		c-0.3,0.7-0.7,1.4-1.2,1.9c-0.5,0.5-1.2,0.9-1.9,1.2C438.3,132.4,437.5,132.6,436.7,132.6z M436.7,130c0.8,0,1.6-0.3,2.1-0.9
		c0.5-0.7,0.8-1.6,0.8-2.6v-0.5c0-0.8-0.2-1.6-0.8-2.2c-1.2-1.1-3-1.1-4.2,0c-0.5,0.6-0.8,1.4-0.8,2.2v0.4c0,0.5,0.1,1,0.2,1.5
		c0.1,0.4,0.3,0.8,0.6,1.1c0.3,0.3,0.6,0.5,0.9,0.7C435.9,129.9,436.3,130,436.7,130L436.7,130z"/>
	<path d="M281.1,156.2c-0.8,0-1.6-0.1-2.3-0.4c-0.7-0.3-1.4-0.7-1.9-1.2c-0.6-0.6-1-1.3-1.3-2c-0.4-0.9-0.5-1.9-0.5-2.9v-0.5
		c0-0.9,0.2-1.9,0.5-2.7c0.3-0.7,0.8-1.4,1.3-2c0.6-0.5,1.2-0.9,1.9-1.2c1.5-0.5,3.1-0.5,4.7,0c0.7,0.3,1.4,0.7,1.9,1.2
		c0.6,0.6,1,1.2,1.3,2c0.4,0.9,0.5,1.8,0.5,2.7v0.5c0,1-0.2,1.9-0.5,2.9c-0.3,0.8-0.8,1.5-1.3,2c-0.6,0.5-1.2,0.9-1.9,1.2
		C282.7,156,281.9,156.2,281.1,156.2z M281.1,154.2c0.5,0,1-0.1,1.4-0.3c0.5-0.2,0.9-0.4,1.3-0.8c0.4-0.4,0.7-0.9,0.9-1.4
		c0.2-0.7,0.4-1.4,0.3-2.1v-0.5c0-0.7-0.1-1.3-0.3-2c-0.2-0.5-0.5-1-0.9-1.3c-0.4-0.3-0.8-0.6-1.3-0.8c-0.9-0.3-1.9-0.3-2.9,0
		c-0.5,0.2-0.9,0.4-1.3,0.8c-0.4,0.4-0.7,0.8-0.9,1.3c-0.2,0.6-0.4,1.3-0.3,2v0.5c0,0.7,0.1,1.4,0.3,2.1c0.2,0.5,0.5,1,0.9,1.4
		c0.4,0.4,0.8,0.6,1.3,0.8C280.1,154.2,280.6,154.2,281.1,154.2L281.1,154.2z"/>
	<path d="M295.5,156.2c-0.8,0-1.6-0.2-2.4-0.5c-0.7-0.3-1.4-0.8-1.9-1.4c-0.6-0.7-1-1.4-1.3-2.3c-0.3-1-0.5-2-0.5-3v-0.5
		c0-1.3,0.1-2.6,0.3-3.9c0.2-1,0.5-2,1.1-2.9c0.5-0.8,1.2-1.4,2-1.9c1-0.5,2-0.7,3.1-0.8c1,0,1.9-0.1,2.6-0.1c0.7,0,1.3-0.2,1.9-0.5
		v2c-0.4,0.2-0.9,0.3-1.4,0.3c-0.7,0.1-1.6,0.1-2.8,0.2c-0.7,0-1.4,0.1-2,0.3c-0.6,0.2-1.1,0.4-1.5,0.8c-0.4,0.4-0.8,0.9-1,1.5
		c-0.3,0.7-0.4,1.5-0.4,2.3c0.4-0.8,1-1.5,1.8-2c0.8-0.5,1.8-0.8,2.8-0.7c0.8,0,1.5,0.1,2.2,0.4c0.7,0.3,1.2,0.7,1.7,1.2
		c0.5,0.5,0.9,1.2,1.1,1.9c0.3,0.8,0.4,1.7,0.4,2.5v0.5c0,0.9-0.1,1.8-0.5,2.7c-0.3,0.8-0.7,1.4-1.2,2c-0.5,0.6-1.2,1-1.9,1.3
		C297.2,156,296.3,156.2,295.5,156.2z M295.5,154.2c1,0,2.1-0.4,2.8-1.2c0.8-1,1.2-2.2,1.1-3.4v-0.5c0-0.6-0.1-1.1-0.3-1.7
		c-0.2-0.5-0.4-0.9-0.8-1.3c-0.3-0.4-0.8-0.6-1.2-0.8c-1-0.4-2.1-0.4-3.1,0c-0.5,0.2-0.9,0.5-1.2,0.8c-0.3,0.4-0.6,0.8-0.8,1.3
		c-0.2,0.5-0.3,1.1-0.3,1.7v0.5c0,0.6,0.1,1.3,0.3,1.9c0.2,0.5,0.5,1,0.8,1.4C293.5,153.8,294.5,154.2,295.5,154.2L295.5,154.2z"/>
	<path d="M303.9,156.2c-0.2,0-0.5,0-0.7-0.1V154c0.1,0,0.2,0,0.4,0c0.3,0,0.7-0.1,0.9-0.3c0.3-0.3,0.5-0.7,0.6-1.2
		c0.2-0.7,0.3-1.5,0.4-2.3c0.1-1,0.1-2.2,0.1-3.6v-3.4h9.1v12.7h-2.1v-10.8h-4.9v2c0,1.5-0.1,3-0.2,4.4c-0.1,1-0.3,1.9-0.7,2.8
		C306.3,155.4,305.2,156.2,303.9,156.2L303.9,156.2z"/>
	<path d="M322.2,156.2c-0.6,0-1.3-0.1-1.9-0.3c-0.5-0.2-1-0.5-1.4-0.8c-0.4-0.4-0.7-0.8-0.8-1.2c-0.2-0.5-0.3-1-0.3-1.6
		c-0.1-1,0.3-2.1,1.1-2.7c0.9-0.6,2.1-0.9,3.2-0.8h4.1v-0.9c0.1-0.8-0.2-1.6-0.7-2.3c-0.6-0.5-1.4-0.7-2.2-0.6
		c-0.7-0.1-1.4,0.1-2,0.5c-0.4,0.3-0.6,0.7-0.7,1.2h-2.1c0-0.5,0.2-1,0.4-1.4c0.3-0.4,0.6-0.8,1-1.1c0.5-0.3,1-0.6,1.5-0.8
		c0.6-0.2,1.3-0.3,2-0.3c1.3-0.1,2.6,0.3,3.6,1.1c1,0.9,1.5,2.2,1.3,3.5v5.2c0,0.7,0,1.3,0,1.8c0,0.5,0,1,0.1,1.5h-1.8
		c0-0.4-0.1-0.7-0.1-1c0-0.3,0-0.7,0-1.1c-0.4,0.7-0.9,1.3-1.6,1.7C324.1,156,323.1,156.2,322.2,156.2z M322.6,154.2
		c0.5,0,0.9-0.1,1.4-0.2c0.4-0.1,0.8-0.3,1.2-0.6c0.3-0.3,0.6-0.6,0.8-1c0.2-0.4,0.3-0.9,0.3-1.3v-0.9h-3.8c-0.6,0-1.3,0.1-1.8,0.5
		c-0.5,0.3-0.7,0.9-0.7,1.5c0,0.6,0.2,1.1,0.6,1.5C321.2,154.1,321.9,154.3,322.6,154.2L322.6,154.2z"/>
	<path d="M337,156.2c-0.8,0-1.6-0.1-2.3-0.4c-0.7-0.3-1.3-0.7-1.8-1.2c-0.5-0.6-1-1.3-1.2-2c-0.3-0.9-0.5-1.9-0.4-2.9v-0.5
		c0-0.9,0.1-1.8,0.5-2.7c0.3-0.7,0.7-1.4,1.3-2c0.5-0.5,1.1-0.9,1.8-1.2c0.7-0.3,1.4-0.4,2.2-0.4c0.7,0,1.4,0.1,2,0.3
		c0.6,0.2,1.1,0.5,1.6,0.9c0.4,0.4,0.8,0.8,1.1,1.3c0.3,0.5,0.5,1,0.6,1.6h-2.2c-0.1-0.3-0.3-0.6-0.4-0.9c-0.2-0.3-0.4-0.5-0.6-0.7
		c-0.3-0.2-0.6-0.4-0.9-0.5c-0.4-0.1-0.8-0.2-1.2-0.2c-0.5,0-0.9,0.1-1.3,0.3c-0.4,0.2-0.8,0.4-1.2,0.8c-0.4,0.4-0.6,0.8-0.8,1.3
		c-0.2,0.6-0.3,1.3-0.3,2v0.5c0,0.7,0.1,1.4,0.3,2.1c0.2,0.5,0.4,1,0.8,1.4c0.3,0.3,0.7,0.6,1.2,0.8c0.4,0.2,0.9,0.3,1.3,0.3
		c0.7,0,1.4-0.2,2-0.6c0.5-0.4,0.9-0.9,1.1-1.6h2.2c-0.3,1.2-0.9,2.2-1.9,3C339.5,155.8,338.3,156.2,337,156.2z"/>
	<path d="M348.1,145.1h-4.3v-1.9h10.8v1.9h-4.3v10.8h-2.1L348.1,145.1z"/>
	<path d="M357,143.2h2.1v5.3h6.6v-5.3h2.1v12.7h-2.1v-5.5h-6.6v5.5H357V143.2z"/>
	<path d="M376.9,156.2c-0.8,0-1.6-0.1-2.3-0.4c-0.7-0.3-1.4-0.7-1.9-1.2c-0.6-0.6-1-1.3-1.3-2c-0.4-0.9-0.5-1.9-0.5-2.9v-0.5
		c0-0.9,0.2-1.9,0.5-2.7c0.3-0.7,0.8-1.4,1.3-2c0.6-0.5,1.2-0.9,1.9-1.2c1.5-0.5,3.1-0.5,4.7,0c0.7,0.3,1.4,0.7,1.9,1.2
		c0.6,0.6,1,1.2,1.3,2c0.4,0.9,0.5,1.8,0.5,2.7v0.5c0,1-0.2,1.9-0.5,2.9c-0.3,0.8-0.8,1.5-1.3,2c-0.6,0.5-1.2,0.9-1.9,1.2
		C378.5,156,377.7,156.2,376.9,156.2z M376.9,154.2c0.5,0,1-0.1,1.4-0.3c0.5-0.2,0.9-0.4,1.3-0.8c0.4-0.4,0.7-0.9,0.9-1.4
		c0.2-0.7,0.4-1.4,0.3-2.1v-0.5c0-0.7-0.1-1.3-0.3-2c-0.2-0.5-0.5-1-0.9-1.3c-0.4-0.3-0.8-0.6-1.3-0.8c-0.9-0.3-1.9-0.3-2.9,0
		c-0.5,0.2-0.9,0.4-1.3,0.8c-0.4,0.4-0.7,0.8-0.9,1.3c-0.2,0.6-0.4,1.3-0.3,2v0.5c0,0.7,0.1,1.4,0.3,2.1c0.2,0.5,0.5,1,0.9,1.4
		c0.4,0.4,0.8,0.6,1.3,0.8C375.9,154.2,376.4,154.2,376.9,154.2L376.9,154.2z"/>
	<path d="M386,143.2h2.1v9.6l6.6-9.6h2.1v12.7h-2.1v-9.6l-6.6,9.6H386V143.2z M391.4,141.6c-1,0.1-2-0.2-2.7-0.8
		c-0.6-0.6-0.9-1.5-0.9-2.3h2.1c0,1.1,0.5,1.6,1.5,1.6c0.8,0.1,1.5-0.5,1.6-1.2c0-0.1,0-0.3,0-0.4h2c0.1,0.9-0.3,1.7-0.9,2.3
		C393.4,141.4,392.4,141.7,391.4,141.6L391.4,141.6z"/>
	<path d="M411.9,156.2c-0.8,0-1.6-0.2-2.4-0.5c-0.7-0.3-1.4-0.8-1.9-1.4c-0.6-0.7-1-1.4-1.3-2.3c-0.3-1-0.5-2-0.5-3v-0.5
		c0-1.3,0.1-2.6,0.3-3.9c0.2-1,0.5-2,1.1-2.9c0.5-0.8,1.2-1.4,2-1.9c1-0.5,2-0.7,3.1-0.8c1,0,1.9-0.1,2.6-0.1c0.7,0,1.3-0.2,1.9-0.5
		v2c-0.4,0.2-0.9,0.3-1.4,0.3c-0.7,0.1-1.6,0.1-2.8,0.2c-0.7,0-1.4,0.1-2,0.3c-0.6,0.2-1.1,0.4-1.5,0.8c-0.4,0.4-0.8,0.9-1,1.5
		c-0.3,0.7-0.4,1.5-0.4,2.3c0.4-0.8,1-1.5,1.8-2c0.8-0.5,1.8-0.8,2.8-0.7c0.8,0,1.5,0.1,2.2,0.4c0.7,0.3,1.2,0.7,1.7,1.2
		c0.5,0.5,0.9,1.2,1.1,1.9c0.3,0.8,0.4,1.7,0.4,2.5v0.5c0,0.9-0.1,1.8-0.5,2.7c-0.3,0.8-0.7,1.4-1.2,2c-0.5,0.6-1.2,1-1.9,1.3
		C413.6,156,412.7,156.2,411.9,156.2z M411.9,154.2c1,0,2.1-0.4,2.8-1.2c0.8-1,1.2-2.2,1.1-3.4v-0.5c0-0.6-0.1-1.1-0.3-1.7
		c-0.2-0.5-0.4-0.9-0.8-1.3c-0.3-0.4-0.8-0.6-1.2-0.8c-1-0.4-2.1-0.4-3.1,0c-0.5,0.2-0.9,0.5-1.2,0.8c-0.3,0.4-0.6,0.8-0.8,1.3
		c-0.2,0.5-0.3,1.1-0.3,1.7v0.5c0,0.6,0.1,1.3,0.3,1.9c0.2,0.5,0.5,1,0.8,1.4C409.9,153.8,410.9,154.2,411.9,154.2L411.9,154.2z"/>
	<path d="M420.9,143.2h2.1v5.3h1.8c0-0.8,0.2-1.7,0.6-2.4c0.3-0.7,0.7-1.3,1.3-1.7c0.5-0.5,1.1-0.8,1.8-1c1.4-0.5,3-0.5,4.4,0
		c0.7,0.3,1.3,0.7,1.9,1.2c0.6,0.6,1,1.2,1.3,2c0.3,0.9,0.5,1.8,0.5,2.7v0.5c0,1-0.1,1.9-0.5,2.9c-0.3,0.8-0.7,1.4-1.3,2
		c-0.5,0.5-1.2,0.9-1.9,1.2c-1.4,0.5-3,0.5-4.4,0c-0.7-0.2-1.3-0.6-1.8-1.1c-0.5-0.5-1-1.1-1.3-1.8c-0.3-0.8-0.5-1.7-0.6-2.6H423
		v5.5h-2.1L420.9,143.2z M430.6,154.2c0.5,0,0.9-0.1,1.4-0.3c0.5-0.2,0.9-0.4,1.2-0.8c0.4-0.4,0.7-0.9,0.8-1.4
		c0.2-0.7,0.3-1.4,0.3-2.1v-0.5c0-0.7-0.1-1.3-0.3-2c-0.2-0.5-0.5-1-0.8-1.3c-0.3-0.3-0.7-0.6-1.2-0.8c-0.9-0.3-1.9-0.3-2.8,0
		c-0.4,0.2-0.9,0.4-1.2,0.8c-0.4,0.4-0.6,0.8-0.8,1.3c-0.2,0.6-0.3,1.3-0.3,2v0.5c0,0.7,0.1,1.4,0.3,2.1c0.2,0.5,0.5,1,0.8,1.4
		c0.3,0.4,0.7,0.6,1.2,0.8C429.7,154.2,430.2,154.2,430.6,154.2L430.6,154.2z"/>
	<path d="M438.1,154.1h1.6c0.2-0.3,0.4-0.7,0.5-1.1c0.2-0.6,0.3-1.2,0.4-1.8c0.1-0.7,0.2-1.4,0.3-2.2c0.1-0.8,0.1-1.6,0.1-2.4v-3.4
		h8.9v10.8h1.8v4.9h-2v-3h-9.4v3h-2V154.1z M447.6,154.1v-9h-4.7v2c0,0.7,0,1.3-0.1,2s-0.1,1.3-0.2,1.9c-0.1,0.6-0.2,1.2-0.3,1.7
		c-0.1,0.5-0.3,0.9-0.5,1.4H447.6z"/>
	<path d="M457.5,149.4l-4.6-6.2h2.4l3.9,5.3h1.5v-5.3h2.1v5.3h1.4l4-5.3h2.3l-4.6,6.1l4.8,6.6h-2.5l-4-5.6h-1.4v5.6h-2.1v-5.6h-1.5
		l-4,5.6h-2.4L457.5,149.4z"/>
	<path d="M478.5,156.2c-0.8,0-1.6-0.1-2.3-0.4c-0.7-0.3-1.4-0.7-1.9-1.2c-0.6-0.6-1-1.3-1.3-2c-0.4-0.9-0.5-1.9-0.5-2.9v-0.5
		c0-0.9,0.1-1.9,0.5-2.7c0.3-0.7,0.7-1.4,1.3-1.9c0.5-0.5,1.2-0.9,1.9-1.2c0.7-0.3,1.5-0.4,2.2-0.4c2.9-0.3,5.6,1.8,5.9,4.8
		c0,0.4,0,0.8,0,1.1v1.3h-9.6c0,0.7,0.1,1.3,0.4,1.9c0.2,0.5,0.5,0.9,0.9,1.2c0.4,0.3,0.8,0.6,1.3,0.7c0.5,0.1,0.9,0.2,1.4,0.2
		c0.8,0,1.5-0.1,2.2-0.5c0.5-0.3,0.9-0.8,1.1-1.3h2.1c-0.1,0.6-0.3,1.1-0.7,1.6c-0.3,0.5-0.7,0.9-1.2,1.2c-0.5,0.3-1,0.6-1.6,0.7
		C479.8,156.1,479.2,156.2,478.5,156.2z M478.4,144.9c-0.5,0-1,0.1-1.4,0.2c-0.5,0.1-0.9,0.4-1.2,0.6c-0.4,0.3-0.7,0.7-0.9,1.1
		c-0.2,0.5-0.4,1.1-0.3,1.6h7.7c0-0.6-0.1-1.1-0.3-1.7c-0.2-0.4-0.5-0.8-0.8-1.1c-0.3-0.3-0.8-0.5-1.2-0.6
		C479.4,144.9,478.9,144.9,478.4,144.9L478.4,144.9z"/>
	<path d="M490.1,145.1h-4.3v-1.9h10.8v1.9h-4.3v10.8h-2.1L490.1,145.1z"/>
	<path d="M238.2,16.8c-0.9,0-1.8-0.1-2.7-0.4c-0.8-0.3-1.4-0.7-2-1.4c-0.6-0.7-1-1.5-1.2-2.4c-0.3-1.1-0.4-2.3-0.4-3.4V8.8
		c0-1.3,0.1-2.6,0.5-3.9c0.3-1,0.7-1.9,1.3-2.6c0.5-0.7,1.3-1.2,2.1-1.5c0.8-0.3,1.7-0.5,2.6-0.5c1.3-0.1,2.5,0.3,3.6,0.9
		c1,0.7,1.6,1.9,1.7,3.1h-3.2c-0.4-0.8-1.3-1.3-2.2-1.2c-0.4,0-0.8,0.1-1.2,0.2c-0.4,0.1-0.7,0.4-1,0.7c-0.3,0.4-0.5,0.9-0.7,1.4
		c-0.2,0.7-0.3,1.5-0.3,2.3c0.2-0.3,0.4-0.6,0.7-0.8c0.3-0.2,0.6-0.4,0.9-0.5c0.3-0.1,0.7-0.2,1.1-0.3c0.4-0.1,0.7-0.1,1.1-0.1
		c1.4-0.1,2.7,0.4,3.7,1.3c0.9,1,1.4,2.3,1.3,3.7v0.2c0,0.8-0.1,1.5-0.4,2.2c-0.3,0.6-0.7,1.2-1.2,1.7c-0.5,0.5-1.2,0.9-1.8,1.1
		C239.8,16.7,239,16.8,238.2,16.8z M238,13.9c0.7,0,1.4-0.2,1.9-0.7c0.5-0.5,0.7-1.1,0.7-1.8v-0.2c0-0.7-0.2-1.3-0.7-1.8
		c-1.1-0.9-2.7-0.9-3.8,0c-0.5,0.5-0.7,1.1-0.7,1.8v0.2c0,0.7,0.2,1.3,0.7,1.8C236.5,13.7,237.2,13.9,238,13.9z"/>
	<path d="M246,13.7h3.6V4L246,6.6V3.3l3.8-2.7h3.2v13.1h3v2.8h-10V13.7z"/>
	<path d="M263.7,16.8c-0.9,0-1.7-0.1-2.6-0.3c-0.7-0.2-1.4-0.5-1.9-0.9c-0.5-0.4-0.9-0.9-1.2-1.5c-0.3-0.6-0.4-1.2-0.4-1.9
		c0-0.9,0.3-1.7,0.8-2.4c0.6-0.8,1.5-1.3,2.4-1.5c-0.8-0.2-1.5-0.7-2-1.3c-0.5-0.6-0.8-1.4-0.8-2.3c0-0.6,0.1-1.2,0.4-1.8
		c0.3-0.5,0.6-1,1.1-1.4c0.5-0.4,1.1-0.7,1.8-0.9c1.6-0.4,3.3-0.4,4.8,0c0.7,0.2,1.3,0.5,1.8,0.9c0.5,0.4,0.9,0.8,1.1,1.4
		c0.3,0.5,0.4,1.1,0.4,1.8c0,0.8-0.3,1.6-0.8,2.2c-0.5,0.6-1.2,1.1-2,1.4c2.2,0.7,3.3,2,3.3,3.9c0,0.7-0.1,1.3-0.4,1.9
		c-0.3,0.6-0.7,1.1-1.2,1.5c-0.6,0.4-1.2,0.7-1.9,0.9C265.4,16.7,264.6,16.8,263.7,16.8z M263.7,13.9c0.7,0.1,1.5-0.1,2.1-0.5
		c0.4-0.4,0.7-0.9,0.7-1.5c0-0.6-0.3-1.2-0.8-1.6c-1.1-1-2.8-1-3.9,0c-0.5,0.4-0.8,1-0.8,1.6c0,0.6,0.2,1.1,0.7,1.5
		C262.2,13.8,263,14,263.7,13.9z M263.7,7.1c0.6-0.1,1.2-0.3,1.7-0.7c0.4-0.4,0.7-0.9,0.6-1.5c0-0.5-0.2-1-0.6-1.3
		c-0.5-0.3-1.1-0.5-1.7-0.4c-0.6,0-1.2,0.1-1.7,0.4c-0.4,0.3-0.6,0.8-0.6,1.3c0,0.6,0.2,1.1,0.6,1.5C262.5,6.8,263.1,7.1,263.7,7.1z
		"/>
	<path d="M272.8,16.5v-3h3.2v3l-2.5,3.6h-1.5L272.8,16.5z"/>
	<path d="M285.3,16.8c-0.9,0-1.8-0.1-2.7-0.4c-0.8-0.3-1.4-0.7-2-1.4c-0.6-0.7-1-1.5-1.2-2.4c-0.3-1.1-0.4-2.3-0.4-3.4V8.8
		c0-1.3,0.1-2.6,0.5-3.9c0.3-1,0.7-1.9,1.3-2.6c0.5-0.7,1.3-1.2,2.1-1.5c0.8-0.3,1.7-0.5,2.6-0.5c1.3-0.1,2.5,0.3,3.6,0.9
		c1,0.7,1.6,1.9,1.7,3.1h-3.2c-0.4-0.8-1.3-1.3-2.2-1.2c-0.4,0-0.8,0.1-1.2,0.2c-0.4,0.1-0.7,0.4-1,0.7c-0.3,0.4-0.5,0.9-0.7,1.4
		c-0.2,0.7-0.3,1.5-0.3,2.3c0.2-0.3,0.4-0.6,0.7-0.8c0.3-0.2,0.6-0.4,0.9-0.5c0.3-0.1,0.7-0.2,1.1-0.3c0.4-0.1,0.7-0.1,1.1-0.1
		c1.4-0.1,2.7,0.4,3.7,1.3c0.9,1,1.4,2.3,1.3,3.7v0.2c0,0.8-0.1,1.5-0.4,2.2c-0.3,0.6-0.7,1.2-1.2,1.7c-0.5,0.5-1.2,0.9-1.8,1.1
		C286.9,16.7,286.1,16.8,285.3,16.8z M285.1,13.9c0.7,0,1.4-0.2,1.9-0.7c0.5-0.5,0.7-1.1,0.7-1.8v-0.2c0-0.7-0.2-1.3-0.7-1.8
		c-1.1-0.9-2.7-0.9-3.8,0c-0.5,0.5-0.7,1.1-0.7,1.8v0.2c0,0.7,0.2,1.3,0.7,1.8C283.7,13.7,284.4,13.9,285.1,13.9L285.1,13.9z"/>
	<path d="M299,16.8c-0.9,0-1.8-0.1-2.6-0.4c-0.6-0.2-1.2-0.6-1.7-1c-0.4-0.4-0.8-0.9-1-1.5c-0.2-0.6-0.3-1.2-0.4-1.8h3.4
		c0,0.5,0.3,1,0.6,1.3c0.5,0.4,1.1,0.6,1.6,0.5c1.7,0,2.5-0.9,2.5-2.8c0-0.4-0.1-0.9-0.2-1.3c-0.1-0.3-0.3-0.6-0.5-0.8
		c-0.2-0.2-0.5-0.4-0.8-0.5c-0.3-0.1-0.6-0.1-1-0.1c-0.5,0-0.9,0.1-1.3,0.3c-0.3,0.2-0.6,0.5-0.8,0.8h-3.2V0.6H304v2.8h-7v2.9
		c0.3-0.3,0.7-0.5,1.2-0.6c0.5-0.1,1-0.2,1.6-0.2c0.7,0,1.4,0.1,2.1,0.4c0.6,0.2,1.2,0.6,1.6,1.1c0.5,0.5,0.8,1.1,1,1.8
		c0.3,0.8,0.4,1.6,0.4,2.4c0,0.8-0.1,1.6-0.4,2.4c-0.3,0.7-0.7,1.3-1.2,1.8c-0.5,0.5-1.2,0.9-1.9,1.1
		C300.6,16.7,299.8,16.8,299,16.8z"/>
	<path d="M312.5,4.4h3.6l3.3,6.5l3.3-6.5h3.4v12.1h-2.9V8.6l-2.9,5.5h-2l-2.9-5.5v7.9h-2.9V4.4z"/>
	<path d="M329.1,16.8c-0.1,0-0.3,0-0.5,0c-0.2,0-0.3,0-0.5-0.1V14c0.1,0,0.2,0,0.3,0c0.3,0,0.5-0.1,0.8-0.3c0.3-0.2,0.4-0.6,0.5-0.9
		c0.2-0.6,0.3-1.1,0.3-1.7c0.1-0.7,0.1-1.6,0.1-2.6V4.4h9.6v12.1h-3V6.9H333v2c0,1.3-0.1,2.6-0.2,3.9c-0.1,0.8-0.3,1.6-0.7,2.4
		c-0.3,0.5-0.7,0.9-1.2,1.2C330.3,16.7,329.7,16.8,329.1,16.8z"/>
	<path d="M342.6,4.4h3v4.7h5.1V4.4h3v12.1h-3v-4.9h-5.1v4.9h-3V4.4z"/>
	<path d="M361.9,4.4h2.8v1.8c0.3-0.6,0.8-1.1,1.4-1.4c0.8-0.4,1.6-0.6,2.5-0.6c1.4-0.1,2.8,0.5,3.8,1.5c1,1.3,1.5,2.9,1.4,4.5v0.5
		c0.1,1.7-0.4,3.3-1.4,4.7c-1,1-2.3,1.6-3.7,1.5c-0.8,0-1.5-0.2-2.2-0.5c-0.6-0.3-1.1-0.8-1.5-1.4v6.2h-3V4.4z M367.9,14.2
		c0.8,0,1.5-0.3,2-0.9c0.6-0.8,0.9-1.8,0.8-2.7v-0.5c0.1-0.9-0.2-1.8-0.8-2.6c-0.5-0.6-1.2-0.9-2-0.9c-0.8,0-1.6,0.2-2.2,0.7
		c-0.6,0.6-0.9,1.4-0.9,2.2V11c-0.1,0.9,0.2,1.8,0.8,2.4C366.3,14,367.1,14.3,367.9,14.2L367.9,14.2z"/>
	<path d="M378,21.3c-0.2,0-0.5,0-0.7-0.1v-2.5c0.2,0,0.5,0.1,0.7,0.1c0.4,0,0.8-0.2,1.1-0.5c0.4-0.6,0.6-1.1,0.9-1.8l-5.1-12.1h3.4
		l3.3,8.3l3-8.3h3.1l-4.6,12.1c-0.3,0.8-0.6,1.6-0.9,2.2c-0.3,0.5-0.6,1.1-1,1.5c-0.3,0.4-0.8,0.7-1.3,0.9
		C379.2,21.3,378.6,21.3,378,21.3z"/>
	<path d="M394.7,16.8c-0.8,0-1.6-0.1-2.4-0.4c-0.7-0.3-1.4-0.7-1.9-1.3c-0.6-0.6-1-1.4-1.2-2.2c-0.3-1-0.5-2-0.4-3V9.4
		c0-1.2,0.1-2.4,0.3-3.6c0.2-1,0.5-1.9,1-2.7c0.5-0.7,1.1-1.3,1.9-1.7c0.9-0.5,2-0.7,3-0.7c0.5,0,0.9,0,1.4,0c0.5,0,0.9,0,1.3-0.1
		c0.4,0,0.7-0.1,1.1-0.1c0.3-0.1,0.6-0.2,0.9-0.3v2.7c-0.4,0.2-0.9,0.3-1.4,0.3c-1,0.1-2,0.2-3,0.2c-0.6,0-1.2,0.1-1.8,0.2
		c-0.5,0.1-0.9,0.4-1.2,0.7c-0.3,0.3-0.6,0.8-0.8,1.2c-0.2,0.6-0.3,1.2-0.4,1.8c0.4-0.7,0.9-1.3,1.6-1.7c0.8-0.5,1.8-0.7,2.7-0.6
		c0.7,0,1.4,0.1,2.1,0.4c0.6,0.2,1.2,0.6,1.6,1c0.5,0.5,0.8,1.1,1.1,1.7c0.3,0.7,0.4,1.5,0.4,2.3v0.4c0,0.9-0.1,1.7-0.4,2.6
		c-0.3,0.7-0.7,1.4-1.2,1.9c-0.5,0.5-1.2,0.9-1.9,1.2C396.3,16.6,395.5,16.8,394.7,16.8z M394.7,14.2c0.8,0,1.6-0.3,2.1-0.9
		c0.5-0.7,0.8-1.6,0.8-2.6v-0.5c0-0.8-0.2-1.6-0.8-2.2c-1.2-1.1-3-1.1-4.2,0c-0.5,0.6-0.8,1.4-0.8,2.2v0.4c0,0.5,0.1,1,0.2,1.5
		c0.1,0.4,0.3,0.8,0.6,1.1c0.3,0.3,0.6,0.5,0.9,0.7C393.9,14.1,394.3,14.2,394.7,14.2L394.7,14.2z"/>
	<path d="M254,40.7c-1.8,0.1-3.6-0.5-5-1.7c-1.2-1.3-1.8-3-1.7-4.8v-0.5c-0.1-1.7,0.5-3.4,1.7-4.6c1.4-1.2,3.2-1.8,5-1.7v-3.8h2.1
		v3.8c1.8-0.1,3.6,0.5,5,1.7c1.2,1.2,1.8,2.9,1.7,4.6v0.5c0.1,1.8-0.5,3.5-1.7,4.8c-1.4,1.2-3.2,1.8-5,1.7v4.6H254V40.7z
		 M249.5,34.2c-0.1,1.2,0.3,2.5,1.1,3.4c1,0.8,2.2,1.2,3.5,1.1v-9.4c-1.3-0.1-2.5,0.3-3.5,1.1c-0.8,0.9-1.2,2.1-1.1,3.3V34.2z
		 M260.7,33.7c0.1-1.2-0.3-2.4-1.1-3.3c-1-0.8-2.2-1.2-3.5-1.1v9.4c1.3,0.1,2.5-0.3,3.5-1.1c0.8-0.9,1.2-2.2,1.1-3.4V33.7z"/>
	<path d="M271.2,40.7c-0.8,0-1.6-0.1-2.3-0.4c-0.7-0.3-1.4-0.7-1.9-1.2c-0.6-0.6-1-1.3-1.3-2c-0.4-0.9-0.5-1.9-0.5-2.9v-0.5
		c0-0.9,0.1-1.9,0.5-2.7c0.3-0.7,0.7-1.4,1.3-1.9c0.5-0.5,1.2-0.9,1.9-1.2c0.7-0.3,1.5-0.4,2.2-0.4c1.6-0.1,3.2,0.5,4.3,1.5
		c1.1,1.2,1.6,2.7,1.5,4.3v1.3h-9.6c0,0.7,0.1,1.3,0.4,1.9c0.2,0.5,0.5,0.9,0.9,1.2c0.4,0.3,0.8,0.6,1.3,0.7
		c0.5,0.1,0.9,0.2,1.4,0.2c0.8,0,1.5-0.1,2.2-0.5c0.5-0.3,0.9-0.8,1.1-1.3h2.1c-0.1,0.6-0.3,1.1-0.7,1.6c-0.3,0.5-0.7,0.9-1.2,1.2
		c-0.5,0.3-1,0.6-1.6,0.7C272.5,40.6,271.8,40.7,271.2,40.7z M271.1,29.4c-0.5,0-1,0.1-1.4,0.2c-0.5,0.1-0.9,0.4-1.2,0.6
		c-0.4,0.3-0.7,0.7-0.9,1.1c-0.2,0.5-0.4,1.1-0.3,1.6h7.7c0-0.6-0.1-1.1-0.3-1.7c-0.2-0.4-0.5-0.8-0.8-1.1c-0.3-0.3-0.8-0.5-1.2-0.6
		C272,29.4,271.5,29.4,271.1,29.4L271.1,29.4z"/>
	<path d="M278.4,38.5h1.6c0.2-0.3,0.4-0.7,0.5-1.1c0.2-0.6,0.3-1.2,0.4-1.8c0.1-0.7,0.2-1.4,0.3-2.2c0.1-0.8,0.1-1.6,0.1-2.4v-3.4
		h8.9v10.8h1.8v4.9h-2v-3h-9.4v3h-2L278.4,38.5z M287.9,38.5v-9h-4.7v2c0,0.7,0,1.3-0.1,2c0,0.7-0.1,1.3-0.2,1.9
		c-0.1,0.6-0.2,1.2-0.3,1.7c-0.1,0.5-0.3,0.9-0.5,1.4L287.9,38.5z"/>
	<path d="M299.6,40.7c-0.8,0-1.6-0.1-2.3-0.4c-0.7-0.3-1.4-0.7-1.9-1.2c-0.6-0.6-1-1.3-1.3-2c-0.4-0.9-0.5-1.9-0.5-2.9v-0.5
		c0-0.9,0.1-1.9,0.5-2.7c0.3-0.7,0.7-1.4,1.3-1.9c0.5-0.5,1.2-0.9,1.9-1.2c0.7-0.3,1.5-0.4,2.2-0.4c1.6-0.1,3.2,0.5,4.3,1.5
		c1.1,1.2,1.6,2.7,1.5,4.3v1.3h-9.6c0,0.7,0.1,1.3,0.4,1.9c0.2,0.5,0.5,0.9,0.9,1.2c0.4,0.3,0.8,0.6,1.3,0.7
		c0.5,0.1,0.9,0.2,1.4,0.2c0.8,0,1.5-0.1,2.2-0.5c0.5-0.3,0.9-0.8,1.1-1.3h2.1c-0.1,0.6-0.3,1.1-0.7,1.6c-0.3,0.5-0.7,0.9-1.2,1.2
		c-0.5,0.3-1,0.6-1.6,0.7C300.9,40.6,300.3,40.7,299.6,40.7z M299.5,29.4c-0.5,0-1,0.1-1.4,0.2c-0.5,0.1-0.9,0.3-1.2,0.6
		c-0.4,0.3-0.7,0.7-0.9,1.1c-0.2,0.5-0.4,1.1-0.3,1.6h7.7c0-0.6-0.1-1.1-0.3-1.7c-0.2-0.4-0.5-0.8-0.8-1.1c-0.3-0.3-0.8-0.5-1.2-0.6
		C300.5,29.4,300,29.4,299.5,29.4L299.5,29.4z"/>
	<path d="M308.3,27.7h2v2.4c0.4-0.8,1-1.5,1.8-2c0.8-0.5,1.8-0.7,2.7-0.7c1.4-0.1,2.9,0.5,3.8,1.6c1.1,1.3,1.6,3,1.4,4.7v0.5
		c0,1-0.1,1.9-0.4,2.8c-0.2,0.7-0.6,1.4-1.1,2c-0.5,0.5-1,0.9-1.7,1.2c-0.7,0.3-1.4,0.4-2.1,0.4c-1,0-1.9-0.2-2.7-0.7
		c-0.7-0.4-1.3-1.1-1.6-1.8v7.1h-2.1L308.3,27.7z M314.3,38.8c0.5,0,1-0.1,1.4-0.3c0.4-0.2,0.8-0.5,1.2-0.9c0.3-0.4,0.6-0.9,0.8-1.4
		c0.2-0.6,0.3-1.3,0.3-2v-0.5c0-0.6-0.1-1.3-0.3-1.8c-0.2-0.5-0.4-1-0.8-1.4c-0.3-0.4-0.7-0.7-1.2-0.9c-0.5-0.2-0.9-0.3-1.4-0.3
		c-0.5,0-1.1,0.1-1.6,0.3c-0.5,0.2-0.9,0.4-1.2,0.8c-0.7,0.7-1.1,1.6-1.1,2.6v1.9c0,0.5,0.1,1.1,0.3,1.6c0.4,0.9,1.1,1.7,2,2
		C313.2,38.7,313.7,38.8,314.3,38.8z"/>
	<path d="M326.6,40.7c-0.6,0-1.3-0.1-1.9-0.3c-0.5-0.2-1-0.5-1.4-0.8c-0.4-0.4-0.7-0.8-0.8-1.2c-0.2-0.5-0.3-1-0.3-1.6
		c-0.1-1,0.3-2.1,1.1-2.7c0.9-0.6,2.1-0.9,3.2-0.8h4.1v-0.9c0.1-0.8-0.2-1.6-0.7-2.3c-0.6-0.5-1.4-0.7-2.2-0.6
		c-0.7-0.1-1.4,0.1-2,0.5c-0.4,0.3-0.6,0.7-0.7,1.2H323c0-0.5,0.2-1,0.4-1.4c0.3-0.4,0.6-0.8,1-1.1c0.5-0.3,1-0.6,1.5-0.8
		c0.6-0.2,1.3-0.3,2-0.3c1.3-0.1,2.6,0.3,3.6,1.1c1,0.9,1.5,2.2,1.3,3.5v5.2c0,0.7,0,1.3,0,1.8c0,0.5,0,1,0.1,1.5h-1.8
		c0-0.4-0.1-0.7-0.1-1c0-0.3,0-0.7,0-1.1c-0.4,0.7-0.9,1.3-1.6,1.7C328.5,40.4,327.6,40.7,326.6,40.7z M327.1,38.7
		c0.5,0,0.9-0.1,1.4-0.2c0.4-0.1,0.8-0.3,1.2-0.6c0.3-0.3,0.6-0.6,0.8-1c0.2-0.4,0.3-0.9,0.3-1.3v-0.9H327c-0.6,0-1.3,0.1-1.8,0.5
		c-0.5,0.3-0.7,0.9-0.7,1.5c0,0.6,0.2,1.1,0.6,1.5C325.7,38.6,326.4,38.8,327.1,38.7L327.1,38.7z"/>
	<path d="M336,40.7c-0.2,0-0.5,0-0.7-0.1v-2.1c0.1,0,0.2,0,0.4,0c0.3,0,0.7-0.1,0.9-0.3c0.3-0.3,0.5-0.7,0.6-1.2
		c0.2-0.7,0.3-1.5,0.4-2.3c0.1-1,0.1-2.2,0.1-3.6v-3.4h9.1v12.7h-2.1V29.6h-4.9v2c0,1.5-0.1,3-0.2,4.4c-0.1,1-0.3,1.9-0.7,2.8
		C338.4,39.9,337.2,40.7,336,40.7L336,40.7z"/>
	<path d="M350.6,27.7h2.1v4.8h3c1.3-0.1,2.5,0.3,3.5,1.1c0.8,0.8,1.2,1.8,1.1,2.9c0.1,1.1-0.4,2.1-1.1,2.9c-1,0.8-2.3,1.2-3.5,1.1
		h-5.2L350.6,27.7z M355.7,38.5c0.7,0.1,1.5-0.1,2.1-0.5c0.8-0.9,0.8-2.2,0-3.1c-0.6-0.4-1.4-0.6-2.1-0.5h-2.9v4.2H355.7z"/>
	<path d="M363.2,27.7h2.1V33h6.6v-5.3h2.1v12.7h-2.1v-5.5h-6.6v5.5h-2.1V27.7z"/>
	<path d="M377.9,27.7h2.1v4.8h2.6c1.3-0.1,2.5,0.3,3.5,1.1c0.8,0.8,1.2,1.8,1.1,2.9c0.1,1.1-0.4,2.1-1.1,2.9c-1,0.8-2.3,1.2-3.5,1.1
		h-4.7L377.9,27.7z M382.4,38.5c0.7,0.1,1.5-0.1,2.1-0.5c0.8-0.9,0.8-2.2,0-3.1c-0.6-0.4-1.4-0.6-2.1-0.5H380v4.2H382.4z
		 M389.2,27.7h2.1v12.7h-2.1V27.7z"/>
	<path d="M395.1,27.7h2.1v9.6l6.6-9.6h2.1v12.7h-2.1v-9.6l-6.6,9.6h-2.1V27.7z M400.5,26.1c-1,0.1-2-0.2-2.7-0.8
		c-0.6-0.6-0.9-1.5-0.9-2.3h2.1c0,1.1,0.5,1.6,1.5,1.6c0.8,0.1,1.5-0.5,1.6-1.2c0-0.1,0-0.3,0-0.4h2c0.1,0.9-0.3,1.7-0.9,2.3
		C402.5,25.9,401.5,26.2,400.5,26.1L400.5,26.1z"/>
	<path d="M421.1,40.7c-0.8,0-1.6-0.2-2.4-0.5c-0.7-0.3-1.4-0.8-1.9-1.4c-0.6-0.7-1-1.4-1.3-2.3c-0.3-1-0.5-2-0.5-3V33
		c0-1.3,0.1-2.6,0.3-3.9c0.2-1,0.5-2,1.1-2.9c0.5-0.8,1.2-1.4,2-1.9c1-0.5,2-0.7,3.1-0.8c1,0,1.9-0.1,2.6-0.1c0.7,0,1.3-0.2,1.9-0.5
		v2c-0.4,0.2-0.9,0.3-1.4,0.3c-0.7,0.1-1.6,0.1-2.8,0.2c-0.7,0-1.4,0.1-2,0.3c-0.6,0.2-1.1,0.4-1.5,0.8c-0.4,0.4-0.8,0.9-1,1.5
		c-0.3,0.7-0.4,1.5-0.4,2.3c0.4-0.8,1-1.5,1.8-2c0.8-0.5,1.8-0.8,2.8-0.7c0.8,0,1.5,0.1,2.2,0.4c0.7,0.3,1.2,0.7,1.7,1.2
		c0.5,0.5,0.9,1.2,1.1,1.9c0.3,0.8,0.4,1.7,0.4,2.5v0.5c0,0.9-0.1,1.8-0.5,2.7c-0.3,0.8-0.7,1.4-1.2,2c-0.5,0.6-1.2,1-1.9,1.3
		C422.7,40.5,421.9,40.7,421.1,40.7z M421.1,38.7c1,0,2.1-0.4,2.8-1.2c0.8-1,1.2-2.2,1.1-3.4v-0.5c0-0.6-0.1-1.1-0.3-1.7
		c-0.2-0.5-0.4-0.9-0.8-1.3c-0.3-0.4-0.8-0.6-1.2-0.8c-1-0.4-2.1-0.4-3.1,0c-0.5,0.2-0.9,0.5-1.2,0.8c-0.3,0.4-0.6,0.8-0.8,1.3
		c-0.2,0.5-0.3,1.1-0.3,1.7v0.5c0,0.6,0.1,1.3,0.3,1.9c0.2,0.5,0.5,1,0.8,1.4C419,38.3,420,38.7,421.1,38.7L421.1,38.7z"/>
	<path d="M430.1,27.7h2.1V33h1.8c0-0.8,0.2-1.7,0.6-2.4c0.3-0.7,0.7-1.3,1.3-1.7c0.5-0.5,1.1-0.8,1.8-1c1.4-0.5,3-0.5,4.4,0
		c0.7,0.3,1.3,0.7,1.9,1.2c0.6,0.6,1,1.2,1.3,2c0.3,0.9,0.5,1.8,0.5,2.7v0.5c0,1-0.1,1.9-0.5,2.9c-0.3,0.8-0.7,1.4-1.3,2
		c-0.5,0.5-1.2,0.9-1.9,1.2c-1.4,0.5-3,0.5-4.4,0c-0.7-0.2-1.3-0.6-1.8-1.1c-0.5-0.5-1-1.1-1.3-1.8c-0.3-0.8-0.5-1.7-0.6-2.6h-1.8
		v5.5h-2.1L430.1,27.7z M439.8,38.7c0.5,0,0.9-0.1,1.4-0.3c0.5-0.2,0.9-0.4,1.2-0.8c0.4-0.4,0.7-0.9,0.8-1.4
		c0.2-0.7,0.3-1.4,0.3-2.1v-0.5c0-0.7-0.1-1.3-0.3-2c-0.2-0.5-0.5-1-0.8-1.3c-0.3-0.3-0.7-0.6-1.2-0.8c-0.9-0.3-1.9-0.3-2.8,0
		c-0.4,0.2-0.9,0.4-1.2,0.8c-0.4,0.4-0.6,0.8-0.8,1.3c-0.2,0.6-0.3,1.3-0.3,2v0.5c0,0.7,0.1,1.4,0.3,2.1c0.2,0.5,0.5,1,0.8,1.4
		c0.3,0.4,0.7,0.6,1.2,0.8C438.8,38.6,439.3,38.7,439.8,38.7L439.8,38.7z"/>
	<path d="M447.2,38.5h1.6c0.2-0.3,0.4-0.7,0.5-1.1c0.2-0.6,0.3-1.2,0.4-1.8c0.1-0.7,0.2-1.4,0.3-2.2c0.1-0.8,0.1-1.6,0.1-2.4v-3.4
		h8.9v10.8h1.8v4.9h-2v-3h-9.4v3h-2L447.2,38.5z M456.7,38.5v-9H452v2c0,0.7,0,1.3-0.1,2c0,0.7-0.1,1.3-0.2,1.9
		c-0.1,0.6-0.2,1.2-0.3,1.7c-0.1,0.5-0.3,0.9-0.5,1.4L456.7,38.5z"/>
	<path d="M466.7,33.9l-4.6-6.2h2.4l3.9,5.3h1.5v-5.3h2.1V33h1.4l4-5.3h2.3l-4.6,6.1l4.8,6.6h-2.5l-4-5.6h-1.4v5.6h-2.1v-5.6h-1.5
		l-4,5.6h-2.4L466.7,33.9z"/>
	<path d="M487.7,40.7c-0.8,0-1.6-0.1-2.3-0.4c-0.7-0.3-1.4-0.7-1.9-1.2c-0.6-0.6-1-1.3-1.3-2c-0.4-0.9-0.5-1.9-0.5-2.9v-0.5
		c0-0.9,0.1-1.9,0.5-2.7c0.3-0.7,0.7-1.4,1.3-1.9c0.5-0.5,1.2-0.9,1.9-1.2c0.7-0.3,1.5-0.4,2.2-0.4c1.6-0.1,3.2,0.5,4.3,1.5
		c1.1,1.2,1.6,2.7,1.5,4.3v1.3h-9.6c0,0.7,0.1,1.3,0.4,1.9c0.2,0.5,0.5,0.9,0.9,1.2c0.4,0.3,0.8,0.6,1.3,0.7
		c0.5,0.1,0.9,0.2,1.4,0.2c0.8,0,1.5-0.1,2.2-0.5c0.5-0.3,0.9-0.8,1.1-1.3h2.1c-0.1,0.6-0.3,1.1-0.7,1.6c-0.3,0.5-0.7,0.9-1.2,1.2
		c-0.5,0.3-1,0.6-1.6,0.7C488.9,40.6,488.3,40.7,487.7,40.7z M487.5,29.4c-0.5,0-1,0.1-1.4,0.2c-0.5,0.1-0.9,0.4-1.2,0.6
		c-0.4,0.3-0.7,0.7-0.9,1.1c-0.2,0.5-0.4,1.1-0.3,1.6h7.7c0-0.6-0.1-1.1-0.3-1.7c-0.2-0.4-0.5-0.8-0.8-1.1c-0.3-0.3-0.8-0.5-1.2-0.6
		C488.5,29.4,488,29.4,487.5,29.4L487.5,29.4z"/>
	<path d="M499.2,29.6h-4.3v-1.9h10.8v1.9h-4.3v10.8h-2.1V29.6z"/>
	<path class="st0" d="M251.6,225c-15.6-8.9-31.3-17.7-46.9-26.6"/>
	<path class="st1" d="M259.6,138h-41"/>
	<path class="st1" d="M214.6,31l-37,32"/>
	
		<linearGradient id="SVGID_1_" gradientUnits="userSpaceOnUse" x1="158.125" y1="22.1954" x2="65.7079" y2="229.7675" gradientTransform="matrix(1 0 0 -1 0 274)">
		<stop  offset="0" style="stop-color:#00C832"/>
		<stop  offset="0.2844" style="stop-color:#009565"/>
		<stop  offset="0.6155" style="stop-color:#00609A"/>
		<stop  offset="0.8642" style="stop-color:#003FBB"/>
		<stop  offset="1" style="stop-color:#0032C8"/>
	</linearGradient>
	<path class="st2" d="M199.3,221.8C158.1,269.1,86.4,274.2,39.1,233S-13.3,120.1,27.9,72.8s112.9-52.4,160.2-11.2
		c5.2,4.6,10,9.6,14.4,15l-37.3,29.7C142.5,77.8,101,73.1,72.6,95.7S39.4,159.8,62,188.3s64.1,33.2,92.6,10.5
		c3.1-2.5,6.1-5.3,8.7-8.3L199.3,221.8z"/>
	<path class="st3" d="M204.5,83.6c21.4,26.9,27.3,63,15.7,95.3l-39.2-14.1c6.8-18.8,3.3-39.7-9.1-55.3L204.5,83.6z"/>
	<path class="st4" d="M219.2,184.3c-4.2,11.5-10.4,22.2-18.4,31.4l-31.4-27.3c4.7-5.4,8.3-11.5,10.7-18.2L219.2,184.3z"/>
</g>
<g>
	<path d="M254.3,255.3h2.3l4.7,8.2l4.7-8.2h2.2v13.1H266v-9.5l-3.9,6.7h-1.7l-3.9-6.7v9.5h-2.2V255.3z"/>
	<path d="M277.6,268.7c-0.8,0-1.6-0.1-2.4-0.4s-1.4-0.7-2-1.2c-0.6-0.6-1-1.3-1.4-2.1c-0.3-0.8-0.5-1.8-0.5-3v-0.5
		c0-1.1,0.2-2,0.5-2.8c0.3-0.8,0.8-1.5,1.3-2c0.6-0.5,1.2-0.9,1.9-1.2c0.7-0.3,1.5-0.4,2.3-0.4c1.9,0,3.4,0.5,4.5,1.6
		s1.6,2.6,1.6,4.5v1.4h-10c0,0.8,0.1,1.4,0.4,2s0.6,1,1,1.3c0.4,0.3,0.8,0.6,1.3,0.7s1,0.2,1.5,0.2c1,0,1.8-0.2,2.3-0.5
		c0.5-0.3,0.9-0.8,1.2-1.4h2.1c-0.1,0.6-0.4,1.2-0.7,1.7c-0.3,0.5-0.8,0.9-1.2,1.2c-0.5,0.3-1,0.6-1.7,0.7S278.3,268.7,277.6,268.7z
		 M277.5,257c-0.5,0-1,0.1-1.5,0.2c-0.5,0.1-0.9,0.4-1.3,0.7c-0.4,0.3-0.7,0.7-0.9,1.2c-0.2,0.5-0.3,1-0.3,1.7h7.9
		c0-0.7-0.1-1.3-0.3-1.7c-0.2-0.5-0.5-0.8-0.8-1.1s-0.8-0.5-1.2-0.6S278,257,277.5,257z"/>
	<path d="M291.6,268.7c-0.8,0-1.6-0.1-2.4-0.4s-1.4-0.7-1.9-1.2c-0.5-0.6-0.9-1.3-1.3-2.1c-0.3-0.8-0.5-1.8-0.5-2.9v-0.5
		c0-1.1,0.2-2,0.5-2.8c0.3-0.8,0.8-1.5,1.3-2c0.5-0.5,1.2-0.9,1.9-1.2c0.7-0.3,1.5-0.4,2.2-0.4s1.5,0.1,2.1,0.3
		c0.6,0.2,1.2,0.5,1.6,0.9s0.8,0.8,1.1,1.3c0.3,0.5,0.5,1.1,0.6,1.7h-2.2c-0.1-0.3-0.3-0.6-0.5-0.9c-0.2-0.3-0.4-0.5-0.6-0.7
		s-0.6-0.4-0.9-0.5c-0.3-0.1-0.8-0.2-1.2-0.2c-0.5,0-0.9,0.1-1.4,0.3c-0.4,0.2-0.8,0.4-1.2,0.8s-0.6,0.8-0.8,1.4
		c-0.2,0.6-0.3,1.2-0.3,2v0.5c0,0.8,0.1,1.6,0.3,2.2c0.2,0.6,0.5,1.1,0.8,1.5s0.7,0.6,1.2,0.8c0.4,0.2,0.9,0.3,1.4,0.3
		c0.8,0,1.5-0.2,2-0.6c0.6-0.4,0.9-0.9,1.2-1.6h2.2c-0.3,1.3-1,2.3-1.9,3.1C294.1,268.3,292.9,268.7,291.6,268.7z"/>
	<path d="M303,257.2h-4.5v-1.9h11.1v1.9h-4.5v11.2H303V257.2z"/>
	<path d="M312.1,255.3h2.2v5.5h6.8v-5.5h2.2v13.1h-2.2v-5.7h-6.8v5.7h-2.2V255.3z"/>
	<path d="M327.2,255.3h2.2v5h2.7c1.7,0,2.9,0.4,3.7,1.1c0.8,0.7,1.2,1.7,1.2,3c0,1.3-0.4,2.2-1.2,3s-2,1.1-3.7,1.1h-4.8V255.3z
		 M332,266.5c1,0,1.7-0.2,2.2-0.5c0.4-0.4,0.6-0.9,0.6-1.6s-0.2-1.2-0.6-1.6c-0.4-0.4-1.1-0.5-2.2-0.5h-2.5v4.3H332z M338.9,255.3
		h2.2v13.1h-2.2V255.3z"/>
	<path d="M345.1,255.3h2.2v9.9l6.8-9.9h2.2v13.1h-2.2v-9.9l-6.8,9.9h-2.2V255.3z M350.7,253.7c-1.3,0-2.2-0.3-2.8-0.8
		s-0.9-1.4-0.9-2.4h2.1c0,1.1,0.5,1.7,1.6,1.7c1.1,0,1.6-0.6,1.6-1.7h2.1c0,1-0.3,1.8-0.9,2.4S351.9,253.7,350.7,253.7z"/>
	<path d="M371.8,268.7c-0.9,0-1.7-0.2-2.4-0.5c-0.8-0.3-1.4-0.8-2-1.4c-0.6-0.6-1-1.4-1.3-2.3c-0.3-0.9-0.5-2-0.5-3.1v-0.5
		c0-1.5,0.1-2.8,0.3-4c0.2-1.2,0.6-2.2,1.1-3c0.5-0.8,1.2-1.5,2.1-1.9s1.9-0.7,3.2-0.8c1,0,1.9-0.1,2.7-0.1s1.4-0.2,2-0.5v2.1
		c-0.3,0.1-0.7,0.3-1.4,0.3c-0.7,0.1-1.7,0.1-2.9,0.2c-0.8,0-1.5,0.1-2.1,0.3s-1.1,0.5-1.5,0.9c-0.4,0.4-0.8,0.9-1,1.5
		c-0.2,0.6-0.4,1.4-0.5,2.3c0.4-0.9,1-1.6,1.8-2.1c0.8-0.5,1.8-0.8,2.9-0.8c0.8,0,1.6,0.1,2.3,0.4c0.7,0.3,1.3,0.7,1.8,1.2
		s0.9,1.2,1.2,1.9c0.3,0.8,0.4,1.6,0.4,2.6v0.5c0,1-0.2,1.9-0.5,2.8s-0.7,1.5-1.3,2.1c-0.5,0.6-1.2,1-2,1.4S372.7,268.7,371.8,268.7
		z M371.8,266.7c1.2,0,2.1-0.4,2.8-1.2c0.7-0.8,1.1-2,1.1-3.5v-0.5c0-0.6-0.1-1.2-0.3-1.7s-0.5-1-0.8-1.3s-0.8-0.7-1.3-0.9
		c-0.5-0.2-1-0.3-1.6-0.3c-0.6,0-1.1,0.1-1.6,0.3c-0.5,0.2-0.9,0.5-1.3,0.9s-0.6,0.8-0.8,1.3c-0.2,0.5-0.3,1.1-0.3,1.7v0.5
		c0,0.7,0.1,1.4,0.3,2c0.2,0.6,0.5,1.1,0.9,1.5c0.4,0.4,0.8,0.7,1.3,0.9C370.8,266.6,371.3,266.7,371.8,266.7z"/>
	<path d="M381.1,255.3h2.2v5.5h1.9c0.1-0.9,0.3-1.8,0.6-2.5c0.3-0.7,0.8-1.3,1.3-1.8c0.5-0.5,1.2-0.8,1.8-1.1
		c0.7-0.2,1.4-0.4,2.2-0.4c0.8,0,1.6,0.1,2.4,0.4c0.7,0.3,1.4,0.7,1.9,1.2c0.5,0.5,1,1.2,1.3,2c0.3,0.8,0.5,1.7,0.5,2.8v0.5
		c0,1.1-0.2,2.1-0.5,2.9c-0.3,0.8-0.8,1.5-1.3,2.1c-0.5,0.6-1.2,1-1.9,1.2c-0.7,0.3-1.5,0.4-2.4,0.4c-0.8,0-1.5-0.1-2.2-0.4
		s-1.3-0.6-1.9-1.1c-0.5-0.5-1-1.1-1.3-1.9c-0.3-0.8-0.5-1.6-0.6-2.6h-1.9v5.7h-2.2V255.3z M391.2,266.7c0.5,0,1-0.1,1.4-0.3
		c0.5-0.2,0.9-0.4,1.2-0.8s0.6-0.9,0.9-1.4s0.3-1.3,0.3-2.2v-0.5c0-0.8-0.1-1.5-0.3-2s-0.5-1-0.9-1.4s-0.8-0.6-1.2-0.8
		c-0.5-0.2-0.9-0.2-1.4-0.2c-0.5,0-1,0.1-1.4,0.2c-0.5,0.2-0.9,0.4-1.2,0.8c-0.4,0.4-0.6,0.8-0.9,1.4s-0.3,1.2-0.3,2v0.5
		c0,0.9,0.1,1.6,0.3,2.2s0.5,1.1,0.9,1.4c0.4,0.4,0.8,0.6,1.2,0.8C390.2,266.6,390.7,266.7,391.2,266.7z"/>
	<path d="M398.6,266.5h1.6c0.2-0.2,0.3-0.6,0.5-1.1c0.1-0.5,0.3-1.1,0.4-1.8s0.2-1.4,0.3-2.3c0.1-0.8,0.1-1.7,0.1-2.5v-3.5h9.2v11.2
		h1.9v5h-2.1v-3.1h-9.7v3.1h-2.1V266.5z M408.4,266.5v-9.3h-4.9v2c0,0.7,0,1.4-0.1,2.1c0,0.7-0.1,1.3-0.2,2
		c-0.1,0.6-0.2,1.2-0.4,1.8c-0.1,0.6-0.3,1-0.5,1.4H408.4z"/>
	<path d="M418.9,261.7l-4.7-6.4h2.4l4,5.5h1.5v-5.5h2.2v5.5h1.5l4.1-5.5h2.4l-4.7,6.3l5,6.8h-2.6l-4.1-5.7h-1.5v5.7h-2.2v-5.7h-1.5
		l-4.2,5.7h-2.5L418.9,261.7z"/>
	<path d="M440.1,268.7c-0.8,0-1.6-0.1-2.4-0.4s-1.4-0.7-2-1.2c-0.6-0.6-1-1.3-1.4-2.1c-0.3-0.8-0.5-1.8-0.5-3v-0.5
		c0-1.1,0.2-2,0.5-2.8c0.3-0.8,0.8-1.5,1.3-2c0.6-0.5,1.2-0.9,1.9-1.2c0.7-0.3,1.5-0.4,2.3-0.4c1.9,0,3.4,0.5,4.5,1.6
		s1.6,2.6,1.6,4.5v1.4h-10c0,0.8,0.1,1.4,0.4,2s0.6,1,1,1.3c0.4,0.3,0.8,0.6,1.3,0.7s1,0.2,1.5,0.2c1,0,1.8-0.2,2.3-0.5
		c0.5-0.3,0.9-0.8,1.2-1.4h2.1c-0.1,0.6-0.4,1.2-0.7,1.7c-0.3,0.5-0.8,0.9-1.2,1.2c-0.5,0.3-1,0.6-1.7,0.7S440.8,268.7,440.1,268.7z
		 M440,257c-0.5,0-1,0.1-1.5,0.2c-0.5,0.1-0.9,0.4-1.3,0.7c-0.4,0.3-0.7,0.7-0.9,1.2c-0.2,0.5-0.3,1-0.3,1.7h7.9
		c0-0.7-0.1-1.3-0.3-1.7c-0.2-0.5-0.5-0.8-0.8-1.1s-0.8-0.5-1.2-0.6S440.5,257,440,257z"/>
	<path d="M451.7,257.2h-4.5v-1.9h11.1v1.9h-4.5v11.2h-2.2V257.2z"/>
</g>
</svg>
