<svg xmlns="http://www.w3.org/2000/svg" xmlns:xlink="http://www.w3.org/1999/xlink" viewBox="0 0 505.6528 271.4111"><defs><style>.cls-1,.cls-2{fill:none;stroke-linecap:round;stroke-linejoin:round;stroke-dasharray:10;}.cls-1{stroke:#00c832;}.cls-2{stroke:#0032c8;}.cls-3{fill:url(#Безымянный_градиент_19);}.cls-4{fill:#0032c8;}.cls-5{fill:#00c832;}</style><linearGradient id="Безымянный_градиент_19" x1="158.1252" y1="251.8045" x2="65.7082" y2="44.2326" gradientUnits="userSpaceOnUse"><stop offset="0" stop-color="#00c832"/><stop offset="0.2844" stop-color="#009565"/><stop offset="0.6155" stop-color="#00609a"/><stop offset="0.8642" stop-color="#003fbb"/><stop offset="1" stop-color="#0032c8"/></linearGradient></defs><g id="Слой_2" data-name="Слой 2"><path d="M77.87,128.4541H67.6723V124.69H82.5439v3.3076l-6.98,17.9375H70.7075Z"/><path d="M92.4379,146.3a8.31,8.31,0,0,1-4.8862-1.3047,5.679,5.679,0,0,1-2.2461-4.0674h4.249a2.1769,2.1769,0,0,0,.9868,1.169,4.3362,4.3362,0,0,0,2.0484.3789,4.4769,4.4769,0,0,0,1.5327-.2578,2.8562,2.8562,0,0,0,1.26-.9414,5.259,5.259,0,0,0,.88-1.8662,13.9881,13.9881,0,0,0,.4248-3.0352,3.71,3.71,0,0,1-.9712,1.0166,5.5367,5.5367,0,0,1-1.2593.668,7.4281,7.4281,0,0,1-1.4268.38,9.2989,9.2989,0,0,1-1.5019.121,6.0548,6.0548,0,0,1-6.6773-6.6767v-.334a7.3455,7.3455,0,0,1,.5767-2.9443,6.8066,6.8066,0,0,1,1.5933-2.291,6.9886,6.9886,0,0,1,2.4433-1.4727,9.1306,9.1306,0,0,1,3.126-.5156,7.9472,7.9472,0,0,1,6.1914,2.3672q2.1547,2.3672,2.1548,7.7089v.5772a18.4324,18.4324,0,0,1-.6372,5.2051,9.7577,9.7577,0,0,1-1.7754,3.5049,6.7136,6.7136,0,0,1-2.7012,1.9882A9.0822,9.0822,0,0,1,92.4379,146.3Zm.4556-11.26a3.4986,3.4986,0,0,0,2.5645-.9111,3.1722,3.1722,0,0,0,.9257-2.3672v-.3037a3.186,3.186,0,0,0-.956-2.3672,3.95,3.95,0,0,0-5.0991-.0146,3.2236,3.2236,0,0,0-.9253,2.3818v.3037a3.1715,3.1715,0,0,0,.9253,2.3672A3.4987,3.4987,0,0,0,92.8935,135.04Z"/><path d="M111.4067,146.3q-3.8848,0-5.8877-1.8359a6.5147,6.5147,0,0,1-2.0029-5.0537h4.5522a3.0288,3.0288,0,0,0,.8042,2.3066,3.5969,3.5969,0,0,0,2.5342.7588,3.664,3.664,0,0,0,2.5039-.7432,2.6782,2.6782,0,0,0,.835-2.1094q0-2.8535-3.3389-2.8535H109.434v-3.52h1.9727a3.6219,3.6219,0,0,0,2.2461-.6064,2.2256,2.2256,0,0,0,.789-1.8819,2.4914,2.4914,0,0,0-.7587-1.8818,3.1736,3.1736,0,0,0-2.2764-.7285,3.208,3.208,0,0,0-2.291.7129,2.7066,2.7066,0,0,0-.7437,2.0488h-4.5527a6.24,6.24,0,0,1,1.897-4.8564q1.8961-1.73,5.69-1.73a11.38,11.38,0,0,1,3.3389.44,6.8556,6.8556,0,0,1,2.3671,1.2139,4.9591,4.9591,0,0,1,1.4112,1.8359,5.64,5.64,0,0,1,.4707,2.3066,4.6257,4.6257,0,0,1-.9864,2.9893,5.3181,5.3181,0,0,1-2.6254,1.7451,5.4083,5.4083,0,0,1,2.8984,1.791,5.2447,5.2447,0,0,1,1.0166,3.3692,5.8121,5.8121,0,0,1-.5459,2.5185,5.711,5.711,0,0,1-1.5635,1.9883,7.4389,7.4389,0,0,1-2.4887,1.3047A10.79,10.79,0,0,1,111.4067,146.3Z"/><path d="M123.3647,145.9355V141.99h4.249v3.9453l-3.3989,4.8565h-2.064Z"/><path d="M139.2075,146.3a8.31,8.31,0,0,1-4.8863-1.3047,5.6793,5.6793,0,0,1-2.2461-4.0674h4.2491a2.1761,2.1761,0,0,0,.9868,1.169,4.3361,4.3361,0,0,0,2.0483.3789,4.4769,4.4769,0,0,0,1.5327-.2578,2.8562,2.8562,0,0,0,1.26-.9414,5.2573,5.2573,0,0,0,.88-1.8662,13.9881,13.9881,0,0,0,.4248-3.0352,3.7083,3.7083,0,0,1-.9712,1.0166,5.5367,5.5367,0,0,1-1.2593.668,7.4271,7.4271,0,0,1-1.4267.38,9.2993,9.2993,0,0,1-1.502.121,6.0547,6.0547,0,0,1-6.6772-6.6767v-.334a7.3472,7.3472,0,0,1,.5766-2.9443,6.8066,6.8066,0,0,1,1.5933-2.291,6.99,6.99,0,0,1,2.4433-1.4727,9.1306,9.1306,0,0,1,3.126-.5156,7.9472,7.9472,0,0,1,6.1914,2.3672q2.1547,2.3672,2.1548,7.7089v.5772a18.4324,18.4324,0,0,1-.6372,5.2051,9.7577,9.7577,0,0,1-1.7754,3.5049,6.7136,6.7136,0,0,1-2.7012,1.9882A9.0817,9.0817,0,0,1,139.2075,146.3Zm.4555-11.26a3.4986,3.4986,0,0,0,2.5645-.9111,3.1719,3.1719,0,0,0,.9258-2.3672v-.3037a3.1861,3.1861,0,0,0-.9561-2.3672,3.95,3.95,0,0,0-5.0991-.0146,3.2236,3.2236,0,0,0-.9253,2.3818v.3037a3.1715,3.1715,0,0,0,.9253,2.3672A3.499,3.499,0,0,0,139.663,135.04Z"/><path d="M158.1762,146.3a8.31,8.31,0,0,1-4.8862-1.3047,5.679,5.679,0,0,1-2.2461-4.0674h4.249a2.1769,2.1769,0,0,0,.9868,1.169,4.3362,4.3362,0,0,0,2.0484.3789,4.4769,4.4769,0,0,0,1.5327-.2578,2.8562,2.8562,0,0,0,1.26-.9414A5.2572,5.2572,0,0,0,162,139.41a13.9757,13.9757,0,0,0,.4248-3.0352,3.7069,3.7069,0,0,1-.9712,1.0166,5.536,5.536,0,0,1-1.2592.668,7.4281,7.4281,0,0,1-1.4268.38,9.2989,9.2989,0,0,1-1.5019.121,6.0548,6.0548,0,0,1-6.6773-6.6767v-.334a7.3455,7.3455,0,0,1,.5767-2.9443,6.8063,6.8063,0,0,1,1.5932-2.291,6.99,6.99,0,0,1,2.4434-1.4727,9.1306,9.1306,0,0,1,3.126-.5156,7.9472,7.9472,0,0,1,6.1914,2.3672q2.1547,2.3672,2.1548,7.7089v.5772a18.4324,18.4324,0,0,1-.6372,5.2051,9.7593,9.7593,0,0,1-1.7754,3.5049,6.7136,6.7136,0,0,1-2.7012,1.9882A9.0822,9.0822,0,0,1,158.1762,146.3Zm.4556-11.26a3.4984,3.4984,0,0,0,2.5644-.9111,3.1719,3.1719,0,0,0,.9258-2.3672v-.3037a3.186,3.186,0,0,0-.956-2.3672,3.95,3.95,0,0,0-5.0992-.0146,3.224,3.224,0,0,0-.9253,2.3818v.3037a3.1719,3.1719,0,0,0,.9253,2.3672A3.4991,3.4991,0,0,0,158.6318,135.04Z"/><path d="M64.5195,157.2158h3.7441l3.5278,6.8633,3.5284-6.8633h3.6v12.72H75.8955v-8.28L72.8,167.416H70.64l-3.0962-5.7607v8.28H64.5195Z"/><path d="M81.9194,170.2236c-.1284,0-.2881-.0039-.48-.0117a2.483,2.483,0,0,1-.48-.0605v-2.8555a2.0321,2.0321,0,0,0,.36.0234,1.2117,1.2117,0,0,0,.792-.2754,2.0682,2.0682,0,0,0,.5639-.9482,8.1907,8.1907,0,0,0,.336-1.7881q.1083-1.1162.1079-2.7724v-4.3194h10.08v12.72h-3.168v-10.08H86.0473v2.16a26.9306,26.9306,0,0,1-.2519,4.0684,7.5773,7.5773,0,0,1-.7681,2.5078,2.9088,2.9088,0,0,1-1.2959,1.2715A4.2821,4.2821,0,0,1,81.9194,170.2236Z"/><path d="M96.0786,157.2158h3.1679v4.92h5.4243v-4.92h3.168v12.72h-3.168v-5.16H99.2465v5.16H96.0786Z"/><path d="M116.2382,157.2158H119.19v1.8721a4.2671,4.2671,0,0,1,1.5117-1.5127,4.8442,4.8442,0,0,1,2.6162-.6475,5.0958,5.0958,0,0,1,3.9722,1.5723,6.8153,6.8153,0,0,1,1.4277,4.7158v.48a7.1651,7.1651,0,0,1-1.4521,4.9082,5.034,5.034,0,0,1-3.9478,1.62,4.5688,4.5688,0,0,1-2.292-.5644,4.7766,4.7766,0,0,1-1.62-1.4756v6.5518h-3.168Zm6.336,10.3194a2.6769,2.6769,0,0,0,2.0879-.9473,4.2622,4.2622,0,0,0,.84-2.8926v-.48a3.9084,3.9084,0,0,0-.8159-2.7,2.7223,2.7223,0,0,0-2.1123-.9,3.3418,3.3418,0,0,0-2.2681.78,2.9311,2.9311,0,0,0-.9,2.34v1.44a3.3323,3.3323,0,0,0,.876,2.5322A3.2,3.2,0,0,0,122.5742,167.5352Z"/><path d="M133.1581,175.0234a3.6062,3.6062,0,0,1-.72-.0722v-2.6875a3.6813,3.6813,0,0,0,.72.0722,1.3039,1.3039,0,0,0,1.1158-.54,8.5786,8.5786,0,0,0,.9-1.86l-5.376-12.72H133.35L136.8061,166l3.168-8.7842h3.2641l-4.896,12.72q-.5288,1.3434-.9961,2.3165a6.272,6.272,0,0,1-1.0439,1.5839,3.57,3.57,0,0,1-1.32.8995A5.0665,5.0665,0,0,1,133.1581,175.0234Z"/><path d="M150.6782,170.2236a6.6334,6.6334,0,0,1-2.4844-.456,5.3087,5.3087,0,0,1-1.98-1.38,6.4844,6.4844,0,0,1-1.3076-2.28,9.6694,9.6694,0,0,1-.4683-3.1562v-.5518a20.3872,20.3872,0,0,1,.3243-3.84,8.0575,8.0575,0,0,1,1.0795-2.8565,5.26,5.26,0,0,1,2.0162-1.8359,7.6215,7.6215,0,0,1,3.1562-.7559q.7434-.0234,1.4639-.0478t1.3681-.0723a9.331,9.331,0,0,0,1.1758-.1553,4.1286,4.1286,0,0,0,.9361-.3007v2.8086a4.5265,4.5265,0,0,1-1.4283.3593,27.2494,27.2494,0,0,1-3.1557.168,7.2644,7.2644,0,0,0-1.86.2529,3.0921,3.0921,0,0,0-1.2959.72,3.4015,3.4015,0,0,0-.8164,1.2841,7.8209,7.8209,0,0,0-.42,1.9434,4.3514,4.3514,0,0,1,1.6562-1.752,5.4869,5.4869,0,0,1,2.88-.6718,6.1358,6.1358,0,0,1,2.1841.372,4.7672,4.7672,0,0,1,1.7041,1.0918,4.9141,4.9141,0,0,1,1.1157,1.7764,6.95,6.95,0,0,1,.396,2.4482v.4561a7.4135,7.4135,0,0,1-.4678,2.7119,5.7255,5.7255,0,0,1-1.3081,2.0273,5.6223,5.6223,0,0,1-1.98,1.2608A6.9767,6.9767,0,0,1,150.6782,170.2236Zm0-2.6884a2.7514,2.7514,0,0,0,2.2319-.9444,4.08,4.08,0,0,0,.792-2.6914v-.4785a3.3062,3.3062,0,0,0-.8159-2.3682,3.2458,3.2458,0,0,0-4.4043,0,3.2756,3.2756,0,0,0-.8281,2.3682v.4307a4.9623,4.9623,0,0,0,.228,1.5546,3.3013,3.3013,0,0,0,.6362,1.1612,2.8054,2.8054,0,0,0,.96.7168A2.8548,2.8548,0,0,0,150.6782,167.5352Z"/><path d="M161.478,170.2236a2.0472,2.0472,0,0,1-2.04-2.04,1.9418,1.9418,0,0,1,.6-1.4639,2.0882,2.0882,0,0,1,2.88,0,1.9436,1.9436,0,0,1,.6,1.4639,2.0472,2.0472,0,0,1-2.04,2.04Z"/><path d="M275.4746,244.4453h-7.5118v-2.3672l7.5118-10.1972h3.4145v9.7421H280.71v2.8223h-1.8208v3.3692h-3.4145Zm0-2.8223v-5.9414L271.15,241.623Z"/><path d="M289.2231,248.0879a7.6039,7.6039,0,0,1-2.6631-.4326,4.727,4.727,0,0,1-1.958-1.3545,6.2348,6.2348,0,0,1-1.2178-2.3565,12.2039,12.2039,0,0,1-.4209-3.414v-.4551a13.7135,13.7135,0,0,1,.4781-3.8809,7.2081,7.2081,0,0,1,1.3427-2.6289,5.0825,5.0825,0,0,1,2.06-1.4912,7.118,7.118,0,0,1,2.6064-.4668,6.2189,6.2189,0,0,1,3.5738.9336,4.2158,4.2158,0,0,1,1.6616,3.0957H291.5a2.0478,2.0478,0,0,0-2.1626-1.1611,3.6924,3.6924,0,0,0-1.2178.1933,2.1888,2.1888,0,0,0-.979.7061,3.815,3.815,0,0,0-.6714,1.3994,10.5135,10.5135,0,0,0-.3189,2.2764,2.79,2.79,0,0,1,.7286-.7627,4.1874,4.1874,0,0,1,.9448-.501,5.6117,5.6117,0,0,1,1.07-.2842,6.9988,6.9988,0,0,1,1.1265-.0908,4.5407,4.5407,0,0,1,5.0078,5.0078v.25a5.5133,5.5133,0,0,1-.4321,2.208,5.1168,5.1168,0,0,1-1.1954,1.7188,5.2427,5.2427,0,0,1-1.832,1.1035A6.8315,6.8315,0,0,1,289.2231,248.0879Zm-.2275-2.8682a2.5993,2.5993,0,0,0,1.9233-.6943,2.4189,2.4189,0,0,0,.6943-1.7871v-.2276a2.3794,2.3794,0,0,0-.6943-1.7753,3.0514,3.0514,0,0,0-3.8472,0,2.379,2.379,0,0,0-.6938,1.7753v.2276a2.4185,2.4185,0,0,0,.6938,1.7871A2.6,2.6,0,0,0,288.9956,245.22Z"/><path d="M297.9872,247.8145v-2.959h3.1866v2.959l-2.5493,3.6416h-1.5479Z"/><path d="M311.1889,234.7031h-7.6484v-2.8222h11.1538v2.48l-5.2354,13.4532h-3.6421Z"/><path d="M316.0375,245.333l5.5767-4.8027q.7734-.6827,1.32-1.1953a8.7767,8.7767,0,0,0,.8877-.9444,3.0613,3.0613,0,0,0,.4893-.8418,2.5978,2.5978,0,0,0,.1479-.8877,2.2664,2.2664,0,0,0-.5464-1.582,2.07,2.07,0,0,0-1.6162-.6035,2.6485,2.6485,0,0,0-1.9233.6719,3.136,3.136,0,0,0-.6944,2.3095h-3.414a5.8591,5.8591,0,0,1,1.5361-4.2793,6.0142,6.0142,0,0,1,4.4956-1.57,7.09,7.09,0,0,1,2.4243.376,4.9234,4.9234,0,0,1,1.7417,1.0469,4.2648,4.2648,0,0,1,1.0581,1.6045,5.68,5.68,0,0,1,.3531,2.0263,4.1686,4.1686,0,0,1-.2959,1.5586,6.2221,6.2221,0,0,1-.8081,1.4229,10.6863,10.6863,0,0,1-1.1953,1.332q-.6827.6489-1.4566,1.2861l-3.2778,2.7315h7.2612v2.8223h-12.064Z"/><path d="M335.6811,235.75h3.5508l3.3462,6.5107,3.3462-6.5107h3.4145v12.0645h-2.8682v-7.8536l-2.9365,5.4639h-2.0483l-2.9365-5.4639v7.8536h-2.8682Z"/><path d="M352.184,248.0879c-.1216,0-.2729-.0039-.4551-.0117a2.3418,2.3418,0,0,1-.4555-.0567v-2.709a1.8487,1.8487,0,0,0,.3418.0225,1.1452,1.1452,0,0,0,.751-.2617,1.9548,1.9548,0,0,0,.5351-.8984,7.7864,7.7864,0,0,0,.3184-1.6963q.1025-1.0591.1025-2.6289V235.75h9.5606v12.0645h-3.0049v-9.5606h-3.7788v2.0488a25.5389,25.5389,0,0,1-.2388,3.8584,7.1726,7.1726,0,0,1-.7285,2.3789,2.7651,2.7651,0,0,1-1.229,1.2061A4.0661,4.0661,0,0,1,352.184,248.0879Z"/><path d="M365.6137,235.75h3.0049v4.667h5.144V235.75h3.0049v12.0645h-3.0049v-4.8936h-5.144v4.8936h-3.0049Z"/><path d="M384.7338,235.75h2.8v1.7754a4.04,4.04,0,0,1,1.4341-1.4336,4.5859,4.5859,0,0,1,2.481-.6143,4.8356,4.8356,0,0,1,3.7676,1.49,6.4659,6.4659,0,0,1,1.354,4.4726v.4561a6.7952,6.7952,0,0,1-1.377,4.6543,4.7761,4.7761,0,0,1-3.7446,1.5371,4.3369,4.3369,0,0,1-2.1739-.5352,4.5333,4.5333,0,0,1-1.5361-1.4v6.2149h-3.0049Zm6.0093,9.7881a2.5392,2.5392,0,0,0,1.98-.8994,4.0386,4.0386,0,0,0,.7969-2.7422V241.44a3.7061,3.7061,0,0,0-.774-2.5605,2.5792,2.5792,0,0,0-2.0034-.8535,3.1667,3.1667,0,0,0-2.1509.74,2.7764,2.7764,0,0,0-.8535,2.2188v1.3662a3.1572,3.1572,0,0,0,.8306,2.4013A3.0346,3.0346,0,0,0,390.7431,245.5381Z"/><path d="M400.7817,252.6406a3.5238,3.5238,0,0,1-.6831-.0683v-2.55a3.4474,3.4474,0,0,0,.6831.0683,1.2346,1.2346,0,0,0,1.0581-.5127,8.1028,8.1028,0,0,0,.854-1.7636L397.5947,235.75h3.3691l3.2778,8.3311,3.0044-8.3311h3.0957l-4.6435,12.0645q-.501,1.2744-.9443,2.1962a5.933,5.933,0,0,1-.99,1.503,3.3934,3.3934,0,0,1-1.2519.8535A4.8245,4.8245,0,0,1,400.7817,252.6406Z"/><path d="M417.3974,248.0879a6.2918,6.2918,0,0,1-2.356-.4326,5.04,5.04,0,0,1-1.8779-1.3086,6.1491,6.1491,0,0,1-1.24-2.1631,9.1711,9.1711,0,0,1-.4439-2.9932v-.5234a19.3754,19.3754,0,0,1,.3072-3.6416,7.6405,7.6405,0,0,1,1.0244-2.709,4.9753,4.9753,0,0,1,1.9121-1.7412,7.2124,7.2124,0,0,1,2.9932-.7178q.7053-.0219,1.3886-.0449t1.2974-.0684a8.8066,8.8066,0,0,0,1.1152-.1484,3.9,3.9,0,0,0,.8877-.2842v2.6631a4.2635,4.2635,0,0,1-1.354.3418,26.0508,26.0508,0,0,1-2.9936.1592,6.89,6.89,0,0,0-1.7642.2392,2.9515,2.9515,0,0,0-1.229.6827,3.2254,3.2254,0,0,0-.7739,1.2177,7.4078,7.4078,0,0,0-.3985,1.8438,4.1334,4.1334,0,0,1,1.5708-1.6621,5.2074,5.2074,0,0,1,2.7315-.6367,5.8119,5.8119,0,0,1,2.0713.3525,4.5047,4.5047,0,0,1,1.6162,1.0361,4.6505,4.6505,0,0,1,1.0586,1.6846,6.5864,6.5864,0,0,1,.3755,2.3213v.4326a7.0346,7.0346,0,0,1-.4439,2.5723,5.4233,5.4233,0,0,1-1.2407,1.9228,5.3281,5.3281,0,0,1-1.8779,1.1953A6.5871,6.5871,0,0,1,417.3974,248.0879Zm0-2.55a2.61,2.61,0,0,0,2.1172-.8965,3.8693,3.8693,0,0,0,.751-2.5518v-.4541a3.135,3.135,0,0,0-.774-2.2461,3.0792,3.0792,0,0,0-4.1767,0,3.1065,3.1065,0,0,0-.7852,2.2461v.4082a4.7173,4.7173,0,0,0,.2159,1.4756,3.1242,3.1242,0,0,0,.6035,1.1,2.6494,2.6494,0,0,0,.9106.6807A2.7061,2.7061,0,0,0,417.3974,245.5381Z"/><path d="M255.1367,255.6914h2.2558l4.5362,7.92,4.5361-7.92h2.1118v12.72h-2.1118v-9.24l-3.7681,6.4805h-1.68l-3.7675-6.4805v9.24h-2.1123Z"/><path d="M277.6967,268.6514a7.0617,7.0617,0,0,1-2.3281-.3838,5.2863,5.2863,0,0,1-1.9439-1.1885,5.8275,5.8275,0,0,1-1.3442-2.0283,7.5307,7.5307,0,0,1-.5039-2.88v-.48a7.1746,7.1746,0,0,1,.48-2.748,5.676,5.676,0,0,1,1.2842-1.9444,5.1665,5.1665,0,0,1,1.8715-1.164,6.584,6.584,0,0,1,2.2442-.3838,5.3457,5.3457,0,0,1,5.88,5.88v1.3437h-9.648a4.4555,4.4555,0,0,0,.36,1.8965,3.5708,3.5708,0,0,0,.936,1.248,3.64,3.64,0,0,0,1.2842.6953,4.85,4.85,0,0,0,1.4282.2168,4.2511,4.2511,0,0,0,2.22-.48,2.6846,2.6846,0,0,0,1.1163-1.32h2.0639a4.2864,4.2864,0,0,1-.6841,1.6084,4.4838,4.4838,0,0,1-1.2,1.164,5.4436,5.4436,0,0,1-1.6079.708A7.3676,7.3676,0,0,1,277.6967,268.6514Zm-.12-11.28a5.1017,5.1017,0,0,0-1.44.2041,3.464,3.464,0,0,0-1.2364.6475,3.3972,3.3972,0,0,0-.8759,1.1162,3.56,3.56,0,0,0-.336,1.6084h7.6563a4.4253,4.4253,0,0,0-.3242-1.668,2.9535,2.9535,0,0,0-.8038-1.1045,3.18,3.18,0,0,0-1.1879-.6113A5.3535,5.3535,0,0,0,277.5766,257.3711Z"/><path d="M291.2558,268.6514a6.4259,6.4259,0,0,1-2.28-.3965,4.823,4.823,0,0,1-1.8242-1.2,5.6968,5.6968,0,0,1-1.2119-2.0274,8.3563,8.3563,0,0,1-.4439-2.8564v-.48a7.127,7.127,0,0,1,.48-2.7119,5.7487,5.7487,0,0,1,1.272-1.9561,5.2356,5.2356,0,0,1,1.8359-1.1767,6.0788,6.0788,0,0,1,2.1719-.3955,6.1969,6.1969,0,0,1,2.0283.3115,4.9369,4.9369,0,0,1,1.56.8643,4.6873,4.6873,0,0,1,1.08,1.2959,5.8386,5.8386,0,0,1,.6123,1.6083h-2.16a5.8136,5.8136,0,0,0-.4438-.8525,2.6942,2.6942,0,0,0-.624-.6836,2.9376,2.9376,0,0,0-.876-.456,3.743,3.743,0,0,0-1.1763-.168,3.6777,3.6777,0,0,0-1.3437.2519,3.2264,3.2264,0,0,0-1.1519.7686,3.6972,3.6972,0,0,0-.8042,1.3311,5.7225,5.7225,0,0,0-.3,1.9687v.48a6.5069,6.5069,0,0,0,.3,2.1006,3.8852,3.8852,0,0,0,.8042,1.416,3.1076,3.1076,0,0,0,1.1519.792,3.6757,3.6757,0,0,0,1.3437.2519,3.3136,3.3136,0,0,0,1.98-.5761,3.09,3.09,0,0,0,1.14-1.584h2.16a5.1687,5.1687,0,0,1-1.8721,2.9883A5.4187,5.4187,0,0,1,291.2558,268.6514Z"/><path d="M302.32,257.5635H297.976v-1.8721h10.8v1.8721h-4.3437v10.8476H302.32Z"/><path d="M311.1757,255.6914h2.1123v5.3037h6.5757v-5.3037h2.1123v12.72h-2.1123v-5.5439H313.288v5.5439h-2.1123Z"/><path d="M325.8154,255.6914h2.1123v4.8h2.5679a5.0754,5.0754,0,0,1,3.54,1.0557,3.7958,3.7958,0,0,1,1.14,2.9287,3.734,3.734,0,0,1-1.14,2.88,5.0754,5.0754,0,0,1-3.54,1.0556h-4.68Zm4.56,10.8477a3.18,3.18,0,0,0,2.0879-.5284,2.3265,2.3265,0,0,0,0-3.1191,3.1806,3.1806,0,0,0-2.0879-.5283h-2.4477v4.1758Zm6.7681-10.8477h2.1118v12.72h-2.1118Z"/><path d="M348.3754,268.6514a7.0617,7.0617,0,0,1-2.3281-.3838,5.2851,5.2851,0,0,1-1.9438-1.1885,5.8277,5.8277,0,0,1-1.3443-2.0283,7.5307,7.5307,0,0,1-.5039-2.88v-.48a7.1746,7.1746,0,0,1,.48-2.748,5.6774,5.6774,0,0,1,1.2842-1.9444,5.1661,5.1661,0,0,1,1.8716-1.164,6.583,6.583,0,0,1,2.2441-.3838,5.3457,5.3457,0,0,1,5.88,5.88v1.3437h-9.648a4.4555,4.4555,0,0,0,.36,1.8965,3.5708,3.5708,0,0,0,.936,1.248,3.64,3.64,0,0,0,1.2842.6953,4.8508,4.8508,0,0,0,1.4282.2168,4.2518,4.2518,0,0,0,2.22-.48,2.6849,2.6849,0,0,0,1.1162-1.32h2.0639a4.2879,4.2879,0,0,1-.684,1.6084,4.4867,4.4867,0,0,1-1.2,1.164,5.4453,5.4453,0,0,1-1.608.708A7.3671,7.3671,0,0,1,348.3754,268.6514Zm-.12-11.28a5.1017,5.1017,0,0,0-1.44.2041,3.464,3.464,0,0,0-1.2364.6475,3.3972,3.3972,0,0,0-.8759,1.1162,3.56,3.56,0,0,0-.336,1.6084h7.6563a4.4253,4.4253,0,0,0-.3242-1.668,2.9544,2.9544,0,0,0-.8037-1.1045,3.1812,3.1812,0,0,0-1.188-.6113A5.3535,5.3535,0,0,0,348.2553,257.3711Z"/><path d="M368.2949,268.6514a5.8035,5.8035,0,0,1-2.3643-.4805,5.3347,5.3347,0,0,1-1.896-1.4033,6.8344,6.8344,0,0,1-1.272-2.2686,9.2363,9.2363,0,0,1-.4677-3.0478v-.48a21.34,21.34,0,0,1,.312-3.8516,8.0193,8.0193,0,0,1,1.0678-2.88,5.3582,5.3582,0,0,1,1.9917-1.86,7.2559,7.2559,0,0,1,3.1084-.7676q1.5118-.0717,2.64-.1318a4.7055,4.7055,0,0,0,1.92-.4688v2.04a4.135,4.135,0,0,1-1.4043.3359q-1.02.1217-2.7959.168a7.6252,7.6252,0,0,0-2.0278.2881,3.6841,3.6841,0,0,0-1.4883.8408,3.9132,3.9132,0,0,0-.96,1.5,8.1137,8.1137,0,0,0-.4438,2.2676,4.5166,4.5166,0,0,1,1.7759-2.0157,5.1736,5.1736,0,0,1,2.7841-.7441,5.7448,5.7448,0,0,1,2.232.42,5.0745,5.0745,0,0,1,1.74,1.1875,5.3734,5.3734,0,0,1,1.14,1.8848,7.2649,7.2649,0,0,1,.4082,2.5078v.48a7.4254,7.4254,0,0,1-.4561,2.6758,6.245,6.245,0,0,1-1.248,2.04,5.3332,5.3332,0,0,1-1.896,1.3086A6.2329,6.2329,0,0,1,368.2949,268.6514Zm0-1.92a3.5964,3.5964,0,0,0,2.76-1.164,4.8222,4.8222,0,0,0,1.08-3.3965v-.48a4.6309,4.6309,0,0,0-.2881-1.6807,3.9439,3.9439,0,0,0-.792-1.2832,3.364,3.364,0,0,0-1.2119-.8281,4.3034,4.3034,0,0,0-3.0962,0,3.3614,3.3614,0,0,0-1.2119.8281,3.9456,3.9456,0,0,0-.792,1.2832,4.6309,4.6309,0,0,0-.2881,1.6807v.48a5.711,5.711,0,0,0,.3,1.9082,4.2221,4.2221,0,0,0,.8277,1.44,3.5891,3.5891,0,0,0,2.7124,1.2119Z"/><path d="M377.2944,255.6914h2.1123v5.3037h1.8a6.5535,6.5535,0,0,1,.6-2.4121,5.5079,5.5079,0,0,1,1.2837-1.74,5.22,5.22,0,0,1,1.7881-1.044,6.79,6.79,0,0,1,4.4282.0479,5.1936,5.1936,0,0,1,1.86,1.1767,5.6035,5.6035,0,0,1,1.26,1.9561,7.2953,7.2953,0,0,1,.4683,2.7119v.48a7.9755,7.9755,0,0,1-.4683,2.8564,5.7785,5.7785,0,0,1-1.26,2.0274,5.0215,5.0215,0,0,1-1.86,1.2,6.807,6.807,0,0,1-4.44.0478,5,5,0,0,1-1.8-1.0673,5.4984,5.4984,0,0,1-1.272-1.8125,7.3524,7.3524,0,0,1-.5879-2.5557h-1.8v5.5439h-2.1123Zm9.72,11.04a3.9343,3.9343,0,0,0,1.3921-.2519,3.1774,3.1774,0,0,0,1.188-.792,3.942,3.942,0,0,0,.8276-1.4043,6.2582,6.2582,0,0,0,.312-2.1123v-.48a5.5261,5.5261,0,0,0-.312-1.9687,3.887,3.887,0,0,0-.8276-1.3438,3.1152,3.1152,0,0,0-1.188-.7676,4.1541,4.1541,0,0,0-2.7842,0,3.1077,3.1077,0,0,0-1.188.7676,3.88,3.88,0,0,0-.8281,1.3438,5.5261,5.5261,0,0,0-.312,1.9687v.48a6.2582,6.2582,0,0,0,.312,2.1123,3.9354,3.9354,0,0,0,.8281,1.4043,3.17,3.17,0,0,0,1.188.792A3.9323,3.9323,0,0,0,387.0146,266.7314Z"/><path d="M394.4545,266.5391h1.56a3.6378,3.6378,0,0,0,.48-1.1036,15.4777,15.4777,0,0,0,.3838-1.7519q.1677-1.0094.2519-2.1963t.0845-2.4365v-3.3594h8.88v10.8477h1.8v4.872h-2.0161v-3h-9.4078v3h-2.0161Zm9.5279,0v-8.9756h-4.7036v1.9677q0,1.0078-.0723,2.004t-.2158,1.8955q-.1443.9008-.3482,1.7041a9.0282,9.0282,0,0,1-.4678,1.4043Z"/><path d="M413.8945,261.8594l-4.56-6.168h2.3521l3.8882,5.3281h1.4638v-5.3281H419.15V261.02h1.44l3.96-5.3281h2.3037l-4.56,6.0957,4.8,6.624h-2.4961l-4.0078-5.5683h-1.44v5.5683h-2.1118v-5.5683h-1.4638l-4.0323,5.5683h-2.4477Z"/><path d="M434.8945,268.6514a7.0617,7.0617,0,0,1-2.3281-.3838,5.2855,5.2855,0,0,1-1.9439-1.1885,5.8275,5.8275,0,0,1-1.3442-2.0283,7.5288,7.5288,0,0,1-.5039-2.88v-.48a7.1747,7.1747,0,0,1,.48-2.748,5.6789,5.6789,0,0,1,1.2842-1.9444,5.1678,5.1678,0,0,1,1.8716-1.164,6.5835,6.5835,0,0,1,2.2441-.3838,5.3456,5.3456,0,0,1,5.88,5.88v1.3437h-9.6479a4.4571,4.4571,0,0,0,.36,1.8965,3.5722,3.5722,0,0,0,.9361,1.248,3.64,3.64,0,0,0,1.2842.6953,4.85,4.85,0,0,0,1.4282.2168,4.2514,4.2514,0,0,0,2.22-.48,2.6849,2.6849,0,0,0,1.1162-1.32h2.064a4.288,4.288,0,0,1-.6841,1.6084,4.4838,4.4838,0,0,1-1.2,1.164,5.4447,5.4447,0,0,1-1.6079.708A7.3676,7.3676,0,0,1,434.8945,268.6514Zm-.12-11.28a5.1029,5.1029,0,0,0-1.44.2041,3.4636,3.4636,0,0,0-1.2363.6475,3.3961,3.3961,0,0,0-.876,1.1162,3.5611,3.5611,0,0,0-.3359,1.6084h7.6562a4.4253,4.4253,0,0,0-.3242-1.668,2.9544,2.9544,0,0,0-.8037-1.1045,3.18,3.18,0,0,0-1.188-.6113A5.3522,5.3522,0,0,0,434.7744,257.3711Z"/><path d="M446.4384,257.5635h-4.3442v-1.8721h10.8v1.8721H448.55v10.8476h-2.1118Z"/><path d="M455.2939,255.6914h2.1123v4.8h2.5679a5.0753,5.0753,0,0,1,3.54,1.0557,3.7959,3.7959,0,0,1,1.14,2.9287,3.734,3.734,0,0,1-1.14,2.88,5.0753,5.0753,0,0,1-3.54,1.0556h-4.68Zm4.56,10.8477a3.18,3.18,0,0,0,2.0879-.5284,2.3265,2.3265,0,0,0,0-3.1191,3.1806,3.1806,0,0,0-2.0879-.5283h-2.4477v4.1758Zm6.7681-10.8477h2.1118v12.72H466.622Z"/><path d="M274.95,129.4805h3.642v-9.6514l-3.642,2.5947v-3.3232l3.8466-2.7315h3.21v13.1114h2.9595v2.8222H274.95Z"/><path d="M286.1259,129.8213l5.5767-4.8027q.7734-.6827,1.32-1.1954a8.7673,8.7673,0,0,0,.8877-.9443,3.0582,3.0582,0,0,0,.4892-.8418,2.5954,2.5954,0,0,0,.148-.8877,2.2664,2.2664,0,0,0-.5464-1.582,2.0694,2.0694,0,0,0-1.6162-.6035,2.6487,2.6487,0,0,0-1.9233.6718,3.1364,3.1364,0,0,0-.6944,2.31h-3.414a5.859,5.859,0,0,1,1.5361-4.2793,6.0136,6.0136,0,0,1,4.4956-1.57,7.09,7.09,0,0,1,2.4243.376,4.9243,4.9243,0,0,1,1.7417,1.0469,4.2664,4.2664,0,0,1,1.0581,1.6044,5.6813,5.6813,0,0,1,.353,2.0264,4.167,4.167,0,0,1-.2959,1.5586,6.2147,6.2147,0,0,1-.8081,1.4229,10.6854,10.6854,0,0,1-1.1953,1.332q-.6825.6489-1.4565,1.2861l-3.2778,2.7315H298.19v2.8222h-12.064Z"/><path d="M306.3388,132.5762a9.3693,9.3693,0,0,1-2.5835-.33,5.7329,5.7329,0,0,1-1.935-.9336,4.1121,4.1121,0,0,1-1.2066-1.457,4.234,4.234,0,0,1-.4209-1.9,3.8174,3.8174,0,0,1,.8194-2.4014,4.3978,4.3978,0,0,1,2.4355-1.4912,4.2305,4.2305,0,0,1-2.0029-1.3428,3.4427,3.4427,0,0,1-.7969-2.2763,4.0646,4.0646,0,0,1,.3755-1.753,3.8391,3.8391,0,0,1,1.104-1.3769,5.2891,5.2891,0,0,1,1.7871-.8994,9.3885,9.3885,0,0,1,4.8486,0,5.4162,5.4162,0,0,1,1.7979.8994,3.7974,3.7974,0,0,1,1.1157,1.3769,4.0646,4.0646,0,0,1,.3755,1.753,3.31,3.31,0,0,1-.7969,2.2421,4.8516,4.8516,0,0,1-2.0259,1.377q3.255,1.002,3.2554,3.8926a4.2329,4.2329,0,0,1-.4214,1.9,4.1065,4.1065,0,0,1-1.2065,1.457,5.7444,5.7444,0,0,1-1.9234.9336A9.3406,9.3406,0,0,1,306.3388,132.5762Zm0-2.8682a3.2217,3.2217,0,0,0,2.0713-.5469,1.819,1.819,0,0,0,.66-1.48,1.9662,1.9662,0,0,0-.7627-1.6269,2.8614,2.8614,0,0,0-3.938,0,1.9658,1.9658,0,0,0-.7622,1.6269,1.7935,1.7935,0,0,0,.6826,1.48A3.2356,3.2356,0,0,0,306.3388,129.708Zm0-6.7607A3.4809,3.4809,0,0,0,308,122.2305a1.84,1.84,0,0,0,.6372-1.4912,1.5479,1.5479,0,0,0-.603-1.3321,2.8191,2.8191,0,0,0-1.6958-.4433,2.7731,2.7731,0,0,0-1.6733.4433,1.5467,1.5467,0,0,0-.6031,1.3321,1.8549,1.8549,0,0,0,.626,1.4912A3.401,3.401,0,0,0,306.3388,122.9473Z"/><path d="M315.4667,132.3027v-2.9589h3.1866v2.9589l-2.5494,3.6416h-1.5478Z"/><path d="M327.9633,132.5762a7.607,7.607,0,0,1-2.6631-.4326,4.7276,4.7276,0,0,1-1.958-1.3545,6.2347,6.2347,0,0,1-1.2177-2.3565,12.2,12.2,0,0,1-.4209-3.414v-.4551a13.7138,13.7138,0,0,1,.478-3.8809,7.2066,7.2066,0,0,1,1.3428-2.6289,5.0806,5.0806,0,0,1,2.06-1.4912,7.1182,7.1182,0,0,1,2.6065-.4668,6.2188,6.2188,0,0,1,3.5737.9336,4.2158,4.2158,0,0,1,1.6616,3.0957H330.24a2.0476,2.0476,0,0,0-2.1626-1.1611,3.6929,3.6929,0,0,0-1.2178.1933,2.1886,2.1886,0,0,0-.979.7061,3.8166,3.8166,0,0,0-.6714,1.3994,10.5142,10.5142,0,0,0-.3188,2.2764,2.7868,2.7868,0,0,1,.7285-.7627,4.19,4.19,0,0,1,.9448-.501,5.6137,5.6137,0,0,1,1.07-.2842A6.9988,6.9988,0,0,1,328.76,121.9a4.5406,4.5406,0,0,1,5.0078,5.0078v.25a5.5116,5.5116,0,0,1-.4321,2.208,5.1175,5.1175,0,0,1-1.1953,1.7188,5.2436,5.2436,0,0,1-1.832,1.1035A6.832,6.832,0,0,1,327.9633,132.5762Zm-.2275-2.8682a2.5993,2.5993,0,0,0,1.9233-.6943,2.419,2.419,0,0,0,.6944-1.7871v-.2276a2.38,2.38,0,0,0-.6944-1.7754,3.0516,3.0516,0,0,0-3.8471,0,2.38,2.38,0,0,0-.6939,1.7754v.2276a2.4186,2.4186,0,0,0,.6939,1.7871A2.6,2.6,0,0,0,327.7358,129.708Z"/><path d="M341.5068,132.5762a6.3259,6.3259,0,0,1-4.416-1.377,4.8851,4.8851,0,0,1-1.502-3.79h3.4141a2.27,2.27,0,0,0,.6035,1.73,2.6946,2.6946,0,0,0,1.9.5693,2.7479,2.7479,0,0,0,1.8779-.5576,2.0083,2.0083,0,0,0,.626-1.582q0-2.14-2.5039-2.14h-1.4795v-2.6406h1.4795a2.7128,2.7128,0,0,0,1.6846-.4551,1.6694,1.6694,0,0,0,.5917-1.4121,1.8711,1.8711,0,0,0-.5688-1.4111,2.38,2.38,0,0,0-1.7075-.5459,2.4045,2.4045,0,0,0-1.7183.5351,2.0273,2.0273,0,0,0-.5576,1.5362h-3.4145a4.679,4.679,0,0,1,1.4223-3.6416,6.1483,6.1483,0,0,1,4.2681-1.2979,8.5343,8.5343,0,0,1,2.5039.33,5.1536,5.1536,0,0,1,1.7759.91,3.7323,3.7323,0,0,1,1.0581,1.378,4.221,4.221,0,0,1,.353,1.73,3.4723,3.4723,0,0,1-.74,2.2421,3.9909,3.9909,0,0,1-1.9693,1.3086,4.0585,4.0585,0,0,1,2.1738,1.3428,3.9368,3.9368,0,0,1,.7627,2.5274,4.3563,4.3563,0,0,1-.41,1.8886,4.2822,4.2822,0,0,1-1.1724,1.4912,5.566,5.566,0,0,1-1.8667.9786A8.0857,8.0857,0,0,1,341.5068,132.5762Z"/><path d="M355.1186,120.2383h3.5508l3.3462,6.5107,3.3462-6.5107h3.4145v12.0644h-2.8682v-7.8535l-2.9365,5.4639h-2.0483l-2.9365-5.4639v7.8535h-2.8682Z"/><path d="M371.5986,132.5762c-.1216,0-.273-.0039-.4551-.0117a2.3507,2.3507,0,0,1-.4556-.0567v-2.709a1.8494,1.8494,0,0,0,.3418.0225,1.1452,1.1452,0,0,0,.751-.2617,1.9566,1.9566,0,0,0,.5352-.8985,7.7848,7.7848,0,0,0,.3183-1.6963q.1026-1.059.1026-2.6289v-4.0976h9.56v12.0644h-3.0049v-9.56h-3.7788v2.0488a25.5389,25.5389,0,0,1-.2388,3.8584,7.17,7.17,0,0,1-.7285,2.3789,2.7651,2.7651,0,0,1-1.229,1.2061A4.0656,4.0656,0,0,1,371.5986,132.5762Z"/><path d="M385.0058,120.2383h3.0049v4.667h5.144v-4.667H396.16v12.0644h-3.0049v-4.8935h-5.144v4.8935h-3.0049Z"/><path d="M404.0805,120.2383h2.8v1.7754a4.0387,4.0387,0,0,1,1.4341-1.4336,4.5856,4.5856,0,0,1,2.481-.6143,4.8352,4.8352,0,0,1,3.7675,1.49,6.4654,6.4654,0,0,1,1.354,4.4726v.4561a6.7953,6.7953,0,0,1-1.3769,4.6543,4.7761,4.7761,0,0,1-3.7446,1.5371,4.3369,4.3369,0,0,1-2.1739-.5352,4.5315,4.5315,0,0,1-1.5361-1.4v6.2149h-3.0049Zm6.0093,9.7881a2.5392,2.5392,0,0,0,1.98-.8994,4.0386,4.0386,0,0,0,.7968-2.7422v-.4561a3.7066,3.7066,0,0,0-.7739-2.5605,2.5793,2.5793,0,0,0-2.0034-.8536,3.1666,3.1666,0,0,0-2.1509.74,2.7762,2.7762,0,0,0-.8535,2.2187V126.84a3.1573,3.1573,0,0,0,.8306,2.4014A3.035,3.035,0,0,0,410.09,130.0264Z"/><path d="M420.1054,137.1289a3.5169,3.5169,0,0,1-.6831-.0684v-2.55a3.4483,3.4483,0,0,0,.6831.0684,1.2346,1.2346,0,0,0,1.0581-.5127,8.097,8.097,0,0,0,.854-1.7637l-5.0991-12.0644h3.3691l3.2779,8.331,3.0044-8.331h3.0957l-4.6436,12.0644q-.501,1.2744-.9443,2.1963a5.933,5.933,0,0,1-.99,1.503,3.3934,3.3934,0,0,1-1.2519.8535A4.8245,4.8245,0,0,1,420.1054,137.1289Z"/><path d="M436.6987,132.5762a6.2935,6.2935,0,0,1-2.356-.4326,5.0406,5.0406,0,0,1-1.8779-1.3086,6.1476,6.1476,0,0,1-1.24-2.1631,9.1711,9.1711,0,0,1-.4439-2.9932v-.5234a19.3759,19.3759,0,0,1,.3071-3.6416,7.6424,7.6424,0,0,1,1.0244-2.709,4.9763,4.9763,0,0,1,1.9122-1.7412,7.2119,7.2119,0,0,1,2.9931-.7178q.7053-.0219,1.3887-.0449t1.2974-.0684a8.8457,8.8457,0,0,0,1.1152-.1484,3.9,3.9,0,0,0,.8877-.2842v2.6631a4.2643,4.2643,0,0,1-1.354.3418,26.0529,26.0529,0,0,1-2.9937.1592,6.89,6.89,0,0,0-1.7641.2392,2.9518,2.9518,0,0,0-1.229.6826,3.2272,3.2272,0,0,0-.774,1.2178,7.4125,7.4125,0,0,0-.3984,1.8438,4.1314,4.1314,0,0,1,1.5708-1.6621,5.2074,5.2074,0,0,1,2.7315-.6368,5.8114,5.8114,0,0,1,2.0712.3526,4.5042,4.5042,0,0,1,1.6163,1.0361,4.649,4.649,0,0,1,1.0585,1.6846,6.5864,6.5864,0,0,1,.3755,2.3213v.4326a7.035,7.035,0,0,1-.4438,2.5723,5.4242,5.4242,0,0,1-1.2407,1.9228,5.3285,5.3285,0,0,1-1.878,1.1953A6.5866,6.5866,0,0,1,436.6987,132.5762Zm0-2.55a2.61,2.61,0,0,0,2.1172-.8965,3.87,3.87,0,0,0,.7509-2.5518v-.4541a3.1354,3.1354,0,0,0-.7739-2.2461,3.0792,3.0792,0,0,0-4.1767,0,3.1065,3.1065,0,0,0-.7852,2.2461v.4082a4.7207,4.7207,0,0,0,.2158,1.4756,3.1257,3.1257,0,0,0,.6035,1.1,2.651,2.651,0,0,0,.9107.6807A2.7061,2.7061,0,0,0,436.6987,130.0264Z"/><path d="M281.1254,156.1631a6.8263,6.8263,0,0,1-2.3281-.3965,5.4052,5.4052,0,0,1-1.9438-1.2,5.8243,5.8243,0,0,1-1.3443-2.0273,7.4662,7.4662,0,0,1-.5039-2.8565v-.48a6.8339,6.8339,0,0,1,.5039-2.7119,5.6629,5.6629,0,0,1,1.3443-1.956,5.6,5.6,0,0,1,1.9438-1.1768,7.0487,7.0487,0,0,1,4.6558,0,5.6158,5.6158,0,0,1,1.9443,1.1768,5.6754,5.6754,0,0,1,1.3438,1.956,6.8339,6.8339,0,0,1,.5039,2.7119v.48a7.4662,7.4662,0,0,1-.5039,2.8565,5.8371,5.8371,0,0,1-1.3438,2.0273,5.42,5.42,0,0,1-1.9443,1.2A6.8261,6.8261,0,0,1,281.1254,156.1631Zm0-1.92a4.3348,4.3348,0,0,0,1.44-.252,3.4181,3.4181,0,0,0,1.2719-.792,4.0512,4.0512,0,0,0,.9-1.4043,5.6663,5.6663,0,0,0,.3482-2.1123v-.48a5.0106,5.0106,0,0,0-.3482-1.9687,4.02,4.02,0,0,0-.9-1.3438,3.3612,3.3612,0,0,0-1.2719-.7676,4.4377,4.4377,0,0,0-2.88,0,3.3623,3.3623,0,0,0-1.272.7676,4.016,4.016,0,0,0-.9,1.3438,5.0128,5.0128,0,0,0-.3476,1.9687v.48a5.669,5.669,0,0,0,.3476,2.1123,4.0469,4.0469,0,0,0,.9,1.4043,3.4193,3.4193,0,0,0,1.272.792A4.34,4.34,0,0,0,281.1254,154.2432Z"/><path d="M295.5253,156.1631a5.8034,5.8034,0,0,1-2.3642-.48,5.3347,5.3347,0,0,1-1.896-1.4033,6.8309,6.8309,0,0,1-1.272-2.2686,9.2362,9.2362,0,0,1-.4678-3.0478v-.48a21.3474,21.3474,0,0,1,.312-3.8515,8.0218,8.0218,0,0,1,1.0679-2.88,5.3583,5.3583,0,0,1,1.9917-1.86,7.2569,7.2569,0,0,1,3.1084-.7676q1.5117-.0717,2.64-.1318a4.7071,4.7071,0,0,0,1.92-.4687v2.04a4.1357,4.1357,0,0,1-1.4043.3359q-1.02.1216-2.7959.168a7.626,7.626,0,0,0-2.0279.2881,3.6843,3.6843,0,0,0-1.4882.8408,3.912,3.912,0,0,0-.96,1.5,8.11,8.11,0,0,0-.4438,2.2676,4.5155,4.5155,0,0,1,1.7758-2.0156,5.1732,5.1732,0,0,1,2.7842-.7442,5.7443,5.7443,0,0,1,2.2319.42,5.0749,5.0749,0,0,1,1.74,1.1875,5.3718,5.3718,0,0,1,1.14,1.8848,7.2625,7.2625,0,0,1,.4082,2.5078v.48a7.4254,7.4254,0,0,1-.456,2.6758,6.2424,6.2424,0,0,1-1.2481,2.04,5.3314,5.3314,0,0,1-1.896,1.3086A6.2321,6.2321,0,0,1,295.5253,156.1631Zm0-1.92a3.5966,3.5966,0,0,0,2.76-1.1641,4.8222,4.8222,0,0,0,1.08-3.3965v-.48a4.63,4.63,0,0,0-.2881-1.6806,3.9435,3.9435,0,0,0-.792-1.2832,3.363,3.363,0,0,0-1.2119-.8282,4.3034,4.3034,0,0,0-3.0962,0,3.3587,3.3587,0,0,0-1.2119.8282,3.9418,3.9418,0,0,0-.792,1.2832,4.63,4.63,0,0,0-.2881,1.6806v.48a5.711,5.711,0,0,0,.3,1.9082,4.2236,4.2236,0,0,0,.8276,1.44,3.5891,3.5891,0,0,0,2.7124,1.212Z"/><path d="M303.9247,156.1631a3.6688,3.6688,0,0,1-.72-.0723v-2.1123a1.9211,1.9211,0,0,0,.36.0244,1.3862,1.3862,0,0,0,.9238-.3359,2.3731,2.3731,0,0,0,.6362-1.1758,12.44,12.44,0,0,0,.36-2.28q.12-1.44.12-3.6484v-3.3594h9.12v12.72h-2.1123V145.0752h-4.896v1.9678a33.5665,33.5665,0,0,1-.24,4.416,10.47,10.47,0,0,1-.708,2.7959,2.8774,2.8774,0,0,1-2.8443,1.9082Z"/><path d="M322.1889,156.1631a5.3211,5.3211,0,0,1-1.86-.3,3.9164,3.9164,0,0,1-1.3559-.8281,3.5216,3.5216,0,0,1-.84-1.2481,4.2311,4.2311,0,0,1-.2876-1.584,3.2043,3.2043,0,0,1,1.1157-2.7363,5.256,5.256,0,0,1,3.2041-.84h4.1279v-.8643a2.858,2.858,0,0,0-.7319-2.2559,3.315,3.315,0,0,0-2.1958-.624,3.114,3.114,0,0,0-1.9922.5156,1.76,1.76,0,0,0-.6958,1.1641h-2.1123a3.2857,3.2857,0,0,1,.42-1.4277,3.6979,3.6979,0,0,1,1.0083-1.14,4.9171,4.9171,0,0,1,1.5239-.7558,6.59,6.59,0,0,1,1.9678-.2764,5.5761,5.5761,0,0,1,3.5884,1.0683,4.2175,4.2175,0,0,1,1.3315,3.4913v5.16q0,1.0078.0122,1.7647a12.6651,12.6651,0,0,0,.1079,1.4756h-1.8476q-.0725-.5523-.0962-1.044t-.0239-1.1162a4.2536,4.2536,0,0,1-1.6324,1.7041A5.1128,5.1128,0,0,1,322.1889,156.1631Zm.4561-1.92a4.7392,4.7392,0,0,0,1.4038-.2041,3.556,3.556,0,0,0,1.164-.6006,2.8278,2.8278,0,0,0,.792-.9717,2.97,2.97,0,0,0,.2881-1.3438v-.8642h-3.7681a3.1911,3.1911,0,0,0-1.8476.4678,1.6739,1.6739,0,0,0-.6724,1.4765,1.8872,1.8872,0,0,0,.6363,1.4639A2.9251,2.9251,0,0,0,322.645,154.2432Z"/><path d="M337.0444,156.1631a6.4259,6.4259,0,0,1-2.28-.3965,4.823,4.823,0,0,1-1.8242-1.2,5.6972,5.6972,0,0,1-1.2119-2.0273,8.3569,8.3569,0,0,1-.4439-2.8565v-.48a7.127,7.127,0,0,1,.48-2.7119,5.7458,5.7458,0,0,1,1.272-1.956,5.2344,5.2344,0,0,1,1.8359-1.1768,6.0784,6.0784,0,0,1,2.1719-.3955,6.1974,6.1974,0,0,1,2.0283.3115,4.938,4.938,0,0,1,1.56.8643,4.6866,4.6866,0,0,1,1.08,1.2959,5.8426,5.8426,0,0,1,.6124,1.6084h-2.16a5.8054,5.8054,0,0,0-.4439-.8526,2.6922,2.6922,0,0,0-.624-.6836,2.9374,2.9374,0,0,0-.876-.456,3.7453,3.7453,0,0,0-1.1762-.168,3.6767,3.6767,0,0,0-1.3438.252,3.2253,3.2253,0,0,0-1.1518.7685,3.6958,3.6958,0,0,0-.8042,1.3311,5.7225,5.7225,0,0,0-.3,1.9687v.48a6.5069,6.5069,0,0,0,.3,2.1006,3.8829,3.8829,0,0,0,.8042,1.416,3.1081,3.1081,0,0,0,1.1518.792,3.6767,3.6767,0,0,0,1.3438.252,3.3138,3.3138,0,0,0,1.98-.5762,3.09,3.09,0,0,0,1.14-1.584h2.16a5.1692,5.1692,0,0,1-1.8721,2.9883A5.4189,5.4189,0,0,1,337.0444,156.1631Z"/><path d="M348.1088,145.0752h-4.3442v-1.8721h10.8v1.8721h-4.3438v10.8477h-2.1118Z"/><path d="M356.9643,143.2031h2.1123v5.3037h6.5757v-5.3037h2.1123v12.72h-2.1123v-5.544h-6.5757v5.544h-2.1123Z"/><path d="M376.8842,156.1631a6.8263,6.8263,0,0,1-2.3281-.3965,5.4065,5.4065,0,0,1-1.9439-1.2,5.8241,5.8241,0,0,1-1.3442-2.0273,7.4662,7.4662,0,0,1-.5039-2.8565v-.48a6.8339,6.8339,0,0,1,.5039-2.7119,5.6627,5.6627,0,0,1,1.3442-1.956,5.6012,5.6012,0,0,1,1.9439-1.1768,7.0487,7.0487,0,0,1,4.6558,0,5.6167,5.6167,0,0,1,1.9443,1.1768,5.6739,5.6739,0,0,1,1.3437,1.956,6.8321,6.8321,0,0,1,.504,2.7119v.48a7.4642,7.4642,0,0,1-.504,2.8565,5.8355,5.8355,0,0,1-1.3437,2.0273,5.4209,5.4209,0,0,1-1.9443,1.2A6.8265,6.8265,0,0,1,376.8842,156.1631Zm0-1.92a4.3348,4.3348,0,0,0,1.44-.252,3.4189,3.4189,0,0,0,1.2719-.792,4.0512,4.0512,0,0,0,.9-1.4043,5.6663,5.6663,0,0,0,.3482-2.1123v-.48a5.0106,5.0106,0,0,0-.3482-1.9687,4.02,4.02,0,0,0-.9-1.3438,3.362,3.362,0,0,0-1.2719-.7676,4.4377,4.4377,0,0,0-2.88,0,3.3623,3.3623,0,0,0-1.272.7676,4.016,4.016,0,0,0-.9,1.3438,5.0128,5.0128,0,0,0-.3476,1.9687v.48a5.669,5.669,0,0,0,.3476,2.1123,4.0469,4.0469,0,0,0,.9,1.4043,3.4193,3.4193,0,0,0,1.272.792A4.3393,4.3393,0,0,0,376.8842,154.2432Z"/><path d="M386.0039,143.2031h2.1123v9.6l6.5756-9.6h2.1123v12.72h-2.1123v-9.6l-6.5756,9.6h-2.1123Zm5.4-1.5605a3.9228,3.9228,0,0,1-2.7359-.8037,3.0079,3.0079,0,0,1-.8638-2.3164h2.064q0,1.6332,1.5357,1.6328a1.4218,1.4218,0,0,0,1.5839-1.6328h2.0162a3.01,3.01,0,0,1-.8638,2.3164A3.9241,3.9241,0,0,1,391.4038,141.6426Z"/><path d="M411.9238,156.1631a5.8035,5.8035,0,0,1-2.3643-.48,5.3356,5.3356,0,0,1-1.896-1.4033,6.8344,6.8344,0,0,1-1.272-2.2686,9.2363,9.2363,0,0,1-.4677-3.0478v-.48a21.3383,21.3383,0,0,1,.312-3.8515,8.0181,8.0181,0,0,1,1.0679-2.88,5.3575,5.3575,0,0,1,1.9917-1.86,7.2565,7.2565,0,0,1,3.1084-.7676q1.5117-.0717,2.64-.1318a4.7067,4.7067,0,0,0,1.92-.4687v2.04a4.135,4.135,0,0,1-1.4043.3359q-1.02.1216-2.7959.168a7.6258,7.6258,0,0,0-2.0278.2881,3.6841,3.6841,0,0,0-1.4883.8408,3.9132,3.9132,0,0,0-.96,1.5,8.1137,8.1137,0,0,0-.4438,2.2676,4.5163,4.5163,0,0,1,1.7759-2.0156,5.1729,5.1729,0,0,1,2.7842-.7442,5.7447,5.7447,0,0,1,2.2319.42,5.0736,5.0736,0,0,1,1.74,1.1875,5.3734,5.3734,0,0,1,1.14,1.8848,7.2649,7.2649,0,0,1,.4082,2.5078v.48a7.4254,7.4254,0,0,1-.4561,2.6758,6.2439,6.2439,0,0,1-1.248,2.04,5.3323,5.3323,0,0,1-1.896,1.3086A6.2329,6.2329,0,0,1,411.9238,156.1631Zm0-1.92a3.5965,3.5965,0,0,0,2.76-1.1641,4.8217,4.8217,0,0,0,1.08-3.3965v-.48a4.63,4.63,0,0,0-.2881-1.6806,3.9418,3.9418,0,0,0-.792-1.2832,3.363,3.363,0,0,0-1.2119-.8282,4.3034,4.3034,0,0,0-3.0962,0,3.36,3.36,0,0,0-1.2119.8282,3.9435,3.9435,0,0,0-.792,1.2832,4.63,4.63,0,0,0-.2881,1.6806v.48a5.711,5.711,0,0,0,.3,1.9082,4.2221,4.2221,0,0,0,.8277,1.44,3.5887,3.5887,0,0,0,2.7124,1.212Z"/><path d="M420.9233,143.2031h2.1123v5.3037h1.8a6.5555,6.5555,0,0,1,.6-2.4121,5.5079,5.5079,0,0,1,1.2837-1.74,5.2216,5.2216,0,0,1,1.7881-1.044,6.79,6.79,0,0,1,4.4282.0479,5.1938,5.1938,0,0,1,1.86,1.1768,5.6033,5.6033,0,0,1,1.26,1.956,7.2953,7.2953,0,0,1,.4683,2.7119v.48a7.9761,7.9761,0,0,1-.4683,2.8565,5.78,5.78,0,0,1-1.26,2.0273,5.0227,5.0227,0,0,1-1.86,1.2,6.8076,6.8076,0,0,1-4.44.0479,5,5,0,0,1-1.8-1.0674,5.4984,5.4984,0,0,1-1.272-1.8125,7.3524,7.3524,0,0,1-.5879-2.5557h-1.8v5.544h-2.1123Zm9.72,11.04a3.9344,3.9344,0,0,0,1.3921-.252,3.1774,3.1774,0,0,0,1.188-.792,3.9411,3.9411,0,0,0,.8276-1.4043,6.2578,6.2578,0,0,0,.312-2.1123v-.48a5.5261,5.5261,0,0,0-.312-1.9687,3.8879,3.8879,0,0,0-.8276-1.3438,3.1164,3.1164,0,0,0-1.188-.7676,4.1541,4.1541,0,0,0-2.7842,0,3.1088,3.1088,0,0,0-1.188.7676,3.8813,3.8813,0,0,0-.8281,1.3438,5.5261,5.5261,0,0,0-.312,1.9687v.48a6.2578,6.2578,0,0,0,.312,2.1123,3.9346,3.9346,0,0,0,.8281,1.4043,3.17,3.17,0,0,0,1.188.792A3.9324,3.9324,0,0,0,430.6435,154.2432Z"/><path d="M438.083,154.0508h1.56a3.637,3.637,0,0,0,.48-1.1035,15.4629,15.4629,0,0,0,.3838-1.752q.1677-1.0092.2519-2.1963t.0845-2.4365v-3.3594h8.88v10.8477h1.8v4.8721h-2.0161v-3h-9.4077v3H438.083Zm9.5278,0v-8.9756h-4.7036v1.9678q0,1.0077-.0723,2.0039t-.2158,1.8955q-.1443.9009-.3482,1.7041a9.0357,9.0357,0,0,1-.4677,1.4043Z"/><path d="M457.5229,149.3711l-4.56-6.168h2.3521l3.8882,5.3281h1.4638v-5.3281h2.1119v5.3281h1.44l3.96-5.3281h2.3038l-4.56,6.0957,4.8,6.6241H468.227l-4.0078-5.5684h-1.44v5.5684h-2.1119v-5.5684h-1.4638l-4.0323,5.5684h-2.4477Z"/><path d="M478.5229,156.1631a7.0617,7.0617,0,0,1-2.3281-.3838,5.2842,5.2842,0,0,1-1.9439-1.1885,5.8275,5.8275,0,0,1-1.3442-2.0283,7.5288,7.5288,0,0,1-.5039-2.88v-.48a7.1727,7.1727,0,0,1,.48-2.748,5.6772,5.6772,0,0,1,1.2841-1.9444,5.1678,5.1678,0,0,1,1.8716-1.164,6.5836,6.5836,0,0,1,2.2442-.3838,5.3456,5.3456,0,0,1,5.88,5.88v1.3437h-9.6479a4.4552,4.4552,0,0,0,.36,1.8965,3.5721,3.5721,0,0,0,.936,1.2481,3.6411,3.6411,0,0,0,1.2842.6953,4.8536,4.8536,0,0,0,1.4282.2168,4.251,4.251,0,0,0,2.22-.4805,2.6845,2.6845,0,0,0,1.1162-1.32h2.064a4.2864,4.2864,0,0,1-.6841,1.6084,4.4838,4.4838,0,0,1-1.2,1.164,5.4437,5.4437,0,0,1-1.6079.7081A7.372,7.372,0,0,1,478.5229,156.1631Zm-.12-11.28a5.1029,5.1029,0,0,0-1.44.2041,3.4676,3.4676,0,0,0-1.2363.6475,3.3974,3.3974,0,0,0-.876,1.1162,3.5614,3.5614,0,0,0-.3359,1.6084h7.6562a4.4253,4.4253,0,0,0-.3242-1.668,2.9541,2.9541,0,0,0-.8037-1.1045,3.18,3.18,0,0,0-1.188-.6113A5.3561,5.3561,0,0,0,478.4028,144.8828Z"/><path d="M490.0668,145.0752h-4.3442v-1.8721h10.8v1.8721h-4.3437v10.8477h-2.1119Z"/><path d="M238.1791,16.7764a7.606,7.606,0,0,1-2.663-.4326,4.7264,4.7264,0,0,1-1.958-1.3545,6.2334,6.2334,0,0,1-1.2178-2.3565,12.2,12.2,0,0,1-.4209-3.414V8.7637a13.7169,13.7169,0,0,1,.478-3.8809A7.2082,7.2082,0,0,1,233.74,2.2539,5.0813,5.0813,0,0,1,235.8.7627a7.1165,7.1165,0,0,1,2.6065-.4668A6.2183,6.2183,0,0,1,241.98,1.23a4.2151,4.2151,0,0,1,1.6616,3.0957h-3.1865a2.0476,2.0476,0,0,0-2.1626-1.1611,3.6929,3.6929,0,0,0-1.2178.1933,2.1891,2.1891,0,0,0-.979.7061,3.8166,3.8166,0,0,0-.6714,1.3994,10.52,10.52,0,0,0-.3188,2.2764,2.7869,2.7869,0,0,1,.7285-.7627,4.19,4.19,0,0,1,.9448-.501,5.6147,5.6147,0,0,1,1.07-.2842,6.9966,6.9966,0,0,1,1.1264-.0908,4.9969,4.9969,0,0,1,3.71,1.3086,5.0278,5.0278,0,0,1,1.2973,3.6992v.25a5.5116,5.5116,0,0,1-.4321,2.208,5.1175,5.1175,0,0,1-1.1953,1.7188,5.2427,5.2427,0,0,1-1.832,1.1035A6.8316,6.8316,0,0,1,238.1791,16.7764Zm-.2275-2.8682a2.5992,2.5992,0,0,0,1.9233-.6943,2.419,2.419,0,0,0,.6944-1.7871v-.2276a2.38,2.38,0,0,0-.6944-1.7754,3.0516,3.0516,0,0,0-3.8471,0,2.38,2.38,0,0,0-.6939,1.7754v.2276a2.4186,2.4186,0,0,0,.6939,1.7871A2.6,2.6,0,0,0,237.9516,13.9082Z"/><path d="M246.0322,13.6807h3.6421V4.0293L246.0322,6.624V3.3008L249.8789.5693h3.2094V13.6807h2.9595v2.8222H246.0322Z"/><path d="M263.6957,16.7764a9.37,9.37,0,0,1-2.5835-.33,5.7329,5.7329,0,0,1-1.935-.9336,4.1131,4.1131,0,0,1-1.2066-1.457,4.234,4.234,0,0,1-.4209-1.9,3.8174,3.8174,0,0,1,.8194-2.4014,4.3982,4.3982,0,0,1,2.4355-1.4912A4.231,4.231,0,0,1,258.8017,6.92a3.4432,3.4432,0,0,1-.7969-2.2763,4.0646,4.0646,0,0,1,.3755-1.753,3.84,3.84,0,0,1,1.104-1.3769,5.2892,5.2892,0,0,1,1.7871-.8994,9.3889,9.3889,0,0,1,4.8487,0,5.4148,5.4148,0,0,1,1.7978.8994,3.7964,3.7964,0,0,1,1.1157,1.3769,4.0646,4.0646,0,0,1,.3755,1.753,3.31,3.31,0,0,1-.7969,2.2421,4.8519,4.8519,0,0,1-2.0258,1.377q3.2548,1.002,3.2553,3.8926a4.2342,4.2342,0,0,1-.4213,1.9,4.1079,4.1079,0,0,1-1.2066,1.457,5.7429,5.7429,0,0,1-1.9233.9336A9.3414,9.3414,0,0,1,263.6957,16.7764Zm0-2.8682a3.2215,3.2215,0,0,0,2.0713-.5469,1.8187,1.8187,0,0,0,.66-1.4795,1.9662,1.9662,0,0,0-.7627-1.6269,2.8614,2.8614,0,0,0-3.938,0,1.9658,1.9658,0,0,0-.7622,1.6269,1.7935,1.7935,0,0,0,.6826,1.4795A3.2356,3.2356,0,0,0,263.6957,13.9082Zm0-6.7607a3.4808,3.4808,0,0,0,1.6617-.7168,1.84,1.84,0,0,0,.6372-1.4912,1.5479,1.5479,0,0,0-.6031-1.3321,2.8189,2.8189,0,0,0-1.6958-.4433,2.7735,2.7735,0,0,0-1.6733.4433,1.5468,1.5468,0,0,0-.603,1.3321,1.8551,1.8551,0,0,0,.626,1.4912A3.4,3.4,0,0,0,263.6957,7.1475Z"/><path d="M272.8237,16.5029v-2.959H276.01v2.959l-2.5493,3.6416H271.913Z"/><path d="M285.32,16.7764a7.6062,7.6062,0,0,1-2.6631-.4326,4.7264,4.7264,0,0,1-1.958-1.3545,6.2348,6.2348,0,0,1-1.2178-2.3565,12.2,12.2,0,0,1-.4209-3.414V8.7637a13.7169,13.7169,0,0,1,.478-3.8809,7.2082,7.2082,0,0,1,1.3428-2.6289,5.0816,5.0816,0,0,1,2.06-1.4912,7.1156,7.1156,0,0,1,2.6064-.4668,6.2183,6.2183,0,0,1,3.5737.9336,4.2151,4.2151,0,0,1,1.6616,3.0957h-3.1865a2.0476,2.0476,0,0,0-2.1626-1.1611,3.6918,3.6918,0,0,0-1.2177.1933,2.1888,2.1888,0,0,0-.9791.7061,3.8165,3.8165,0,0,0-.6713,1.3994,10.5135,10.5135,0,0,0-.3189,2.2764,2.7883,2.7883,0,0,1,.7285-.7627,4.1881,4.1881,0,0,1,.9449-.501,5.6117,5.6117,0,0,1,1.07-.2842,6.9975,6.9975,0,0,1,1.1264-.0908,4.9969,4.9969,0,0,1,3.71,1.3086,5.0278,5.0278,0,0,1,1.2974,3.6992v.25a5.5116,5.5116,0,0,1-.4322,2.208,5.1161,5.1161,0,0,1-1.1953,1.7188,5.2427,5.2427,0,0,1-1.832,1.1035A6.8315,6.8315,0,0,1,285.32,16.7764Zm-.2276-2.8682a2.5994,2.5994,0,0,0,1.9234-.6943,2.4193,2.4193,0,0,0,.6943-1.7871v-.2276a2.38,2.38,0,0,0-.6943-1.7754,3.0517,3.0517,0,0,0-3.8472,0,2.38,2.38,0,0,0-.6939,1.7754v.2276a2.4186,2.4186,0,0,0,.6939,1.7871A2.6,2.6,0,0,0,285.0927,13.9082Z"/><path d="M298.9775,16.7764a7.543,7.543,0,0,1-2.5835-.3877,4.9572,4.9572,0,0,1-1.7412-1.0352,4.0888,4.0888,0,0,1-1.0132-1.5029,5.2608,5.2608,0,0,1-.3525-1.7861h3.4145a1.9541,1.9541,0,0,0,.626,1.331,2.36,2.36,0,0,0,1.65.5127q2.5041,0,2.5039-2.8232a3.5087,3.5087,0,0,0-.2046-1.2745,2.2581,2.2581,0,0,0-.5464-.8417,2.0988,2.0988,0,0,0-.7969-.4668,3.0721,3.0721,0,0,0-.956-.1485,2.6631,2.6631,0,0,0-1.32.2959,2.3685,2.3685,0,0,0-.8423.7969h-3.187V.5693h10.38V3.3916h-6.9653V6.3057a2.8607,2.8607,0,0,1,1.1724-.626,5.8071,5.8071,0,0,1,1.5591-.1943,5.9749,5.9749,0,0,1,2.1054.3535,4.252,4.252,0,0,1,1.6162,1.0586,4.7784,4.7784,0,0,1,1.0357,1.7519,7.34,7.34,0,0,1,.3642,2.4131,6.3342,6.3342,0,0,1-.4209,2.3564,5.1444,5.1444,0,0,1-1.1953,1.81,5.21,5.21,0,0,1-1.8662,1.1494A7.0918,7.0918,0,0,1,298.9775,16.7764Z"/><path d="M312.5439,4.4385h3.5508l3.3462,6.5107,3.3462-6.5107h3.4145V16.5029h-2.8682V8.6494l-2.9365,5.4639h-2.0483l-2.9365-5.4639v7.8535h-2.8682Z"/><path d="M329.1147,16.7764c-.1216,0-.273-.0039-.4551-.0118a2.3437,2.3437,0,0,1-.4556-.0566V13.999a1.8584,1.8584,0,0,0,.3418.0225,1.1452,1.1452,0,0,0,.751-.2617,1.9566,1.9566,0,0,0,.5352-.8985,7.7848,7.7848,0,0,0,.3183-1.6963q.1026-1.059.1026-2.6289V4.4385h9.56V16.5029h-3.0049V6.9424H333.03V8.9912a25.5538,25.5538,0,0,1-.2387,3.8584,7.1724,7.1724,0,0,1-.7286,2.3789,2.7651,2.7651,0,0,1-1.229,1.2061A4.0656,4.0656,0,0,1,329.1147,16.7764Z"/><path d="M342.6127,4.4385h3.0049v4.667h5.1441V4.4385h3.0048V16.5029h-3.0048V11.6094h-5.1441v4.8935h-3.0049Z"/><path d="M361.87,4.4385h2.8V6.2139A4.0379,4.0379,0,0,1,366.1035,4.78a4.5855,4.5855,0,0,1,2.4809-.6143,4.8357,4.8357,0,0,1,3.7676,1.49,6.4663,6.4663,0,0,1,1.354,4.4727v.4561a6.7953,6.7953,0,0,1-1.377,4.6543,4.7759,4.7759,0,0,1-3.7446,1.5371,4.3367,4.3367,0,0,1-2.1738-.5352,4.5315,4.5315,0,0,1-1.5361-1.4v6.2149H361.87Zm6.0093,9.7881a2.5387,2.5387,0,0,0,1.98-.8995,4.0376,4.0376,0,0,0,.7969-2.7421v-.4561a3.7066,3.7066,0,0,0-.7739-2.56,2.5793,2.5793,0,0,0-2.0034-.8536,3.1664,3.1664,0,0,0-2.1509.74,2.7758,2.7758,0,0,0-.8535,2.2187V11.04a3.1573,3.1573,0,0,0,.83,2.4014A3.0351,3.0351,0,0,0,367.8789,14.2266Z"/><path d="M377.9858,21.3291a3.5161,3.5161,0,0,1-.6831-.0684v-2.55a3.4475,3.4475,0,0,0,.6831.0684,1.2346,1.2346,0,0,0,1.0581-.5127,8.1017,8.1017,0,0,0,.854-1.7637L374.7988,4.4385h3.3691l3.2778,8.331,3.0044-8.331h3.0957l-4.6435,12.0644q-.501,1.2744-.9443,2.1963a5.9305,5.9305,0,0,1-.99,1.5029,3.3937,3.3937,0,0,1-1.2519.8536A4.8245,4.8245,0,0,1,377.9858,21.3291Z"/><path d="M394.67,16.7764a6.2935,6.2935,0,0,1-2.356-.4326,5.0406,5.0406,0,0,1-1.8779-1.3086,6.1477,6.1477,0,0,1-1.24-2.1631,9.1716,9.1716,0,0,1-.4438-2.9932V9.3555a19.3759,19.3759,0,0,1,.3071-3.6416,7.6417,7.6417,0,0,1,1.0244-2.709,4.9763,4.9763,0,0,1,1.9122-1.7412,7.2119,7.2119,0,0,1,2.9931-.7178q.7053-.0221,1.3887-.0449t1.2973-.0684A8.8449,8.8449,0,0,0,398.79.2842,3.9,3.9,0,0,0,399.6777,0V2.6631a4.2643,4.2643,0,0,1-1.354.3418,26.0529,26.0529,0,0,1-2.9937.1592,6.89,6.89,0,0,0-1.7641.2392,2.9518,2.9518,0,0,0-1.229.6826,3.2272,3.2272,0,0,0-.774,1.2178,7.4115,7.4115,0,0,0-.3984,1.8438,4.1314,4.1314,0,0,1,1.5708-1.6621,5.2072,5.2072,0,0,1,2.7314-.6368,5.8115,5.8115,0,0,1,2.0713.3526,4.5016,4.5016,0,0,1,1.6162,1.0361,4.6492,4.6492,0,0,1,1.0586,1.6846,6.5864,6.5864,0,0,1,.3755,2.3213v.4326a7.0341,7.0341,0,0,1-.4438,2.5722,5.4237,5.4237,0,0,1-1.2407,1.9229,5.3285,5.3285,0,0,1-1.878,1.1953A6.5888,6.5888,0,0,1,394.67,16.7764Zm0-2.55a2.61,2.61,0,0,0,2.1172-.8965,3.87,3.87,0,0,0,.7509-2.5518v-.4541a3.1352,3.1352,0,0,0-.7739-2.2461,3.0793,3.0793,0,0,0-4.1768,0,3.1067,3.1067,0,0,0-.7851,2.2461v.4082a4.7207,4.7207,0,0,0,.2158,1.4756,3.1257,3.1257,0,0,0,.6035,1.1,2.651,2.651,0,0,0,.9107.6807A2.7061,2.7061,0,0,0,394.67,14.2266Z"/><path d="M254.041,40.6514a6.9042,6.9042,0,0,1-5.0284-1.6807,6.379,6.379,0,0,1-1.7158-4.7754v-.4805a6.1021,6.1021,0,0,1,1.7158-4.6074,6.9643,6.9643,0,0,1,5.0284-1.6562v-3.84h2.1118v3.84a6.9626,6.9626,0,0,1,5.0278,1.6562,6.102,6.102,0,0,1,1.7163,4.6074v.4805a6.3789,6.3789,0,0,1-1.7163,4.7754,6.9025,6.9025,0,0,1-5.0278,1.6807v4.56H254.041Zm-4.584-6.4561a4.6473,4.6473,0,0,0,1.1157,3.4317,4.7993,4.7993,0,0,0,3.4922,1.1044v-9.36a4.87,4.87,0,0,0-3.4922,1.08,4.3484,4.3484,0,0,0-1.1157,3.2636Zm11.28-.4805a4.3486,4.3486,0,0,0-1.1162-3.2636,4.8684,4.8684,0,0,0-3.4917-1.08v9.36a4.7975,4.7975,0,0,0,3.4917-1.1044,4.6473,4.6473,0,0,0,1.1162-3.4317Z"/><path d="M271.1767,40.6514a7.0617,7.0617,0,0,1-2.3281-.3838,5.2855,5.2855,0,0,1-1.9439-1.1885,5.8275,5.8275,0,0,1-1.3442-2.0283,7.5307,7.5307,0,0,1-.5039-2.88v-.48a7.1746,7.1746,0,0,1,.48-2.748,5.6772,5.6772,0,0,1,1.2841-1.9444,5.1678,5.1678,0,0,1,1.8716-1.164,6.5836,6.5836,0,0,1,2.2442-.3838,5.8784,5.8784,0,0,1,4.3442,1.5361,5.877,5.877,0,0,1,1.5357,4.3438v1.3437h-9.648a4.4555,4.4555,0,0,0,.36,1.8965,3.5708,3.5708,0,0,0,.936,1.248,3.64,3.64,0,0,0,1.2842.6953,4.85,4.85,0,0,0,1.4282.2168,4.2511,4.2511,0,0,0,2.22-.48,2.6849,2.6849,0,0,0,1.1162-1.32h2.064a4.2864,4.2864,0,0,1-.6841,1.6084,4.4838,4.4838,0,0,1-1.2,1.164,5.4436,5.4436,0,0,1-1.6079.708A7.3676,7.3676,0,0,1,271.1767,40.6514Zm-.12-11.28a5.1029,5.1029,0,0,0-1.44.2041,3.4644,3.4644,0,0,0-1.2363.6475,3.3987,3.3987,0,0,0-.876,1.1162,3.5611,3.5611,0,0,0-.3359,1.6084h7.6563a4.4271,4.4271,0,0,0-.3243-1.668,2.9533,2.9533,0,0,0-.8037-1.1045,3.18,3.18,0,0,0-1.188-.6113A5.3522,5.3522,0,0,0,271.0566,29.3711Z"/><path d="M278.3764,38.5391h1.56a3.638,3.638,0,0,0,.48-1.1036,15.4342,15.4342,0,0,0,.3838-1.7519q.1678-1.0093.252-2.1963t.0845-2.4365V27.6914h8.88V38.5391h1.8v4.872H289.8v-3h-9.4077v3h-2.0161Zm9.5278,0V29.5635h-4.7036v1.9677q0,1.0079-.0722,2.004t-.2159,1.8955q-.1442.9007-.3481,1.7041a9.0282,9.0282,0,0,1-.4678,1.4043Z"/><path d="M299.6166,40.6514a7.0622,7.0622,0,0,1-2.3281-.3838,5.2851,5.2851,0,0,1-1.9438-1.1885A5.8277,5.8277,0,0,1,294,37.0508a7.5307,7.5307,0,0,1-.5039-2.88v-.48a7.1746,7.1746,0,0,1,.48-2.748,5.6774,5.6774,0,0,1,1.2842-1.9444,5.1669,5.1669,0,0,1,1.8716-1.164,6.583,6.583,0,0,1,2.2441-.3838,5.8782,5.8782,0,0,1,4.3442,1.5361,5.8766,5.8766,0,0,1,1.5357,4.3438v1.3437h-9.648a4.4571,4.4571,0,0,0,.36,1.8965,3.572,3.572,0,0,0,.936,1.248,3.64,3.64,0,0,0,1.2842.6953,4.8508,4.8508,0,0,0,1.4282.2168,4.2515,4.2515,0,0,0,2.22-.48,2.6849,2.6849,0,0,0,1.1162-1.32h2.0639a4.2879,4.2879,0,0,1-.684,1.6084,4.4867,4.4867,0,0,1-1.2,1.164,5.4447,5.4447,0,0,1-1.6079.708A7.3684,7.3684,0,0,1,299.6166,40.6514Zm-.12-11.28a5.1022,5.1022,0,0,0-1.44.2041,3.4627,3.4627,0,0,0-1.2363.6475,3.3961,3.3961,0,0,0-.876,1.1162,3.5611,3.5611,0,0,0-.336,1.6084h7.6563a4.4253,4.4253,0,0,0-.3242-1.668,2.9544,2.9544,0,0,0-.8037-1.1045,3.1812,3.1812,0,0,0-1.188-.6113A5.3535,5.3535,0,0,0,299.4965,29.3711Z"/><path d="M308.2558,27.6914h1.9683v2.3994a4.6618,4.6618,0,0,1,1.812-1.956,5.2278,5.2278,0,0,1,2.7-.6836,4.9583,4.9583,0,0,1,3.84,1.5722,6.6965,6.6965,0,0,1,1.44,4.668v.48a9.4433,9.4433,0,0,1-.3843,2.8437,5.6375,5.6375,0,0,1-1.08,2.0166,4.4563,4.4563,0,0,1-1.668,1.212,5.5075,5.5075,0,0,1-2.1479.4082,4.8431,4.8431,0,0,1-2.7241-.7207,4.6969,4.6969,0,0,1-1.6436-1.8v7.08h-2.1123Zm6,11.0879a3.4881,3.4881,0,0,0,1.44-.3,3.2762,3.2762,0,0,0,1.1641-.876,4.13,4.13,0,0,0,.7681-1.44,6.56,6.56,0,0,0,.2759-1.9922v-.48a5.7684,5.7684,0,0,0-.2759-1.8486,4.0575,4.0575,0,0,0-.7681-1.38,3.1979,3.1979,0,0,0-1.1641-.8516,3.6093,3.6093,0,0,0-1.44-.2881,4.38,4.38,0,0,0-1.584.2764,3.5374,3.5374,0,0,0-1.2241.7676,3.6166,3.6166,0,0,0-1.08,2.6035v1.9209a4.2348,4.2348,0,0,0,.2876,1.584,3.48,3.48,0,0,0,2.0161,2.0156A4.2213,4.2213,0,0,0,314.2558,38.7793Z"/><path d="M326.64,40.6514a5.3211,5.3211,0,0,1-1.86-.3,3.9142,3.9142,0,0,1-1.3559-.8282,3.5219,3.5219,0,0,1-.84-1.248,4.2311,4.2311,0,0,1-.2876-1.584,3.2042,3.2042,0,0,1,1.1158-2.7363,5.256,5.256,0,0,1,3.2041-.84h4.1279V32.251a2.8579,2.8579,0,0,0-.7319-2.2559,3.3152,3.3152,0,0,0-2.1958-.624,3.114,3.114,0,0,0-1.9922.5156,1.7592,1.7592,0,0,0-.6958,1.1641h-2.1123a3.2852,3.2852,0,0,1,.42-1.4278,3.6974,3.6974,0,0,1,1.0083-1.14,4.9172,4.9172,0,0,1,1.5239-.7559,6.593,6.593,0,0,1,1.9678-.2763,5.5761,5.5761,0,0,1,3.5884,1.0683,4.2173,4.2173,0,0,1,1.3315,3.4912v5.16q0,1.0078.0122,1.7646a12.6619,12.6619,0,0,0,.1079,1.4756h-1.8476q-.0726-.5521-.0962-1.0439t-.0239-1.1162a4.2536,4.2536,0,0,1-1.6324,1.7041A5.1137,5.1137,0,0,1,326.64,40.6514Zm.456-1.92a4.7362,4.7362,0,0,0,1.4039-.2041,3.5539,3.5539,0,0,0,1.164-.6,2.8278,2.8278,0,0,0,.792-.9717,2.97,2.97,0,0,0,.2881-1.3438v-.8642h-3.7681a3.1919,3.1919,0,0,0-1.8476.4677,1.6741,1.6741,0,0,0-.6724,1.4766,1.8874,1.8874,0,0,0,.6362,1.4639A2.9253,2.9253,0,0,0,327.0956,38.7314Z"/><path d="M335.975,40.6514a3.6688,3.6688,0,0,1-.72-.0723V38.4668a1.9211,1.9211,0,0,0,.36.0244,1.3862,1.3862,0,0,0,.9238-.3359,2.3735,2.3735,0,0,0,.6362-1.1758,12.4413,12.4413,0,0,0,.36-2.28q.12-1.44.12-3.6484V27.6914h9.12v12.72H344.663V29.5635h-4.896v1.9677a33.5671,33.5671,0,0,1-.24,4.4161,10.4707,10.4707,0,0,1-.708,2.7959,2.8774,2.8774,0,0,1-2.8443,1.9082Z"/><path d="M350.6152,27.6914h2.1123v4.8h3.0478a5.0757,5.0757,0,0,1,3.54,1.0557,3.7961,3.7961,0,0,1,1.14,2.9287,3.7343,3.7343,0,0,1-1.14,2.88,5.0757,5.0757,0,0,1-3.54,1.0556h-5.16Zm5.04,10.8477a3.18,3.18,0,0,0,2.0879-.5284,2.3265,2.3265,0,0,0,0-3.1191,3.1806,3.1806,0,0,0-2.0879-.5283h-2.9277v4.1758Z"/><path d="M363.2148,27.6914h2.1123v5.3037h6.5757V27.6914h2.1123v12.72h-2.1123V34.8672h-6.5757v5.5439h-2.1123Z"/><path d="M377.8544,27.6914h2.1123v4.8h2.5679a5.0757,5.0757,0,0,1,3.54,1.0557,3.7961,3.7961,0,0,1,1.14,2.9287,3.7343,3.7343,0,0,1-1.14,2.88,5.0757,5.0757,0,0,1-3.54,1.0556h-4.68Zm4.56,10.8477a3.18,3.18,0,0,0,2.0879-.5284,2.3265,2.3265,0,0,0,0-3.1191,3.1806,3.1806,0,0,0-2.0879-.5283h-2.4478v4.1758Zm6.7681-10.8477h2.1118v12.72h-2.1118Z"/><path d="M395.1342,27.6914h2.1123v9.6l6.5757-9.6h2.1123v12.72h-2.1123v-9.6l-6.5757,9.6h-2.1123Zm5.4-1.5605a3.9222,3.9222,0,0,1-2.7358-.8038,3.0076,3.0076,0,0,1-.8638-2.3164h2.064q0,1.6334,1.5356,1.6329a1.4219,1.4219,0,0,0,1.584-1.6329h2.0161a3.01,3.01,0,0,1-.8637,2.3164A3.9237,3.9237,0,0,1,400.5341,26.1309Z"/><path d="M421.0541,40.6514a5.8034,5.8034,0,0,1-2.3642-.48,5.3347,5.3347,0,0,1-1.896-1.4033,6.8326,6.8326,0,0,1-1.272-2.2686,9.2362,9.2362,0,0,1-.4678-3.0478v-.48a21.3389,21.3389,0,0,1,.3121-3.8516,8.0193,8.0193,0,0,1,1.0678-2.88,5.3575,5.3575,0,0,1,1.9917-1.86,7.2555,7.2555,0,0,1,3.1084-.7676q1.5117-.0717,2.64-.1318a4.7055,4.7055,0,0,0,1.92-.4688v2.04a4.1357,4.1357,0,0,1-1.4043.3359q-1.02.1216-2.7959.168a7.6252,7.6252,0,0,0-2.0278.2881,3.6841,3.6841,0,0,0-1.4883.8408,3.912,3.912,0,0,0-.96,1.5,8.11,8.11,0,0,0-.4438,2.2676,4.517,4.517,0,0,1,1.7758-2.0157,5.174,5.174,0,0,1,2.7842-.7441,5.7452,5.7452,0,0,1,2.232.42,5.0755,5.0755,0,0,1,1.74,1.1875,5.3718,5.3718,0,0,1,1.14,1.8848,7.2625,7.2625,0,0,1,.4082,2.5078v.48a7.4254,7.4254,0,0,1-.456,2.6758,6.2435,6.2435,0,0,1-1.2481,2.04,5.3314,5.3314,0,0,1-1.896,1.3086A6.2321,6.2321,0,0,1,421.0541,40.6514Zm0-1.92a3.5965,3.5965,0,0,0,2.76-1.164,4.8222,4.8222,0,0,0,1.08-3.3965v-.48a4.6309,4.6309,0,0,0-.2881-1.6807,3.9456,3.9456,0,0,0-.792-1.2832,3.364,3.364,0,0,0-1.2119-.8281,4.3034,4.3034,0,0,0-3.0962,0,3.36,3.36,0,0,0-1.2119.8281,3.9456,3.9456,0,0,0-.792,1.2832,4.6309,4.6309,0,0,0-.2881,1.6807v.48a5.711,5.711,0,0,0,.3,1.9082,4.2236,4.2236,0,0,0,.8276,1.44,3.5895,3.5895,0,0,0,2.7124,1.2119Z"/><path d="M430.0537,27.6914h2.1123v5.3037h1.8a6.5515,6.5515,0,0,1,.6-2.4121,5.5064,5.5064,0,0,1,1.2837-1.74,5.2205,5.2205,0,0,1,1.788-1.044,6.79,6.79,0,0,1,4.4283.0479,5.1936,5.1936,0,0,1,1.86,1.1767,5.6035,5.6035,0,0,1,1.26,1.9561,7.2953,7.2953,0,0,1,.4683,2.7119v.48a7.9755,7.9755,0,0,1-.4683,2.8564,5.7785,5.7785,0,0,1-1.26,2.0274,5.0215,5.0215,0,0,1-1.86,1.2,6.807,6.807,0,0,1-4.44.0478,5.0008,5.0008,0,0,1-1.8-1.0673,5.5,5.5,0,0,1-1.2719-1.8125,7.3479,7.3479,0,0,1-.5879-2.5557h-1.8v5.5439h-2.1123Zm9.72,11.04a3.9343,3.9343,0,0,0,1.3921-.2519,3.1763,3.1763,0,0,0,1.1879-.792,3.9407,3.9407,0,0,0,.8277-1.4043,6.2582,6.2582,0,0,0,.312-2.1123v-.48a5.5261,5.5261,0,0,0-.312-1.9687,3.8857,3.8857,0,0,0-.8277-1.3438,3.1141,3.1141,0,0,0-1.1879-.7676,4.1541,4.1541,0,0,0-2.7842,0,3.1062,3.1062,0,0,0-1.188.7676,3.88,3.88,0,0,0-.8281,1.3438,5.5261,5.5261,0,0,0-.312,1.9687v.48a6.2582,6.2582,0,0,0,.312,2.1123,3.9354,3.9354,0,0,0,.8281,1.4043,3.168,3.168,0,0,0,1.188.792A3.9319,3.9319,0,0,0,439.7739,38.7314Z"/><path d="M447.2133,38.5391h1.56a3.6378,3.6378,0,0,0,.48-1.1036,15.4777,15.4777,0,0,0,.3838-1.7519q.1677-1.0093.2519-2.1963t.0845-2.4365V27.6914h8.88V38.5391h1.8v4.872h-2.0161v-3h-9.4078v3h-2.0161Zm9.5279,0V29.5635h-4.7037v1.9677q0,1.0079-.0722,2.004t-.2158,1.8955q-.1443.9007-.3482,1.7041a9.0282,9.0282,0,0,1-.4678,1.4043Z"/><path d="M466.6533,33.8594l-4.56-6.168h2.3521l3.8881,5.3281h1.4639V27.6914h2.1118V33.02h1.44l3.96-5.3281h2.3037l-4.56,6.0957,4.8,6.624h-2.4961L473.35,34.8428h-1.44v5.5683h-2.1118V34.8428h-1.4639l-4.0322,5.5683h-2.4477Z"/><path d="M487.6533,40.6514a7.0628,7.0628,0,0,1-2.3282-.3838,5.2859,5.2859,0,0,1-1.9438-1.1885,5.8261,5.8261,0,0,1-1.3442-2.0283,7.5288,7.5288,0,0,1-.504-2.88v-.48a7.1746,7.1746,0,0,1,.48-2.748,5.6789,5.6789,0,0,1,1.2842-1.9444,5.1678,5.1678,0,0,1,1.8716-1.164,6.5835,6.5835,0,0,1,2.2441-.3838,5.8784,5.8784,0,0,1,4.3443,1.5361,5.877,5.877,0,0,1,1.5356,4.3438v1.3437H483.645a4.4571,4.4571,0,0,0,.36,1.8965,3.5722,3.5722,0,0,0,.9361,1.248,3.6391,3.6391,0,0,0,1.2841.6953,4.851,4.851,0,0,0,1.4283.2168,4.2514,4.2514,0,0,0,2.22-.48,2.6849,2.6849,0,0,0,1.1162-1.32h2.064a4.29,4.29,0,0,1-.6841,1.6084,4.4838,4.4838,0,0,1-1.2,1.164,5.4447,5.4447,0,0,1-1.6079.708A7.3682,7.3682,0,0,1,487.6533,40.6514Zm-.12-11.28a5.1027,5.1027,0,0,0-1.44.2041,3.4636,3.4636,0,0,0-1.2363.6475,3.3961,3.3961,0,0,0-.876,1.1162,3.5611,3.5611,0,0,0-.3359,1.6084h7.6562a4.4253,4.4253,0,0,0-.3242-1.668,2.9544,2.9544,0,0,0-.8037-1.1045,3.18,3.18,0,0,0-1.188-.6113A5.353,5.353,0,0,0,487.5331,29.3711Z"/><path d="M499.1972,29.5635H494.853V27.6914h10.8v1.8721H501.309V40.4111h-2.1118Z"/><path class="cls-1" d="M251.6035,225.0156q-23.4583-13.3047-46.9165-26.61"/><path class="cls-2" d="M259.6035,138.0156h-41"/><path class="cls-2" d="M214.6035,31.0156l-37,32"/><path class="cls-3" d="M199.3029,221.7926A113.5809,113.5809,0,1,1,202.467,76.5654l-37.3314,29.6988A65.8762,65.8762,0,1,0,163.3,190.496Z"/><path class="cls-4" d="M204.5434,83.648a99.152,99.152,0,0,1,15.6871,95.3432l-39.1778-14.1181a57.5078,57.5078,0,0,0-9.0985-55.299Z"/><path class="cls-5" d="M219.2082,184.3137a99.1528,99.1528,0,0,1-18.4492,31.4351L169.33,188.4281a57.5067,57.5067,0,0,0,10.7006-18.2324Z"/></g></svg>