<svg width="1629" height="1514" viewBox="0 0 1629 1514" fill="none" xmlns="http://www.w3.org/2000/svg">
<path d="M1524.21 759.873H1581.16C1607.41 759.873 1628.68 738.596 1628.68 712.348V592.874C1628.68 566.628 1607.41 545.35 1581.16 545.35H1524.21V759.873Z" fill="#8FA9DD"/>
<path d="M326.657 403.156C320.216 403.156 313.939 400.055 310.077 394.427L125.417 125.215C119.141 116.068 121.471 103.562 130.621 97.2816C139.769 91.0016 152.276 93.335 158.553 102.482L333.24 357.159L1030.25 2.18826C1040.13 -2.83841 1052.22 1.09497 1057.26 10.975C1062.3 20.8683 1058.37 32.9615 1048.48 38.0016L335.763 400.966C332.853 402.447 329.737 403.156 326.657 403.156Z" fill="#D4E0F4"/>
<path d="M104.484 764.783V1193.83H66.3374C29.7054 1193.83 0 1164.13 0 1127.53V831.087C0 794.488 29.7054 764.783 66.3374 764.783H104.484Z" fill="#D4E0F4"/>
<path d="M104.484 1193.83H66.3374C29.7054 1193.83 0 1164.13 0 1127.53V831.087C0 794.488 29.7054 764.783 66.3374 764.783C66.3374 764.783 13.0493 787.947 13.0493 833.052C13.0493 878.157 33.056 1104.43 33.8614 1125.53C34.6667 1146.63 56.1573 1191.61 104.484 1193.83Z" fill="#8FA9DD"/>
<path d="M1575.12 523.274V1440.24C1575.12 1469.59 1551.3 1493.4 1521.96 1493.4H133.545C104.161 1493.4 80.3853 1469.59 80.3853 1440.24V523.274C80.3853 499.335 96.2359 479.071 118.016 472.434C118.016 472.434 118.016 472.434 118.048 472.402C122.945 470.919 128.164 470.114 133.545 470.114H1521.96C1551.3 470.114 1575.12 493.923 1575.12 523.274Z" fill="url(#paint0_linear_623_391)"/>
<path d="M1535.6 1513.04H119.885V1493.4H1535.6V1513.04Z" fill="#D4E0F4"/>
<path d="M758.084 981.758C758.084 1128.22 639.352 1246.95 492.889 1246.95C346.425 1246.95 227.695 1128.22 227.695 981.758C227.695 835.294 346.425 716.564 492.889 716.564C639.352 716.564 758.084 835.294 758.084 981.758Z" fill="#D4E0F4"/>
<path d="M731.305 981.759C731.305 1113.43 624.563 1220.18 492.889 1220.18C361.215 1220.18 254.471 1113.43 254.471 981.759C254.471 850.084 361.215 743.342 492.889 743.342C624.563 743.342 731.305 850.084 731.305 981.759Z" fill="#0132C8"/>
<path d="M1472.4 772.818H855.45C840.143 772.818 827.74 760.414 827.74 745.112V562.118C827.74 546.816 840.143 534.412 855.45 534.412H1472.4C1487.7 534.412 1500.1 546.816 1500.1 562.118V745.112C1500.1 760.414 1487.7 772.818 1472.4 772.818Z" fill="#8FA9DD"/>
<path d="M1440.25 746.031H887.596C872.289 746.031 859.889 733.626 859.889 718.325V588.905C859.889 573.602 872.289 561.198 887.596 561.198H1440.25C1455.56 561.198 1467.96 573.602 1467.96 588.905V718.325C1467.96 733.626 1455.56 746.031 1440.25 746.031Z" fill="#F8FAFD"/>
<path d="M1009.61 746.031H994.116V602.718H1009.61V746.031Z" fill="#0132C8"/>
<path d="M1467.96 680.164H859.889V667.247H1467.96V680.164Z" fill="#00CB32"/>
<path d="M1174.64 746.031H1161.25V692.457H1174.64V746.031Z" fill="#0132C8"/>
<path d="M1343.4 746.031H1330.01V692.457H1343.4V746.031Z" fill="#0132C8"/>
<path d="M1524.21 459.932V470.113H119.884V459.932C119.884 432.999 141.696 411.187 168.63 411.187H1475.5C1502.4 411.187 1524.21 432.999 1524.21 459.932Z" fill="#D4E0F4"/>
<path d="M160.401 411.189V354.936H492.889V411.189H160.401Z" fill="#8FA9DD"/>
<path d="M650.933 981.759C650.933 1069.05 580.175 1139.8 492.889 1139.8C405.603 1139.8 334.843 1069.05 334.843 981.759C334.843 894.473 405.603 823.714 492.889 823.714C580.175 823.714 650.933 894.473 650.933 981.759Z" fill="#4897F3"/>
<path d="M915.463 887.398V937.946C915.463 945.526 909.303 951.686 901.73 951.686H870.25C862.676 951.686 856.543 945.526 856.543 937.946V887.398H915.463Z" fill="#0132C8"/>
<path d="M915.463 837.456V888.004H856.543V837.456C856.543 829.875 862.676 823.713 870.25 823.713H901.73C909.303 823.713 915.463 829.875 915.463 837.456Z" fill="#4897F3"/>
<path d="M1026.64 887.398V937.946C1026.64 945.526 1020.48 951.686 1012.89 951.686H981.423C973.836 951.686 967.703 945.526 967.703 937.946V887.398H1026.64Z" fill="#8FA9DD"/>
<path d="M1026.64 837.456V888.004H967.703V837.456C967.703 829.875 973.836 823.713 981.423 823.713H1012.89C1020.48 823.713 1026.64 829.875 1026.64 837.456Z" fill="#D4E0F4"/>
<path d="M1137.81 887.398V937.946C1137.81 945.526 1131.64 951.686 1124.06 951.686H1092.61C1085.01 951.686 1078.88 945.526 1078.88 937.946V887.398H1137.81Z" fill="#0132C8"/>
<path d="M1137.81 837.456V888.004H1078.88V837.456C1078.88 829.875 1085.01 823.713 1092.61 823.713H1124.06C1131.64 823.713 1137.81 829.875 1137.81 837.456Z" fill="#4897F3"/>
<path d="M1248.97 887.398V937.946C1248.97 945.526 1242.84 951.686 1235.24 951.686H1203.78C1196.2 951.686 1190.04 945.526 1190.04 937.946V887.398H1248.97Z" fill="#8FA9DD"/>
<path d="M1248.97 837.456V888.004H1190.04V837.456C1190.04 829.875 1196.2 823.713 1203.78 823.713H1235.24C1242.84 823.713 1248.97 829.875 1248.97 837.456Z" fill="#D4E0F4"/>
<path d="M1360.14 887.398V937.946C1360.14 945.526 1354.01 951.686 1346.42 951.686H1314.94C1307.37 951.686 1301.21 945.526 1301.21 937.946V887.398H1360.14Z" fill="#0132C8"/>
<path d="M1360.14 837.456V888.004H1301.21V837.456C1301.21 829.875 1307.37 823.713 1314.94 823.713H1346.42C1354.01 823.713 1360.14 829.875 1360.14 837.456Z" fill="#4897F3"/>
<path d="M1471.3 887.398V937.946C1471.3 945.526 1465.17 951.686 1457.6 951.686H1426.12C1418.53 951.686 1412.37 945.526 1412.37 937.946V887.398H1471.3Z" fill="#8FA9DD"/>
<path d="M1471.3 837.456V888.004H1412.37V837.456C1412.37 829.875 1418.53 823.713 1426.12 823.713H1457.6C1465.17 823.713 1471.3 829.875 1471.3 837.456Z" fill="#D4E0F4"/>
<path d="M1093.41 1223.61L1078.26 1188.49C1082.74 1177.92 1085.24 1166.3 1085.24 1154.09C1085.24 1105.46 1045.81 1066.03 997.169 1066.03C948.529 1066.03 909.103 1105.46 909.103 1154.09C909.103 1202.73 948.529 1242.15 997.169 1242.15C1013.34 1242.15 1028.48 1237.78 1041.49 1230.18L1084.14 1235.85C1090.94 1236.75 1096.13 1229.9 1093.41 1223.61Z" fill="#D4E0F4"/>
<path d="M1074.73 1209.46L1062.66 1181.49C1066.24 1173.07 1068.22 1163.81 1068.22 1154.09C1068.22 1115.35 1036.81 1083.95 998.076 1083.95C959.342 1083.95 927.942 1115.35 927.942 1154.09C927.942 1192.83 959.342 1224.23 998.076 1224.23C1010.96 1224.23 1023.01 1220.75 1033.38 1214.69L1067.34 1219.21C1072.76 1219.93 1076.89 1214.47 1074.73 1209.46Z" fill="#8FA9DD"/>
<path d="M1397.4 1060.26L1362.76 1076.46C1352.06 1072.29 1340.36 1070.15 1328.16 1070.52C1279.54 1071.98 1241.32 1112.58 1242.78 1161.19C1244.25 1209.8 1284.84 1248.03 1333.45 1246.57C1382.06 1245.11 1420.29 1204.51 1418.84 1155.9C1418.34 1139.74 1413.52 1124.74 1405.53 1111.95L1409.92 1069.16C1410.61 1062.34 1403.61 1057.36 1397.4 1060.26Z" fill="#D4E0F4"/>
<path d="M1383.32 1080.06L1355.98 1092.84C1347.54 1089.55 1338.32 1087.86 1328.69 1088.15C1290.33 1089.31 1260.17 1121.33 1261.33 1159.69C1262.48 1198.05 1294.52 1228.21 1332.86 1227.06C1371.22 1225.9 1401.38 1193.87 1400.24 1155.51C1399.85 1142.77 1396.04 1130.93 1389.73 1120.84L1393.2 1087.07C1393.74 1081.69 1388.22 1077.77 1383.32 1080.06Z" fill="#8FA9DD"/>
<path d="M1468.25 1460.07H187.228C177.505 1460.07 169.623 1452.19 169.623 1442.47V1375.56C169.623 1365.84 177.505 1357.96 187.228 1357.96H1468.25C1477.97 1357.96 1485.86 1365.84 1485.86 1375.56V1442.47C1485.86 1452.19 1477.97 1460.07 1468.25 1460.07Z" fill="#D4E0F4"/>
<path d="M1452.86 1386.6H201.792C198.353 1386.6 195.565 1383.81 195.565 1380.37C195.565 1376.93 198.353 1374.15 201.792 1374.15H1452.86C1456.3 1374.15 1459.09 1376.93 1459.09 1380.37C1459.09 1383.81 1456.3 1386.6 1452.86 1386.6Z" fill="#8FA9DD"/>
<path d="M1452.86 1414.83H201.792C198.353 1414.83 195.565 1412.04 195.565 1408.6C195.565 1405.16 198.353 1402.37 201.792 1402.37H1452.86C1456.3 1402.37 1459.09 1405.16 1459.09 1408.6C1459.09 1412.04 1456.3 1414.83 1452.86 1414.83Z" fill="#8FA9DD"/>
<path d="M1452.86 1443.05H201.792C198.353 1443.05 195.565 1440.27 195.565 1436.83C195.565 1433.39 198.353 1430.6 201.792 1430.6H1452.86C1456.3 1430.6 1459.09 1433.39 1459.09 1436.83C1459.09 1440.27 1456.3 1443.05 1452.86 1443.05Z" fill="#8FA9DD"/>
<path d="M492.889 1095.61C488.451 1095.61 484.852 1092.01 484.852 1087.57V881.305C484.852 876.868 488.451 873.271 492.889 873.271C497.327 873.271 500.924 876.868 500.924 881.305V1087.57C500.924 1092.01 497.327 1095.61 492.889 1095.61Z" fill="#D4E0F4"/>
<path d="M566.564 1061.49C562.388 1061.49 559.003 1058.11 559.003 1053.93V910.773C559.003 906.598 562.388 903.213 566.564 903.213C570.74 903.213 574.126 906.598 574.126 910.773V1053.93C574.126 1058.11 570.74 1061.49 566.564 1061.49Z" fill="#D4E0F4"/>
<path d="M415.216 1062.98C411.039 1062.98 407.655 1059.6 407.655 1055.42V912.264C407.655 908.088 411.039 904.703 415.216 904.703C419.392 904.703 422.777 908.088 422.777 912.264V1055.42C422.777 1059.6 419.392 1062.98 415.216 1062.98Z" fill="#D4E0F4"/>
<path d="M391.108 585.467V602.557C391.108 630.764 368.257 653.613 340.051 653.613H289.155V534.411H340.051C368.257 534.411 391.108 557.26 391.108 585.467Z" fill="#D4E0F4"/>
<path d="M289.367 534.411V653.613H238.472C210.264 653.613 187.415 630.764 187.415 602.557V585.467C187.415 557.26 210.264 534.411 238.472 534.411H289.367Z" fill="#8FA9DD"/>
<path d="M967.116 470.113H119.884V459.932C119.884 432.999 141.696 411.187 168.63 411.187C168.63 411.187 147.785 431.323 147.785 450.717C147.785 469.811 942.289 470.108 967.116 470.113Z" fill="#8FA9DD"/>
<path d="M243.023 1493.4H133.545C104.161 1493.4 80.3853 1469.59 80.3853 1440.24V523.274C80.3853 499.335 96.2359 479.071 118.016 472.434C113.892 478.266 104.484 495.759 104.484 534.422V1430.6C104.484 1460.21 127.036 1493.4 243.023 1493.4Z" fill="#01589B"/>
<path d="M83.4277 873.462L98.0824 870.204L99.4304 879.387L89.0837 883.379L83.4277 873.462Z" fill="#F14742"/>
<path d="M106.78 853.33C106.78 853.33 106.697 851.086 108.525 851.004C110.353 850.92 109.523 854.16 110.603 855.656C111.683 857.152 111.683 857.152 111.683 857.152C111.683 857.152 109.523 856.986 109.231 855.24C108.941 853.496 109.191 850.588 106.78 853.33Z" fill="#EEA48F"/>
<defs>
<linearGradient id="paint0_linear_623_391" x1="-336" y1="2212" x2="1575" y2="356" gradientUnits="userSpaceOnUse">
<stop stop-color="#0032C8"/>
<stop offset="0.13" stop-color="#003DBB"/>
<stop offset="0.38" stop-color="#00599A"/>
<stop offset="0.7" stop-color="#00906D"/>
<stop offset="1" stop-color="#00C832"/>
</linearGradient>
</defs>
</svg>
