<svg id="Layer_1" data-name="Layer 1" xmlns="http://www.w3.org/2000/svg" viewBox="0 0 194.04 213.61"><defs><style>.cls-1{fill:#6e7c7c;}.cls-2{fill:#aebdb6;}.cls-3{fill:#ddf2eb;}.cls-4{fill:#dadbdd;}.cls-5{fill:#abbcb4;}.cls-6{fill:#455066;}.cls-7{fill:#485067;}.cls-8{fill:#020400;}.cls-9{fill:#5b5f6a;}.cls-10{fill:#808388;}.cls-11{fill:#6fc5ff;}.cls-12{fill:#b2a06e;}.cls-13{fill:#fdea9d;}.cls-14{fill:#65586a;}.cls-15{fill:#ffffb7;}.cls-16{fill:#423745;}.cls-17{fill:#f9d401;}</style></defs><path class="cls-1" d="M180.88,45.47,162.14,32.91c-7.65-4.43-18.23-3.8-29.92,3L12.85,105.53C5.79,109.6,0,119.62,0,127.77v65.44c0,4.09,1.46,7,3.8,8.31l19.46,11.19Z"/><path class="cls-2" d="M180.88,45.47,162.14,32.91c-7.65-4.43-18.23-3.8-29.92,3L12.85,105.53C8.48,117.36,29.29,120,29.29,120Z"/><path class="cls-3" d="M151.77,47.1c-3.9,2.25-119.37,70.68-119.37,70.68-7.07,4.07-12.84,14.09-12.84,22.25v64.42c0,8.17,5.77,11.5,12.84,7.42,0,0,115.47-64.91,119.37-67.16C179.54,128.68,194,102,194,75S175.12,33.62,151.77,47.1Z"/><path class="cls-4" d="M66.5,77.29,30.65,109.51a3.91,3.91,0,0,1-5.5-.27h0a3.92,3.92,0,0,1,.27-5.55L61.23,71.52Z"/><path class="cls-5" d="M64.54,77.52a6.16,6.16,0,0,1-3.73-4.08c-.37-1.73.68-2.69,2.37-2.16a6.11,6.11,0,0,1,3.72,4.09C67.28,77.09,66.23,78.05,64.54,77.52Z"/><path class="cls-4" d="M94.29,50.29,65.75,76.44a1.34,1.34,0,0,1-1.38.16,4.32,4.32,0,0,1-2.65-2.9A1.36,1.36,0,0,1,62,72.33L90.54,46.18Z"/><path class="cls-5" d="M92.9,50.46a4.34,4.34,0,0,1-2.64-2.91c-.27-1.22.47-1.91,1.68-1.53a4.37,4.37,0,0,1,2.64,2.91C94.85,50.16,94.1,50.84,92.9,50.46Z"/><path class="cls-4" d="M115.17,29.75l-21.37,20a1,1,0,0,1-1,.12,3.14,3.14,0,0,1-1.92-2.11,1,1,0,0,1,.21-1l21.37-19.95Z"/><path class="cls-5" d="M114.16,29.87a3.19,3.19,0,0,1-1.92-2.11c-.19-.89.35-1.39,1.22-1.11a3.12,3.12,0,0,1,1.92,2.11C115.58,29.65,115,30.15,114.16,29.87Z"/><path class="cls-4" d="M140.69,5.28,114.81,29.21a.65.65,0,0,1-.68.08,2.12,2.12,0,0,1-1.32-1.44.67.67,0,0,1,.15-.68L138.83,3.24Z"/><path class="cls-5" d="M140,5.36a2.14,2.14,0,0,1-1.32-1.44c-.13-.6.24-.94.83-.76a2.18,2.18,0,0,1,1.32,1.44C141,5.21,140.6,5.55,140,5.36Z"/><path class="cls-6" d="M142.4,5.64a3.24,3.24,0,1,1,.21-4.58A3.23,3.23,0,0,1,142.4,5.64Z"/><path class="cls-7" d="M189.06,74.37c0,23.78-16.7,52.7-37.29,64.59s-37.28,2.24-37.28-21.53,16.69-52.69,37.28-64.58S189.06,50.6,189.06,74.37Z"/><path class="cls-8" d="M185.52,76.41c0,21.53-15.11,47.7-33.74,58.46-10,5.78-19,5.94-25.17,1.52,6,2.73,13.85,1.93,22.49-3.06,18.64-10.76,33.75-36.93,33.75-58.47,0-10-3.24-17.18-8.58-21C181.18,57,185.52,64.87,185.52,76.41Z"/><path class="cls-8" d="M182.85,74.86c0,21.54-15.11,47.71-33.75,58.47-8.64,5-16.53,5.79-22.49,3.06-5.34-3.81-8.59-11-8.59-21,0-21.51,15.11-47.69,33.76-58.45,8.64-5,16.52-5.78,22.49-3.07C179.61,57.68,182.85,64.9,182.85,74.86Z"/><path class="cls-9" d="M167.75,86.45c0,10.19-7.14,22.58-16,27.68s-16,1-16-9.23,7.15-22.58,16-27.68S167.75,76.26,167.75,86.45Z"/><path class="cls-10" d="M159.42,91.26a16.91,16.91,0,0,1-7.64,13.25c-4.23,2.43-7.65.46-7.65-4.42a16.89,16.89,0,0,1,7.65-13.25C156,84.41,159.42,86.38,159.42,91.26Z"/><path class="cls-7" d="M153.07,135.28a.9.9,0,0,1,.9-.07,63.74,63.74,0,0,0,9.17-7.64,1,1,0,0,1-.27-.76,2.77,2.77,0,0,1,1.29-2.2c.65-.37,1.19-.11,1.27.56q2.58-2.81,4.93-5.91c-.49.06-.83-.29-.83-.92a2.8,2.8,0,0,1,1.29-2.21c.71-.39,1.27-.06,1.29.74q2.17-3.11,4.1-6.39a1.79,1.79,0,0,1,0-.24,2.8,2.8,0,0,1,1.29-2.21l.15-.06c.48-.9.94-1.8,1.39-2.71-.37-.05-.61-.38-.61-.92a2.8,2.8,0,0,1,1.29-2.21,1,1,0,0,1,.85-.1c.34-.76.67-1.53,1-2.3-.53.11-.92-.24-.91-.91a2.8,2.8,0,0,1,1.29-2.21.93.93,0,0,1,.87-.09c.33-.89.63-1.79.92-2.68-.5.08-.87-.27-.86-.92a2.8,2.8,0,0,1,1.29-2.21,1.17,1.17,0,0,1,.56-.16c.23-.8.43-1.6.63-2.4a1,1,0,0,1-.27-.75,2.83,2.83,0,0,1,.84-1.84,62.07,62.07,0,0,0,.95-6.62,2.05,2.05,0,0,1-.5.39c-.71.4-1.29,0-1.29-.77a2.84,2.84,0,0,1,1.3-2.21,1.06,1.06,0,0,1,.66-.15c0-.61,0-1.22,0-1.83a41.65,41.65,0,0,0-.23-4.26,2.17,2.17,0,0,1-.48.38c-.71.4-1.29.05-1.29-.77a2.84,2.84,0,0,1,1.3-2.21l.12-.06a27,27,0,0,0-3.06-9,.82.82,0,0,1-.57-.92h0a20.59,20.59,0,0,0-1.5-2c-.4,0-.68-.3-.71-.81A16.05,16.05,0,0,0,174,50.61a2.66,2.66,0,0,1-1,1.09c-.72.4-1.3,0-1.29-.77a2.37,2.37,0,0,1,.19-.84,19.11,19.11,0,0,0-3.52-.33c-.34,0-.69,0-1,0a2.72,2.72,0,0,1-1,1.16c-.72.39-1.29,0-1.29-.77,0-.06,0-.12,0-.17-.76.11-1.54.25-2.32.44a.87.87,0,0,1,.44.86,2.77,2.77,0,0,1-1.29,2.21c-.72.4-1.29.06-1.29-.77a2.75,2.75,0,0,1,1-2,38.46,38.46,0,0,0-8.92,3.82,60,60,0,0,0-11.83,9.13,1.28,1.28,0,0,1,.09.5,2.77,2.77,0,0,1-1.29,2.21c-.54.31-1,.18-1.2-.27-1.65,1.78-3.25,3.66-4.77,5.62.36.06.61.39.61.92a2.84,2.84,0,0,1-1.3,2.21c-.63.35-1.15.12-1.26-.5-1.46,2-2.83,4.14-4.11,6.29,0,0,0,.07,0,.1a2.79,2.79,0,0,1-1.3,2.21l0,0c-.5.91-1,1.82-1.46,2.75.35.06.59.39.59.92a2.79,2.79,0,0,1-1.3,2.21.92.92,0,0,1-.85.09c-.35.77-.69,1.54-1,2.32.54-.14,1,.21,1,.9a2.79,2.79,0,0,1-1.3,2.21.9.9,0,0,1-.93.06c-.34.91-.67,1.82-1,2.73.57-.16,1,.19,1,.9a2.79,2.79,0,0,1-1.3,2.21,1,1,0,0,1-.7.14c-.22.77-.43,1.54-.62,2.32a.89.89,0,0,1,.4.85,2.81,2.81,0,0,1-1.07,2,61.54,61.54,0,0,0-1,6.86,2.56,2.56,0,0,1,.82-.82c.71-.4,1.29,0,1.29.77a2.8,2.8,0,0,1-1.29,2.21.87.87,0,0,1-1,0c0,.91-.08,1.82-.08,2.72,0,.14,0,.26,0,.4a1.12,1.12,0,0,1,.12.55,2,2,0,0,1-.09.53c0,.86.08,1.7.16,2.52a2.59,2.59,0,0,1,.86-.88c.71-.4,1.29-.05,1.29.77a2.8,2.8,0,0,1-1.29,2.21,1.22,1.22,0,0,1-.59.16,31.2,31.2,0,0,0,1.34,5.56c.33.09.54.41.54.91a2.71,2.71,0,0,1-.06.38c.31.75.65,1.47,1,2.16.7-.38,1.27,0,1.27.78a2.38,2.38,0,0,1-.24.95c.31.48.64.94,1,1.37.07,0,.12-.11.19-.15.71-.39,1.29,0,1.29.77a2.32,2.32,0,0,1-.19.83,18.28,18.28,0,0,0,1.84,1.58.62.62,0,0,1,.41.3,16,16,0,0,0,4.29,2.09,2.79,2.79,0,0,1,1.24-1.88c.71-.4,1.29-.05,1.29.77a2.73,2.73,0,0,1-.63,1.59,19,19,0,0,0,3.6.35c.37,0,.76,0,1.15,0a2.8,2.8,0,0,1,1.25-1.92c.71-.4,1.29,0,1.29.77a2.44,2.44,0,0,1-.23.92,32.86,32.86,0,0,0,9.11-2.93,2.56,2.56,0,0,1,.93-1,.83.83,0,0,1,1,0c.38-.21.77-.4,1.15-.63l1.28-.77A2.73,2.73,0,0,1,153.07,135.28Zm0-5.86c-.71.4-1.29.05-1.29-.77a2.79,2.79,0,0,1,1.3-2.21c.71-.39,1.29,0,1.28.77A2.8,2.8,0,0,1,153.06,129.42Zm-23.49-23.24a2.81,2.81,0,0,1,1.3-2.21c.71-.4,1.29,0,1.29.77a2.79,2.79,0,0,1-1.3,2.21C130.15,107.35,129.57,107,129.57,106.18Zm.37,4.46a2.79,2.79,0,0,1-1.3,2.21c-.71.39-1.29.05-1.28-.77a2.77,2.77,0,0,1,1.29-2.21C129.36,109.47,129.94,109.82,129.94,110.64Zm3.15-3.35c.71-.4,1.29-.05,1.29.77a2.79,2.79,0,0,1-1.3,2.21c-.71.4-1.29,0-1.29-.77A2.84,2.84,0,0,1,133.09,107.29Zm41.24-22.43A2.8,2.8,0,0,1,173,87.07c-.72.39-1.29.05-1.29-.77A2.77,2.77,0,0,1,173,84.09C173.76,83.69,174.33,84,174.33,84.86ZM174,80.4a2.8,2.8,0,0,1,1.29-2.21c.72-.4,1.29,0,1.29.77a2.8,2.8,0,0,1-1.29,2.21C174.54,81.57,174,81.22,174,80.4Zm-3.15,3.35c-.72.39-1.29,0-1.29-.77a2.77,2.77,0,0,1,1.29-2.21c.72-.4,1.29-.06,1.29.77A2.8,2.8,0,0,1,170.82,83.75Zm-27.93,14.7a2.76,2.76,0,0,1,1.3-2.21c.71-.4,1.29-.06,1.29.77a2.84,2.84,0,0,1-1.3,2.21C143.47,99.61,142.89,99.27,142.89,98.45Zm.37,4.45a2.78,2.78,0,0,1-1.3,2.21c-.71.4-1.29.06-1.29-.77a2.79,2.79,0,0,1,1.3-2.21C142.68,101.74,143.26,102.08,143.26,102.9Zm3.15-3.34c.71-.4,1.29-.06,1.29.77a2.84,2.84,0,0,1-1.3,2.21c-.71.39-1.29,0-1.29-.78A2.75,2.75,0,0,1,146.41,99.56Zm.92-3.69a2.76,2.76,0,0,1,1.3-2.21c.71-.4,1.29-.06,1.29.77a2.84,2.84,0,0,1-1.3,2.21C147.91,97,147.33,96.69,147.33,95.87ZM150.85,97c.71-.4,1.29-.06,1.28.77a2.8,2.8,0,0,1-1.29,2.21c-.71.39-1.29.05-1.29-.77A2.76,2.76,0,0,1,150.85,97Zm6.65-5.5c-.71.4-1.29,0-1.29-.77a2.8,2.8,0,0,1,1.29-2.21c.72-.4,1.29,0,1.29.77A2.8,2.8,0,0,1,157.5,91.48Zm2.23.34c.71-.4,1.28,0,1.28.77a2.8,2.8,0,0,1-1.29,2.21c-.71.4-1.29,0-1.29-.77A2.79,2.79,0,0,1,159.73,91.82Zm-3.16,3.35a2.8,2.8,0,0,1-1.29,2.21c-.71.39-1.29.05-1.29-.77a2.77,2.77,0,0,1,1.3-2.21C156,94,156.58,94.35,156.57,95.17Zm-3.51-1.11c-.71.4-1.29,0-1.29-.77a2.79,2.79,0,0,1,1.3-2.21c.71-.4,1.29,0,1.28.77A2.8,2.8,0,0,1,153.06,94.06Zm0,5.86c.71-.4,1.29,0,1.29.77a2.84,2.84,0,0,1-1.3,2.21c-.71.4-1.29,0-1.29-.77A2.79,2.79,0,0,1,153.07,99.92Zm2.22,3.32c.71-.4,1.29,0,1.28.77a2.8,2.8,0,0,1-1.29,2.21c-.71.4-1.29,0-1.29-.77A2.79,2.79,0,0,1,155.29,103.24Zm.92-3.69a2.79,2.79,0,0,1,1.3-2.21c.71-.39,1.29,0,1.28.77a2.79,2.79,0,0,1-1.29,2.21C156.79,100.72,156.21,100.37,156.21,99.55Zm3.52,1.11c.71-.4,1.28,0,1.28.77a2.8,2.8,0,0,1-1.29,2.21c-.71.4-1.29,0-1.29-.77A2.79,2.79,0,0,1,159.73,100.66Zm.92-3.69a2.8,2.8,0,0,1,1.29-2.21c.72-.39,1.29-.05,1.29.78a2.77,2.77,0,0,1-1.29,2.2C161.23,98.14,160.65,97.8,160.65,97Zm2.22-5.52a2.8,2.8,0,0,1,1.29-2.21c.72-.39,1.3,0,1.29.77a2.79,2.79,0,0,1-1.29,2.21C163.45,92.62,162.87,92.27,162.87,91.45Zm3.51.74c.72-.4,1.3-.06,1.29.77a2.8,2.8,0,0,1-1.29,2.21c-.71.39-1.29,0-1.29-.77A2.77,2.77,0,0,1,166.38,92.19Zm.93-3.32a2.8,2.8,0,0,1,1.29-2.21c.72-.39,1.29,0,1.29.77a2.77,2.77,0,0,1-1.29,2.21C167.88,90,167.31,89.7,167.31,88.87Zm1.29-8.07c-.72.4-1.29.06-1.29-.77a2.8,2.8,0,0,1,1.29-2.21c.72-.39,1.29,0,1.29.77A2.77,2.77,0,0,1,168.6,80.8Zm-.93,3.31a2.77,2.77,0,0,1-1.29,2.21c-.71.4-1.29.06-1.29-.77a2.8,2.8,0,0,1,1.29-2.21C167.1,83,167.68,83.29,167.67,84.11Zm-3.51-.73c-.72.4-1.29.05-1.29-.77a2.8,2.8,0,0,1,1.29-2.21c.72-.4,1.29-.05,1.29.77A2.8,2.8,0,0,1,164.16,83.38Zm-.93,3.31a2.77,2.77,0,0,1-1.29,2.21c-.71.4-1.29.06-1.29-.77a2.8,2.8,0,0,1,1.29-2.21C162.66,85.53,163.24,85.87,163.23,86.69ZM159.72,86c-.71.4-1.29.05-1.29-.77a2.79,2.79,0,0,1,1.3-2.21c.71-.4,1.28,0,1.28.77A2.8,2.8,0,0,1,159.72,86Zm-2.22-3.32c-.71.4-1.29,0-1.29-.77a2.8,2.8,0,0,1,1.29-2.21c.72-.4,1.29,0,1.29.77A2.8,2.8,0,0,1,157.5,82.64Zm-.93,3.69a2.8,2.8,0,0,1-1.29,2.21c-.71.39-1.29,0-1.29-.77a2.76,2.76,0,0,1,1.3-2.21C156,85.16,156.58,85.51,156.57,86.33Zm-3.51-1.11c-.71.39-1.29,0-1.29-.77a2.77,2.77,0,0,1,1.3-2.21c.71-.4,1.29,0,1.28.77A2.8,2.8,0,0,1,153.06,85.22Zm-.93,3.69a2.77,2.77,0,0,1-1.29,2.2c-.71.4-1.29.06-1.29-.77a2.75,2.75,0,0,1,1.3-2.2C151.56,87.74,152.14,88.08,152.13,88.91Zm-3.51-1.11c-.71.39-1.29,0-1.29-.77a2.76,2.76,0,0,1,1.3-2.21c.71-.4,1.29-.06,1.29.77A2.84,2.84,0,0,1,148.62,87.8Zm-.92,3.68a2.81,2.81,0,0,1-1.3,2.21c-.71.4-1.29.06-1.29-.77a2.79,2.79,0,0,1,1.3-2.21C147.12,90.32,147.7,90.66,147.7,91.48Zm-3.52-1.11c-.71.4-1.29.06-1.29-.77a2.79,2.79,0,0,1,1.3-2.21c.71-.39,1.29,0,1.29.77A2.81,2.81,0,0,1,144.18,90.37Zm-.92,3.69a2.81,2.81,0,0,1-1.3,2.21c-.71.4-1.29,0-1.29-.77a2.79,2.79,0,0,1,1.3-2.21C142.68,92.9,143.26,93.24,143.26,94.06ZM141,99.58a2.76,2.76,0,0,1-1.3,2.21c-.71.4-1.29.06-1.29-.77a2.79,2.79,0,0,1,1.3-2.21C140.46,98.42,141,98.76,141,99.58Zm-3.52-.73c-.71.4-1.29.05-1.29-.77a2.79,2.79,0,0,1,1.3-2.21c.71-.4,1.29-.05,1.29.77A2.81,2.81,0,0,1,137.52,98.85Zm-.92,3.31a2.79,2.79,0,0,1-1.3,2.21c-.71.4-1.29,0-1.29-.77a2.81,2.81,0,0,1,1.3-2.21C136,101,136.6,101.34,136.6,102.16Zm-1.29,8.07c.71-.39,1.29,0,1.29.77a2.76,2.76,0,0,1-1.3,2.21c-.71.4-1.29.06-1.29-.77A2.81,2.81,0,0,1,135.31,110.23Zm.92-3.31a2.79,2.79,0,0,1,1.3-2.21c.71-.4,1.29,0,1.29.77a2.79,2.79,0,0,1-1.3,2.21C136.81,108.09,136.23,107.74,136.23,106.92Zm3.52.74c.71-.4,1.29-.06,1.29.77a2.79,2.79,0,0,1-1.3,2.21c-.71.39-1.29,0-1.29-.78A2.75,2.75,0,0,1,139.75,107.66ZM142,111c.71-.39,1.29,0,1.29.77A2.78,2.78,0,0,1,142,114c-.71.4-1.29.06-1.29-.77A2.81,2.81,0,0,1,142,111Zm.92-3.68a2.76,2.76,0,0,1,1.3-2.21c.71-.4,1.29-.06,1.29.77a2.84,2.84,0,0,1-1.3,2.21C143.47,108.45,142.89,108.11,142.89,107.29Zm3.52,1.11c.71-.4,1.29-.06,1.29.77a2.84,2.84,0,0,1-1.3,2.21c-.71.39-1.29.05-1.29-.77A2.76,2.76,0,0,1,146.41,108.4Zm.92-3.69a2.77,2.77,0,0,1,1.3-2.21c.71-.4,1.29,0,1.29.77a2.84,2.84,0,0,1-1.3,2.21C147.91,105.87,147.33,105.53,147.33,104.71Zm3.52,1.11c.71-.4,1.29,0,1.28.77a2.8,2.8,0,0,1-1.29,2.21c-.71.39-1.29,0-1.29-.77A2.77,2.77,0,0,1,150.85,105.82Zm2.22,2.94c.71-.4,1.29-.05,1.29.77a2.84,2.84,0,0,1-1.3,2.21c-.71.4-1.29.05-1.29-.77A2.79,2.79,0,0,1,153.07,108.76Zm2.22,3.32c.71-.4,1.29,0,1.28.77a2.8,2.8,0,0,1-1.29,2.21c-.71.4-1.29,0-1.29-.77A2.79,2.79,0,0,1,155.29,112.08Zm.92-3.69a2.79,2.79,0,0,1,1.3-2.21c.71-.39,1.29-.05,1.28.77a2.77,2.77,0,0,1-1.29,2.21C156.79,109.56,156.21,109.21,156.21,108.39Zm3.52,1.11c.71-.39,1.28,0,1.28.77a2.79,2.79,0,0,1-1.29,2.21c-.71.4-1.29,0-1.29-.77A2.79,2.79,0,0,1,159.73,109.5Zm.92-3.69a2.77,2.77,0,0,1,1.29-2.2c.72-.4,1.29-.06,1.29.77a2.77,2.77,0,0,1-1.29,2.2C161.23,107,160.65,106.64,160.65,105.81Zm2.22-5.52a2.8,2.8,0,0,1,1.29-2.21c.72-.39,1.3,0,1.29.77a2.77,2.77,0,0,1-1.29,2.21C163.45,101.46,162.87,101.11,162.87,100.29Zm3.51.74c.72-.4,1.3-.06,1.29.77a2.8,2.8,0,0,1-1.29,2.21c-.71.39-1.29,0-1.29-.77A2.77,2.77,0,0,1,166.38,101Zm.93-3.32a2.77,2.77,0,0,1,1.29-2.2c.72-.4,1.29-.06,1.29.77a2.77,2.77,0,0,1-1.29,2.2C167.88,98.88,167.31,98.54,167.31,97.71Zm2.22-5.89a2.79,2.79,0,0,1,1.29-2.21c.72-.4,1.3,0,1.29.77a2.8,2.8,0,0,1-1.29,2.21C170.11,93,169.53,92.64,169.53,91.82ZM173,92.93c.72-.4,1.29-.06,1.29.77A2.8,2.8,0,0,1,173,95.91c-.72.39-1.29,0-1.29-.77A2.77,2.77,0,0,1,173,92.93Zm.93-3.69A2.8,2.8,0,0,1,175.26,87c.72-.4,1.29,0,1.29.77A2.8,2.8,0,0,1,175.26,90C174.54,90.41,174,90.06,174,89.24Zm2.22-5.52a2.79,2.79,0,0,1,1.29-2.21c.72-.4,1.29-.05,1.29.77a2.8,2.8,0,0,1-1.29,2.21C176.76,84.88,176.19,84.54,176.19,83.72Zm2.22-5.9a2.8,2.8,0,0,1,1.29-2.21c.72-.4,1.29,0,1.29.77a2.8,2.8,0,0,1-1.29,2.21C179,79,178.41,78.64,178.41,77.82Zm-.93-2.17c-.72.39-1.3,0-1.29-.77a2.77,2.77,0,0,1,1.29-2.21c.71-.4,1.29-.06,1.29.77A2.8,2.8,0,0,1,177.48,75.65Zm-2.22-3.32c-.72.39-1.29,0-1.29-.77a2.77,2.77,0,0,1,1.29-2.21c.72-.4,1.29-.06,1.29.77A2.8,2.8,0,0,1,175.26,72.33ZM174.33,76a2.77,2.77,0,0,1-1.29,2.2c-.72.4-1.29.06-1.29-.77a2.77,2.77,0,0,1,1.29-2.2C173.76,74.85,174.33,75.19,174.33,76Zm-3.51-1.11c-.72.39-1.29,0-1.29-.78a2.77,2.77,0,0,1,1.29-2.2c.72-.4,1.29-.06,1.29.77A2.8,2.8,0,0,1,170.82,74.91Zm-2.22-3c-.72.4-1.29.05-1.29-.77A2.8,2.8,0,0,1,168.6,69c.72-.39,1.29,0,1.29.77A2.79,2.79,0,0,1,168.6,72Zm-.93,3.31a2.77,2.77,0,0,1-1.29,2.21c-.71.4-1.29.06-1.29-.77a2.8,2.8,0,0,1,1.29-2.21C167.1,74.11,167.68,74.45,167.67,75.27Zm-3.51-.73c-.72.4-1.29,0-1.29-.77a2.8,2.8,0,0,1,1.29-2.21c.72-.4,1.29,0,1.29.77A2.8,2.8,0,0,1,164.16,74.54Zm-.93,3.31a2.79,2.79,0,0,1-1.29,2.21c-.71.4-1.29,0-1.29-.77a2.8,2.8,0,0,1,1.29-2.21C162.66,76.69,163.24,77,163.23,77.85Zm-3.51-.73c-.71.39-1.29,0-1.29-.77a2.77,2.77,0,0,1,1.3-2.21c.71-.4,1.28,0,1.28.77A2.8,2.8,0,0,1,159.72,77.12ZM157.5,73.8c-.71.4-1.29,0-1.29-.77a2.8,2.8,0,0,1,1.29-2.21c.72-.4,1.29,0,1.29.77A2.8,2.8,0,0,1,157.5,73.8Zm-.93,3.69a2.8,2.8,0,0,1-1.29,2.21c-.71.39-1.29,0-1.29-.77a2.76,2.76,0,0,1,1.3-2.21C156,76.32,156.58,76.66,156.57,77.49Zm-3.51-1.11c-.71.39-1.29.05-1.29-.77a2.76,2.76,0,0,1,1.3-2.21c.71-.4,1.29-.06,1.28.77A2.8,2.8,0,0,1,153.06,76.38Zm-.93,3.69a2.77,2.77,0,0,1-1.29,2.2c-.71.4-1.29.06-1.29-.77a2.75,2.75,0,0,1,1.3-2.2C151.56,78.9,152.14,79.24,152.13,80.07ZM148.62,79c-.71.4-1.29.06-1.29-.77a2.75,2.75,0,0,1,1.3-2.2c.71-.4,1.29-.06,1.29.77A2.8,2.8,0,0,1,148.62,79Zm-.92,3.69a2.81,2.81,0,0,1-1.3,2.21c-.71.4-1.29.06-1.29-.77a2.79,2.79,0,0,1,1.3-2.21C147.12,81.48,147.7,81.82,147.7,82.64Zm-3.52-1.11c-.71.4-1.29.06-1.29-.77a2.79,2.79,0,0,1,1.3-2.21c.71-.39,1.29,0,1.29.77A2.81,2.81,0,0,1,144.18,81.53Zm-.92,3.69a2.81,2.81,0,0,1-1.3,2.21c-.71.4-1.29,0-1.29-.77a2.79,2.79,0,0,1,1.3-2.21C142.68,84.05,143.26,84.4,143.26,85.22ZM141,90.74a2.77,2.77,0,0,1-1.3,2.21c-.71.4-1.29,0-1.29-.77a2.79,2.79,0,0,1,1.3-2.21C140.46,89.58,141,89.92,141,90.74ZM137.52,90c-.71.4-1.29,0-1.29-.77a2.79,2.79,0,0,1,1.3-2.21c.71-.4,1.29,0,1.29.77A2.81,2.81,0,0,1,137.52,90Zm-.92,3.31a2.79,2.79,0,0,1-1.3,2.21c-.71.4-1.29,0-1.29-.77a2.81,2.81,0,0,1,1.3-2.21C136,92.15,136.6,92.5,136.6,93.32Zm-2.22,5.9a2.79,2.79,0,0,1-1.3,2.21c-.71.39-1.29,0-1.29-.77a2.82,2.82,0,0,1,1.3-2.21C133.8,98.05,134.38,98.4,134.38,99.22Zm-3.52-1.11c-.71.4-1.29,0-1.29-.77a2.81,2.81,0,0,1,1.3-2.21c.71-.4,1.29,0,1.29.77A2.79,2.79,0,0,1,130.86,98.11Zm-.92,3.69a2.79,2.79,0,0,1-1.3,2.21c-.71.39-1.29,0-1.28-.77a2.77,2.77,0,0,1,1.29-2.21C129.36,100.63,129.94,101,129.94,101.8Zm-2.22,5.52a2.79,2.79,0,0,1-1.3,2.21c-.71.39-1.29,0-1.28-.77a2.8,2.8,0,0,1,1.29-2.21C127.14,106.15,127.72,106.5,127.72,107.32Zm-2.22,5.9a2.75,2.75,0,0,1-1.3,2.2c-.71.4-1.29.06-1.28-.77a2.77,2.77,0,0,1,1.29-2.2C124.92,112.05,125.5,112.39,125.5,113.22Zm.93,2.17c.71-.4,1.29,0,1.29.77a2.79,2.79,0,0,1-1.3,2.21c-.71.4-1.29,0-1.28-.77A2.8,2.8,0,0,1,126.43,115.39Zm2.22,3.32c.71-.4,1.29,0,1.29.77a2.79,2.79,0,0,1-1.3,2.21c-.71.39-1.29,0-1.28-.77A2.8,2.8,0,0,1,128.65,118.71Zm.92-3.69a2.81,2.81,0,0,1,1.3-2.21c.71-.4,1.29,0,1.29.77a2.79,2.79,0,0,1-1.3,2.21C130.15,116.19,129.57,115.84,129.57,115Zm3.52,1.11c.71-.4,1.29,0,1.29.77a2.79,2.79,0,0,1-1.3,2.21c-.71.4-1.29,0-1.29-.77A2.84,2.84,0,0,1,133.09,116.13Zm2.22,2.94c.71-.39,1.29,0,1.29.77a2.76,2.76,0,0,1-1.3,2.21c-.71.4-1.29.06-1.29-.77A2.81,2.81,0,0,1,135.31,119.07Zm.92-3.31a2.79,2.79,0,0,1,1.3-2.21c.71-.39,1.29,0,1.29.77a2.76,2.76,0,0,1-1.3,2.21C136.81,116.93,136.23,116.58,136.23,115.76Zm3.52.74c.71-.4,1.29-.06,1.29.77a2.75,2.75,0,0,1-1.3,2.2c-.71.4-1.29.06-1.29-.77A2.75,2.75,0,0,1,139.75,116.5Zm2.22,3.32c.71-.4,1.29-.06,1.29.77a2.81,2.81,0,0,1-1.3,2.21c-.71.39-1.29,0-1.29-.78A2.78,2.78,0,0,1,142,119.82Zm.92-3.69a2.76,2.76,0,0,1,1.3-2.21c.71-.4,1.29-.06,1.29.77a2.84,2.84,0,0,1-1.3,2.21C143.47,117.29,142.89,117,142.89,116.13Zm3.52,1.11c.71-.4,1.29-.06,1.29.77a2.84,2.84,0,0,1-1.3,2.21c-.71.39-1.29,0-1.29-.77A2.76,2.76,0,0,1,146.41,117.24Zm.92-3.69a2.79,2.79,0,0,1,1.3-2.21c.71-.4,1.29,0,1.29.77a2.84,2.84,0,0,1-1.3,2.21C147.91,114.72,147.33,114.37,147.33,113.55Zm3.52,1.11c.71-.4,1.29,0,1.28.77a2.8,2.8,0,0,1-1.29,2.21c-.71.39-1.29,0-1.29-.77A2.77,2.77,0,0,1,150.85,114.66Zm2.22,2.94c.71-.39,1.29,0,1.29.77a2.82,2.82,0,0,1-1.3,2.21c-.71.4-1.29,0-1.29-.77A2.79,2.79,0,0,1,153.07,117.6Zm2.22,3.32c.71-.4,1.29,0,1.28.77a2.8,2.8,0,0,1-1.29,2.21c-.71.4-1.29,0-1.29-.77A2.79,2.79,0,0,1,155.29,120.92Zm.92-3.69a2.79,2.79,0,0,1,1.3-2.21c.71-.39,1.29,0,1.28.78a2.77,2.77,0,0,1-1.29,2.2C156.79,118.4,156.21,118.06,156.21,117.23Zm3.52,1.11c.71-.39,1.28,0,1.28.77a2.77,2.77,0,0,1-1.29,2.21c-.71.4-1.29.06-1.29-.77A2.79,2.79,0,0,1,159.73,118.34Zm.92-3.68a2.77,2.77,0,0,1,1.29-2.21c.72-.4,1.29-.06,1.29.77a2.8,2.8,0,0,1-1.29,2.21C161.23,115.82,160.65,115.48,160.65,114.66Zm2.22-5.53a2.8,2.8,0,0,1,1.29-2.21c.72-.39,1.3,0,1.29.77a2.77,2.77,0,0,1-1.29,2.21C163.45,110.3,162.87,110,162.87,109.13Zm3.51.74c.72-.4,1.3-.06,1.29.77a2.8,2.8,0,0,1-1.29,2.21c-.71.39-1.29.05-1.29-.77A2.79,2.79,0,0,1,166.38,109.87Zm.93-3.32a2.77,2.77,0,0,1,1.29-2.2c.72-.4,1.29-.06,1.29.77a2.8,2.8,0,0,1-1.29,2.21C167.88,107.72,167.31,107.38,167.31,106.55Zm2.22-5.89a2.8,2.8,0,0,1,1.29-2.21c.72-.4,1.3,0,1.29.77a2.8,2.8,0,0,1-1.29,2.21C170.1,101.82,169.53,101.48,169.53,100.66Zm3.51,1.11c.72-.4,1.29,0,1.29.77a2.8,2.8,0,0,1-1.29,2.21c-.72.39-1.29,0-1.29-.77A2.79,2.79,0,0,1,173,101.77Zm.93-3.69a2.8,2.8,0,0,1,1.29-2.21c.72-.4,1.29-.05,1.29.77a2.8,2.8,0,0,1-1.29,2.21C174.54,99.25,174,98.9,174,98.08Zm2.22-5.52a2.8,2.8,0,0,1,1.29-2.21c.72-.4,1.29,0,1.29.77a2.8,2.8,0,0,1-1.29,2.21C176.76,93.73,176.19,93.38,176.19,92.56Zm2.22-5.9a2.8,2.8,0,0,1,1.29-2.21c.72-.4,1.29,0,1.29.77a2.8,2.8,0,0,1-1.29,2.21C179,87.83,178.41,87.48,178.41,86.66Zm2.22-5.52a2.8,2.8,0,0,1,1.29-2.21c.72-.4,1.29-.05,1.29.77a2.8,2.8,0,0,1-1.29,2.21C181.2,82.31,180.62,82,180.63,81.14Zm1.29-8.07c-.72.4-1.3.05-1.29-.77a2.8,2.8,0,0,1,1.29-2.21c.72-.4,1.29,0,1.29.77A2.8,2.8,0,0,1,181.92,73.07Zm-2.22-3.32c-.72.4-1.3,0-1.29-.77a2.8,2.8,0,0,1,1.29-2.21c.72-.4,1.29,0,1.29.77A2.8,2.8,0,0,1,179.7,69.75Zm-2.22-2.94c-.72.39-1.3,0-1.29-.78a2.77,2.77,0,0,1,1.29-2.2c.71-.4,1.29-.06,1.29.77A2.8,2.8,0,0,1,177.48,66.81Zm-2.22-3.32c-.72.39-1.29,0-1.29-.77a2.77,2.77,0,0,1,1.29-2.21c.72-.4,1.29-.06,1.29.77A2.8,2.8,0,0,1,175.26,63.49Zm-.93,3.68A2.77,2.77,0,0,1,173,69.38c-.72.4-1.29.06-1.29-.77A2.8,2.8,0,0,1,173,66.4C173.76,66,174.33,66.35,174.33,67.17Zm-3.51-1.11c-.72.4-1.29.06-1.29-.77a2.77,2.77,0,0,1,1.29-2.2c.72-.4,1.29-.06,1.29.77A2.77,2.77,0,0,1,170.82,66.06Zm-2.22-2.94c-.72.4-1.29.05-1.29-.77a2.8,2.8,0,0,1,1.29-2.21c.72-.4,1.29,0,1.29.77A2.8,2.8,0,0,1,168.6,63.12Zm-.93,3.31a2.77,2.77,0,0,1-1.29,2.21c-.71.4-1.29.06-1.29-.77a2.8,2.8,0,0,1,1.29-2.21C167.1,65.27,167.68,65.61,167.67,66.43Zm-3.51-.73c-.72.4-1.29,0-1.29-.77a2.8,2.8,0,0,1,1.29-2.21c.72-.4,1.29,0,1.29.77A2.8,2.8,0,0,1,164.16,65.7ZM163.23,69a2.8,2.8,0,0,1-1.29,2.21c-.71.4-1.29,0-1.29-.77a2.8,2.8,0,0,1,1.29-2.21C162.66,67.84,163.24,68.19,163.23,69Zm-3.51-.73c-.71.39-1.29,0-1.29-.77a2.79,2.79,0,0,1,1.3-2.21c.71-.4,1.28,0,1.28.77A2.8,2.8,0,0,1,159.72,68.28ZM157.5,65c-.71.39-1.29.05-1.29-.77A2.8,2.8,0,0,1,157.5,62c.72-.4,1.29,0,1.29.77A2.8,2.8,0,0,1,157.5,65Zm-.93,3.69a2.8,2.8,0,0,1-1.29,2.21c-.71.39-1.29,0-1.29-.77a2.76,2.76,0,0,1,1.3-2.21C156,67.48,156.58,67.82,156.57,68.65Zm-3.51-1.11c-.71.39-1.29,0-1.29-.77a2.76,2.76,0,0,1,1.3-2.21c.71-.4,1.29-.06,1.28.77A2.8,2.8,0,0,1,153.06,67.54Zm-.93,3.68a2.77,2.77,0,0,1-1.29,2.21c-.71.4-1.29.06-1.29-.77a2.79,2.79,0,0,1,1.3-2.21C151.56,70.06,152.14,70.4,152.13,71.22Zm-3.51-1.11c-.71.4-1.29.06-1.29-.77a2.79,2.79,0,0,1,1.3-2.21c.71-.39,1.29,0,1.29.78A2.8,2.8,0,0,1,148.62,70.11Zm-.92,3.69A2.84,2.84,0,0,1,146.4,76c-.71.4-1.29,0-1.29-.77a2.79,2.79,0,0,1,1.3-2.21C147.12,72.64,147.7,73,147.7,73.8Zm-3.52-1.11c-.71.4-1.29.06-1.29-.77a2.79,2.79,0,0,1,1.3-2.21c.71-.39,1.29,0,1.29.77A2.82,2.82,0,0,1,144.18,72.69Zm-.92,3.69a2.81,2.81,0,0,1-1.3,2.21c-.71.4-1.29,0-1.29-.77a2.79,2.79,0,0,1,1.3-2.21C142.68,75.21,143.26,75.56,143.26,76.38ZM141,81.9a2.76,2.76,0,0,1-1.3,2.21c-.71.4-1.29,0-1.29-.77a2.79,2.79,0,0,1,1.3-2.21C140.46,80.74,141,81.08,141,81.9Zm-3.52-.73c-.71.39-1.29,0-1.29-.77a2.79,2.79,0,0,1,1.3-2.21c.71-.4,1.29,0,1.29.77A2.81,2.81,0,0,1,137.52,81.17Zm-.92,3.31a2.79,2.79,0,0,1-1.3,2.21c-.71.4-1.29,0-1.29-.77a2.81,2.81,0,0,1,1.3-2.21C136,83.31,136.6,83.66,136.6,84.48Zm-2.22,5.9a2.79,2.79,0,0,1-1.3,2.21c-.71.39-1.29,0-1.29-.77a2.81,2.81,0,0,1,1.3-2.21C133.8,89.21,134.38,89.56,134.38,90.38Zm-3.52-1.11c-.71.39-1.29,0-1.29-.77a2.8,2.8,0,0,1,1.3-2.21c.71-.4,1.29-.05,1.29.77A2.79,2.79,0,0,1,130.86,89.27ZM129.94,93a2.75,2.75,0,0,1-1.3,2.2c-.71.4-1.29.06-1.28-.77a2.77,2.77,0,0,1,1.29-2.2C129.36,91.79,129.94,92.13,129.94,93Zm-2.22,5.52a2.79,2.79,0,0,1-1.3,2.21c-.71.39-1.29,0-1.28-.77a2.77,2.77,0,0,1,1.29-2.21C127.14,97.31,127.72,97.66,127.72,98.48Zm-2.22,5.89a2.76,2.76,0,0,1-1.3,2.21c-.71.4-1.29.06-1.28-.77a2.8,2.8,0,0,1,1.29-2.21C124.92,103.21,125.5,103.55,125.5,104.37Zm-2.22,5.53a2.8,2.8,0,0,1-1.29,2.21c-.72.39-1.3,0-1.29-.77a2.77,2.77,0,0,1,1.29-2.21C122.7,108.73,123.28,109.07,123.28,109.9ZM122,118c.71-.4,1.29-.06,1.29.77A2.8,2.8,0,0,1,122,121c-.72.39-1.3,0-1.29-.77A2.77,2.77,0,0,1,122,118Zm2.22,3.32c.71-.4,1.29-.06,1.29.77a2.79,2.79,0,0,1-1.3,2.21c-.71.39-1.29,0-1.28-.77A2.77,2.77,0,0,1,124.21,121.29Zm2.22,2.94c.71-.4,1.29,0,1.29.77a2.79,2.79,0,0,1-1.3,2.21c-.71.4-1.29.05-1.28-.77A2.8,2.8,0,0,1,126.43,124.23Zm2.22,3.32c.71-.4,1.29,0,1.29.77a2.79,2.79,0,0,1-1.3,2.21c-.71.4-1.29.05-1.28-.77A2.8,2.8,0,0,1,128.65,127.55Zm.92-3.69a2.81,2.81,0,0,1,1.3-2.21c.71-.39,1.29-.05,1.29.77a2.77,2.77,0,0,1-1.3,2.21C130.15,125,129.57,124.68,129.57,123.86Zm3.52,1.11c.71-.4,1.29,0,1.29.77a2.79,2.79,0,0,1-1.3,2.21c-.71.4-1.29,0-1.29-.77A2.84,2.84,0,0,1,133.09,125Zm2.22,2.94c.71-.39,1.29,0,1.29.78a2.75,2.75,0,0,1-1.3,2.2c-.71.4-1.29.06-1.29-.77A2.81,2.81,0,0,1,135.31,127.91Zm.92-3.31a2.79,2.79,0,0,1,1.3-2.21c.71-.39,1.29,0,1.29.77a2.76,2.76,0,0,1-1.3,2.21C136.81,125.77,136.23,125.42,136.23,124.6Zm3.52.74c.71-.4,1.29-.06,1.29.77a2.79,2.79,0,0,1-1.3,2.21c-.71.39-1.29.05-1.29-.77A2.76,2.76,0,0,1,139.75,125.34Zm2.22,3.32c.71-.4,1.29-.06,1.29.77a2.78,2.78,0,0,1-1.3,2.2c-.71.4-1.29.06-1.29-.77A2.78,2.78,0,0,1,142,128.66Zm.92-3.69a2.79,2.79,0,0,1,1.3-2.21c.71-.4,1.29-.05,1.29.77a2.84,2.84,0,0,1-1.3,2.21C143.47,126.13,142.89,125.79,142.89,125Zm3.52,1.11c.71-.4,1.29-.06,1.29.77a2.84,2.84,0,0,1-1.3,2.21c-.71.39-1.29.05-1.29-.77A2.77,2.77,0,0,1,146.41,126.08Zm.92-3.69a2.79,2.79,0,0,1,1.3-2.21c.71-.4,1.29-.05,1.29.77a2.84,2.84,0,0,1-1.3,2.21C147.91,123.56,147.33,123.21,147.33,122.39Zm3.52,1.11c.71-.4,1.29,0,1.28.77a2.8,2.8,0,0,1-1.29,2.21c-.71.4-1.29,0-1.29-.77A2.79,2.79,0,0,1,150.85,123.5Zm4.43,9.24c-.71.4-1.29,0-1.29-.77a2.79,2.79,0,0,1,1.3-2.21c.71-.4,1.29,0,1.28.77A2.79,2.79,0,0,1,155.28,132.74Zm2.22-5.9c-.71.4-1.29.06-1.29-.77a2.8,2.8,0,0,1,1.29-2.21c.72-.39,1.29,0,1.29.77A2.77,2.77,0,0,1,157.5,126.84Zm2.22,3.32c-.71.4-1.29.06-1.29-.77a2.79,2.79,0,0,1,1.3-2.21c.71-.39,1.28-.05,1.28.77A2.77,2.77,0,0,1,159.72,130.16Zm2.22-5.89c-.71.39-1.29,0-1.29-.77a2.77,2.77,0,0,1,1.29-2.21c.72-.4,1.29-.06,1.29.77A2.8,2.8,0,0,1,161.94,124.27Zm2.22-5.53c-.72.4-1.29.06-1.29-.77a2.8,2.8,0,0,1,1.29-2.21c.72-.39,1.29-.05,1.29.77A2.77,2.77,0,0,1,164.16,118.74Zm2.22,3c-.71.39-1.29,0-1.29-.77a2.8,2.8,0,0,1,1.29-2.21c.72-.4,1.3,0,1.29.77A2.8,2.8,0,0,1,166.38,121.69Zm2.22-5.52c-.72.39-1.29,0-1.29-.77a2.77,2.77,0,0,1,1.29-2.21c.72-.4,1.29-.06,1.29.77A2.8,2.8,0,0,1,168.6,116.17Zm2.22-5.9c-.72.4-1.29,0-1.29-.77a2.8,2.8,0,0,1,1.29-2.21c.72-.4,1.29-.05,1.29.77A2.8,2.8,0,0,1,170.82,110.27Zm2.22,3.32c-.72.39-1.29,0-1.29-.77a2.79,2.79,0,0,1,1.29-2.21c.72-.4,1.29,0,1.29.77A2.8,2.8,0,0,1,173,113.59Zm2.22-5.9c-.72.4-1.29,0-1.29-.77a2.8,2.8,0,0,1,1.29-2.21c.72-.4,1.29,0,1.29.77A2.8,2.8,0,0,1,175.26,107.69Zm2.22-5.52c-.72.4-1.3,0-1.29-.77a2.8,2.8,0,0,1,1.29-2.21c.71-.4,1.29,0,1.29.77A2.8,2.8,0,0,1,177.48,102.17Zm2.22-5.9c-.72.4-1.3,0-1.29-.77a2.8,2.8,0,0,1,1.29-2.21c.72-.39,1.29-.05,1.29.77A2.8,2.8,0,0,1,179.7,96.27Zm2.22-5.52c-.72.4-1.3,0-1.29-.77a2.8,2.8,0,0,1,1.29-2.21c.72-.4,1.29,0,1.29.77A2.8,2.8,0,0,1,181.92,90.75Zm3.51-8.11a2.77,2.77,0,0,1-1.29,2.21c-.72.4-1.3.06-1.29-.77a2.8,2.8,0,0,1,1.29-2.21C184.86,81.48,185.43,81.82,185.43,82.64Zm0-8.84A2.8,2.8,0,0,1,184.14,76c-.72.4-1.3,0-1.29-.77A2.8,2.8,0,0,1,184.14,73C184.86,72.64,185.43,73,185.43,73.8Zm-1.29-9.61c.72-.39,1.29,0,1.29.77a2.79,2.79,0,0,1-1.29,2.21c-.72.4-1.3,0-1.29-.77A2.8,2.8,0,0,1,184.14,64.19Zm-2.22-2.94c.72-.4,1.29,0,1.29.77a2.8,2.8,0,0,1-1.29,2.21c-.72.39-1.29,0-1.29-.77A2.79,2.79,0,0,1,181.92,61.25Zm-2.22-3.32c.72-.4,1.29,0,1.29.77a2.8,2.8,0,0,1-1.29,2.21c-.72.4-1.3.05-1.29-.77A2.8,2.8,0,0,1,179.7,57.93ZM177.48,55c.72-.4,1.29-.06,1.29.77A2.8,2.8,0,0,1,177.48,58c-.72.39-1.29.05-1.29-.77A2.77,2.77,0,0,1,177.48,55Zm-2.22-3.32c.72-.4,1.29-.06,1.29.77a2.8,2.8,0,0,1-1.29,2.21c-.72.39-1.29.05-1.29-.77A2.77,2.77,0,0,1,175.26,51.67ZM173,57.56c.72-.39,1.29-.05,1.29.77A2.77,2.77,0,0,1,173,60.54c-.72.4-1.29.06-1.29-.77A2.8,2.8,0,0,1,173,57.56Zm-2.22-3.32c.72-.39,1.3-.05,1.29.77a2.77,2.77,0,0,1-1.29,2.21c-.71.4-1.29.06-1.29-.77A2.8,2.8,0,0,1,170.82,54.24ZM168.6,51.3c.72-.4,1.29,0,1.29.77a2.8,2.8,0,0,1-1.29,2.21c-.72.4-1.29,0-1.29-.77A2.8,2.8,0,0,1,168.6,51.3Zm-2.22,5.52c.72-.39,1.3,0,1.29.77a2.79,2.79,0,0,1-1.29,2.21c-.71.4-1.29.05-1.29-.77A2.8,2.8,0,0,1,166.38,56.82Zm-2.22-2.94c.72-.4,1.29-.05,1.29.77a2.8,2.8,0,0,1-1.29,2.21c-.72.4-1.29,0-1.29-.77A2.8,2.8,0,0,1,164.16,53.88Zm-2.22,5.52c.72-.4,1.29,0,1.29.77a2.8,2.8,0,0,1-1.29,2.21c-.71.4-1.29,0-1.29-.77A2.8,2.8,0,0,1,161.94,59.4Zm-2.21-2.94c.71-.4,1.28-.06,1.28.77a2.8,2.8,0,0,1-1.29,2.21c-.71.39-1.29.05-1.29-.77A2.77,2.77,0,0,1,159.73,56.46Zm-2.22-3.32c.71-.4,1.29,0,1.29.77a2.84,2.84,0,0,1-1.3,2.21c-.71.39-1.29.05-1.29-.77A2.79,2.79,0,0,1,157.51,53.14ZM155.29,59c.71-.4,1.29-.06,1.28.77a2.77,2.77,0,0,1-1.29,2.2c-.71.4-1.29.06-1.29-.77A2.75,2.75,0,0,1,155.29,59Zm-2.22-3.32c.71-.4,1.29-.06,1.29.77a2.84,2.84,0,0,1-1.3,2.21c-.71.39-1.29,0-1.29-.77A2.76,2.76,0,0,1,153.07,55.72Zm-2.22,5.89c.71-.39,1.29,0,1.28.77a2.77,2.77,0,0,1-1.29,2.21c-.71.4-1.29.06-1.29-.77A2.79,2.79,0,0,1,150.85,61.61Zm-2.22-3.32c.71-.39,1.29,0,1.29.77a2.81,2.81,0,0,1-1.3,2.21c-.71.4-1.29.06-1.29-.77A2.79,2.79,0,0,1,148.63,58.29Zm-2.22,5.9c.71-.39,1.29,0,1.29.77a2.82,2.82,0,0,1-1.3,2.21c-.71.4-1.29,0-1.29-.77A2.79,2.79,0,0,1,146.41,64.19Zm-2.22-3.32c.71-.39,1.29,0,1.29.77a2.82,2.82,0,0,1-1.3,2.21c-.71.4-1.29,0-1.29-.77A2.79,2.79,0,0,1,144.19,60.87ZM142,66.77c.71-.4,1.29,0,1.29.77a2.81,2.81,0,0,1-1.3,2.21c-.71.4-1.29,0-1.29-.77A2.81,2.81,0,0,1,142,66.77Zm-2.22,5.52c.71-.4,1.29-.05,1.29.77a2.79,2.79,0,0,1-1.3,2.21c-.71.4-1.29,0-1.29-.77A2.79,2.79,0,0,1,139.75,72.29Zm-2.22-2.94c.71-.4,1.29,0,1.29.77a2.79,2.79,0,0,1-1.3,2.21c-.71.39-1.29,0-1.29-.77A2.8,2.8,0,0,1,137.53,69.35Zm-2.22,5.52c.71-.4,1.29-.05,1.29.77a2.79,2.79,0,0,1-1.3,2.21c-.71.4-1.29.05-1.29-.77A2.81,2.81,0,0,1,135.31,74.87Zm-2.22,5.9c.71-.4,1.29-.06,1.29.77a2.79,2.79,0,0,1-1.3,2.21c-.71.39-1.29,0-1.29-.77A2.81,2.81,0,0,1,133.09,80.77Zm-2.22-3.32c.71-.4,1.29-.06,1.29.77a2.79,2.79,0,0,1-1.3,2.21c-.71.39-1.29,0-1.29-.77A2.82,2.82,0,0,1,130.87,77.45Zm-2.22,5.9c.71-.4,1.29-.06,1.29.77a2.75,2.75,0,0,1-1.3,2.2c-.71.4-1.29.06-1.28-.77A2.77,2.77,0,0,1,128.65,83.35Zm-2.22,5.52c.71-.4,1.29-.06,1.29.77a2.79,2.79,0,0,1-1.3,2.21c-.71.39-1.29.05-1.28-.77A2.77,2.77,0,0,1,126.43,88.87Zm-2.22,5.89c.71-.39,1.29-.05,1.29.78a2.75,2.75,0,0,1-1.3,2.2c-.71.4-1.29.06-1.28-.77A2.8,2.8,0,0,1,124.21,94.76ZM122,100.29c.71-.4,1.29-.06,1.29.77a2.8,2.8,0,0,1-1.29,2.21c-.72.39-1.3,0-1.29-.78A2.77,2.77,0,0,1,122,100.29Zm-3.51,8.1a2.8,2.8,0,0,1,1.29-2.21c.71-.39,1.29-.05,1.29.77a2.76,2.76,0,0,1-1.3,2.21C119.05,109.56,118.47,109.21,118.48,108.39Zm0,8.84a2.8,2.8,0,0,1,1.29-2.21c.71-.39,1.29,0,1.29.78a2.75,2.75,0,0,1-1.3,2.2C119.05,118.4,118.47,118.06,118.48,117.23Zm1.28,9.61c-.71.4-1.29.06-1.28-.77a2.8,2.8,0,0,1,1.29-2.21c.71-.39,1.29,0,1.29.77A2.76,2.76,0,0,1,119.76,126.84Zm2.23,2.95c-.72.39-1.3.05-1.29-.77a2.77,2.77,0,0,1,1.29-2.21c.71-.4,1.29-.06,1.29.77A2.8,2.8,0,0,1,122,129.79Zm2.21,3.32c-.71.39-1.29,0-1.28-.77a2.77,2.77,0,0,1,1.29-2.21c.71-.4,1.29-.06,1.29.77A2.79,2.79,0,0,1,124.2,133.11Zm2.22,2.94c-.71.4-1.29,0-1.29-.77a2.84,2.84,0,0,1,1.3-2.21c.71-.4,1.29,0,1.29.77A2.79,2.79,0,0,1,126.42,136.05Zm2.22,3.32c-.71.4-1.29,0-1.28-.77a2.8,2.8,0,0,1,1.29-2.21c.71-.4,1.29,0,1.29.77A2.79,2.79,0,0,1,128.64,139.37Zm2.22-5.9c-.71.4-1.29.05-1.29-.77a2.81,2.81,0,0,1,1.3-2.21c.71-.39,1.29-.05,1.29.77A2.77,2.77,0,0,1,130.86,133.47Zm2.22,3.32c-.71.4-1.29.05-1.29-.77a2.81,2.81,0,0,1,1.3-2.21c.71-.4,1.29-.05,1.29.77A2.79,2.79,0,0,1,133.08,136.79Zm2.22,2.94c-.71.4-1.29.06-1.29-.77a2.78,2.78,0,0,1,1.3-2.2c.71-.4,1.29-.06,1.29.77A2.75,2.75,0,0,1,135.3,139.73Zm2.22-5.52c-.71.4-1.29.06-1.29-.77a2.79,2.79,0,0,1,1.3-2.21c.71-.39,1.29,0,1.29.77A2.78,2.78,0,0,1,137.52,134.21Zm2.22,2.95c-.71.39-1.29.05-1.29-.77a2.76,2.76,0,0,1,1.3-2.21c.71-.4,1.29-.06,1.29.77A2.81,2.81,0,0,1,139.74,137.16Zm2.22,3.32c-.71.39-1.29.05-1.29-.77a2.76,2.76,0,0,1,1.3-2.21c.71-.4,1.29-.06,1.29.77A2.81,2.81,0,0,1,142,140.48Zm2.22-5.9c-.71.39-1.29,0-1.29-.77a2.79,2.79,0,0,1,1.3-2.21c.71-.4,1.29,0,1.29.77A2.84,2.84,0,0,1,144.18,134.58Zm2.22,3.32c-.71.39-1.29,0-1.29-.77a2.79,2.79,0,0,1,1.3-2.21c.71-.4,1.29,0,1.29.77A2.81,2.81,0,0,1,146.4,137.9Zm2.22-5.9c-.71.4-1.29.05-1.29-.77a2.79,2.79,0,0,1,1.3-2.21c.71-.4,1.29-.05,1.29.77A2.84,2.84,0,0,1,148.62,132Zm.93,2.55a2.79,2.79,0,0,1,1.3-2.21c.71-.4,1.29-.05,1.29.77a2.84,2.84,0,0,1-1.3,2.21C150.13,135.72,149.55,135.37,149.55,134.55Z"/><path class="cls-11" d="M107.25,160.73,33.86,203.11V152.8l73.39-42.37Z"/><path class="cls-12" d="M97.81,149.42l-2.76-1.59h0a1.67,1.67,0,0,0-1.73.13L75.1,158.49a5.22,5.22,0,0,0-2.37,4.1,1.73,1.73,0,0,0,.62,1.48h0l2.79,1.61Z"/><path class="cls-13" d="M96.12,149.58,77.9,160.11a5.19,5.19,0,0,0-2.36,4.1c0,1.51,1,2.11,2.36,1.36l18.22-10.52a5.22,5.22,0,0,0,2.37-4.1C98.49,149.44,97.43,148.83,96.12,149.58Z"/><path class="cls-8" d="M58.32,173.08l5.11-5.32-1.71-1h0a1,1,0,0,0-1.06.08l-3,1.75a3.21,3.21,0,0,0-1.46,2.53,1.08,1.08,0,0,0,.35.9h0l.12.07Z"/><path class="cls-7" d="M62.39,167.85l-3,1.75a3.26,3.26,0,0,0-1.46,2.53c0,.94.66,1.31,1.46.85l3-1.75a3.23,3.23,0,0,0,1.46-2.53C63.85,167.76,63.2,167.39,62.39,167.85Z"/><path class="cls-8" d="M50.08,177.83l5.11-5.32-1.71-1h0a1,1,0,0,0-1.06.08l-3,1.75a3.21,3.21,0,0,0-1.46,2.53,1.1,1.1,0,0,0,.36.9h0a.57.57,0,0,0,.13.08Z"/><path class="cls-7" d="M54.15,172.61l-3,1.75a3.24,3.24,0,0,0-1.47,2.53c0,.94.66,1.31,1.47.85l3-1.75a3.23,3.23,0,0,0,1.46-2.53C55.61,172.52,55,172.15,54.15,172.61Z"/><path class="cls-8" d="M41.84,182.59,47,177.27l-1.71-1h0a1,1,0,0,0-1.06.08l-3,1.74a3.25,3.25,0,0,0-1.46,2.54,1.06,1.06,0,0,0,.35.89h0a.37.37,0,0,0,.12.07Z"/><path class="cls-7" d="M45.91,177.37l-3,1.74a3.23,3.23,0,0,0-1.46,2.54c0,.93.65,1.31,1.46.84l3-1.75a3.22,3.22,0,0,0,1.47-2.53C47.38,177.28,46.72,176.9,45.91,177.37Z"/><path class="cls-7" d="M100.11,108.62,41,142.75v-18l59.11-34.12Z"/><path class="cls-14" d="M53.48,181.43l-11.09,6.4v-1.5l11.09-6.4Z"/><path class="cls-14" d="M66.42,173.72l-11.09,6.4v-1.5l11.09-6.4Z"/><path class="cls-14" d="M59,161.25l-11.09,6.4v-1.5L59,159.75Z"/><path class="cls-14" d="M76.4,151.57,65.31,158v-1.5l11.09-6.4Z"/><path class="cls-14" d="M93.77,141.89l-11.09,6.4v-1.5l11.09-6.4Z"/><path class="cls-15" d="M100.11,98.75,41,132.88v-1L100.11,97.8Z"/><polygon class="cls-8" points="98.7 91.47 98.7 107.55 41 140.87 41 142.75 100.11 108.62 100.11 90.66 98.7 91.47"/><polygon class="cls-1" points="106.27 111 106.27 159.92 33.86 201.73 33.86 203.1 107.25 160.73 107.25 110.43 106.27 111"/><path class="cls-16" d="M51.3,160.85l-2.43-1.4a3.41,3.41,0,0,1-1.42-3.16,10.71,10.71,0,0,1,4.87-8.43,3.41,3.41,0,0,1,3.44-.35l2.43,1.41Z"/><path class="cls-14" d="M49.87,157.69a10.77,10.77,0,0,1,4.88-8.43c2.69-1.56,4.87-.29,4.87,2.81a10.76,10.76,0,0,1-4.87,8.44C52.05,162.06,49.88,160.8,49.87,157.69Z"/><path class="cls-16" d="M66.73,151.78l-2.43-1.4a3.43,3.43,0,0,1-1.42-3.16,10.76,10.76,0,0,1,4.87-8.44,3.4,3.4,0,0,1,3.44-.34l2.43,1.4Z"/><path class="cls-14" d="M65.31,148.62a10.78,10.78,0,0,1,4.87-8.44c2.69-1.55,4.87-.29,4.87,2.81a10.76,10.76,0,0,1-4.87,8.44C67.49,153,65.31,151.73,65.31,148.62Z"/><path class="cls-17" d="M67.81,147.39a6.08,6.08,0,0,1,2.74-4.75c1.52-.87,2.75-.16,2.75,1.59A6.06,6.06,0,0,1,70.56,149C69,149.85,67.81,149.14,67.81,147.39Z"/><path class="cls-16" d="M82.16,142.7l-2.43-1.4a3.43,3.43,0,0,1-1.42-3.16,10.78,10.78,0,0,1,4.87-8.44,3.43,3.43,0,0,1,3.44-.34l2.43,1.4Z"/><path class="cls-14" d="M80.74,139.54a10.76,10.76,0,0,1,4.87-8.43c2.69-1.56,4.87-.3,4.87,2.81a10.78,10.78,0,0,1-4.87,8.44C82.92,143.91,80.74,142.65,80.74,139.54Z"/><path class="cls-15" d="M82.87,138.31a6.06,6.06,0,0,1,2.74-4.74c1.52-.88,2.74-.17,2.74,1.58a6.08,6.08,0,0,1-2.74,4.75C84.1,140.77,82.87,140.06,82.87,138.31Z"/></svg>