<svg id="Layer_1" data-name="Layer 1" xmlns="http://www.w3.org/2000/svg" xmlns:xlink="http://www.w3.org/1999/xlink" viewBox="0 0 58.5415 93.3131"><defs><style>.cls-1{fill:#6a737f;}.cls-2{fill:url(#Безымянный_градиент_48);}.cls-3{fill:url(#Безымянный_градиент_48-2);}.cls-4{fill:#303030;opacity:0.4;}.cls-5{fill:url(#Безымянный_градиент_48-3);}.cls-6{fill:#3b455a;}.cls-7{fill:#fff;}</style><linearGradient id="Безымянный_градиент_48" x1="3.1689" y1="59.6792" x2="55.969" y2="59.6792" gradientUnits="userSpaceOnUse"><stop offset="0" stop-color="#0032c8"/><stop offset="1" stop-color="#00c832"/></linearGradient><linearGradient id="Безымянный_градиент_48-2" x1="0.5967" y1="22.4926" x2="58.5415" y2="22.4926" xlink:href="#Безымянный_градиент_48"/><linearGradient id="Безымянный_градиент_48-3" x1="3.1689" y1="9.4698" x2="55.9691" y2="9.4698" xlink:href="#Безымянный_градиент_48"/></defs><path class="cls-1" d="M6.1985,10.0461c.5649,5.8529,1.22,12.1765,1.22,12.1765S4.3867,22.2953,0,22.6282c.3243-.0079.649-.0165.973-.0194C4.0242,22.5815,7.1887,23.9,10.11,24.7543L9.9491,10.6077Z"/><path class="cls-2" d="M3.1689,26.0453l3.3572,64.15a3.2327,3.2327,0,0,0,3.2306,3.1181H49.3811a3.2327,3.2327,0,0,0,3.2307-3.1181l3.3572-64.15Z"/><rect class="cls-3" x="0.5967" y="18.9398" width="57.9448" height="7.1057"/><rect class="cls-4" x="0.5967" y="18.9398" width="57.9448" height="7.1057"/><polygon class="cls-5" points="55.969 18.94 3.169 18.94 7.264 0 51.874 0 55.969 18.94"/><path class="cls-6" d="M43.9647,15.4052H15.1732a2.65,2.65,0,0,1-2.65-2.65V8.7389a2.65,2.65,0,0,1,2.65-2.65H43.9647a2.65,2.65,0,0,1,2.65,2.65v4.0163a2.65,2.65,0,0,1-2.65,2.65"/><path class="cls-7" d="M37.3989,60.4235A.9745.9745,0,0,0,37.3,60.151c-.0492-.0943-.1956-.365-.389-.7224Z"/><path class="cls-7" d="M30.059,50.8l1.8384.5469c.6534.1946,1.722.5131,2.376.7076l1.8385.5473a1.1517,1.1517,0,0,0,1.4608-.8813l.4236-1.91c.15-.6789.3948-1.79.5455-2.4691l.4232-1.91c.151-.6785-.2769-.9025-.95-.4973l-1.1535.6958c-.4228-.7375-.8453-1.4706-1.0085-1.7389a2.6086,2.6086,0,0,0-2.4878-1.0675c-1.041.0058-3.8064.0219-5.556.0324l2.32,4.1687a.7735.7735,0,0,1,.1435.2093c.1107.229.5314,1.0168.95,1.7956l-1.1283.68c-.6731.4053-.6885.8961-.0352,1.0909"/><path class="cls-7" d="M23.6286,44.2439c-.5958.9258-2.1066,3.39-2.1066,3.39a1.1629,1.1629,0,0,0,.384,1.6054l3.7052,2.225a1.1693,1.1693,0,0,0,1.6019-.4135l2.2836-3.8394c.1988-.338.439-.3883.6324-.1877l-2.32-4.1691c-.6055.0036-1.09.0068-1.3382.0083a3.0685,3.0685,0,0,0-2.8424,1.3807"/><path class="cls-7" d="M17.0749,59.8223c.4174.8288,1.5727,2.9618,2.4195,4.5251l2.6262-4.3931c.3092-.54.8831-1.5425,1.3617-2.3727l1.3444.7644c.6821.3883,1.1042.1535.9377-.5214l-.4706-1.8992c-.1665-.6745-.4394-1.7791-.6066-2.454l-.4693-1.8992a1.1508,1.1508,0,0,0-1.4824-.8432l-1.8244.5948c-.6487.2114-1.709.5569-2.3577.768l-1.8244.594c-.6487.211-.621.7018.0615,1.0894l.9909.5642c-.5062,1.0017-1.1024,2.1847-1.2527,2.5241a3.8453,3.8453,0,0,0,.5462,2.9588"/><path class="cls-7" d="M22.1205,59.9545l-2.6259,4.3928c.4717.87.8482,1.5648.9478,1.7575.2772.539.6742,1.5943,3.18,1.58,2.5044-.0147,3.6431-.0212,3.6431-.0212a1.176,1.176,0,0,0,1.152-1.1927l-.024-4.4a1.1761,1.1761,0,0,0-1.1665-1.1794s-4.2647.0252-4.9759.0291c-.4491.0025-.5063-.302-.3488-.585.0216-.0384.1017-.178.2179-.3811"/><path class="cls-7" d="M37.3989,60.4235,39.57,64.86c.76-1.4322,2.05-3.92,2.5766-4.9951.7051-1.4386.9047-2.6859.58-3.3414s-1.9326-3.8455-1.9326-3.8455a1.05,1.05,0,0,0-1.5192-.4329l-3.6808,2.3167a1.27,1.27,0,0,0-.4236,1.6575s1.1186,2.0575,1.7414,3.21c.1934.3574.34.6281.389.7224a.9745.9745,0,0,1,.0986.2725"/><path class="cls-7" d="M39.0324,65.8545c.0856-.1485.2819-.512.5375-.9945l-2.171-4.4366c.0457.2578-.0816.4332-.3937.435-.2136.0015-1.2711.0076-2.2451.0133l-.0122-1.3753c-.0072-.7989-.4146-1.0582-.9061-.576L32.46,60.2756c-.4916.4814-1.2959,1.27-1.7867,1.751l-1.3822,1.3556a1.2,1.2,0,0,0,.0141,1.7349l1.4066,1.33c.4994.4724,1.3167,1.2451,1.8168,1.7179l1.4056,1.33c.5.4725.9035.2057.896-.5933l-.0122-1.3073c.55-.0036,1.1578-.0069,1.7194-.0105a2.78,2.78,0,0,0,2.495-1.73"/></svg>