<svg width="98" height="29" viewBox="0 0 98 29" fill="none" xmlns="http://www.w3.org/2000/svg">
<g clip-path="url(#clip0_2485_62131)">
<path d="M93.2557 0.841797C95.5935 0.841797 97.497 2.69215 97.548 4.99385L97.549 5.08869V23.8949C97.549 26.2067 95.6785 28.0903 93.3516 28.1408L93.2557 28.1418H5.54529C3.20755 28.1418 1.30402 26.2914 1.253 23.9897L1.25195 23.8949V5.08869C1.25195 2.77688 3.12255 0.893321 5.44941 0.842836L5.54529 0.841797H93.2557Z" fill="black"/>
<path d="M93.6033 0.492188C95.9417 0.492188 97.8482 2.34835 97.8993 4.65726L97.9004 4.7524V24.232C97.9004 26.5524 96.0282 28.4405 93.6993 28.4911L93.6033 28.4922H5.19746C2.85912 28.4922 0.952544 26.636 0.901442 24.3271L0.900391 24.232V4.7524C0.900391 2.43201 2.77261 0.543837 5.1015 0.493229L5.19746 0.492188H93.6033ZM93.6033 1.10088H5.19746C3.19485 1.10088 1.56515 2.68623 1.51548 4.65962L1.51431 4.7524V24.232C1.51431 26.2166 3.11469 27.8331 5.10393 27.8823L5.19746 27.8835H93.6033C95.6059 27.8835 97.2356 26.2981 97.2853 24.3248L97.2865 24.232V4.7524C97.2865 2.76777 95.6861 1.15131 93.6968 1.10204L93.6033 1.10088Z" fill="black"/>
<path d="M93.6033 0.492188C95.9417 0.492188 97.8482 2.34835 97.8993 4.65726L97.9004 4.7524V24.232C97.9004 26.5524 96.0282 28.4405 93.6993 28.4911L93.6033 28.4922H5.19746C2.85912 28.4922 0.952544 26.636 0.901442 24.3271L0.900391 24.232V4.7524C0.900391 2.43201 2.77261 0.543837 5.1015 0.493229L5.19746 0.492188H93.6033ZM93.6033 1.10088H5.19746C3.19485 1.10088 1.56515 2.68623 1.51548 4.65962L1.51431 4.7524V24.232C1.51431 26.2166 3.11469 27.8331 5.10393 27.8823L5.19746 27.8835H93.6033C95.6059 27.8835 97.2356 26.2981 97.2853 24.3248L97.2865 24.232V4.7524C97.2865 2.76777 95.6861 1.15131 93.6968 1.10204L93.6033 1.10088Z" fill="black"/>
<path opacity="0.704875" d="M31.9711 7.18652V16.9516C31.9711 17.5349 31.8738 18.6446 31.1428 19.649C30.9565 19.905 30.7368 20.134 30.6687 20.2032L30.6476 20.2246C30.5555 20.3157 30.2723 20.588 29.8501 20.8582C29.3402 21.1843 28.8111 21.3897 28.2642 21.5363C27.9602 21.6176 27.2427 21.7901 25.1103 21.7951C24.3671 21.7968 23.7887 21.7743 23.3882 21.7453V17.053C23.3882 16.9661 23.3957 16.8578 23.3811 16.7292L23.3687 16.6491L23.3758 16.6764C23.4604 16.964 23.6222 17.3087 23.9276 17.6107C24.2948 17.9736 24.7188 18.1085 24.8494 18.1452C25.0949 18.2142 25.2961 18.2256 25.3896 18.2273L25.4571 18.2276C26.6251 18.2276 27.5905 17.332 27.5905 16.1146V7.18652H31.9711ZM23.2863 11.8028V16.1146C23.2863 16.1862 23.2943 16.3226 23.3301 16.4941L23.3301 16.4979L23.298 16.4063C23.2763 16.3535 23.1792 16.1741 22.9807 15.9624C22.7628 15.7292 22.5401 15.6477 22.293 15.5312C22.1467 15.4622 21.966 15.3733 21.7073 15.3029C21.3923 15.217 20.8338 15.0919 20.2046 15.0747C20.4909 15.0201 21.8497 14.6947 22.6751 13.4768C23.0862 12.8701 23.1844 12.31 23.2863 11.8028ZM23.2863 7.1866V11.0165C23.2607 10.6402 23.1275 9.44089 22.1147 8.40405C21.2261 7.49464 20.1104 7.2482 19.7207 7.1866H23.2863Z" fill="white"/>
<path d="M19.0847 18.5091C19.0435 18.4414 18.9668 18.3275 18.8173 18.1834C18.5115 17.8889 18.1782 17.7356 18.0903 17.6962C17.8031 17.5679 17.515 17.4934 16.7966 17.4188C16.4025 17.3778 15.8978 17.3436 15.2896 17.3319V21.7452H11.5967V7.18652H19.6193C19.6833 7.18793 19.7497 7.1884 19.8141 7.18963C20.2038 7.25106 21.2566 7.47423 22.1451 8.38364C23.1115 9.37296 23.2525 10.5086 23.2868 10.9403V11.8534C23.2397 12.3336 23.1062 12.9282 22.7103 13.5124C21.8849 14.7303 20.5767 15.0112 20.2902 15.0658C20.9194 15.0831 21.4005 15.1834 21.7153 15.2693C21.974 15.3397 22.1477 15.408 22.2941 15.4769C22.5412 15.5933 22.7723 15.7008 22.9902 15.934C23.1886 16.1458 23.2769 16.3534 23.2987 16.4062C23.4119 16.6835 23.4141 17.129 23.4141 17.2559L23.4145 17.4132L23.4146 18.4667C23.4145 18.5421 23.4145 18.6171 23.4144 18.6905L23.4141 21.7452C22.7448 21.6963 22.4805 21.6235 22.3176 21.5741C21.4114 21.3002 20.8701 20.9068 20.6847 20.7645C20.4353 20.573 20.0774 20.2579 19.7573 19.8142C19.5325 19.5023 19.3666 19.1827 19.2444 18.8738C19.2276 18.8154 19.2036 18.7452 19.1688 18.6682C19.1456 18.6177 19.1181 18.5641 19.0847 18.5091ZM20.4942 11.4409L15.7459 9.10582C15.4773 8.97447 15.1597 9.16906 15.1597 9.47067V14.1359C15.1597 14.4375 15.4773 14.6321 15.7459 14.5007L20.4942 12.1657C20.797 12.0198 20.797 11.5868 20.4942 11.4409Z" fill="white"/>
<path d="M42.5676 12.0486H41.9588V11.1441H39.526V12.0486H38.907L38.8867 10.6338H39.1835C39.3307 10.4924 39.4482 10.2865 39.5361 10.0161C39.6241 9.74583 39.6807 9.43972 39.7061 9.09783L39.8025 7.46582H42.1313V10.6338H42.6006L42.5676 12.0486ZM39.909 10.6338H41.492V7.98119H40.4139L40.353 9.01698C40.3073 9.7092 40.1593 10.2481 39.909 10.6338Z" fill="white"/>
<path d="M46.0303 9.40073C46.0303 9.76115 45.9677 10.0774 45.8425 10.3494C45.7174 10.6214 45.5385 10.8302 45.306 10.9759C45.0735 11.1216 44.8058 11.1944 44.5031 11.1944C44.2038 11.1944 43.937 11.1216 43.7028 10.9759C43.4685 10.8302 43.2876 10.6226 43.1599 10.3532C43.0322 10.0837 42.9675 9.77294 42.9658 9.42094V9.21378C42.9658 8.85504 43.0297 8.53841 43.1573 8.26388C43.285 7.98936 43.4651 7.77925 43.6977 7.63357C43.9302 7.48788 44.197 7.41504 44.498 7.41504C44.7991 7.41504 45.0659 7.48704 45.2984 7.63104C45.5309 7.77504 45.7106 7.9822 45.8375 8.25252C45.9643 8.52283 46.0286 8.83736 46.0303 9.1961V9.40073ZM45.3885 9.20873C45.3885 8.80115 45.3111 8.48873 45.1563 8.27146C45.0016 8.0542 44.7822 7.94557 44.498 7.94557C44.2207 7.94557 44.0038 8.05378 43.8474 8.2702C43.6909 8.48662 43.611 8.79273 43.6076 9.18852V9.40073C43.6076 9.80494 43.6867 10.1174 43.8448 10.338C44.0029 10.5586 44.2224 10.6689 44.5031 10.6689C44.7872 10.6689 45.0058 10.5612 45.1589 10.3456C45.3119 10.13 45.3885 9.81505 45.3885 9.40073V9.20873Z" fill="white"/>
<path d="M49.4878 9.94642C49.4506 10.3388 49.3051 10.6449 49.0515 10.8647C48.7978 11.0845 48.4604 11.1944 48.0393 11.1944C47.745 11.1944 47.4858 11.1249 47.2618 10.986C47.0377 10.8471 46.8648 10.6496 46.743 10.3936C46.6212 10.1376 46.5578 9.84031 46.5527 9.50178V9.1582C46.5527 8.81125 46.6145 8.50557 46.7379 8.24115C46.8614 7.97673 47.0385 7.77294 47.2694 7.62978C47.5002 7.48662 47.767 7.41504 48.0697 7.41504C48.4773 7.41504 48.8054 7.52536 49.054 7.74599C49.3026 7.96662 49.4472 8.2782 49.4878 8.68073H48.8485C48.8181 8.41631 48.7407 8.22557 48.6164 8.10852C48.4921 7.99146 48.3099 7.93294 48.0697 7.93294C47.7907 7.93294 47.5763 8.03441 47.4267 8.23736C47.277 8.44031 47.2005 8.73799 47.1971 9.13041V9.45631C47.1971 9.85378 47.2685 10.1569 47.4114 10.3658C47.5543 10.5746 47.7636 10.6791 48.0393 10.6791C48.2913 10.6791 48.4807 10.6226 48.6075 10.5098C48.7344 10.3969 48.8147 10.2092 48.8485 9.94642H49.4878Z" fill="white"/>
<path d="M52.7298 7.98119H51.5781V11.1441H50.9414V7.98119H49.7998V7.46582H52.7298V7.98119Z" fill="white"/>
<path d="M54.5435 9.38835L55.2843 7.46582H55.9971L54.711 10.5176L54.5943 10.7475C54.4251 11.0473 54.1512 11.1972 53.7723 11.1972L53.5085 11.182L53.5136 10.6768C53.5542 10.6835 53.6261 10.6869 53.7292 10.6869C53.9119 10.6869 54.0404 10.6094 54.1148 10.4545L54.2467 10.1437L52.9834 7.46582H53.6836L54.5435 9.38835Z" fill="white"/>
<path d="M59.4095 11.1441H58.7702V7.98119H57.1442V11.1441H56.5049V7.46582H59.4095V11.1441Z" fill="white"/>
<path d="M63.1151 11.1441H62.4759V9.50962H60.8244V11.1441H60.1826V7.46582H60.8244V8.99677H62.4759V7.46582H63.1151V11.1441Z" fill="white"/>
<path d="M66.8222 9.40073C66.8222 9.76115 66.7597 10.0774 66.6345 10.3494C66.5094 10.6214 66.3305 10.8302 66.098 10.9759C65.8655 11.1216 65.5978 11.1944 65.2951 11.1944C64.9958 11.1944 64.729 11.1216 64.4947 10.9759C64.2605 10.8302 64.0796 10.6226 63.9519 10.3532C63.8242 10.0837 63.7595 9.77294 63.7578 9.42094V9.21378C63.7578 8.85504 63.8217 8.53841 63.9493 8.26388C64.077 7.98936 64.2571 7.77925 64.4897 7.63357C64.7222 7.48788 64.989 7.41504 65.29 7.41504C65.5911 7.41504 65.8578 7.48704 66.0904 7.63104C66.3229 7.77504 66.5026 7.9822 66.6295 8.25252C66.7563 8.52283 66.8206 8.83736 66.8222 9.1961V9.40073ZM66.1804 9.20873C66.1804 8.80115 66.1031 8.48873 65.9483 8.27146C65.7936 8.0542 65.5741 7.94557 65.29 7.94557C65.0127 7.94557 64.7958 8.05378 64.6393 8.2702C64.4829 8.48662 64.403 8.79273 64.3996 9.18852V9.40073C64.3996 9.80494 64.4787 10.1174 64.6368 10.338C64.7949 10.5586 65.0144 10.6689 65.2951 10.6689C65.5792 10.6689 65.7978 10.5612 65.9509 10.3456C66.1039 10.13 66.1804 9.81505 66.1804 9.40073V9.20873Z" fill="white"/>
<path d="M68.7549 11.1441V7.46582H70.0207C70.4385 7.46582 70.7564 7.54919 70.9746 7.71593C71.1927 7.88266 71.3018 8.13109 71.3018 8.46119C71.3018 8.62961 71.2562 8.78119 71.1648 8.91593C71.0735 9.05067 70.9399 9.15509 70.764 9.22919C70.9636 9.28309 71.1179 9.38456 71.227 9.53362C71.3361 9.68267 71.3906 9.86162 71.3906 10.0705C71.3906 10.4157 71.2794 10.681 71.057 10.8663C70.8346 11.0515 70.5163 11.1441 70.1019 11.1441H68.7549ZM69.3967 9.48435V10.6338H70.1095C70.3108 10.6338 70.4681 10.5841 70.5814 10.4848C70.6947 10.3854 70.7513 10.2473 70.7513 10.0705C70.7513 9.68814 70.5552 9.49277 70.1628 9.48435H69.3967ZM69.3967 9.01446H70.0258C70.2254 9.01446 70.3814 8.9694 70.4938 8.8793C70.6063 8.78919 70.6625 8.66161 70.6625 8.49656C70.6625 8.31467 70.6105 8.1833 70.5065 8.10245C70.4025 8.02161 70.2406 7.98119 70.0207 7.98119H69.3967V9.01446Z" fill="white"/>
<path d="M41.8535 18.4903H40.3386V21.4916H38.9795V13.7021H41.73C42.6325 13.7021 43.329 13.9037 43.8197 14.3067C44.3103 14.7097 44.5556 15.2928 44.5556 16.0561C44.5556 16.5768 44.4294 17.0128 44.1769 17.3641C43.9244 17.7154 43.5726 17.9856 43.1213 18.1746L44.878 21.422V21.4916H43.4222L41.8535 18.4903ZM40.3386 17.4043H41.7353C42.1937 17.4043 42.5519 17.2892 42.8097 17.0592C43.0676 16.8291 43.1965 16.5144 43.1965 16.1149C43.1965 15.6976 43.0774 15.3749 42.8393 15.1466C42.6011 14.9184 42.2457 14.8007 41.7729 14.7935H40.3386V17.4043Z" fill="white"/>
<path d="M49.2404 20.9246C48.8572 21.374 48.3128 21.5987 47.6073 21.5987C46.9769 21.5987 46.4997 21.415 46.1756 21.0476C45.8515 20.6803 45.6895 20.1489 45.6895 19.4534V15.7031H46.9949V19.4373C46.9949 20.172 47.3011 20.5394 47.9135 20.5394C48.5474 20.5394 48.9753 20.3129 49.1974 19.86V15.7031H50.5028V21.4917H49.2726L49.2404 20.9246Z" fill="white"/>
<path d="M53.72 13.7021L55.9763 19.6726L58.2272 13.7021H59.9838V21.4916H58.6301V18.9236L58.7644 15.489L56.4544 21.4916H55.4821L53.1775 15.4944L53.3118 18.9236V21.4916H51.958V13.7021H53.72Z" fill="white"/>
<path d="M64.9367 21.4922C64.8794 21.3817 64.8292 21.2016 64.7862 20.9519C64.3708 21.3834 63.8623 21.5992 63.2606 21.5992C62.6768 21.5992 62.2005 21.4334 61.8316 21.1017C61.4628 20.77 61.2783 20.3598 61.2783 19.8712C61.2783 19.2542 61.5084 18.7807 61.9686 18.4508C62.4288 18.1209 63.0869 17.956 63.9428 17.956H64.7433V17.5761C64.7433 17.2765 64.6591 17.0367 64.4908 16.8566C64.3225 16.6765 64.0664 16.5864 63.7226 16.5864C63.4253 16.5864 63.1818 16.6604 62.992 16.8084C62.8022 16.9564 62.7073 17.1446 62.7073 17.3728H61.4019C61.4019 17.0554 61.5075 16.7585 61.7188 16.4821C61.9301 16.2057 62.2175 15.989 62.581 15.8321C62.9445 15.6751 63.3501 15.5967 63.7978 15.5967C64.4783 15.5967 65.0208 15.767 65.4255 16.1076C65.8302 16.4482 66.0379 16.927 66.0487 17.544V20.1548C66.0487 20.6755 66.1221 21.091 66.2689 21.4013V21.4922H64.9367ZM63.5023 20.556C63.7602 20.556 64.0028 20.4936 64.2302 20.3688C64.4577 20.2439 64.6287 20.0763 64.7433 19.8659V18.7745H64.0395C63.5561 18.7745 63.1925 18.8583 62.949 19.0259C62.7055 19.1936 62.5837 19.4307 62.5837 19.7375C62.5837 19.9871 62.667 20.186 62.8335 20.334C63.0001 20.482 63.223 20.556 63.5023 20.556Z" fill="white"/>
<path d="M70.46 16.8913C70.2881 16.8628 70.1108 16.8485 69.9282 16.8485C69.3301 16.8485 68.9272 17.0768 68.7195 17.5333V21.4922H67.4141V15.7037H68.6604L68.6926 16.351C69.0078 15.8481 69.4447 15.5967 70.0034 15.5967C70.1896 15.5967 70.3436 15.6216 70.4654 15.6716L70.46 16.8913Z" fill="white"/>
<path d="M73.1727 19.0095L72.5925 19.6033V21.4918H71.2871V13.2744H72.5925V18.0144L73.0008 17.5062L74.607 15.7033H76.1756L74.0161 18.116L76.4066 21.4918H74.8971L73.1727 19.0095Z" fill="white"/>
<path d="M79.5864 21.5992C78.7591 21.5992 78.0885 21.3398 77.5746 20.8208C77.0607 20.3019 76.8037 19.6109 76.8037 18.7477V18.5873C76.8037 18.0095 76.9156 17.4932 77.1395 17.0385C77.3633 16.5837 77.6776 16.2297 78.0823 15.9765C78.4869 15.7233 78.9382 15.5967 79.436 15.5967C80.2275 15.5967 80.839 15.8481 81.2705 16.351C81.7021 16.8539 81.9179 17.5654 81.9179 18.4856V19.0099H78.1199C78.1593 19.4878 78.3195 19.8659 78.6007 20.1441C78.8818 20.4223 79.2354 20.5614 79.6616 20.5614C80.2597 20.5614 80.7468 20.3206 81.1228 19.8391L81.8265 20.5079C81.5938 20.8538 81.2831 21.1222 80.8945 21.313C80.5059 21.5038 80.0699 21.5992 79.5864 21.5992ZM79.4306 16.6399C79.0725 16.6399 78.7833 16.7647 78.563 17.0144C78.3428 17.2641 78.2022 17.6118 78.1413 18.0576H80.6286V17.9613C80.5999 17.5262 80.4835 17.1972 80.2794 16.9743C80.0753 16.7514 79.7923 16.6399 79.4306 16.6399Z" fill="white"/>
<path d="M84.5663 14.2959V15.7029H85.5924V16.6659H84.5663V19.8972C84.5663 20.1183 84.6102 20.2779 84.6979 20.376C84.7857 20.4741 84.9423 20.5231 85.168 20.5231C85.3184 20.5231 85.4706 20.5053 85.6246 20.4696V21.4754C85.3273 21.5574 85.0408 21.5985 84.7651 21.5985C83.7623 21.5985 83.2609 21.0474 83.2609 19.9454V16.6659H82.3047V15.7029H83.2609V14.2959H84.5663Z" fill="white"/>
</g>
<defs>
<clipPath id="clip0_2485_62131">
<rect width="97" height="28" fill="white" transform="translate(0.900391 0.492188)"/>
</clipPath>
</defs>
</svg>
