<svg width="97" height="28" viewBox="0 0 97 28" fill="none" xmlns="http://www.w3.org/2000/svg">
<path d="M92.2152 0.280273H4.7968C2.35902 0.280273 0.382812 1.99353 0.382812 4.10694V23.8936C0.382812 26.007 2.35902 27.7203 4.7968 27.7203H92.2152C94.653 27.7203 96.6292 26.007 96.6292 23.8936V4.10694C96.6292 1.99353 94.653 0.280273 92.2152 0.280273Z" fill="black"/>
<path d="M21.5073 17.3205L23.2591 17.6999C24.0522 17.8716 24.821 17.3543 24.821 16.6489V9.33208C24.821 8.71102 24.3315 8.16952 23.6332 8.0183L18.6107 6.93061C17.8176 6.75885 17.0488 7.27622 17.0488 7.98163V9.30063L13.8843 8.6153C13.0912 8.44354 12.3223 8.9609 12.3223 9.66631V10.9853L9.15767 10.3C8.36458 10.1282 7.5957 10.6456 7.5957 11.351V18.6678C7.5957 19.2888 8.0853 19.8303 8.78355 19.9815L13.806 21.0692C14.5991 21.241 15.368 20.7236 15.368 20.0182L15.3693 12.7112C15.3693 12.094 14.9186 11.737 14.7552 11.6273C14.724 11.6064 14.7154 11.5674 14.7377 11.5392C14.7597 11.5115 14.7993 11.4984 14.8365 11.5082C15.4982 11.6814 16.1315 12.2696 16.1947 13.0091L16.4131 18.5969C16.4203 18.7804 16.5572 18.9395 16.7542 18.9995L18.5326 19.3846C19.3257 19.5564 20.0946 19.0389 20.0946 18.3335L20.0959 11.0282C20.0959 10.4109 19.6461 10.0531 19.4827 9.94342C19.4516 9.92251 19.4429 9.8835 19.4652 9.85531C19.4873 9.82759 19.5269 9.81453 19.5641 9.82423C20.2258 9.99746 20.8591 10.5856 20.9223 11.3252L21.1407 16.9126C21.1483 17.1036 21.2968 17.2678 21.5073 17.3205Z" fill="white"/>
<path d="M40.7822 22.8759H39.1948L36.6762 19.5489H35.3511V22.8759H34V14.1241H37.2533C37.883 14.1241 38.4471 14.24 38.9456 14.4717C39.4441 14.7035 39.8289 15.0262 40.1 15.44C40.3798 15.8455 40.5198 16.3131 40.5198 16.8427C40.5198 17.5049 40.3055 18.0717 39.877 18.5434C39.4484 19.0069 38.8756 19.3131 38.1585 19.4621L40.7822 22.8759ZM35.3511 15.3034V18.3821H37.2533C37.8131 18.3821 38.2634 18.2414 38.6045 17.96C38.9543 17.6703 39.1293 17.2979 39.1293 16.8427C39.1293 16.3876 38.9543 16.0193 38.6045 15.7379C38.2634 15.4482 37.8131 15.3034 37.2533 15.3034H35.3511ZM44.3674 23C43.8865 23 43.4536 22.8883 43.0688 22.6648C42.6839 22.4331 42.3822 22.1186 42.1636 21.7214C41.9449 21.3159 41.8356 20.8607 41.8356 20.3559V16.458H43.1212V20.2566C43.1212 20.7449 43.2655 21.1421 43.5542 21.4482C43.8427 21.7545 44.2144 21.9076 44.6692 21.9076C45.1414 21.9076 45.535 21.7504 45.8499 21.4359C46.1647 21.1214 46.3221 20.7283 46.3221 20.2566V16.458H47.6077V22.8759H46.6894L46.3877 21.9076C46.169 22.2552 45.8804 22.5242 45.5219 22.7145C45.172 22.9048 44.7873 23 44.3674 23ZM52.4003 23C51.552 23 50.813 22.7931 50.1833 22.3794C49.5623 21.9572 49.1382 21.3862 48.9108 20.6662L50.2095 20.4676C50.4631 20.931 50.7649 21.2745 51.1147 21.4979C51.4645 21.7131 51.8931 21.8207 52.4003 21.8207C52.9163 21.8207 53.3361 21.7131 53.6596 21.4979C53.9832 21.2745 54.145 20.9724 54.145 20.5917C54.145 20.3104 54.0532 20.0745 53.8696 19.8841C53.6947 19.6938 53.4716 19.5407 53.2006 19.4248C52.9294 19.309 52.5752 19.1807 52.1379 19.04C51.552 18.8579 51.071 18.6759 50.6949 18.4938C50.3189 18.3117 49.9996 18.0551 49.7373 17.7242C49.4836 17.3848 49.3568 16.9545 49.3568 16.4331C49.3568 15.9449 49.4836 15.5186 49.7373 15.1545C49.9996 14.7821 50.3582 14.4965 50.813 14.2979C51.2678 14.0993 51.775 14 52.3347 14C53.113 14 53.7821 14.1945 54.3418 14.5835C54.9016 14.9641 55.2994 15.4896 55.5356 16.1599L54.2631 16.3586C54.0882 15.9779 53.8389 15.6883 53.5154 15.4896C53.1917 15.2827 52.8113 15.1793 52.3741 15.1793C51.9018 15.1793 51.5126 15.2869 51.2065 15.502C50.9004 15.709 50.7474 15.9945 50.7474 16.3586C50.7474 16.6317 50.8349 16.8634 51.0098 17.0538C51.1934 17.2441 51.4164 17.3972 51.6788 17.5131C51.9499 17.629 52.3085 17.7614 52.7545 17.9103C53.3229 18.0924 53.7952 18.2786 54.1712 18.4689C54.5561 18.6511 54.8797 18.9117 55.142 19.251C55.4044 19.5903 55.5356 20.0166 55.5356 20.5297C55.5356 21.0262 55.3957 21.4607 55.1158 21.8331C54.8446 22.2055 54.4686 22.4951 53.9876 22.7021C53.5154 22.9007 52.9862 23 52.4003 23ZM60.9661 21.8083L60.848 22.8759H59.6542C58.9458 22.8759 58.4079 22.7103 58.0407 22.3794C57.6734 22.0483 57.4897 21.5725 57.4897 20.9517V17.5379H56.3221V16.458H57.4897L57.8439 14.5958H58.7753V16.458H60.848V17.5379H58.7753V20.9517C58.7753 21.5227 59.0683 21.8083 59.6542 21.8083H60.9661ZM65.2533 23C64.5625 23 63.9459 22.8593 63.4037 22.578C62.8614 22.2965 62.4372 21.9034 62.1311 21.3986C61.825 20.8938 61.672 20.3186 61.672 19.6731C61.672 19.0276 61.825 18.4524 62.1311 17.9476C62.4372 17.4427 62.8614 17.0497 63.4037 16.7682C63.9459 16.4786 64.5625 16.3338 65.2533 16.3338C65.9442 16.3338 66.5608 16.4786 67.103 16.7682C67.6452 17.0497 68.0694 17.4427 68.3755 17.9476C68.6815 18.4524 68.8346 19.0276 68.8346 19.6731C68.8346 20.3186 68.6815 20.8938 68.3755 21.3986C68.0694 21.9034 67.6452 22.2965 67.103 22.578C66.5608 22.8593 65.9442 23 65.2533 23ZM65.2533 21.8827C65.918 21.8827 66.4558 21.68 66.8669 21.2745C67.2866 20.869 67.4965 20.3352 67.4965 19.6731C67.4965 19.011 67.2866 18.4772 66.8669 18.0717C66.4558 17.6579 65.918 17.451 65.2533 17.451C64.5887 17.451 64.0508 17.6579 63.6398 18.0717C63.2287 18.4772 63.0232 19.011 63.0232 19.6731C63.0232 20.3269 63.2287 20.8607 63.6398 21.2745C64.0508 21.68 64.5887 21.8827 65.2533 21.8827ZM70.2133 22.8759V16.458H71.1447L71.4202 17.3765C71.6213 17.0538 71.8705 16.8221 72.1679 16.6814C72.4652 16.5324 72.8194 16.458 73.2305 16.458H73.5453L73.6502 17.6249H72.9157C72.4433 17.6249 72.0892 17.7531 71.8531 18.0096C71.6169 18.2662 71.4989 18.6138 71.4989 19.0524V22.8759H70.2133ZM81 19.6235C81 19.7889 80.9956 19.9173 80.9869 20.0082H75.3854C75.4553 20.5793 75.6915 21.0344 76.0938 21.3738C76.4961 21.7131 77.0077 21.8827 77.6286 21.8827C78.0571 21.8827 78.4376 21.8041 78.7699 21.6469C79.111 21.4814 79.369 21.2662 79.5439 21.0014L80.7508 21.1876C80.4885 21.7669 80.0643 22.2138 79.4783 22.5283C78.9011 22.8428 78.2583 23 77.5499 23C76.8765 23 76.2731 22.8593 75.7396 22.578C75.2061 22.2883 74.7907 21.8911 74.4934 21.3862C74.196 20.8814 74.0473 20.3104 74.0473 19.6731C74.0473 19.0276 74.196 18.4524 74.4934 17.9476C74.7907 17.4427 75.2017 17.0497 75.7265 16.7682C76.2512 16.4786 76.8502 16.3338 77.5236 16.3338C78.1883 16.3338 78.783 16.4786 79.3078 16.7682C79.8412 17.0497 80.2567 17.4427 80.554 17.9476C80.8514 18.4441 81 19.0027 81 19.6235ZM77.5236 17.4138C77.0077 17.4138 76.5617 17.5586 76.1856 17.8483C75.8183 18.138 75.5734 18.5269 75.451 19.0152H79.5964C79.4826 18.5352 79.2378 18.1503 78.8617 17.8607C78.4944 17.5628 78.0484 17.4138 77.5236 17.4138Z" fill="white"/>
<path d="M34 10.8516V9.35168H34.1051C34.2414 9.35168 34.3503 9.32049 34.4321 9.25823C34.5139 9.19596 34.5819 9.07142 34.6365 8.8846C34.6948 8.69413 34.7396 8.41391 34.7708 8.04395L34.9401 6H37.5327V9.35168H38.1341V10.8516H37.5327V9.87361H34.6015V10.8516H34ZM36.9312 9.35168V6.52197H35.4948L35.3722 8.07142C35.3255 8.69047 35.2048 9.11721 35.0102 9.35168H36.9312ZM40.046 9.92859C39.7385 9.92859 39.464 9.86631 39.2226 9.74173C38.9813 9.61723 38.7925 9.4432 38.6562 9.21977C38.52 8.99632 38.4518 8.74175 38.4518 8.45603C38.4518 8.17032 38.52 7.91574 38.6562 7.6923C38.7925 7.46886 38.9813 7.29486 39.2226 7.17032C39.464 7.04212 39.7385 6.97801 40.046 6.97801C40.3535 6.97801 40.6279 7.04212 40.8693 7.17032C41.1106 7.29486 41.2994 7.46886 41.4356 7.6923C41.5719 7.91574 41.64 8.17032 41.64 8.45603C41.64 8.74175 41.5719 8.99632 41.4356 9.21977C41.2994 9.4432 41.1106 9.61723 40.8693 9.74173C40.6279 9.86631 40.3535 9.92859 40.046 9.92859ZM40.046 9.43402C40.3418 9.43402 40.5812 9.34428 40.7642 9.16483C40.951 8.98534 41.0444 8.74907 41.0444 8.45603C41.0444 8.16299 40.951 7.92673 40.7642 7.74725C40.5812 7.56409 40.3418 7.47252 40.046 7.47252C39.7501 7.47252 39.5107 7.56409 39.3277 7.74725C39.1448 7.92673 39.0533 8.16299 39.0533 8.45603C39.0533 8.74541 39.1448 8.98167 39.3277 9.16483C39.5107 9.34428 39.7501 9.43402 40.046 9.43402ZM43.6434 9.92859C43.3436 9.92859 43.0731 9.86631 42.8318 9.74173C42.5943 9.61358 42.4094 9.43767 42.277 9.21428C42.1447 8.99083 42.0785 8.73808 42.0785 8.45603C42.0785 8.17032 42.1447 7.91574 42.277 7.6923C42.4094 7.46886 42.5943 7.29486 42.8318 7.17032C43.0692 7.04212 43.3398 6.97801 43.6434 6.97801C43.9665 6.97801 44.2546 7.05127 44.5075 7.19779C44.7645 7.34431 44.9474 7.55494 45.0564 7.82967L44.5193 7.91208C44.4492 7.78021 44.3382 7.67399 44.1864 7.5934C44.0385 7.51282 43.8692 7.47252 43.6784 7.47252C43.3826 7.47252 43.1413 7.56409 42.9543 7.74725C42.7715 7.9304 42.68 8.16666 42.68 8.45603C42.68 8.74541 42.7715 8.98167 42.9543 9.16483C43.1413 9.34428 43.3826 9.43402 43.6784 9.43402C43.8769 9.43402 44.0521 9.39196 44.2039 9.30766C44.3596 9.22343 44.4725 9.11171 44.5426 8.97251L45.0798 9.05493C44.9708 9.33332 44.784 9.54942 44.5193 9.70332C44.2585 9.85347 43.9665 9.92859 43.6434 9.92859ZM46.8465 9.87361H46.2743V7.52747H45.2291V7.03296H47.8918V7.52747H46.8465V9.87361ZM50.5951 7.03296H51.1848L49.9236 10.3022C49.8302 10.5476 49.7076 10.7253 49.5558 10.8351C49.404 10.945 49.2015 11 48.9485 11H48.4989L48.4463 10.5055H48.9836C49.0965 10.5055 49.184 10.4816 49.2463 10.434C49.3086 10.3901 49.3612 10.3113 49.404 10.1978L49.4682 10.0329L48.1252 7.03296H48.7383L49.6959 9.22526H49.7777L50.5951 7.03296ZM52.2746 9.87361H51.7023V7.03296H54.2716V9.87361H53.6993V7.52747H52.2746V9.87361ZM57.0871 8.1923V7.03296H57.6594V9.87361H57.0871V8.68681H55.6332V9.87361H55.061V7.03296H55.6332V8.1923H57.0871ZM59.867 9.92859C59.5595 9.92859 59.285 9.86631 59.0437 9.74173C58.8023 9.61723 58.6135 9.4432 58.4773 9.21977C58.3411 8.99632 58.273 8.74175 58.273 8.45603C58.273 8.17032 58.3411 7.91574 58.4773 7.6923C58.6135 7.46886 58.8023 7.29486 59.0437 7.17032C59.285 7.04212 59.5595 6.97801 59.867 6.97801C60.1746 6.97801 60.4489 7.04212 60.6903 7.17032C60.9317 7.29486 61.1205 7.46886 61.2567 7.6923C61.3929 7.91574 61.4611 8.17032 61.4611 8.45603C61.4611 8.74175 61.3929 8.99632 61.2567 9.21977C61.1205 9.4432 60.9317 9.61723 60.6903 9.74173C60.4489 9.86631 60.1746 9.92859 59.867 9.92859ZM59.867 9.43402C60.1628 9.43402 60.4022 9.34428 60.5852 9.16483C60.7721 8.98534 60.8655 8.74907 60.8655 8.45603C60.8655 8.16299 60.7721 7.92673 60.5852 7.74725C60.4022 7.56409 60.1628 7.47252 59.867 7.47252C59.5711 7.47252 59.3317 7.56409 59.1488 7.74725C58.9658 7.92673 58.8743 8.16299 58.8743 8.45603C58.8743 8.74541 58.9658 8.98167 59.1488 9.16483C59.3317 9.34428 59.5711 9.43402 59.867 9.43402ZM65.4803 8.38461C65.6361 8.43955 65.7606 8.52929 65.8541 8.65384C65.9513 8.77472 66 8.91757 66 9.08241C66 9.23259 65.9533 9.36808 65.8598 9.489C65.7703 9.60984 65.6438 9.7051 65.4803 9.7747C65.3168 9.84064 65.13 9.87361 64.9197 9.87361H63.4775V7.03296H64.8672C65.0658 7.03296 65.2429 7.06592 65.3985 7.13186C65.5542 7.19779 65.675 7.28754 65.7606 7.4011C65.8501 7.51464 65.8949 7.64469 65.8949 7.7912C65.8949 7.9304 65.8579 8.05127 65.784 8.15384C65.7139 8.25274 65.6127 8.32966 65.4803 8.38461ZM64.0497 7.48901V8.1868H64.8672C64.9996 8.1868 65.1086 8.15567 65.1942 8.0934C65.2799 8.02746 65.3227 7.94321 65.3227 7.84065C65.3227 7.73809 65.2799 7.65384 65.1942 7.5879C65.1086 7.52197 64.9996 7.48901 64.8672 7.48901H64.0497ZM64.9197 9.41754C65.0715 9.41754 65.1942 9.38091 65.2876 9.30766C65.381 9.23442 65.4278 9.13918 65.4278 9.02197C65.4278 8.90475 65.381 8.80952 65.2876 8.73626C65.1942 8.663 65.0715 8.62636 64.9197 8.62636H64.0497V9.41754H64.9197Z" fill="white"/>
<path d="M92.7029 0C95.0413 0 96.9478 1.85616 96.9989 4.16507L97 4.26021V23.7398C97 26.0602 95.1278 27.9484 92.7989 27.999L92.7029 28H4.29707C1.95873 28 0.0521539 26.1438 0.00105187 23.8349L0 23.7398V4.26021C0 1.93982 1.87222 0.0516496 4.20111 0.00104169L4.29707 0H92.7029ZM92.7029 0.608696H4.29707C2.29445 0.608696 0.664761 2.19404 0.61509 4.16743L0.613924 4.26021V23.7398C0.613924 25.7244 2.2143 27.3409 4.20354 27.3901L4.29707 27.3913H92.7029C94.7055 27.3913 96.3352 25.806 96.3849 23.8326L96.3861 23.7398V4.26021C96.3861 2.27558 94.7857 0.65912 92.7965 0.609853L92.7029 0.608696Z" fill="black"/>
<path d="M92.7029 0C95.0413 0 96.9478 1.85616 96.9989 4.16507L97 4.26021V23.7398C97 26.0602 95.1278 27.9484 92.7989 27.999L92.7029 28H4.29707C1.95873 28 0.0521539 26.1438 0.00105187 23.8349L0 23.7398V4.26021C0 1.93982 1.87222 0.0516496 4.20111 0.00104169L4.29707 0H92.7029ZM92.7029 0.608696H4.29707C2.29445 0.608696 0.664761 2.19404 0.61509 4.16743L0.613924 4.26021V23.7398C0.613924 25.7244 2.2143 27.3409 4.20354 27.3901L4.29707 27.3913H92.7029C94.7055 27.3913 96.3352 25.806 96.3849 23.8326L96.3861 23.7398V4.26021C96.3861 2.27558 94.7857 0.65912 92.7965 0.609853L92.7029 0.608696Z" fill="black"/>
</svg>
