<svg xmlns="http://www.w3.org/2000/svg" xmlns:xlink="http://www.w3.org/1999/xlink" viewBox="0 0 493.43 292.27"><defs><style>.e8a0e670-824e-4652-8be8-f215fbc1bfd6{fill:url(#b92b26ec-1dbf-47c8-909e-33339c73cb92);}.b256263d-7ba2-4e2a-952e-e97cd640d158{fill:#00c864;}.ab13b94d-d510-4316-992a-3c4196a49885{fill:#0032c8;}.a852e12d-b8ce-4f57-895f-ce093dac004a{fill:url(#bfc33d33-fbfc-4f31-8571-a79e3817cad2);}.e3c5a40b-846f-4113-a517-8bdf20772bfd{fill:#247782;}.f74712d6-1835-4dd1-a926-997979751730{fill:#4e8f99;}.ee9ece1a-7c40-489b-9d51-691ed5453894{fill:#dcb9ba;}.a113e235-ba2f-4b0b-8559-56fa1a7b7215,.a57123d0-5aaf-46f8-a247-28fab1b073cf,.b6ab8f76-0237-4b40-a7e8-9bc0d05ed7f9{fill:#fff;}.b4cb4990-de6e-429a-88e7-4ff27e31c19f{fill:#3797f5;}.b3da8d52-5257-4618-9f51-e121f169ad92{fill:#1183d1;}.b6ab8f76-0237-4b40-a7e8-9bc0d05ed7f9,.b75740d6-e35b-4c02-a27e-c1569c4390fb{opacity:0.3;}.a113e235-ba2f-4b0b-8559-56fa1a7b7215{opacity:0.62;}.a2a1b479-19d7-4062-840e-2ee1a512dfe4{fill:#01895d;}.f134b8c8-e538-4af1-807b-abdc21494a93{fill:#2b8ef6;}.b5041c14-d765-4407-b1af-3eef1a49fd7b{fill:#3c4742;}.f3adfbdb-930d-4f0e-97fc-9b0f6e324c19{fill:#ffdcc1;}.a9e1d94c-9d93-4cfd-b430-064713d8ff77{opacity:0.05;}</style><linearGradient id="b92b26ec-1dbf-47c8-909e-33339c73cb92" x1="4.07" y1="106.12" x2="491.33" y2="264.44" gradientUnits="userSpaceOnUse"><stop offset="0" stop-color="#75df36"/><stop offset="1" stop-color="#a6e473"/></linearGradient><linearGradient id="bfc33d33-fbfc-4f31-8571-a79e3817cad2" x1="97.89" y1="75.97" x2="395.14" y2="220.94" gradientUnits="userSpaceOnUse"><stop offset="0" stop-color="#00c8c8"/><stop offset="1" stop-color="#00b42d"/></linearGradient></defs><g id="e403dec5-6869-4612-a875-f73c81bc1a17" data-name="Слой 2"><rect class="e8a0e670-824e-4652-8be8-f215fbc1bfd6" x="10.24" y="87.12" width="474.92" height="196.32"/><rect class="b256263d-7ba2-4e2a-952e-e97cd640d158" y="82.05" width="493.43" height="13.5"/><rect class="ab13b94d-d510-4316-992a-3c4196a49885" x="114.87" width="261.64" height="13.5"/><rect class="a852e12d-b8ce-4f57-895f-ce093dac004a" x="128.38" y="13.47" width="236.28" height="269.98"/><rect class="e3c5a40b-846f-4113-a517-8bdf20772bfd" x="26.83" y="115.17" width="31.21" height="31.77"/><polygon class="f74712d6-1835-4dd1-a926-997979751730" points="51.47 115.17 26.83 128.71 26.83 142.74 58.03 127.02 58.03 115.17 51.47 115.17 51.47 115.17"/><polygon class="f74712d6-1835-4dd1-a926-997979751730" points="26.83 144.52 58.03 128.96 58.03 131.78 26.83 146.94 26.83 144.52"/><rect class="ee9ece1a-7c40-489b-9d51-691ed5453894" x="40.96" y="115.17" width="2.55" height="31.77"/><rect class="ee9ece1a-7c40-489b-9d51-691ed5453894" x="26.83" y="129.84" width="31.21" height="2.58"/><rect class="a57123d0-5aaf-46f8-a247-28fab1b073cf" x="26.83" y="112.31" width="31.21" height="2.86"/><rect class="a57123d0-5aaf-46f8-a247-28fab1b073cf" x="24" y="112.31" width="2.83" height="34.63"/><rect class="a57123d0-5aaf-46f8-a247-28fab1b073cf" x="58.03" y="112.31" width="3.01" height="34.63"/><rect class="a57123d0-5aaf-46f8-a247-28fab1b073cf" x="24" y="146.94" width="37.05" height="3.38"/><rect class="e3c5a40b-846f-4113-a517-8bdf20772bfd" x="76.44" y="115.17" width="31.21" height="31.77"/><polygon class="f74712d6-1835-4dd1-a926-997979751730" points="101.09 115.17 76.44 128.71 76.44 142.74 107.65 127.02 107.65 115.17 101.09 115.17 101.09 115.17"/><polygon class="f74712d6-1835-4dd1-a926-997979751730" points="76.44 144.52 107.65 128.96 107.65 131.78 76.44 146.94 76.44 144.52"/><rect class="ee9ece1a-7c40-489b-9d51-691ed5453894" x="90.58" y="115.17" width="2.55" height="31.77"/><rect class="ee9ece1a-7c40-489b-9d51-691ed5453894" x="76.44" y="129.84" width="31.21" height="2.58"/><rect class="a57123d0-5aaf-46f8-a247-28fab1b073cf" x="76.44" y="112.31" width="31.21" height="2.86"/><rect class="a57123d0-5aaf-46f8-a247-28fab1b073cf" x="73.62" y="112.31" width="2.83" height="34.63"/><rect class="a57123d0-5aaf-46f8-a247-28fab1b073cf" x="107.65" y="112.31" width="3.01" height="34.63"/><rect class="a57123d0-5aaf-46f8-a247-28fab1b073cf" x="73.62" y="146.94" width="37.05" height="3.38"/><rect class="e3c5a40b-846f-4113-a517-8bdf20772bfd" x="26.83" y="165.78" width="31.21" height="31.77"/><polygon class="f74712d6-1835-4dd1-a926-997979751730" points="51.47 165.78 26.83 179.33 26.83 193.36 58.03 177.63 58.03 165.78 51.47 165.78 51.47 165.78"/><polygon class="f74712d6-1835-4dd1-a926-997979751730" points="26.83 195.13 58.03 179.57 58.03 182.39 26.83 197.55 26.83 195.13"/><rect class="ee9ece1a-7c40-489b-9d51-691ed5453894" x="40.96" y="165.78" width="2.55" height="31.77"/><rect class="ee9ece1a-7c40-489b-9d51-691ed5453894" x="26.83" y="180.45" width="31.21" height="2.58"/><rect class="a57123d0-5aaf-46f8-a247-28fab1b073cf" x="26.83" y="162.92" width="31.21" height="2.86"/><rect class="a57123d0-5aaf-46f8-a247-28fab1b073cf" x="24" y="162.92" width="2.83" height="34.63"/><rect class="a57123d0-5aaf-46f8-a247-28fab1b073cf" x="58.03" y="162.92" width="3.01" height="34.63"/><rect class="a57123d0-5aaf-46f8-a247-28fab1b073cf" x="24" y="197.55" width="37.05" height="3.38"/><rect class="e3c5a40b-846f-4113-a517-8bdf20772bfd" x="76.44" y="165.78" width="31.21" height="31.77"/><polygon class="f74712d6-1835-4dd1-a926-997979751730" points="101.09 165.78 76.44 179.33 76.44 193.36 107.65 177.63 107.65 165.78 101.09 165.78 101.09 165.78"/><polygon class="f74712d6-1835-4dd1-a926-997979751730" points="76.44 195.13 107.65 179.57 107.65 182.39 76.44 197.55 76.44 195.13"/><rect class="ee9ece1a-7c40-489b-9d51-691ed5453894" x="90.58" y="165.78" width="2.55" height="31.77"/><rect class="ee9ece1a-7c40-489b-9d51-691ed5453894" x="76.44" y="180.45" width="31.21" height="2.58"/><rect class="a57123d0-5aaf-46f8-a247-28fab1b073cf" x="76.44" y="162.92" width="31.21" height="2.86"/><rect class="a57123d0-5aaf-46f8-a247-28fab1b073cf" x="73.62" y="162.92" width="2.83" height="34.63"/><rect class="a57123d0-5aaf-46f8-a247-28fab1b073cf" x="107.65" y="162.92" width="3.01" height="34.63"/><rect class="a57123d0-5aaf-46f8-a247-28fab1b073cf" x="73.62" y="197.55" width="37.05" height="3.38"/><rect class="e3c5a40b-846f-4113-a517-8bdf20772bfd" x="26.83" y="216.39" width="31.21" height="31.77"/><polygon class="f74712d6-1835-4dd1-a926-997979751730" points="51.47 216.39 26.83 229.94 26.83 243.97 58.03 228.25 58.03 216.39 51.47 216.39 51.47 216.39"/><polygon class="f74712d6-1835-4dd1-a926-997979751730" points="26.83 245.74 58.03 230.18 58.03 233 26.83 248.16 26.83 245.74"/><rect class="ee9ece1a-7c40-489b-9d51-691ed5453894" x="40.96" y="216.39" width="2.55" height="31.77"/><rect class="ee9ece1a-7c40-489b-9d51-691ed5453894" x="26.83" y="231.07" width="31.21" height="2.58"/><rect class="a57123d0-5aaf-46f8-a247-28fab1b073cf" x="26.83" y="213.53" width="31.21" height="2.86"/><rect class="a57123d0-5aaf-46f8-a247-28fab1b073cf" x="24" y="213.53" width="2.83" height="34.63"/><rect class="a57123d0-5aaf-46f8-a247-28fab1b073cf" x="58.03" y="213.53" width="3.01" height="34.63"/><rect class="a57123d0-5aaf-46f8-a247-28fab1b073cf" x="24" y="248.16" width="37.05" height="3.38"/><rect class="e3c5a40b-846f-4113-a517-8bdf20772bfd" x="76.44" y="216.39" width="31.21" height="31.77"/><polygon class="f74712d6-1835-4dd1-a926-997979751730" points="101.09 216.39 76.44 229.94 76.44 243.97 107.65 228.25 107.65 216.39 101.09 216.39 101.09 216.39"/><polygon class="f74712d6-1835-4dd1-a926-997979751730" points="76.44 245.74 107.65 230.18 107.65 233 76.44 248.16 76.44 245.74"/><rect class="ee9ece1a-7c40-489b-9d51-691ed5453894" x="90.58" y="216.39" width="2.55" height="31.77"/><rect class="ee9ece1a-7c40-489b-9d51-691ed5453894" x="76.44" y="231.07" width="31.21" height="2.58"/><rect class="a57123d0-5aaf-46f8-a247-28fab1b073cf" x="76.44" y="213.53" width="31.21" height="2.86"/><rect class="a57123d0-5aaf-46f8-a247-28fab1b073cf" x="73.62" y="213.53" width="2.83" height="34.63"/><rect class="a57123d0-5aaf-46f8-a247-28fab1b073cf" x="107.65" y="213.53" width="3.01" height="34.63"/><rect class="a57123d0-5aaf-46f8-a247-28fab1b073cf" x="73.62" y="248.16" width="37.05" height="3.38"/><rect class="e3c5a40b-846f-4113-a517-8bdf20772bfd" x="433.23" y="115.17" width="31.21" height="31.77"/><polygon class="f74712d6-1835-4dd1-a926-997979751730" points="457.87 115.17 433.23 128.71 433.23 142.74 464.43 127.02 464.43 115.17 457.87 115.17 457.87 115.17"/><polygon class="f74712d6-1835-4dd1-a926-997979751730" points="433.23 144.52 464.43 128.96 464.43 131.78 433.23 146.94 433.23 144.52"/><rect class="ee9ece1a-7c40-489b-9d51-691ed5453894" x="447.36" y="115.17" width="2.55" height="31.77"/><rect class="ee9ece1a-7c40-489b-9d51-691ed5453894" x="433.23" y="129.84" width="31.21" height="2.58"/><rect class="a57123d0-5aaf-46f8-a247-28fab1b073cf" x="433.23" y="112.31" width="31.21" height="2.86"/><rect class="a57123d0-5aaf-46f8-a247-28fab1b073cf" x="430.4" y="112.31" width="2.83" height="34.63"/><rect class="a57123d0-5aaf-46f8-a247-28fab1b073cf" x="464.43" y="112.31" width="3.01" height="34.63"/><rect class="a57123d0-5aaf-46f8-a247-28fab1b073cf" x="430.4" y="146.94" width="37.05" height="3.38"/><rect class="e3c5a40b-846f-4113-a517-8bdf20772bfd" x="433.23" y="165.78" width="31.21" height="31.77"/><polygon class="f74712d6-1835-4dd1-a926-997979751730" points="457.87 165.78 433.23 179.33 433.23 193.36 464.43 177.63 464.43 165.78 457.87 165.78 457.87 165.78"/><polygon class="f74712d6-1835-4dd1-a926-997979751730" points="433.23 195.13 464.43 179.57 464.43 182.39 433.23 197.55 433.23 195.13"/><rect class="ee9ece1a-7c40-489b-9d51-691ed5453894" x="447.36" y="165.78" width="2.55" height="31.77"/><rect class="ee9ece1a-7c40-489b-9d51-691ed5453894" x="433.23" y="180.45" width="31.21" height="2.58"/><rect class="a57123d0-5aaf-46f8-a247-28fab1b073cf" x="433.23" y="162.92" width="31.21" height="2.86"/><rect class="a57123d0-5aaf-46f8-a247-28fab1b073cf" x="430.4" y="162.92" width="2.83" height="34.63"/><rect class="a57123d0-5aaf-46f8-a247-28fab1b073cf" x="464.43" y="162.92" width="3.01" height="34.63"/><rect class="a57123d0-5aaf-46f8-a247-28fab1b073cf" x="430.4" y="197.55" width="37.05" height="3.38"/><rect class="e3c5a40b-846f-4113-a517-8bdf20772bfd" x="433.23" y="216.39" width="31.21" height="31.77"/><polygon class="f74712d6-1835-4dd1-a926-997979751730" points="457.87 216.39 433.23 229.94 433.23 243.97 464.43 228.25 464.43 216.39 457.87 216.39 457.87 216.39"/><polygon class="f74712d6-1835-4dd1-a926-997979751730" points="433.23 245.74 464.43 230.18 464.43 233 433.23 248.16 433.23 245.74"/><rect class="ee9ece1a-7c40-489b-9d51-691ed5453894" x="447.36" y="216.39" width="2.55" height="31.77"/><rect class="ee9ece1a-7c40-489b-9d51-691ed5453894" x="433.23" y="231.07" width="31.21" height="2.58"/><rect class="a57123d0-5aaf-46f8-a247-28fab1b073cf" x="433.23" y="213.53" width="31.21" height="2.86"/><rect class="a57123d0-5aaf-46f8-a247-28fab1b073cf" x="430.4" y="213.53" width="2.83" height="34.63"/><rect class="a57123d0-5aaf-46f8-a247-28fab1b073cf" x="464.43" y="213.53" width="3.01" height="34.63"/><rect class="a57123d0-5aaf-46f8-a247-28fab1b073cf" x="430.4" y="248.16" width="37.05" height="3.38"/><rect class="b4cb4990-de6e-429a-88e7-4ff27e31c19f" x="10.24" y="272.76" width="474.92" height="10.68"/><rect class="b3da8d52-5257-4618-9f51-e121f169ad92" x="10.24" y="95.54" width="118.14" height="8.75"/><rect class="b3da8d52-5257-4618-9f51-e121f169ad92" x="364.66" y="95.54" width="120.5" height="8.75"/><rect class="b4cb4990-de6e-429a-88e7-4ff27e31c19f" y="82.05" width="128.38" height="6.75"/><rect class="b4cb4990-de6e-429a-88e7-4ff27e31c19f" x="364.66" y="82.05" width="128.77" height="6.75"/><g class="b75740d6-e35b-4c02-a27e-c1569c4390fb"><rect class="a57123d0-5aaf-46f8-a247-28fab1b073cf" x="133.5" y="14.91" width="34.04" height="8.69"/><rect class="a57123d0-5aaf-46f8-a247-28fab1b073cf" x="136.74" y="26.96" width="34.04" height="8.69"/><rect class="a57123d0-5aaf-46f8-a247-28fab1b073cf" x="133.5" y="39.01" width="34.04" height="8.69"/><rect class="a57123d0-5aaf-46f8-a247-28fab1b073cf" x="143.23" y="51.06" width="34.04" height="8.69"/><rect class="a57123d0-5aaf-46f8-a247-28fab1b073cf" x="133.5" y="63.11" width="34.04" height="8.69"/><rect class="a57123d0-5aaf-46f8-a247-28fab1b073cf" x="133.5" y="75.16" width="34.04" height="8.69"/><rect class="a57123d0-5aaf-46f8-a247-28fab1b073cf" x="139.99" y="87.21" width="34.04" height="8.69"/><rect class="a57123d0-5aaf-46f8-a247-28fab1b073cf" x="133.5" y="99.26" width="34.04" height="8.69"/><rect class="a57123d0-5aaf-46f8-a247-28fab1b073cf" x="170.78" y="14.79" width="34.04" height="8.69"/><rect class="a57123d0-5aaf-46f8-a247-28fab1b073cf" x="174.02" y="26.84" width="34.04" height="8.69"/><rect class="a57123d0-5aaf-46f8-a247-28fab1b073cf" x="170.78" y="38.89" width="34.04" height="8.69"/><rect class="a57123d0-5aaf-46f8-a247-28fab1b073cf" x="180.5" y="50.95" width="34.04" height="8.69"/><rect class="a57123d0-5aaf-46f8-a247-28fab1b073cf" x="170.78" y="63" width="34.04" height="8.69"/><rect class="a57123d0-5aaf-46f8-a247-28fab1b073cf" x="170.78" y="75.05" width="34.04" height="8.69"/><rect class="a57123d0-5aaf-46f8-a247-28fab1b073cf" x="177.26" y="87.1" width="34.04" height="8.69"/><rect class="a57123d0-5aaf-46f8-a247-28fab1b073cf" x="170.78" y="99.15" width="34.04" height="8.69"/><rect class="a57123d0-5aaf-46f8-a247-28fab1b073cf" x="208.84" y="14.91" width="34.04" height="8.69"/><rect class="a57123d0-5aaf-46f8-a247-28fab1b073cf" x="212.08" y="26.96" width="34.04" height="8.69"/><rect class="a57123d0-5aaf-46f8-a247-28fab1b073cf" x="208.84" y="39.01" width="34.04" height="8.69"/><rect class="a57123d0-5aaf-46f8-a247-28fab1b073cf" x="218.56" y="51.06" width="34.04" height="8.69"/><rect class="a57123d0-5aaf-46f8-a247-28fab1b073cf" x="208.84" y="63.11" width="34.04" height="8.69"/><rect class="a57123d0-5aaf-46f8-a247-28fab1b073cf" x="208.84" y="75.16" width="34.04" height="8.69"/><rect class="a57123d0-5aaf-46f8-a247-28fab1b073cf" x="215.32" y="87.21" width="34.04" height="8.69"/><rect class="a57123d0-5aaf-46f8-a247-28fab1b073cf" x="208.84" y="99.26" width="34.04" height="8.69"/><rect class="a57123d0-5aaf-46f8-a247-28fab1b073cf" x="246.12" y="14.79" width="34.04" height="8.69"/><rect class="a57123d0-5aaf-46f8-a247-28fab1b073cf" x="249.36" y="26.84" width="34.04" height="8.69"/><rect class="a57123d0-5aaf-46f8-a247-28fab1b073cf" x="246.12" y="38.89" width="34.04" height="8.69"/><rect class="a57123d0-5aaf-46f8-a247-28fab1b073cf" x="255.84" y="50.95" width="34.04" height="8.69"/><rect class="a57123d0-5aaf-46f8-a247-28fab1b073cf" x="246.12" y="63" width="34.04" height="8.69"/><rect class="a57123d0-5aaf-46f8-a247-28fab1b073cf" x="246.12" y="75.05" width="34.04" height="8.69"/><rect class="a57123d0-5aaf-46f8-a247-28fab1b073cf" x="252.6" y="87.1" width="34.04" height="8.69"/><rect class="a57123d0-5aaf-46f8-a247-28fab1b073cf" x="246.12" y="99.15" width="34.04" height="8.69"/><rect class="a57123d0-5aaf-46f8-a247-28fab1b073cf" x="282.5" y="14.91" width="34.04" height="8.69"/><rect class="a57123d0-5aaf-46f8-a247-28fab1b073cf" x="285.74" y="26.96" width="34.04" height="8.69"/><rect class="a57123d0-5aaf-46f8-a247-28fab1b073cf" x="282.5" y="39.01" width="34.04" height="8.69"/><rect class="a57123d0-5aaf-46f8-a247-28fab1b073cf" x="292.22" y="51.06" width="34.04" height="8.69"/><rect class="a57123d0-5aaf-46f8-a247-28fab1b073cf" x="282.5" y="63.11" width="34.04" height="8.69"/><rect class="a57123d0-5aaf-46f8-a247-28fab1b073cf" x="282.5" y="75.16" width="34.04" height="8.69"/><rect class="a57123d0-5aaf-46f8-a247-28fab1b073cf" x="288.98" y="87.21" width="34.04" height="8.69"/><rect class="a57123d0-5aaf-46f8-a247-28fab1b073cf" x="282.5" y="99.26" width="34.04" height="8.69"/><rect class="a57123d0-5aaf-46f8-a247-28fab1b073cf" x="319.77" y="14.79" width="34.04" height="8.69"/><rect class="a57123d0-5aaf-46f8-a247-28fab1b073cf" x="323.01" y="26.84" width="34.04" height="8.69"/><rect class="a57123d0-5aaf-46f8-a247-28fab1b073cf" x="319.77" y="38.89" width="34.04" height="8.69"/><rect class="a57123d0-5aaf-46f8-a247-28fab1b073cf" x="329.5" y="50.95" width="34.04" height="8.69"/><rect class="a57123d0-5aaf-46f8-a247-28fab1b073cf" x="319.77" y="63" width="34.04" height="8.69"/><rect class="a57123d0-5aaf-46f8-a247-28fab1b073cf" x="319.77" y="75.05" width="34.04" height="8.69"/><rect class="a57123d0-5aaf-46f8-a247-28fab1b073cf" x="326.26" y="87.1" width="34.04" height="8.69"/><rect class="a57123d0-5aaf-46f8-a247-28fab1b073cf" x="319.77" y="99.15" width="34.04" height="8.69"/></g><g class="b75740d6-e35b-4c02-a27e-c1569c4390fb"><rect class="a57123d0-5aaf-46f8-a247-28fab1b073cf" x="133.5" y="114.33" width="34.04" height="8.69"/><rect class="a57123d0-5aaf-46f8-a247-28fab1b073cf" x="136.74" y="126.38" width="34.04" height="8.69"/><rect class="a57123d0-5aaf-46f8-a247-28fab1b073cf" x="133.5" y="138.43" width="34.04" height="8.69"/><rect class="a57123d0-5aaf-46f8-a247-28fab1b073cf" x="143.23" y="150.48" width="34.04" height="8.69"/><rect class="a57123d0-5aaf-46f8-a247-28fab1b073cf" x="133.5" y="162.53" width="34.04" height="8.69"/><rect class="a57123d0-5aaf-46f8-a247-28fab1b073cf" x="133.5" y="174.58" width="34.04" height="8.69"/><rect class="a57123d0-5aaf-46f8-a247-28fab1b073cf" x="139.99" y="186.63" width="34.04" height="8.69"/><rect class="a57123d0-5aaf-46f8-a247-28fab1b073cf" x="133.5" y="198.68" width="34.04" height="8.69"/><rect class="a57123d0-5aaf-46f8-a247-28fab1b073cf" x="170.78" y="114.21" width="34.04" height="8.69"/><rect class="a57123d0-5aaf-46f8-a247-28fab1b073cf" x="174.02" y="126.26" width="34.04" height="8.69"/><rect class="a57123d0-5aaf-46f8-a247-28fab1b073cf" x="170.78" y="138.31" width="34.04" height="8.69"/><rect class="a57123d0-5aaf-46f8-a247-28fab1b073cf" x="180.5" y="150.36" width="34.04" height="8.69"/><rect class="a57123d0-5aaf-46f8-a247-28fab1b073cf" x="170.78" y="162.41" width="34.04" height="8.69"/><rect class="a57123d0-5aaf-46f8-a247-28fab1b073cf" x="170.78" y="174.46" width="34.04" height="8.69"/><rect class="a57123d0-5aaf-46f8-a247-28fab1b073cf" x="177.26" y="186.51" width="34.04" height="8.69"/><rect class="a57123d0-5aaf-46f8-a247-28fab1b073cf" x="170.78" y="198.57" width="34.04" height="8.69"/><rect class="a57123d0-5aaf-46f8-a247-28fab1b073cf" x="208.84" y="114.33" width="34.04" height="8.69"/><rect class="a57123d0-5aaf-46f8-a247-28fab1b073cf" x="212.08" y="126.38" width="34.04" height="8.69"/><rect class="a57123d0-5aaf-46f8-a247-28fab1b073cf" x="208.84" y="138.43" width="34.04" height="8.69"/><rect class="a57123d0-5aaf-46f8-a247-28fab1b073cf" x="218.56" y="150.48" width="34.04" height="8.69"/><rect class="a57123d0-5aaf-46f8-a247-28fab1b073cf" x="208.84" y="162.53" width="34.04" height="8.69"/><rect class="a57123d0-5aaf-46f8-a247-28fab1b073cf" x="208.84" y="174.58" width="34.04" height="8.69"/><rect class="a57123d0-5aaf-46f8-a247-28fab1b073cf" x="215.32" y="186.63" width="34.04" height="8.69"/><rect class="a57123d0-5aaf-46f8-a247-28fab1b073cf" x="208.84" y="198.68" width="34.04" height="8.69"/><rect class="a57123d0-5aaf-46f8-a247-28fab1b073cf" x="246.12" y="114.21" width="34.04" height="8.69"/><rect class="a57123d0-5aaf-46f8-a247-28fab1b073cf" x="249.36" y="126.26" width="34.04" height="8.69"/><rect class="a57123d0-5aaf-46f8-a247-28fab1b073cf" x="246.12" y="138.31" width="34.04" height="8.69"/><rect class="a57123d0-5aaf-46f8-a247-28fab1b073cf" x="255.84" y="150.36" width="34.04" height="8.69"/><rect class="a57123d0-5aaf-46f8-a247-28fab1b073cf" x="246.12" y="162.41" width="34.04" height="8.69"/><rect class="a57123d0-5aaf-46f8-a247-28fab1b073cf" x="246.12" y="174.46" width="34.04" height="8.69"/><rect class="a57123d0-5aaf-46f8-a247-28fab1b073cf" x="252.6" y="186.51" width="34.04" height="8.69"/><rect class="a57123d0-5aaf-46f8-a247-28fab1b073cf" x="246.12" y="198.57" width="34.04" height="8.69"/><rect class="a57123d0-5aaf-46f8-a247-28fab1b073cf" x="282.5" y="114.33" width="34.04" height="8.69"/><rect class="a57123d0-5aaf-46f8-a247-28fab1b073cf" x="285.74" y="126.38" width="34.04" height="8.69"/><rect class="a57123d0-5aaf-46f8-a247-28fab1b073cf" x="282.5" y="138.43" width="34.04" height="8.69"/><rect class="a57123d0-5aaf-46f8-a247-28fab1b073cf" x="292.22" y="150.48" width="34.04" height="8.69"/><rect class="a57123d0-5aaf-46f8-a247-28fab1b073cf" x="282.5" y="162.53" width="34.04" height="8.69"/><rect class="a57123d0-5aaf-46f8-a247-28fab1b073cf" x="282.5" y="174.58" width="34.04" height="8.69"/><rect class="a57123d0-5aaf-46f8-a247-28fab1b073cf" x="288.98" y="186.63" width="34.04" height="8.69"/><rect class="a57123d0-5aaf-46f8-a247-28fab1b073cf" x="282.5" y="198.68" width="34.04" height="8.69"/><rect class="a57123d0-5aaf-46f8-a247-28fab1b073cf" x="319.77" y="114.21" width="34.04" height="8.69"/><rect class="a57123d0-5aaf-46f8-a247-28fab1b073cf" x="323.01" y="126.26" width="34.04" height="8.69"/><rect class="a57123d0-5aaf-46f8-a247-28fab1b073cf" x="319.77" y="138.31" width="34.04" height="8.69"/><rect class="a57123d0-5aaf-46f8-a247-28fab1b073cf" x="329.5" y="150.36" width="34.04" height="8.69"/><rect class="a57123d0-5aaf-46f8-a247-28fab1b073cf" x="319.77" y="162.41" width="34.04" height="8.69"/><rect class="a57123d0-5aaf-46f8-a247-28fab1b073cf" x="319.77" y="174.46" width="34.04" height="8.69"/><rect class="a57123d0-5aaf-46f8-a247-28fab1b073cf" x="326.26" y="186.51" width="34.04" height="8.69"/><rect class="a57123d0-5aaf-46f8-a247-28fab1b073cf" x="319.77" y="198.57" width="34.04" height="8.69"/></g><rect class="b6ab8f76-0237-4b40-a7e8-9bc0d05ed7f9" x="131.1" y="213.73" width="34.04" height="8.69"/><rect class="b6ab8f76-0237-4b40-a7e8-9bc0d05ed7f9" x="134.34" y="225.78" width="34.04" height="8.69"/><rect class="b6ab8f76-0237-4b40-a7e8-9bc0d05ed7f9" x="131.1" y="237.83" width="34.04" height="8.69"/><rect class="b6ab8f76-0237-4b40-a7e8-9bc0d05ed7f9" x="140.83" y="249.88" width="34.04" height="8.69"/><rect class="b6ab8f76-0237-4b40-a7e8-9bc0d05ed7f9" x="168.38" y="213.61" width="34.04" height="8.69"/><rect class="b6ab8f76-0237-4b40-a7e8-9bc0d05ed7f9" x="171.62" y="225.66" width="34.04" height="8.69"/><rect class="b6ab8f76-0237-4b40-a7e8-9bc0d05ed7f9" x="168.38" y="237.72" width="34.04" height="8.69"/><rect class="b6ab8f76-0237-4b40-a7e8-9bc0d05ed7f9" x="178.1" y="249.77" width="34.04" height="8.69"/><rect class="a113e235-ba2f-4b0b-8559-56fa1a7b7215" x="206.44" y="213.73" width="34.04" height="8.69"/><rect class="a2a1b479-19d7-4062-840e-2ee1a512dfe4" x="209.68" y="225.78" width="34.04" height="8.69"/><rect class="b6ab8f76-0237-4b40-a7e8-9bc0d05ed7f9" x="206.44" y="237.83" width="34.04" height="8.69"/><rect class="a2a1b479-19d7-4062-840e-2ee1a512dfe4" x="216.16" y="249.88" width="34.04" height="8.69"/><rect class="b6ab8f76-0237-4b40-a7e8-9bc0d05ed7f9" x="280.09" y="213.73" width="34.04" height="8.69"/><rect class="b6ab8f76-0237-4b40-a7e8-9bc0d05ed7f9" x="283.34" y="225.78" width="34.04" height="8.69"/><rect class="b6ab8f76-0237-4b40-a7e8-9bc0d05ed7f9" x="280.09" y="237.83" width="34.04" height="8.69"/><rect class="b6ab8f76-0237-4b40-a7e8-9bc0d05ed7f9" x="289.82" y="249.88" width="34.04" height="8.69"/><rect class="b6ab8f76-0237-4b40-a7e8-9bc0d05ed7f9" x="317.37" y="213.61" width="34.04" height="8.69"/><rect class="b6ab8f76-0237-4b40-a7e8-9bc0d05ed7f9" x="320.61" y="225.66" width="34.04" height="8.69"/><rect class="b6ab8f76-0237-4b40-a7e8-9bc0d05ed7f9" x="317.37" y="237.72" width="34.04" height="8.69"/><rect class="b6ab8f76-0237-4b40-a7e8-9bc0d05ed7f9" x="327.1" y="249.77" width="34.04" height="8.69"/><rect class="f134b8c8-e538-4af1-807b-abdc21494a93" x="144.92" y="25.95" width="203.2" height="41.76"/><rect class="e3c5a40b-846f-4113-a517-8bdf20772bfd" x="148.63" y="107.74" width="40.99" height="41.72"/><polygon class="f74712d6-1835-4dd1-a926-997979751730" points="181 107.74 148.63 125.53 148.63 143.96 189.62 123.31 189.62 107.74 181 107.74 181 107.74"/><polygon class="f74712d6-1835-4dd1-a926-997979751730" points="148.63 146.29 189.62 125.85 189.62 129.55 148.63 149.46 148.63 146.29"/><rect class="ee9ece1a-7c40-489b-9d51-691ed5453894" x="167.2" y="107.74" width="3.35" height="41.72"/><rect class="ee9ece1a-7c40-489b-9d51-691ed5453894" x="148.63" y="127.01" width="40.99" height="3.39"/><rect class="a57123d0-5aaf-46f8-a247-28fab1b073cf" x="148.63" y="103.98" width="40.99" height="3.76"/><rect class="a57123d0-5aaf-46f8-a247-28fab1b073cf" x="144.92" y="103.98" width="3.72" height="45.48"/><rect class="a57123d0-5aaf-46f8-a247-28fab1b073cf" x="189.62" y="103.98" width="3.96" height="45.48"/><rect class="a57123d0-5aaf-46f8-a247-28fab1b073cf" x="144.92" y="149.46" width="48.66" height="4.43"/><rect class="e3c5a40b-846f-4113-a517-8bdf20772bfd" x="226.61" y="107.74" width="40.99" height="41.72"/><polygon class="f74712d6-1835-4dd1-a926-997979751730" points="258.97 107.74 226.61 125.53 226.61 143.96 267.59 123.31 267.59 107.74 258.97 107.74 258.97 107.74"/><polygon class="f74712d6-1835-4dd1-a926-997979751730" points="226.61 146.29 267.59 125.85 267.59 129.55 226.61 149.46 226.61 146.29"/><rect class="ee9ece1a-7c40-489b-9d51-691ed5453894" x="245.17" y="107.74" width="3.35" height="41.72"/><rect class="ee9ece1a-7c40-489b-9d51-691ed5453894" x="226.61" y="127.01" width="40.99" height="3.39"/><rect class="a57123d0-5aaf-46f8-a247-28fab1b073cf" x="226.61" y="103.98" width="40.99" height="3.76"/><rect class="a57123d0-5aaf-46f8-a247-28fab1b073cf" x="222.89" y="103.98" width="3.72" height="45.48"/><rect class="a57123d0-5aaf-46f8-a247-28fab1b073cf" x="267.59" y="103.98" width="3.96" height="45.48"/><rect class="a57123d0-5aaf-46f8-a247-28fab1b073cf" x="222.89" y="149.46" width="48.66" height="4.43"/><rect class="e3c5a40b-846f-4113-a517-8bdf20772bfd" x="302.22" y="107.74" width="40.98" height="41.72"/><polygon class="f74712d6-1835-4dd1-a926-997979751730" points="334.58 107.74 302.21 125.53 302.21 143.96 343.2 123.31 343.2 107.74 334.58 107.74 334.58 107.74"/><polygon class="f74712d6-1835-4dd1-a926-997979751730" points="302.21 146.29 343.2 125.85 343.2 129.55 302.21 149.46 302.21 146.29"/><rect class="ee9ece1a-7c40-489b-9d51-691ed5453894" x="320.78" y="107.74" width="3.35" height="41.72"/><rect class="ee9ece1a-7c40-489b-9d51-691ed5453894" x="302.22" y="127.01" width="40.98" height="3.39"/><rect class="a57123d0-5aaf-46f8-a247-28fab1b073cf" x="302.22" y="103.98" width="40.98" height="3.76"/><rect class="a57123d0-5aaf-46f8-a247-28fab1b073cf" x="298.5" y="103.98" width="3.72" height="45.48"/><rect class="a57123d0-5aaf-46f8-a247-28fab1b073cf" x="343.2" y="103.98" width="3.96" height="45.48"/><rect class="a57123d0-5aaf-46f8-a247-28fab1b073cf" x="298.5" y="149.46" width="48.66" height="4.43"/><rect class="e3c5a40b-846f-4113-a517-8bdf20772bfd" x="148.63" y="186.19" width="40.99" height="41.72"/><polygon class="f74712d6-1835-4dd1-a926-997979751730" points="181 186.19 148.63 203.98 148.63 222.41 189.62 201.75 189.62 186.19 181 186.19 181 186.19"/><polygon class="f74712d6-1835-4dd1-a926-997979751730" points="148.63 224.74 189.62 204.3 189.62 208 148.63 227.91 148.63 224.74"/><rect class="ee9ece1a-7c40-489b-9d51-691ed5453894" x="167.2" y="186.19" width="3.35" height="41.72"/><rect class="ee9ece1a-7c40-489b-9d51-691ed5453894" x="148.63" y="205.46" width="40.99" height="3.39"/><rect class="a57123d0-5aaf-46f8-a247-28fab1b073cf" x="148.63" y="182.43" width="40.99" height="3.76"/><rect class="a57123d0-5aaf-46f8-a247-28fab1b073cf" x="144.92" y="182.43" width="3.72" height="45.48"/><rect class="a57123d0-5aaf-46f8-a247-28fab1b073cf" x="189.62" y="182.43" width="3.96" height="45.48"/><rect class="a57123d0-5aaf-46f8-a247-28fab1b073cf" x="144.92" y="227.91" width="48.66" height="4.44"/><rect class="e3c5a40b-846f-4113-a517-8bdf20772bfd" x="302.22" y="186.19" width="40.98" height="41.72"/><polygon class="f74712d6-1835-4dd1-a926-997979751730" points="334.58 186.19 302.21 203.98 302.21 222.41 343.2 201.75 343.2 186.19 334.58 186.19 334.58 186.19"/><polygon class="f74712d6-1835-4dd1-a926-997979751730" points="302.21 224.74 343.2 204.3 343.2 208 302.21 227.91 302.21 224.74"/><rect class="ee9ece1a-7c40-489b-9d51-691ed5453894" x="320.78" y="186.19" width="3.35" height="41.72"/><rect class="ee9ece1a-7c40-489b-9d51-691ed5453894" x="302.22" y="205.46" width="40.98" height="3.39"/><rect class="a57123d0-5aaf-46f8-a247-28fab1b073cf" x="302.22" y="182.43" width="40.98" height="3.76"/><rect class="a57123d0-5aaf-46f8-a247-28fab1b073cf" x="298.5" y="182.43" width="3.72" height="45.48"/><rect class="a57123d0-5aaf-46f8-a247-28fab1b073cf" x="343.2" y="182.43" width="3.96" height="45.48"/><rect class="a57123d0-5aaf-46f8-a247-28fab1b073cf" x="298.5" y="227.91" width="48.66" height="4.44"/><rect class="b4cb4990-de6e-429a-88e7-4ff27e31c19f" x="213.02" y="179.02" width="70.53" height="98.79"/><rect class="ab13b94d-d510-4316-992a-3c4196a49885" x="222.89" y="185.28" width="52.73" height="87.48"/><rect class="b5041c14-d765-4407-b1af-3eef1a49fd7b" x="294.81" y="288.6" width="25.71" height="3.67"/><polygon class="f3adfbdb-930d-4f0e-97fc-9b0f6e324c19" points="308.53 179.46 305.1 179.98 301.53 154.66 311.6 154.66 308.53 179.46"/><path class="b5041c14-d765-4407-b1af-3eef1a49fd7b" d="M318.45,154a.7.7,0,0,1-.75.64H295.42a.71.71,0,0,1-.75-.64h0a.71.71,0,0,1,.75-.65H317.7a.7.7,0,0,1,.75.65Z"/><path class="b5041c14-d765-4407-b1af-3eef1a49fd7b" d="M306.56,145.58c-5,0-9.1,3.49-9.1,7.79h18.21C315.67,149.07,311.59,145.58,306.56,145.58Z"/><path class="b5041c14-d765-4407-b1af-3eef1a49fd7b" d="M313.52,179.14a.74.74,0,0,1-.82.64H300.64a.75.75,0,0,1-.83-.64h0a.76.76,0,0,1,.83-.64H312.7a.75.75,0,0,1,.82.64Z"/><polygon class="b5041c14-d765-4407-b1af-3eef1a49fd7b" points="297.46 154.66 302.28 178.5 304.69 178.5 300.03 154.66 297.46 154.66"/><polygon class="b5041c14-d765-4407-b1af-3eef1a49fd7b" points="315.75 154.66 310.93 178.5 308.53 178.5 313.18 154.66 315.75 154.66"/><rect class="b5041c14-d765-4407-b1af-3eef1a49fd7b" x="305.1" y="179.14" width="3.43" height="111.56"/><rect class="b5041c14-d765-4407-b1af-3eef1a49fd7b" x="168.06" y="288.6" width="25.71" height="3.67"/><polygon class="f3adfbdb-930d-4f0e-97fc-9b0f6e324c19" points="181.78 179.46 178.35 179.98 174.78 154.66 184.85 154.66 181.78 179.46"/><path class="b5041c14-d765-4407-b1af-3eef1a49fd7b" d="M191.7,154a.7.7,0,0,1-.75.64H168.67a.71.71,0,0,1-.75-.64h0a.71.71,0,0,1,.75-.65H191a.7.7,0,0,1,.75.65Z"/><path class="b5041c14-d765-4407-b1af-3eef1a49fd7b" d="M179.81,145.58c-5,0-9.1,3.49-9.1,7.79h18.21C188.92,149.07,184.84,145.58,179.81,145.58Z"/><path class="b5041c14-d765-4407-b1af-3eef1a49fd7b" d="M186.77,179.14a.74.74,0,0,1-.82.64H173.89a.75.75,0,0,1-.83-.64h0a.76.76,0,0,1,.83-.64H186a.75.75,0,0,1,.82.64Z"/><polygon class="b5041c14-d765-4407-b1af-3eef1a49fd7b" points="170.71 154.66 175.53 178.5 177.94 178.5 173.28 154.66 170.71 154.66"/><polygon class="b5041c14-d765-4407-b1af-3eef1a49fd7b" points="189 154.66 184.18 178.5 181.78 178.5 186.43 154.66 189 154.66"/><rect class="b5041c14-d765-4407-b1af-3eef1a49fd7b" x="178.35" y="179.14" width="3.43" height="111.56"/><polygon class="a9e1d94c-9d93-4cfd-b430-064713d8ff77" points="364.66 95.92 485.16 273.02 364.3 272.49 364.66 95.92"/><rect class="e3c5a40b-846f-4113-a517-8bdf20772bfd" x="383.61" y="115.17" width="31.21" height="31.77"/><polygon class="f74712d6-1835-4dd1-a926-997979751730" points="408.25 115.17 383.61 128.71 383.61 142.74 414.81 127.02 414.81 115.17 408.25 115.17 408.25 115.17"/><polygon class="f74712d6-1835-4dd1-a926-997979751730" points="383.61 144.52 414.81 128.96 414.81 131.78 383.61 146.94 383.61 144.52"/><rect class="ee9ece1a-7c40-489b-9d51-691ed5453894" x="397.74" y="115.17" width="2.55" height="31.77"/><rect class="ee9ece1a-7c40-489b-9d51-691ed5453894" x="383.61" y="129.84" width="31.21" height="2.58"/><rect class="a57123d0-5aaf-46f8-a247-28fab1b073cf" x="383.61" y="112.31" width="31.21" height="2.86"/><rect class="a57123d0-5aaf-46f8-a247-28fab1b073cf" x="380.78" y="112.31" width="2.83" height="34.63"/><rect class="a57123d0-5aaf-46f8-a247-28fab1b073cf" x="414.81" y="112.31" width="3.01" height="34.63"/><rect class="a57123d0-5aaf-46f8-a247-28fab1b073cf" x="380.78" y="146.94" width="37.05" height="3.38"/><rect class="e3c5a40b-846f-4113-a517-8bdf20772bfd" x="383.61" y="165.78" width="31.21" height="31.77"/><polygon class="f74712d6-1835-4dd1-a926-997979751730" points="408.25 165.78 383.61 179.33 383.61 193.36 414.81 177.63 414.81 165.78 408.25 165.78 408.25 165.78"/><polygon class="f74712d6-1835-4dd1-a926-997979751730" points="383.61 195.13 414.81 179.57 414.81 182.39 383.61 197.55 383.61 195.13"/><rect class="ee9ece1a-7c40-489b-9d51-691ed5453894" x="397.74" y="165.78" width="2.55" height="31.77"/><rect class="ee9ece1a-7c40-489b-9d51-691ed5453894" x="383.61" y="180.45" width="31.21" height="2.58"/><rect class="a57123d0-5aaf-46f8-a247-28fab1b073cf" x="383.61" y="162.92" width="31.21" height="2.86"/><rect class="a57123d0-5aaf-46f8-a247-28fab1b073cf" x="380.78" y="162.92" width="2.83" height="34.63"/><rect class="a57123d0-5aaf-46f8-a247-28fab1b073cf" x="414.81" y="162.92" width="3.01" height="34.63"/><rect class="a57123d0-5aaf-46f8-a247-28fab1b073cf" x="380.78" y="197.55" width="37.05" height="3.38"/><rect class="e3c5a40b-846f-4113-a517-8bdf20772bfd" x="383.61" y="216.39" width="31.21" height="31.77"/><polygon class="f74712d6-1835-4dd1-a926-997979751730" points="408.25 216.39 383.61 229.94 383.61 243.97 414.81 228.25 414.81 216.39 408.25 216.39 408.25 216.39"/><polygon class="f74712d6-1835-4dd1-a926-997979751730" points="383.61 245.74 414.81 230.18 414.81 233 383.61 248.16 383.61 245.74"/><rect class="ee9ece1a-7c40-489b-9d51-691ed5453894" x="397.74" y="216.39" width="2.55" height="31.77"/><rect class="ee9ece1a-7c40-489b-9d51-691ed5453894" x="383.61" y="231.07" width="31.21" height="2.58"/><rect class="a57123d0-5aaf-46f8-a247-28fab1b073cf" x="383.61" y="213.53" width="31.21" height="2.86"/><rect class="a57123d0-5aaf-46f8-a247-28fab1b073cf" x="380.78" y="213.53" width="2.83" height="34.63"/><rect class="a57123d0-5aaf-46f8-a247-28fab1b073cf" x="414.81" y="213.53" width="3.01" height="34.63"/><rect class="a57123d0-5aaf-46f8-a247-28fab1b073cf" x="380.78" y="248.16" width="37.05" height="3.38"/></g></svg>