<svg width="948" height="1051" viewBox="0 0 948 1051" fill="none" xmlns="http://www.w3.org/2000/svg">
<path d="M520.889 123.206C520.889 123.206 529.022 138.062 556.662 136.321" stroke="#263775" stroke-width="6.66667" stroke-miterlimit="10" stroke-linecap="round" stroke-linejoin="round"/>
<path d="M287.089 656.806L692.809 890.105C698.782 893.544 706.142 893.557 712.128 890.14L731.662 878.997C744.715 871.552 744.755 852.748 731.728 845.257L326.009 611.957C320.035 608.52 312.675 608.506 306.689 611.924L287.155 623.066C274.102 630.51 274.062 649.317 287.089 656.806" fill="url(#paint0_linear_621_42)"/>
<path d="M493.408 576.469L899.128 809.768C905.101 813.206 912.461 813.218 918.448 809.802L937.981 798.658C951.034 791.214 951.074 772.409 938.048 764.918L532.328 531.62C526.354 528.181 518.995 528.168 513.008 531.585L493.475 542.728C480.421 550.172 480.381 568.978 493.408 576.469" fill="url(#paint1_linear_621_42)"/>
<path d="M317.301 909.301C317.301 943.435 261.088 971.105 191.742 971.105C122.402 971.105 66.1895 943.435 66.1895 909.301C66.1895 875.167 122.402 847.496 191.742 847.496C261.088 847.496 317.301 875.167 317.301 909.301Z" fill="#0132C8"/>
<path d="M571.768 1000.32C571.768 1027.95 526.288 1050.33 470.168 1050.33C414.061 1050.33 368.582 1027.95 368.582 1000.32C368.582 972.706 414.061 950.315 470.168 950.315C526.288 950.315 571.768 972.706 571.768 1000.32" fill="#0132C8"/>
<path d="M539.875 137.285L563.368 123.631L599.595 212.466L576.102 226.119L539.875 137.285Z" fill="#8FA9DD"/>
<path d="M376.688 43.0705L400.182 29.4185L563.368 123.632L539.875 137.285L376.688 43.0705" fill="#D4E0F4"/>
<path d="M867.808 394.539L891.301 380.886L890.275 743.874L866.781 757.527L867.808 394.539" fill="#D4E0F4"/>
<path d="M576.102 226.119L599.595 212.466L891.302 380.886L867.808 394.539L576.102 226.119" fill="#D4E0F4"/>
<path d="M539.875 137.285L576.102 226.119L867.809 394.539L866.782 757.527L375.462 473.869L376.489 110.879L376.689 43.0701L539.875 137.285" fill="url(#paint2_linear_621_42)"/>
<path d="M258.782 134.84V-0.000212697L824.222 327.857V800.596L257.568 463.99L258.782 134.84Z" fill="#F8FAFD"/>
<path d="M227.302 134.84V-0.000212697L792.742 327.857V800.596L226.088 463.99L227.302 134.84Z" fill="#F0F5FC"/>
<path d="M303.608 160.869V173.325L776.128 446.137V432.059L303.608 160.869Z" fill="#8FA9DD"/>
<path d="M303.608 217.881V230.338L776.128 503.15V489.072L303.608 217.881Z" fill="#8FA9DD"/>
<path d="M303.608 274.894V287.35L776.128 560.162V546.085L303.608 274.894Z" fill="#8FA9DD"/>
<path d="M303.608 331.906V344.363L776.128 617.174V603.096L303.608 331.906Z" fill="#8FA9DD"/>
<path d="M303.608 388.919V401.376L776.128 674.188V660.109L303.608 388.919Z" fill="#8FA9DD"/>
<path d="M197.355 144.289V9.44888L762.795 337.306V810.045L196.142 473.438L197.355 144.289Z" fill="#E6EEF9"/>
<path d="M243.208 96.7906V109.248L715.728 382.059V367.981L243.208 96.7906Z" fill="#8FA9DD"/>
<path d="M243.208 169.673V182.131L715.728 454.941V440.864L243.208 169.673Z" fill="#8FA9DD"/>
<path d="M367.475 227.255L390.968 213.602L427.195 302.437L403.702 316.09L367.475 227.255Z" fill="#0132C8"/>
<path d="M204.288 133.041L227.781 119.388L390.968 213.603L367.475 227.256L204.288 133.041Z" fill="#8FA9DD"/>
<path d="M695.409 484.508L718.902 470.856L717.875 833.844L694.382 847.496L695.409 484.508" fill="#D4E0F4"/>
<path d="M403.702 316.089L427.195 302.436L718.902 470.856L695.408 484.508L403.702 316.089" fill="#8FA9DD"/>
<path d="M203.448 430.716L204.101 200.848L204.288 133.04L367.475 227.255L403.701 316.089L695.408 484.508L694.382 847.496L203.062 563.837L203.448 430.716" fill="#D4E0F4"/>
<path d="M427.582 367.833C362.529 330.281 309.649 360.422 309.435 435.159C309.222 509.898 361.769 600.914 426.809 638.466C491.849 676.018 544.742 645.877 544.955 571.139C545.169 496.401 492.622 405.385 427.582 367.833ZM416.115 522.138L463.635 466.057C466.302 462.91 470.729 462.923 475.249 465.531C477.849 467.029 480.462 469.381 482.795 472.485C489.195 480.977 490.982 491.875 486.782 496.837L430.542 563.198C428.355 565.805 424.809 566.342 420.835 564.677C420.195 564.414 419.569 564.098 418.929 563.73C415.609 561.814 412.382 558.593 409.862 554.587L370.182 491.921C364.422 482.821 363.835 472.413 368.862 468.673C371.609 466.629 375.462 466.997 379.329 469.233C382.555 471.095 385.795 474.251 388.409 478.385L416.115 522.138" fill="#8FA9DD"/>
<path d="M475.249 465.532C470.729 462.924 466.302 462.911 463.635 466.057L416.115 522.139L388.409 478.385C385.795 474.252 382.555 471.096 379.329 469.233C375.462 466.997 371.609 466.629 368.862 468.673C363.835 472.413 364.422 482.821 370.182 491.921L409.862 554.588C412.382 558.593 415.609 561.815 418.929 563.731C419.569 564.099 420.195 564.415 420.835 564.677C424.808 566.343 428.355 565.805 430.542 563.199L486.782 496.837C490.982 491.876 489.195 480.977 482.795 472.485C480.462 469.381 477.849 467.029 475.249 465.532" fill="#0D046A"/>
<path d="M155.875 674.188L408.222 526.153" stroke="#0D046A" stroke-width="6.66667" stroke-miterlimit="10" stroke-linecap="round" stroke-dasharray="16 16"/>
<path d="M155.875 844.971L181.583 830.031C177.595 824.733 172.922 818.356 167.787 811.039L142.079 825.979C147.212 833.296 151.887 839.673 155.875 844.971Z" fill="#607ABF"/>
<path d="M142.079 825.979L167.787 811.039C162.31 803.229 156.308 794.351 150.06 784.577L124.353 799.517C130.599 809.291 136.602 818.169 142.079 825.979Z" fill="#5D77BA"/>
<path d="M124.352 799.518L150.06 784.578C145.116 776.84 140.015 768.543 134.898 759.771L109.189 774.712C114.307 783.484 119.407 791.78 124.352 799.518" fill="#5972B5"/>
<path d="M109.19 774.713L134.898 759.772C130.642 752.476 126.371 744.849 122.17 736.944L96.4604 751.885C100.663 759.79 104.932 767.416 109.19 774.713Z" fill="#566FB0"/>
<path d="M96.4607 751.885L122.17 736.943C118.527 730.094 114.935 723.034 111.445 715.797L85.7354 730.737C89.2274 737.974 92.8181 745.034 96.4607 751.885" fill="#546CAA"/>
<path d="M85.7351 730.736L111.444 715.796C108.308 709.294 105.254 702.648 102.319 695.882L76.6099 710.823C79.5459 717.588 82.5991 724.234 85.7351 730.736" fill="#5168A5"/>
<path d="M76.6096 710.822L102.319 695.881C99.5817 689.574 96.9483 683.161 94.4483 676.664L68.7402 691.605C71.2389 698.101 73.8723 704.514 76.6096 710.822Z" fill="#4E65A0"/>
<path d="M68.7407 691.605L94.4488 676.664C92.0554 670.444 89.7847 664.145 87.6633 657.784L61.9541 672.724C64.0754 679.085 66.346 685.384 68.7407 691.605" fill="#4B619A"/>
<path d="M61.9538 672.725L87.663 657.785C85.5417 651.429 83.5697 645.01 81.7737 638.546L56.0645 653.486C57.8618 659.95 59.8338 666.369 61.9538 672.725Z" fill="#485E94"/>
<path d="M56.0644 653.486L81.7737 638.546C80.6563 634.532 79.6084 630.497 78.6337 626.45L52.9243 641.39C53.899 645.437 54.9484 649.472 56.0644 653.486Z" fill="#455A8F"/>
<path d="M155.996 802.248L181.704 787.307C177.884 781.74 173.836 775.659 169.666 769.133L143.955 784.073C148.126 790.599 152.175 796.68 155.996 802.248Z" fill="#B7B6B5"/>
<path d="M143.955 784.074L169.666 769.134C165.278 762.268 160.755 754.912 156.224 747.145L130.515 762.085C135.046 769.852 139.568 777.208 143.955 784.074Z" fill="#B1B1B0"/>
<path d="M130.515 762.084L156.224 747.144C152.463 740.7 148.696 733.972 144.995 727.009L119.286 741.949C122.988 748.912 126.755 755.64 130.515 762.084Z" fill="#ABAAA9"/>
<path d="M119.286 741.949L144.995 727.009C141.812 721.024 138.678 714.863 135.638 708.559L109.928 723.499C112.97 729.803 116.104 735.964 119.286 741.949Z" fill="#A5A5A4"/>
<path d="M109.928 723.498L135.638 708.558C132.914 702.913 130.266 697.15 127.727 691.295L102.018 706.235C104.558 712.091 107.206 717.853 109.928 723.498Z" fill="#9F9F9E"/>
<path d="M102.017 706.236L127.727 691.296C125.378 685.883 123.122 680.39 120.983 674.832L95.2749 689.774C97.4136 695.33 99.6695 700.823 102.017 706.236Z" fill="#9A9A9A"/>
<path d="M95.2749 689.773L120.983 674.832C118.94 669.524 117.005 664.155 115.2 658.745L89.4922 673.685C91.2962 679.096 93.2322 684.464 95.2749 689.773Z" fill="#959595"/>
<path d="M89.4923 673.686L115.2 658.746C113.407 653.368 111.742 647.948 110.227 642.502L84.519 657.442C86.0324 662.89 87.699 668.31 89.4923 673.686Z" fill="#909190"/>
<path d="M84.519 657.441L110.227 642.501C109.288 639.124 108.407 635.735 107.59 632.339L81.8804 647.279C82.699 650.675 83.5804 654.064 84.519 657.441" fill="#8B8C8C"/>
<path d="M182.475 791.103L208.181 776.163C203.808 778.626 199.435 780.719 195.181 782.499L169.476 797.439C173.732 795.659 178.103 793.566 182.475 791.103" fill="#9F9F9E"/>
<path d="M169.476 797.44L195.182 782.5C190.502 784.457 185.962 786.036 181.704 787.307L155.996 802.248C160.253 800.976 164.796 799.397 169.476 797.44" fill="#A5A5A4"/>
<path d="M205.342 827.316L231.062 812.373C230.542 812.673 230.035 812.968 229.515 813.257L203.809 828.197C204.315 827.908 204.835 827.613 205.342 827.316Z" fill="#4E65A0"/>
<path d="M203.808 828.196L229.515 813.256C224.581 816.036 219.648 818.396 214.861 820.402L189.155 835.342C193.941 833.338 198.875 830.978 203.808 828.196Z" fill="#5168A5"/>
<path d="M189.155 835.343L214.862 820.403C209.222 822.759 203.768 824.622 198.702 826.095L172.986 841.035C178.063 839.562 183.516 837.699 189.155 835.343" fill="#546CAA"/>
<path d="M172.985 841.034L198.701 826.094C192.435 827.91 186.747 829.134 181.997 829.958L156.288 844.898C161.037 844.074 166.727 842.85 172.985 841.034Z" fill="#566FB0"/>
<path d="M156.288 844.899L181.998 829.959C181.859 829.984 181.72 830.007 181.583 830.031L155.875 844.971C156.011 844.947 156.15 844.924 156.288 844.899Z" fill="#5972B5"/>
<path d="M183.858 790.314L209.568 775.373C209.102 775.641 208.648 775.904 208.182 776.164L182.475 791.104C182.936 790.845 183.396 790.581 183.858 790.314" fill="#9A9A9A"/>
<path d="M182.475 791.103L208.182 776.163C203.809 778.626 199.435 780.719 195.182 782.499L169.477 797.439C173.733 795.659 178.103 793.566 182.475 791.103" fill="#9F9F9E"/>
<path d="M52.9243 641.391L78.6337 626.451C76.5764 617.907 74.719 609.719 73.0444 601.883L47.3364 616.823C49.0098 624.66 50.867 632.847 52.9243 641.391Z" fill="#455A8F"/>
<path d="M47.3362 616.822L73.0441 601.882C68.1094 578.792 64.7588 558.738 62.5268 541.537L36.8188 556.477C39.0508 573.678 42.4015 593.732 47.3362 616.822" fill="#425788"/>
<path d="M36.8191 556.477L62.527 541.537C59.075 514.923 58.299 495.133 58.4817 481.475L32.7723 496.415C32.5897 510.073 33.3657 529.863 36.8191 556.477Z" fill="#415383"/>
<path d="M81.8805 647.279L107.59 632.339C105.648 624.285 103.902 616.586 102.331 609.234L76.623 624.174C78.1937 631.526 79.9405 639.225 81.8805 647.279Z" fill="#8B8C8C"/>
<path d="M76.6231 624.174L102.331 609.234C97.7098 587.604 94.6071 568.987 92.5564 553.187L66.8472 568.127C68.8978 583.928 72.0004 602.544 76.6231 624.174" fill="#858686"/>
<path d="M66.8472 568.127L92.5564 553.187C91.4204 544.432 90.6058 536.543 90.0351 529.486L64.3271 544.427C64.8978 551.484 65.7112 559.374 66.8472 568.127Z" fill="#7E8081"/>
<path d="M156.673 563.445L182.382 548.505C181.247 548.473 180.11 548.432 178.967 548.383L153.259 563.323C154.401 563.373 155.539 563.415 156.673 563.445Z" fill="#5D77BA"/>
<path d="M153.259 563.322L178.967 548.382C170.382 548.006 161.56 547.128 152.51 545.746L126.802 560.686C135.851 562.068 144.673 562.946 153.259 563.322Z" fill="#607ABF"/>
<path d="M126.802 560.688L152.51 545.748C141.64 544.089 130.443 541.704 118.942 538.597L93.2324 553.537C104.735 556.645 115.931 559.029 126.802 560.688Z" fill="#637EC2"/>
<path d="M93.2325 553.535L118.942 538.595C109.806 536.127 100.478 533.203 90.9684 529.823C90.6524 529.709 90.3498 529.6 90.0351 529.486L64.3271 544.427C64.6418 544.54 64.9445 544.65 65.2592 544.763C74.7698 548.143 84.0978 551.067 93.2325 553.535" fill="#6681C7"/>
<path d="M156.783 524.226L182.492 509.286C177.126 509.502 171.754 509.475 166.403 509.24L140.695 524.18C146.045 524.415 151.418 524.442 156.783 524.226Z" fill="#B7B6B5"/>
<path d="M140.695 524.18L166.403 509.24C158.182 508.877 150.011 508.025 141.995 506.8L116.286 521.74C124.303 522.965 132.474 523.817 140.695 524.18Z" fill="#BCBBB9"/>
<path d="M116.286 521.74L141.995 506.8C131.212 505.151 120.707 502.832 110.727 500.134L85.0176 515.075C94.9976 517.772 105.504 520.092 116.286 521.74Z" fill="#C2C0BE"/>
<path d="M85.0173 515.074L110.727 500.133C94.5373 495.757 79.7306 490.385 67.3626 485.273L41.6533 500.214C54.0213 505.325 68.8293 510.697 85.0173 515.074Z" fill="#C7C6C4"/>
<path d="M41.6535 500.215L67.3628 485.274C64.2414 483.984 61.2748 482.711 58.4815 481.475L32.7734 496.415C35.5668 497.651 38.5322 498.926 41.6535 500.215Z" fill="#CCCCC9"/>
<path d="M183.856 790.314L209.568 775.373C228.182 764.554 246.648 746.942 256.448 718.278C267.475 686.008 272.448 657.802 274.515 635.997L248.809 650.938C246.742 672.744 241.768 700.949 230.728 733.218C220.942 761.882 202.475 779.496 183.856 790.314" fill="#415383"/>
<path d="M248.808 650.939L274.515 635.998C274.208 635.751 273.902 635.509 273.595 635.261C253.528 619.221 234.302 602.093 215.982 583.979L190.262 598.921C208.582 617.033 227.822 634.161 247.875 650.201C248.195 650.449 248.502 650.691 248.808 650.939" fill="#6A86CB"/>
<path d="M190.262 598.92L215.982 583.979C204.408 572.539 193.195 560.705 182.382 548.504L156.672 563.444C167.488 575.645 178.694 587.479 190.262 598.92Z" fill="#6681C7"/>
<path d="M156.672 563.444C128.647 562.651 98.0352 556.409 65.2592 544.763C64.9445 544.649 64.6418 544.54 64.3271 544.427C66.2765 568.549 71.0672 602.396 81.8805 647.279C96.4525 707.787 131.091 765.956 155.996 802.248C181.011 794.777 215.862 776.731 230.728 733.219C241.768 700.949 246.742 672.744 248.809 650.939C248.502 650.691 248.195 650.448 247.875 650.2C215.155 624.029 184.611 594.961 156.672 563.444Z" fill="url(#paint3_linear_621_42)"/>
<path d="M70.9906 475.33C69.4333 474.874 67.8893 474.412 66.3667 473.938C66.284 473.913 66.2027 473.886 66.1201 473.861C64.6107 473.39 63.1214 472.913 61.6494 472.43C61.4854 472.376 61.3174 472.322 61.1521 472.268C59.7014 471.789 58.2734 471.304 56.86 470.814C56.62 470.732 56.3814 470.649 56.1427 470.565C54.7667 470.086 53.4107 469.602 52.0747 469.116C51.8321 469.028 51.592 468.938 51.3507 468.85C50.0027 468.357 48.672 467.861 47.368 467.364C47.2173 467.306 47.0694 467.249 46.9201 467.192C45.5974 466.685 44.2973 466.178 43.0227 465.672C42.956 465.646 42.8893 465.62 42.8227 465.593C41.5333 465.081 40.2774 464.569 39.0414 464.06C38.9294 464.013 38.812 463.968 38.7 463.922C38.62 463.888 38.544 463.856 38.4626 463.821C37.4146 463.386 36.3854 462.954 35.376 462.525C35.1654 462.434 34.9587 462.346 34.7507 462.257C33.816 461.857 32.8973 461.458 32 461.065C31.8893 461.017 31.776 460.968 31.6667 460.92C30.6973 460.492 29.7533 460.072 28.828 459.653C28.612 459.556 28.3973 459.46 28.184 459.362C27.2707 458.948 26.3733 458.538 25.5066 458.136C25.4586 458.113 25.4134 458.092 25.3654 458.069C24.5267 457.68 23.716 457.298 22.9227 456.921C22.7373 456.833 22.5506 456.745 22.368 456.657C21.572 456.277 20.796 455.904 20.048 455.54C19.912 455.474 19.7827 455.41 19.6493 455.345C18.972 455.014 18.3161 454.69 17.6801 454.374C17.5601 454.314 17.436 454.253 17.316 454.194C16.6253 453.849 15.9613 453.514 15.3227 453.189C15.1773 453.116 15.04 453.044 14.8987 452.973C14.2974 452.665 13.7147 452.368 13.1641 452.081C13.1254 452.061 13.0854 452.041 13.048 452.021C12.4627 451.716 11.916 451.429 11.388 451.15C11.2694 451.088 11.1533 451.026 11.0387 450.965C10.5373 450.7 10.0574 450.442 9.61341 450.204C9.54941 450.169 9.4947 450.14 9.43203 450.105C9.04003 449.894 8.67473 449.696 8.33073 449.506C8.2334 449.453 8.13607 449.4 8.04141 449.349C7.68807 449.153 7.3613 448.973 7.06263 448.808C6.97596 448.758 6.89998 448.716 6.81732 448.669C6.57332 448.534 6.35068 448.408 6.14935 448.294C6.10402 448.268 6.05468 448.241 6.01068 448.216C5.78268 448.088 5.59206 447.978 5.42539 447.882C5.35472 447.842 5.30671 447.816 5.24805 447.781C5.15738 447.729 5.08535 447.688 5.02135 447.652C5.00002 447.638 4.96007 447.616 4.94141 447.605L30.6507 432.664C30.728 432.709 30.856 432.782 30.988 432.86C31.0294 432.882 31.0734 432.908 31.1188 432.933C31.2894 433.033 31.4934 433.148 31.7307 433.282C31.7614 433.3 31.7987 433.32 31.8307 433.338C32.0427 433.458 32.2867 433.597 32.548 433.742C32.62 433.781 32.6867 433.818 32.7613 433.861C33.0653 434.03 33.4013 434.216 33.7613 434.414C33.8453 434.461 33.936 434.509 34.0227 434.557C34.3733 434.749 34.748 434.953 35.148 435.169C35.2067 435.201 35.2614 435.23 35.3214 435.264C35.768 435.504 36.2507 435.762 36.7547 436.029C36.8667 436.089 36.98 436.149 37.0934 436.208C37.6187 436.485 38.1667 436.773 38.7494 437.077C38.7947 437.1 38.8454 437.126 38.8921 437.15C39.4387 437.433 40.0174 437.732 40.6134 438.036C40.7521 438.105 40.888 438.176 41.0293 438.248C41.6666 438.572 42.3293 438.905 43.0173 439.25C43.144 439.313 43.2747 439.377 43.4027 439.44C44.0361 439.757 44.692 440.078 45.3654 440.409C45.4947 440.472 45.62 440.533 45.7507 440.597C46.5027 440.962 47.2827 441.338 48.0827 441.72C48.2627 441.806 48.4467 441.893 48.628 441.98C49.4213 442.357 50.2333 442.738 51.072 443.129C51.12 443.152 51.1667 443.173 51.216 443.196C52.08 443.597 52.9747 444.005 53.884 444.418C54.1027 444.517 54.3227 444.617 54.544 444.716C55.4667 445.133 56.4054 445.552 57.3707 445.977C57.4854 446.028 57.6041 446.078 57.7188 446.129C58.6134 446.522 59.5294 446.918 60.4587 447.317C60.6681 447.406 60.8747 447.494 61.084 447.585C62.092 448.013 63.1187 448.445 64.1667 448.878C64.3627 448.96 64.5613 449.041 64.7573 449.122C65.9906 449.63 67.2427 450.141 68.528 450.652C68.5973 450.68 68.672 450.708 68.7427 450.736C70.012 451.241 71.3093 451.746 72.628 452.25C72.7787 452.309 72.9253 452.366 73.0773 452.424C74.38 452.921 75.7107 453.417 77.0587 453.91C77.3001 453.998 77.5413 454.088 77.784 454.176C79.1187 454.661 80.4734 455.145 81.8467 455.624C82.0881 455.708 82.332 455.792 82.5733 455.874C83.9853 456.365 85.4134 456.85 86.8641 457.328C87.0267 457.382 87.192 457.434 87.3547 457.488C88.8294 457.973 90.3226 458.452 91.8346 458.924C91.9146 458.948 91.9933 458.974 92.0733 458.998C93.596 459.472 95.1414 459.933 96.6987 460.39C96.9374 460.46 97.1747 460.532 97.4134 460.6C98.9201 461.037 100.441 461.464 101.977 461.882C102.231 461.95 102.484 462.02 102.737 462.089C104.743 462.628 106.771 463.15 108.821 463.653C109.017 463.701 109.213 463.75 109.409 463.798C111.587 464.326 113.785 464.833 116.009 465.313C116.061 465.322 116.113 465.336 116.165 465.346C118.435 465.834 120.727 466.293 123.037 466.722C123.189 466.75 123.343 466.777 123.495 466.805C125.672 467.205 127.868 467.577 130.079 467.918C130.364 467.962 130.649 468.005 130.936 468.048C132.545 468.29 134.16 468.521 135.784 468.728C135.929 468.748 136.076 468.764 136.223 468.781C137.776 468.978 139.337 469.154 140.901 469.318C141.168 469.345 141.431 469.374 141.696 469.401C143.305 469.561 144.92 469.702 146.54 469.824C146.869 469.849 147.2 469.873 147.529 469.896C149.173 470.012 150.82 470.113 152.472 470.188C152.708 470.198 152.947 470.205 153.181 470.213C154.341 470.262 155.504 470.298 156.668 470.324C157.069 470.333 157.472 470.341 157.875 470.348C159.06 470.366 160.248 470.374 161.437 470.369C161.66 470.368 161.883 470.37 162.107 470.369C163.495 470.357 164.885 470.326 166.276 470.281C166.636 470.269 166.999 470.253 167.359 470.238C168.448 470.197 169.535 470.144 170.623 470.078C170.987 470.057 171.348 470.038 171.712 470.013C173.34 469.906 174.969 469.773 176.597 469.616C176.909 469.586 177.221 469.552 177.533 469.52C179.227 469.345 180.917 469.152 182.607 468.918L156.897 483.858C155.208 484.092 153.516 484.285 151.824 484.46C151.511 484.492 151.2 484.526 150.889 484.556C149.261 484.714 147.632 484.846 146.004 484.953C145.881 484.962 145.759 484.976 145.636 484.984C145.395 484.998 145.156 485.005 144.915 485.018C143.827 485.084 142.737 485.137 141.649 485.178C141.288 485.193 140.928 485.209 140.567 485.221C139.175 485.266 137.785 485.297 136.396 485.309C136.173 485.31 135.951 485.308 135.728 485.309C134.54 485.314 133.352 485.306 132.167 485.288C131.763 485.281 131.361 485.273 130.959 485.264C129.795 485.238 128.633 485.202 127.473 485.153C127.287 485.146 127.1 485.145 126.913 485.137C126.863 485.134 126.812 485.129 126.763 485.128C125.112 485.053 123.465 484.953 121.821 484.836C121.491 484.813 121.161 484.789 120.831 484.764C119.211 484.642 117.596 484.502 115.987 484.341C115.723 484.316 115.457 484.285 115.193 484.258C113.628 484.096 112.067 483.918 110.513 483.721C110.367 483.704 110.221 483.688 110.075 483.669C108.451 483.461 106.836 483.23 105.227 482.988C105.055 482.962 104.88 482.941 104.708 482.916C104.595 482.898 104.484 482.876 104.369 482.858C102.159 482.517 99.9627 482.145 97.784 481.745C97.6333 481.717 97.4814 481.692 97.3307 481.662C95.0187 481.233 92.7253 480.774 90.456 480.286C90.404 480.276 90.3547 480.264 90.3027 480.253C88.0787 479.773 85.8787 479.266 83.7 478.738C83.504 478.69 83.3107 478.642 83.1147 478.594C81.0614 478.092 79.032 477.568 77.0267 477.028C76.9174 476.998 76.804 476.972 76.6947 476.941C76.552 476.904 76.4133 476.862 76.272 476.822C74.7347 476.405 73.212 475.978 71.7053 475.541C71.4653 475.472 71.228 475.401 70.9906 475.33" fill="#D4E0F4"/>
<path d="M205.342 827.316L231.062 812.375C252.475 799.93 273.848 779.46 285.355 745.796C303.328 693.135 306.568 650.131 306.355 624.614L280.648 639.554C280.862 665.071 277.622 708.075 259.635 760.738C248.142 794.4 226.755 814.871 205.342 827.316" fill="#7E8081"/>
<path d="M81.8802 647.279C96.4522 707.787 131.091 765.957 155.996 802.249C181.011 794.778 215.861 776.731 230.728 733.219C241.768 700.949 246.742 672.743 248.808 650.939C248.502 650.691 248.195 650.449 247.875 650.201C215.155 624.03 184.612 594.962 156.672 563.445C128.647 562.651 98.0362 556.41 65.2588 544.763C64.9442 544.65 64.6415 544.541 64.3268 544.427C66.2761 568.55 71.0668 602.397 81.8802 647.279ZM156.783 524.226C203.915 580.638 251.621 618.879 280.648 639.554C280.861 665.071 277.621 708.075 259.635 760.738C238.141 823.659 182.142 840.489 155.875 844.973C129.706 810.215 73.9974 728.893 52.9241 641.39C35.4254 568.725 32.4321 521.898 32.7734 496.415C61.8374 509.282 109.552 526.122 156.783 524.226Z" fill="white"/>
<path d="M280.649 639.553L306.355 624.613C286.435 610.427 257.728 587.969 226.435 557.043L200.729 571.983C232.009 602.909 260.729 625.367 280.649 639.553Z" fill="#CCCCC9"/>
<path d="M200.728 571.984L226.435 557.044C214.888 545.626 202.982 533.052 191.035 519.316L165.331 534.256C177.271 547.992 189.168 560.566 200.728 571.984" fill="#C7C6C4"/>
<path d="M165.331 534.256L191.035 519.316C188.195 516.038 185.341 512.696 182.493 509.285L156.783 524.225C159.631 527.636 162.482 530.979 165.331 534.256Z" fill="#C2C0BE"/>
<path d="M288.528 788.249C289.488 785.449 290.395 782.681 291.288 779.934C291.568 779.047 291.835 778.174 292.115 777.294C292.701 775.433 293.275 773.581 293.821 771.745C294.128 770.738 294.421 769.738 294.701 768.739C295.208 767.034 295.701 765.337 296.168 763.654C296.448 762.651 296.728 761.651 296.995 760.658C297.461 758.949 297.915 757.257 298.355 755.57C298.581 754.666 298.821 753.758 299.048 752.861C299.555 750.865 300.035 748.891 300.501 746.931C300.635 746.385 300.781 745.827 300.901 745.285C301.488 742.794 302.035 740.333 302.568 737.903C302.701 737.249 302.835 736.609 302.968 735.959C303.341 734.181 303.701 732.411 304.048 730.666C304.221 729.809 304.381 728.963 304.541 728.113C304.835 726.591 305.115 725.078 305.381 723.583C305.541 722.702 305.688 721.827 305.835 720.957C306.088 719.494 306.328 718.047 306.555 716.611C306.688 715.783 306.835 714.951 306.955 714.131C307.195 712.578 307.421 711.047 307.635 709.527C307.728 708.878 307.821 708.217 307.915 707.574C308.208 705.43 308.488 703.317 308.728 701.241C308.768 700.981 308.795 700.729 308.821 700.469C309.035 698.654 309.235 696.865 309.421 695.105C309.488 694.422 309.541 693.755 309.608 693.081C309.741 691.757 309.861 690.442 309.981 689.151C310.048 688.419 310.101 687.695 310.155 686.974C310.261 685.757 310.355 684.553 310.435 683.366C310.488 682.663 310.528 681.961 310.581 681.269C310.661 680.053 310.728 678.861 310.795 677.679C310.821 677.071 310.861 676.455 310.888 675.857C310.955 674.382 311.021 672.939 311.075 671.521C311.088 671.255 311.101 670.977 311.101 670.713C311.155 669.034 311.195 667.398 311.235 665.799C311.235 665.323 311.248 664.871 311.248 664.405C311.261 663.285 311.275 662.175 311.275 661.097C311.288 660.541 311.275 659.998 311.275 659.451C311.275 658.495 311.275 657.551 311.261 656.63C311.261 656.078 311.248 655.531 311.235 654.991C311.221 654.093 311.208 653.213 311.181 652.347C311.168 651.857 311.155 651.359 311.141 650.878C311.115 649.921 311.075 648.993 311.035 648.081C311.021 647.742 311.008 647.387 310.995 647.054C310.941 645.825 310.875 644.637 310.808 643.494C310.795 643.263 310.781 643.053 310.768 642.826C310.715 641.922 310.661 641.038 310.595 640.191C310.568 639.815 310.541 639.459 310.515 639.097C310.461 638.43 310.408 637.773 310.355 637.146C310.315 636.773 310.288 636.41 310.261 636.05C310.195 635.465 310.141 634.894 310.088 634.345C310.061 634.018 310.035 633.689 309.995 633.374C309.941 632.815 309.875 632.283 309.821 631.766C309.795 631.515 309.768 631.25 309.728 631.007C309.661 630.335 309.581 629.701 309.501 629.107C309.488 629.054 309.488 628.991 309.475 628.938C309.395 628.319 309.328 627.758 309.248 627.229C309.235 627.117 309.221 627.003 309.195 626.895C309.128 626.401 309.061 625.939 308.995 625.533C308.981 625.47 308.981 625.417 308.968 625.357C308.915 624.989 308.861 624.655 308.808 624.366C308.808 624.315 308.795 624.258 308.781 624.209C308.728 623.915 308.688 623.665 308.648 623.459C308.648 623.398 308.635 623.342 308.621 623.289C308.595 623.131 308.568 622.979 308.555 622.894L334.261 607.954C334.275 608.041 334.301 608.186 334.328 608.355C334.341 608.41 334.355 608.451 334.368 608.515C334.395 608.723 334.448 608.97 334.488 609.269C334.501 609.319 334.515 609.374 334.515 609.427C334.568 609.71 334.621 610.033 334.675 610.389C334.688 610.463 334.701 610.527 334.701 610.603C334.768 611.006 334.835 611.454 334.901 611.939C334.928 612.059 334.941 612.181 334.955 612.306C335.035 612.827 335.115 613.378 335.195 613.989C335.195 613.991 335.195 613.995 335.195 613.998C335.195 614.051 335.208 614.114 335.208 614.167C335.288 614.762 335.368 615.394 335.448 616.067C335.475 616.31 335.501 616.573 335.528 616.826C335.581 617.345 335.648 617.874 335.701 618.434C335.741 618.75 335.768 619.075 335.808 619.405C335.861 619.955 335.915 620.522 335.968 621.11C335.995 621.471 336.035 621.833 336.061 622.207C336.115 622.829 336.168 623.477 336.221 624.135C336.248 624.51 336.275 624.874 336.301 625.262C336.368 626.086 336.421 626.946 336.475 627.826C336.488 628.075 336.515 628.309 336.528 628.562C336.595 629.702 336.648 630.887 336.701 632.114C336.728 632.449 336.728 632.805 336.755 633.147C336.781 634.057 336.821 634.982 336.848 635.937C336.861 636.419 336.875 636.915 336.888 637.407C336.915 638.273 336.928 639.151 336.955 640.051C336.955 640.593 336.968 641.139 336.968 641.693C336.981 642.609 336.981 643.545 336.995 644.495C336.995 645.051 336.995 645.601 336.995 646.167C336.981 647.231 336.968 648.325 336.955 649.429C336.955 649.91 336.955 650.377 336.941 650.867C336.915 652.462 336.875 654.091 336.808 655.765C336.808 656.046 336.795 656.342 336.781 656.626C336.728 658.031 336.675 659.458 336.595 660.917C336.568 661.515 336.528 662.131 336.501 662.739C336.435 663.921 336.368 665.111 336.288 666.326C336.248 667.023 336.195 667.727 336.141 668.435C336.061 669.614 335.968 670.809 335.875 672.017C335.808 672.749 335.755 673.481 335.688 674.222C335.581 675.506 335.448 676.813 335.328 678.127C335.261 678.807 335.195 679.478 335.128 680.165C334.941 681.926 334.741 683.714 334.528 685.529C334.501 685.789 334.475 686.039 334.435 686.301C334.195 688.375 333.915 690.49 333.621 692.634C333.541 693.275 333.435 693.933 333.341 694.581C333.128 696.106 332.901 697.641 332.661 699.199C332.541 700.013 332.408 700.837 332.275 701.659C332.035 703.098 331.795 704.547 331.541 706.014C331.395 706.889 331.248 707.766 331.088 708.651C330.821 710.138 330.541 711.641 330.248 713.154C330.088 714.013 329.928 714.867 329.755 715.734C329.408 717.482 329.048 719.253 328.675 721.034C328.541 721.677 328.408 722.309 328.275 722.957C327.741 725.389 327.195 727.851 326.608 730.345C326.488 730.887 326.341 731.445 326.208 731.991C325.741 733.951 325.261 735.925 324.755 737.922C324.528 738.817 324.288 739.722 324.061 740.625C323.621 742.313 323.168 744.006 322.701 745.717C322.435 746.714 322.155 747.715 321.875 748.721C321.408 750.398 320.915 752.086 320.421 753.785C320.128 754.793 319.835 755.798 319.528 756.813C318.981 758.643 318.408 760.491 317.821 762.349C317.541 763.231 317.275 764.105 316.995 764.993C316.115 767.741 315.195 770.509 314.248 773.309C300.701 812.946 276.608 836.451 252.608 850.394L226.901 865.334C250.901 851.393 274.981 827.886 288.528 788.249" fill="#0132C8"/>
<path d="M52.9242 641.389C73.9976 728.89 129.706 810.214 155.875 844.97C182.142 840.487 238.142 823.658 259.635 760.737C277.622 708.074 280.862 665.072 280.648 639.553C251.622 618.878 203.915 580.638 156.783 524.225C109.552 526.121 61.8376 509.281 32.7723 496.414C32.4323 521.896 35.4256 568.724 52.9242 641.389M156.898 483.857C228.595 576.726 304.555 620.585 308.555 622.893C309.195 626.353 321.382 692.086 288.528 788.248C255.675 884.402 160.755 885.623 155.759 885.688C150.78 879.865 56.1669 769.217 23.9576 635.493C-8.24111 501.778 4.28301 450.313 4.94168 447.603C8.94034 449.913 84.9177 493.777 156.898 483.857" fill="#8FA9DD"/>
<path d="M174.111 505.163C172.497 503.253 170.883 501.314 169.268 499.356C168.925 498.94 168.583 498.524 168.24 498.105C166.616 496.124 164.992 494.124 163.368 492.093C163.179 491.857 162.992 491.617 162.804 491.381C161.276 489.464 159.748 487.521 158.223 485.558C158.039 485.321 157.853 485.094 157.671 484.856C157.412 484.525 157.156 484.192 156.897 483.858L182.607 468.919C183.044 469.485 183.483 470.041 183.92 470.604C185.453 472.577 186.989 474.53 188.528 476.458C188.701 476.686 188.888 476.919 189.075 477.147C190.701 479.18 192.328 481.182 193.955 483.166C194.288 483.584 194.635 484 194.981 484.416C196.595 486.375 198.208 488.313 199.821 490.222C200.048 490.494 200.275 490.762 200.501 491.033C202.035 492.828 203.555 494.601 205.075 496.355C205.328 496.651 205.581 496.949 205.835 497.244C207.101 498.688 208.355 500.118 209.608 501.533C209.768 501.72 209.941 501.905 210.101 502.093C211.208 503.325 212.301 504.548 213.395 505.76C213.795 506.211 214.208 506.657 214.621 507.107C215.475 508.056 216.341 509 217.195 509.935C217.648 510.419 218.088 510.899 218.528 511.379C219.368 512.291 220.221 513.196 221.061 514.094C221.475 514.544 221.901 514.997 222.328 515.444C223.328 516.507 224.328 517.559 225.328 518.601C225.568 518.855 225.808 519.111 226.048 519.363C227.288 520.652 228.515 521.927 229.741 523.188C230.075 523.521 230.395 523.849 230.715 524.18C231.635 525.108 232.528 526.031 233.435 526.941C233.861 527.372 234.288 527.796 234.715 528.221C235.528 529.04 236.341 529.852 237.155 530.656C237.555 531.054 237.955 531.453 238.368 531.849C239.768 533.235 241.168 534.605 242.555 535.952C242.688 536.08 242.821 536.204 242.955 536.329C244.235 537.568 245.515 538.787 246.781 539.991C247.128 540.325 247.488 540.659 247.835 540.991C249.208 542.291 250.581 543.577 251.941 544.837C251.995 544.892 252.061 544.945 252.115 545.001C253.435 546.22 254.728 547.414 256.035 548.597C256.368 548.902 256.701 549.208 257.035 549.511C258.381 550.724 259.701 551.927 261.021 553.1C261.035 553.101 261.035 553.104 261.035 553.107C262.368 554.291 263.675 555.446 264.981 556.592C265.315 556.874 265.635 557.155 265.955 557.436C267.181 558.511 268.408 559.573 269.621 560.612C269.688 560.668 269.755 560.725 269.821 560.781C271.088 561.872 272.355 562.936 273.595 563.988C273.915 564.255 274.235 564.517 274.541 564.78C275.675 565.731 276.808 566.668 277.915 567.586C278.021 567.677 278.141 567.769 278.248 567.861C279.461 568.865 280.661 569.845 281.861 570.811C282.141 571.041 282.421 571.269 282.701 571.499C283.755 572.345 284.795 573.177 285.821 573.993C285.968 574.115 286.128 574.239 286.275 574.36C287.421 575.272 288.555 576.161 289.675 577.036C289.941 577.241 290.195 577.441 290.461 577.645C291.421 578.4 292.381 579.143 293.328 579.869C293.501 580 293.675 580.134 293.848 580.264C294.915 581.085 295.968 581.883 297.008 582.665C297.261 582.859 297.501 583.045 297.755 583.236C298.635 583.896 299.501 584.544 300.355 585.179C300.541 585.315 300.728 585.452 300.915 585.587C301.901 586.323 302.888 587.041 303.848 587.741C304.061 587.9 304.275 588.056 304.488 588.213C305.301 588.804 306.101 589.38 306.888 589.941C307.061 590.069 307.248 590.2 307.421 590.325C308.328 590.979 309.221 591.612 310.101 592.227C310.288 592.365 310.488 592.497 310.675 592.632C311.408 593.148 312.128 593.652 312.835 594.14C313.008 594.26 313.181 594.38 313.355 594.497C314.181 595.069 314.981 595.623 315.768 596.156C315.915 596.263 316.061 596.363 316.221 596.467C316.875 596.913 317.515 597.348 318.141 597.769C318.315 597.883 318.488 597.999 318.648 598.111C319.368 598.592 320.075 599.055 320.741 599.5C320.888 599.593 321.021 599.68 321.155 599.771C321.728 600.148 322.275 600.512 322.821 600.863C322.968 600.956 323.101 601.051 323.248 601.143C323.875 601.545 324.475 601.935 325.048 602.304C325.141 602.363 325.221 602.419 325.315 602.477C325.821 602.796 326.301 603.1 326.755 603.392C326.888 603.471 327.008 603.551 327.128 603.628C327.648 603.951 328.141 604.261 328.595 604.547C328.648 604.579 328.701 604.605 328.741 604.636C329.168 604.899 329.568 605.144 329.941 605.376C330.035 605.433 330.128 605.492 330.221 605.548C330.621 605.791 330.995 606.02 331.341 606.225C331.368 606.247 331.408 606.264 331.435 606.284C331.755 606.479 332.048 606.656 332.328 606.819C332.381 606.852 332.435 606.885 332.488 606.919C333.048 607.249 333.488 607.505 333.808 607.691C333.848 607.717 333.901 607.747 333.941 607.769C334.061 607.843 334.181 607.911 334.261 607.955L308.555 622.895C308.475 622.851 308.368 622.785 308.235 622.709C308.195 622.684 308.141 622.66 308.101 622.631C307.781 622.445 307.341 622.189 306.781 621.859C306.728 621.824 306.675 621.792 306.621 621.759C306.341 621.596 306.048 621.42 305.728 621.224C305.688 621.204 305.661 621.187 305.635 621.165C305.288 620.96 304.915 620.731 304.515 620.489C304.421 620.432 304.328 620.375 304.235 620.317C303.861 620.084 303.461 619.839 303.035 619.576C302.981 619.545 302.941 619.519 302.888 619.487C302.435 619.2 301.941 618.891 301.421 618.568C301.301 618.491 301.181 618.412 301.048 618.332C300.595 618.041 300.115 617.736 299.608 617.417C299.515 617.359 299.435 617.304 299.341 617.244C298.768 616.877 298.168 616.491 297.555 616.089C297.395 615.992 297.248 615.892 297.088 615.792C296.555 615.445 296.008 615.087 295.448 614.713C295.315 614.621 295.168 614.535 295.035 614.44C294.355 613.996 293.661 613.532 292.941 613.051C292.781 612.939 292.608 612.823 292.435 612.709C291.808 612.288 291.168 611.855 290.515 611.407C290.355 611.303 290.208 611.203 290.061 611.097C289.275 610.563 288.461 610.009 287.648 609.437C287.475 609.32 287.301 609.199 287.128 609.079C286.421 608.595 285.715 608.096 284.981 607.585C284.781 607.443 284.581 607.305 284.381 607.16C283.515 606.547 282.621 605.916 281.715 605.265C281.541 605.141 281.355 605.009 281.181 604.883C280.395 604.32 279.595 603.744 278.781 603.155C278.568 602.996 278.355 602.841 278.128 602.681C277.181 601.984 276.208 601.268 275.208 600.533C275.021 600.392 274.821 600.247 274.635 600.104C273.781 599.476 272.928 598.833 272.048 598.177C271.795 597.987 271.555 597.799 271.288 597.605C270.261 596.824 269.208 596.029 268.141 595.211C267.968 595.073 267.781 594.931 267.595 594.792C266.661 594.075 265.715 593.342 264.768 592.597C264.488 592.386 264.221 592.18 263.955 591.968C262.848 591.097 261.715 590.213 260.581 589.307C260.408 589.177 260.248 589.043 260.088 588.915C259.075 588.108 258.048 587.285 257.008 586.451C256.728 586.215 256.435 585.981 256.141 585.743C254.955 584.781 253.755 583.807 252.541 582.808C252.421 582.708 252.301 582.603 252.181 582.503C251.075 581.597 249.968 580.671 248.848 579.732C248.528 579.461 248.208 579.192 247.875 578.92C246.635 577.873 245.381 576.813 244.115 575.728C244.048 575.661 243.968 575.593 243.888 575.527C242.688 574.499 241.475 573.449 240.261 572.386C239.928 572.1 239.595 571.813 239.261 571.522C237.968 570.381 236.648 569.228 235.328 568.047C235.328 568.044 235.315 568.043 235.315 568.041C234.008 566.869 232.675 565.671 231.341 564.46C230.995 564.151 230.648 563.839 230.315 563.527C229.035 562.357 227.741 561.175 226.435 559.969C226.368 559.903 226.288 559.837 226.221 559.771C224.875 558.516 223.501 557.236 222.141 555.941C221.781 555.603 221.421 555.263 221.061 554.921C219.795 553.727 218.541 552.521 217.275 551.294C217.128 551.157 216.981 551.024 216.848 550.885C215.461 549.544 214.061 548.179 212.661 546.799C212.501 546.64 212.341 546.485 212.181 546.327C211.928 546.081 211.675 545.828 211.435 545.583C210.635 544.787 209.821 543.985 209.021 543.177C208.595 542.744 208.155 542.311 207.715 541.872C206.835 540.973 205.941 540.064 205.035 539.15C204.701 538.806 204.368 538.466 204.035 538.12C202.808 536.862 201.568 535.591 200.341 534.303C200.101 534.051 199.848 533.795 199.608 533.541C198.621 532.499 197.621 531.446 196.621 530.384C196.195 529.936 195.768 529.482 195.341 529.03C194.515 528.137 193.675 527.237 192.835 526.329C192.381 525.843 191.928 525.355 191.475 524.863C190.635 523.939 189.781 523.007 188.928 522.068C188.515 521.609 188.088 521.152 187.673 520.691C186.585 519.485 185.495 518.267 184.401 517.039C184.233 516.849 184.065 516.663 183.896 516.473C182.643 515.059 181.388 513.628 180.131 512.184C180.039 512.078 179.947 511.975 179.853 511.869C179.689 511.68 179.525 511.484 179.361 511.294C177.841 509.541 176.321 507.768 174.797 505.973C174.568 505.703 174.339 505.435 174.111 505.163" fill="#8FA9DD"/>
<path d="M354.195 100.386L762.795 337.305" stroke="#0D046A" stroke-width="6.66667" stroke-miterlimit="10" stroke-linecap="round" stroke-linejoin="round"/>
<path d="M216.648 20.6291L273.342 53.5078" stroke="#0D046A" stroke-width="6.66667" stroke-miterlimit="10" stroke-linecap="round" stroke-linejoin="round"/>
<path d="M204.288 413.13V484.508" stroke="#0D046A" stroke-width="6.66667" stroke-miterlimit="10" stroke-linecap="round" stroke-linejoin="round"/>
<path d="M204.288 133.04V341.844" stroke="#0D046A" stroke-width="6.66667" stroke-miterlimit="10" stroke-linecap="round" stroke-linejoin="round"/>
<path d="M347.595 647.279L694.381 847.496L695.408 519.305" stroke="#0D046A" stroke-width="6.66667" stroke-miterlimit="10" stroke-linecap="round" stroke-linejoin="round"/>
<path d="M718.901 751.033V810.045" stroke="#263775" stroke-width="6.66667" stroke-miterlimit="10" stroke-linecap="round" stroke-linejoin="round"/>
<path d="M718.901 470.857V694.479" stroke="#0D046A" stroke-width="6.66667" stroke-miterlimit="10" stroke-linecap="round" stroke-linejoin="round"/>
<path d="M403.702 316.089L695.408 484.508" stroke="#0D046A" stroke-width="6.66667" stroke-miterlimit="10" stroke-linecap="round" stroke-linejoin="round"/>
<path d="M890.275 743.873L891.302 380.885" stroke="#0D046A" stroke-width="6.66667" stroke-miterlimit="10" stroke-linecap="round" stroke-linejoin="round"/>
<path d="M4.94179 447.603C4.94179 447.603 -22.5089 680.541 155.759 885.688" stroke="#0D046A" stroke-width="6.66667" stroke-miterlimit="10" stroke-linecap="round" stroke-linejoin="round"/>
<path d="M177.809 883.297C177.809 883.297 202.649 882.246 241.942 855.213" stroke="#0D046A" stroke-width="6.66667" stroke-miterlimit="10" stroke-linecap="round" stroke-linejoin="round"/>
<path d="M522.888 971.008L554.875 995.673C558.382 998.501 558.581 1003.57 555.661 1007C546.515 1017.68 520.582 1002.12 518.248 997.259C518.248 997.259 510.675 1000.07 500.315 993.12C500.315 993.12 497.315 989.702 499.528 976.025L522.888 971.008Z" fill="#8FA9DD"/>
<path d="M483.408 878.517L483.901 880.23C481.621 918.57 496.541 974.818 496.541 974.818C515.035 983.337 524.181 969.416 524.181 969.416C524.181 969.416 518.235 950.717 515.875 890.865C513.488 831.013 498.021 776.74 498.021 776.74L494.501 777.544L456.701 786.15L483.408 878.517" fill="#D4E0F4"/>
<path d="M479.181 841.086C477.235 826.237 476.488 810.705 481.835 796.73C484.621 789.506 488.968 782.913 494.501 777.542L456.701 786.149L483.408 878.516C483.235 866.01 480.821 853.54 479.181 841.086" fill="#8FA9DD"/>
<path d="M428.248 976.507C428.248 976.507 432.542 1011.08 425.062 1015.39C417.582 1019.71 404.888 1013.05 403.542 1006.4C402.195 999.752 403.555 980.036 407.035 973.892C410.515 967.751 428.248 976.507 428.248 976.507" fill="#8FA9DD"/>
<path d="M477.355 786.793C477.355 786.793 432.128 921.615 430.568 975.646C430.568 975.646 416.888 982.295 403.621 971.489C403.621 971.489 402.235 907.723 411.275 879.639C411.275 879.639 420.408 824.538 417.435 802.214C414.461 779.891 425.021 772.274 425.021 772.274L477.355 786.793" fill="#D4E0F4"/>
<path d="M475.982 643.84C475.982 643.84 489.595 648.036 496.021 663.416C502.448 678.796 498.128 769.336 500.501 775.289C500.501 775.289 481.368 802.377 424.648 775.289C424.648 775.289 430.688 735.397 417.782 711.42C404.888 687.44 409.368 652.194 447.395 642.532L475.982 643.84Z" fill="url(#paint4_linear_621_42)"/>
<path d="M469.061 652.278V657.429C469.061 658.992 467.688 660.208 466.141 659.993C460.808 659.257 449.848 656.83 447.395 649.233V640.817L469.061 652.278" fill="url(#paint5_linear_621_42)"/>
<path d="M469.061 646.075V652.279C469.061 652.279 452.741 649.367 447.395 640.818V635.402L469.061 646.075" fill="#F5937F"/>
<path d="M451.755 635.402C441.515 633.866 432.594 625.737 430.101 615.693C428.834 610.546 429.141 605.118 430.155 599.917C431.168 594.72 432.915 589.605 435.848 585.197C438.781 580.789 442.968 577.116 447.968 575.374C453.688 573.384 460.141 574.054 465.621 576.62C471.101 579.186 475.048 583.448 478.381 588.49C482.355 587.064 487.275 589.354 488.728 593.314C489.728 596.009 489.221 599.02 488.421 601.78C486.688 607.81 483.595 613.442 479.421 618.134C472.088 626.402 461.395 629.992 451.755 635.402" fill="#0D046A"/>
<path d="M529.408 684.977C533.728 687.156 541.635 690.277 545.955 692.457C547.088 690.856 547.421 688.081 548.568 686.481C551.155 687.085 557.635 686.742 560.342 683.146C562.515 680.25 563.128 676.565 563.315 672.948C563.422 670.6 563.502 668.106 562.342 666.065C560.835 663.413 557.621 662.248 554.621 661.726C551.608 661.206 547.288 661.434 544.568 660.036C544.808 657.4 544.542 654.201 544.475 651.554C544.408 648.606 543.528 645.682 541.968 643.177C541.248 642.02 540.208 640.852 538.848 640.817C537.462 640.782 536.301 641.989 535.901 643.313C535.501 644.634 535.675 646.052 535.808 647.426C536.822 657.564 535.461 667.929 531.861 677.462C530.995 679.782 530.422 682.712 529.408 684.977Z" fill="url(#paint6_linear_621_42)"/>
<path d="M480.128 604.815C480.128 604.815 485.742 649.388 467.662 647.829C449.582 646.271 446.155 633.677 446.155 633.677C446.155 633.677 433.369 622.965 440.849 621.993H446.462C446.462 621.993 441.782 608.555 447.089 607.931C452.382 607.308 465.995 621.469 480.128 604.815" fill="url(#paint7_linear_621_42)"/>
<path d="M499.488 697.189L505.062 714.929L529.995 681.837C529.995 681.837 544.968 684.039 550.782 693.521C550.782 693.521 518.622 742.435 499.488 748.668C499.488 748.668 495.168 707.272 499.488 697.189" fill="url(#paint8_linear_621_42)"/>
<path d="M421.262 657.759C421.262 657.759 380.688 702.574 376.955 729.284C373.208 755.994 409.115 792.152 411.275 792.152C413.422 792.152 430.568 780.619 430.568 780.619C430.568 780.619 400.328 736.239 402.515 729.284C404.688 722.33 420.902 710.484 420.902 710.484C420.902 710.484 428.782 665.192 421.262 657.759" fill="url(#paint9_linear_621_42)"/>
<path d="M428.955 781.691C428.955 781.691 437.208 783.84 440.222 786.75L443.755 792.152L426.715 810.543C426.715 810.543 412.635 801.128 412.608 791.706L428.955 781.691" fill="url(#paint10_linear_621_42)"/>
<path d="M425.062 811.2C431.702 804.944 437.955 798.292 443.795 791.279C444.515 790.413 445.742 791.655 445.022 792.516C439.195 799.529 432.942 806.181 426.302 812.435C425.475 813.208 424.235 811.973 425.062 811.2" fill="#8FA9DD"/>
<defs>
<linearGradient id="paint0_linear_621_42" x1="277.413" y1="751.133" x2="741.711" y2="751.133" gradientUnits="userSpaceOnUse">
<stop stop-color="#00C832"/>
<stop offset="1" stop-color="#0032C8"/>
</linearGradient>
<linearGradient id="paint1_linear_621_42" x1="483.733" y1="670.794" x2="948.03" y2="670.794" gradientUnits="userSpaceOnUse">
<stop stop-color="#00C832"/>
<stop offset="1" stop-color="#0032C8"/>
</linearGradient>
<linearGradient id="paint2_linear_621_42" x1="375.538" y1="400.554" x2="868.059" y2="400.554" gradientUnits="userSpaceOnUse">
<stop stop-color="#00C832"/>
<stop offset="1" stop-color="#0032C8"/>
</linearGradient>
<linearGradient id="paint3_linear_621_42" x1="86.5147" y1="552.428" x2="378.801" y2="996.361" gradientUnits="userSpaceOnUse">
<stop stop-color="#8FA9DD"/>
<stop offset="1" stop-color="#00FF00"/>
</linearGradient>
<linearGradient id="paint4_linear_621_42" x1="561.3" y1="628.164" x2="477.317" y2="739.204" gradientUnits="userSpaceOnUse">
<stop stop-color="#0032C8"/>
<stop offset="0.13" stop-color="#003DBB"/>
<stop offset="0.38" stop-color="#00599A"/>
<stop offset="0.7" stop-color="#008565"/>
<stop offset="1" stop-color="#00B42D"/>
</linearGradient>
<linearGradient id="paint5_linear_621_42" x1="459.79" y1="656.955" x2="456.974" y2="625.173" gradientUnits="userSpaceOnUse">
<stop stop-color="#FEBBBA"/>
<stop offset="1" stop-color="#FF928E"/>
</linearGradient>
<linearGradient id="paint6_linear_621_42" x1="548.838" y1="684.219" x2="536.038" y2="600.016" gradientUnits="userSpaceOnUse">
<stop stop-color="#FEBBBA"/>
<stop offset="1" stop-color="#FF928E"/>
</linearGradient>
<linearGradient id="paint7_linear_621_42" x1="462.786" y1="641.001" x2="455.578" y2="569.907" gradientUnits="userSpaceOnUse">
<stop stop-color="#FEBBBA"/>
<stop offset="1" stop-color="#FF928E"/>
</linearGradient>
<linearGradient id="paint8_linear_621_42" x1="587.039" y1="675.206" x2="551.914" y2="735.212" gradientUnits="userSpaceOnUse">
<stop stop-color="#0032C8"/>
<stop offset="0.13" stop-color="#003DBB"/>
<stop offset="0.38" stop-color="#00599A"/>
<stop offset="0.7" stop-color="#008565"/>
<stop offset="1" stop-color="#00B42D"/>
</linearGradient>
<linearGradient id="paint9_linear_621_42" x1="342.214" y1="807.885" x2="557.489" y2="760.067" gradientUnits="userSpaceOnUse">
<stop stop-color="#00C832"/>
<stop offset="0.0433" stop-color="#00BF3B"/>
<stop offset="0.3421" stop-color="#008377"/>
<stop offset="0.5963" stop-color="#0057A3"/>
<stop offset="0.7934" stop-color="#003CBE"/>
<stop offset="0.9092" stop-color="#0032C8"/>
</linearGradient>
<linearGradient id="paint10_linear_621_42" x1="430.427" y1="805.94" x2="426.007" y2="758.218" gradientUnits="userSpaceOnUse">
<stop stop-color="#FEBBBA"/>
<stop offset="1" stop-color="#FF928E"/>
</linearGradient>
</defs>
</svg>
