<svg xmlns="http://www.w3.org/2000/svg" viewBox="0 0 214.6484 223.7146"><defs><style>.cls-1{fill:#97e22e;}.cls-2{fill:#303539;}</style></defs><g id="Слой_2" data-name="Слой 2"><path class="cls-1" d="M14.0389,174.0791v-2.2505H9.5372v2.2505c-6.19,0-9.5372,3.5719-9.5372,8.187,0,4.726,3.46,8.2143,9.5372,8.2143v2.4481h4.5017V190.48c6.0764,0,9.5372-3.4883,9.5372-8.2143C23.5761,177.651,20.2278,174.0791,14.0389,174.0791ZM9.5372,186.3732c-3.6852,0-5.0074-1.7441-5.0074-4.136s1.3222-4.0783,5.0074-4.0783Zm4.5017,0v-8.2143c3.6852,0,5.0073,1.6879,5.0073,4.0783S17.7241,186.3732,14.0389,186.3732Zm24.1532,1.5479H30.3139V184.544h6.19v-4.3323h-6.19V176.836h7.8782v-4.4447H25.8129v19.9746H38.1921Zm5.8878,4.4448H56.1215v4.1634h4.3323v-8.4956H58.1189l-8.0182-15.8675-8.0181,15.8675H39.7477v8.4956H44.08ZM50.1007,181.31l3.2351,6.7241h-6.47Zm12.2948,11.0563H74.774v-4.4448H66.8965V184.544h6.19v-4.3323h-6.19V176.836H74.774v-4.4447H62.3955Zm19.9153-6.4154h2.0825a6.78,6.78,0,1,0,0-13.5592H77.81v19.9746h4.501Zm0-9.34H84.337a2.5454,2.5454,0,0,1,2.5319,2.5608,2.5875,2.5875,0,0,1-2.5319,2.588H82.3108Zm6.823,15.755H93.86l1.4636-3.0944h7.3149l1.4628,3.0944h4.7256l-9.8463-20.2Zm7.9056-6.753,1.941-4.1345,1.9419,4.1345Zm12.16,6.753h4.7549l5.091-10.4937,5.0652,10.4937h4.7822l-9.8474-20.2Zm28.6284-12.9981H134.902v-6.9765h-4.501v19.9746h7.4266a6.5074,6.5074,0,1,0,0-12.9981Zm-.0563,8.7784H134.902V183.56h2.8693a2.3044,2.3044,0,1,1,0,4.5861Zm21.45-7.9345h-7.9892v-7.82h-4.5025v19.9746h4.5025V184.544h7.9892v7.8219h4.501V172.3913h-4.501Zm24.8421,12.1542h4.5025V172.3913H184.063ZM174.78,179.3678h-2.9256v-6.9765h-4.5025v19.9746H174.78a6.5074,6.5074,0,1,0,0-12.9981Zm-.0563,8.7784h-2.8693V183.56h2.8693a2.3043,2.3043,0,1,1,0,4.5861Zm27.2188-16.5426a4.8644,4.8644,0,0,0,5.1777-4.9526h-2.7006a2.4769,2.4769,0,1,1-4.9526,0h-2.7006A4.8639,4.8639,0,0,0,201.9422,171.6036ZM196.71,182.8287V172.3913h-4.501v20.2l12.6043-10.6624v10.4374h4.501v-20.2ZM2.138,223.49H6.64V207.8471h7.568V223.49h4.501V203.5149H2.138Zm26.6873-19.9747H22.2426V223.49h4.5009v-6.414h2.0818a6.7806,6.7806,0,1,0,0-13.5607Zm-.0556,9.3684H26.7435v-5.1487H28.77a2.5452,2.5452,0,0,1,2.5318,2.5607A2.5873,2.5873,0,0,1,28.77,212.8833ZM47.2032,203.29a10.2124,10.2124,0,1,0,10.2123,10.2124A10.23,10.23,0,0,0,47.2032,203.29Zm0,16.0925a5.8836,5.8836,0,1,1,5.6825-5.88A5.73,5.73,0,0,1,47.2032,219.3824ZM59.7984,223.49H72.1776v-4.4448H64.2993v-3.3757h6.19v-4.3337h-6.19V207.96h7.8783v-4.4447H59.7984Zm31.985-19.9747H86.6066L79.63,213.5312V203.5149H75.1283V223.49H79.63v-9.3685l7.4829,9.3685h5.5715l-7.9056-9.8748Zm1.1344,4.4447H97.7v15.53h4.5017V207.96h4.8112v-4.4447H92.9178Z"/><path class="cls-2" d="M29.1621,46.9767H39.2315V10.5994H51.14V46.9767H61.21V.5231H29.1621ZM88.9893,0a23.75,23.75,0,1,0,23.75,23.75A23.7909,23.7909,0,0,0,88.9893,0Zm0,37.4243c-7.5239,0-13.2155-6.15-13.2155-13.6748s5.6916-13.674,13.2155-13.674,13.2163,6.1508,13.2163,13.674S96.5133,37.4243,88.9893,37.4243ZM126.9705.5231H116.7688V46.9767H126.84V32.0589h.1308A15.6411,15.6411,0,0,0,142.8684,16.291,15.6411,15.6411,0,0,0,126.9705.5231ZM126.84,22.31V10.3371a5.9183,5.9183,0,0,1,5.8878,5.9539A6.0173,6.0173,0,0,1,126.84,22.31ZM144.2719.5231V10.5994h9.27V46.9767h10.0679V10.5994h9.27V.5231ZM.29,23.75a23.79,23.79,0,0,0,23.75,23.75V37.4243c-7.5231,0-13.2155-6.15-13.2155-13.6748s5.6924-13.674,13.2155-13.674V0A23.79,23.79,0,0,0,.29,23.75Z"/><path class="cls-2" d="M24.1251,74.4555H12.2172V56.2668H2.1479V102.72H12.2172V84.5317H24.1251V102.72H34.1945V56.2668H24.1251Zm120.6243,8.3184V56.2668h-9.928L108.0007,102.72H119.57l15.11-26.171V102.72h10.1212L159.9964,76.4V102.72h10.0694V56.2668H160.0527Zm-82.7751-27.03a23.75,23.75,0,1,0,23.75,23.75A23.79,23.79,0,0,0,61.9743,55.7437Zm0,37.4243c-7.5239,0-13.2155-6.15-13.2155-13.6748s5.6916-13.674,13.2155-13.674,13.2171,6.15,13.2171,13.674S69.499,93.168,61.9743,93.168Zm53.8791-21.1334A15.64,15.64,0,0,0,99.9552,56.2668h-10.2V102.72H99.8244V87.8026h.1308A15.64,15.64,0,0,0,115.8534,72.0346ZM99.8244,78.054V66.0808a5.9184,5.9184,0,0,1,5.8885,5.9538A6.0176,6.0176,0,0,1,99.8244,78.054Zm98.7117-21.7864L171.7172,102.72H183.286l3.5627-6.14h12.4872v6.14h10.0694V56.2668Zm.8,31.2879h-7.3035l7.3035-12.6332Z"/><path class="cls-2" d="M59.4919,112.0105H47.924L35.855,132.915V112.0105h-10.07V132.915l-12.069-20.9045H2.1479l12.484,21.6237L.2965,158.4641H11.8652l13.92-24.1091v24.1091h10.07V134.355l13.92,24.1091H61.3425l-14.3347-24.83Zm63.6345,21.4641c3.7286-2.9439,4.7763-5.6658,4.7763-9.5266,0-8.3747-7.1971-11.9375-14.721-11.9375h-6.8568v9.61h6.8568c3.4381.3216,4.5147,1.8665,4.5147,4.29,0,2.6823-1.8323,4.2273-4.6455,4.2273h-4.8735v8.8331h5.5274c3.4031,0,5.43,2.0072,5.43,4.9511,0,2.8633-1.814,4.9039-5.9531,4.9313h-6.8568v9.61h6.8568c8.8757-.0775,16.29-5.1274,16.29-14.2206C129.4719,138.9441,127.0511,135.7646,123.1264,133.4746Zm33.8425-3.2754H144.132V112.0105H134.0626v46.4536H144.132V140.2747h12.8369v18.1894h10.0694V112.0105H156.9689ZM74.4927,138.62v-26.61h-10.07v46.4536H74.5983L89.739,132.24v26.2243H99.8084V112.0105H89.8553Zm124.9587-26.61-15.3626,26.61v-26.61H174.0194v46.4536h10.1758L199.3359,132.24v26.2243h10.0694V112.0105Z"/><polygon class="cls-1" points="214.648 23.75 206.601 37.686 196.339 37.686 201.702 28.395 172.879 28.395 172.879 19.105 201.702 19.105 196.339 9.814 206.601 9.814 214.648 23.75"/></g></svg>