<svg xmlns="http://www.w3.org/2000/svg" xmlns:xlink="http://www.w3.org/1999/xlink" viewBox="0 0 99.7174 117.7265"><defs><style>.cls-1{isolation:isolate;}.cls-2{fill:#feb546;}.cls-3{fill:#f4a640;}.cls-4{opacity:0.2;}.cls-12,.cls-4{mix-blend-mode:multiply;}.cls-12,.cls-5{opacity:0.3;}.cls-6{fill:#fff;}.cls-7{fill:#07085b;}.cls-8{fill:#ffc0bb;}.cls-9{fill:#f99893;}.cls-10{fill:#f9b0ac;}.cls-11{fill:url(#Безымянный_градиент_86);}.cls-13{fill:#d65561;}</style><linearGradient id="Безымянный_градиент_86" x1="514.8714" y1="161.0444" x2="550.4061" y2="161.0444" gradientTransform="translate(-492.8698 -60.1191) rotate(-6.3284)" gradientUnits="userSpaceOnUse"><stop offset="0" stop-color="#00c832"/><stop offset="0.298" stop-color="#009268"/><stop offset="0.6215" stop-color="#005e9c"/><stop offset="0.8656" stop-color="#003ebc"/><stop offset="1" stop-color="#0032c8"/></linearGradient></defs><g class="cls-1"><g id="Layer_1" data-name="Layer 1"><path class="cls-2" d="M7.0526,63.03A47.3077,47.3077,0,1,0,38.9115,4.1993,47.3076,47.3076,0,0,0,7.0526,63.03Zm28.11-8.36a17.9808,17.9808,0,1,1,22.36,12.1089A17.9809,17.9809,0,0,1,35.1626,54.67Z"/><path class="cls-3" d="M54.4733,82.8334a47.335,47.335,0,0,0,26.0638-71.319,47.3115,47.3115,0,1,1-67.69,64.0041A47.2339,47.2339,0,0,0,54.4733,82.8334Z"/><g class="cls-4"><path class="cls-3" d="M44.013,28.9984a17.9853,17.9853,0,0,1,19.479,6.4008A17.9807,17.9807,0,0,0,38.044,60.3779a17.9759,17.9759,0,0,1,5.969-31.3795Z"/></g><g class="cls-5"><path class="cls-6" d="M18.1271,29.9286c1.5305,1.9039,7.2225-.131,12.7134-4.5451s8.7015-9.5357,7.171-11.44-7.2224.1309-12.7136,4.5452S16.5966,28.0247,18.1271,29.9286Z"/></g><path class="cls-7" d="M82.1617,7.1148s5.3231,6.7985,2.3049,13.0305a60.32,60.32,0,0,0-6.2887,22.1608C77.3762,49.631,68.0763,55.712,58.6361,50.403S37.6677,36.1636,40.3719,28.5763s10.4445-8.845,13.2559-12.8875,6.429-10.77,12.0828-13.33C71.5736-.2948,78.2184-1.4309,82.1617,7.1148Z"/><path class="cls-8" d="M61.8066,21.3729l2.6057.8355c.2094-.2485.6022-.6265.6022-.6265s.9812.64,1.327.9334c.1239.08.186.1651.1647.2539.0706-.0578.1742-.0389.3.0376.4148.1837,1.99,1.1473,1.99,1.1473s-.1695.5184-.3018.8151l1.3141,1.6232s-1.43,5.2958-1.6042,5.5735a31.7376,31.7376,0,0,1-5.7841,2.3062c-.5823.0089-1.4594-2.4157-1.5157-2.5734-.1666.018-2.7313.2837-2.9767-.2447a31.7446,31.7446,0,0,1-.4412-6.2112C57.6613,24.9649,61.8066,21.3729,61.8066,21.3729Z"/><path class="cls-9" d="M67.6514,21.7781l1.669,1.0411-.5238,1.1349a9.868,9.868,0,0,1-3.8408-2.3424l.818-1.005,1.669,1.0411Z"/><path class="cls-8" d="M79.1605,19.0883a1.45,1.45,0,0,0-1.1264-.67,6.7142,6.7142,0,0,0-2.04-9.6326,6.7142,6.7142,0,0,0-9.6314,2.0461,1.45,1.45,0,0,0-1.07-.7573,1.8106,1.8106,0,0,0-1.8015,1.7748,1.8106,1.8106,0,0,0,1.336,2.1473,1.2768,1.2768,0,0,0,.3556-.0091,6.2734,6.2734,0,0,0,10.4468,6.79,1.2685,1.2685,0,0,0,.1359.3287,2.0242,2.0242,0,0,0,3.3953-2.0178Z"/><path class="cls-7" d="M78.0341,18.4181A22.8316,22.8316,0,0,1,74.6568,9.389S68.91,11.8582,66.355,10.8438a18.5114,18.5114,0,0,1,.5081-1.9693c.13-.2087,4.063-3.2617,4.063-3.2617l5.9434.2294L80.9386,9.54s3.4167,2.421,2.9746,3.5942-1.1177,3.65-1.378,4.0675-3.8049.5244-3.8049.5244Z"/><path class="cls-8" d="M70.2206,27.21l16.3873-2.9873-2.2245-3.9034c.0279-.0582.0548-.1152.0832-.174a10.2061,10.2061,0,0,0,.572-6.96c2.9185,3.7969,9.6533,12.9425,8.519,15.0745-1.4407,2.7082-20.3135,6.7783-24.4689,6.41s-.5945-3.7484-.5265-4.0284S70.2206,27.21,70.2206,27.21Z"/><path class="cls-8" d="M49.7885.8044c1.4042-1.92,12.2557.0716,17.0628,1.0636-.3826.1558-.7634.32-1.1407.4912a16.1519,16.1519,0,0,0-4.5893,3.2617l-4.6734-.3165L60.8913,21.358s-2.1458,2.8037-2.368,2.9867-3.2978,4.3943-5.4379.8131S47.9774,3.28,49.7885.8044Z"/><path class="cls-10" d="M36.9052,59.3775s7.7235-5.0459,8.0636-5.1766,9.377.3776,9.377.3776l2.8312,5.3882S53.3145,70.1006,39.78,82.08a13.6964,13.6964,0,0,0-2.4391,3.8884c-.9073,2.2691-5.2894,11.389-13.348,16.9988a45.6377,45.6377,0,0,0-5.0065,5.4558,30.66,30.66,0,0,0-2.7442,5.5956s-.1972,3.0867-1.53,3.2434-2.42.7127-3.419.336-1.1546.2675-2.0434-.2869c-.7846-.4894,5.08-8.4928,6.9039-11.0791,1.5413-2.8108,7.68-14.07,7.87-14.2538.2167-.2082,11.449-16.47,11.0509-18.44S36.9052,59.3775,36.9052,59.3775Z"/><path class="cls-8" d="M6.53,102.42l-.0465-.0293S14.3194,85.3747,21.0185,83.47l7.04-2.7221s-4.7458-18.7593,3.0672-28.9525c0,0,3.2885-3.5705,5.9523-4.4368,0,0,10.6219,13.4574.174,33.9524,0,0-.9727,3.1959-3.3493,4.4141-2.1461,1.1-20.2023,15.4089-23.6877,18.1768-2.1264,2.8439-7.7951,10.5988-8.5067,9.9984-.8295-.6994-.2437-1.0572-.9334-1.9224S.2872,109.8633.0172,108.5s2.71-2.54,2.71-2.54A30.4465,30.4465,0,0,0,6.53,102.42Z"/><path class="cls-11" d="M37.0778,47.3588c2.6627-3.8338,9.9952-9.5553,10.768-10.1023s.2978-3.4256,2.3845-9.0832,7.1354-4.3826,7.6375-4.4976a20.4993,20.4993,0,0,0,2.9238-2.6779l1.015.3751-2.8077,3.7218a23.6258,23.6258,0,0,1,1.9193,6.5826A23.6478,23.6478,0,0,1,67.68,30.54l2.1286-4.1477.7795.7505A20.4953,20.4953,0,0,0,69.45,30.9407c.1151.5023,3.46,4.4928-.7251,8.834s-7.4126,4.8965-7.5688,5.8309S59.47,55.9,57.177,59.9667c0,0-9.7286-.4534-15.3232,2.1269l-.02.0316-.0009-.0224-.02.0089.02-.0316C41.72,55.92,37.0778,47.3588,37.0778,47.3588Z"/><g class="cls-12"><path class="cls-13" d="M47.8458,37.2565c.7735-.5472.2978-3.4256,2.3845-9.0832a6.23,6.23,0,0,1,4.914-4.4327S49.7285,31.6,52.9434,34.9065s7.0832,3.9272,8.0545,5.0525c0,0-5.2179-1.2089-7.3811-1.0177s-14.1756,16.483-.4631,21.04c-3.3281.1305-8.0223.6005-11.3,2.1121l-.02.0316-.0009-.0224-.02.0089.02-.0316c-.1122-6.16-4.7547-14.7213-4.7547-14.7213C39.7405,43.525,47.073,37.8035,47.8458,37.2565Z"/></g></g></g></svg>