<svg xmlns="http://www.w3.org/2000/svg" xmlns:xlink="http://www.w3.org/1999/xlink" viewBox="0 0 470.9711 533.3173"><defs><style>.cls-1{fill:#fff;}.cls-2{fill:#3797f5;}.cls-3{fill:#193054;}.cls-4{opacity:0.17;}.cls-5{fill:#001323;}.cls-6{fill:#ffb27d;}.cls-7{opacity:0.5;}.cls-8{fill:#ed985f;}.cls-9{fill:#2c3a64;}.cls-10{fill:url(#Безымянный_градиент_60);}.cls-11{fill:#233862;}.cls-12{fill:url(#Безымянный_градиент_60-2);}.cls-13{fill:#8c9df4;}.cls-14{fill:#ff9e55;}.cls-15{fill:#2f4b77;}.cls-16{fill:#bdd1f9;}.cls-17{fill:#ed7d2b;}.cls-18{fill:#f99746;}.cls-19{fill:url(#Безымянный_градиент_86);}.cls-20{opacity:0.2;}.cls-21{fill:#6980e2;}.cls-22{fill:#0032c8;}</style><linearGradient id="Безымянный_градиент_60" x1="37.5258" y1="164.7997" x2="161.3953" y2="164.7997" gradientUnits="userSpaceOnUse"><stop offset="0" stop-color="#00c832"/><stop offset="1" stop-color="#01895d"/></linearGradient><linearGradient id="Безымянный_градиент_60-2" x1="16.1251" y1="112.1148" x2="77.9224" y2="112.1148" xlink:href="#Безымянный_градиент_60"/><linearGradient id="Безымянный_градиент_86" x1="351.5421" y1="283.9143" x2="273.7839" y2="117.1612" gradientUnits="userSpaceOnUse"><stop offset="0" stop-color="#00c832"/><stop offset="0.298" stop-color="#009268"/><stop offset="0.6215" stop-color="#005e9c"/><stop offset="0.8656" stop-color="#003ebc"/><stop offset="1" stop-color="#0032c8"/></linearGradient></defs><g id="Слой_2" data-name="Слой 2"><path class="cls-1" d="M119.4526,49.1609a4.9829,4.9829,0,0,1-3.9263,3.9873c-6.2276,1.16-8.2389-2.7731-8.2389-2.7731S114.3693,47.3942,119.4526,49.1609Z"/><path class="cls-2" d="M90.4663,72.4308S43.4876,62.7233,14.62,82.943C-6.4892,97.7271-3.8011,222.7482,16.6512,229.8023c20.4538,7.0533,60.43-8.3819,60.43-8.3819Z"/><path class="cls-3" d="M131.648,512.7852s2.0926,18.93,6.4112,20.0858l50.3284-10.1148s-1.1562-5.8105-9.4991-5.4944-23.4919-1.5928-27.9926-11.66S131.648,512.7852,131.648,512.7852Z"/><path class="cls-2" d="M72.3475,230.8712a123.1,123.1,0,0,0-.1912,37.2682c1.3783,9.4606,24.6678,90.9966,22.9749,106.42-4.354,39.68,32.6077,141.58,32.6077,141.58,3.4386,3.6215,13.6971,6.9118,30.482-5.4544L141.9118,237.8018Z"/><g class="cls-4"><path class="cls-5" d="M72.3475,230.8712a123.1,123.1,0,0,0-.1912,37.2682c1.3783,9.4606,24.6678,90.9966,22.9749,106.42-4.354,39.68,32.6077,141.58,32.6077,141.58,3.4386,3.6215,13.6971,6.9118,30.482-5.4544L141.9118,237.8018Z"/></g><path class="cls-6" d="M111.1543,78.8669s29.4319,6.092,36.994,15.29c7.56,9.1964,10.4882,64.3439,15.6618,80.4536,6.1328,19.0943-11.2333,47.7013-11.2333,47.7013l-29.042-13.84Z"/><g class="cls-7"><path class="cls-8" d="M141.34,130.3937s11.25,30.1176,5.386,42.0443c-5.8624,11.9259-11.6,4.9862-11.6,4.9862Z"/></g><path class="cls-3" d="M46.1215,511.1457s-2.1107,18.9287,1.85,21.0018l51.32,1.17s.1475-5.9226-8.0627-7.444-22.57-6.7055-24.7536-17.5143S46.1215,511.1457,46.1215,511.1457Z"/><path class="cls-6" d="M70.9075,83.4158s34.8736,16.206,53.4659,9.018a44.9177,44.9177,0,0,0-13.5556-9.4117c.3974-3.8579.6842-7.2009.7866-10.0253A91.792,91.792,0,0,0,111.718,62.8L98.3288,53.6669,85.6261,44.9184C88.4037,71.754,70.9075,83.4158,70.9075,83.4158Z"/><g class="cls-7"><path class="cls-8" d="M86.1056,55.2191s9.359,14.611,25.4988,17.7777A91.792,91.792,0,0,0,111.718,62.8L98.3288,53.6669Z"/></g><path class="cls-6" d="M117.4842,61.9683S86.4059,69.2444,82.1431,50.1252C77.88,31.0045,70.9971,19.0666,90.66,13.6129s25.1585.9974,28.1575,7.0352S125.4588,59.582,117.4842,61.9683Z"/><path class="cls-9" d="M68.1329,12.8194c-.3072-.3078-.9832-.5277-2.4532-.5073a5.95,5.95,0,0,1,2.6835-.9567c.1671-2.0573,1.0057-5.7353,4.451-6.8493A4.4019,4.4019,0,0,0,70.9007,7.82c3.7751-4.445,12.2669-8.07,36.4822-7.8061,31.9123.3485,22.8326,21.3835,18.8867,24.0851S111.53,20.8611,103.915,21.99c-7.6156,1.1276-8.32,12.2894-10.8133,13.9847-2.4947,1.6952-1.6561-1.0592-5.2783-2.4089S84.2629,38.0623,85.535,41.78c1.2729,3.7163-3.2165,9.0391-3.2165,9.0391l-5.2369-4.9238c-5.2369-4.923-11.3485-26.87-9.4523-31.7655C67.7964,13.6979,67.9612,13.26,68.1329,12.8194Z"/><path class="cls-8" d="M109.53,202.0836c-.1009,1.32-.6963,2.351-1.3294,2.3028s-1.0636-1.1578-.9627-2.4781.6962-2.3509,1.3293-2.3027S109.6306,200.7634,109.53,202.0836Z"/><path class="cls-2" d="M50.4717,221.4114a123.091,123.091,0,0,0-8.36,36.3189c-.73,9.5321,4.1092,94.1913-.9237,108.867-12.9519,37.76.7618,145.2846.7618,145.2846,2.5609,4.2862,11.8476,9.7482,30.9359,1.364L116.8233,243.43Z"/><path class="cls-10" d="M77.9224,76.3331s29.928,15.0942,33.3146,2.3117c0,0,30.9586,5.5064,36.9113,15.512s13.247,47.3437,13.247,47.3437-4.8538,7.4726-20.5,7.2257l6.1974,94.91s-25.291,20.1451-109.5664,2.1611L50.03,112.0513Z"/><path class="cls-6" d="M61.1134,82.4959S36.21,86.3259,30.2339,99.72C22.29,117.526,11.02,180.2433,19.9566,192.8188c9.08,12.7765,67.72,20.6412,67.72,20.6412l5.4725-11.7324S45.5366,179.4732,45.34,177.2586c-.1972-2.2161,2.3245-32.3722,9.0654-47.5477C60.2967,116.45,61.1134,82.4959,61.1134,82.4959Z"/><path class="cls-11" d="M127.687,199.221h-2.6016a2.0279,2.0279,0,0,1-2.021-2.0242h0a2.0288,2.0288,0,0,1,2.0226-2.0219l2.6015.0015A2.0276,2.0276,0,0,1,129.71,197.2h0A2.0279,2.0279,0,0,1,127.687,199.221Z"/><path class="cls-12" d="M77.9224,76.3331S39.3663,85.9849,32.2182,94.7778s-16.0931,43.5544-16.0931,43.5544,15.9365,12.0982,36,9.0812,24.2-44.2393,24.201-45.0636S77.9224,76.3331,77.9224,76.3331Z"/><path class="cls-11" d="M136.6733,224.8816l-26.2876-.0091a4.5633,4.5633,0,0,1-4.5624-4.5654l.006-17.5241a4.565,4.565,0,0,1,4.5654-4.5632l26.2877.009a4.5651,4.5651,0,0,1,4.5624,4.5662l-.006,17.5242A4.5644,4.5644,0,0,1,136.6733,224.8816Z"/><path class="cls-13" d="M140.1194,224.8831l-21.39-.0075a4.183,4.183,0,0,1-4.1823-4.1854l.0053-18.2844a4.185,4.185,0,0,1,4.1853-4.183l21.391.0075a4.1824,4.1824,0,0,1,4.1816,4.1853L144.304,220.7A4.1839,4.1839,0,0,1,140.1194,224.8831Z"/><path class="cls-14" d="M138.1427,200.3908a.9787.9787,0,1,1,.96,1.1667A1.0783,1.0783,0,0,1,138.1427,200.3908Z"/><path class="cls-11" d="M136.1134,200.39a.5921.5921,0,1,1,.5811.7061A.652.652,0,0,1,136.1134,200.39Z"/><path class="cls-11" d="M136.1247,196.95h2.3876a.47.47,0,0,1,.47.47v.8092a0,0,0,0,1,0,0h-3.3259a0,0,0,0,1,0,0v-.81A.4686.4686,0,0,1,136.1247,196.95Z"/><polygon class="cls-11" points="126.602 203.464 146.781 200.125 146.775 219.521 127.354 217.322 126.602 203.464"/><path class="cls-15" d="M138.7893,209.8205c.0023-5.3559,3.58-9.6978,7.9913-9.6955s7.9867,4.3442,7.9844,9.7008-3.5793,9.6969-7.99,9.6954S138.7878,215.1763,138.7893,209.8205Z"/><path class="cls-11" d="M122.1452,210.3911c.0015-3.8263,2.1446-6.9276,4.7883-6.9262,2.6421.0008,4.7837,3.1037,4.7822,6.93s-2.1445,6.9268-4.7875,6.9268C124.2853,217.32,122.1437,214.2173,122.1452,210.3911Z"/><path class="cls-13" d="M152.8177,209.8258c-.0015,3.88-2.594,7.0261-5.7909,7.0254q-.2079,0-.4126-.0173c-3.0035-.2589-5.3746-3.3016-5.3731-7.0127a8.328,8.328,0,0,1,.2529-2.05,6.8118,6.8118,0,0,1,3.0577-4.3,4.9433,4.9433,0,0,1,2.48-.6752c3.1323.0008,5.6841,3.023,5.7835,6.7973C152.8162,209.67,152.8177,209.7474,152.8177,209.8258Z"/><path class="cls-16" d="M145.3767,205.6367a2.6267,2.6267,0,0,1-2.3411,2.8409,2.1023,2.1023,0,0,1-1.5416-.7069,6.8118,6.8118,0,0,1,3.0577-4.3A3.1086,3.1086,0,0,1,145.3767,205.6367Z"/><path class="cls-16" d="M152.8177,209.8258c-.0015,3.88-2.594,7.0261-5.7909,7.0254q-.2079,0-.4126-.0173a5.82,5.82,0,0,1-1.24-3.67c.0008-2.8846,1.9279-5.2219,4.3027-5.2212a3.9843,3.9843,0,0,1,3.1376,1.6508C152.8162,209.67,152.8177,209.7474,152.8177,209.8258Z"/><path class="cls-6" d="M93.1491,201.7276s7.0526-1.4912,11.8416.746,12.699,1.88,12.3165,4.2591-12.985,2.3456-11.0285,4.1439,18.9739,8.4181,14.2978,13.5044-15.4736,4.1853-18.7323,2.2733-15.6227-14.361-15.6227-14.361Z"/><path class="cls-6" d="M152.5768,222.3117c-1.2293,2.131-7.161,5.879-10.73,5.867s-8.0274-1.2052-6.6453-4.97c1.3805-3.7638,4.7543-5.4492,9.791-4.996C146.6262,218.36,154.3676,219.2073,152.5768,222.3117Z"/><path class="cls-11" d="M126.6037,198.1265a1.1749,1.1749,0,0,1-.6345-.186c-15.2463-9.7285-28.5234-33.1031-39.4646-69.4717a420.8042,420.8042,0,0,1-11.877-51.67,1.18,1.18,0,1,1,2.3335-.35c.1431.9439,14.294,92.5616,47.8511,117.8165-2.6821-12.6719-12.77-64.115-11.4012-114.9809a1.18,1.18,0,0,1,1.18-1.148l.0323.0008a1.1794,1.1794,0,0,1,1.1473,1.2112c-1.56,57.9808,11.849,116.7461,11.9845,117.3333a1.1806,1.1806,0,0,1-1.151,1.4453Z"/><path class="cls-2" d="M55.9247,82.1323s25.8789,50.5565-9,79.6519l-.3282,13.77s21.2315-11.0783,28.5242-34.8729c8.8606-28.9095-4.6039-65.5378-4.6039-65.5378Z"/><path class="cls-2" d="M141.902,164.4911a.1239.1239,0,0,0-.0083.0316c-2.9245-29.11-21.1456-75.2091-23.9669-84.4544,3.6614-.1762,8.2171.5141,10.872,3.0042,9.3154,23.2111,14.4408,33.4832,15.8884,55.7324.079,1.1721.1174,2.3373.1332,3.4777A82.24,82.24,0,0,1,141.902,164.4911Z"/><path class="cls-9" d="M275.384,97.5089s-6.11,12.68-22.2873,7.9321-28.1175,10.5373-19.6327,17.0846-18.3019,5.9976-23.6121,19.7926c-5.3086,13.7949-8.5289,33.96,20.53,31.7116s48.4194-61.9189,48.4194-61.9189Z"/><path class="cls-17" d="M313.4016,53.9962c3.2052,12.9765-6.5571,26.5484-21.8031,30.3138-15.2483,3.7655-30.2058-3.7006-33.4109-16.6765S264.744,41.0858,279.9915,37.32,310.1965,41.02,313.4016,53.9962Z"/><path class="cls-18" d="M345.88,57.1541c2.4164,9.7859-21.3594,24.0764-53.1068,31.9179s-59.4416,6.2641-61.8588-3.5218,21.3593-24.0757,53.1067-31.9179S343.462,47.3682,345.88,57.1541Z"/><path class="cls-17" d="M299.0365,81.379c-2.5778.8588-5.3071,1.6536-8.1559,2.3532-13.4646,3.3292-25.6463,3.6672-31.51,1.31-1.9809-.7964-3.2454-1.9033-3.5872-3.3041-.4523-1.8219.7019-3.9224,3.0894-6.0776,4.8868-4.4057,14.946-9.0414,27.0418-12.0295,11.4744-2.8366,22.017-3.502,28.51-2.1781,3.7.7491,6.0859,2.1507,6.5869,4.1713C322.1713,70.3034,312.788,76.7928,299.0365,81.379Z"/><path class="cls-11" d="M207.2117,492.7954s-8.0775,7.3673-6.5039,12.6036,8.8609,8.73,9.843,15.13,4.92,9.8925,8.4658,9.894,16.9018.0053,16.9018.0053,2.6113-4.5031-3.6908-5.8621-8.6766-8.8815-8.28-15.8627a122.991,122.991,0,0,0-.5854-16.2905l-13.3915-3.1077Z"/><path class="cls-11" d="M275.5592,496.7079s-2.9159,31.2183.6288,32.9647l45.37-.0776s.0016-5.2364-7.2849-6.4019-20.088-5.4373-22.2509-14.9407S275.5592,496.7079,275.5592,496.7079Z"/><path class="cls-17" d="M312.6929,239.7508s13.0672,40.72,13.9023,54.5822-25.0707,196.9162-26.1137,203.3029c-.9814,6.0205-8.459,9.8559-8.459,9.8559a11.3123,11.3123,0,0,1-8.3462.64c-6.8084-1.9246-8.9607-4.2276-8.9607-4.2276s-10.136-130.5626-3.82-177.1982A738.8265,738.8265,0,0,0,277.3,239.7387Z"/><path class="cls-18" d="M257.2725,238.5182s-19.9616,26.7654-21.8284,44.8626-2.9455,81.6666-6.9142,99.3077-18.5409,51.588-18.5592,106.6171c0,0,1.512,3.1542,6.1849,4.8367a50.9992,50.9992,0,0,0,5.44,1.5058,8.5533,8.5533,0,0,0,9.5681-4.5382c9.8514-19.8169,41.23-83.73,42.8413-96.9986,1.14-9.39,11.0626-71.5367,32.6717-107.9974,5.1868-8.7543-3.1671-43.5744-3.1671-43.5744Z"/><path class="cls-9" d="M316.7933,65.6305l-5.6428,5.0041-11.1349,9.878-.9791.8664-7.8872,7L275.1907,102.52s-1.4053-7.5582-5.7426-6.2077c-3.8987,1.2166-8.4163-3.639-10.0775-11.27a29.7735,29.7735,0,0,1-.4978-9.3817c4.545-4.0966,13.5612-8.3973,24.5347-11.3778.8276-.2231,1.6628-.4454,2.5071-.6517a93.12,93.12,0,0,1,19.2154-2.81,41.7251,41.7251,0,0,1,9.2941.6319c.97,1.5911,1.67,2.8488,2.0434,3.5569C316.6822,65.4075,316.7933,65.6305,316.7933,65.6305Z"/><path class="cls-6" d="M294.5859,167.94c-28.2569,2.7765-32.8407-43.1892-31.1087-43.043,3.42-1.9954,9.44-11.2438,12.7047-26.4282l1.2319.5284L298.043,107.96s-2.019,6.8891-3.4784,13.4615c-.9563,4.3227-1.6658,8.5115-1.4054,10.5381.0761.5984,4.43,2.8747,4.4377,2.8892C297.8146,135.3743,302.1229,167.2024,294.5859,167.94Z"/><path class="cls-8" d="M298.0438,107.9648s-2.0221,6.8822-3.4792,13.4607c-12.0059-2.9052-15.91-15.5886-17.1508-22.4237Z"/><path class="cls-6" d="M300.7137,115.05s-28.6954-5.5606-24.7038-23.8739,2.9752-31.3638,21.4659-28.5873S317.99,73.0975,318.1043,79.5146,308.2811,116.0248,300.7137,115.05Z"/><path class="cls-9" d="M315.21,92.1661c-2.7925-.2467-1.3339-9.9779-1.7381-14.9431a17.346,17.346,0,0,0-2.3212-6.5884,33.6213,33.6213,0,0,0-2.0433-3.2714,68.5056,68.5056,0,0,1-9.0916,13.1494,46.8837,46.8837,0,0,1-8.8663,7.8667,28.885,28.885,0,0,1-9.192,4.1179,70.2322,70.2322,0,0,0,14.6369-11.9937c-3.4937,2.6638-7.3619,4.6524-11.2445,4.8495-12.7078.6327-17.1928-3.7768-17.1928-3.7768A36.3666,36.3666,0,0,0,283.4075,64.283c.8276-.2231,1.6628-.4454,2.5071-.6517a93.12,93.12,0,0,1,19.2154-2.81,25.0815,25.0815,0,0,1,5.3063,3.6536,4.9564,4.9564,0,0,1,6.0312.5352,12.7326,12.7326,0,0,1,3.0148,4.1461C324.3006,78.818,315.21,92.1661,315.21,92.1661Z"/><path class="cls-1" d="M295.6867,102.4612c.3137.11,2.3114,3.8271,6.4514,4.4149s5.1891-2.5565,5.1891-2.5565a17.8232,17.8232,0,0,0-4.9729-1.7236A42.1974,42.1974,0,0,0,295.6867,102.4612Z"/><path class="cls-6" d="M414.8335,165.328s7.8735-3.8354,14.0088-4.0738,22.6376-2.3912,21.1363.0069-12.0728,2.3159-12.0728,4.0753c-.0015,1.7586-1.4313,9.1152-9.0033,8.6333s-10.4292.019-10.4292.019Z"/><path class="cls-19" d="M419.5734,161.3905s-35.5434,10.77-49.3352,10.0622c-13.1461-.6741-52.7707-30.9561-56.4555-33.792-.0935-.0709-.1832-.144-.2781-.2149l-.0259-.02v.0017c-5.2-3.846-12.2686-6.7469-20.0241-10.1958,0,0-1.767,18.6971-28.3285-3.67,0,0-22.049,3.8683-33.1931,17.368s-21.8664,63.2255-21.8664,63.2255l.0045.0033c.0094.0071.1291.096.3534.2427a36.07,36.07,0,0,0,8.7309,4.4481,36.4973,36.4973,0,0,0,13.5271,1.9355c-2.449,30.7031-3.7533,62.8225-3.7316,78.6493,0,0,43.107,20.17,99.9884,5.02,0,0,1.1992-67.2247-.5152-96.4029,12.7027,4.0707,30.3487,9.2239,41.537,10.3828,19.0953,1.977,51.4639-32.72,51.4639-32.72Z"/><path class="cls-2" d="M294.4823,205.7339c.6282,2.3882,21.5239,105.8329,21.5239,105.8329l26.0178-8.7292L368.25,314.4248l29.0287-14.5769,40.2734,10.9645,33.3752-21.2071.0434-126.884-33.3759,20.1732-40.2734-8.4224-37.37,19.0108-32.74-10.6249Z"/><g class="cls-20"><polygon class="cls-21" points="327.211 182.858 342.024 302.838 316.006 311.567 294.482 205.734 327.211 182.858"/></g><g class="cls-20"><polygon class="cls-21" points="437.595 182.895 437.553 310.812 470.928 289.605 470.971 162.721 437.595 182.895"/></g><path class="cls-22" d="M231.1505,232.6914l-.5641,9.2414v.0076s25.8969,2.9925,44.8108-1.7C263.67,238.9392,244.7511,236.4414,231.1505,232.6914Z"/><path class="cls-22" d="M240.1825,209.796c2.2882,2.7214,11.4607,7.5523,21.1891,12.1815-.0114-.0153-12.9595-16.83-10.0618-28.6126,2.9-11.7867,4.6151-18.2374,2.2276-16.7791s-8.8959,30.498-8.8959,30.498A6.5149,6.5149,0,0,1,240.1825,209.796Z"/><path class="cls-6" d="M299.5191,253.7871c-2.5617-.8915-3.8324-3.9969-7.3488-7.301-4.5619-4.2869-11.5179-5.6892-11.5179-5.6892l-1.4938-10.7437,9.0376,3.8706s7.6382-.5147,10.4147,1.2446c.8839.5489,1.6863,1.1466,2.4659,1.7427l1.0172,5.0133c-.2543.0083-.3427.1834-.2232.6692a2.0533,2.0533,0,0,0,.5246.7871c1.8135,2.03,9.0048,1.786,11.0268,8.0517C313.9887,253.1833,300.5858,254.1616,299.5191,253.7871Z"/><path class="cls-6" d="M232.6851,210.8425h-.0072l.0046-.0578a36.4973,36.4973,0,0,1-13.5271-1.9355,35.2692,35.2692,0,0,1-5.7-2.5791c-.8973,6.7441-.7373,13.3219,1.6207,18.2117,5.4982,11.4044,71.0615,16.83,71.0615,16.83l2.0585-7.3932s-38.4725-16.03-46.9286-23.0765Z"/></g></svg>