<svg id="Layer_1" data-name="Layer 1" xmlns="http://www.w3.org/2000/svg" viewBox="0 0 156.31 191.86"><defs><style>.cls-1{fill:#281f30;}.cls-2{fill:#aebdb6;}.cls-3{fill:#2c2660;}.cls-4{fill:#ddf2eb;}.cls-5{fill:#423745;}.cls-6{fill:#65586a;}.cls-7{fill:#020400;}.cls-8{fill:#6fc5ff;}.cls-9{fill:#68d2e8;}</style></defs><path class="cls-1" d="M120,52.47c-.25,21.08-13.78,127.9-79.64,114.65,35.61,34.26,52,20.25,65.37,10.54C152,144.15,162.08,78.76,120,52.47Z"/><path class="cls-2" d="M120.28,49.83l-10,.65V93.17h0A2.25,2.25,0,0,0,111.57,95L147,115.49a8.28,8.28,0,0,0,7.44-.31,3.06,3.06,0,0,0,1.82-2.41h0V70Z"/><path class="cls-2" d="M151.44,67.91v.83a1.24,1.24,0,0,1-.74,1.15,4,4,0,0,1-3.71,0l-.12-.07V66Z"/><polygon class="cls-3" points="145.11 65.13 155.65 69.31 109.63 49.83 145.11 65.13"/><path class="cls-4" d="M155,68.21,119.54,47.73c-1.9-1.11-5.23-1-7.44.31s-2.44,3.19-.53,4.29L147,72.81a8.25,8.25,0,0,0,7.44-.31C156.69,71.23,156.93,69.31,155,68.21Z"/><path class="cls-5" d="M103,4.82C47.18-27.53-19.46,111.59,24.15,164.38c8.08,9.78,27.71,18.46,41.12,23.69C29,139.55,59.48,14.79,135.13,23.81,124.42,17.48,113.79,11,103,4.82Z"/><path class="cls-1" d="M124.31,22.48c-3-.34-11.29,1.53-11.9,1.7,5.33,8.33,3,26.61,3,26.61a1.19,1.19,0,0,0,.74,1.26L147,69.89a4,4,0,0,0,3.67-.28C151.68,69,149.9,25.33,124.31,22.48Z"/><path class="cls-6" d="M151.44,67.91v.83a1.24,1.24,0,0,1-.74,1.15,4,4,0,0,1-3.71,0l-.12-.07V62.47c0-16.93-5.37-29.73-14.73-35.13a20.93,20.93,0,0,0-10.65-2.76c-5.31,0-11.12,1.74-17.09,5.18l-6.84,3.95C72.88,48,52.81,86.4,52.81,119.41v30c0,16.93,5.37,29.73,14.72,35.13,7.6,4.39,17.44,3.53,27.74-2.42l6.85-3.95c19.45-11.23,36-37.47,42.18-64.25l2.75,1.59a5.59,5.59,0,0,0,1.39.54c-6.68,27.56-23.88,54.44-44,66.07l-6.84,4c-6.69,3.85-13.28,5.8-19.39,5.8a25.55,25.55,0,0,1-12.92-3.39c-10.8-6.24-17-20.48-17-39.08v-30c0-34.47,21.1-74.68,47-89.65l6.85-4c11.77-6.8,23.25-7.66,32.31-2.42,10.8,6.24,17,20.48,17,39.08Z"/><path class="cls-7" d="M70.32,83.64,13.52,50.85a3.69,3.69,0,0,0-3.73-.33h0L2,55l5.76,2.23V139.5c0,4.26,2.59,9.2,5.78,11.05l54.32,31.36-1.35,6.14,7.57-4.38h0c1.25-.69,2-2.34,2-4.7V94.68C76.1,90.43,73.51,85.48,70.32,83.64Z"/><path class="cls-5" d="M62.58,88.12,5.78,55.33C2.59,53.49,0,55.44,0,59.7V144c0,4.25,2.59,9.19,5.78,11l56.8,32.79c3.19,1.85,5.78-.11,5.78-4.37V99.17C68.36,94.91,65.77,90,62.58,88.12Z"/><path class="cls-8" d="M65.24,99.17v84.29c0,1.18-1.65,1.35-2,1.14L7.34,152.33c-2.25-1.3-4.22-5.2-4.22-8.35V59.7c0-1.19.74-1.88,1.1-1.67L61,90.83C62.63,91.75,65.24,95.39,65.24,99.17Z"/><path class="cls-9" d="M65.24,99.17v84.29c0,1.18-1.65,1.35-2,1.14L8.29,152.87,64.8,96.36A10,10,0,0,1,65.24,99.17Z"/><path class="cls-2" d="M72.4,129.84a4.25,4.25,0,0,0-1.72,3.76c.13,1.46,1.1,2.14,2.18,1.52a4.24,4.24,0,0,0,1.72-3.76C74.45,129.9,73.48,129.22,72.4,129.84Z"/></svg>