<svg width="115" height="81" viewBox="0 0 115 81" fill="none" xmlns="http://www.w3.org/2000/svg">
<path d="M50.3226 9.03226V20.9936C49.9305 20.7661 49.4855 20.646 49.0322 20.6452H45.1613V15.4839C45.1613 15.4839 42.5806 15.4839 38.1935 11.6129C38.1935 11.6129 33.5484 16.7742 21.9355 16.7742V20.6452H18.0645C17.6113 20.646 17.1662 20.7661 16.7742 20.9936V9.03226C16.7742 6.63675 17.7258 4.33936 19.4197 2.64549C21.1135 0.95161 23.4109 0 25.8064 0H41.2903C42.3169 0 43.3015 0.407833 44.0275 1.13378C44.7534 1.85973 45.1613 2.84432 45.1613 3.87097C46.5301 3.87097 47.8429 4.41475 48.8109 5.38267C49.7788 6.3506 50.3226 7.6634 50.3226 9.03226Z" fill="#494A59"/>
<path d="M41.2297 42.4512L59.4839 50.7737C61.7525 51.7921 63.6783 53.4449 65.029 55.5328C66.3798 57.6207 67.0979 60.0547 67.0968 62.5415V79.0318C67.0968 79.2885 66.9948 79.5346 66.8133 79.7161C66.6318 79.8976 66.3857 79.9995 66.129 79.9995H0.967743C0.711082 79.9995 0.464933 79.8976 0.283446 79.7161C0.101959 79.5346 1.20593e-06 79.2885 1.20593e-06 79.0318V62.5415C-0.00107412 60.0547 0.717029 57.6207 2.06777 55.5328C3.41851 53.4449 5.34425 51.7921 7.6129 50.7737L25.8723 42.4512" fill="#4294FF"/>
<path d="M34.5161 56.1299V80.0008H32.5806V56.1299C32.5806 55.8732 32.6825 55.627 32.864 55.4456C33.0455 55.2641 33.2916 55.1621 33.5483 55.1621C33.805 55.1621 34.0511 55.2641 34.2326 55.4456C34.4141 55.627 34.5161 55.8732 34.5161 56.1299Z" fill="#376CFB"/>
<path d="M55.1613 64.5166V80.0004H53.2258V64.5166C53.2258 64.2599 53.3278 64.0138 53.5093 63.8323C53.6908 63.6508 53.9369 63.5488 54.1936 63.5488C54.4502 63.5488 54.6964 63.6508 54.8779 63.8323C55.0594 64.0138 55.1613 64.2599 55.1613 64.5166Z" fill="#376CFB"/>
<path d="M13.871 64.5166V80.0004H11.9355V64.5166C11.9355 64.2599 12.0375 64.0138 12.219 63.8323C12.4005 63.6508 12.6466 63.5488 12.9033 63.5488C13.16 63.5488 13.4061 63.6508 13.5876 63.8323C13.7691 64.0138 13.871 64.2599 13.871 64.5166Z" fill="#376CFB"/>
<path d="M41.2903 33.1621V41.2911C41.2872 43.3435 40.4705 45.3109 39.0193 46.7621C37.5681 48.2134 35.6007 49.03 33.5483 49.0331C31.495 49.0331 29.5259 48.2174 28.074 46.7655C26.6221 45.3136 25.8064 43.3444 25.8064 41.2911V33.175C27.9359 35.08 30.6936 36.1321 33.5508 36.1297C36.408 36.1273 39.1639 35.0706 41.2903 33.1621V33.1621Z" fill="#F9B0AC"/>
<path d="M47.7419 19.3555H43.871L43.5793 28.3877H47.7419C48.4264 28.3877 49.0828 28.1158 49.5667 27.6319C50.0507 27.1479 50.3226 26.4915 50.3226 25.8071V21.9361C50.3226 21.2517 50.0507 20.5953 49.5667 20.1113C49.0828 19.6274 48.4264 19.3555 47.7419 19.3555Z" fill="#F9B0AC"/>
<path d="M23.2258 19.3555H19.3548C18.6704 19.3555 18.014 19.6274 17.53 20.1113C17.0461 20.5953 16.7742 21.2517 16.7742 21.9361V25.8071C16.7742 26.4915 17.0461 27.1479 17.53 27.6319C18.014 28.1158 18.6704 28.3877 19.3548 28.3877H23.5161L23.2258 19.3555Z" fill="#F9B0AC"/>
<path d="M21.9355 15.4836V25.8061C21.9355 28.8861 23.159 31.8399 25.3369 34.0177C27.5147 36.1955 30.4685 37.419 33.5485 37.419V37.419C36.6284 37.419 39.5822 36.1955 41.76 34.0177C43.9379 31.8399 45.1614 28.8861 45.1614 25.8061V14.1932C45.1614 14.1932 42.5807 14.1932 38.1936 10.3223C38.1936 10.3223 33.5485 15.4836 21.9355 15.4836Z" fill="#FFC0BB"/>
<path d="M41.2903 37.4191L42.0232 37.694C43.0128 38.0645 43.916 38.6338 44.6773 39.3666C45.4386 40.0995 46.0418 40.9804 46.4498 41.9552C46.8577 42.93 47.0618 43.9779 47.0495 45.0346C47.0371 46.0912 46.8086 47.1341 46.378 48.0991C45.9839 48.9154 45.4518 49.6575 44.8051 50.2927L33.5483 61.9352C33.5483 61.9352 46.9419 53.0436 56.5161 51.0178C56.8923 50.9427 57.2467 50.7836 57.5529 50.5525C57.8591 50.3214 58.1092 50.0243 58.2847 49.6831C58.4602 49.342 58.5564 48.9657 58.5663 48.5822C58.5762 48.1987 58.4995 47.8179 58.3419 47.4681C56.4529 43.2914 51.7883 36.7172 41.2903 37.4191Z" fill="#376CFB"/>
<path d="M25.8064 37.4191L25.0735 37.694C24.0839 38.0645 23.1807 38.6338 22.4194 39.3666C21.6581 40.0995 21.0549 40.9804 20.647 41.9552C20.239 42.93 20.0349 43.9779 20.0472 45.0346C20.0596 46.0912 20.2881 47.1341 20.7187 48.0991C21.1128 48.9154 21.6449 49.6575 22.2916 50.2927L33.5484 61.9352C33.5484 61.9352 20.1548 53.0436 10.5806 51.0178C10.2045 50.9427 9.85007 50.7836 9.54386 50.5525C9.23765 50.3214 8.9875 50.0243 8.81203 49.6831C8.63656 49.342 8.5403 48.9657 8.53039 48.5822C8.52049 48.1987 8.5972 47.8179 8.75483 47.4681C10.6439 43.2914 15.3084 36.7172 25.8064 37.4191Z" fill="#376CFB"/>
<path d="M47.0322 45.1748L41.187 42.5425C41.2545 42.1287 41.289 41.7102 41.2902 41.2909V37.4199L42.0257 37.6909C43.5377 38.2586 44.8338 39.2858 45.7318 40.6282C46.6298 41.9706 47.0845 43.5606 47.0322 45.1748V45.1748Z" fill="#2946ED"/>
<path d="M47.0322 45.1745C47.0227 46.1344 46.8201 47.0826 46.4366 47.9626C46.0531 48.8426 45.4965 49.6365 44.7999 50.297L33.5483 61.9357L22.2967 50.297C21.6002 49.6365 21.0436 48.8426 20.6601 47.9625C20.2766 47.0825 20.0741 46.1344 20.0645 45.1745L25.9096 42.5293C26.1365 43.9363 26.7478 45.2532 27.6759 46.3347C28.604 47.4162 29.8128 48.2202 31.169 48.6581C32.5253 49.0959 33.9761 49.1505 35.3614 48.8158C36.7467 48.4812 38.0125 47.7702 39.0193 46.7616C40.1728 45.6219 40.9323 44.1436 41.187 42.5422L47.0322 45.1745Z" fill="#07085B"/>
<path d="M25.9098 42.5296L20.0646 45.1748C20.0123 43.5606 20.467 41.9706 21.365 40.6282C22.263 39.2858 23.5591 38.2586 25.0711 37.6909L25.8065 37.4199V41.2909C25.8078 41.7059 25.8423 42.1201 25.9098 42.5296V42.5296Z" fill="#2946ED"/>
<path d="M50 74.8398V79.356C50 79.5271 50 80.0011 50 80.0011C50 80.0011 50.7111 80.0011 50.9678 80.0011H62.9032V74.8398H50Z" fill="#FFC0BB"/>
<path d="M93.8711 74.8398V80.0011H105.807C106.063 80.0011 106.309 79.9332 106.491 79.8122C106.672 79.6912 106.774 79.5271 106.774 79.356V74.8398H93.8711Z" fill="#FFC0BB"/>
<path d="M83.5486 9.12376C83.5344 9.10827 94.0273 1.17666 101.613 7.80763C111.936 16.8399 97.7421 43.227 114.516 49.0334C114.516 49.0334 77.9112 59.5005 82.9034 9.70311L83.5486 9.12376Z" fill="#343544"/>
<path d="M61.613 34.8395V19.3557C61.612 17.4915 61.9785 15.6453 62.6914 13.9228C63.4043 12.2003 64.4498 10.6352 65.768 9.31704C67.0862 7.99884 68.6512 6.95339 70.3737 6.24046C72.0962 5.52753 73.9424 5.16109 75.8066 5.16211H79.0711C80.8031 5.16332 82.5006 5.64579 83.9743 6.55566C85.4441 7.47473 86.6353 8.77743 87.4195 10.3234C89.5821 10.6842 91.5467 11.8001 92.9642 13.4728C94.3816 15.1454 95.1602 17.2664 95.1614 19.4589V34.8395H61.613Z" fill="#494A59"/>
<path d="M86.1291 43.4844V54.1941L78.3872 60.6457L70.6453 54.1941V43.4844C72.7713 45.3951 75.5287 46.4522 78.3872 46.4522C81.2457 46.4522 84.0031 45.3951 86.1291 43.4844V43.4844Z" fill="#F9B0AC"/>
<path d="M104.756 61.1856C90.9291 55.0462 95.0736 56.8888 86.1291 52.9043L78.3872 59.3559L70.6452 52.9043C61.6981 56.8901 65.8517 55.0424 52.0181 61.1856C50.6496 61.7936 49.4868 62.7854 48.6706 64.0409C47.8543 65.2964 47.4197 66.7616 47.4194 68.2591V75.1624C47.4194 75.419 47.5214 75.6652 47.7029 75.8467C47.8844 76.0281 48.1305 76.1301 48.3872 76.1301H61.613V80.0011H95.1614V76.1301H108.387C108.644 76.1301 108.89 76.0281 109.071 75.8467C109.253 75.6652 109.355 75.419 109.355 75.1624V68.2591C109.355 66.7616 108.92 65.2964 108.104 64.0409C107.288 62.7854 106.125 61.7936 104.756 61.1856Z" fill="#C073FD"/>
<path d="M95.1613 33.5494V36.13C95.1593 36.8138 94.8867 37.4691 94.4032 37.9526C93.9197 38.4361 93.2645 38.7086 92.5807 38.7107H87.1355C87.3226 37.8632 87.4178 36.998 87.4194 36.13V30.9688H92.5807C93.2645 30.9708 93.9197 31.2433 94.4032 31.7269C94.8867 32.2104 95.1593 32.8656 95.1613 33.5494V33.5494Z" fill="#F9B0AC"/>
<path d="M69.6388 38.7107H64.1937C63.5099 38.7086 62.8547 38.4361 62.3711 37.9526C61.8876 37.4691 61.6151 36.8138 61.613 36.13V33.5494C61.6151 32.8656 61.8876 32.2104 62.3711 31.7269C62.8547 31.2433 63.5099 30.9708 64.1937 30.9688H69.355V36.13C69.3566 36.998 69.4517 37.8632 69.6388 38.7107V38.7107Z" fill="#F9B0AC"/>
<path d="M78.3872 70.6456C78.6438 70.6456 78.89 70.5436 79.0715 70.3622C79.253 70.1807 79.3549 69.9345 79.3549 69.6779V58.5488L78.3872 59.3553L77.4194 58.5488V69.6779C77.4194 69.9345 77.5214 70.1807 77.7029 70.3622C77.8844 70.5436 78.1305 70.6456 78.3872 70.6456Z" fill="#8E32BA"/>
<path d="M90.0001 74.5175H84.8388C84.5822 74.5175 84.336 74.4156 84.1545 74.2341C83.9731 74.0526 83.8711 73.8064 83.8711 73.5498C83.8711 73.2931 83.9731 73.047 84.1545 72.8655C84.336 72.684 84.5822 72.582 84.8388 72.582H90.0001C90.2568 72.582 90.5029 72.684 90.6844 72.8655C90.8659 73.047 90.9679 73.2931 90.9679 73.5498C90.9679 73.8064 90.8659 74.0526 90.6844 74.2341C90.5029 74.4156 90.2568 74.5175 90.0001 74.5175Z" fill="#B056DB"/>
<path d="M97.0969 69.6787V76.1303H95.1614V69.6787C95.1614 69.422 95.2633 69.1759 95.4448 68.9944C95.6263 68.8129 95.8725 68.7109 96.1291 68.7109C96.3858 68.7109 96.6319 68.8129 96.8134 68.9944C96.9949 69.1759 97.0969 69.422 97.0969 69.6787Z" fill="#B056DB"/>
<path d="M61.613 69.6787V76.1303H59.6775V69.6787C59.6775 69.422 59.7794 69.1759 59.9609 68.9944C60.1424 68.8129 60.3886 68.7109 60.6452 68.7109C60.9019 68.7109 61.148 68.8129 61.3295 68.9944C61.511 69.1759 61.613 69.422 61.613 69.6787Z" fill="#B056DB"/>
<path d="M78.3873 59.3559L71.9357 64.5172L63.5486 56.0656L70.6454 52.9043L78.3873 59.3559Z" fill="#B056DB"/>
<path d="M93.2259 56.0656L84.8388 64.5172L78.3872 59.3559L86.1291 52.9043L93.2259 56.0656Z" fill="#B056DB"/>
<path d="M66.7742 24.9652V36.1304C66.7742 39.2103 67.9977 42.1641 70.1755 44.3419C72.3534 46.5198 75.3071 47.7433 78.3871 47.7433V47.7433C81.467 47.7433 84.4208 46.5198 86.5986 44.3419C88.7765 42.1641 90 39.2103 90 36.1304V28.3884C77.2335 28.022 73.2258 20.6465 73.2258 20.6465C71.5918 22.7383 69.3309 24.2518 66.7742 24.9652Z" fill="#FFC0BB"/>
</svg>
