<svg width="855" height="800" viewBox="0 0 855 800" fill="none" xmlns="http://www.w3.org/2000/svg">
<g clip-path="url(#clip0_615_1065)">
<path d="M180.088 66.3975C218.666 13.8117 300.935 -60.6045 408.614 85.1231C515.962 230.403 852.599 94.883 854.255 224.317C855.902 353.753 720.289 361.654 762.173 486.78C804.061 611.905 861.567 682.527 853.882 726.902C846.198 771.278 804.061 836.274 704.799 774.904C605.539 713.529 519.043 498.113 271.513 561.495C23.9837 624.876 64.0328 224.595 180.088 66.3975Z" fill="#FAFDFF"/>
<path d="M537.105 164.105C537.105 164.105 446.297 37.0703 363.532 73.7772C280.767 110.484 189.841 171.891 147.855 309.788C103.307 456.106 90.1272 602.23 243.363 603.914C396.599 605.598 395.524 543.902 545.407 661.28C695.288 778.66 770.673 831.95 779.53 723.954C788.388 615.957 707.702 515.121 763.54 432.719C819.374 350.317 830.394 253.371 724.933 230.233C619.469 207.095 565.804 188.201 537.105 164.105V164.105Z" stroke="#E2EBEF" stroke-width="15.8655" stroke-miterlimit="10"/>
<path d="M556.97 71.5081C556.97 71.5081 454.754 8.77205 440.499 32.9722C426.244 57.1732 594.608 136.202 556.97 71.5081" fill="#E2EBEF"/>
<path d="M503.563 461.132C503.563 461.132 466.492 427.861 495.089 375.058C510.939 345.786 502.624 265.812 451.315 290.631C399.993 315.456 413.9 284.507 384.931 298.312C355.939 312.119 343.131 332.88 347.034 355.539C350.945 378.183 348.399 421.36 330.586 429.663C312.773 437.963 227.415 484.391 282.422 543.037C337.438 601.68 537.461 558.618 503.563 461.132" fill="#201D1D"/>
<path d="M142.037 531.612C142.836 553.193 159.184 605.855 169.101 636.023H322.95L350.467 560.388C350.467 560.388 408.709 469.741 308.436 409.606C294.04 400.974 219.19 407.304 219.19 407.304C219.19 407.304 163.745 411.015 90.2168 521.253C87.9138 524.706 140.886 500.536 142.037 531.612" fill="url(#paint0_linear_615_1065)"/>
<path d="M234.161 356.66C235.313 362.414 245.274 379.839 201.916 419.965C170.824 448.739 269.859 452.193 304.405 408.454C304.405 408.454 251.433 401.548 268.707 304.865C281.669 232.313 234.161 356.66 234.161 356.66Z" fill="#FFBCAE"/>
<path d="M339.006 506.111C307.1 496.544 257.86 488.882 243.344 483.778C239.501 486.018 238.499 485.263 235.664 488.663C245.903 507.328 281.933 558.731 313.617 570.362C351.235 584.175 356.608 578.036 361.982 568.06C367.356 558.084 377.39 517.621 339.006 506.111" fill="#FFBCAE"/>
<path d="M266.678 359.888C264.469 345.911 264.583 327.954 268.707 304.865C281.669 232.312 234.161 356.659 234.161 356.659C235.147 361.592 242.604 375.101 217.411 404.127C237.864 399.728 255.525 383.214 266.678 359.888Z" fill="#F5937F"/>
<path d="M215.951 273.659C215.951 273.659 202.72 345.287 208.012 361.464C213.305 377.638 229.102 381.413 247.705 359.152C283.43 316.406 282.107 282.902 271.521 277.125C260.937 271.349 231.829 249.398 215.951 273.659Z" fill="#FFBCAE"/>
<path d="M243.372 284.147C232.186 285.943 214.584 292.204 203.07 263.429C191.553 234.655 216.887 228.9 229.554 243.863C242.221 258.825 241.07 265.73 233.008 258.825C224.948 251.919 237.616 231.2 249.131 245.014C260.646 258.825 265.252 279.543 259.494 278.392C253.737 277.241 272.161 254.221 279.071 264.58C285.98 274.94 290.586 289.902 282.525 294.505C274.465 299.109 265.252 282.996 273.313 288.751C281.374 294.505 283.677 325.582 273.313 330.186C262.949 334.79 262.949 326.734 272.161 317.527C281.374 308.316 268.707 289.325 264.101 307.743C263.706 309.322 260.646 319.827 260.646 319.827L253.737 325.582C253.737 325.582 253.737 304.865 258.343 297.384C268.727 280.519 268.411 280.129 243.372 284.147" fill="#201D1D"/>
<path d="M360.573 570.536C356.502 573.379 355.179 575.584 348.557 574.702C338.41 573.35 306.668 555.24 291.622 543.821C267.789 525.735 241.651 491.256 240.376 491.279C242.647 495.652 277.057 556.939 313.617 570.361C347.999 582.986 355.443 578.941 360.573 570.536" fill="#F5937F"/>
<path d="M106.201 469.827C106.201 476.379 100.887 481.691 94.3304 481.691C87.7742 481.691 82.4602 476.379 82.4602 469.827C82.4602 463.274 87.7742 457.962 94.3304 457.962C100.887 457.962 106.201 463.274 106.201 469.827Z" fill="#FAFAFD"/>
<path d="M81.4202 707.462C81.4202 707.462 78.2781 708.509 70.9463 707.462C63.6148 706.414 43.7144 702.226 25.9085 700.134C8.10303 698.039 8.10303 701.18 8.10303 707.462C8.10303 713.743 13.3399 734.68 33.2404 737.822C53.1405 740.961 86.6574 737.822 86.6574 737.822C86.6574 737.822 103.415 736.774 103.415 732.587C103.415 728.399 99.2263 701.18 81.4202 707.462" fill="#241716"/>
<path d="M227.007 624.758C227.007 624.758 93.9891 574.507 49.9986 574.507C6.00799 574.507 -11.7975 591.257 8.10297 619.523C28.0034 647.789 154.738 740.961 154.738 740.961H233.292C233.292 740.961 283.567 681.289 227.007 624.758Z" fill="#241716"/>
<path d="M322.32 705.368C322.32 705.368 340.125 658.258 327.557 625.805C314.988 593.351 289.85 569.272 261.571 581.835C233.292 594.398 76.1833 698.039 76.1833 698.039L91.8945 732.587C91.8945 732.587 213.362 710.632 232.244 691.759C233.292 690.711 232.244 732.587 260.523 738.868C279.923 743.176 305.561 734.68 322.32 705.368" fill="#4349A6"/>
<path d="M230.15 730.492C230.15 730.492 202.917 727.351 197.68 725.257C191.454 722.768 179.875 707.461 157.88 708.508C135.884 709.554 115.984 710.601 123.316 725.257C130.648 739.914 142.169 748.288 172.543 751.43C202.917 754.571 231.197 755.618 236.434 752.476C241.671 749.335 249.003 728.398 230.15 730.492" fill="#241716"/>
<path d="M82.4675 597.539L137.979 655.117" stroke="#4349A6" stroke-width="4.99944" stroke-miterlimit="10"/>
<path d="M273.092 669.773L223.865 698.039" stroke="#241716" stroke-width="4.99944" stroke-miterlimit="10"/>
<path d="M25.8062 448.274L91.9097 486.501L61.8664 533.188L57.8358 535.207L21.6233 453.238L25.8062 448.274Z" fill="#E2EBEF"/>
<path d="M7.04126 449.374L17.2807 452.931L48.9836 522.348L50.8583 537.072C50.8583 537.072 46.3604 536.767 45.7393 535.991C45.1186 535.217 7.04126 449.374 7.04126 449.374" fill="#284197"/>
<path d="M152.658 436.064L142.267 436.384C142.267 436.384 104.453 466.027 93.6105 480.919C82.7685 495.81 61.3128 521.873 59.6932 531.485C59.2909 533.874 59.012 534.646 58.9216 535.284C58.7672 536.369 58.9177 531.021 58.9177 531.021C58.9177 531.021 59.0572 514.744 55.3265 505.447C51.5958 496.149 25.8061 448.274 25.8061 448.274C25.8061 448.274 15.2637 452.314 13.2482 452.626C11.2322 452.938 48.6854 535.06 48.6854 535.06C48.6854 535.06 51.9461 539.166 56.9077 537.921C61.8695 536.676 64.4299 537.914 68.0697 533.028C69.0927 531.654 71.9394 525.118 71.9394 525.118L152.658 436.064Z" fill="#FAFDFF"/>
<path d="M161.647 429.7L159.166 429.547L67.1347 528.532C67.1347 528.532 66.3614 530.548 66.6724 531.633C66.9834 532.718 65.1911 536.319 61.1717 536.676C57.4026 537.012 51.8618 537.896 48.6868 536.61C45.5908 535.355 7.04125 449.376 7.04125 449.376L5.33618 450.152L43.8761 533.515C43.8761 533.515 42.9478 535.686 44.189 536.46C45.4305 537.234 51.4815 540.018 53.0327 540.171C54.5838 540.326 146.898 578.838 146.898 578.838L158.836 574.176L162.552 568.282L224.682 502.808L161.647 429.7" fill="#3A52AC"/>
<path d="M227.004 498.154L161.647 429.699L69.4622 529.769L159.298 572.004L231.195 502.491L227.004 498.154" fill="#445FB5"/>
<path d="M255.215 486.918C255.215 486.918 247.53 482.444 237.165 477.932C226.8 473.42 219.642 466.426 216.578 466.721C213.514 467.015 196.742 476.657 196.742 476.657L172.237 488.495C172.237 488.495 167.571 492.583 168.741 495.061C169.91 497.54 170.931 497.393 173.12 497.245C175.309 497.097 198.503 488.616 198.503 488.616L166.27 506.295L156.936 512.284C156.936 512.284 154.895 514.328 154.75 515.932C154.606 517.536 155.338 519.578 157.381 519.43C159.424 519.282 160.883 519.574 163.071 518.404C165.259 517.235 179.991 510.512 179.991 510.512C179.991 510.512 163.801 518.258 160.885 521.469C157.969 524.681 158.117 526.139 158.702 527.743C159.287 529.346 161.476 529.637 161.476 529.637L174.02 523.062C174.02 523.062 170.373 525.107 170.666 525.981C170.959 526.857 172.127 528.314 173.732 528.166C175.338 528.02 189.342 523.339 189.342 523.339L202.91 520.117L220.566 518.205L242.596 512.641C242.596 512.641 249.192 510.041 249.628 508.727C250.065 507.414 260.911 492.456 255.215 486.918" fill="#FFBCAE"/>
<path d="M158.836 574.176L70.0856 533.18C70.0856 533.18 69.0025 535.816 64.5071 537.835C60.0111 539.855 50.7056 539.399 50.7056 539.399L146.898 578.838C146.898 578.838 158.374 577.743 158.836 574.176Z" fill="#445FB5"/>
<path d="M91.9753 556.567C91.9753 556.567 90.5819 559.049 91.9809 562.613C93.3799 566.177 93.692 568.347 97.4153 569.583C101.139 570.819 101.449 570.975 103.308 569.423C105.169 567.871 113.072 561.818 113.072 561.818L119.268 553.441C119.268 553.441 121.126 549.565 118.643 548.637C116.161 547.709 113.99 547.401 110.736 550.969C107.483 554.537 101.437 557.644 99.7317 558.42C97.9176 559.246 91.9753 556.567 91.9753 556.567" fill="#FFBCAE"/>
<path d="M101.137 568.804C101.137 568.804 100.054 571.596 101.452 573.455C102.849 575.313 105.643 577.636 107.969 577.479C110.296 577.321 125.176 569.557 125.176 569.557L136.482 552.804L145.465 539.155C145.465 539.155 144.532 536.21 142.67 535.902C140.809 535.594 139.568 535.285 137.399 537.302C135.229 539.32 127.641 550.953 127.641 550.953L117.413 559.178C117.413 559.178 104.393 567.561 101.137 568.804" fill="#FFBCAE"/>
<path d="M160.355 541.156C160.355 541.156 159.576 536.971 157.095 537.439C154.614 537.906 150.431 542.096 145.937 546.905C141.445 551.715 139.12 554.508 139.12 554.508L131.216 560.095L113.548 573.289L112 575.305C112 575.305 109.986 578.252 112.778 579.024C115.571 579.797 117.435 582.896 121.931 580.877C126.426 578.857 141.149 567.837 141.149 567.837L150.443 555.427L157.015 545.966L160.355 541.156" fill="#FFBCAE"/>
<path d="M159.584 545.653C161.599 545.728 162.069 548.441 162.069 548.441L147.2 570.312C147.2 570.312 129.841 582.729 128.137 583.66C126.431 584.592 122.864 583.976 121.931 580.876C120.997 577.777 145.794 558.997 145.794 558.997C145.794 558.997 155.552 545.501 159.584 545.653" fill="#FFBCAE"/>
<path d="M479.883 458.56C479.883 458.56 511.992 561.225 510.257 574.765C508.522 588.303 498.195 629.972 485.711 623.112C473.227 616.252 455.619 577.329 450.283 546.291C444.946 515.252 390.854 413.544 479.883 458.56Z" fill="#FF7C33"/>
<path d="M447.413 447.043C443.223 447.043 393.996 441.809 393.996 441.809L360.48 456.464C360.48 456.464 343.722 455.418 347.911 482.637C352.101 509.856 396.092 615.591 404.471 620.826C412.85 626.06 477.787 635.482 488.262 631.294C498.736 627.107 517.588 625.014 517.588 625.014C517.588 625.014 517.588 548.591 519.683 544.403C521.779 540.216 522.825 515.091 498.736 496.247C482.136 483.262 447.413 447.043 447.413 447.043" fill="#FF7C33"/>
<path d="M374.096 469.03C374.096 469.03 444.271 563.249 445.319 576.858C446.366 590.468 433.798 630.25 420.181 626.062C406.565 621.875 381.428 587.327 369.906 558.015C358.386 528.701 318.584 433.435 374.096 469.03Z" fill="#EC5E0F"/>
<path d="M392.964 373.761L399.248 442.403L443.239 447.043L432.764 404.121L392.964 373.761Z" fill="#FFBCAE"/>
<path d="M438.25 426.393C437.08 425.931 435.834 425.374 434.492 424.704C420.639 417.781 405.444 407.658 395.204 398.261L392.611 368.172L432.401 400.701L438.25 426.393" fill="#F5937F"/>
<path d="M465.939 334.938C465.939 334.938 468.846 369.582 460.124 389.529C451.401 409.476 452.37 425.223 432.986 414.726C413.602 404.227 391.311 386.379 386.465 374.831C381.619 363.284 389.373 347.536 401.972 354.884C414.572 362.233 413.602 351.735 426.202 353.835C438.801 355.935 462.062 353.835 465.939 334.938Z" fill="#FFBCAE"/>
<path d="M461.029 642.812C461.029 642.812 574.148 593.608 620.233 584.186C666.319 574.765 706.081 549.639 687.229 599.889C668.375 650.14 542.726 740.172 542.726 740.172C542.726 740.172 419.134 768.438 461.029 642.812Z" fill="#241716"/>
<path d="M628.612 601.984C628.612 601.984 582.527 626.062 569.958 653.281" stroke="#4349A6" stroke-width="4.99944" stroke-miterlimit="10"/>
<path d="M415.923 602.595C415.923 602.595 416.819 612.882 416.819 615.119C416.819 617.355 426.663 620.039 436.956 620.039C447.248 620.039 523.323 576.205 530.483 573.074C537.642 569.943 554.2 565.47 558.228 565.023C562.255 564.577 565.387 553.395 563.149 546.237C561.67 541.502 560.189 537.354 557.93 535.997C556.775 535.302 555.418 535.338 553.752 536.398C548.83 539.528 529.141 556.525 529.141 556.525C529.141 556.525 483.048 565.023 464.701 573.074C446.354 581.125 424.874 590.965 415.923 602.595Z" fill="#FFBCAE"/>
<path d="M581.498 539.079L557.931 535.995L563.15 546.235L560.017 561.891L572.995 564.127C572.995 564.127 574.785 561.891 572.547 560.996C570.31 560.101 567.177 558.76 567.177 558.76C567.177 558.76 573.443 557.865 576.127 557.419C578.813 556.971 579.26 556.076 579.26 554.734C579.26 553.393 576.575 552.498 576.575 552.498C576.575 552.498 581.498 550.709 581.945 549.368C582.392 548.025 583.287 546.235 582.392 544.894C581.498 543.552 582.84 539.973 581.498 539.079Z" fill="#ED8656"/>
<path d="M626.517 703.53C626.517 703.53 653.749 707.718 660.033 705.624C666.319 703.53 697.74 702.483 709.261 709.812C720.783 717.14 729.162 734.937 693.55 742.266C657.939 749.594 610.806 743.312 604.522 739.125C598.237 734.937 618.138 699.343 626.517 703.53" fill="#E2EBEF"/>
<path d="M630.706 701.438C630.706 701.438 497.688 605.125 472.551 593.609C447.413 582.093 404.471 560.108 393.996 583.139C383.523 606.171 381.428 637.578 386.664 665.843C391.902 694.109 442.243 728.75 478.835 731.797C491.404 732.844 481.977 683.641 481.977 683.641L607.664 734.938L630.706 701.438" fill="#4349A6"/>
<path d="M606.616 721.328C606.616 721.328 422.276 653.281 412.85 643.86C403.423 634.437 411.803 680.5 414.944 692.016" stroke="#7B7CC6" stroke-width="4.99944" stroke-miterlimit="10"/>
<path d="M510.257 711.904C510.257 711.904 531.205 693.061 544.82 690.967C558.437 688.873 576.243 682.592 580.432 697.248C584.622 711.904 564.721 738.077 536.441 744.357C508.162 750.639 500.015 757.1 485.119 751.686C473.598 747.499 470.456 732.842 472.551 725.515C474.645 718.187 497.688 716.092 510.257 711.904Z" fill="#E2EBEF"/>
<path d="M683.15 530.684L626.42 563.56L652.255 603.625L655.717 605.355L686.745 534.943L683.15 530.684" fill="#E2EBEF"/>
<path d="M699.263 531.616L690.474 534.677L663.307 594.308L661.709 606.953C661.709 606.953 665.571 606.686 666.104 606.021C666.637 605.356 699.263 531.616 699.263 531.616" fill="#284197"/>
<path d="M574.218 520.301L583.14 520.568C583.14 520.568 615.633 545.991 624.955 558.769C634.277 571.547 652.721 593.908 654.119 602.16C654.466 604.211 654.706 604.873 654.785 605.422C654.918 606.353 654.785 601.761 654.785 601.761C654.785 601.761 654.652 587.785 657.848 579.799C661.043 571.813 683.15 530.684 683.15 530.684C683.15 530.684 692.205 534.144 693.937 534.411C695.667 534.677 663.574 605.222 663.574 605.222C663.574 605.222 660.777 608.75 656.517 607.684C652.255 606.619 650.057 607.684 646.928 603.491C646.049 602.313 643.598 596.703 643.598 596.703L574.218 520.301" fill="#FAFDFF"/>
<path d="M566.494 514.844L568.624 514.711L647.727 599.632C647.727 599.632 648.393 601.362 648.127 602.294C647.86 603.226 649.402 606.316 652.854 606.619C656.091 606.905 660.849 607.661 663.574 606.553C666.231 605.474 699.264 531.616 699.264 531.616L700.728 532.281L667.703 603.891C667.703 603.891 668.501 605.755 667.436 606.42C666.371 607.086 661.176 609.482 659.846 609.614C658.514 609.748 579.279 642.891 579.279 642.891L569.024 638.898L565.828 633.839L512.428 577.67L566.494 514.844" fill="#3A52AC"/>
<path d="M510.43 573.676L566.494 514.844L645.729 600.696L568.624 637.033L506.834 577.403L510.43 573.676" fill="url(#paint1_linear_615_1065)"/>
<path d="M483.176 568.299C483.176 568.299 486.934 566.592 495.02 563.062C503.106 559.534 508.686 554.07 511.079 554.298C513.469 554.525 526.567 562.039 526.567 562.039L545.7 571.258C545.7 571.258 549.344 574.446 548.433 576.382C547.523 578.316 546.725 578.203 545.017 578.089C543.308 577.975 525.2 571.373 525.2 571.373L550.369 585.146L557.658 589.814C557.658 589.814 559.252 591.407 559.367 592.659C559.48 593.911 558.911 595.505 557.317 595.391C555.722 595.277 554.584 595.505 552.875 594.595C551.166 593.683 539.664 588.447 539.664 588.447C539.664 588.447 552.306 594.481 554.584 596.984C556.861 599.489 556.747 600.628 556.292 601.879C555.836 603.132 554.127 603.359 554.127 603.359L544.333 598.237C544.333 598.237 547.18 599.831 546.953 600.514C546.725 601.197 545.813 602.335 544.561 602.222C543.308 602.108 532.375 598.464 532.375 598.464L521.784 595.96L508.003 594.481L490.806 590.154C490.806 590.154 487.731 590.952 487.39 589.927C487.048 588.902 478.735 572.625 483.176 568.299" fill="#FFBCAE"/>
<path d="M569.024 638.898L645.197 603.625C645.197 603.625 646.129 605.888 649.991 607.618C653.853 609.349 661.843 608.95 661.843 608.95L579.279 642.891C579.279 642.891 569.424 641.959 569.024 638.898" fill="url(#paint2_linear_615_1065)"/>
<path d="M626.42 623.724C626.42 623.724 627.618 625.853 626.42 628.914C625.222 631.976 624.955 633.839 621.759 634.904C618.563 635.969 618.297 636.103 616.699 634.771C615.1 633.44 608.309 628.249 608.309 628.249L602.982 621.062C602.982 621.062 601.384 617.734 603.515 616.935C605.646 616.136 607.51 615.87 610.306 618.932C613.103 621.993 618.297 624.656 619.761 625.32C621.32 626.029 626.42 623.724 626.42 623.724" fill="#FFBCAE"/>
<path d="M618.563 634.24C618.563 634.24 619.495 636.635 618.296 638.233C617.098 639.83 614.701 641.826 612.704 641.693C610.706 641.56 597.922 634.905 597.922 634.905L588.2 620.53L580.476 608.817C580.476 608.817 581.276 606.287 582.873 606.021C584.471 605.755 585.537 605.489 587.401 607.219C589.266 608.95 595.791 618.932 595.791 618.932L604.58 625.987C604.58 625.987 615.766 633.174 618.563 634.24" fill="#FFBCAE"/>
<path d="M567.693 610.547C567.693 610.547 568.358 606.954 570.489 607.353C572.62 607.753 576.215 611.346 580.077 615.472C583.938 619.599 585.937 621.994 585.937 621.994L592.729 626.786L607.909 638.1L609.241 639.831C609.241 639.831 610.972 642.36 608.576 643.025C606.178 643.691 604.581 646.353 600.719 644.622C596.857 642.892 584.205 633.441 584.205 633.441L576.215 622.793L570.565 614.673L567.693 610.547" fill="#FFBCAE"/>
<path d="M568.358 614.406C566.629 614.472 566.227 616.803 566.227 616.803L579.012 635.57C579.012 635.57 593.927 646.218 595.391 647.017C596.856 647.816 599.919 647.283 600.718 644.621C601.518 641.958 580.21 625.853 580.21 625.853C580.21 625.853 571.82 614.273 568.358 614.406" fill="#FFBCAE"/>
</g>
<defs>
<linearGradient id="paint0_linear_615_1065" x1="556.121" y1="382.15" x2="462.151" y2="624.08" gradientUnits="userSpaceOnUse">
<stop stop-color="#0032C8"/>
<stop offset="0.13" stop-color="#003DBB"/>
<stop offset="0.38" stop-color="#00599A"/>
<stop offset="0.7" stop-color="#008565"/>
<stop offset="1" stop-color="#00B42D"/>
</linearGradient>
<linearGradient id="paint1_linear_615_1065" x1="786.372" y1="493.608" x2="751.821" y2="656.738" gradientUnits="userSpaceOnUse">
<stop stop-color="#0032C8"/>
<stop offset="0.13" stop-color="#003DBB"/>
<stop offset="0.38" stop-color="#00599A"/>
<stop offset="0.7" stop-color="#008565"/>
<stop offset="1" stop-color="#00B42D"/>
</linearGradient>
<linearGradient id="paint2_linear_615_1065" x1="755.829" y1="596.801" x2="750.308" y2="651.012" gradientUnits="userSpaceOnUse">
<stop stop-color="#0032C8"/>
<stop offset="0.13" stop-color="#003DBB"/>
<stop offset="0.38" stop-color="#00599A"/>
<stop offset="0.7" stop-color="#008565"/>
<stop offset="1" stop-color="#00B42D"/>
</linearGradient>
<clipPath id="clip0_615_1065">
<rect width="854.579" height="800" fill="white"/>
</clipPath>
</defs>
</svg>
