<svg width="720" height="517" viewBox="0 0 720 517" fill="none" xmlns="http://www.w3.org/2000/svg">
<path d="M188.51 155.047C245.51 87.5469 257.51 3.04978 380.331 13.9574C472.07 22.1046 675.318 78.7789 711.51 250.552C741.148 391.221 683.003 501.466 551.51 515.046C420.016 528.626 395.621 467.522 273.301 445.794C265.249 444.364 118.235 479.481 47.0098 445.794C-19.8753 414.159 -11.3188 301.09 47.0098 232.047C85.4812 186.508 165.856 181.874 188.51 155.047Z" fill="#EEF6FC"/>
<path d="M273.394 151.604C259.703 165.075 240.57 169.956 240.57 169.956L242.083 178.619C242.083 178.619 258.556 183.085 283.815 168.589C281.594 160.975 276.811 155.093 273.394 151.604Z" fill="url(#paint0_linear_615_1218)"/>
<path d="M283.815 168.612C286.645 166.977 289.598 165.122 292.649 162.974C319.225 144.281 329.329 95.9355 325.107 85.7101C319.469 72.1168 311.636 73.7031 305.193 78.6572C298.482 83.8554 294.772 92.1284 295.26 100.621C296.407 120.682 282.521 142.621 273.394 151.602C276.81 155.092 281.594 160.973 283.815 168.612Z" fill="url(#paint1_linear_615_1218)"/>
<path d="M244.646 168.684L237.129 166.659C235.982 166.341 235.055 167.562 235.616 168.611C236.178 169.611 236.056 170.685 234.396 171.564C229.637 174.078 217.972 175.444 214.506 175.176C210.699 174.883 229.027 194.699 247.965 175.883L244.646 168.684Z" fill="url(#paint2_linear_615_1218)"/>
<path d="M292.015 421.828C292.064 421.73 292.112 421.608 292.186 421.51C295.944 416.239 305.535 405.77 324.497 401.23L333.6 400.938C333.6 400.938 337.651 407.966 337.724 420.998C335.65 421.852 331.623 422.755 323.862 422.975C311.831 423.316 297.603 422.291 292.015 421.828Z" fill="url(#paint3_linear_615_1218)"/>
<path d="M323.497 407.48L319.128 237.332L352.928 228.596V256.954L335.479 407.455C335.504 407.48 331.135 410.75 323.497 407.48Z" fill="url(#paint4_linear_615_1218)"/>
<path d="M323.838 422.977C331.599 422.757 335.625 421.854 337.7 421C337.7 421.781 337.7 422.562 337.675 423.367C337.651 424.246 337.016 424.929 336.211 424.929L293.577 424.661C292.21 424.661 291.429 423.074 292.015 421.83C297.603 422.293 311.831 423.318 323.838 422.977Z" fill="url(#paint5_linear_615_1218)"/>
<path d="M353.196 422.294C353.196 422.05 353.196 421.806 353.27 421.587C356.833 407.408 374.599 398.598 374.599 398.598L381.627 399.159C385.679 411.654 385.142 419.317 384.507 422.734C384.483 422.831 384.458 422.929 384.434 423.002C378.626 423.49 366.692 423.832 353.196 422.294Z" fill="url(#paint6_linear_615_1218)"/>
<path d="M384.434 422.975C384.117 424.122 383.287 425.001 382.213 425.221C373.964 426.953 360.859 425.562 355.344 424.83C354.124 424.659 353.245 423.537 353.221 422.268C366.692 423.829 378.626 423.488 384.434 422.975Z" fill="url(#paint7_linear_615_1218)"/>
<path d="M326.766 198.09L319.128 207.9V237.356C319.128 237.356 334.673 242.335 337.675 251.535C345.46 275.476 367.814 329.703 367.985 403.038C367.985 403.038 376.014 406.894 381.92 405.015C381.92 405.015 380.212 246.093 371.475 207.925L326.766 198.09Z" fill="url(#paint8_linear_615_1218)"/>
<path d="M389.364 171.416C393.708 176.053 400.102 180.055 404.592 182.544C397.881 190.842 388.778 199.164 376.747 207.315L373.306 215.051L362.275 201.824C362.275 201.824 382.067 191.964 389.364 171.416Z" fill="url(#paint9_linear_615_1218)"/>
<path d="M299.531 91.8318C298.628 84.6569 302.508 77.6529 309.146 74.7731C335.552 63.3275 368.937 71.2345 382.872 72.9916C388.07 73.6505 392.853 76.213 396.27 80.1909C409.888 95.9561 439.759 139.079 404.592 182.543C400.101 180.054 393.708 176.051 389.364 171.414C393.244 160.457 393.561 146.424 385.41 129.244C385.142 130.61 384.776 131.953 384.361 133.27C373.135 168.876 372.525 198.503 372.549 205.312C372.549 206.239 371.988 207.069 371.109 207.435C356.442 213.292 328.353 209.876 318.566 208.436C317.005 208.216 315.833 206.947 315.687 205.385C313.32 178.882 302.752 117.554 299.531 91.8318Z" fill="url(#paint10_linear_615_1218)"/>
<path d="M357.321 44.3893L360.176 73.5037C360.176 73.5037 343.801 78.4334 331.891 70.0383L340.262 43.584L357.321 44.3893Z" fill="url(#paint11_linear_615_1218)"/>
<path d="M327.889 15.7391C327.62 16.2027 321.568 51.4915 321.568 51.4915L341.775 54.5176L352.488 21.9378C352.513 21.9378 332.355 7.83203 327.889 15.7391Z" fill="url(#paint12_linear_615_1218)"/>
<path d="M344.948 25.0872C345.509 25.795 345.729 26.7223 345.509 27.6253L341.263 44.9768C341.189 45.2453 341.092 45.4893 340.97 45.7333C340.238 47.0268 337.529 50.9559 333.575 47.9785C330.207 45.4405 327.059 43.1221 324.326 42.634C322.715 42.3411 321.202 43.4393 320.934 45.05C320.372 48.369 319.396 55.0802 319.347 61.1569C319.347 62.67 320.519 63.939 322.032 64.0854C326.034 64.4271 333.892 64.842 340.408 63.7682C341.482 63.5973 342.361 62.8408 342.702 61.8158C344.24 57.301 348.633 44.6595 350.414 41.2917C352.074 38.1436 356.784 37.6799 358.956 37.6311C359.786 37.6067 360.566 37.265 361.103 36.6305C362.763 34.7758 365.35 30.6514 360.518 26.5027C359.322 25.4777 359.2 23.6474 360.2 22.4272C362.006 20.2308 363.593 16.6921 359.859 12.8851C356.076 9.02916 351.708 9.93213 348.95 11.1768C347.73 11.7381 346.217 11.4696 345.363 10.4202C344.972 9.95653 344.411 9.63928 343.557 9.73689C341.946 9.90772 340.53 8.83393 340.36 7.22324C340.067 4.46555 338.627 1.21976 333.795 0.243589C324.912 -1.58674 320.372 7.29646 320.47 13.544C320.568 19.8159 330.305 21.2314 335.845 20.2552C339.92 19.4986 343.386 23.1105 344.948 25.0872Z" fill="url(#paint13_linear_615_1218)"/>
<path d="M348.779 47.6378C348.779 47.6378 349.096 36.729 353.514 35.7528C357.955 34.7767 362.69 38.0225 358.834 44.514C354.05 52.5919 348.779 47.6378 348.779 47.6378Z" fill="url(#paint14_linear_615_1218)"/>
<path d="M386.923 126.583C392.878 110.281 390.73 90.5868 390.706 90.3672L389.071 90.5624C389.095 90.7577 391.218 110.086 385.386 126.022L386.923 126.583Z" fill="url(#paint15_linear_615_1218)"/>
<path d="M332.233 142.473L326.766 72.6761L330.037 66.1113L337.041 72.8225L346.021 68.747L360.591 66.1113V74.8481L332.233 142.473Z" fill="white"/>
<path d="M336.918 74.7255L344.826 72.0898C345.533 71.8458 346.217 72.4559 346.07 73.188L344.484 81.1194C344.362 81.7783 343.605 82.0956 343.044 81.7539L336.138 77.4344C335.771 77.1903 335.259 77.2635 334.942 77.5808L331.452 81.0706C330.891 81.6319 329.914 81.2903 329.817 80.4849L329.085 73.2124C329.011 72.4803 329.744 71.9434 330.403 72.2362L336.211 74.7255C336.455 74.7987 336.699 74.7987 336.918 74.7255Z" fill="url(#paint16_linear_615_1218)"/>
<path d="M481.831 99.13C474.608 92.7117 466.774 87.6844 458.745 84.0481C450.374 80.2654 439.831 75.8483 437.708 66.9163C432.559 45.3916 418.624 47.5392 416.208 45.3916C398.417 29.5776 387.411 44.513 372.963 60.7419C358.54 76.9709 379.113 102.107 379.04 118.751C379.04 119.532 380.211 119.776 380.822 120.24C379.845 140.373 389.949 163.338 409.399 180.641C439.124 207.046 479.415 210.194 499.427 187.693C519.438 165.193 511.556 125.536 481.831 99.13Z" fill="url(#paint17_linear_615_1218)"/>
<path d="M399.686 186.425C390.021 145.499 415.109 113.017 415.109 113.017C399.686 98.2037 370.937 100.791 370.937 100.791C370.937 100.791 344.898 126.122 348.583 141.351C351.853 154.871 366.349 190.281 366.154 189.671C366.154 189.696 381.87 197.139 399.686 186.425Z" fill="white"/>
<path d="M421.113 203.047C417.184 191.211 399.711 182.791 399.711 182.791C381.895 193.505 366.179 186.061 366.179 186.061C366.179 186.061 362.665 199.532 365.081 212.052C367.521 224.571 378.04 427.128 378.04 427.128C427.117 440.208 483.833 424.956 483.833 424.956C444.566 393.303 425.042 214.883 421.113 203.047Z" fill="white"/>
<path d="M388.484 73.7769L395.488 106.479C396.245 109.578 394.39 110.847 391.12 111.042C385.897 111.36 379.357 108.065 377.136 104.063C376.917 103.648 376.795 103.184 376.746 102.745L373.378 78.2917C373.109 76.3637 374.159 74.4602 375.94 73.6792L382.456 70.7995C384.946 69.6769 387.85 71.0924 388.484 73.7769Z" fill="url(#paint18_linear_615_1218)"/>
<path d="M374.55 47.0744C374.55 47.0744 366.204 52.7362 362.592 67.1348C359.004 81.5334 364.837 86.7071 370.816 86.3898C376.795 86.0726 385.483 84.2178 393 73.8948C400.516 63.5473 385.483 40.1436 374.55 47.0744Z" fill="url(#paint19_linear_615_1218)"/>
<path d="M385.41 68.0884C385.41 68.0884 388.46 47.4423 371.328 50.5905L367.863 54.2023C367.863 54.2023 359.468 44.7578 368.766 37.6073C378.04 30.4569 390.925 32.2872 398.076 45.2947C405.202 58.3022 407.788 67.4295 401.809 75.5073C395.83 83.5852 391.34 76.6543 391.34 76.6543C391.34 76.6543 394.073 69.6503 391.804 66.6485C389.534 63.6468 386.605 68.4057 386.605 68.4057L385.41 68.0884Z" fill="url(#paint20_linear_615_1218)"/>
<path d="M387.753 69.8454C387.753 69.8454 389.266 59.2295 394.684 62.2556C400.101 65.2817 392.731 72.1882 389.778 74.531L387.753 69.8454Z" fill="url(#paint21_linear_615_1218)"/>
<path d="M392.194 37.9484C392.194 37.9484 397.661 35.5811 402.029 37.7531C406.397 39.9251 406.983 64.3783 404.494 70.1377C404.494 70.1621 403.078 47.9541 392.194 37.9484Z" fill="white"/>
<path d="M415.11 113.014C415.11 113.014 435.829 157.722 426.018 176.27C416.208 194.817 374.769 170.828 374.769 170.828L379.137 163.189C379.137 163.189 406.397 171.926 410.766 168.631C415.134 165.361 403.127 134.831 403.127 134.831C403.127 134.831 404.201 118.48 415.11 113.014Z" fill="url(#paint22_linear_615_1218)"/>
<path d="M374.696 178.081C373.476 177.471 372.67 176.25 372.548 174.908C372.011 169.197 369.278 152.798 355.783 156.288C339.48 160.509 334.648 160.509 338.285 152.676C341.896 144.842 348.168 137.984 363.153 142.304L373.891 144.817C373.891 144.817 385.361 134.568 396.221 136.374C407.081 138.179 407.081 141.816 403.469 147.844C399.857 153.872 385.361 153.871 381.139 156.898C377.698 159.362 380.285 169.905 381.334 173.663C381.651 174.786 381.48 175.982 380.821 176.958C379.845 178.349 377.991 179.74 374.696 178.081Z" fill="url(#paint23_linear_615_1218)"/>
<path d="M376.868 122.536C375.355 124.927 371.499 125.196 368.253 123.146C365.007 121.096 363.616 117.484 365.13 115.092C366.643 112.701 370.498 112.432 373.744 114.482C376.99 116.532 378.381 120.144 376.868 122.536Z" fill="url(#paint24_linear_615_1218)"/>
<path d="M360.2 140.056C358.394 145.962 351.365 149.013 344.508 146.914C337.65 144.815 333.574 138.323 335.38 132.442C337.186 126.536 344.215 123.486 351.072 125.584C357.93 127.683 362.006 134.15 360.2 140.056Z" fill="url(#paint25_linear_615_1218)"/>
<path d="M369.4 125.293C366.276 130.223 355.758 132.346 350.828 129.222C345.899 126.098 344.434 119.583 347.558 114.653C350.682 109.723 357.198 108.259 362.128 111.383C367.057 114.506 372.524 120.363 369.4 125.293Z" fill="url(#paint26_linear_615_1218)"/>
<path d="M369.693 138.35C366.472 143.426 359.761 144.915 354.709 141.694C349.633 138.472 345.631 132.322 348.852 127.271C352.073 122.195 361.274 120.145 366.35 123.366C371.402 126.563 372.915 133.274 369.693 138.35Z" fill="url(#paint27_linear_615_1218)"/>
<path d="M393.609 129.928C390.388 135.005 383.677 136.493 378.625 133.272C373.549 130.051 369.546 123.901 372.768 118.849C375.989 113.773 385.19 111.723 390.266 114.944C395.317 118.141 396.831 124.852 393.609 129.928Z" fill="url(#paint28_linear_615_1218)"/>
<path d="M392.096 136.838C388.167 143.037 377.136 145.941 370.962 142.012C364.763 138.083 362.42 129.566 366.349 123.367C370.279 117.168 378.991 115.655 385.19 119.584C391.364 123.514 396.025 130.64 392.096 136.838Z" fill="url(#paint29_linear_615_1218)"/>
<path d="M380.992 146.914C380.235 151.698 374.549 154.748 368.302 153.748C362.054 152.747 357.588 148.086 358.345 143.302C359.101 138.519 364.787 135.469 371.035 136.469C377.282 137.47 381.748 142.155 380.992 146.914Z" fill="url(#paint30_linear_615_1218)"/>
<path d="M389.192 126.199C394.17 123.588 400.052 125.003 402.321 129.347C404.591 133.691 402.419 139.328 397.441 141.94C392.462 144.551 386.581 143.136 384.311 138.792C382.041 134.448 384.213 128.81 389.192 126.199Z" fill="url(#paint31_linear_615_1218)"/>
<path d="M380.431 171.296C380.431 171.296 382.335 164.658 379.65 159.558C376.941 154.482 370.401 161.022 371.499 163.194C372.573 165.366 373.012 168.465 380.431 171.296Z" fill="url(#paint32_linear_615_1218)"/>
<path opacity="0.59" d="M485.15 165.316C485.223 165.316 485.272 165.292 485.296 165.219C491.568 154.944 491.324 140.497 484.71 128.417C479.195 118.338 469.726 109.772 456.597 102.987C455.425 102.377 454.229 101.792 453.082 101.23C449.007 99.2292 444.809 97.1548 441.271 94.2263C435.511 89.4918 431.631 82.5122 430.679 75.1177C430.533 73.9463 430.435 72.7504 430.362 71.6034C430.215 69.6023 430.069 67.5523 429.581 65.5756C428.654 61.9149 426.482 59.1572 423.773 58.2054C423.675 58.181 423.577 58.2298 423.529 58.3275C423.504 58.4251 423.553 58.5227 423.651 58.5715C426.238 59.4989 428.336 62.1589 429.215 65.6976C429.703 67.6499 429.849 69.6999 429.996 71.6767C430.069 72.8481 430.167 74.0439 430.313 75.2153C431.289 82.7074 435.218 89.7603 441.051 94.568C444.614 97.4965 448.836 99.5953 452.936 101.596C454.083 102.158 455.279 102.743 456.45 103.354C469.506 110.089 478.902 118.606 484.393 128.612C490.934 140.57 491.178 154.871 484.979 165.048C484.93 165.145 484.954 165.243 485.052 165.292C485.076 165.316 485.125 165.316 485.15 165.316Z" fill="white"/>
<path opacity="0.59" d="M495.302 182.791C495.351 182.791 495.424 182.767 495.448 182.718C503.892 170.491 504.966 152.969 498.206 136.984C492.862 124.342 482.978 112.482 467.994 100.695C467.92 100.621 467.798 100.646 467.749 100.719C467.676 100.792 467.701 100.914 467.774 100.963C482.709 112.702 492.544 124.538 497.864 137.106C504.576 152.969 503.526 170.369 495.156 182.498C495.107 182.571 495.131 182.693 495.204 182.742C495.229 182.791 495.253 182.791 495.302 182.791Z" fill="white"/>
<path d="M490.559 372.602L486.762 380.111H480.384L479.508 378.378L476.587 372.609L480.08 367.688H487.066L490.559 372.602Z" fill="white"/>
<path d="M489.887 372.778H477.259C477.167 372.778 477.097 372.708 477.097 372.616C477.097 372.524 477.167 372.453 477.259 372.453H489.887C489.979 372.453 490.05 372.524 490.05 372.616C490.043 372.708 489.972 372.778 489.887 372.778Z" fill="#D8DEE8"/>
<path d="M483.573 372.778C483.524 372.778 483.474 372.757 483.446 372.715L480.151 368.204C480.101 368.133 480.116 368.034 480.186 367.977C480.257 367.928 480.356 367.942 480.412 368.013L483.58 372.34L486.621 368.013C486.67 367.942 486.769 367.921 486.847 367.97C486.917 368.02 486.939 368.119 486.889 368.197L483.714 372.708C483.672 372.75 483.623 372.778 483.573 372.778Z" fill="#D8DEE8"/>
<path opacity="0.3" d="M483.7 372.706L483.686 372.776L481.989 379.055L479.508 378.391L476.587 372.614L480.08 367.686H481.989L483.573 372.345L483.616 372.465L483.7 372.706Z" fill="url(#paint33_linear_615_1218)"/>
<path d="M479.465 405.564C479.465 431.832 500.628 453.129 526.733 453.129C552.837 453.129 574 431.832 574 405.564C574 379.297 552.837 358 526.733 358C500.628 358 479.465 379.29 479.465 405.564ZM486.868 405.564C486.868 383.412 504.715 365.445 526.733 365.445C548.751 365.445 566.597 383.405 566.597 405.564C566.597 427.717 548.751 445.683 526.733 445.683C504.715 445.683 486.868 427.717 486.868 405.564Z" fill="url(#paint34_linear_615_1218)"/>
<path d="M446 414.84C446 435.989 463.033 453.128 484.047 453.128C505.061 453.128 522.094 435.989 522.094 414.84C522.094 393.692 505.061 376.553 484.047 376.553C463.033 376.553 446 393.699 446 414.84ZM453.163 414.84C453.163 397.673 466.986 383.758 484.047 383.758C501.102 383.758 514.932 397.673 514.932 414.84C514.932 432.008 501.109 445.923 484.047 445.923C466.986 445.923 453.163 432.008 453.163 414.84Z" fill="url(#paint35_linear_615_1218)"/>
<defs>
<linearGradient id="paint0_linear_615_1218" x1="244.496" y1="142.72" x2="274.258" y2="190.616" gradientUnits="userSpaceOnUse">
<stop stop-color="#FEBBBA"/>
<stop offset="1" stop-color="#FF928E"/>
</linearGradient>
<linearGradient id="paint1_linear_615_1218" x1="263.863" y1="167.957" x2="349.973" y2="55.4862" gradientUnits="userSpaceOnUse">
<stop stop-color="#09005D"/>
<stop offset="1" stop-color="#1A0F91"/>
</linearGradient>
<linearGradient id="paint2_linear_615_1218" x1="220.305" y1="157.749" x2="250.066" y2="205.646" gradientUnits="userSpaceOnUse">
<stop stop-color="#FEBBBA"/>
<stop offset="1" stop-color="#FF928E"/>
</linearGradient>
<linearGradient id="paint3_linear_615_1218" x1="337.703" y1="411.993" x2="292.013" y2="411.993" gradientUnits="userSpaceOnUse">
<stop stop-color="#09005D"/>
<stop offset="1" stop-color="#1A0F91"/>
</linearGradient>
<linearGradient id="paint4_linear_615_1218" x1="640.866" y1="-235.598" x2="255.05" y2="451.024" gradientUnits="userSpaceOnUse">
<stop stop-color="#09005D"/>
<stop offset="1" stop-color="#1A0F91"/>
</linearGradient>
<linearGradient id="paint5_linear_615_1218" x1="286.061" y1="399.831" x2="401.535" y2="490.501" gradientUnits="userSpaceOnUse">
<stop stop-color="#4F52FF"/>
<stop offset="1" stop-color="#4042E2"/>
</linearGradient>
<linearGradient id="paint6_linear_615_1218" x1="384.945" y1="411.003" x2="353.204" y2="411.003" gradientUnits="userSpaceOnUse">
<stop stop-color="#09005D"/>
<stop offset="1" stop-color="#1A0F91"/>
</linearGradient>
<linearGradient id="paint7_linear_615_1218" x1="305.484" y1="373.556" x2="420.958" y2="464.226" gradientUnits="userSpaceOnUse">
<stop stop-color="#4F52FF"/>
<stop offset="1" stop-color="#4042E2"/>
</linearGradient>
<linearGradient id="paint8_linear_615_1218" x1="667.291" y1="-257.275" x2="278.157" y2="435.253" gradientUnits="userSpaceOnUse">
<stop stop-color="#09005D"/>
<stop offset="1" stop-color="#1A0F91"/>
</linearGradient>
<linearGradient id="paint9_linear_615_1218" x1="404.604" y1="193.224" x2="362.274" y2="193.224" gradientUnits="userSpaceOnUse">
<stop stop-color="#FEBBBA"/>
<stop offset="1" stop-color="#FF928E"/>
</linearGradient>
<linearGradient id="paint10_linear_615_1218" x1="356.758" y1="78.8028" x2="387.898" y2="383.713" gradientUnits="userSpaceOnUse">
<stop stop-color="#09005D"/>
<stop offset="1" stop-color="#1A0F91"/>
</linearGradient>
<linearGradient id="paint11_linear_615_1218" x1="339.82" y1="36.5999" x2="362.971" y2="136.64" gradientUnits="userSpaceOnUse">
<stop stop-color="#FEBBBA"/>
<stop offset="1" stop-color="#FF928E"/>
</linearGradient>
<linearGradient id="paint12_linear_615_1218" x1="334.799" y1="19.9021" x2="343.79" y2="87.4121" gradientUnits="userSpaceOnUse">
<stop stop-color="#FEBBBA"/>
<stop offset="1" stop-color="#FF928E"/>
</linearGradient>
<linearGradient id="paint13_linear_615_1218" x1="355.673" y1="46.704" x2="312.975" y2="22.5465" gradientUnits="userSpaceOnUse">
<stop stop-color="#09005D"/>
<stop offset="1" stop-color="#1A0F91"/>
</linearGradient>
<linearGradient id="paint14_linear_615_1218" x1="365.965" y1="86.9709" x2="353.937" y2="41.3347" gradientUnits="userSpaceOnUse">
<stop stop-color="#FEBBBA"/>
<stop offset="1" stop-color="#FF928E"/>
</linearGradient>
<linearGradient id="paint15_linear_615_1218" x1="359.316" y1="55.4479" x2="407.239" y2="143.492" gradientUnits="userSpaceOnUse">
<stop stop-color="#09005D"/>
<stop offset="1" stop-color="#1A0F91"/>
</linearGradient>
<linearGradient id="paint16_linear_615_1218" x1="337.519" y1="72.309" x2="339.933" y2="95.9502" gradientUnits="userSpaceOnUse">
<stop stop-color="#09005D"/>
<stop offset="1" stop-color="#1A0F91"/>
</linearGradient>
<linearGradient id="paint17_linear_615_1218" x1="350.519" y1="0.688189" x2="602.365" y2="369.354" gradientUnits="userSpaceOnUse">
<stop stop-color="#C37D61"/>
<stop offset="1" stop-color="#573C00"/>
</linearGradient>
<linearGradient id="paint18_linear_615_1218" x1="389.823" y1="116.756" x2="380.174" y2="78.7466" gradientUnits="userSpaceOnUse">
<stop stop-color="#FEBBBA"/>
<stop offset="1" stop-color="#FF928E"/>
</linearGradient>
<linearGradient id="paint19_linear_615_1218" x1="368.25" y1="100.213" x2="400.9" y2="0.480675" gradientUnits="userSpaceOnUse">
<stop stop-color="#FEBBBA"/>
<stop offset="1" stop-color="#FF928E"/>
</linearGradient>
<linearGradient id="paint20_linear_615_1218" x1="1754.44" y1="1407.66" x2="1900.39" y2="1552.26" gradientUnits="userSpaceOnUse">
<stop stop-color="#C37D61"/>
<stop offset="1" stop-color="#573C00"/>
</linearGradient>
<linearGradient id="paint21_linear_615_1218" x1="380.177" y1="104.121" x2="412.827" y2="4.38957" gradientUnits="userSpaceOnUse">
<stop stop-color="#FEBBBA"/>
<stop offset="1" stop-color="#FF928E"/>
</linearGradient>
<linearGradient id="paint22_linear_615_1218" x1="377.18" y1="115.66" x2="459.64" y2="237.622" gradientUnits="userSpaceOnUse">
<stop stop-color="#FEBBBA"/>
<stop offset="1" stop-color="#FF928E"/>
</linearGradient>
<linearGradient id="paint23_linear_615_1218" x1="343.46" y1="106.176" x2="276.722" y2="3.33309" gradientUnits="userSpaceOnUse">
<stop stop-color="#4F52FF"/>
<stop offset="1" stop-color="#4042E2"/>
</linearGradient>
<linearGradient id="paint24_linear_615_1218" x1="365.143" y1="115.091" x2="376.865" y2="122.526" gradientUnits="userSpaceOnUse">
<stop stop-color="#FF928E"/>
<stop offset="1" stop-color="#FE7062"/>
</linearGradient>
<linearGradient id="paint25_linear_615_1218" x1="335.389" y1="132.434" x2="360.196" y2="140.055" gradientUnits="userSpaceOnUse">
<stop stop-color="#FF928E"/>
<stop offset="1" stop-color="#FE7062"/>
</linearGradient>
<linearGradient id="paint26_linear_615_1218" x1="347.553" y1="114.654" x2="367.939" y2="127.584" gradientUnits="userSpaceOnUse">
<stop stop-color="#FF928E"/>
<stop offset="1" stop-color="#FE7062"/>
</linearGradient>
<linearGradient id="paint27_linear_615_1218" x1="349.815" y1="125.737" x2="369.691" y2="138.344" gradientUnits="userSpaceOnUse">
<stop stop-color="#E1473D"/>
<stop offset="1" stop-color="#E9605A"/>
</linearGradient>
<linearGradient id="paint28_linear_615_1218" x1="373.732" y1="117.321" x2="393.609" y2="129.929" gradientUnits="userSpaceOnUse">
<stop stop-color="#E1473D"/>
<stop offset="1" stop-color="#E9605A"/>
</linearGradient>
<linearGradient id="paint29_linear_615_1218" x1="380.636" y1="113.136" x2="374.848" y2="175.1" gradientUnits="userSpaceOnUse">
<stop stop-color="#FF928E"/>
<stop offset="1" stop-color="#FE7062"/>
</linearGradient>
<linearGradient id="paint30_linear_615_1218" x1="358.352" y1="143.321" x2="381" y2="146.926" gradientUnits="userSpaceOnUse">
<stop stop-color="#E1473D"/>
<stop offset="1" stop-color="#E9605A"/>
</linearGradient>
<linearGradient id="paint31_linear_615_1218" x1="397.437" y1="141.946" x2="389.196" y2="126.203" gradientUnits="userSpaceOnUse">
<stop stop-color="#FF928E"/>
<stop offset="1" stop-color="#FE7062"/>
</linearGradient>
<linearGradient id="paint32_linear_615_1218" x1="371.213" y1="155.305" x2="390.413" y2="183.701" gradientUnits="userSpaceOnUse">
<stop stop-color="#FEBBBA"/>
<stop offset="1" stop-color="#FF928E"/>
</linearGradient>
<linearGradient id="paint33_linear_615_1218" x1="476.591" y1="373.369" x2="483.703" y2="373.369" gradientUnits="userSpaceOnUse">
<stop stop-color="#AA80F9"/>
<stop offset="0.9964" stop-color="#6165D7"/>
</linearGradient>
<linearGradient id="paint34_linear_615_1218" x1="525.146" y1="407.048" x2="613.451" y2="324.241" gradientUnits="userSpaceOnUse">
<stop stop-color="#FFC444"/>
<stop offset="0.9964" stop-color="#F36F56"/>
</linearGradient>
<linearGradient id="paint35_linear_615_1218" x1="456.191" y1="387.672" x2="512.197" y2="442.305" gradientUnits="userSpaceOnUse">
<stop stop-color="#FFC444"/>
<stop offset="0.9964" stop-color="#F36F56"/>
</linearGradient>
</defs>
</svg>
