<?xml version="1.0" encoding="utf-8"?>
<!-- Generator: Adobe Illustrator 24.3.0, SVG Export Plug-In . SVG Version: 6.00 Build 0)  -->
<svg version="1.1" id="Layer_1" xmlns="http://www.w3.org/2000/svg" xmlns:xlink="http://www.w3.org/1999/xlink" x="0px" y="0px"
	 viewBox="0 0 150.7 151.2" style="enable-background:new 0 0 150.7 151.2;" xml:space="preserve">
<style type="text/css">
	.st0{fill:#0F0F64;}
	.st1{fill:#0F0F65;}
	.st2{fill:#0F1066;}
	.st3{fill:#0F1067;}
	.st4{fill:#0E1067;}
	.st5{fill:#0E1068;}
	.st6{fill:#0E1169;}
	.st7{fill:#0E116A;}
	.st8{fill:#0E116B;}
	.st9{fill:#0E126C;}
	.st10{fill:#0E126D;}
	.st11{fill:#0E126E;}
	.st12{fill:#0D136E;}
	.st13{fill:#0D136F;}
	.st14{fill:#0D1370;}
	.st15{fill:#0D1371;}
	.st16{fill:#0D1471;}
	.st17{fill:#0D1472;}
	.st18{fill:#0D1473;}
	.st19{fill:#0D1574;}
	.st20{fill:#0C1575;}
	.st21{fill:#0C1576;}
	.st22{fill:#0C1677;}
	.st23{fill:#0C1678;}
	.st24{fill:#0C1679;}
	.st25{fill:#0C177A;}
	.st26{fill:#0C177B;}
	.st27{fill:#0B177C;}
	.st28{fill:#0B187C;}
	.st29{fill:#0B187D;}
	.st30{fill:#0B187E;}
	.st31{fill:#0B187F;}
	.st32{fill:#0B197F;}
	.st33{fill:#0B1980;}
	.st34{fill:#0B1981;}
	.st35{fill:#0A1A82;}
	.st36{fill:#0A1A83;}
	.st37{fill:#0A1A84;}
	.st38{fill:#0A1B85;}
	.st39{fill:#0A1B86;}
	.st40{fill:#0A1B87;}
	.st41{fill:#0A1B88;}
	.st42{fill:#0A1C88;}
	.st43{fill:#091C89;}
	.st44{fill:#091C8A;}
	.st45{fill:#091D8B;}
	.st46{fill:#091D8C;}
	.st47{fill:#091D8D;}
	.st48{fill:#091E8E;}
	.st49{fill:#091E8F;}
	.st50{fill:#081E8F;}
	.st51{fill:#081E90;}
	.st52{fill:#081F91;}
	.st53{fill:#081F92;}
	.st54{fill:#081F93;}
	.st55{fill:#082094;}
	.st56{fill:#082095;}
	.st57{fill:#082096;}
	.st58{fill:#072196;}
	.st59{fill:#072197;}
	.st60{fill:#072198;}
	.st61{fill:#072299;}
	.st62{fill:#07229A;}
	.st63{fill:#07229B;}
	.st64{fill:#07239C;}
	.st65{fill:#07239D;}
	.st66{fill:#06239D;}
	.st67{fill:#06239E;}
	.st68{fill:#06249F;}
	.st69{fill:#0624A0;}
	.st70{fill:#0624A1;}
	.st71{fill:#0625A2;}
	.st72{fill:#0625A3;}
	.st73{fill:#0525A4;}
	.st74{fill:#0526A4;}
	.st75{fill:#0526A5;}
	.st76{fill:#0526A6;}
	.st77{fill:#0526A7;}
	.st78{fill:#0527A8;}
	.st79{fill:#0527A9;}
	.st80{fill:#0527AA;}
	.st81{fill:#0428AB;}
	.st82{fill:#0428AC;}
	.st83{fill:#0428AD;}
	.st84{fill:#0429AD;}
	.st85{fill:#0429AE;}
	.st86{fill:#0429AF;}
	.st87{fill:#0429B0;}
	.st88{fill:#042AB0;}
	.st89{fill:#032AB1;}
	.st90{fill:#032AB2;}
	.st91{fill:#032BB3;}
	.st92{fill:#032BB4;}
	.st93{fill:#032BB5;}
	.st94{fill:#032CB6;}
	.st95{fill:#032CB7;}
	.st96{fill:#022CB8;}
	.st97{fill:#022DB9;}
	.st98{fill:#022DBA;}
	.st99{fill:#022DBB;}
	.st100{fill:#022EBB;}
	.st101{fill:#022EBC;}
	.st102{fill:#022EBD;}
	.st103{fill:#022EBE;}
	.st104{fill:#012FBE;}
	.st105{fill:#012FBF;}
	.st106{fill:#012FC0;}
	.st107{fill:#0130C1;}
	.st108{fill:#0130C2;}
	.st109{fill:#0130C3;}
	.st110{fill:#0131C4;}
	.st111{fill:#0131C5;}
	.st112{fill:#0031C5;}
	.st113{fill:#0031C6;}
	.st114{fill:#0032C7;}
	.st115{fill:#0032C8;}
	.st116{fill:#0033C9;}
	.st117{fill:#0034C9;}
	.st118{fill:#0034CA;}
	.st119{fill:#0035CA;}
	.st120{fill:#0035CB;}
	.st121{fill:#0036CB;}
	.st122{fill:#0036CC;}
	.st123{fill:#0037CC;}
	.st124{fill:#0037CD;}
	.st125{fill:#0038CD;}
	.st126{fill:#0039CE;}
	.st127{fill:#003ACE;}
	.st128{fill:#003ACF;}
	.st129{fill:#003BCF;}
	.st130{fill:#003BD0;}
	.st131{fill:#003CD0;}
	.st132{fill:#003CD1;}
	.st133{fill:#003DD1;}
	.st134{fill:#003ED2;}
	.st135{fill:#003FD3;}
	.st136{fill:#0040D3;}
	.st137{fill:#0040D4;}
	.st138{fill:#0041D4;}
	.st139{fill:#0041D5;}
	.st140{fill:#0042D5;}
	.st141{fill:#0042D6;}
	.st142{fill:#0043D6;}
	.st143{fill:#0044D7;}
	.st144{fill:#0045D7;}
	.st145{fill:#0045D8;}
	.st146{fill:#0046D8;}
	.st147{fill:#0046D9;}
	.st148{fill:#0047D9;}
	.st149{fill:#0047DA;}
	.st150{fill:#0048DA;}
	.st151{fill:#0048DB;}
	.st152{fill:#0049DB;}
	.st153{fill:#0049DC;}
	.st154{fill:#004ADC;}
	.st155{fill:#004BDD;}
	.st156{fill:#004CDD;}
	.st157{fill:#004CDE;}
	.st158{fill:#004DDE;}
	.st159{fill:#004DDF;}
	.st160{fill:#004EDF;}
	.st161{fill:#004EE0;}
	.st162{fill:#004FE0;}
	.st163{fill:#0050E1;}
	.st164{fill:#0051E2;}
	.st165{fill:#0052E2;}
	.st166{fill:#0052E3;}
	.st167{fill:#0053E3;}
	.st168{fill:#0053E4;}
	.st169{fill:#0054E4;}
	.st170{fill:#0054E5;}
	.st171{fill:#0055E5;}
	.st172{fill:#0056E6;}
	.st173{fill:#0057E6;}
	.st174{fill:#0057E7;}
	.st175{fill:#0058E7;}
	.st176{fill:#0058E8;}
	.st177{fill:#0059E8;}
	.st178{fill:#0059E9;}
	.st179{fill:#005AE9;}
	.st180{fill:#005AEA;}
	.st181{fill:#005BEA;}
	.st182{fill:#005BEB;}
	.st183{fill:#005CEB;}
	.st184{fill:#005DEC;}
	.st185{fill:#005EEC;}
	.st186{fill:#005EED;}
	.st187{fill:#005FED;}
	.st188{fill:#005FEE;}
	.st189{fill:#0060EE;}
	.st190{fill:#0060EF;}
	.st191{fill:#0061EF;}
	.st192{fill:#0062F0;}
	.st193{fill:#0063F1;}
	.st194{fill:#0064F1;}
	.st195{fill:#0064F2;}
	.st196{fill:#0065F2;}
	.st197{fill:#0065F3;}
	.st198{fill:#0066F3;}
	.st199{fill:#0066F4;}
	.st200{fill:#0067F4;}
	.st201{fill:#0068F5;}
	.st202{fill:#0069F5;}
	.st203{fill:#0069F6;}
	.st204{fill:#006AF6;}
	.st205{fill:#006AF7;}
	.st206{fill:#006BF7;}
	.st207{fill:#006BF8;}
	.st208{fill:#006CF8;}
	.st209{fill:#006CF9;}
	.st210{fill:#006DF9;}
	.st211{fill:#006EFA;}
</style>
<g>
	<g>
		<circle class="st0" cx="75.9" cy="30.3" r="30.2"/>
		<circle class="st1" cx="74.9" cy="30.3" r="30.2"/>
		<circle class="st1" cx="73.8" cy="30.4" r="30.2"/>
		<circle class="st2" cx="72.8" cy="30.4" r="30.2"/>
		<circle class="st3" cx="71.8" cy="30.5" r="30.2"/>
		<circle class="st4" cx="70.7" cy="30.6" r="30.2"/>
		<circle class="st5" cx="69.7" cy="30.8" r="30.2"/>
		<circle class="st6" cx="68.7" cy="30.9" r="30.2"/>
		<circle class="st7" cx="67.7" cy="31.1" r="30.2"/>
		<circle class="st7" cx="66.7" cy="31.3" r="30.2"/>
		<circle class="st8" cx="65.7" cy="31.5" r="30.2"/>
		<circle class="st9" cx="64.8" cy="31.8" r="30.2"/>
		<circle class="st9" cx="63.8" cy="32" r="30.2"/>
		<circle class="st10" cx="62.8" cy="32.3" r="30.2"/>
		<circle class="st11" cx="61.9" cy="32.6" r="30.2"/>
		<circle class="st12" cx="60.9" cy="33" r="30.2"/>
		<circle class="st13" cx="60" cy="33.3" r="30.2"/>
		<circle class="st14" cx="59.1" cy="33.7" r="30.2"/>
		<circle class="st15" cx="58.2" cy="34.1" r="30.2"/>
		<circle class="st16" cx="57.2" cy="34.5" r="30.2"/>
		<circle class="st17" cx="56.4" cy="34.9" r="30.2"/>
		<circle class="st18" cx="55.5" cy="35.4" r="30.2"/>
		<circle class="st18" cx="54.6" cy="35.9" r="30.2"/>
		<circle class="st19" cx="53.7" cy="36.3" r="30.2"/>
		<circle class="st20" cx="52.9" cy="36.9" r="30.2"/>
		<circle class="st20" cx="52" cy="37.4" r="30.2"/>
		<circle class="st21" cx="51.2" cy="37.9" r="30.2"/>
		<circle class="st22" cx="50.4" cy="38.5" r="30.2"/>
		<circle class="st23" cx="49.6" cy="39" r="30.2"/>
		<circle class="st23" cx="48.8" cy="39.6" r="30.2"/>
		<circle class="st24" cx="48" cy="40.2" r="30.2"/>
		<circle class="st25" cx="47.2" cy="40.9" r="30.2"/>
		<circle class="st25" cx="46.5" cy="41.5" r="30.2"/>
		<circle class="st26" cx="45.7" cy="42.2" r="30.2"/>
		<circle class="st27" cx="45" cy="42.8" r="30.2"/>
		<circle class="st28" cx="44.3" cy="43.5" r="30.2"/>
		<circle class="st29" cx="43.6" cy="44.2" r="30.2"/>
		<circle class="st30" cx="42.9" cy="44.9" r="30.2"/>
		<circle class="st31" cx="42.3" cy="45.6" r="30.2"/>
		<circle class="st32" cx="41.6" cy="46.4" r="30.2"/>
		<circle class="st33" cx="41" cy="47.1" r="30.2"/>
		<circle class="st34" cx="40.3" cy="47.9" r="30.2"/>
		<circle class="st34" cx="39.7" cy="48.6" r="30.2"/>
		<circle class="st35" cx="39.1" cy="49.4" r="30.2"/>
		<circle class="st36" cx="38.6" cy="50.2" r="30.2"/>
		<circle class="st36" cx="38" cy="51" r="30.2"/>
		<circle class="st37" cx="37.5" cy="51.9" r="30.2"/>
		<circle class="st38" cx="37" cy="52.7" r="30.2"/>
		<circle class="st39" cx="36.5" cy="53.5" r="30.2"/>
		<circle class="st39" cx="36" cy="54.4" r="30.2"/>
		<circle class="st40" cx="35.5" cy="55.2" r="30.2"/>
		<circle class="st41" cx="35" cy="56.1" r="30.2"/>
		<circle class="st42" cx="34.6" cy="57" r="30.2"/>
		<circle class="st43" cx="34.2" cy="57.9" r="30.2"/>
		<circle class="st44" cx="33.8" cy="58.8" r="30.2"/>
		<circle class="st44" cx="33.4" cy="59.7" r="30.2"/>
		<circle class="st45" cx="33.1" cy="60.6" r="30.2"/>
		<circle class="st46" cx="32.7" cy="61.5" r="30.2"/>
		<circle class="st47" cx="32.4" cy="62.4" r="30.2"/>
		<circle class="st47" cx="32.1" cy="63.3" r="30.2"/>
		<circle class="st48" cx="31.9" cy="64.3" r="30.2"/>
		<circle class="st49" cx="31.6" cy="65.2" r="30.2"/>
		<circle class="st50" cx="31.4" cy="66.2" r="30.2"/>
		<circle class="st51" cx="31.2" cy="67.1" r="30.2"/>
		<circle class="st52" cx="31" cy="68.1" r="30.2"/>
		<circle class="st52" cx="30.8" cy="69" r="30.2"/>
		<circle class="st53" cx="30.7" cy="70" r="30.2"/>
		<circle class="st54" cx="30.6" cy="71" r="30.2"/>
		<circle class="st55" cx="30.5" cy="72" r="30.2"/>
		<circle class="st55" cx="30.4" cy="72.9" r="30.2"/>
		<circle class="st56" cx="30.3" cy="73.9" r="30.2"/>
		<circle class="st57" cx="30.3" cy="74.9" r="30.2"/>
		<circle class="st58" cx="30.3" cy="75.9" r="30.2"/>
		<circle class="st59" cx="30.3" cy="76.9" r="30.2"/>
		<circle class="st60" cx="30.4" cy="77.9" r="30.2"/>
		<circle class="st60" cx="30.4" cy="78.9" r="30.2"/>
		<circle class="st61" cx="30.5" cy="79.9" r="30.2"/>
		<circle class="st62" cx="30.6" cy="80.8" r="30.2"/>
		<circle class="st63" cx="30.8" cy="81.8" r="30.2"/>
		<circle class="st63" cx="30.9" cy="82.8" r="30.2"/>
		<circle class="st64" cx="31.1" cy="83.7" r="30.2"/>
		<circle class="st65" cx="31.3" cy="84.7" r="30.2"/>
		<circle class="st66" cx="31.5" cy="85.7" r="30.2"/>
		<circle class="st67" cx="31.8" cy="86.6" r="30.2"/>
		<circle class="st68" cx="32" cy="87.6" r="30.2"/>
		<circle class="st68" cx="32.3" cy="88.5" r="30.2"/>
		<circle class="st69" cx="32.6" cy="89.4" r="30.2"/>
		<circle class="st70" cx="32.9" cy="90.3" r="30.2"/>
		<circle class="st71" cx="33.3" cy="91.3" r="30.2"/>
		<circle class="st71" cx="33.6" cy="92.2" r="30.2"/>
		<circle class="st72" cx="34" cy="93.1" r="30.2"/>
		<circle class="st73" cx="34.4" cy="94" r="30.2"/>
		<circle class="st74" cx="34.8" cy="94.8" r="30.2"/>
		<circle class="st75" cx="35.3" cy="95.7" r="30.2"/>
		<circle class="st76" cx="35.7" cy="96.6" r="30.2"/>
		<circle class="st76" cx="36.2" cy="97.4" r="30.2"/>
		<circle class="st77" cx="36.7" cy="98.3" r="30.2"/>
		<circle class="st78" cx="37.2" cy="99.1" r="30.2"/>
		<circle class="st79" cx="37.7" cy="100" r="30.2"/>
		<circle class="st79" cx="38.3" cy="100.8" r="30.2"/>
		<circle class="st80" cx="38.8" cy="101.6" r="30.2"/>
		<circle class="st81" cx="39.4" cy="102.4" r="30.2"/>
		<circle class="st81" cx="40" cy="103.1" r="30.2"/>
		<circle class="st82" cx="40.6" cy="103.9" r="30.2"/>
		<circle class="st83" cx="41.3" cy="104.7" r="30.2"/>
		<circle class="st84" cx="41.9" cy="105.4" r="30.2"/>
		<circle class="st85" cx="42.6" cy="106.1" r="30.2"/>
		<circle class="st86" cx="43.2" cy="106.9" r="30.2"/>
		<circle class="st87" cx="43.9" cy="107.6" r="30.2"/>
		<circle class="st88" cx="44.6" cy="108.2" r="30.2"/>
		<circle class="st89" cx="45.3" cy="108.9" r="30.2"/>
		<circle class="st90" cx="46.1" cy="109.6" r="30.2"/>
		<circle class="st90" cx="46.8" cy="110.2" r="30.2"/>
		<circle class="st91" cx="47.6" cy="110.8" r="30.2"/>
		<circle class="st92" cx="48.3" cy="111.5" r="30.2"/>
		<circle class="st92" cx="49.1" cy="112.1" r="30.2"/>
		<circle class="st93" cx="49.9" cy="112.6" r="30.2"/>
		<circle class="st94" cx="50.7" cy="113.2" r="30.2"/>
		<circle class="st95" cx="51.6" cy="113.7" r="30.2"/>
		<circle class="st95" cx="52.4" cy="114.3" r="30.2"/>
		<circle class="st96" cx="53.2" cy="114.8" r="30.2"/>
		<circle class="st97" cx="54.1" cy="115.3" r="30.2"/>
		<circle class="st97" cx="55" cy="115.7" r="30.2"/>
		<circle class="st98" cx="55.8" cy="116.2" r="30.2"/>
		<circle class="st99" cx="56.7" cy="116.6" r="30.2"/>
		<circle class="st100" cx="57.6" cy="117.1" r="30.2"/>
		<circle class="st101" cx="58.5" cy="117.5" r="30.2"/>
		<circle class="st102" cx="59.5" cy="117.8" r="30.2"/>
		<circle class="st103" cx="60.4" cy="118.2" r="30.2"/>
		<circle class="st104" cx="61.3" cy="118.5" r="30.2"/>
		<circle class="st105" cx="62.3" cy="118.8" r="30.2"/>
		<circle class="st106" cx="63.2" cy="119.1" r="30.2"/>
		<circle class="st106" cx="64.2" cy="119.4" r="30.2"/>
		<circle class="st107" cx="65.2" cy="119.7" r="30.2"/>
		<circle class="st108" cx="66.2" cy="119.9" r="30.2"/>
		<circle class="st108" cx="67.2" cy="120.1" r="30.2"/>
		<circle class="st109" cx="68.2" cy="120.3" r="30.2"/>
		<circle class="st110" cx="69.2" cy="120.4" r="30.2"/>
		<circle class="st111" cx="70.2" cy="120.6" r="30.2"/>
		<circle class="st112" cx="71.2" cy="120.7" r="30.2"/>
		<circle class="st113" cx="72.3" cy="120.8" r="30.2"/>
		<circle class="st114" cx="73.3" cy="120.8" r="30.2"/>
		<circle class="st114" cx="74.3" cy="120.9" r="30.2"/>
		<circle class="st115" cx="75.4" cy="120.9" r="30.2"/>
	</g>
	<g>
		<circle class="st115" cx="75.4" cy="120.9" r="30.2"/>
		<circle class="st115" cx="76.5" cy="120.9" r="30.2"/>
		<circle class="st116" cx="77.6" cy="120.8" r="30.2"/>
		<circle class="st116" cx="78.7" cy="120.8" r="30.2"/>
		<circle class="st116" cx="79.8" cy="120.7" r="30.2"/>
		<circle class="st117" cx="80.8" cy="120.5" r="30.2"/>
		<circle class="st118" cx="81.9" cy="120.4" r="30.2"/>
		<circle class="st118" cx="83" cy="120.2" r="30.2"/>
		<circle class="st118" cx="84" cy="120" r="30.2"/>
		<circle class="st119" cx="85" cy="119.8" r="30.2"/>
		<circle class="st120" cx="86.1" cy="119.6" r="30.2"/>
		<circle class="st120" cx="87.1" cy="119.3" r="30.2"/>
		<circle class="st121" cx="88.1" cy="119" r="30.2"/>
		<circle class="st121" cx="89.1" cy="118.7" r="30.2"/>
		<circle class="st122" cx="90.1" cy="118.4" r="30.2"/>
		<circle class="st123" cx="91.1" cy="118.1" r="30.2"/>
		<circle class="st123" cx="92.1" cy="117.7" r="30.2"/>
		<circle class="st123" cx="93" cy="117.3" r="30.2"/>
		<circle class="st124" cx="94" cy="116.9" r="30.2"/>
		<circle class="st125" cx="94.9" cy="116.4" r="30.2"/>
		<circle class="st125" cx="95.9" cy="116" r="30.2"/>
		<circle class="st125" cx="96.8" cy="115.5" r="30.2"/>
		<circle class="st126" cx="97.7" cy="115" r="30.2"/>
		<circle class="st126" cx="98.6" cy="114.5" r="30.2"/>
		<circle class="st126" cx="99.4" cy="114" r="30.2"/>
		<circle class="st127" cx="100.3" cy="113.5" r="30.2"/>
		<circle class="st128" cx="101.1" cy="112.9" r="30.2"/>
		<circle class="st128" cx="102" cy="112.3" r="30.2"/>
		<circle class="st129" cx="102.8" cy="111.7" r="30.2"/>
		<circle class="st129" cx="103.6" cy="111.1" r="30.2"/>
		<circle class="st130" cx="104.4" cy="110.5" r="30.2"/>
		<circle class="st130" cx="105.2" cy="109.9" r="30.2"/>
		<circle class="st131" cx="105.9" cy="109.2" r="30.2"/>
		<circle class="st131" cx="106.7" cy="108.5" r="30.2"/>
		<circle class="st132" cx="107.4" cy="107.9" r="30.2"/>
		<circle class="st133" cx="108.1" cy="107.2" r="30.2"/>
		<circle class="st133" cx="108.8" cy="106.5" r="30.2"/>
		<circle class="st133" cx="109.5" cy="105.7" r="30.2"/>
		<circle class="st134" cx="110.2" cy="105" r="30.2"/>
		<circle class="st134" cx="110.8" cy="104.3" r="30.2"/>
		<circle class="st134" cx="111.4" cy="103.5" r="30.2"/>
		<circle class="st134" cx="112" cy="102.8" r="30.2"/>
		<circle class="st135" cx="112.6" cy="102" r="30.2"/>
		<circle class="st135" cx="113.2" cy="101.2" r="30.2"/>
		<circle class="st135" cx="113.7" cy="100.4" r="30.2"/>
		<circle class="st136" cx="114.3" cy="99.6" r="30.2"/>
		<circle class="st137" cx="114.8" cy="98.8" r="30.2"/>
		<circle class="st137" cx="115.3" cy="98" r="30.2"/>
		<circle class="st138" cx="115.8" cy="97.2" r="30.2"/>
		<circle class="st138" cx="116.2" cy="96.3" r="30.2"/>
		<circle class="st139" cx="116.6" cy="95.5" r="30.2"/>
		<circle class="st140" cx="117" cy="94.6" r="30.2"/>
		<circle class="st140" cx="117.4" cy="93.8" r="30.2"/>
		<circle class="st140" cx="117.8" cy="92.9" r="30.2"/>
		<circle class="st141" cx="118.1" cy="92.1" r="30.2"/>
		<circle class="st142" cx="118.5" cy="91.2" r="30.2"/>
		<circle class="st142" cx="118.8" cy="90.3" r="30.2"/>
		<circle class="st142" cx="119" cy="89.5" r="30.2"/>
		<circle class="st143" cx="119.3" cy="88.6" r="30.2"/>
		<circle class="st143" cx="119.5" cy="87.7" r="30.2"/>
		<circle class="st143" cx="119.7" cy="86.8" r="30.2"/>
		<circle class="st144" cx="119.9" cy="85.9" r="30.2"/>
		<circle class="st145" cx="120" cy="85" r="30.2"/>
		<circle class="st145" cx="120.2" cy="84.1" r="30.2"/>
		<circle class="st145" cx="120.3" cy="83.2" r="30.2"/>
		<circle class="st146" cx="120.4" cy="82.4" r="30.2"/>
		<circle class="st147" cx="120.4" cy="81.5" r="30.2"/>
		<circle class="st147" cx="120.4" cy="80.6" r="30.2"/>
		<circle class="st148" cx="120.4" cy="79.7" r="30.2"/>
		<circle class="st149" cx="120.4" cy="78.7" r="30.2"/>
		<circle class="st149" cx="120.3" cy="77.8" r="30.2"/>
		<circle class="st150" cx="120.3" cy="76.9" r="30.2"/>
		<circle class="st150" cx="120.2" cy="76" r="30.2"/>
		<circle class="st151" cx="120" cy="75.1" r="30.2"/>
		<circle class="st152" cx="119.8" cy="74.2" r="30.2"/>
		<circle class="st152" cx="119.7" cy="73.3" r="30.2"/>
		<circle class="st152" cx="119.4" cy="72.4" r="30.2"/>
		<circle class="st153" cx="119.2" cy="71.6" r="30.2"/>
		<circle class="st154" cx="118.9" cy="70.7" r="30.2"/>
		<circle class="st154" cx="118.6" cy="69.8" r="30.2"/>
		<circle class="st154" cx="118.3" cy="69" r="30.2"/>
		<circle class="st155" cx="118" cy="68.2" r="30.2"/>
		<circle class="st155" cx="117.6" cy="67.3" r="30.2"/>
		<circle class="st155" cx="117.2" cy="66.5" r="30.2"/>
		<circle class="st156" cx="116.8" cy="65.7" r="30.2"/>
		<circle class="st157" cx="116.3" cy="64.9" r="30.2"/>
		<circle class="st157" cx="115.9" cy="64.1" r="30.2"/>
		<circle class="st157" cx="115.4" cy="63.3" r="30.2"/>
		<circle class="st158" cx="114.9" cy="62.6" r="30.2"/>
		<circle class="st159" cx="114.3" cy="61.8" r="30.2"/>
		<circle class="st159" cx="113.8" cy="61.1" r="30.2"/>
		<circle class="st160" cx="113.2" cy="60.3" r="30.2"/>
		<circle class="st160" cx="112.6" cy="59.6" r="30.2"/>
		<circle class="st161" cx="112" cy="58.9" r="30.2"/>
		<circle class="st162" cx="111.4" cy="58.2" r="30.2"/>
		<circle class="st162" cx="110.7" cy="57.5" r="30.2"/>
		<circle class="st162" cx="110" cy="56.8" r="30.2"/>
		<circle class="st163" cx="109.3" cy="56.2" r="30.2"/>
		<circle class="st163" cx="108.6" cy="55.5" r="30.2"/>
		<circle class="st163" cx="107.9" cy="54.9" r="30.2"/>
		<circle class="st163" cx="107.2" cy="54.3" r="30.2"/>
		<circle class="st164" cx="106.4" cy="53.7" r="30.2"/>
		<circle class="st164" cx="105.6" cy="53.1" r="30.2"/>
		<circle class="st164" cx="104.8" cy="52.5" r="30.2"/>
		<circle class="st165" cx="104" cy="52" r="30.2"/>
		<circle class="st166" cx="103.1" cy="51.4" r="30.2"/>
		<circle class="st166" cx="102.3" cy="50.9" r="30.2"/>
		<circle class="st167" cx="101.4" cy="50.4" r="30.2"/>
		<circle class="st167" cx="100.5" cy="49.9" r="30.2"/>
		<circle class="st168" cx="99.7" cy="49.4" r="30.2"/>
		<circle class="st169" cx="98.7" cy="49" r="30.2"/>
		<circle class="st169" cx="97.8" cy="48.5" r="30.2"/>
		<circle class="st169" cx="96.9" cy="48.1" r="30.2"/>
		<circle class="st170" cx="95.9" cy="47.7" r="30.2"/>
		<circle class="st171" cx="95" cy="47.3" r="30.2"/>
		<circle class="st171" cx="94" cy="46.9" r="30.2"/>
		<circle class="st171" cx="93" cy="46.6" r="30.2"/>
		<circle class="st172" cx="92" cy="46.3" r="30.2"/>
		<circle class="st172" cx="91" cy="45.9" r="30.2"/>
		<circle class="st172" cx="89.9" cy="45.7" r="30.2"/>
		<circle class="st173" cx="88.9" cy="45.4" r="30.2"/>
		<circle class="st174" cx="87.8" cy="45.1" r="30.2"/>
		<circle class="st174" cx="86.8" cy="44.9" r="30.2"/>
		<circle class="st174" cx="85.7" cy="44.7" r="30.2"/>
		<circle class="st175" cx="84.6" cy="44.5" r="30.2"/>
		<circle class="st176" cx="83.5" cy="44.3" r="30.2"/>
		<circle class="st176" cx="82.4" cy="44.2" r="30.2"/>
		<circle class="st177" cx="81.3" cy="44" r="30.2"/>
		<circle class="st177" cx="80.2" cy="43.9" r="30.2"/>
		<circle class="st178" cx="79.1" cy="43.8" r="30.2"/>
		<circle class="st179" cx="78" cy="43.8" r="30.2"/>
		<circle class="st179" cx="76.8" cy="43.7" r="30.2"/>
		<circle class="st180" cx="75.7" cy="43.7" r="30.2"/>
		<circle class="st181" cx="75.4" cy="44.5" r="30.2"/>
		<circle class="st181" cx="75.4" cy="45.5" r="30.2"/>
		<circle class="st181" cx="75.4" cy="46.4" r="30.2"/>
		<circle class="st182" cx="75.4" cy="47.4" r="30.2"/>
		<circle class="st183" cx="75.4" cy="48.4" r="30.2"/>
		<circle class="st183" cx="75.4" cy="49.4" r="30.2"/>
		<circle class="st183" cx="75.4" cy="50.4" r="30.2"/>
		<circle class="st184" cx="75.4" cy="51.4" r="30.2"/>
		<circle class="st184" cx="75.4" cy="52.4" r="30.2"/>
		<circle class="st184" cx="75.4" cy="53.4" r="30.2"/>
		<circle class="st185" cx="75.4" cy="54.4" r="30.2"/>
		<circle class="st186" cx="75.4" cy="55.4" r="30.2"/>
		<circle class="st186" cx="75.4" cy="56.4" r="30.2"/>
		<circle class="st186" cx="75.4" cy="57.3" r="30.2"/>
		<circle class="st187" cx="75.4" cy="58.3" r="30.2"/>
		<circle class="st188" cx="75.4" cy="59.3" r="30.2"/>
		<circle class="st188" cx="75.4" cy="60.3" r="30.2"/>
		<circle class="st189" cx="75.4" cy="61.3" r="30.2"/>
		<circle class="st189" cx="75.4" cy="62.3" r="30.2"/>
		<circle class="st190" cx="75.4" cy="63.3" r="30.2"/>
		<circle class="st191" cx="75.4" cy="64.3" r="30.2"/>
		<circle class="st191" cx="75.4" cy="65.3" r="30.2"/>
		<circle class="st191" cx="75.4" cy="66.3" r="30.2"/>
		<circle class="st192" cx="75.4" cy="67.3" r="30.2"/>
		<circle class="st192" cx="75.4" cy="68.2" r="30.2"/>
		<circle class="st192" cx="75.4" cy="69.2" r="30.2"/>
		<circle class="st192" cx="75.4" cy="70.2" r="30.2"/>
		<circle class="st193" cx="75.4" cy="71.2" r="30.2"/>
		<circle class="st193" cx="75.4" cy="72.2" r="30.2"/>
		<circle class="st193" cx="75.4" cy="73.2" r="30.2"/>
		<circle class="st194" cx="75.4" cy="74.2" r="30.2"/>
		<circle class="st195" cx="75.4" cy="75.2" r="30.2"/>
		<circle class="st195" cx="75.4" cy="76.2" r="30.2"/>
		<circle class="st196" cx="75.4" cy="77.2" r="30.2"/>
		<circle class="st196" cx="75.4" cy="78.2" r="30.2"/>
		<circle class="st197" cx="75.4" cy="79.2" r="30.2"/>
		<circle class="st197" cx="75.4" cy="80.1" r="30.2"/>
		<circle class="st198" cx="75.4" cy="81.1" r="30.2"/>
		<circle class="st198" cx="75.4" cy="82.1" r="30.2"/>
		<circle class="st199" cx="75.4" cy="83.1" r="30.2"/>
		<circle class="st200" cx="75.4" cy="84.1" r="30.2"/>
		<circle class="st200" cx="75.4" cy="85.1" r="30.2"/>
		<circle class="st200" cx="75.4" cy="86.1" r="30.2"/>
		<circle class="st201" cx="75.4" cy="87.1" r="30.2"/>
		<circle class="st201" cx="75.4" cy="88.1" r="30.2"/>
		<circle class="st201" cx="75.4" cy="89.1" r="30.2"/>
		<circle class="st202" cx="75.4" cy="90.1" r="30.2"/>
		<circle class="st203" cx="75.4" cy="91" r="30.2"/>
		<circle class="st203" cx="75.4" cy="92" r="30.2"/>
		<circle class="st203" cx="75.4" cy="93" r="30.2"/>
		<circle class="st204" cx="75.4" cy="94" r="30.2"/>
		<circle class="st205" cx="75.4" cy="95" r="30.2"/>
		<circle class="st205" cx="75.4" cy="96" r="30.2"/>
		<circle class="st206" cx="75.4" cy="97" r="30.2"/>
		<circle class="st206" cx="75.4" cy="98" r="30.2"/>
		<circle class="st207" cx="75.4" cy="99" r="30.2"/>
		<circle class="st208" cx="75.4" cy="100" r="30.2"/>
		<circle class="st208" cx="75.4" cy="101" r="30.2"/>
		<circle class="st208" cx="75.4" cy="101.9" r="30.2"/>
		<circle class="st209" cx="75.4" cy="102.9" r="30.2"/>
		<circle class="st210" cx="75.4" cy="103.9" r="30.2"/>
		<circle class="st210" cx="75.4" cy="104.9" r="30.2"/>
		<circle class="st210" cx="75.4" cy="105.9" r="30.2"/>
		<circle class="st211" cx="75.4" cy="106.9" r="30.2"/>
		<circle class="st211" cx="75.4" cy="107.9" r="30.2"/>
	</g>
</g>
</svg>
